<?xml version="1.0" encoding="UTF-8" standalone="no"?>
<!DOCTYPE svg PUBLIC "-//W3C//DTD SVG 1.1//EN"
 "http://www.w3.org/Graphics/SVG/1.1/DTD/svg11.dtd">
<!-- Generated by graphviz version 2.38.0 (20140413.2041)
 -->
<!-- Title: Utils::String::toString Pages: 1 -->
<!--zoomable 1227 -->
<svg id="main" version="1.1" xmlns="http://www.w3.org/2000/svg" xmlns:xlink="http://www.w3.org/1999/xlink" xml:space="preserve" onload="init(evt)">
<style type="text/css"><![CDATA[
.edge:hover path { stroke: red; }
.edge:hover polygon { stroke: red; fill: red; }
]]></style>
<script type="text/javascript"><![CDATA[
var edges = document.getElementsByTagName('g');
if (edges && edges.length) {
  for (var i=0;i<edges.length;i++) {
    if (edges[i].id.substr(0,4)=='edge') {
      edges[i].setAttribute('class','edge');
    }
  }
}
]]></script>
        <defs>
                <circle id="rim" cx="0" cy="0" r="7"/>
                <circle id="rim2" cx="0" cy="0" r="3.5"/>
                <g id="zoomPlus">
                        <use xlink:href="#rim" fill="#404040">
                                <set attributeName="fill" to="#808080" begin="zoomplus.mouseover" end="zoomplus.mouseout"/>
                        </use>
                        <path d="M-4,0h8M0,-4v8" fill="none" stroke="white" stroke-width="1.5" pointer-events="none"/>
                </g>
                <g id="zoomMin">
                        <use xlink:href="#rim" fill="#404040">
                                <set attributeName="fill" to="#808080" begin="zoomminus.mouseover" end="zoomminus.mouseout"/>
                        </use>
                        <path d="M-4,0h8" fill="none" stroke="white" stroke-width="1.5" pointer-events="none"/>
                </g>
                <g id="dirArrow">
                        <path fill="none" stroke="white" stroke-width="1.5" d="M0,-3.0v7 M-2.5,-0.5L0,-3.0L2.5,-0.5"/>
                </g>
               <g id="resetDef">
                       <use xlink:href="#rim2" fill="#404040">
                               <set attributeName="fill" to="#808080" begin="reset.mouseover" end="reset.mouseout"/>
                       </use>
               </g>
        </defs>

<script type="text/javascript">
var viewWidth = 326;
var viewHeight = 1227;
var sectionId = 'dynsection-0';
</script>
<script xlink:href="../../svgpan.js"/>
<svg id="graph" class="graph">
<g id="viewport">
<title>Utils::String::toString</title>
<!-- Node1 -->
<g id="node1" class="node"><title>Node1</title>
<g id="a_node1"><a xlink:title=" ">
<polygon fill="#bfbfbf" stroke="black" points="211,-594 211,-613 318,-613 318,-594 211,-594"/>
<text text-anchor="middle" x="264.5" y="-601" font-family="Helvetica,sans-Serif" font-size="10.00">Utils::String::toString</text>
</a>
</g>
</g>
<!-- Node2 -->
<g id="node2" class="node"><title>Node2</title>
<g id="a_node2"><a xlink:href="../../db/dc6/class_instructions_1_1_jump_1_1_jump_sub_routine.xhtml#a34e75652b82a24f433bda808797578f4" target="_top" xlink:title=" ">
<polygon fill="none" stroke="black" points="0,-1188.5 0,-1218.5 175,-1218.5 175,-1188.5 0,-1188.5"/>
<text text-anchor="start" x="8" y="-1206.5" font-family="Helvetica,sans-Serif" font-size="10.00">Instructions::Jump</text>
<text text-anchor="middle" x="87.5" y="-1195.5" font-family="Helvetica,sans-Serif" font-size="10.00">::JumpSubRoutine::toBytecode_json</text>
</a>
</g>
</g>
<!-- Node1&#45;&gt;Node2 -->
<g id="edge1" class="edge"><title>Node1&#45;&gt;Node2</title>
<path fill="none" stroke="midnightblue" d="M263.244,-623.193C261.659,-714.344 250.549,-1094.45 175,-1179.5 171.999,-1182.88 168.567,-1185.8 164.842,-1188.32"/>
<polygon fill="midnightblue" stroke="midnightblue" points="266.744,-623.182 263.399,-613.129 259.745,-623.074 266.744,-623.182"/>
</g>
<!-- Node3 -->
<g id="node3" class="node"><title>Node3</title>
<g id="a_node3"><a xlink:href="../../d7/d51/class_instructions_1_1_branch_1_1_base_branch.xhtml#afd8c87a80492aea804057329ddbf4eb8" target="_top" xlink:title=" ">
<polygon fill="none" stroke="black" points="10,-1139.5 10,-1169.5 165,-1169.5 165,-1139.5 10,-1139.5"/>
<text text-anchor="start" x="18" y="-1157.5" font-family="Helvetica,sans-Serif" font-size="10.00">Instructions::Branch</text>
<text text-anchor="middle" x="87.5" y="-1146.5" font-family="Helvetica,sans-Serif" font-size="10.00">::BaseBranch::toBytecode_json</text>
</a>
</g>
</g>
<!-- Node1&#45;&gt;Node3 -->
<g id="edge2" class="edge"><title>Node1&#45;&gt;Node3</title>
<path fill="none" stroke="midnightblue" d="M262.937,-623.138C260.069,-709.359 244.379,-1053.48 175,-1130.5 171.975,-1133.86 168.525,-1136.76 164.786,-1139.28"/>
<polygon fill="midnightblue" stroke="midnightblue" points="266.435,-623.237 263.249,-613.132 259.439,-623.018 266.435,-623.237"/>
</g>
<!-- Node4 -->
<g id="node4" class="node"><title>Node4</title>
<g id="a_node4"><a xlink:href="../../d0/df5/class_instructions_1_1_invokes_1_1_dynamic.xhtml#a1adee1a0ccff9a646b6254be03938f1e" target="_top" xlink:title=" ">
<polygon fill="none" stroke="black" points="17.5,-1090.5 17.5,-1120.5 157.5,-1120.5 157.5,-1090.5 17.5,-1090.5"/>
<text text-anchor="start" x="25.5" y="-1108.5" font-family="Helvetica,sans-Serif" font-size="10.00">Instructions::Invokes</text>
<text text-anchor="middle" x="87.5" y="-1097.5" font-family="Helvetica,sans-Serif" font-size="10.00">::Dynamic::toBytecode_json</text>
</a>
</g>
</g>
<!-- Node1&#45;&gt;Node4 -->
<g id="edge3" class="edge"><title>Node1&#45;&gt;Node4</title>
<path fill="none" stroke="midnightblue" d="M262.503,-623.804C258.071,-705.814 237.546,-1011.51 175,-1080.5 170.17,-1085.83 164.283,-1090.05 157.875,-1093.39"/>
<polygon fill="midnightblue" stroke="midnightblue" points="266.02,-623.55 263.043,-613.383 259.03,-623.188 266.02,-623.55"/>
</g>
<!-- Node5 -->
<g id="node5" class="node"><title>Node5</title>
<g id="a_node5"><a xlink:href="../../dd/d80/class_instructions_1_1_jump_1_1_jump_sub_routine_wide.xhtml#a4435ecbd600f2345663bf7ed1f2fef92" target="_top" xlink:title=" ">
<polygon fill="none" stroke="black" points="28,-1030 28,-1071 147,-1071 147,-1030 28,-1030"/>
<text text-anchor="start" x="36" y="-1059" font-family="Helvetica,sans-Serif" font-size="10.00">Instructions::Jump</text>
<text text-anchor="start" x="36" y="-1048" font-family="Helvetica,sans-Serif" font-size="10.00">::JumpSubRoutineWide</text>
<text text-anchor="middle" x="87.5" y="-1037" font-family="Helvetica,sans-Serif" font-size="10.00">::toBytecode_json</text>
</a>
</g>
</g>
<!-- Node1&#45;&gt;Node5 -->
<g id="edge4" class="edge"><title>Node1&#45;&gt;Node5</title>
<path fill="none" stroke="midnightblue" d="M261.83,-623.516C255.217,-698.254 228.571,-959.794 175,-1020.5 167.533,-1028.96 157.554,-1035.04 147.031,-1039.4"/>
<polygon fill="midnightblue" stroke="midnightblue" points="265.349,-623.448 262.721,-613.185 258.375,-622.847 265.349,-623.448"/>
</g>
<!-- Node6 -->
<g id="node6" class="node"><title>Node6</title>
<g id="a_node6"><a xlink:href="../../d9/d12/class_instructions_1_1_invokes_1_1_interface.xhtml#aa58617014822656335543b375c73797f" target="_top" xlink:title=" ">
<polygon fill="none" stroke="black" points="18.5,-980.5 18.5,-1010.5 156.5,-1010.5 156.5,-980.5 18.5,-980.5"/>
<text text-anchor="start" x="26.5" y="-998.5" font-family="Helvetica,sans-Serif" font-size="10.00">Instructions::Invokes</text>
<text text-anchor="middle" x="87.5" y="-987.5" font-family="Helvetica,sans-Serif" font-size="10.00">::Interface::toBytecode_json</text>
</a>
</g>
</g>
<!-- Node1&#45;&gt;Node6 -->
<g id="edge5" class="edge"><title>Node1&#45;&gt;Node6</title>
<path fill="none" stroke="midnightblue" d="M261.356,-623.448C253.54,-692.563 224.414,-920.344 175,-971.5 169.803,-976.88 163.514,-981.087 156.724,-984.371"/>
<polygon fill="midnightblue" stroke="midnightblue" points="264.879,-623.435 262.499,-613.111 257.921,-622.666 264.879,-623.435"/>
</g>
<!-- Node7 -->
<g id="node7" class="node"><title>Node7</title>
<g id="a_node7"><a xlink:href="../../d8/deb/class_instructions_1_1_byte_1_1_push.xhtml#afb7661133a4a422576968cc5460cf161" target="_top" xlink:title=" ">
<polygon fill="none" stroke="black" points="25.5,-931.5 25.5,-961.5 149.5,-961.5 149.5,-931.5 25.5,-931.5"/>
<text text-anchor="start" x="33.5" y="-949.5" font-family="Helvetica,sans-Serif" font-size="10.00">Instructions::Byte</text>
<text text-anchor="middle" x="87.5" y="-938.5" font-family="Helvetica,sans-Serif" font-size="10.00">::Push::toBytecode_json</text>
</a>
</g>
</g>
<!-- Node1&#45;&gt;Node7 -->
<g id="edge6" class="edge"><title>Node1&#45;&gt;Node7</title>
<path fill="none" stroke="midnightblue" d="M264.24,-623.493C265.157,-679.211 259.798,-837.7 175,-922.5 167.947,-929.553 159.015,-934.579 149.583,-938.152"/>
<polygon fill="midnightblue" stroke="midnightblue" points="267.732,-623.133 263.975,-613.227 260.734,-623.314 267.732,-623.133"/>
</g>
<!-- Node8 -->
<g id="node8" class="node"><title>Node8</title>
<g id="a_node8"><a xlink:href="../../d1/dcc/class_instructions_1_1_short_1_1_push.xhtml#a92f2a3cd6fc67228618b3d2b12211621" target="_top" xlink:title=" ">
<polygon fill="none" stroke="black" points="25.5,-882.5 25.5,-912.5 149.5,-912.5 149.5,-882.5 25.5,-882.5"/>
<text text-anchor="start" x="33.5" y="-900.5" font-family="Helvetica,sans-Serif" font-size="10.00">Instructions::Short</text>
<text text-anchor="middle" x="87.5" y="-889.5" font-family="Helvetica,sans-Serif" font-size="10.00">::Push::toBytecode_json</text>
</a>
</g>
</g>
<!-- Node1&#45;&gt;Node8 -->
<g id="edge7" class="edge"><title>Node1&#45;&gt;Node8</title>
<path fill="none" stroke="midnightblue" d="M263.071,-623.041C260.894,-672.498 248.145,-803.651 175,-873.5 167.899,-880.281 159.055,-885.178 149.755,-888.707"/>
<polygon fill="midnightblue" stroke="midnightblue" points="266.569,-623.152 263.411,-613.039 259.573,-622.914 266.569,-623.152"/>
</g>
<!-- Node9 -->
<g id="node9" class="node"><title>Node9</title>
<g id="a_node9"><a xlink:href="../../db/d43/class_instructions_1_1_reference_1_1_load.xhtml#a411ab6c6e6caec1045ac81610dbeff7f" target="_top" xlink:title=" ">
<polygon fill="none" stroke="black" points="26.5,-833.5 26.5,-863.5 148.5,-863.5 148.5,-833.5 26.5,-833.5"/>
<text text-anchor="start" x="34.5" y="-851.5" font-family="Helvetica,sans-Serif" font-size="10.00">Instructions::Reference</text>
<text text-anchor="middle" x="87.5" y="-840.5" font-family="Helvetica,sans-Serif" font-size="10.00">::Load::toBytecode_json</text>
</a>
</g>
</g>
<!-- Node1&#45;&gt;Node9 -->
<g id="edge8" class="edge"><title>Node1&#45;&gt;Node9</title>
<path fill="none" stroke="midnightblue" d="M261.421,-623.2C255.802,-666.319 236.335,-769.58 175,-824.5 167.569,-831.154 158.448,-835.98 148.945,-839.478"/>
<polygon fill="midnightblue" stroke="midnightblue" points="264.91,-623.503 262.616,-613.159 257.959,-622.675 264.91,-623.503"/>
</g>
<!-- Node10 -->
<g id="node10" class="node"><title>Node10</title>
<g id="a_node10"><a xlink:href="../../d8/d24/class_instructions_1_1_double_1_1_load.xhtml#a9d9600a7d5ed7033715d92fd5f78ff06" target="_top" xlink:title=" ">
<polygon fill="none" stroke="black" points="26.5,-784.5 26.5,-814.5 148.5,-814.5 148.5,-784.5 26.5,-784.5"/>
<text text-anchor="start" x="34.5" y="-802.5" font-family="Helvetica,sans-Serif" font-size="10.00">Instructions::Double</text>
<text text-anchor="middle" x="87.5" y="-791.5" font-family="Helvetica,sans-Serif" font-size="10.00">::Load::toBytecode_json</text>
</a>
</g>
</g>
<!-- Node1&#45;&gt;Node10 -->
<g id="edge9" class="edge"><title>Node1&#45;&gt;Node10</title>
<path fill="none" stroke="midnightblue" d="M258.946,-623.137C249.604,-658.959 224.826,-734.95 175,-775.5 167.385,-781.697 158.279,-786.298 148.878,-789.713"/>
<polygon fill="midnightblue" stroke="midnightblue" points="262.447,-623.562 261.449,-613.014 255.651,-621.882 262.447,-623.562"/>
</g>
<!-- Node11 -->
<g id="node11" class="node"><title>Node11</title>
<g id="a_node11"><a xlink:href="../../d9/db2/class_instructions_1_1_long_1_1_load.xhtml#ade51fa26cd9b1f5761fb1892489261c7" target="_top" xlink:title=" ">
<polygon fill="none" stroke="black" points="26.5,-735.5 26.5,-765.5 148.5,-765.5 148.5,-735.5 26.5,-735.5"/>
<text text-anchor="start" x="34.5" y="-753.5" font-family="Helvetica,sans-Serif" font-size="10.00">Instructions::Long</text>
<text text-anchor="middle" x="87.5" y="-742.5" font-family="Helvetica,sans-Serif" font-size="10.00">::Load::toBytecode_json</text>
</a>
</g>
</g>
<!-- Node1&#45;&gt;Node11 -->
<g id="edge10" class="edge"><title>Node1&#45;&gt;Node11</title>
<path fill="none" stroke="midnightblue" d="M255.003,-622.422C241.818,-649.608 213.844,-699.416 175,-726.5 167.074,-732.026 157.913,-736.284 148.581,-739.562"/>
<polygon fill="midnightblue" stroke="midnightblue" points="258.248,-623.746 259.324,-613.206 251.91,-620.774 258.248,-623.746"/>
</g>
<!-- Node12 -->
<g id="node12" class="node"><title>Node12</title>
<g id="a_node12"><a xlink:href="../../da/d2a/class_instructions_1_1_float_1_1_load.xhtml#a4a369e431f4b78660d69e6c78cbd254d" target="_top" xlink:title=" ">
<polygon fill="none" stroke="black" points="26.5,-686.5 26.5,-716.5 148.5,-716.5 148.5,-686.5 26.5,-686.5"/>
<text text-anchor="start" x="34.5" y="-704.5" font-family="Helvetica,sans-Serif" font-size="10.00">Instructions::Float</text>
<text text-anchor="middle" x="87.5" y="-693.5" font-family="Helvetica,sans-Serif" font-size="10.00">::Load::toBytecode_json</text>
</a>
</g>
</g>
<!-- Node1&#45;&gt;Node12 -->
<g id="edge11" class="edge"><title>Node1&#45;&gt;Node12</title>
<path fill="none" stroke="midnightblue" d="M247.418,-620.678C230.795,-637.47 203.344,-662.617 175,-677.5 166.859,-681.775 157.876,-685.354 148.872,-688.331"/>
<polygon fill="midnightblue" stroke="midnightblue" points="250.227,-622.809 254.666,-613.188 245.197,-617.941 250.227,-622.809"/>
</g>
<!-- Node13 -->
<g id="node13" class="node"><title>Node13</title>
<g id="a_node13"><a xlink:href="../../d9/da0/class_instructions_1_1_misc_1_1_goto.xhtml#afa9d244746b52683a1289bc43146fbc1" target="_top" xlink:title=" ">
<polygon fill="none" stroke="black" points="26.5,-637.5 26.5,-667.5 148.5,-667.5 148.5,-637.5 26.5,-637.5"/>
<text text-anchor="start" x="34.5" y="-655.5" font-family="Helvetica,sans-Serif" font-size="10.00">Instructions::Misc</text>
<text text-anchor="middle" x="87.5" y="-644.5" font-family="Helvetica,sans-Serif" font-size="10.00">::Goto::toBytecode_json</text>
</a>
</g>
</g>
<!-- Node1&#45;&gt;Node13 -->
<g id="edge12" class="edge"><title>Node1&#45;&gt;Node13</title>
<path fill="none" stroke="midnightblue" d="M220.242,-615.763C205.853,-619.831 189.74,-624.373 175,-628.5 164.645,-631.399 153.588,-634.479 142.959,-637.432"/>
<polygon fill="midnightblue" stroke="midnightblue" points="221.221,-619.124 229.891,-613.034 219.316,-612.388 221.221,-619.124"/>
</g>
<!-- Node14 -->
<g id="node14" class="node"><title>Node14</title>
<g id="a_node14"><a xlink:href="../../df/d9b/class_instructions_1_1_reference_1_1_store.xhtml#ad0759947fe116ba37b0193c8377c6068" target="_top" xlink:title=" ">
<polygon fill="none" stroke="black" points="25,-588.5 25,-618.5 150,-618.5 150,-588.5 25,-588.5"/>
<text text-anchor="start" x="33" y="-606.5" font-family="Helvetica,sans-Serif" font-size="10.00">Instructions::Reference</text>
<text text-anchor="middle" x="87.5" y="-595.5" font-family="Helvetica,sans-Serif" font-size="10.00">::Store::toBytecode_json</text>
</a>
</g>
</g>
<!-- Node1&#45;&gt;Node14 -->
<g id="edge13" class="edge"><title>Node1&#45;&gt;Node14</title>
<path fill="none" stroke="midnightblue" d="M200.918,-603.5C184.429,-603.5 166.652,-603.5 150.21,-603.5"/>
<polygon fill="midnightblue" stroke="midnightblue" points="200.994,-607 210.994,-603.5 200.994,-600 200.994,-607"/>
</g>
<!-- Node15 -->
<g id="node15" class="node"><title>Node15</title>
<g id="a_node15"><a xlink:href="../../d5/d81/class_instructions_1_1_misc_1_1_goto_wide.xhtml#af07c3295d6731e79c52e2a458efd0c4a" target="_top" xlink:title=" ">
<polygon fill="none" stroke="black" points="15,-539.5 15,-569.5 160,-569.5 160,-539.5 15,-539.5"/>
<text text-anchor="start" x="23" y="-557.5" font-family="Helvetica,sans-Serif" font-size="10.00">Instructions::Misc</text>
<text text-anchor="middle" x="87.5" y="-546.5" font-family="Helvetica,sans-Serif" font-size="10.00">::GotoWide::toBytecode_json</text>
</a>
</g>
</g>
<!-- Node1&#45;&gt;Node15 -->
<g id="edge14" class="edge"><title>Node1&#45;&gt;Node15</title>
<path fill="none" stroke="midnightblue" d="M219.652,-591.222C196.165,-584.646 167.038,-576.491 142.203,-569.537"/>
<polygon fill="midnightblue" stroke="midnightblue" points="218.769,-594.61 229.343,-593.936 220.657,-587.869 218.769,-594.61"/>
</g>
<!-- Node16 -->
<g id="node16" class="node"><title>Node16</title>
<g id="a_node16"><a xlink:href="../../d3/d3e/class_instructions_1_1_double_1_1_store.xhtml#a52498a5224fe484bf9a30b4bb0e82154" target="_top" xlink:title=" ">
<polygon fill="none" stroke="black" points="25,-490.5 25,-520.5 150,-520.5 150,-490.5 25,-490.5"/>
<text text-anchor="start" x="33" y="-508.5" font-family="Helvetica,sans-Serif" font-size="10.00">Instructions::Double</text>
<text text-anchor="middle" x="87.5" y="-497.5" font-family="Helvetica,sans-Serif" font-size="10.00">::Store::toBytecode_json</text>
</a>
</g>
</g>
<!-- Node1&#45;&gt;Node16 -->
<g id="edge15" class="edge"><title>Node1&#45;&gt;Node16</title>
<path fill="none" stroke="midnightblue" d="M247.339,-586.628C230.655,-570.121 203.157,-545.357 175,-530.5 167.258,-526.415 158.764,-522.92 150.217,-519.954"/>
<polygon fill="midnightblue" stroke="midnightblue" points="245.097,-589.338 254.617,-593.989 250.075,-584.417 245.097,-589.338"/>
</g>
<!-- Node17 -->
<g id="node17" class="node"><title>Node17</title>
<g id="a_node17"><a xlink:href="../../d2/db2/class_instructions_1_1_float_1_1_store.xhtml#a65ac9fcf360aafd923c16446fa748002" target="_top" xlink:title=" ">
<polygon fill="none" stroke="black" points="25,-441.5 25,-471.5 150,-471.5 150,-441.5 25,-441.5"/>
<text text-anchor="start" x="33" y="-459.5" font-family="Helvetica,sans-Serif" font-size="10.00">Instructions::Float</text>
<text text-anchor="middle" x="87.5" y="-448.5" font-family="Helvetica,sans-Serif" font-size="10.00">::Store::toBytecode_json</text>
</a>
</g>
</g>
<!-- Node1&#45;&gt;Node17 -->
<g id="edge16" class="edge"><title>Node1&#45;&gt;Node17</title>
<path fill="none" stroke="midnightblue" d="M254.923,-584.786C241.639,-557.89 213.544,-508.571 175,-481.5 167.581,-476.289 159.083,-472.156 150.376,-468.88"/>
<polygon fill="midnightblue" stroke="midnightblue" points="251.811,-586.39 259.28,-593.903 258.126,-583.371 251.811,-586.39"/>
</g>
<!-- Node18 -->
<g id="node18" class="node"><title>Node18</title>
<g id="a_node18"><a xlink:href="../../dd/d7b/class_instructions_1_1_integer_1_1_inc.xhtml#a4c1f81ffe4463eb6b7aafee74f4fe5bb" target="_top" xlink:title=" ">
<polygon fill="none" stroke="black" points="30.5,-392.5 30.5,-422.5 144.5,-422.5 144.5,-392.5 30.5,-392.5"/>
<text text-anchor="start" x="38.5" y="-410.5" font-family="Helvetica,sans-Serif" font-size="10.00">Instructions::Integer</text>
<text text-anchor="middle" x="87.5" y="-399.5" font-family="Helvetica,sans-Serif" font-size="10.00">::Inc::toBytecode_json</text>
</a>
</g>
</g>
<!-- Node1&#45;&gt;Node18 -->
<g id="edge17" class="edge"><title>Node1&#45;&gt;Node18</title>
<path fill="none" stroke="midnightblue" d="M258.735,-583.52C249.167,-547.781 224.196,-472.879 175,-432.5 166.3,-425.359 155.652,-420.258 144.839,-416.613"/>
<polygon fill="midnightblue" stroke="midnightblue" points="255.455,-584.825 261.312,-593.654 262.24,-583.1 255.455,-584.825"/>
</g>
<!-- Node19 -->
<g id="node19" class="node"><title>Node19</title>
<g id="a_node19"><a xlink:href="../../d6/ddc/class_instructions_1_1_misc_1_1_lookup_switch.xhtml#ae5d37274cfc43d30131adfd202e58b39" target="_top" xlink:title=" ">
<polygon fill="none" stroke="black" points="6.5,-343.5 6.5,-373.5 168.5,-373.5 168.5,-343.5 6.5,-343.5"/>
<text text-anchor="start" x="14.5" y="-361.5" font-family="Helvetica,sans-Serif" font-size="10.00">Instructions::Misc</text>
<text text-anchor="middle" x="87.5" y="-350.5" font-family="Helvetica,sans-Serif" font-size="10.00">::LookupSwitch::toBytecode_json</text>
</a>
</g>
</g>
<!-- Node1&#45;&gt;Node19 -->
<g id="edge18" class="edge"><title>Node1&#45;&gt;Node19</title>
<path fill="none" stroke="midnightblue" d="M261.349,-583.935C255.585,-541.104 235.845,-438.484 175,-383.5 170.709,-379.622 165.851,-376.343 160.68,-373.57"/>
<polygon fill="midnightblue" stroke="midnightblue" points="257.881,-584.412 262.579,-593.908 264.829,-583.555 257.881,-584.412"/>
</g>
<!-- Node20 -->
<g id="node20" class="node"><title>Node20</title>
<g id="a_node20"><a xlink:href="../../d0/d64/class_instructions_1_1_long_1_1_store.xhtml#a9f34f0bc093b998f982664b346b5cb56" target="_top" xlink:title=" ">
<polygon fill="none" stroke="black" points="25,-294.5 25,-324.5 150,-324.5 150,-294.5 25,-294.5"/>
<text text-anchor="start" x="33" y="-312.5" font-family="Helvetica,sans-Serif" font-size="10.00">Instructions::Long</text>
<text text-anchor="middle" x="87.5" y="-301.5" font-family="Helvetica,sans-Serif" font-size="10.00">::Store::toBytecode_json</text>
</a>
</g>
</g>
<!-- Node1&#45;&gt;Node20 -->
<g id="edge19" class="edge"><title>Node1&#45;&gt;Node20</title>
<path fill="none" stroke="midnightblue" d="M262.986,-583.741C260.603,-534.316 247.401,-404.306 175,-334.5 168.023,-327.773 159.352,-322.838 150.216,-319.222"/>
<polygon fill="midnightblue" stroke="midnightblue" points="259.489,-583.898 263.369,-593.757 266.484,-583.631 259.489,-583.898"/>
</g>
<!-- Node21 -->
<g id="node21" class="node"><title>Node21</title>
<g id="a_node21"><a xlink:href="../../df/d58/class_instructions_1_1_integer_1_1_load.xhtml#a1c4fb1dccfdf4c888530a6b8335c24d1" target="_top" xlink:title=" ">
<polygon fill="none" stroke="black" points="26.5,-245.5 26.5,-275.5 148.5,-275.5 148.5,-245.5 26.5,-245.5"/>
<text text-anchor="start" x="34.5" y="-263.5" font-family="Helvetica,sans-Serif" font-size="10.00">Instructions::Integer</text>
<text text-anchor="middle" x="87.5" y="-252.5" font-family="Helvetica,sans-Serif" font-size="10.00">::Load::toBytecode_json</text>
</a>
</g>
</g>
<!-- Node1&#45;&gt;Node21 -->
<g id="edge20" class="edge"><title>Node1&#45;&gt;Node21</title>
<path fill="none" stroke="midnightblue" d="M264.171,-583.614C264.911,-528.187 259.132,-370.47 175,-285.5 167.741,-278.169 158.475,-272.956 148.721,-269.256"/>
<polygon fill="midnightblue" stroke="midnightblue" points="260.667,-583.75 263.94,-593.826 267.666,-583.908 260.667,-583.75"/>
</g>
<!-- Node22 -->
<g id="node22" class="node"><title>Node22</title>
<g id="a_node22"><a xlink:href="../../df/de0/class_instructions_1_1_misc_1_1_multi_dim_array.xhtml#a4b482239676e8e7d07f32b5983045815" target="_top" xlink:title=" ">
<polygon fill="none" stroke="black" points="6,-196.5 6,-226.5 169,-226.5 169,-196.5 6,-196.5"/>
<text text-anchor="start" x="14" y="-214.5" font-family="Helvetica,sans-Serif" font-size="10.00">Instructions::Misc</text>
<text text-anchor="middle" x="87.5" y="-203.5" font-family="Helvetica,sans-Serif" font-size="10.00">::MultiDimArray::toBytecode_json</text>
</a>
</g>
</g>
<!-- Node1&#45;&gt;Node22 -->
<g id="edge21" class="edge"><title>Node1&#45;&gt;Node22</title>
<path fill="none" stroke="midnightblue" d="M261.329,-583.624C253.422,-514.758 224.029,-287.772 175,-236.5 171.327,-232.659 167.103,-229.397 162.541,-226.628"/>
<polygon fill="midnightblue" stroke="midnightblue" points="257.891,-584.377 262.485,-593.924 264.848,-583.596 257.891,-584.377"/>
</g>
<!-- Node23 -->
<g id="node23" class="node"><title>Node23</title>
<g id="a_node23"><a xlink:href="../../d7/d61/class_instructions_1_1_misc_1_1_new_array.xhtml#a14e7dc289150cc0e854fda9ec9b78a7d" target="_top" xlink:title=" ">
<polygon fill="none" stroke="black" points="16,-147.5 16,-177.5 159,-177.5 159,-147.5 16,-147.5"/>
<text text-anchor="start" x="24" y="-165.5" font-family="Helvetica,sans-Serif" font-size="10.00">Instructions::Misc</text>
<text text-anchor="middle" x="87.5" y="-154.5" font-family="Helvetica,sans-Serif" font-size="10.00">::NewArray::toBytecode_json</text>
</a>
</g>
</g>
<!-- Node1&#45;&gt;Node23 -->
<g id="edge22" class="edge"><title>Node1&#45;&gt;Node23</title>
<path fill="none" stroke="midnightblue" d="M261.923,-583.441C255.642,-508.557 230.033,-246.63 175,-187.5 170.527,-182.694 165.193,-178.792 159.402,-175.627"/>
<polygon fill="midnightblue" stroke="midnightblue" points="258.466,-584.111 262.766,-593.794 265.443,-583.543 258.466,-584.111"/>
</g>
<!-- Node24 -->
<g id="node24" class="node"><title>Node24</title>
<g id="a_node24"><a xlink:href="../../d8/d87/class_instructions_1_1_integer_1_1_store.xhtml#ae6c1628ae73da11cfa125391f28661e7" target="_top" xlink:title=" ">
<polygon fill="none" stroke="black" points="25,-98.5 25,-128.5 150,-128.5 150,-98.5 25,-98.5"/>
<text text-anchor="start" x="33" y="-116.5" font-family="Helvetica,sans-Serif" font-size="10.00">Instructions::Integer</text>
<text text-anchor="middle" x="87.5" y="-105.5" font-family="Helvetica,sans-Serif" font-size="10.00">::Store::toBytecode_json</text>
</a>
</g>
</g>
<!-- Node1&#45;&gt;Node24 -->
<g id="edge23" class="edge"><title>Node1&#45;&gt;Node24</title>
<path fill="none" stroke="midnightblue" d="M262.427,-583.702C257.699,-503.737 236.181,-205.672 175,-138.5 168.263,-131.104 159.489,-125.843 150.116,-122.112"/>
<polygon fill="midnightblue" stroke="midnightblue" points="258.942,-584.079 263.005,-593.864 265.931,-583.681 258.942,-584.079"/>
</g>
<!-- Node25 -->
<g id="node25" class="node"><title>Node25</title>
<g id="a_node25"><a xlink:href="../../db/d2e/class_instructions_1_1_misc_1_1_ret.xhtml#a8eba3c872a2e267dfcba90a10531879c" target="_top" xlink:title=" ">
<polygon fill="none" stroke="black" points="29.5,-49.5 29.5,-79.5 145.5,-79.5 145.5,-49.5 29.5,-49.5"/>
<text text-anchor="start" x="37.5" y="-67.5" font-family="Helvetica,sans-Serif" font-size="10.00">Instructions::Misc</text>
<text text-anchor="middle" x="87.5" y="-56.5" font-family="Helvetica,sans-Serif" font-size="10.00">::Ret::toBytecode_json</text>
</a>
</g>
</g>
<!-- Node1&#45;&gt;Node25 -->
<g id="edge24" class="edge"><title>Node1&#45;&gt;Node25</title>
<path fill="none" stroke="midnightblue" d="M262.813,-583.555C259.475,-498.205 242.255,-164.655 175,-89.5 167.286,-80.8799 156.804,-75.1543 145.799,-71.3702"/>
<polygon fill="midnightblue" stroke="midnightblue" points="259.321,-583.839 263.189,-593.702 266.316,-583.58 259.321,-583.839"/>
</g>
<!-- Node26 -->
<g id="node26" class="node"><title>Node26</title>
<g id="a_node26"><a xlink:href="../../d6/dbf/class_instructions_1_1_misc_1_1_table_switch.xhtml#a4036d40cc38477a5f0c6996b82e5d31c" target="_top" xlink:title=" ">
<polygon fill="none" stroke="black" points="10.5,-0.5 10.5,-30.5 164.5,-30.5 164.5,-0.5 10.5,-0.5"/>
<text text-anchor="start" x="18.5" y="-18.5" font-family="Helvetica,sans-Serif" font-size="10.00">Instructions::Misc</text>
<text text-anchor="middle" x="87.5" y="-7.5" font-family="Helvetica,sans-Serif" font-size="10.00">::TableSwitch::toBytecode_json</text>
</a>
</g>
</g>
<!-- Node1&#45;&gt;Node26 -->
<g id="edge25" class="edge"><title>Node1&#45;&gt;Node26</title>
<path fill="none" stroke="midnightblue" d="M263.138,-583.416C261.101,-492.898 248.351,-123.681 175,-40.5 171.588,-36.6309 167.619,-33.3439 163.292,-30.5532"/>
<polygon fill="midnightblue" stroke="midnightblue" points="259.643,-583.739 263.348,-593.665 266.642,-583.595 259.643,-583.739"/>
</g>
</g>
</svg>
        <g id="navigator" transform="translate(0 0)" fill="#404254">
                <rect fill="#f2f5e9" fill-opacity="0.5" stroke="#606060" stroke-width=".5" x="0" y="0" width="60" height="60"/>
                <use id="zoomplus" xlink:href="#zoomPlus" x="17" y="9" onmousedown="handleZoom(evt,'in')"/>
                <use id="zoomminus" xlink:href="#zoomMin" x="42" y="9" onmousedown="handleZoom(evt,'out')"/>
                <use id="reset" xlink:href="#resetDef" x="30" y="36" onmousedown="handleReset()"/>
                <g id="arrowUp" xlink:href="#dirArrow" transform="translate(30 24)" onmousedown="handlePan(0,-1)">
                  <use xlink:href="#rim" fill="#404040">
                        <set attributeName="fill" to="#808080" begin="arrowUp.mouseover" end="arrowUp.mouseout"/>
                  </use>
                  <path fill="none" stroke="white" stroke-width="1.5" d="M0,-3.0v7 M-2.5,-0.5L0,-3.0L2.5,-0.5"/>
                </g>
                <g id="arrowRight" xlink:href="#dirArrow" transform="rotate(90) translate(36 -43)" onmousedown="handlePan(1,0)">
                  <use xlink:href="#rim" fill="#404040">
                        <set attributeName="fill" to="#808080" begin="arrowRight.mouseover" end="arrowRight.mouseout"/>
                  </use>
                  <path fill="none" stroke="white" stroke-width="1.5" d="M0,-3.0v7 M-2.5,-0.5L0,-3.0L2.5,-0.5"/>
                </g>
                <g id="arrowDown" xlink:href="#dirArrow" transform="rotate(180) translate(-30 -48)" onmousedown="handlePan(0,1)">
                  <use xlink:href="#rim" fill="#404040">
                        <set attributeName="fill" to="#808080" begin="arrowDown.mouseover" end="arrowDown.mouseout"/>
                  </use>
                  <path fill="none" stroke="white" stroke-width="1.5" d="M0,-3.0v7 M-2.5,-0.5L0,-3.0L2.5,-0.5"/>
                </g>
                <g id="arrowLeft" xlink:href="#dirArrow" transform="rotate(270) translate(-36 17)" onmousedown="handlePan(-1,0)">
                  <use xlink:href="#rim" fill="#404040">
                        <set attributeName="fill" to="#808080" begin="arrowLeft.mouseover" end="arrowLeft.mouseout"/>
                  </use>
                  <path fill="none" stroke="white" stroke-width="1.5" d="M0,-3.0v7 M-2.5,-0.5L0,-3.0L2.5,-0.5"/>
                </g>
        </g>
        <svg viewBox="0 0 15 15" width="100%" height="30px" preserveAspectRatio="xMaxYMin meet">
         <g id="arrow_out" transform="scale(0.3 0.3)">
          <a xlink:href="namespace_utils_1_1_string_aec9a3efb3bd837c1f21fec1ceba1eec9_icgraph_org.svg" target="_base">
           <rect id="button" ry="5" rx="5" y="6" x="6" height="38" width="38"
                fill="#f2f5e9" fill-opacity="0.5" stroke="#606060" stroke-width="1.0"/>
           <path id="arrow"
             d="M 11.500037,31.436501 C 11.940474,20.09759 22.043105,11.32322 32.158766,21.979434 L 37.068811,17.246167 C 37.068811,17.246167 37.088388,32 37.088388,32 L 22.160133,31.978069 C 22.160133,31.978069 26.997745,27.140456 26.997745,27.140456 C 18.528582,18.264221 13.291696,25.230495 11.500037,31.436501 z"
             style="fill:#404040;"/>
          </a>
         </g>
        </svg>
</svg>
