<?xml version="1.0" encoding="UTF-8" standalone="no"?>
<!DOCTYPE svg PUBLIC "-//W3C//DTD SVG 1.1//EN"
 "http://www.w3.org/Graphics/SVG/1.1/DTD/svg11.dtd">
<!-- Generated by graphviz version 2.38.0 (20140413.2041)
 -->
<!-- Title: Instructions::Reference::BaseReference Pages: 1 -->
<svg width="1866pt" height="353pt"
 viewBox="0.00 0.00 1866.00 353.00" xmlns="http://www.w3.org/2000/svg" xmlns:xlink="http://www.w3.org/1999/xlink">
<g id="graph0" class="graph" transform="scale(1 1) rotate(0) translate(4 349)">
<title>Instructions::Reference::BaseReference</title>
<!-- Node1 -->
<g id="node1" class="node"><title>Node1</title>
<g id="a_node1"><a xlink:title=" ">
<polygon fill="#bfbfbf" stroke="black" points="871,-116.5 871,-206.5 987,-206.5 987,-116.5 871,-116.5"/>
<text text-anchor="start" x="879" y="-194.5" font-family="Helvetica,sans-Serif" font-size="10.00">Instructions::Reference</text>
<text text-anchor="middle" x="929" y="-183.5" font-family="Helvetica,sans-Serif" font-size="10.00">::BaseReference</text>
<polyline fill="none" stroke="black" points="871,-176.5 987,-176.5 "/>
<text text-anchor="middle" x="929" y="-164.5" font-family="Helvetica,sans-Serif" font-size="10.00"> </text>
<polyline fill="none" stroke="black" points="871,-157.5 987,-157.5 "/>
<text text-anchor="start" x="879" y="-145.5" font-family="Helvetica,sans-Serif" font-size="10.00">+ BaseReference()</text>
<text text-anchor="start" x="879" y="-134.5" font-family="Helvetica,sans-Serif" font-size="10.00">+ toBytecode()</text>
<text text-anchor="start" x="879" y="-123.5" font-family="Helvetica,sans-Serif" font-size="10.00">+ toBytecode_json()</text>
</a>
</g>
</g>
<!-- Node3 -->
<g id="node3" class="node"><title>Node3</title>
<g id="a_node3"><a xlink:href="../../db/d94/class_instructions_1_1_reference_1_1_array_length.xhtml" target="_top" xlink:title=" ">
<polygon fill="none" stroke="black" points="0,-0.5 0,-79.5 116,-79.5 116,-0.5 0,-0.5"/>
<text text-anchor="start" x="8" y="-67.5" font-family="Helvetica,sans-Serif" font-size="10.00">Instructions::Reference</text>
<text text-anchor="middle" x="58" y="-56.5" font-family="Helvetica,sans-Serif" font-size="10.00">::ArrayLength</text>
<polyline fill="none" stroke="black" points="0,-49.5 116,-49.5 "/>
<text text-anchor="middle" x="58" y="-37.5" font-family="Helvetica,sans-Serif" font-size="10.00"> </text>
<polyline fill="none" stroke="black" points="0,-30.5 116,-30.5 "/>
<text text-anchor="start" x="8" y="-18.5" font-family="Helvetica,sans-Serif" font-size="10.00">+ ArrayLength()</text>
<text text-anchor="start" x="8" y="-7.5" font-family="Helvetica,sans-Serif" font-size="10.00">+ execute()</text>
</a>
</g>
</g>
<!-- Node1&#45;&gt;Node3 -->
<g id="edge2" class="edge"><title>Node1&#45;&gt;Node3</title>
<path fill="none" stroke="midnightblue" d="M860.665,-157.389C692.305,-149.128 261.345,-124.197 125,-80 122.055,-79.0454 119.099,-77.9476 116.157,-76.7399"/>
<polygon fill="none" stroke="midnightblue" points="860.731,-160.896 870.889,-157.886 861.071,-153.904 860.731,-160.896"/>
</g>
<!-- Node4 -->
<g id="node4" class="node"><title>Node4</title>
<g id="a_node4"><a xlink:href="../../d8/db9/class_instructions_1_1_reference_1_1_const_null.xhtml" target="_top" xlink:title=" ">
<polygon fill="none" stroke="black" points="134,-0.5 134,-79.5 250,-79.5 250,-0.5 134,-0.5"/>
<text text-anchor="start" x="142" y="-67.5" font-family="Helvetica,sans-Serif" font-size="10.00">Instructions::Reference</text>
<text text-anchor="middle" x="192" y="-56.5" font-family="Helvetica,sans-Serif" font-size="10.00">::ConstNull</text>
<polyline fill="none" stroke="black" points="134,-49.5 250,-49.5 "/>
<text text-anchor="middle" x="192" y="-37.5" font-family="Helvetica,sans-Serif" font-size="10.00"> </text>
<polyline fill="none" stroke="black" points="134,-30.5 250,-30.5 "/>
<text text-anchor="start" x="142" y="-18.5" font-family="Helvetica,sans-Serif" font-size="10.00">+ ConstNull()</text>
<text text-anchor="start" x="142" y="-7.5" font-family="Helvetica,sans-Serif" font-size="10.00">+ execute()</text>
</a>
</g>
</g>
<!-- Node1&#45;&gt;Node4 -->
<g id="edge3" class="edge"><title>Node1&#45;&gt;Node4</title>
<path fill="none" stroke="midnightblue" d="M860.75,-161.312C737.326,-160.83 470.231,-150.789 259,-80 256.065,-79.0164 253.116,-77.8947 250.18,-76.6677"/>
<polygon fill="none" stroke="midnightblue" points="860.807,-164.812 870.814,-161.331 860.821,-157.812 860.807,-164.812"/>
</g>
<!-- Node5 -->
<g id="node5" class="node"><title>Node5</title>
<g id="a_node5"><a xlink:href="../../d0/d1a/class_instructions_1_1_reference_1_1_load__0.xhtml" target="_top" xlink:title=" ">
<polygon fill="none" stroke="black" points="268,-0.5 268,-79.5 384,-79.5 384,-0.5 268,-0.5"/>
<text text-anchor="start" x="276" y="-67.5" font-family="Helvetica,sans-Serif" font-size="10.00">Instructions::Reference</text>
<text text-anchor="middle" x="326" y="-56.5" font-family="Helvetica,sans-Serif" font-size="10.00">::Load_0</text>
<polyline fill="none" stroke="black" points="268,-49.5 384,-49.5 "/>
<text text-anchor="middle" x="326" y="-37.5" font-family="Helvetica,sans-Serif" font-size="10.00"> </text>
<polyline fill="none" stroke="black" points="268,-30.5 384,-30.5 "/>
<text text-anchor="start" x="276" y="-18.5" font-family="Helvetica,sans-Serif" font-size="10.00">+ Load_0()</text>
<text text-anchor="start" x="276" y="-7.5" font-family="Helvetica,sans-Serif" font-size="10.00">+ execute()</text>
</a>
</g>
</g>
<!-- Node1&#45;&gt;Node5 -->
<g id="edge4" class="edge"><title>Node1&#45;&gt;Node5</title>
<path fill="none" stroke="midnightblue" d="M860.932,-158.445C757.185,-153.519 554.512,-136.789 393,-80 390.08,-78.9732 387.143,-77.8161 384.217,-76.5604"/>
<polygon fill="none" stroke="midnightblue" points="860.814,-161.943 870.962,-158.899 861.13,-154.95 860.814,-161.943"/>
</g>
<!-- Node6 -->
<g id="node6" class="node"><title>Node6</title>
<g id="a_node6"><a xlink:href="../../d7/d9a/class_instructions_1_1_reference_1_1_load__1.xhtml" target="_top" xlink:title=" ">
<polygon fill="none" stroke="black" points="402,-0.5 402,-79.5 518,-79.5 518,-0.5 402,-0.5"/>
<text text-anchor="start" x="410" y="-67.5" font-family="Helvetica,sans-Serif" font-size="10.00">Instructions::Reference</text>
<text text-anchor="middle" x="460" y="-56.5" font-family="Helvetica,sans-Serif" font-size="10.00">::Load_1</text>
<polyline fill="none" stroke="black" points="402,-49.5 518,-49.5 "/>
<text text-anchor="middle" x="460" y="-37.5" font-family="Helvetica,sans-Serif" font-size="10.00"> </text>
<polyline fill="none" stroke="black" points="402,-30.5 518,-30.5 "/>
<text text-anchor="start" x="410" y="-18.5" font-family="Helvetica,sans-Serif" font-size="10.00">+ Load_1()</text>
<text text-anchor="start" x="410" y="-7.5" font-family="Helvetica,sans-Serif" font-size="10.00">+ execute()</text>
</a>
</g>
</g>
<!-- Node1&#45;&gt;Node6 -->
<g id="edge5" class="edge"><title>Node1&#45;&gt;Node6</title>
<path fill="none" stroke="midnightblue" d="M860.62,-153.747C779.073,-144.133 639.65,-122.71 527,-80 524.105,-78.9026 521.19,-77.6876 518.281,-76.3849"/>
<polygon fill="none" stroke="midnightblue" points="860.424,-157.248 870.759,-154.917 861.226,-150.294 860.424,-157.248"/>
</g>
<!-- Node7 -->
<g id="node7" class="node"><title>Node7</title>
<g id="a_node7"><a xlink:href="../../d9/dec/class_instructions_1_1_reference_1_1_load__2.xhtml" target="_top" xlink:title=" ">
<polygon fill="none" stroke="black" points="536,-0.5 536,-79.5 652,-79.5 652,-0.5 536,-0.5"/>
<text text-anchor="start" x="544" y="-67.5" font-family="Helvetica,sans-Serif" font-size="10.00">Instructions::Reference</text>
<text text-anchor="middle" x="594" y="-56.5" font-family="Helvetica,sans-Serif" font-size="10.00">::Load_2</text>
<polyline fill="none" stroke="black" points="536,-49.5 652,-49.5 "/>
<text text-anchor="middle" x="594" y="-37.5" font-family="Helvetica,sans-Serif" font-size="10.00"> </text>
<polyline fill="none" stroke="black" points="536,-30.5 652,-30.5 "/>
<text text-anchor="start" x="544" y="-18.5" font-family="Helvetica,sans-Serif" font-size="10.00">+ Load_2()</text>
<text text-anchor="start" x="544" y="-7.5" font-family="Helvetica,sans-Serif" font-size="10.00">+ execute()</text>
</a>
</g>
</g>
<!-- Node1&#45;&gt;Node7 -->
<g id="edge6" class="edge"><title>Node1&#45;&gt;Node7</title>
<path fill="none" stroke="midnightblue" d="M860.881,-144.769C805.759,-130.926 726.763,-108.541 661,-80 658.037,-78.714 655.04,-77.3263 652.043,-75.8674"/>
<polygon fill="none" stroke="midnightblue" points="860.338,-148.24 870.887,-147.254 862.025,-141.447 860.338,-148.24"/>
</g>
<!-- Node8 -->
<g id="node8" class="node"><title>Node8</title>
<g id="a_node8"><a xlink:href="../../da/dca/class_instructions_1_1_reference_1_1_load__3.xhtml" target="_top" xlink:title=" ">
<polygon fill="none" stroke="black" points="670,-0.5 670,-79.5 786,-79.5 786,-0.5 670,-0.5"/>
<text text-anchor="start" x="678" y="-67.5" font-family="Helvetica,sans-Serif" font-size="10.00">Instructions::Reference</text>
<text text-anchor="middle" x="728" y="-56.5" font-family="Helvetica,sans-Serif" font-size="10.00">::Load_3</text>
<polyline fill="none" stroke="black" points="670,-49.5 786,-49.5 "/>
<text text-anchor="middle" x="728" y="-37.5" font-family="Helvetica,sans-Serif" font-size="10.00"> </text>
<polyline fill="none" stroke="black" points="670,-30.5 786,-30.5 "/>
<text text-anchor="start" x="678" y="-18.5" font-family="Helvetica,sans-Serif" font-size="10.00">+ Load_3()</text>
<text text-anchor="start" x="678" y="-7.5" font-family="Helvetica,sans-Serif" font-size="10.00">+ execute()</text>
</a>
</g>
</g>
<!-- Node1&#45;&gt;Node8 -->
<g id="edge7" class="edge"><title>Node1&#45;&gt;Node8</title>
<path fill="none" stroke="midnightblue" d="M861.95,-120.637C837.355,-106.015 809.743,-89.5984 786.007,-75.4867"/>
<polygon fill="none" stroke="midnightblue" points="860.478,-123.834 870.862,-125.936 864.055,-117.817 860.478,-123.834"/>
</g>
<!-- Node9 -->
<g id="node9" class="node"><title>Node9</title>
<g id="a_node9"><a xlink:href="../../d0/d8d/class_instructions_1_1_reference_1_1_load_from_array.xhtml" target="_top" xlink:title=" ">
<polygon fill="none" stroke="black" points="804,-0.5 804,-79.5 920,-79.5 920,-0.5 804,-0.5"/>
<text text-anchor="start" x="812" y="-67.5" font-family="Helvetica,sans-Serif" font-size="10.00">Instructions::Reference</text>
<text text-anchor="middle" x="862" y="-56.5" font-family="Helvetica,sans-Serif" font-size="10.00">::LoadFromArray</text>
<polyline fill="none" stroke="black" points="804,-49.5 920,-49.5 "/>
<text text-anchor="middle" x="862" y="-37.5" font-family="Helvetica,sans-Serif" font-size="10.00"> </text>
<polyline fill="none" stroke="black" points="804,-30.5 920,-30.5 "/>
<text text-anchor="start" x="812" y="-18.5" font-family="Helvetica,sans-Serif" font-size="10.00">+ LoadFromArray()</text>
<text text-anchor="start" x="812" y="-7.5" font-family="Helvetica,sans-Serif" font-size="10.00">+ execute()</text>
</a>
</g>
</g>
<!-- Node1&#45;&gt;Node9 -->
<g id="edge8" class="edge"><title>Node1&#45;&gt;Node9</title>
<path fill="none" stroke="midnightblue" d="M899.295,-107.519C894.078,-98.2143 888.737,-88.6877 883.786,-79.8576"/>
<polygon fill="none" stroke="midnightblue" points="896.299,-109.331 904.242,-116.342 902.404,-105.908 896.299,-109.331"/>
</g>
<!-- Node10 -->
<g id="node10" class="node"><title>Node10</title>
<g id="a_node10"><a xlink:href="../../dd/d8a/class_instructions_1_1_reference_1_1_return.xhtml" target="_top" xlink:title=" ">
<polygon fill="none" stroke="black" points="938,-0.5 938,-79.5 1054,-79.5 1054,-0.5 938,-0.5"/>
<text text-anchor="start" x="946" y="-67.5" font-family="Helvetica,sans-Serif" font-size="10.00">Instructions::Reference</text>
<text text-anchor="middle" x="996" y="-56.5" font-family="Helvetica,sans-Serif" font-size="10.00">::Return</text>
<polyline fill="none" stroke="black" points="938,-49.5 1054,-49.5 "/>
<text text-anchor="middle" x="996" y="-37.5" font-family="Helvetica,sans-Serif" font-size="10.00"> </text>
<polyline fill="none" stroke="black" points="938,-30.5 1054,-30.5 "/>
<text text-anchor="start" x="946" y="-18.5" font-family="Helvetica,sans-Serif" font-size="10.00">+ Return()</text>
<text text-anchor="start" x="946" y="-7.5" font-family="Helvetica,sans-Serif" font-size="10.00">+ execute()</text>
</a>
</g>
</g>
<!-- Node1&#45;&gt;Node10 -->
<g id="edge9" class="edge"><title>Node1&#45;&gt;Node10</title>
<path fill="none" stroke="midnightblue" d="M958.705,-107.519C963.922,-98.2143 969.263,-88.6877 974.214,-79.8576"/>
<polygon fill="none" stroke="midnightblue" points="955.596,-105.908 953.758,-116.342 961.701,-109.331 955.596,-105.908"/>
</g>
<!-- Node11 -->
<g id="node11" class="node"><title>Node11</title>
<g id="a_node11"><a xlink:href="../../de/d59/class_instructions_1_1_reference_1_1_store__0.xhtml" target="_top" xlink:title=" ">
<polygon fill="none" stroke="black" points="1072,-0.5 1072,-79.5 1188,-79.5 1188,-0.5 1072,-0.5"/>
<text text-anchor="start" x="1080" y="-67.5" font-family="Helvetica,sans-Serif" font-size="10.00">Instructions::Reference</text>
<text text-anchor="middle" x="1130" y="-56.5" font-family="Helvetica,sans-Serif" font-size="10.00">::Store_0</text>
<polyline fill="none" stroke="black" points="1072,-49.5 1188,-49.5 "/>
<text text-anchor="middle" x="1130" y="-37.5" font-family="Helvetica,sans-Serif" font-size="10.00"> </text>
<polyline fill="none" stroke="black" points="1072,-30.5 1188,-30.5 "/>
<text text-anchor="start" x="1080" y="-18.5" font-family="Helvetica,sans-Serif" font-size="10.00">+ Store_0()</text>
<text text-anchor="start" x="1080" y="-7.5" font-family="Helvetica,sans-Serif" font-size="10.00">+ execute()</text>
</a>
</g>
</g>
<!-- Node1&#45;&gt;Node11 -->
<g id="edge10" class="edge"><title>Node1&#45;&gt;Node11</title>
<path fill="none" stroke="midnightblue" d="M996.05,-120.637C1020.64,-106.015 1048.26,-89.5984 1071.99,-75.4867"/>
<polygon fill="none" stroke="midnightblue" points="993.945,-117.817 987.138,-125.936 997.522,-123.834 993.945,-117.817"/>
</g>
<!-- Node12 -->
<g id="node12" class="node"><title>Node12</title>
<g id="a_node12"><a xlink:href="../../d8/d80/class_instructions_1_1_reference_1_1_store__1.xhtml" target="_top" xlink:title=" ">
<polygon fill="none" stroke="black" points="1206,-0.5 1206,-79.5 1322,-79.5 1322,-0.5 1206,-0.5"/>
<text text-anchor="start" x="1214" y="-67.5" font-family="Helvetica,sans-Serif" font-size="10.00">Instructions::Reference</text>
<text text-anchor="middle" x="1264" y="-56.5" font-family="Helvetica,sans-Serif" font-size="10.00">::Store_1</text>
<polyline fill="none" stroke="black" points="1206,-49.5 1322,-49.5 "/>
<text text-anchor="middle" x="1264" y="-37.5" font-family="Helvetica,sans-Serif" font-size="10.00"> </text>
<polyline fill="none" stroke="black" points="1206,-30.5 1322,-30.5 "/>
<text text-anchor="start" x="1214" y="-18.5" font-family="Helvetica,sans-Serif" font-size="10.00">+ Store_1()</text>
<text text-anchor="start" x="1214" y="-7.5" font-family="Helvetica,sans-Serif" font-size="10.00">+ execute()</text>
</a>
</g>
</g>
<!-- Node1&#45;&gt;Node12 -->
<g id="edge11" class="edge"><title>Node1&#45;&gt;Node12</title>
<path fill="none" stroke="midnightblue" d="M997.119,-144.769C1052.24,-130.926 1131.24,-108.541 1197,-80 1199.96,-78.714 1202.96,-77.3263 1205.96,-75.8674"/>
<polygon fill="none" stroke="midnightblue" points="995.975,-141.447 987.113,-147.254 997.662,-148.24 995.975,-141.447"/>
</g>
<!-- Node13 -->
<g id="node13" class="node"><title>Node13</title>
<g id="a_node13"><a xlink:href="../../dd/d3f/class_instructions_1_1_reference_1_1_store__2.xhtml" target="_top" xlink:title=" ">
<polygon fill="none" stroke="black" points="1340,-0.5 1340,-79.5 1456,-79.5 1456,-0.5 1340,-0.5"/>
<text text-anchor="start" x="1348" y="-67.5" font-family="Helvetica,sans-Serif" font-size="10.00">Instructions::Reference</text>
<text text-anchor="middle" x="1398" y="-56.5" font-family="Helvetica,sans-Serif" font-size="10.00">::Store_2</text>
<polyline fill="none" stroke="black" points="1340,-49.5 1456,-49.5 "/>
<text text-anchor="middle" x="1398" y="-37.5" font-family="Helvetica,sans-Serif" font-size="10.00"> </text>
<polyline fill="none" stroke="black" points="1340,-30.5 1456,-30.5 "/>
<text text-anchor="start" x="1348" y="-18.5" font-family="Helvetica,sans-Serif" font-size="10.00">+ Store_2()</text>
<text text-anchor="start" x="1348" y="-7.5" font-family="Helvetica,sans-Serif" font-size="10.00">+ execute()</text>
</a>
</g>
</g>
<!-- Node1&#45;&gt;Node13 -->
<g id="edge12" class="edge"><title>Node1&#45;&gt;Node13</title>
<path fill="none" stroke="midnightblue" d="M997.38,-153.747C1078.93,-144.133 1218.35,-122.71 1331,-80 1333.89,-78.9026 1336.81,-77.6876 1339.72,-76.3849"/>
<polygon fill="none" stroke="midnightblue" points="996.774,-150.294 987.241,-154.917 997.576,-157.248 996.774,-150.294"/>
</g>
<!-- Node14 -->
<g id="node14" class="node"><title>Node14</title>
<g id="a_node14"><a xlink:href="../../df/dc5/class_instructions_1_1_reference_1_1_store__3.xhtml" target="_top" xlink:title=" ">
<polygon fill="none" stroke="black" points="1474,-0.5 1474,-79.5 1590,-79.5 1590,-0.5 1474,-0.5"/>
<text text-anchor="start" x="1482" y="-67.5" font-family="Helvetica,sans-Serif" font-size="10.00">Instructions::Reference</text>
<text text-anchor="middle" x="1532" y="-56.5" font-family="Helvetica,sans-Serif" font-size="10.00">::Store_3</text>
<polyline fill="none" stroke="black" points="1474,-49.5 1590,-49.5 "/>
<text text-anchor="middle" x="1532" y="-37.5" font-family="Helvetica,sans-Serif" font-size="10.00"> </text>
<polyline fill="none" stroke="black" points="1474,-30.5 1590,-30.5 "/>
<text text-anchor="start" x="1482" y="-18.5" font-family="Helvetica,sans-Serif" font-size="10.00">+ Store_3()</text>
<text text-anchor="start" x="1482" y="-7.5" font-family="Helvetica,sans-Serif" font-size="10.00">+ execute()</text>
</a>
</g>
</g>
<!-- Node1&#45;&gt;Node14 -->
<g id="edge13" class="edge"><title>Node1&#45;&gt;Node14</title>
<path fill="none" stroke="midnightblue" d="M997.068,-158.445C1100.81,-153.519 1303.49,-136.789 1465,-80 1467.92,-78.9732 1470.86,-77.8161 1473.78,-76.5604"/>
<polygon fill="none" stroke="midnightblue" points="996.87,-154.95 987.038,-158.899 997.186,-161.943 996.87,-154.95"/>
</g>
<!-- Node15 -->
<g id="node15" class="node"><title>Node15</title>
<g id="a_node15"><a xlink:href="../../dd/d2d/class_instructions_1_1_reference_1_1_store_into_array.xhtml" target="_top" xlink:title=" ">
<polygon fill="none" stroke="black" points="1608,-0.5 1608,-79.5 1724,-79.5 1724,-0.5 1608,-0.5"/>
<text text-anchor="start" x="1616" y="-67.5" font-family="Helvetica,sans-Serif" font-size="10.00">Instructions::Reference</text>
<text text-anchor="middle" x="1666" y="-56.5" font-family="Helvetica,sans-Serif" font-size="10.00">::StoreIntoArray</text>
<polyline fill="none" stroke="black" points="1608,-49.5 1724,-49.5 "/>
<text text-anchor="middle" x="1666" y="-37.5" font-family="Helvetica,sans-Serif" font-size="10.00"> </text>
<polyline fill="none" stroke="black" points="1608,-30.5 1724,-30.5 "/>
<text text-anchor="start" x="1616" y="-18.5" font-family="Helvetica,sans-Serif" font-size="10.00">+ StoreIntoArray()</text>
<text text-anchor="start" x="1616" y="-7.5" font-family="Helvetica,sans-Serif" font-size="10.00">+ execute()</text>
</a>
</g>
</g>
<!-- Node1&#45;&gt;Node15 -->
<g id="edge14" class="edge"><title>Node1&#45;&gt;Node15</title>
<path fill="none" stroke="midnightblue" d="M997.25,-161.312C1120.67,-160.83 1387.77,-150.789 1599,-80 1601.94,-79.0164 1604.88,-77.8947 1607.82,-76.6677"/>
<polygon fill="none" stroke="midnightblue" points="997.179,-157.812 987.186,-161.331 997.193,-164.812 997.179,-157.812"/>
</g>
<!-- Node16 -->
<g id="node16" class="node"><title>Node16</title>
<g id="a_node16"><a xlink:href="../../da/df3/class_instructions_1_1_reference_1_1_throw.xhtml" target="_top" xlink:title=" ">
<polygon fill="none" stroke="black" points="1742,-0.5 1742,-79.5 1858,-79.5 1858,-0.5 1742,-0.5"/>
<text text-anchor="start" x="1750" y="-67.5" font-family="Helvetica,sans-Serif" font-size="10.00">Instructions::Reference</text>
<text text-anchor="middle" x="1800" y="-56.5" font-family="Helvetica,sans-Serif" font-size="10.00">::Throw</text>
<polyline fill="none" stroke="black" points="1742,-49.5 1858,-49.5 "/>
<text text-anchor="middle" x="1800" y="-37.5" font-family="Helvetica,sans-Serif" font-size="10.00"> </text>
<polyline fill="none" stroke="black" points="1742,-30.5 1858,-30.5 "/>
<text text-anchor="start" x="1750" y="-18.5" font-family="Helvetica,sans-Serif" font-size="10.00">+ Throw()</text>
<text text-anchor="start" x="1750" y="-7.5" font-family="Helvetica,sans-Serif" font-size="10.00">+ execute()</text>
</a>
</g>
</g>
<!-- Node1&#45;&gt;Node16 -->
<g id="edge15" class="edge"><title>Node1&#45;&gt;Node16</title>
<path fill="none" stroke="midnightblue" d="M997.335,-157.389C1165.69,-149.128 1596.65,-124.197 1733,-80 1735.94,-79.0454 1738.9,-77.9476 1741.84,-76.7399"/>
<polygon fill="none" stroke="midnightblue" points="996.929,-153.904 987.111,-157.886 997.269,-160.896 996.929,-153.904"/>
</g>
<!-- Node2 -->
<g id="node2" class="node"><title>Node2</title>
<g id="a_node2"><a xlink:href="../../d4/da8/class_instructions_1_1_instruction.xhtml" target="_top" xlink:title=" ">
<polygon fill="none" stroke="black" points="870,-243.5 870,-344.5 988,-344.5 988,-243.5 870,-243.5"/>
<text text-anchor="middle" x="929" y="-332.5" font-family="Helvetica,sans-Serif" font-size="10.00">Instructions::Instruction</text>
<polyline fill="none" stroke="black" points="870,-325.5 988,-325.5 "/>
<text text-anchor="start" x="878" y="-313.5" font-family="Helvetica,sans-Serif" font-size="10.00">+ opcode</text>
<polyline fill="none" stroke="black" points="870,-306.5 988,-306.5 "/>
<text text-anchor="start" x="878" y="-294.5" font-family="Helvetica,sans-Serif" font-size="10.00">+ Instruction()</text>
<text text-anchor="start" x="878" y="-283.5" font-family="Helvetica,sans-Serif" font-size="10.00">+ ~Instruction()</text>
<text text-anchor="start" x="878" y="-272.5" font-family="Helvetica,sans-Serif" font-size="10.00">+ execute()</text>
<text text-anchor="start" x="878" y="-261.5" font-family="Helvetica,sans-Serif" font-size="10.00">+ toBytecode()</text>
<text text-anchor="start" x="878" y="-250.5" font-family="Helvetica,sans-Serif" font-size="10.00">+ toBytecode_json()</text>
</a>
</g>
</g>
<!-- Node2&#45;&gt;Node1 -->
<g id="edge1" class="edge"><title>Node2&#45;&gt;Node1</title>
<path fill="none" stroke="midnightblue" d="M929,-233.232C929,-224.236 929,-215.101 929,-206.516"/>
<polygon fill="none" stroke="midnightblue" points="925.5,-233.291 929,-243.291 932.5,-233.291 925.5,-233.291"/>
</g>
</g>
</svg>
