<?xml version="1.0" encoding="UTF-8" standalone="no"?>
<!DOCTYPE svg PUBLIC "-//W3C//DTD SVG 1.1//EN"
 "http://www.w3.org/Graphics/SVG/1.1/DTD/svg11.dtd">
<!-- Generated by graphviz version 2.38.0 (20140413.2041)
 -->
<!-- Title: include/instructions/instruction_set/reference.h Pages: 1 -->
<svg width="542pt" height="218pt"
 viewBox="0.00 0.00 542.00 218.00" xmlns="http://www.w3.org/2000/svg" xmlns:xlink="http://www.w3.org/1999/xlink">
<g id="graph0" class="graph" transform="scale(1 1) rotate(0) translate(4 214)">
<title>include/instructions/instruction_set/reference.h</title>
<!-- Node1 -->
<g id="node1" class="node"><title>Node1</title>
<g id="a_node1"><a xlink:title=" ">
<polygon fill="#bfbfbf" stroke="black" points="192,-179.5 192,-209.5 326,-209.5 326,-179.5 192,-179.5"/>
<text text-anchor="start" x="200" y="-197.5" font-family="Helvetica,sans-Serif" font-size="10.00">include/instructions</text>
<text text-anchor="middle" x="259" y="-186.5" font-family="Helvetica,sans-Serif" font-size="10.00">/instruction_set/reference.h</text>
</a>
</g>
</g>
<!-- Node2 -->
<g id="node2" class="node"><title>Node2</title>
<g id="a_node2"><a xlink:title=" ">
<polygon fill="none" stroke="#bfbfbf" points="0,-118 0,-137 54,-137 54,-118 0,-118"/>
<text text-anchor="middle" x="27" y="-125" font-family="Helvetica,sans-Serif" font-size="10.00">iostream</text>
</a>
</g>
</g>
<!-- Node1&#45;&gt;Node2 -->
<g id="edge1" class="edge"><title>Node1&#45;&gt;Node2</title>
<path fill="none" stroke="midnightblue" d="M195.724,-179.417C157.03,-170.259 106.731,-157.372 63,-143 60.8676,-142.299 58.6806,-141.535 56.4893,-140.736"/>
<polygon fill="midnightblue" stroke="midnightblue" points="57.601,-137.414 47.0108,-137.099 55.0931,-143.95 57.601,-137.414"/>
</g>
<!-- Node3 -->
<g id="node3" class="node"><title>Node3</title>
<g id="a_node3"><a xlink:title=" ">
<polygon fill="none" stroke="#bfbfbf" points="208.5,-56.5 208.5,-75.5 249.5,-75.5 249.5,-56.5 208.5,-56.5"/>
<text text-anchor="middle" x="229" y="-63.5" font-family="Helvetica,sans-Serif" font-size="10.00">string</text>
</a>
</g>
</g>
<!-- Node1&#45;&gt;Node3 -->
<g id="edge2" class="edge"><title>Node1&#45;&gt;Node3</title>
<path fill="none" stroke="midnightblue" d="M251.02,-179.393C245.83,-169.52 239.413,-155.849 236,-143 230.958,-124.019 229.408,-101.54 228.997,-85.9774"/>
<polygon fill="midnightblue" stroke="midnightblue" points="232.492,-85.5514 228.865,-75.5967 225.492,-85.6404 232.492,-85.5514"/>
</g>
<!-- Node4 -->
<g id="node4" class="node"><title>Node4</title>
<g id="a_node4"><a xlink:title=" ">
<polygon fill="none" stroke="#bfbfbf" points="283,-56.5 283,-75.5 325,-75.5 325,-56.5 283,-56.5"/>
<text text-anchor="middle" x="304" y="-63.5" font-family="Helvetica,sans-Serif" font-size="10.00">vector</text>
</a>
</g>
</g>
<!-- Node1&#45;&gt;Node4 -->
<g id="edge3" class="edge"><title>Node1&#45;&gt;Node4</title>
<path fill="none" stroke="midnightblue" d="M319.99,-179.461C338.967,-171.916 357.827,-160.424 369,-143 376.437,-131.402 375.394,-124.204 369,-112 361.547,-97.7758 347.33,-87.1539 334.088,-79.8127"/>
<polygon fill="midnightblue" stroke="midnightblue" points="335.668,-76.6896 325.171,-75.2505 332.479,-82.9213 335.668,-76.6896"/>
</g>
<!-- Node5 -->
<g id="node5" class="node"><title>Node5</title>
<g id="a_node5"><a xlink:href="../../d3/d5a/base_8h.xhtml" target="_top" xlink:title=" ">
<polygon fill="none" stroke="black" points="244.5,-112.5 244.5,-142.5 359.5,-142.5 359.5,-112.5 244.5,-112.5"/>
<text text-anchor="start" x="252.5" y="-130.5" font-family="Helvetica,sans-Serif" font-size="10.00">instructions/instruction</text>
<text text-anchor="middle" x="302" y="-119.5" font-family="Helvetica,sans-Serif" font-size="10.00">_set/base.h</text>
</a>
</g>
</g>
<!-- Node1&#45;&gt;Node5 -->
<g id="edge4" class="edge"><title>Node1&#45;&gt;Node5</title>
<path fill="none" stroke="midnightblue" d="M268.33,-179.396C273.796,-171.134 280.826,-160.507 287.048,-151.102"/>
<polygon fill="midnightblue" stroke="midnightblue" points="290.09,-152.848 292.688,-142.577 284.251,-148.986 290.09,-152.848"/>
</g>
<!-- Node9 -->
<g id="node9" class="node"><title>Node9</title>
<g id="a_node9"><a xlink:href="../../d3/de6/opcodes_8h.xhtml" target="_top" xlink:title=" ">
<polygon fill="none" stroke="black" points="72.5,-118 72.5,-137 187.5,-137 187.5,-118 72.5,-118"/>
<text text-anchor="middle" x="130" y="-125" font-family="Helvetica,sans-Serif" font-size="10.00">instructions/opcodes.h</text>
</a>
</g>
</g>
<!-- Node1&#45;&gt;Node9 -->
<g id="edge10" class="edge"><title>Node1&#45;&gt;Node9</title>
<path fill="none" stroke="midnightblue" d="M231.009,-179.396C208.675,-168.142 177.633,-152.501 155.874,-141.538"/>
<polygon fill="midnightblue" stroke="midnightblue" points="157.388,-138.381 146.883,-137.007 154.239,-144.633 157.388,-138.381"/>
</g>
<!-- Node10 -->
<g id="node10" class="node"><title>Node10</title>
<g id="a_node10"><a xlink:href="../../da/d66/string_8h.xhtml" target="_top" xlink:title=" ">
<polygon fill="none" stroke="black" points="416,-118 416,-137 486,-137 486,-118 416,-118"/>
<text text-anchor="middle" x="451" y="-125" font-family="Helvetica,sans-Serif" font-size="10.00">utils/string.h</text>
</a>
</g>
</g>
<!-- Node1&#45;&gt;Node10 -->
<g id="edge14" class="edge"><title>Node1&#45;&gt;Node10</title>
<path fill="none" stroke="midnightblue" d="M300.661,-179.396C335.244,-167.688 383.855,-151.231 416.341,-140.234"/>
<polygon fill="midnightblue" stroke="midnightblue" points="417.522,-143.529 425.872,-137.007 415.277,-136.899 417.522,-143.529"/>
</g>
<!-- Node5&#45;&gt;Node3 -->
<g id="edge6" class="edge"><title>Node5&#45;&gt;Node3</title>
<path fill="none" stroke="midnightblue" d="M284.7,-112.399C273.545,-103.308 259.046,-91.4899 247.638,-82.1909"/>
<polygon fill="midnightblue" stroke="midnightblue" points="249.585,-79.2627 239.622,-75.6578 245.162,-84.6887 249.585,-79.2627"/>
</g>
<!-- Node5&#45;&gt;Node4 -->
<g id="edge7" class="edge"><title>Node5&#45;&gt;Node4</title>
<path fill="none" stroke="midnightblue" d="M302.474,-112.399C302.741,-104.466 303.077,-94.458 303.366,-85.8583"/>
<polygon fill="midnightblue" stroke="midnightblue" points="306.871,-85.7697 303.709,-75.6578 299.875,-85.5345 306.871,-85.7697"/>
</g>
<!-- Node6 -->
<g id="node6" class="node"><title>Node6</title>
<g id="a_node6"><a xlink:title=" ">
<polygon fill="none" stroke="#bfbfbf" points="347,-56.5 347,-75.5 399,-75.5 399,-56.5 347,-56.5"/>
<text text-anchor="middle" x="373" y="-63.5" font-family="Helvetica,sans-Serif" font-size="10.00">sstream</text>
</a>
</g>
</g>
<!-- Node5&#45;&gt;Node6 -->
<g id="edge5" class="edge"><title>Node5&#45;&gt;Node6</title>
<path fill="none" stroke="midnightblue" d="M318.826,-112.399C329.675,-103.308 343.777,-91.4899 354.873,-82.1909"/>
<polygon fill="midnightblue" stroke="midnightblue" points="357.252,-84.7634 362.669,-75.6578 352.756,-79.3983 357.252,-84.7634"/>
</g>
<!-- Node7 -->
<g id="node7" class="node"><title>Node7</title>
<g id="a_node7"><a xlink:href="../../d9/d49/types_8h.xhtml" target="_top" xlink:title=" ">
<polygon fill="none" stroke="black" points="101,-56.5 101,-75.5 171,-75.5 171,-56.5 101,-56.5"/>
<text text-anchor="middle" x="136" y="-63.5" font-family="Helvetica,sans-Serif" font-size="10.00">utils/types.h</text>
</a>
</g>
</g>
<!-- Node5&#45;&gt;Node7 -->
<g id="edge8" class="edge"><title>Node5&#45;&gt;Node7</title>
<path fill="none" stroke="midnightblue" d="M262.66,-112.399C234.435,-102.283 196.794,-88.7905 169.895,-79.1493"/>
<polygon fill="midnightblue" stroke="midnightblue" points="170.749,-75.7372 160.154,-75.6578 168.387,-82.3267 170.749,-75.7372"/>
</g>
<!-- Node8 -->
<g id="node8" class="node"><title>Node8</title>
<g id="a_node8"><a xlink:title=" ">
<polygon fill="none" stroke="#bfbfbf" points="113,-0.5 113,-19.5 159,-19.5 159,-0.5 113,-0.5"/>
<text text-anchor="middle" x="136" y="-7.5" font-family="Helvetica,sans-Serif" font-size="10.00">cstdint</text>
</a>
</g>
</g>
<!-- Node7&#45;&gt;Node8 -->
<g id="edge9" class="edge"><title>Node7&#45;&gt;Node8</title>
<path fill="none" stroke="midnightblue" d="M136,-56.083C136,-49.0059 136,-38.8611 136,-29.9865"/>
<polygon fill="midnightblue" stroke="midnightblue" points="139.5,-29.751 136,-19.7511 132.5,-29.7511 139.5,-29.751"/>
</g>
<!-- Node9&#45;&gt;Node3 -->
<g id="edge11" class="edge"><title>Node9&#45;&gt;Node3</title>
<path fill="none" stroke="midnightblue" d="M144.184,-117.975C160.358,-108.255 187.026,-92.2266 206.143,-80.7372"/>
<polygon fill="midnightblue" stroke="midnightblue" points="208.074,-83.6603 214.842,-75.5091 204.468,-77.6606 208.074,-83.6603"/>
</g>
<!-- Node9&#45;&gt;Node4 -->
<g id="edge12" class="edge"><title>Node9&#45;&gt;Node4</title>
<path fill="none" stroke="midnightblue" d="M154.93,-117.975C186.099,-107.317 239.445,-89.0748 273.154,-77.548"/>
<polygon fill="midnightblue" stroke="midnightblue" points="274.609,-80.7495 282.938,-74.2021 272.344,-74.126 274.609,-80.7495"/>
</g>
<!-- Node9&#45;&gt;Node7 -->
<g id="edge13" class="edge"><title>Node9&#45;&gt;Node7</title>
<path fill="none" stroke="midnightblue" d="M130.86,-117.975C131.706,-109.58 133.027,-96.4806 134.118,-85.6631"/>
<polygon fill="midnightblue" stroke="midnightblue" points="137.621,-85.8098 135.142,-75.5091 130.656,-85.1074 137.621,-85.8098"/>
</g>
<!-- Node10&#45;&gt;Node3 -->
<g id="edge18" class="edge"><title>Node10&#45;&gt;Node3</title>
<path fill="none" stroke="midnightblue" d="M419.193,-117.975C376.64,-106.57 301.689,-86.4819 259.705,-75.2294"/>
<polygon fill="midnightblue" stroke="midnightblue" points="260.346,-71.7778 249.781,-72.5696 258.534,-78.5392 260.346,-71.7778"/>
</g>
<!-- Node10&#45;&gt;Node4 -->
<g id="edge19" class="edge"><title>Node10&#45;&gt;Node4</title>
<path fill="none" stroke="midnightblue" d="M429.938,-117.975C404.941,-107.857 363.058,-90.9046 334.513,-79.3507"/>
<polygon fill="midnightblue" stroke="midnightblue" points="335.605,-76.0168 325.022,-75.5091 332.979,-82.5054 335.605,-76.0168"/>
</g>
<!-- Node10&#45;&gt;Node6 -->
<g id="edge17" class="edge"><title>Node10&#45;&gt;Node6</title>
<path fill="none" stroke="midnightblue" d="M439.825,-117.975C427.429,-108.52 407.21,-93.0961 392.254,-81.6871"/>
<polygon fill="midnightblue" stroke="midnightblue" points="394.228,-78.7914 384.155,-75.5091 389.983,-84.357 394.228,-78.7914"/>
</g>
<!-- Node11 -->
<g id="node11" class="node"><title>Node11</title>
<g id="a_node11"><a xlink:title=" ">
<polygon fill="none" stroke="#bfbfbf" points="424,-56.5 424,-75.5 474,-75.5 474,-56.5 424,-56.5"/>
<text text-anchor="middle" x="449" y="-63.5" font-family="Helvetica,sans-Serif" font-size="10.00">codecvt</text>
</a>
</g>
</g>
<!-- Node10&#45;&gt;Node11 -->
<g id="edge15" class="edge"><title>Node10&#45;&gt;Node11</title>
<path fill="none" stroke="midnightblue" d="M450.713,-117.975C450.431,-109.58 449.991,-96.4806 449.627,-85.6631"/>
<polygon fill="midnightblue" stroke="midnightblue" points="453.12,-85.3858 449.286,-75.5091 446.124,-85.6211 453.12,-85.3858"/>
</g>
<!-- Node12 -->
<g id="node12" class="node"><title>Node12</title>
<g id="a_node12"><a xlink:title=" ">
<polygon fill="none" stroke="#bfbfbf" points="492,-56.5 492,-75.5 534,-75.5 534,-56.5 492,-56.5"/>
<text text-anchor="middle" x="513" y="-63.5" font-family="Helvetica,sans-Serif" font-size="10.00">locale</text>
</a>
</g>
</g>
<!-- Node10&#45;&gt;Node12 -->
<g id="edge16" class="edge"><title>Node10&#45;&gt;Node12</title>
<path fill="none" stroke="midnightblue" d="M459.883,-117.975C469.459,-108.785 484.911,-93.9563 496.686,-82.656"/>
<polygon fill="midnightblue" stroke="midnightblue" points="499.342,-84.9585 504.133,-75.5091 494.495,-79.908 499.342,-84.9585"/>
</g>
</g>
</svg>
