<?xml version="1.0" encoding="UTF-8" standalone="no"?>
<!DOCTYPE svg PUBLIC "-//W3C//DTD SVG 1.1//EN"
 "http://www.w3.org/Graphics/SVG/1.1/DTD/svg11.dtd">
<!-- Generated by graphviz version 2.38.0 (20140413.2041)
 -->
<!-- Title: include/utils/helper_functions.h Pages: 1 -->
<svg width="246pt" height="162pt"
 viewBox="0.00 0.00 246.00 162.00" xmlns="http://www.w3.org/2000/svg" xmlns:xlink="http://www.w3.org/1999/xlink">
<g id="graph0" class="graph" transform="scale(1 1) rotate(0) translate(4 158)">
<title>include/utils/helper_functions.h</title>
<!-- Node1 -->
<g id="node1" class="node"><title>Node1</title>
<g id="a_node1"><a xlink:title=" ">
<polygon fill="#bfbfbf" stroke="black" points="68.5,-123.5 68.5,-153.5 166.5,-153.5 166.5,-123.5 68.5,-123.5"/>
<text text-anchor="start" x="76.5" y="-141.5" font-family="Helvetica,sans-Serif" font-size="10.00">include/utils/helper</text>
<text text-anchor="middle" x="117.5" y="-130.5" font-family="Helvetica,sans-Serif" font-size="10.00">_functions.h</text>
</a>
</g>
</g>
<!-- Node2 -->
<g id="node2" class="node"><title>Node2</title>
<g id="a_node2"><a xlink:href="../../da/ddb/heap_8h.xhtml" target="_top" xlink:title=" ">
<polygon fill="none" stroke="black" points="0,-56.5 0,-86.5 107,-86.5 107,-56.5 0,-56.5"/>
<text text-anchor="start" x="8" y="-74.5" font-family="Helvetica,sans-Serif" font-size="10.00">include/utils/memory</text>
<text text-anchor="middle" x="53.5" y="-63.5" font-family="Helvetica,sans-Serif" font-size="10.00">_areas/heap.h</text>
</a>
</g>
</g>
<!-- Node1&#45;&gt;Node2 -->
<g id="edge1" class="edge"><title>Node1&#45;&gt;Node2</title>
<path fill="none" stroke="midnightblue" d="M96.3546,-116.024C86.8192,-106.34 75.8251,-95.1739 67.3599,-86.5765"/>
<polygon fill="midnightblue" stroke="midnightblue" points="94.1029,-118.726 103.613,-123.396 99.0909,-113.815 94.1029,-118.726"/>
</g>
<!-- Node4 -->
<g id="node4" class="node"><title>Node4</title>
<g id="a_node4"><a xlink:href="../../df/d50/method__area_8h.xhtml" target="_top" xlink:title=" ">
<polygon fill="none" stroke="black" points="125,-56.5 125,-86.5 238,-86.5 238,-56.5 125,-56.5"/>
<text text-anchor="start" x="133" y="-74.5" font-family="Helvetica,sans-Serif" font-size="10.00">include/utils/memory</text>
<text text-anchor="middle" x="181.5" y="-63.5" font-family="Helvetica,sans-Serif" font-size="10.00">_areas/method_area.h</text>
</a>
</g>
</g>
<!-- Node1&#45;&gt;Node4 -->
<g id="edge3" class="edge"><title>Node1&#45;&gt;Node4</title>
<path fill="none" stroke="midnightblue" d="M138.645,-116.024C148.181,-106.34 159.175,-95.1739 167.64,-86.5765"/>
<polygon fill="midnightblue" stroke="midnightblue" points="135.909,-113.815 131.387,-123.396 140.897,-118.726 135.909,-113.815"/>
</g>
<!-- Node3 -->
<g id="node3" class="node"><title>Node3</title>
<g id="a_node3"><a xlink:href="../../d3/d97/interpreter_8h.xhtml" target="_top" xlink:title=" ">
<polygon fill="none" stroke="black" points="66.5,-0.5 66.5,-19.5 168.5,-19.5 168.5,-0.5 66.5,-0.5"/>
<text text-anchor="middle" x="117.5" y="-7.5" font-family="Helvetica,sans-Serif" font-size="10.00">include/interpreter.h</text>
</a>
</g>
</g>
<!-- Node2&#45;&gt;Node3 -->
<g id="edge2" class="edge"><title>Node2&#45;&gt;Node3</title>
<path fill="none" stroke="midnightblue" d="M76.3032,-49.3002C87.2876,-39.0881 99.8519,-27.4072 108.187,-19.6578"/>
<polygon fill="midnightblue" stroke="midnightblue" points="73.6079,-47.027 68.6671,-56.3993 78.3741,-52.1538 73.6079,-47.027"/>
</g>
<!-- Node4&#45;&gt;Node3 -->
<g id="edge4" class="edge"><title>Node4&#45;&gt;Node3</title>
<path fill="none" stroke="midnightblue" d="M158.697,-49.3002C147.712,-39.0881 135.148,-27.4072 126.813,-19.6578"/>
<polygon fill="midnightblue" stroke="midnightblue" points="156.626,-52.1538 166.333,-56.3993 161.392,-47.027 156.626,-52.1538"/>
</g>
</g>
</svg>
