<?xml version="1.0" encoding="UTF-8" standalone="no"?>
<!DOCTYPE svg PUBLIC "-//W3C//DTD SVG 1.1//EN"
 "http://www.w3.org/Graphics/SVG/1.1/DTD/svg11.dtd">
<!-- Generated by graphviz version 2.38.0 (20140413.2041)
 -->
<!-- Title: include/instructions/instruction_set/base.h Pages: 1 -->
<!--zoomable 117 -->
<svg id="main" version="1.1" xmlns="http://www.w3.org/2000/svg" xmlns:xlink="http://www.w3.org/1999/xlink" xml:space="preserve" onload="init(evt)">
<style type="text/css"><![CDATA[
.edge:hover path { stroke: red; }
.edge:hover polygon { stroke: red; fill: red; }
]]></style>
<script type="text/javascript"><![CDATA[
var edges = document.getElementsByTagName('g');
if (edges && edges.length) {
  for (var i=0;i<edges.length;i++) {
    if (edges[i].id.substr(0,4)=='edge') {
      edges[i].setAttribute('class','edge');
    }
  }
}
]]></script>
        <defs>
                <circle id="rim" cx="0" cy="0" r="7"/>
                <circle id="rim2" cx="0" cy="0" r="3.5"/>
                <g id="zoomPlus">
                        <use xlink:href="#rim" fill="#404040">
                                <set attributeName="fill" to="#808080" begin="zoomplus.mouseover" end="zoomplus.mouseout"/>
                        </use>
                        <path d="M-4,0h8M0,-4v8" fill="none" stroke="white" stroke-width="1.5" pointer-events="none"/>
                </g>
                <g id="zoomMin">
                        <use xlink:href="#rim" fill="#404040">
                                <set attributeName="fill" to="#808080" begin="zoomminus.mouseover" end="zoomminus.mouseout"/>
                        </use>
                        <path d="M-4,0h8" fill="none" stroke="white" stroke-width="1.5" pointer-events="none"/>
                </g>
                <g id="dirArrow">
                        <path fill="none" stroke="white" stroke-width="1.5" d="M0,-3.0v7 M-2.5,-0.5L0,-3.0L2.5,-0.5"/>
                </g>
               <g id="resetDef">
                       <use xlink:href="#rim2" fill="#404040">
                               <set attributeName="fill" to="#808080" begin="reset.mouseover" end="reset.mouseout"/>
                       </use>
               </g>
        </defs>

<script type="text/javascript">
var viewWidth = 1930;
var viewHeight = 117;
var sectionId = 'dynsection-1';
</script>
<script xlink:href="../../svgpan.js"/>
<svg id="graph" class="graph">
<g id="viewport">
<title>include/instructions/instruction_set/base.h</title>
<!-- Node1 -->
<g id="node1" class="node"><title>Node1</title>
<g id="a_node1"><a xlink:title=" ">
<polygon fill="#bfbfbf" stroke="black" points="896,-78.5 896,-108.5 1012,-108.5 1012,-78.5 896,-78.5"/>
<text text-anchor="start" x="904" y="-96.5" font-family="Helvetica,sans-Serif" font-size="10.00">include/instructions</text>
<text text-anchor="middle" x="954" y="-85.5" font-family="Helvetica,sans-Serif" font-size="10.00">/instruction_set/base.h</text>
</a>
</g>
</g>
<!-- Node2 -->
<g id="node2" class="node"><title>Node2</title>
<g id="a_node2"><a xlink:href="../../db/d6e/branch_8h.xhtml" target="_top" xlink:title=" ">
<polygon fill="none" stroke="black" points="0,-6 0,-36 124,-36 124,-6 0,-6"/>
<text text-anchor="start" x="8" y="-24" font-family="Helvetica,sans-Serif" font-size="10.00">include/instructions</text>
<text text-anchor="middle" x="62" y="-13" font-family="Helvetica,sans-Serif" font-size="10.00">/instruction_set/branch.h</text>
</a>
</g>
</g>
<!-- Node1&#45;&gt;Node2 -->
<g id="edge1" class="edge"><title>Node1&#45;&gt;Node2</title>
<path fill="none" stroke="midnightblue" d="M885.521,-93.1906C743.926,-93.5455 409.086,-88.8249 133,-42 124.288,-40.5225 115.115,-38.3885 106.361,-36.0592"/>
<polygon fill="midnightblue" stroke="midnightblue" points="885.796,-96.6897 895.784,-93.155 885.772,-89.6898 885.796,-96.6897"/>
</g>
<!-- Node3 -->
<g id="node3" class="node"><title>Node3</title>
<g id="a_node3"><a xlink:href="../../d6/d00/byte_8h.xhtml" target="_top" xlink:title=" ">
<polygon fill="none" stroke="black" points="142.5,-6 142.5,-36 255.5,-36 255.5,-6 142.5,-6"/>
<text text-anchor="start" x="150.5" y="-24" font-family="Helvetica,sans-Serif" font-size="10.00">include/instructions</text>
<text text-anchor="middle" x="199" y="-13" font-family="Helvetica,sans-Serif" font-size="10.00">/instruction_set/byte.h</text>
</a>
</g>
</g>
<!-- Node1&#45;&gt;Node3 -->
<g id="edge2" class="edge"><title>Node1&#45;&gt;Node3</title>
<path fill="none" stroke="midnightblue" d="M885.566,-92.5727C760.865,-91.5838 488.755,-84.2418 264,-42 255.993,-40.4952 247.581,-38.3486 239.563,-36.0156"/>
<polygon fill="midnightblue" stroke="midnightblue" points="885.706,-96.0737 895.73,-92.6417 885.754,-89.0738 885.706,-96.0737"/>
</g>
<!-- Node4 -->
<g id="node4" class="node"><title>Node4</title>
<g id="a_node4"><a xlink:href="../../d3/df3/char_8h.xhtml" target="_top" xlink:title=" ">
<polygon fill="none" stroke="black" points="273.5,-6 273.5,-36 386.5,-36 386.5,-6 273.5,-6"/>
<text text-anchor="start" x="281.5" y="-24" font-family="Helvetica,sans-Serif" font-size="10.00">include/instructions</text>
<text text-anchor="middle" x="330" y="-13" font-family="Helvetica,sans-Serif" font-size="10.00">/instruction_set/char.h</text>
</a>
</g>
</g>
<!-- Node1&#45;&gt;Node4 -->
<g id="edge3" class="edge"><title>Node1&#45;&gt;Node4</title>
<path fill="none" stroke="midnightblue" d="M885.382,-90.7851C779.469,-87.1316 570.178,-75.9036 396,-42 388.126,-40.4673 379.853,-38.367 371.929,-36.1011"/>
<polygon fill="midnightblue" stroke="midnightblue" points="885.503,-94.2909 895.614,-91.1254 885.736,-87.2948 885.503,-94.2909"/>
</g>
<!-- Node5 -->
<g id="node5" class="node"><title>Node5</title>
<g id="a_node5"><a xlink:href="../../d1/dac/constant__pool_8h.xhtml" target="_top" xlink:title=" ">
<polygon fill="none" stroke="black" points="405,-0.5 405,-41.5 529,-41.5 529,-0.5 405,-0.5"/>
<text text-anchor="start" x="413" y="-29.5" font-family="Helvetica,sans-Serif" font-size="10.00">include/instructions</text>
<text text-anchor="start" x="413" y="-18.5" font-family="Helvetica,sans-Serif" font-size="10.00">/instruction_set/constant</text>
<text text-anchor="middle" x="467" y="-7.5" font-family="Helvetica,sans-Serif" font-size="10.00">_pool.h</text>
</a>
</g>
</g>
<!-- Node1&#45;&gt;Node5 -->
<g id="edge4" class="edge"><title>Node1&#45;&gt;Node5</title>
<path fill="none" stroke="midnightblue" d="M885.631,-87.4452C802.779,-80.5754 659.208,-66.2787 538,-42 535.112,-41.4215 532.17,-40.7855 529.206,-40.1071"/>
<polygon fill="midnightblue" stroke="midnightblue" points="885.424,-90.9398 895.675,-88.2662 885.994,-83.9631 885.424,-90.9398"/>
</g>
<!-- Node6 -->
<g id="node6" class="node"><title>Node6</title>
<g id="a_node6"><a xlink:href="../../d9/d6e/double_8h.xhtml" target="_top" xlink:title=" ">
<polygon fill="none" stroke="black" points="547.5,-6 547.5,-36 670.5,-36 670.5,-6 547.5,-6"/>
<text text-anchor="start" x="555.5" y="-24" font-family="Helvetica,sans-Serif" font-size="10.00">include/instructions</text>
<text text-anchor="middle" x="609" y="-13" font-family="Helvetica,sans-Serif" font-size="10.00">/instruction_set/double.h</text>
</a>
</g>
</g>
<!-- Node1&#45;&gt;Node6 -->
<g id="edge5" class="edge"><title>Node1&#45;&gt;Node6</title>
<path fill="none" stroke="midnightblue" d="M885.854,-81.8698C829.973,-72.7021 748.967,-58.3791 679,-42 671.493,-40.2427 663.589,-38.1872 655.904,-36.0756"/>
<polygon fill="midnightblue" stroke="midnightblue" points="885.555,-85.3671 895.988,-83.5209 886.681,-78.4582 885.555,-85.3671"/>
</g>
<!-- Node7 -->
<g id="node7" class="node"><title>Node7</title>
<g id="a_node7"><a xlink:href="../../d7/dab/float_8h.xhtml" target="_top" xlink:title=" ">
<polygon fill="none" stroke="black" points="688.5,-6 688.5,-36 801.5,-36 801.5,-6 688.5,-6"/>
<text text-anchor="start" x="696.5" y="-24" font-family="Helvetica,sans-Serif" font-size="10.00">include/instructions</text>
<text text-anchor="middle" x="745" y="-13" font-family="Helvetica,sans-Serif" font-size="10.00">/instruction_set/float.h</text>
</a>
</g>
</g>
<!-- Node1&#45;&gt;Node7 -->
<g id="edge6" class="edge"><title>Node1&#45;&gt;Node7</title>
<path fill="none" stroke="midnightblue" d="M902.727,-75.2046C867.093,-63.1843 820.193,-47.3642 786.82,-36.1069"/>
<polygon fill="midnightblue" stroke="midnightblue" points="901.864,-78.6073 912.458,-78.4872 904.102,-71.9744 901.864,-78.6073"/>
</g>
<!-- Node8 -->
<g id="node8" class="node"><title>Node8</title>
<g id="a_node8"><a xlink:href="../../d6/d3d/integer_8h.xhtml" target="_top" xlink:title=" ">
<polygon fill="none" stroke="black" points="820,-6 820,-36 944,-36 944,-6 820,-6"/>
<text text-anchor="start" x="828" y="-24" font-family="Helvetica,sans-Serif" font-size="10.00">include/instructions</text>
<text text-anchor="middle" x="882" y="-13" font-family="Helvetica,sans-Serif" font-size="10.00">/instruction_set/integer.h</text>
</a>
</g>
</g>
<!-- Node1&#45;&gt;Node8 -->
<g id="edge7" class="edge"><title>Node1&#45;&gt;Node8</title>
<path fill="none" stroke="midnightblue" d="M932.235,-71.188C920.679,-59.8729 906.791,-46.2741 896.549,-36.2455"/>
<polygon fill="midnightblue" stroke="midnightblue" points="929.836,-73.7378 939.43,-78.2333 934.733,-68.7362 929.836,-73.7378"/>
</g>
<!-- Node9 -->
<g id="node9" class="node"><title>Node9</title>
<g id="a_node9"><a xlink:href="../../de/d3b/invokes_8h.xhtml" target="_top" xlink:title=" ">
<polygon fill="none" stroke="black" points="962.5,-6 962.5,-36 1089.5,-36 1089.5,-6 962.5,-6"/>
<text text-anchor="start" x="970.5" y="-24" font-family="Helvetica,sans-Serif" font-size="10.00">include/instructions</text>
<text text-anchor="middle" x="1026" y="-13" font-family="Helvetica,sans-Serif" font-size="10.00">/instruction_set/invokes.h</text>
</a>
</g>
</g>
<!-- Node1&#45;&gt;Node9 -->
<g id="edge8" class="edge"><title>Node1&#45;&gt;Node9</title>
<path fill="none" stroke="midnightblue" d="M975.765,-71.188C987.321,-59.8729 1001.21,-46.2741 1011.45,-36.2455"/>
<polygon fill="midnightblue" stroke="midnightblue" points="973.267,-68.7362 968.57,-78.2333 978.164,-73.7378 973.267,-68.7362"/>
</g>
<!-- Node10 -->
<g id="node10" class="node"><title>Node10</title>
<g id="a_node10"><a xlink:href="../../dd/d28/jump_8h.xhtml" target="_top" xlink:title=" ">
<polygon fill="none" stroke="black" points="1108,-6 1108,-36 1224,-36 1224,-6 1108,-6"/>
<text text-anchor="start" x="1116" y="-24" font-family="Helvetica,sans-Serif" font-size="10.00">include/instructions</text>
<text text-anchor="middle" x="1166" y="-13" font-family="Helvetica,sans-Serif" font-size="10.00">/instruction_set/jump.h</text>
</a>
</g>
</g>
<!-- Node1&#45;&gt;Node10 -->
<g id="edge9" class="edge"><title>Node1&#45;&gt;Node10</title>
<path fill="none" stroke="midnightblue" d="M1006.01,-75.2046C1042.15,-63.1843 1089.73,-47.3642 1123.58,-36.1069"/>
<polygon fill="midnightblue" stroke="midnightblue" points="1004.52,-72.0104 996.138,-78.4872 1006.73,-78.6527 1004.52,-72.0104"/>
</g>
<!-- Node11 -->
<g id="node11" class="node"><title>Node11</title>
<g id="a_node11"><a xlink:href="../../dc/da6/long_8h.xhtml" target="_top" xlink:title=" ">
<polygon fill="none" stroke="black" points="1242.5,-6 1242.5,-36 1355.5,-36 1355.5,-6 1242.5,-6"/>
<text text-anchor="start" x="1250.5" y="-24" font-family="Helvetica,sans-Serif" font-size="10.00">include/instructions</text>
<text text-anchor="middle" x="1299" y="-13" font-family="Helvetica,sans-Serif" font-size="10.00">/instruction_set/long.h</text>
</a>
</g>
</g>
<!-- Node1&#45;&gt;Node11 -->
<g id="edge10" class="edge"><title>Node1&#45;&gt;Node11</title>
<path fill="none" stroke="midnightblue" d="M1022.05,-82.4293C1078.83,-73.4914 1161.68,-59.2013 1233,-42 1240.22,-40.2597 1247.81,-38.1892 1255.17,-36.0506"/>
<polygon fill="midnightblue" stroke="midnightblue" points="1021.46,-78.9798 1012.12,-83.9808 1022.54,-85.896 1021.46,-78.9798"/>
</g>
<!-- Node12 -->
<g id="node12" class="node"><title>Node12</title>
<g id="a_node12"><a xlink:href="../../d4/d08/misc_8h.xhtml" target="_top" xlink:title=" ">
<polygon fill="none" stroke="black" points="1374,-6 1374,-36 1490,-36 1490,-6 1374,-6"/>
<text text-anchor="start" x="1382" y="-24" font-family="Helvetica,sans-Serif" font-size="10.00">include/instructions</text>
<text text-anchor="middle" x="1432" y="-13" font-family="Helvetica,sans-Serif" font-size="10.00">/instruction_set/misc.h</text>
</a>
</g>
</g>
<!-- Node1&#45;&gt;Node12 -->
<g id="edge11" class="edge"><title>Node1&#45;&gt;Node12</title>
<path fill="none" stroke="midnightblue" d="M1022.21,-87.6437C1104.22,-80.9964 1245.73,-66.9456 1365,-42 1372.72,-40.3847 1380.84,-38.3003 1388.66,-36.0892"/>
<polygon fill="midnightblue" stroke="midnightblue" points="1021.71,-84.1723 1012.02,-88.4562 1022.26,-91.1502 1021.71,-84.1723"/>
</g>
<!-- Node13 -->
<g id="node13" class="node"><title>Node13</title>
<g id="a_node13"><a xlink:href="../../d5/d60/monitor_8h.xhtml" target="_top" xlink:title=" ">
<polygon fill="none" stroke="black" points="1508.5,-6 1508.5,-36 1635.5,-36 1635.5,-6 1508.5,-6"/>
<text text-anchor="start" x="1516.5" y="-24" font-family="Helvetica,sans-Serif" font-size="10.00">include/instructions</text>
<text text-anchor="middle" x="1572" y="-13" font-family="Helvetica,sans-Serif" font-size="10.00">/instruction_set/monitor.h</text>
</a>
</g>
</g>
<!-- Node1&#45;&gt;Node13 -->
<g id="edge12" class="edge"><title>Node1&#45;&gt;Node13</title>
<path fill="none" stroke="midnightblue" d="M1022.15,-90.0147C1125.84,-85.3734 1329.13,-72.8944 1499,-42 1507.66,-40.4246 1516.79,-38.3039 1525.55,-36.0312"/>
<polygon fill="midnightblue" stroke="midnightblue" points="1021.97,-86.5194 1012.13,-90.4527 1022.27,-93.5127 1021.97,-86.5194"/>
</g>
<!-- Node14 -->
<g id="node14" class="node"><title>Node14</title>
<g id="a_node14"><a xlink:href="../../d1/d70/reference_8h.xhtml" target="_top" xlink:title=" ">
<polygon fill="none" stroke="black" points="1654,-6 1654,-36 1788,-36 1788,-6 1654,-6"/>
<text text-anchor="start" x="1662" y="-24" font-family="Helvetica,sans-Serif" font-size="10.00">include/instructions</text>
<text text-anchor="middle" x="1721" y="-13" font-family="Helvetica,sans-Serif" font-size="10.00">/instruction_set/reference.h</text>
</a>
</g>
</g>
<!-- Node1&#45;&gt;Node14 -->
<g id="edge13" class="edge"><title>Node1&#45;&gt;Node14</title>
<path fill="none" stroke="midnightblue" d="M1022.37,-91.6678C1146.99,-89.2295 1419.1,-79.6483 1645,-42 1654.15,-40.4749 1663.8,-38.3488 1673.04,-36.0487"/>
<polygon fill="midnightblue" stroke="midnightblue" points="1022.15,-88.1712 1012.21,-91.8569 1022.28,-95.17 1022.15,-88.1712"/>
</g>
<!-- Node15 -->
<g id="node15" class="node"><title>Node15</title>
<g id="a_node15"><a xlink:href="../../de/d05/short_8h.xhtml" target="_top" xlink:title=" ">
<polygon fill="none" stroke="black" points="1806,-6 1806,-36 1922,-36 1922,-6 1806,-6"/>
<text text-anchor="start" x="1814" y="-24" font-family="Helvetica,sans-Serif" font-size="10.00">include/instructions</text>
<text text-anchor="middle" x="1864" y="-13" font-family="Helvetica,sans-Serif" font-size="10.00">/instruction_set/short.h</text>
</a>
</g>
</g>
<!-- Node1&#45;&gt;Node15 -->
<g id="edge14" class="edge"><title>Node1&#45;&gt;Node15</title>
<path fill="none" stroke="midnightblue" d="M1022.07,-90.4437C1195.12,-84.8922 1648.63,-68.2272 1797,-42 1805.25,-40.542 1813.92,-38.417 1822.18,-36.0905"/>
<polygon fill="midnightblue" stroke="midnightblue" points="1021.95,-86.9456 1012.07,-90.7622 1022.18,-93.9421 1021.95,-86.9456"/>
</g>
</g>
</svg>
        <g id="navigator" transform="translate(0 0)" fill="#404254">
                <rect fill="#f2f5e9" fill-opacity="0.5" stroke="#606060" stroke-width=".5" x="0" y="0" width="60" height="60"/>
                <use id="zoomplus" xlink:href="#zoomPlus" x="17" y="9" onmousedown="handleZoom(evt,'in')"/>
                <use id="zoomminus" xlink:href="#zoomMin" x="42" y="9" onmousedown="handleZoom(evt,'out')"/>
                <use id="reset" xlink:href="#resetDef" x="30" y="36" onmousedown="handleReset()"/>
                <g id="arrowUp" xlink:href="#dirArrow" transform="translate(30 24)" onmousedown="handlePan(0,-1)">
                  <use xlink:href="#rim" fill="#404040">
                        <set attributeName="fill" to="#808080" begin="arrowUp.mouseover" end="arrowUp.mouseout"/>
                  </use>
                  <path fill="none" stroke="white" stroke-width="1.5" d="M0,-3.0v7 M-2.5,-0.5L0,-3.0L2.5,-0.5"/>
                </g>
                <g id="arrowRight" xlink:href="#dirArrow" transform="rotate(90) translate(36 -43)" onmousedown="handlePan(1,0)">
                  <use xlink:href="#rim" fill="#404040">
                        <set attributeName="fill" to="#808080" begin="arrowRight.mouseover" end="arrowRight.mouseout"/>
                  </use>
                  <path fill="none" stroke="white" stroke-width="1.5" d="M0,-3.0v7 M-2.5,-0.5L0,-3.0L2.5,-0.5"/>
                </g>
                <g id="arrowDown" xlink:href="#dirArrow" transform="rotate(180) translate(-30 -48)" onmousedown="handlePan(0,1)">
                  <use xlink:href="#rim" fill="#404040">
                        <set attributeName="fill" to="#808080" begin="arrowDown.mouseover" end="arrowDown.mouseout"/>
                  </use>
                  <path fill="none" stroke="white" stroke-width="1.5" d="M0,-3.0v7 M-2.5,-0.5L0,-3.0L2.5,-0.5"/>
                </g>
                <g id="arrowLeft" xlink:href="#dirArrow" transform="rotate(270) translate(-36 17)" onmousedown="handlePan(-1,0)">
                  <use xlink:href="#rim" fill="#404040">
                        <set attributeName="fill" to="#808080" begin="arrowLeft.mouseover" end="arrowLeft.mouseout"/>
                  </use>
                  <path fill="none" stroke="white" stroke-width="1.5" d="M0,-3.0v7 M-2.5,-0.5L0,-3.0L2.5,-0.5"/>
                </g>
        </g>
        <svg viewBox="0 0 15 15" width="100%" height="30px" preserveAspectRatio="xMaxYMin meet">
         <g id="arrow_out" transform="scale(0.3 0.3)">
          <a xlink:href="base_8h__dep__incl_org.svg" target="_base">
           <rect id="button" ry="5" rx="5" y="6" x="6" height="38" width="38"
                fill="#f2f5e9" fill-opacity="0.5" stroke="#606060" stroke-width="1.0"/>
           <path id="arrow"
             d="M 11.500037,31.436501 C 11.940474,20.09759 22.043105,11.32322 32.158766,21.979434 L 37.068811,17.246167 C 37.068811,17.246167 37.088388,32 37.088388,32 L 22.160133,31.978069 C 22.160133,31.978069 26.997745,27.140456 26.997745,27.140456 C 18.528582,18.264221 13.291696,25.230495 11.500037,31.436501 z"
             style="fill:#404040;"/>
          </a>
         </g>
        </svg>
</svg>
