<?xml version="1.0" encoding="UTF-8" standalone="no"?>
<!DOCTYPE svg PUBLIC "-//W3C//DTD SVG 1.1//EN"
 "http://www.w3.org/Graphics/SVG/1.1/DTD/svg11.dtd">
<!-- Generated by graphviz version 2.38.0 (20140413.2041)
 -->
<!-- Title: Utils::ConstantPool::CONSTANT_MethodType_info Pages: 1 -->
<svg width="235pt" height="353pt"
 viewBox="0.00 0.00 235.00 353.00" xmlns="http://www.w3.org/2000/svg" xmlns:xlink="http://www.w3.org/1999/xlink">
<g id="graph0" class="graph" transform="scale(1 1) rotate(0) translate(4 349)">
<title>Utils::ConstantPool::CONSTANT_MethodType_info</title>
<!-- Node1 -->
<g id="node1" class="node"><title>Node1</title>
<g id="a_node1"><a xlink:title=" ">
<polygon fill="#bfbfbf" stroke="black" points="48,-0.5 48,-101.5 216,-101.5 216,-0.5 48,-0.5"/>
<text text-anchor="start" x="56" y="-89.5" font-family="Helvetica,sans-Serif" font-size="10.00">Utils::ConstantPool</text>
<text text-anchor="middle" x="132" y="-78.5" font-family="Helvetica,sans-Serif" font-size="10.00">::CONSTANT_MethodType_info</text>
<polyline fill="none" stroke="black" points="48,-71.5 216,-71.5 "/>
<text text-anchor="middle" x="132" y="-59.5" font-family="Helvetica,sans-Serif" font-size="10.00"> </text>
<polyline fill="none" stroke="black" points="48,-52.5 216,-52.5 "/>
<text text-anchor="start" x="56" y="-40.5" font-family="Helvetica,sans-Serif" font-size="10.00">+ CONSTANT_MethodType_info()</text>
<text text-anchor="start" x="56" y="-29.5" font-family="Helvetica,sans-Serif" font-size="10.00">+ ~CONSTANT_MethodType_info()</text>
<text text-anchor="start" x="56" y="-18.5" font-family="Helvetica,sans-Serif" font-size="10.00">+ getValue()</text>
<text text-anchor="start" x="56" y="-7.5" font-family="Helvetica,sans-Serif" font-size="10.00">+ getGeneralInfo()</text>
</a>
</g>
</g>
<!-- Node2 -->
<g id="node2" class="node"><title>Node2</title>
<g id="a_node2"><a xlink:href="../../d7/d7d/class_utils_1_1_constant_pool_1_1_base_constant_info.xhtml" target="_top" xlink:title=" ">
<polygon fill="none" stroke="black" points="0,-149.5 0,-239.5 114,-239.5 114,-149.5 0,-149.5"/>
<text text-anchor="start" x="8" y="-227.5" font-family="Helvetica,sans-Serif" font-size="10.00">Utils::ConstantPool</text>
<text text-anchor="middle" x="57" y="-216.5" font-family="Helvetica,sans-Serif" font-size="10.00">::BaseConstantInfo</text>
<polyline fill="none" stroke="black" points="0,-209.5 114,-209.5 "/>
<text text-anchor="middle" x="57" y="-197.5" font-family="Helvetica,sans-Serif" font-size="10.00"> </text>
<polyline fill="none" stroke="black" points="0,-190.5 114,-190.5 "/>
<text text-anchor="start" x="8" y="-178.5" font-family="Helvetica,sans-Serif" font-size="10.00">+ BaseConstantInfo()</text>
<text text-anchor="start" x="8" y="-167.5" font-family="Helvetica,sans-Serif" font-size="10.00">+ BaseConstantInfo()</text>
<text text-anchor="start" x="8" y="-156.5" font-family="Helvetica,sans-Serif" font-size="10.00">+ ~BaseConstantInfo()</text>
</a>
</g>
</g>
<!-- Node2&#45;&gt;Node1 -->
<g id="edge1" class="edge"><title>Node2&#45;&gt;Node1</title>
<path fill="none" stroke="midnightblue" d="M85.3064,-140.095C91.9923,-127.481 99.0937,-114.083 105.687,-101.644"/>
<polygon fill="none" stroke="midnightblue" points="82.1155,-138.642 80.5247,-149.117 88.3004,-141.92 82.1155,-138.642"/>
</g>
<!-- Node3 -->
<g id="node3" class="node"><title>Node3</title>
<g id="a_node3"><a xlink:title=" ">
<polygon fill="none" stroke="#bfbfbf" points="34,-287.5 34,-344.5 80,-344.5 80,-287.5 34,-287.5"/>
<text text-anchor="middle" x="57" y="-332.5" font-family="Helvetica,sans-Serif" font-size="10.00">uint8_t</text>
<polyline fill="none" stroke="#bfbfbf" points="34,-325.5 80,-325.5 "/>
<text text-anchor="middle" x="57" y="-313.5" font-family="Helvetica,sans-Serif" font-size="10.00"> </text>
<polyline fill="none" stroke="#bfbfbf" points="34,-306.5 80,-306.5 "/>
<text text-anchor="middle" x="57" y="-294.5" font-family="Helvetica,sans-Serif" font-size="10.00"> </text>
</a>
</g>
</g>
<!-- Node3&#45;&gt;Node2 -->
<g id="edge2" class="edge"><title>Node3&#45;&gt;Node2</title>
<path fill="none" stroke="#404040" d="M57,-287.284C57,-276.735 57,-264.294 57,-252.035"/>
<polygon fill="none" stroke="#404040" points="57.0001,-251.912 53,-245.912 57,-239.912 61,-245.912 57.0001,-251.912"/>
<text text-anchor="middle" x="68.5" y="-261" font-family="Helvetica,sans-Serif" font-size="10.00"> +tag</text>
</g>
<!-- Node4 -->
<g id="node4" class="node"><title>Node4</title>
<g id="a_node4"><a xlink:title=" ">
<polygon fill="none" stroke="#bfbfbf" points="132.5,-166 132.5,-223 183.5,-223 183.5,-166 132.5,-166"/>
<text text-anchor="middle" x="158" y="-211" font-family="Helvetica,sans-Serif" font-size="10.00">uint16_t</text>
<polyline fill="none" stroke="#bfbfbf" points="132.5,-204 183.5,-204 "/>
<text text-anchor="middle" x="158" y="-192" font-family="Helvetica,sans-Serif" font-size="10.00"> </text>
<polyline fill="none" stroke="#bfbfbf" points="132.5,-185 183.5,-185 "/>
<text text-anchor="middle" x="158" y="-173" font-family="Helvetica,sans-Serif" font-size="10.00"> </text>
</a>
</g>
</g>
<!-- Node4&#45;&gt;Node1 -->
<g id="edge3" class="edge"><title>Node4&#45;&gt;Node1</title>
<path fill="none" stroke="#404040" d="M152.925,-165.881C150.173,-150.905 146.655,-131.759 143.292,-113.457"/>
<polygon fill="none" stroke="#404040" points="143.283,-113.406 138.265,-108.228 141.115,-101.604 146.133,-106.782 143.283,-113.406"/>
<text text-anchor="middle" x="186.5" y="-123" font-family="Helvetica,sans-Serif" font-size="10.00"> +descriptor_index</text>
</g>
</g>
</svg>
