<?xml version="1.0" encoding="UTF-8" standalone="no"?>
<!DOCTYPE svg PUBLIC "-//W3C//DTD SVG 1.1//EN"
 "http://www.w3.org/Graphics/SVG/1.1/DTD/svg11.dtd">
<!-- Generated by graphviz version 2.38.0 (20140413.2041)
 -->
<!-- Title: include/utils/array_t.h Pages: 1 -->
<svg width="412pt" height="196pt"
 viewBox="0.00 0.00 411.50 196.00" xmlns="http://www.w3.org/2000/svg" xmlns:xlink="http://www.w3.org/1999/xlink">
<g id="graph0" class="graph" transform="scale(1 1) rotate(0) translate(4 192)">
<title>include/utils/array_t.h</title>
<!-- Node1 -->
<g id="node1" class="node"><title>Node1</title>
<g id="a_node1"><a xlink:title=" ">
<polygon fill="#bfbfbf" stroke="black" points="72.5,-168.5 72.5,-187.5 182.5,-187.5 182.5,-168.5 72.5,-168.5"/>
<text text-anchor="middle" x="127.5" y="-175.5" font-family="Helvetica,sans-Serif" font-size="10.00">include/utils/array_t.h</text>
</a>
</g>
</g>
<!-- Node2 -->
<g id="node2" class="node"><title>Node2</title>
<g id="a_node2"><a xlink:title=" ">
<polygon fill="none" stroke="#bfbfbf" points="3,-112.5 3,-131.5 44,-131.5 44,-112.5 3,-112.5"/>
<text text-anchor="middle" x="23.5" y="-119.5" font-family="Helvetica,sans-Serif" font-size="10.00">stack</text>
</a>
</g>
</g>
<!-- Node1&#45;&gt;Node2 -->
<g id="edge1" class="edge"><title>Node1&#45;&gt;Node2</title>
<path fill="none" stroke="midnightblue" d="M110.791,-168.324C94.1881,-159.703 68.4979,-146.364 49.2795,-136.386"/>
<polygon fill="midnightblue" stroke="midnightblue" points="50.6558,-133.156 40.1679,-131.655 47.43,-139.369 50.6558,-133.156"/>
</g>
<!-- Node3 -->
<g id="node3" class="node"><title>Node3</title>
<g id="a_node3"><a xlink:title=" ">
<polygon fill="none" stroke="#bfbfbf" points="62.5,-112.5 62.5,-131.5 104.5,-131.5 104.5,-112.5 62.5,-112.5"/>
<text text-anchor="middle" x="83.5" y="-119.5" font-family="Helvetica,sans-Serif" font-size="10.00">vector</text>
</a>
</g>
</g>
<!-- Node1&#45;&gt;Node3 -->
<g id="edge2" class="edge"><title>Node1&#45;&gt;Node3</title>
<path fill="none" stroke="midnightblue" d="M120.234,-168.083C113.955,-160.377 104.712,-149.033 97.0692,-139.653"/>
<polygon fill="midnightblue" stroke="midnightblue" points="99.6606,-137.293 90.6305,-131.751 94.2339,-141.714 99.6606,-137.293"/>
</g>
<!-- Node4 -->
<g id="node4" class="node"><title>Node4</title>
<g id="a_node4"><a xlink:href="../../df/d8d/any_8h.xhtml" target="_top" xlink:title=" ">
<polygon fill="none" stroke="black" points="123,-112.5 123,-131.5 222,-131.5 222,-112.5 123,-112.5"/>
<text text-anchor="middle" x="172.5" y="-119.5" font-family="Helvetica,sans-Serif" font-size="10.00">utils/external/any.h</text>
</a>
</g>
</g>
<!-- Node1&#45;&gt;Node4 -->
<g id="edge3" class="edge"><title>Node1&#45;&gt;Node4</title>
<path fill="none" stroke="midnightblue" d="M134.931,-168.083C141.353,-160.377 150.806,-149.033 158.622,-139.653"/>
<polygon fill="midnightblue" stroke="midnightblue" points="161.494,-141.674 165.207,-131.751 156.117,-137.193 161.494,-141.674"/>
</g>
<!-- Node10 -->
<g id="node10" class="node"><title>Node10</title>
<g id="a_node10"><a xlink:href="../../d3/d47/reference__kind_8h.xhtml" target="_top" xlink:title=" ">
<polygon fill="none" stroke="black" points="240,-112.5 240,-131.5 349,-131.5 349,-112.5 240,-112.5"/>
<text text-anchor="middle" x="294.5" y="-119.5" font-family="Helvetica,sans-Serif" font-size="10.00">utils/reference_kind.h</text>
</a>
</g>
</g>
<!-- Node1&#45;&gt;Node10 -->
<g id="edge9" class="edge"><title>Node1&#45;&gt;Node10</title>
<path fill="none" stroke="midnightblue" d="M153.962,-168.444C182.178,-159.32 227.04,-144.813 258.468,-134.651"/>
<polygon fill="midnightblue" stroke="midnightblue" points="259.724,-137.923 268.162,-131.516 257.57,-131.263 259.724,-137.923"/>
</g>
<!-- Node5 -->
<g id="node5" class="node"><title>Node5</title>
<g id="a_node5"><a xlink:title=" ">
<polygon fill="none" stroke="#bfbfbf" points="0,-56.5 0,-75.5 49,-75.5 49,-56.5 0,-56.5"/>
<text text-anchor="middle" x="24.5" y="-63.5" font-family="Helvetica,sans-Serif" font-size="10.00">cassert</text>
</a>
</g>
</g>
<!-- Node4&#45;&gt;Node5 -->
<g id="edge4" class="edge"><title>Node4&#45;&gt;Node5</title>
<path fill="none" stroke="midnightblue" d="M149.049,-112.444C124.367,-103.438 85.3147,-89.1891 57.5233,-79.049"/>
<polygon fill="midnightblue" stroke="midnightblue" points="58.4352,-75.6561 47.8413,-75.5164 56.0359,-82.2321 58.4352,-75.6561"/>
</g>
<!-- Node6 -->
<g id="node6" class="node"><title>Node6</title>
<g id="a_node6"><a xlink:title=" ">
<polygon fill="none" stroke="#bfbfbf" points="274,-56.5 274,-75.5 315,-75.5 315,-56.5 274,-56.5"/>
<text text-anchor="middle" x="294.5" y="-63.5" font-family="Helvetica,sans-Serif" font-size="10.00">string</text>
</a>
</g>
</g>
<!-- Node4&#45;&gt;Node6 -->
<g id="edge5" class="edge"><title>Node4&#45;&gt;Node6</title>
<path fill="none" stroke="midnightblue" d="M191.831,-112.444C211.82,-103.596 243.243,-89.6875 266.064,-79.5865"/>
<polygon fill="midnightblue" stroke="midnightblue" points="267.532,-82.7645 275.259,-75.5164 264.698,-76.3635 267.532,-82.7645"/>
</g>
<!-- Node7 -->
<g id="node7" class="node"><title>Node7</title>
<g id="a_node7"><a xlink:title=" ">
<polygon fill="none" stroke="#bfbfbf" points="67.5,-56.5 67.5,-75.5 129.5,-75.5 129.5,-56.5 67.5,-56.5"/>
<text text-anchor="middle" x="98.5" y="-63.5" font-family="Helvetica,sans-Serif" font-size="10.00">type_traits</text>
</a>
</g>
</g>
<!-- Node4&#45;&gt;Node7 -->
<g id="edge6" class="edge"><title>Node4&#45;&gt;Node7</title>
<path fill="none" stroke="midnightblue" d="M160.611,-112.324C149.35,-104.107 132.213,-91.6017 118.791,-81.8069"/>
<polygon fill="midnightblue" stroke="midnightblue" points="120.747,-78.9014 110.606,-75.8339 116.62,-84.5559 120.747,-78.9014"/>
</g>
<!-- Node8 -->
<g id="node8" class="node"><title>Node8</title>
<g id="a_node8"><a xlink:title=" ">
<polygon fill="none" stroke="#bfbfbf" points="147.5,-56.5 147.5,-75.5 197.5,-75.5 197.5,-56.5 147.5,-56.5"/>
<text text-anchor="middle" x="172.5" y="-63.5" font-family="Helvetica,sans-Serif" font-size="10.00">typeinfo</text>
</a>
</g>
</g>
<!-- Node4&#45;&gt;Node8 -->
<g id="edge7" class="edge"><title>Node4&#45;&gt;Node8</title>
<path fill="none" stroke="midnightblue" d="M172.5,-112.083C172.5,-105.006 172.5,-94.8611 172.5,-85.9865"/>
<polygon fill="midnightblue" stroke="midnightblue" points="176,-85.751 172.5,-75.7511 169,-85.7511 176,-85.751"/>
</g>
<!-- Node9 -->
<g id="node9" class="node"><title>Node9</title>
<g id="a_node9"><a xlink:title=" ">
<polygon fill="none" stroke="#bfbfbf" points="215.5,-56.5 215.5,-75.5 255.5,-75.5 255.5,-56.5 215.5,-56.5"/>
<text text-anchor="middle" x="235.5" y="-63.5" font-family="Helvetica,sans-Serif" font-size="10.00">utility</text>
</a>
</g>
</g>
<!-- Node4&#45;&gt;Node9 -->
<g id="edge8" class="edge"><title>Node4&#45;&gt;Node9</title>
<path fill="none" stroke="midnightblue" d="M182.622,-112.324C192.026,-104.263 206.244,-92.0765 217.569,-82.3695"/>
<polygon fill="midnightblue" stroke="midnightblue" points="219.879,-84.9993 225.194,-75.8339 215.323,-79.6844 219.879,-84.9993"/>
</g>
<!-- Node10&#45;&gt;Node6 -->
<g id="edge10" class="edge"><title>Node10&#45;&gt;Node6</title>
<path fill="none" stroke="midnightblue" d="M294.5,-112.083C294.5,-105.006 294.5,-94.8611 294.5,-85.9865"/>
<polygon fill="midnightblue" stroke="midnightblue" points="298,-85.751 294.5,-75.7511 291,-85.7511 298,-85.751"/>
</g>
<!-- Node11 -->
<g id="node11" class="node"><title>Node11</title>
<g id="a_node11"><a xlink:href="../../d9/d49/types_8h.xhtml" target="_top" xlink:title=" ">
<polygon fill="none" stroke="black" points="333.5,-56.5 333.5,-75.5 403.5,-75.5 403.5,-56.5 333.5,-56.5"/>
<text text-anchor="middle" x="368.5" y="-63.5" font-family="Helvetica,sans-Serif" font-size="10.00">utils/types.h</text>
</a>
</g>
</g>
<!-- Node10&#45;&gt;Node11 -->
<g id="edge11" class="edge"><title>Node10&#45;&gt;Node11</title>
<path fill="none" stroke="midnightblue" d="M306.389,-112.324C317.65,-104.107 334.787,-91.6017 348.209,-81.8069"/>
<polygon fill="midnightblue" stroke="midnightblue" points="350.38,-84.5559 356.394,-75.8339 346.253,-78.9014 350.38,-84.5559"/>
</g>
<!-- Node12 -->
<g id="node12" class="node"><title>Node12</title>
<g id="a_node12"><a xlink:title=" ">
<polygon fill="none" stroke="#bfbfbf" points="345.5,-0.5 345.5,-19.5 391.5,-19.5 391.5,-0.5 345.5,-0.5"/>
<text text-anchor="middle" x="368.5" y="-7.5" font-family="Helvetica,sans-Serif" font-size="10.00">cstdint</text>
</a>
</g>
</g>
<!-- Node11&#45;&gt;Node12 -->
<g id="edge12" class="edge"><title>Node11&#45;&gt;Node12</title>
<path fill="none" stroke="midnightblue" d="M368.5,-56.083C368.5,-49.0059 368.5,-38.8611 368.5,-29.9865"/>
<polygon fill="midnightblue" stroke="midnightblue" points="372,-29.751 368.5,-19.7511 365,-29.7511 372,-29.751"/>
</g>
</g>
</svg>
