<?xml version="1.0" encoding="UTF-8" standalone="no"?>
<!DOCTYPE svg PUBLIC "-//W3C//DTD SVG 1.1//EN"
 "http://www.w3.org/Graphics/SVG/1.1/DTD/svg11.dtd">
<!-- Generated by graphviz version 2.38.0 (20140413.2041)
 -->
<!-- Title: Utils::ConstantPool::CONSTANT_MethodHandle_info Pages: 1 -->
<svg width="289pt" height="353pt"
 viewBox="0.00 0.00 289.21 353.00" xmlns="http://www.w3.org/2000/svg" xmlns:xlink="http://www.w3.org/1999/xlink">
<g id="graph0" class="graph" transform="scale(1 1) rotate(0) translate(4 349)">
<title>Utils::ConstantPool::CONSTANT_MethodHandle_info</title>
<!-- Node1 -->
<g id="node1" class="node"><title>Node1</title>
<g id="a_node1"><a xlink:title=" ">
<polygon fill="#bfbfbf" stroke="black" points="60.7071,-0.5 60.7071,-101.5 237.707,-101.5 237.707,-0.5 60.7071,-0.5"/>
<text text-anchor="start" x="68.7071" y="-89.5" font-family="Helvetica,sans-Serif" font-size="10.00">Utils::ConstantPool</text>
<text text-anchor="middle" x="149.207" y="-78.5" font-family="Helvetica,sans-Serif" font-size="10.00">::CONSTANT_MethodHandle_info</text>
<polyline fill="none" stroke="black" points="60.7071,-71.5 237.707,-71.5 "/>
<text text-anchor="middle" x="149.207" y="-59.5" font-family="Helvetica,sans-Serif" font-size="10.00"> </text>
<polyline fill="none" stroke="black" points="60.7071,-52.5 237.707,-52.5 "/>
<text text-anchor="start" x="68.7071" y="-40.5" font-family="Helvetica,sans-Serif" font-size="10.00">+ CONSTANT_MethodHandle_info()</text>
<text text-anchor="start" x="68.7071" y="-29.5" font-family="Helvetica,sans-Serif" font-size="10.00">+ ~CONSTANT_MethodHandle_info()</text>
<text text-anchor="start" x="68.7071" y="-18.5" font-family="Helvetica,sans-Serif" font-size="10.00">+ getValue()</text>
<text text-anchor="start" x="68.7071" y="-7.5" font-family="Helvetica,sans-Serif" font-size="10.00">+ getGeneralInfo()</text>
</a>
</g>
</g>
<!-- Node2 -->
<g id="node2" class="node"><title>Node2</title>
<g id="a_node2"><a xlink:href="../../d7/d7d/class_utils_1_1_constant_pool_1_1_base_constant_info.xhtml" target="_top" xlink:title=" ">
<polygon fill="none" stroke="black" points="92.2071,-149.5 92.2071,-239.5 206.207,-239.5 206.207,-149.5 92.2071,-149.5"/>
<text text-anchor="start" x="100.207" y="-227.5" font-family="Helvetica,sans-Serif" font-size="10.00">Utils::ConstantPool</text>
<text text-anchor="middle" x="149.207" y="-216.5" font-family="Helvetica,sans-Serif" font-size="10.00">::BaseConstantInfo</text>
<polyline fill="none" stroke="black" points="92.2071,-209.5 206.207,-209.5 "/>
<text text-anchor="middle" x="149.207" y="-197.5" font-family="Helvetica,sans-Serif" font-size="10.00"> </text>
<polyline fill="none" stroke="black" points="92.2071,-190.5 206.207,-190.5 "/>
<text text-anchor="start" x="100.207" y="-178.5" font-family="Helvetica,sans-Serif" font-size="10.00">+ BaseConstantInfo()</text>
<text text-anchor="start" x="100.207" y="-167.5" font-family="Helvetica,sans-Serif" font-size="10.00">+ BaseConstantInfo()</text>
<text text-anchor="start" x="100.207" y="-156.5" font-family="Helvetica,sans-Serif" font-size="10.00">+ ~BaseConstantInfo()</text>
</a>
</g>
</g>
<!-- Node2&#45;&gt;Node1 -->
<g id="edge1" class="edge"><title>Node2&#45;&gt;Node1</title>
<path fill="none" stroke="midnightblue" d="M149.207,-138.991C149.207,-126.702 149.207,-113.721 149.207,-101.644"/>
<polygon fill="none" stroke="midnightblue" points="145.707,-139.117 149.207,-149.117 152.707,-139.117 145.707,-139.117"/>
</g>
<!-- Node3 -->
<g id="node3" class="node"><title>Node3</title>
<g id="a_node3"><a xlink:title=" ">
<polygon fill="none" stroke="#bfbfbf" points="23.2071,-287.5 23.2071,-344.5 69.2071,-344.5 69.2071,-287.5 23.2071,-287.5"/>
<text text-anchor="middle" x="46.2071" y="-332.5" font-family="Helvetica,sans-Serif" font-size="10.00">uint8_t</text>
<polyline fill="none" stroke="#bfbfbf" points="23.2071,-325.5 69.2071,-325.5 "/>
<text text-anchor="middle" x="46.2071" y="-313.5" font-family="Helvetica,sans-Serif" font-size="10.00"> </text>
<polyline fill="none" stroke="#bfbfbf" points="23.2071,-306.5 69.2071,-306.5 "/>
<text text-anchor="middle" x="46.2071" y="-294.5" font-family="Helvetica,sans-Serif" font-size="10.00"> </text>
</a>
</g>
</g>
<!-- Node3&#45;&gt;Node1 -->
<g id="edge4" class="edge"><title>Node3&#45;&gt;Node1</title>
<path fill="none" stroke="#404040" d="M29.3851,-287.338C10.9239,-253.102 -13.1811,-193.841 10.2071,-149 19.706,-130.788 34.3587,-115.296 50.6485,-102.395"/>
<polygon fill="none" stroke="#404040" points="50.7939,-102.286 53.2018,-95.489 60.4023,-95.0974 57.9944,-101.895 50.7939,-102.286"/>
<text text-anchor="middle" x="46.7071" y="-192" font-family="Helvetica,sans-Serif" font-size="10.00"> +reference_kind</text>
</g>
<!-- Node3&#45;&gt;Node2 -->
<g id="edge2" class="edge"><title>Node3&#45;&gt;Node2</title>
<path fill="none" stroke="#404040" d="M69.3223,-288.182C79.3461,-276.552 91.4562,-262.502 103.183,-248.897"/>
<polygon fill="none" stroke="#404040" points="103.376,-248.673 104.263,-241.517 111.21,-239.584 110.323,-246.74 103.376,-248.673"/>
<text text-anchor="middle" x="106.707" y="-261" font-family="Helvetica,sans-Serif" font-size="10.00"> +tag</text>
</g>
<!-- Node4 -->
<g id="node4" class="node"><title>Node4</title>
<g id="a_node4"><a xlink:title=" ">
<polygon fill="none" stroke="#bfbfbf" points="224.707,-166 224.707,-223 275.707,-223 275.707,-166 224.707,-166"/>
<text text-anchor="middle" x="250.207" y="-211" font-family="Helvetica,sans-Serif" font-size="10.00">uint16_t</text>
<polyline fill="none" stroke="#bfbfbf" points="224.707,-204 275.707,-204 "/>
<text text-anchor="middle" x="250.207" y="-192" font-family="Helvetica,sans-Serif" font-size="10.00"> </text>
<polyline fill="none" stroke="#bfbfbf" points="224.707,-185 275.707,-185 "/>
<text text-anchor="middle" x="250.207" y="-173" font-family="Helvetica,sans-Serif" font-size="10.00"> </text>
</a>
</g>
</g>
<!-- Node4&#45;&gt;Node1 -->
<g id="edge3" class="edge"><title>Node4&#45;&gt;Node1</title>
<path fill="none" stroke="#404040" d="M230.494,-165.881C219.447,-150.406 205.223,-130.478 191.77,-111.63"/>
<polygon fill="none" stroke="#404040" points="191.585,-111.371 184.844,-108.811 184.614,-101.604 191.355,-104.164 191.585,-111.371"/>
<text text-anchor="middle" x="242.207" y="-123" font-family="Helvetica,sans-Serif" font-size="10.00"> +reference_index</text>
</g>
</g>
</svg>
