<?xml version="1.0" encoding="UTF-8" standalone="no"?>
<!DOCTYPE svg PUBLIC "-//W3C//DTD SVG 1.1//EN"
 "http://www.w3.org/Graphics/SVG/1.1/DTD/svg11.dtd">
<!-- Generated by graphviz version 2.38.0 (20140413.2041)
 -->
<!-- Title: Instructions::Long::BaseLong Pages: 1 -->
<svg width="3474pt" height="353pt"
 viewBox="0.00 0.00 3474.00 353.00" xmlns="http://www.w3.org/2000/svg" xmlns:xlink="http://www.w3.org/1999/xlink">
<g id="graph0" class="graph" transform="scale(1 1) rotate(0) translate(4 349)">
<title>Instructions::Long::BaseLong</title>
<!-- Node1 -->
<g id="node1" class="node"><title>Node1</title>
<g id="a_node1"><a xlink:title=" ">
<polygon fill="#bfbfbf" stroke="black" points="1701.5,-116.5 1701.5,-206.5 1805.5,-206.5 1805.5,-116.5 1701.5,-116.5"/>
<text text-anchor="start" x="1709.5" y="-194.5" font-family="Helvetica,sans-Serif" font-size="10.00">Instructions::Long</text>
<text text-anchor="middle" x="1753.5" y="-183.5" font-family="Helvetica,sans-Serif" font-size="10.00">::BaseLong</text>
<polyline fill="none" stroke="black" points="1701.5,-176.5 1805.5,-176.5 "/>
<text text-anchor="middle" x="1753.5" y="-164.5" font-family="Helvetica,sans-Serif" font-size="10.00"> </text>
<polyline fill="none" stroke="black" points="1701.5,-157.5 1805.5,-157.5 "/>
<text text-anchor="start" x="1709.5" y="-145.5" font-family="Helvetica,sans-Serif" font-size="10.00">+ BaseLong()</text>
<text text-anchor="start" x="1709.5" y="-134.5" font-family="Helvetica,sans-Serif" font-size="10.00">+ toBytecode()</text>
<text text-anchor="start" x="1709.5" y="-123.5" font-family="Helvetica,sans-Serif" font-size="10.00">+ toBytecode_json()</text>
</a>
</g>
</g>
<!-- Node3 -->
<g id="node3" class="node"><title>Node3</title>
<g id="a_node3"><a xlink:href="../../df/df0/class_instructions_1_1_long_1_1_add.xhtml" target="_top" xlink:title=" ">
<polygon fill="none" stroke="black" points="0,-6 0,-74 117,-74 117,-6 0,-6"/>
<text text-anchor="middle" x="58.5" y="-62" font-family="Helvetica,sans-Serif" font-size="10.00">Instructions::Long::Add</text>
<polyline fill="none" stroke="black" points="0,-55 117,-55 "/>
<text text-anchor="middle" x="58.5" y="-43" font-family="Helvetica,sans-Serif" font-size="10.00"> </text>
<polyline fill="none" stroke="black" points="0,-36 117,-36 "/>
<text text-anchor="start" x="8" y="-24" font-family="Helvetica,sans-Serif" font-size="10.00">+ Add()</text>
<text text-anchor="start" x="8" y="-13" font-family="Helvetica,sans-Serif" font-size="10.00">+ execute()</text>
</a>
</g>
</g>
<!-- Node1&#45;&gt;Node3 -->
<g id="edge2" class="edge"><title>Node1&#45;&gt;Node3</title>
<path fill="none" stroke="midnightblue" d="M1691.11,-159.163C1411.12,-152.926 277.512,-125.077 125.5,-80 120.339,-78.4694 115.154,-76.465 110.08,-74.1722"/>
<polygon fill="none" stroke="midnightblue" points="1691.41,-162.67 1701.49,-159.393 1691.57,-155.672 1691.41,-162.67"/>
</g>
<!-- Node4 -->
<g id="node4" class="node"><title>Node4</title>
<g id="a_node4"><a xlink:href="../../d0/de9/class_instructions_1_1_long_1_1_and.xhtml" target="_top" xlink:title=" ">
<polygon fill="none" stroke="black" points="135,-6 135,-74 252,-74 252,-6 135,-6"/>
<text text-anchor="middle" x="193.5" y="-62" font-family="Helvetica,sans-Serif" font-size="10.00">Instructions::Long::And</text>
<polyline fill="none" stroke="black" points="135,-55 252,-55 "/>
<text text-anchor="middle" x="193.5" y="-43" font-family="Helvetica,sans-Serif" font-size="10.00"> </text>
<polyline fill="none" stroke="black" points="135,-36 252,-36 "/>
<text text-anchor="start" x="143" y="-24" font-family="Helvetica,sans-Serif" font-size="10.00">+ And()</text>
<text text-anchor="start" x="143" y="-13" font-family="Helvetica,sans-Serif" font-size="10.00">+ execute()</text>
</a>
</g>
</g>
<!-- Node1&#45;&gt;Node4 -->
<g id="edge3" class="edge"><title>Node1&#45;&gt;Node4</title>
<path fill="none" stroke="midnightblue" d="M1691.07,-160.961C1444.12,-162.199 535.718,-161.029 261.5,-80 256.279,-78.4574 251.03,-76.4446 245.888,-74.1464"/>
<polygon fill="none" stroke="midnightblue" points="1691.31,-164.46 1701.3,-160.907 1691.28,-157.46 1691.31,-164.46"/>
</g>
<!-- Node5 -->
<g id="node5" class="node"><title>Node5</title>
<g id="a_node5"><a xlink:href="../../d7/de5/class_instructions_1_1_long_1_1_arithmetic_shift_right.xhtml" target="_top" xlink:title=" ">
<polygon fill="none" stroke="black" points="270.5,-0.5 270.5,-79.5 388.5,-79.5 388.5,-0.5 270.5,-0.5"/>
<text text-anchor="start" x="278.5" y="-67.5" font-family="Helvetica,sans-Serif" font-size="10.00">Instructions::Long</text>
<text text-anchor="middle" x="329.5" y="-56.5" font-family="Helvetica,sans-Serif" font-size="10.00">::ArithmeticShiftRight</text>
<polyline fill="none" stroke="black" points="270.5,-49.5 388.5,-49.5 "/>
<text text-anchor="middle" x="329.5" y="-37.5" font-family="Helvetica,sans-Serif" font-size="10.00"> </text>
<polyline fill="none" stroke="black" points="270.5,-30.5 388.5,-30.5 "/>
<text text-anchor="start" x="278.5" y="-18.5" font-family="Helvetica,sans-Serif" font-size="10.00">+ ArithmeticShiftRight()</text>
<text text-anchor="start" x="278.5" y="-7.5" font-family="Helvetica,sans-Serif" font-size="10.00">+ execute()</text>
</a>
</g>
</g>
<!-- Node1&#45;&gt;Node5 -->
<g id="edge4" class="edge"><title>Node1&#45;&gt;Node5</title>
<path fill="none" stroke="midnightblue" d="M1691.07,-160.568C1458.7,-160.237 644.544,-153.724 397.5,-80 394.631,-79.1438 391.753,-78.1467 388.888,-77.0394"/>
<polygon fill="none" stroke="midnightblue" points="1691.37,-164.068 1701.37,-160.579 1691.37,-157.068 1691.37,-164.068"/>
</g>
<!-- Node6 -->
<g id="node6" class="node"><title>Node6</title>
<g id="a_node6"><a xlink:href="../../d7/dbf/class_instructions_1_1_long_1_1_compare.xhtml" target="_top" xlink:title=" ">
<polygon fill="none" stroke="black" points="406.5,-0.5 406.5,-79.5 500.5,-79.5 500.5,-0.5 406.5,-0.5"/>
<text text-anchor="start" x="414.5" y="-67.5" font-family="Helvetica,sans-Serif" font-size="10.00">Instructions::Long</text>
<text text-anchor="middle" x="453.5" y="-56.5" font-family="Helvetica,sans-Serif" font-size="10.00">::Compare</text>
<polyline fill="none" stroke="black" points="406.5,-49.5 500.5,-49.5 "/>
<text text-anchor="middle" x="453.5" y="-37.5" font-family="Helvetica,sans-Serif" font-size="10.00"> </text>
<polyline fill="none" stroke="black" points="406.5,-30.5 500.5,-30.5 "/>
<text text-anchor="start" x="414.5" y="-18.5" font-family="Helvetica,sans-Serif" font-size="10.00">+ Compare()</text>
<text text-anchor="start" x="414.5" y="-7.5" font-family="Helvetica,sans-Serif" font-size="10.00">+ execute()</text>
</a>
</g>
</g>
<!-- Node1&#45;&gt;Node6 -->
<g id="edge5" class="edge"><title>Node1&#45;&gt;Node6</title>
<path fill="none" stroke="midnightblue" d="M1691.28,-160.862C1471.25,-161.465 731.208,-157.548 509.5,-80 506.481,-78.9439 503.475,-77.6767 500.514,-76.2547"/>
<polygon fill="none" stroke="midnightblue" points="1691.37,-164.362 1701.36,-160.83 1691.35,-157.362 1691.37,-164.362"/>
</g>
<!-- Node7 -->
<g id="node7" class="node"><title>Node7</title>
<g id="a_node7"><a xlink:href="../../de/d7d/class_instructions_1_1_long_1_1_const__0.xhtml" target="_top" xlink:title=" ">
<polygon fill="none" stroke="black" points="518.5,-0.5 518.5,-79.5 612.5,-79.5 612.5,-0.5 518.5,-0.5"/>
<text text-anchor="start" x="526.5" y="-67.5" font-family="Helvetica,sans-Serif" font-size="10.00">Instructions::Long</text>
<text text-anchor="middle" x="565.5" y="-56.5" font-family="Helvetica,sans-Serif" font-size="10.00">::Const_0</text>
<polyline fill="none" stroke="black" points="518.5,-49.5 612.5,-49.5 "/>
<text text-anchor="middle" x="565.5" y="-37.5" font-family="Helvetica,sans-Serif" font-size="10.00"> </text>
<polyline fill="none" stroke="black" points="518.5,-30.5 612.5,-30.5 "/>
<text text-anchor="start" x="526.5" y="-18.5" font-family="Helvetica,sans-Serif" font-size="10.00">+ Const_0()</text>
<text text-anchor="start" x="526.5" y="-7.5" font-family="Helvetica,sans-Serif" font-size="10.00">+ execute()</text>
</a>
</g>
</g>
<!-- Node1&#45;&gt;Node7 -->
<g id="edge6" class="edge"><title>Node1&#45;&gt;Node7</title>
<path fill="none" stroke="midnightblue" d="M1691.4,-160.399C1484.64,-159.392 821.31,-150.604 621.5,-80 618.484,-78.9343 615.481,-77.6595 612.522,-76.2316"/>
<polygon fill="none" stroke="midnightblue" points="1691.46,-163.899 1701.48,-160.443 1691.49,-156.899 1691.46,-163.899"/>
</g>
<!-- Node8 -->
<g id="node8" class="node"><title>Node8</title>
<g id="a_node8"><a xlink:href="../../d1/dca/class_instructions_1_1_long_1_1_const__1.xhtml" target="_top" xlink:title=" ">
<polygon fill="none" stroke="black" points="630.5,-0.5 630.5,-79.5 724.5,-79.5 724.5,-0.5 630.5,-0.5"/>
<text text-anchor="start" x="638.5" y="-67.5" font-family="Helvetica,sans-Serif" font-size="10.00">Instructions::Long</text>
<text text-anchor="middle" x="677.5" y="-56.5" font-family="Helvetica,sans-Serif" font-size="10.00">::Const_1</text>
<polyline fill="none" stroke="black" points="630.5,-49.5 724.5,-49.5 "/>
<text text-anchor="middle" x="677.5" y="-37.5" font-family="Helvetica,sans-Serif" font-size="10.00"> </text>
<polyline fill="none" stroke="black" points="630.5,-30.5 724.5,-30.5 "/>
<text text-anchor="start" x="638.5" y="-18.5" font-family="Helvetica,sans-Serif" font-size="10.00">+ Const_1()</text>
<text text-anchor="start" x="638.5" y="-7.5" font-family="Helvetica,sans-Serif" font-size="10.00">+ execute()</text>
</a>
</g>
</g>
<!-- Node1&#45;&gt;Node8 -->
<g id="edge7" class="edge"><title>Node1&#45;&gt;Node8</title>
<path fill="none" stroke="midnightblue" d="M1691.13,-159.832C1497.87,-157.098 911.385,-143.634 733.5,-80 730.488,-78.9225 727.489,-77.6386 724.532,-76.2036"/>
<polygon fill="none" stroke="midnightblue" points="1691.34,-163.335 1701.39,-159.972 1691.44,-156.336 1691.34,-163.335"/>
</g>
<!-- Node9 -->
<g id="node9" class="node"><title>Node9</title>
<g id="a_node9"><a xlink:href="../../d6/d8b/class_instructions_1_1_long_1_1_div.xhtml" target="_top" xlink:title=" ">
<polygon fill="none" stroke="black" points="743,-6 743,-74 856,-74 856,-6 743,-6"/>
<text text-anchor="middle" x="799.5" y="-62" font-family="Helvetica,sans-Serif" font-size="10.00">Instructions::Long::Div</text>
<polyline fill="none" stroke="black" points="743,-55 856,-55 "/>
<text text-anchor="middle" x="799.5" y="-43" font-family="Helvetica,sans-Serif" font-size="10.00"> </text>
<polyline fill="none" stroke="black" points="743,-36 856,-36 "/>
<text text-anchor="start" x="751" y="-24" font-family="Helvetica,sans-Serif" font-size="10.00">+ Div()</text>
<text text-anchor="start" x="751" y="-13" font-family="Helvetica,sans-Serif" font-size="10.00">+ execute()</text>
</a>
</g>
</g>
<!-- Node1&#45;&gt;Node9 -->
<g id="edge8" class="edge"><title>Node1&#45;&gt;Node9</title>
<path fill="none" stroke="midnightblue" d="M1691.4,-158.42C1516.04,-151.987 1019.79,-129.772 865.5,-80 860.56,-78.4064 855.593,-76.3932 850.723,-74.1252"/>
<polygon fill="none" stroke="midnightblue" points="1691.38,-161.921 1701.5,-158.786 1691.63,-154.926 1691.38,-161.921"/>
</g>
<!-- Node10 -->
<g id="node10" class="node"><title>Node10</title>
<g id="a_node10"><a xlink:href="../../dd/d38/class_instructions_1_1_long_1_1_load__0.xhtml" target="_top" xlink:title=" ">
<polygon fill="none" stroke="black" points="874.5,-0.5 874.5,-79.5 968.5,-79.5 968.5,-0.5 874.5,-0.5"/>
<text text-anchor="start" x="882.5" y="-67.5" font-family="Helvetica,sans-Serif" font-size="10.00">Instructions::Long</text>
<text text-anchor="middle" x="921.5" y="-56.5" font-family="Helvetica,sans-Serif" font-size="10.00">::Load_0</text>
<polyline fill="none" stroke="black" points="874.5,-49.5 968.5,-49.5 "/>
<text text-anchor="middle" x="921.5" y="-37.5" font-family="Helvetica,sans-Serif" font-size="10.00"> </text>
<polyline fill="none" stroke="black" points="874.5,-30.5 968.5,-30.5 "/>
<text text-anchor="start" x="882.5" y="-18.5" font-family="Helvetica,sans-Serif" font-size="10.00">+ Load_0()</text>
<text text-anchor="start" x="882.5" y="-7.5" font-family="Helvetica,sans-Serif" font-size="10.00">+ execute()</text>
</a>
</g>
</g>
<!-- Node1&#45;&gt;Node10 -->
<g id="edge9" class="edge"><title>Node1&#45;&gt;Node10</title>
<path fill="none" stroke="midnightblue" d="M1691.17,-158.047C1530.97,-151.106 1108.25,-128.597 977.5,-80 974.502,-78.8856 971.513,-77.5724 968.565,-76.1148"/>
<polygon fill="none" stroke="midnightblue" points="1691.2,-161.551 1701.34,-158.482 1691.5,-154.558 1691.2,-161.551"/>
</g>
<!-- Node11 -->
<g id="node11" class="node"><title>Node11</title>
<g id="a_node11"><a xlink:href="../../d7/dfb/class_instructions_1_1_long_1_1_load__1.xhtml" target="_top" xlink:title=" ">
<polygon fill="none" stroke="black" points="986.5,-0.5 986.5,-79.5 1080.5,-79.5 1080.5,-0.5 986.5,-0.5"/>
<text text-anchor="start" x="994.5" y="-67.5" font-family="Helvetica,sans-Serif" font-size="10.00">Instructions::Long</text>
<text text-anchor="middle" x="1033.5" y="-56.5" font-family="Helvetica,sans-Serif" font-size="10.00">::Load_1</text>
<polyline fill="none" stroke="black" points="986.5,-49.5 1080.5,-49.5 "/>
<text text-anchor="middle" x="1033.5" y="-37.5" font-family="Helvetica,sans-Serif" font-size="10.00"> </text>
<polyline fill="none" stroke="black" points="986.5,-30.5 1080.5,-30.5 "/>
<text text-anchor="start" x="994.5" y="-18.5" font-family="Helvetica,sans-Serif" font-size="10.00">+ Load_1()</text>
<text text-anchor="start" x="994.5" y="-7.5" font-family="Helvetica,sans-Serif" font-size="10.00">+ execute()</text>
</a>
</g>
</g>
<!-- Node1&#45;&gt;Node11 -->
<g id="edge10" class="edge"><title>Node1&#45;&gt;Node11</title>
<path fill="none" stroke="midnightblue" d="M1690.8,-156.773C1547.27,-147.619 1198.78,-121.696 1089.5,-80 1086.51,-78.8597 1083.53,-77.5261 1080.59,-76.0527"/>
<polygon fill="none" stroke="midnightblue" points="1690.99,-160.291 1701.19,-157.429 1691.43,-153.305 1690.99,-160.291"/>
</g>
<!-- Node12 -->
<g id="node12" class="node"><title>Node12</title>
<g id="a_node12"><a xlink:href="../../dc/dda/class_instructions_1_1_long_1_1_load__2.xhtml" target="_top" xlink:title=" ">
<polygon fill="none" stroke="black" points="1098.5,-0.5 1098.5,-79.5 1192.5,-79.5 1192.5,-0.5 1098.5,-0.5"/>
<text text-anchor="start" x="1106.5" y="-67.5" font-family="Helvetica,sans-Serif" font-size="10.00">Instructions::Long</text>
<text text-anchor="middle" x="1145.5" y="-56.5" font-family="Helvetica,sans-Serif" font-size="10.00">::Load_2</text>
<polyline fill="none" stroke="black" points="1098.5,-49.5 1192.5,-49.5 "/>
<text text-anchor="middle" x="1145.5" y="-37.5" font-family="Helvetica,sans-Serif" font-size="10.00"> </text>
<polyline fill="none" stroke="black" points="1098.5,-30.5 1192.5,-30.5 "/>
<text text-anchor="start" x="1106.5" y="-18.5" font-family="Helvetica,sans-Serif" font-size="10.00">+ Load_2()</text>
<text text-anchor="start" x="1106.5" y="-7.5" font-family="Helvetica,sans-Serif" font-size="10.00">+ execute()</text>
</a>
</g>
</g>
<!-- Node1&#45;&gt;Node12 -->
<g id="edge11" class="edge"><title>Node1&#45;&gt;Node12</title>
<path fill="none" stroke="midnightblue" d="M1691.15,-160.616C1586.31,-158.825 1369.72,-146.519 1201.5,-80 1198.53,-78.8237 1195.56,-77.4617 1192.62,-75.9662"/>
<polygon fill="none" stroke="midnightblue" points="1691.19,-164.117 1701.24,-160.762 1691.29,-157.118 1691.19,-164.117"/>
</g>
<!-- Node13 -->
<g id="node13" class="node"><title>Node13</title>
<g id="a_node13"><a xlink:href="../../d6/dc9/class_instructions_1_1_long_1_1_load__3.xhtml" target="_top" xlink:title=" ">
<polygon fill="none" stroke="black" points="1210.5,-0.5 1210.5,-79.5 1304.5,-79.5 1304.5,-0.5 1210.5,-0.5"/>
<text text-anchor="start" x="1218.5" y="-67.5" font-family="Helvetica,sans-Serif" font-size="10.00">Instructions::Long</text>
<text text-anchor="middle" x="1257.5" y="-56.5" font-family="Helvetica,sans-Serif" font-size="10.00">::Load_3</text>
<polyline fill="none" stroke="black" points="1210.5,-49.5 1304.5,-49.5 "/>
<text text-anchor="middle" x="1257.5" y="-37.5" font-family="Helvetica,sans-Serif" font-size="10.00"> </text>
<polyline fill="none" stroke="black" points="1210.5,-30.5 1304.5,-30.5 "/>
<text text-anchor="start" x="1218.5" y="-18.5" font-family="Helvetica,sans-Serif" font-size="10.00">+ Load_3()</text>
<text text-anchor="start" x="1218.5" y="-7.5" font-family="Helvetica,sans-Serif" font-size="10.00">+ execute()</text>
</a>
</g>
</g>
<!-- Node1&#45;&gt;Node13 -->
<g id="edge12" class="edge"><title>Node1&#45;&gt;Node13</title>
<path fill="none" stroke="midnightblue" d="M1691.32,-157.431C1603.9,-151.295 1441.07,-133.132 1313.5,-80 1310.55,-78.7701 1307.59,-77.3658 1304.67,-75.8376"/>
<polygon fill="none" stroke="midnightblue" points="1691.13,-160.926 1701.34,-158.105 1691.6,-153.942 1691.13,-160.926"/>
</g>
<!-- Node14 -->
<g id="node14" class="node"><title>Node14</title>
<g id="a_node14"><a xlink:href="../../de/d7c/class_instructions_1_1_long_1_1_load_from_array.xhtml" target="_top" xlink:title=" ">
<polygon fill="none" stroke="black" points="1322.5,-0.5 1322.5,-79.5 1420.5,-79.5 1420.5,-0.5 1322.5,-0.5"/>
<text text-anchor="start" x="1330.5" y="-67.5" font-family="Helvetica,sans-Serif" font-size="10.00">Instructions::Long</text>
<text text-anchor="middle" x="1371.5" y="-56.5" font-family="Helvetica,sans-Serif" font-size="10.00">::LoadFromArray</text>
<polyline fill="none" stroke="black" points="1322.5,-49.5 1420.5,-49.5 "/>
<text text-anchor="middle" x="1371.5" y="-37.5" font-family="Helvetica,sans-Serif" font-size="10.00"> </text>
<polyline fill="none" stroke="black" points="1322.5,-30.5 1420.5,-30.5 "/>
<text text-anchor="start" x="1330.5" y="-18.5" font-family="Helvetica,sans-Serif" font-size="10.00">+ LoadFromArray()</text>
<text text-anchor="start" x="1330.5" y="-7.5" font-family="Helvetica,sans-Serif" font-size="10.00">+ execute()</text>
</a>
</g>
</g>
<!-- Node1&#45;&gt;Node14 -->
<g id="edge13" class="edge"><title>Node1&#45;&gt;Node14</title>
<path fill="none" stroke="midnightblue" d="M1691.51,-151.692C1624.7,-140.712 1516.3,-118.526 1429.5,-80 1426.51,-78.6708 1423.5,-77.1882 1420.51,-75.5993"/>
<polygon fill="none" stroke="midnightblue" points="1691.03,-155.16 1701.46,-153.295 1692.14,-148.249 1691.03,-155.16"/>
</g>
<!-- Node15 -->
<g id="node15" class="node"><title>Node15</title>
<g id="a_node15"><a xlink:href="../../d8/dcb/class_instructions_1_1_long_1_1_logical_shift_right.xhtml" target="_top" xlink:title=" ">
<polygon fill="none" stroke="black" points="1438.5,-0.5 1438.5,-79.5 1542.5,-79.5 1542.5,-0.5 1438.5,-0.5"/>
<text text-anchor="start" x="1446.5" y="-67.5" font-family="Helvetica,sans-Serif" font-size="10.00">Instructions::Long</text>
<text text-anchor="middle" x="1490.5" y="-56.5" font-family="Helvetica,sans-Serif" font-size="10.00">::LogicalShiftRight</text>
<polyline fill="none" stroke="black" points="1438.5,-49.5 1542.5,-49.5 "/>
<text text-anchor="middle" x="1490.5" y="-37.5" font-family="Helvetica,sans-Serif" font-size="10.00"> </text>
<polyline fill="none" stroke="black" points="1438.5,-30.5 1542.5,-30.5 "/>
<text text-anchor="start" x="1446.5" y="-18.5" font-family="Helvetica,sans-Serif" font-size="10.00">+ LogicalShiftRight()</text>
<text text-anchor="start" x="1446.5" y="-7.5" font-family="Helvetica,sans-Serif" font-size="10.00">+ execute()</text>
</a>
</g>
</g>
<!-- Node1&#45;&gt;Node15 -->
<g id="edge14" class="edge"><title>Node1&#45;&gt;Node15</title>
<path fill="none" stroke="midnightblue" d="M1691.73,-139.346C1651.04,-124.575 1597.06,-103.372 1551.5,-80 1548.59,-78.5082 1545.65,-76.9171 1542.7,-75.2623"/>
<polygon fill="none" stroke="midnightblue" points="1690.66,-142.679 1701.25,-142.772 1693.03,-136.092 1690.66,-142.679"/>
</g>
<!-- Node16 -->
<g id="node16" class="node"><title>Node16</title>
<g id="a_node16"><a xlink:href="../../d6/dc0/class_instructions_1_1_long_1_1_mul.xhtml" target="_top" xlink:title=" ">
<polygon fill="none" stroke="black" points="1560.5,-6 1560.5,-74 1676.5,-74 1676.5,-6 1560.5,-6"/>
<text text-anchor="middle" x="1618.5" y="-62" font-family="Helvetica,sans-Serif" font-size="10.00">Instructions::Long::Mul</text>
<polyline fill="none" stroke="black" points="1560.5,-55 1676.5,-55 "/>
<text text-anchor="middle" x="1618.5" y="-43" font-family="Helvetica,sans-Serif" font-size="10.00"> </text>
<polyline fill="none" stroke="black" points="1560.5,-36 1676.5,-36 "/>
<text text-anchor="start" x="1568.5" y="-24" font-family="Helvetica,sans-Serif" font-size="10.00">+ Mul()</text>
<text text-anchor="start" x="1568.5" y="-13" font-family="Helvetica,sans-Serif" font-size="10.00">+ execute()</text>
</a>
</g>
</g>
<!-- Node1&#45;&gt;Node16 -->
<g id="edge15" class="edge"><title>Node1&#45;&gt;Node16</title>
<path fill="none" stroke="midnightblue" d="M1695.76,-109.386C1682.28,-97.4552 1668.27,-85.0548 1655.94,-74.1423"/>
<polygon fill="none" stroke="midnightblue" points="1693.81,-112.335 1703.61,-116.342 1698.45,-107.093 1693.81,-112.335"/>
</g>
<!-- Node17 -->
<g id="node17" class="node"><title>Node17</title>
<g id="a_node17"><a xlink:href="../../db/df5/class_instructions_1_1_long_1_1_neg.xhtml" target="_top" xlink:title=" ">
<polygon fill="none" stroke="black" points="1695,-6 1695,-74 1812,-74 1812,-6 1695,-6"/>
<text text-anchor="middle" x="1753.5" y="-62" font-family="Helvetica,sans-Serif" font-size="10.00">Instructions::Long::Neg</text>
<polyline fill="none" stroke="black" points="1695,-55 1812,-55 "/>
<text text-anchor="middle" x="1753.5" y="-43" font-family="Helvetica,sans-Serif" font-size="10.00"> </text>
<polyline fill="none" stroke="black" points="1695,-36 1812,-36 "/>
<text text-anchor="start" x="1703" y="-24" font-family="Helvetica,sans-Serif" font-size="10.00">+ Neg()</text>
<text text-anchor="start" x="1703" y="-13" font-family="Helvetica,sans-Serif" font-size="10.00">+ execute()</text>
</a>
</g>
</g>
<!-- Node1&#45;&gt;Node17 -->
<g id="edge16" class="edge"><title>Node1&#45;&gt;Node17</title>
<path fill="none" stroke="midnightblue" d="M1753.5,-106.03C1753.5,-95.1504 1753.5,-84.0349 1753.5,-74.1423"/>
<polygon fill="none" stroke="midnightblue" points="1750,-106.342 1753.5,-116.342 1757,-106.342 1750,-106.342"/>
</g>
<!-- Node18 -->
<g id="node18" class="node"><title>Node18</title>
<g id="a_node18"><a xlink:href="../../dd/d18/class_instructions_1_1_long_1_1_or.xhtml" target="_top" xlink:title=" ">
<polygon fill="none" stroke="black" points="1830.5,-6 1830.5,-74 1940.5,-74 1940.5,-6 1830.5,-6"/>
<text text-anchor="middle" x="1885.5" y="-62" font-family="Helvetica,sans-Serif" font-size="10.00">Instructions::Long::Or</text>
<polyline fill="none" stroke="black" points="1830.5,-55 1940.5,-55 "/>
<text text-anchor="middle" x="1885.5" y="-43" font-family="Helvetica,sans-Serif" font-size="10.00"> </text>
<polyline fill="none" stroke="black" points="1830.5,-36 1940.5,-36 "/>
<text text-anchor="start" x="1838.5" y="-24" font-family="Helvetica,sans-Serif" font-size="10.00">+ Or()</text>
<text text-anchor="start" x="1838.5" y="-13" font-family="Helvetica,sans-Serif" font-size="10.00">+ execute()</text>
</a>
</g>
</g>
<!-- Node1&#45;&gt;Node18 -->
<g id="edge17" class="edge"><title>Node1&#45;&gt;Node18</title>
<path fill="none" stroke="midnightblue" d="M1809.96,-109.386C1823.14,-97.4552 1836.84,-85.0548 1848.89,-74.1423"/>
<polygon fill="none" stroke="midnightblue" points="1807.34,-107.036 1802.28,-116.342 1812.04,-112.225 1807.34,-107.036"/>
</g>
<!-- Node19 -->
<g id="node19" class="node"><title>Node19</title>
<g id="a_node19"><a xlink:href="../../d5/d24/class_instructions_1_1_long_1_1_rem.xhtml" target="_top" xlink:title=" ">
<polygon fill="none" stroke="black" points="1958.5,-6 1958.5,-74 2078.5,-74 2078.5,-6 1958.5,-6"/>
<text text-anchor="middle" x="2018.5" y="-62" font-family="Helvetica,sans-Serif" font-size="10.00">Instructions::Long::Rem</text>
<polyline fill="none" stroke="black" points="1958.5,-55 2078.5,-55 "/>
<text text-anchor="middle" x="2018.5" y="-43" font-family="Helvetica,sans-Serif" font-size="10.00"> </text>
<polyline fill="none" stroke="black" points="1958.5,-36 2078.5,-36 "/>
<text text-anchor="start" x="1966.5" y="-24" font-family="Helvetica,sans-Serif" font-size="10.00">+ Rem()</text>
<text text-anchor="start" x="1966.5" y="-13" font-family="Helvetica,sans-Serif" font-size="10.00">+ execute()</text>
</a>
</g>
</g>
<!-- Node1&#45;&gt;Node19 -->
<g id="edge18" class="edge"><title>Node1&#45;&gt;Node19</title>
<path fill="none" stroke="midnightblue" d="M1815.5,-137.323C1854.5,-122.187 1905.57,-101.332 1949.5,-80 1953.34,-78.1366 1957.26,-76.1526 1961.18,-74.1045"/>
<polygon fill="none" stroke="midnightblue" points="1813.93,-134.179 1805.86,-141.045 1816.45,-140.709 1813.93,-134.179"/>
</g>
<!-- Node20 -->
<g id="node20" class="node"><title>Node20</title>
<g id="a_node20"><a xlink:href="../../d7/de4/class_instructions_1_1_long_1_1_return.xhtml" target="_top" xlink:title=" ">
<polygon fill="none" stroke="black" points="2096.5,-0.5 2096.5,-79.5 2190.5,-79.5 2190.5,-0.5 2096.5,-0.5"/>
<text text-anchor="start" x="2104.5" y="-67.5" font-family="Helvetica,sans-Serif" font-size="10.00">Instructions::Long</text>
<text text-anchor="middle" x="2143.5" y="-56.5" font-family="Helvetica,sans-Serif" font-size="10.00">::Return</text>
<polyline fill="none" stroke="black" points="2096.5,-49.5 2190.5,-49.5 "/>
<text text-anchor="middle" x="2143.5" y="-37.5" font-family="Helvetica,sans-Serif" font-size="10.00"> </text>
<polyline fill="none" stroke="black" points="2096.5,-30.5 2190.5,-30.5 "/>
<text text-anchor="start" x="2104.5" y="-18.5" font-family="Helvetica,sans-Serif" font-size="10.00">+ Return()</text>
<text text-anchor="start" x="2104.5" y="-7.5" font-family="Helvetica,sans-Serif" font-size="10.00">+ execute()</text>
</a>
</g>
</g>
<!-- Node1&#45;&gt;Node20 -->
<g id="edge19" class="edge"><title>Node1&#45;&gt;Node20</title>
<path fill="none" stroke="midnightblue" d="M1815.75,-152.561C1884.57,-142.196 1997.59,-120.413 2087.5,-80 2090.42,-78.6886 2093.34,-77.22 2096.24,-75.6419"/>
<polygon fill="none" stroke="midnightblue" points="1814.89,-149.149 1805.51,-154.068 1815.91,-156.075 1814.89,-149.149"/>
</g>
<!-- Node21 -->
<g id="node21" class="node"><title>Node21</title>
<g id="a_node21"><a xlink:href="../../da/d23/class_instructions_1_1_long_1_1_shift_left.xhtml" target="_top" xlink:title=" ">
<polygon fill="none" stroke="black" points="2208.5,-0.5 2208.5,-79.5 2302.5,-79.5 2302.5,-0.5 2208.5,-0.5"/>
<text text-anchor="start" x="2216.5" y="-67.5" font-family="Helvetica,sans-Serif" font-size="10.00">Instructions::Long</text>
<text text-anchor="middle" x="2255.5" y="-56.5" font-family="Helvetica,sans-Serif" font-size="10.00">::ShiftLeft</text>
<polyline fill="none" stroke="black" points="2208.5,-49.5 2302.5,-49.5 "/>
<text text-anchor="middle" x="2255.5" y="-37.5" font-family="Helvetica,sans-Serif" font-size="10.00"> </text>
<polyline fill="none" stroke="black" points="2208.5,-30.5 2302.5,-30.5 "/>
<text text-anchor="start" x="2216.5" y="-18.5" font-family="Helvetica,sans-Serif" font-size="10.00">+ ShiftLeft()</text>
<text text-anchor="start" x="2216.5" y="-7.5" font-family="Helvetica,sans-Serif" font-size="10.00">+ execute()</text>
</a>
</g>
</g>
<!-- Node1&#45;&gt;Node21 -->
<g id="edge20" class="edge"><title>Node1&#45;&gt;Node21</title>
<path fill="none" stroke="midnightblue" d="M1815.81,-157.632C1904.25,-151.725 2069.83,-133.824 2199.5,-80 2202.45,-78.7736 2205.41,-77.3721 2208.33,-75.8461"/>
<polygon fill="none" stroke="midnightblue" points="1815.43,-154.148 1805.67,-158.278 1815.88,-161.134 1815.43,-154.148"/>
</g>
<!-- Node22 -->
<g id="node22" class="node"><title>Node22</title>
<g id="a_node22"><a xlink:href="../../db/d10/class_instructions_1_1_long_1_1_store__0.xhtml" target="_top" xlink:title=" ">
<polygon fill="none" stroke="black" points="2320.5,-0.5 2320.5,-79.5 2414.5,-79.5 2414.5,-0.5 2320.5,-0.5"/>
<text text-anchor="start" x="2328.5" y="-67.5" font-family="Helvetica,sans-Serif" font-size="10.00">Instructions::Long</text>
<text text-anchor="middle" x="2367.5" y="-56.5" font-family="Helvetica,sans-Serif" font-size="10.00">::Store_0</text>
<polyline fill="none" stroke="black" points="2320.5,-49.5 2414.5,-49.5 "/>
<text text-anchor="middle" x="2367.5" y="-37.5" font-family="Helvetica,sans-Serif" font-size="10.00"> </text>
<polyline fill="none" stroke="black" points="2320.5,-30.5 2414.5,-30.5 "/>
<text text-anchor="start" x="2328.5" y="-18.5" font-family="Helvetica,sans-Serif" font-size="10.00">+ Store_0()</text>
<text text-anchor="start" x="2328.5" y="-7.5" font-family="Helvetica,sans-Serif" font-size="10.00">+ execute()</text>
</a>
</g>
</g>
<!-- Node1&#45;&gt;Node22 -->
<g id="edge21" class="edge"><title>Node1&#45;&gt;Node22</title>
<path fill="none" stroke="midnightblue" d="M1815.71,-160.755C1921.36,-159.199 2141,-147.271 2311.5,-80 2314.48,-78.826 2317.45,-77.4658 2320.38,-75.9717"/>
<polygon fill="none" stroke="midnightblue" points="1815.49,-157.257 1805.54,-160.878 1815.58,-164.257 1815.49,-157.257"/>
</g>
<!-- Node23 -->
<g id="node23" class="node"><title>Node23</title>
<g id="a_node23"><a xlink:href="../../da/d5a/class_instructions_1_1_long_1_1_store__1.xhtml" target="_top" xlink:title=" ">
<polygon fill="none" stroke="black" points="2432.5,-0.5 2432.5,-79.5 2526.5,-79.5 2526.5,-0.5 2432.5,-0.5"/>
<text text-anchor="start" x="2440.5" y="-67.5" font-family="Helvetica,sans-Serif" font-size="10.00">Instructions::Long</text>
<text text-anchor="middle" x="2479.5" y="-56.5" font-family="Helvetica,sans-Serif" font-size="10.00">::Store_1</text>
<polyline fill="none" stroke="black" points="2432.5,-49.5 2526.5,-49.5 "/>
<text text-anchor="middle" x="2479.5" y="-37.5" font-family="Helvetica,sans-Serif" font-size="10.00"> </text>
<polyline fill="none" stroke="black" points="2432.5,-30.5 2526.5,-30.5 "/>
<text text-anchor="start" x="2440.5" y="-18.5" font-family="Helvetica,sans-Serif" font-size="10.00">+ Store_1()</text>
<text text-anchor="start" x="2440.5" y="-7.5" font-family="Helvetica,sans-Serif" font-size="10.00">+ execute()</text>
</a>
</g>
</g>
<!-- Node1&#45;&gt;Node23 -->
<g id="edge22" class="edge"><title>Node1&#45;&gt;Node23</title>
<path fill="none" stroke="midnightblue" d="M1815.8,-156.875C1960.03,-147.866 2312.98,-122.101 2423.5,-80 2426.49,-78.8613 2429.47,-77.529 2432.41,-76.0565"/>
<polygon fill="none" stroke="midnightblue" points="1815.55,-153.384 1805.78,-157.495 1815.98,-160.371 1815.55,-153.384"/>
</g>
<!-- Node24 -->
<g id="node24" class="node"><title>Node24</title>
<g id="a_node24"><a xlink:href="../../d7/da1/class_instructions_1_1_long_1_1_store__2.xhtml" target="_top" xlink:title=" ">
<polygon fill="none" stroke="black" points="2544.5,-0.5 2544.5,-79.5 2638.5,-79.5 2638.5,-0.5 2544.5,-0.5"/>
<text text-anchor="start" x="2552.5" y="-67.5" font-family="Helvetica,sans-Serif" font-size="10.00">Instructions::Long</text>
<text text-anchor="middle" x="2591.5" y="-56.5" font-family="Helvetica,sans-Serif" font-size="10.00">::Store_2</text>
<polyline fill="none" stroke="black" points="2544.5,-49.5 2638.5,-49.5 "/>
<text text-anchor="middle" x="2591.5" y="-37.5" font-family="Helvetica,sans-Serif" font-size="10.00"> </text>
<polyline fill="none" stroke="black" points="2544.5,-30.5 2638.5,-30.5 "/>
<text text-anchor="start" x="2552.5" y="-18.5" font-family="Helvetica,sans-Serif" font-size="10.00">+ Store_2()</text>
<text text-anchor="start" x="2552.5" y="-7.5" font-family="Helvetica,sans-Serif" font-size="10.00">+ execute()</text>
</a>
</g>
</g>
<!-- Node1&#45;&gt;Node24 -->
<g id="edge23" class="edge"><title>Node1&#45;&gt;Node24</title>
<path fill="none" stroke="midnightblue" d="M1815.74,-158.108C1976.74,-151.284 2403.57,-128.975 2535.5,-80 2538.5,-78.8868 2541.49,-77.5745 2544.44,-76.1176"/>
<polygon fill="none" stroke="midnightblue" points="1815.37,-154.62 1805.52,-158.535 1815.66,-161.614 1815.37,-154.62"/>
</g>
<!-- Node25 -->
<g id="node25" class="node"><title>Node25</title>
<g id="a_node25"><a xlink:href="../../d8/d87/class_instructions_1_1_long_1_1_store__3.xhtml" target="_top" xlink:title=" ">
<polygon fill="none" stroke="black" points="2656.5,-0.5 2656.5,-79.5 2750.5,-79.5 2750.5,-0.5 2656.5,-0.5"/>
<text text-anchor="start" x="2664.5" y="-67.5" font-family="Helvetica,sans-Serif" font-size="10.00">Instructions::Long</text>
<text text-anchor="middle" x="2703.5" y="-56.5" font-family="Helvetica,sans-Serif" font-size="10.00">::Store_3</text>
<polyline fill="none" stroke="black" points="2656.5,-49.5 2750.5,-49.5 "/>
<text text-anchor="middle" x="2703.5" y="-37.5" font-family="Helvetica,sans-Serif" font-size="10.00"> </text>
<polyline fill="none" stroke="black" points="2656.5,-30.5 2750.5,-30.5 "/>
<text text-anchor="start" x="2664.5" y="-18.5" font-family="Helvetica,sans-Serif" font-size="10.00">+ Store_3()</text>
<text text-anchor="start" x="2664.5" y="-7.5" font-family="Helvetica,sans-Serif" font-size="10.00">+ execute()</text>
</a>
</g>
</g>
<!-- Node1&#45;&gt;Node25 -->
<g id="edge24" class="edge"><title>Node1&#45;&gt;Node25</title>
<path fill="none" stroke="midnightblue" d="M1815.9,-159.028C1992.69,-154.207 2494.05,-135.851 2647.5,-80 2650.51,-78.9059 2653.5,-77.6088 2656.45,-76.1637"/>
<polygon fill="none" stroke="midnightblue" points="1815.63,-155.534 1805.73,-159.3 1815.82,-162.532 1815.63,-155.534"/>
</g>
<!-- Node26 -->
<g id="node26" class="node"><title>Node26</title>
<g id="a_node26"><a xlink:href="../../d4/d04/class_instructions_1_1_long_1_1_store_into_array.xhtml" target="_top" xlink:title=" ">
<polygon fill="none" stroke="black" points="2768.5,-0.5 2768.5,-79.5 2862.5,-79.5 2862.5,-0.5 2768.5,-0.5"/>
<text text-anchor="start" x="2776.5" y="-67.5" font-family="Helvetica,sans-Serif" font-size="10.00">Instructions::Long</text>
<text text-anchor="middle" x="2815.5" y="-56.5" font-family="Helvetica,sans-Serif" font-size="10.00">::StoreIntoArray</text>
<polyline fill="none" stroke="black" points="2768.5,-49.5 2862.5,-49.5 "/>
<text text-anchor="middle" x="2815.5" y="-37.5" font-family="Helvetica,sans-Serif" font-size="10.00"> </text>
<polyline fill="none" stroke="black" points="2768.5,-30.5 2862.5,-30.5 "/>
<text text-anchor="start" x="2776.5" y="-18.5" font-family="Helvetica,sans-Serif" font-size="10.00">+ StoreIntoArray()</text>
<text text-anchor="start" x="2776.5" y="-7.5" font-family="Helvetica,sans-Serif" font-size="10.00">+ execute()</text>
</a>
</g>
</g>
<!-- Node1&#45;&gt;Node26 -->
<g id="edge25" class="edge"><title>Node1&#45;&gt;Node26</title>
<path fill="none" stroke="midnightblue" d="M1815.68,-159.755C2006.96,-156.804 2584.28,-142.789 2759.5,-80 2762.51,-78.9209 2765.51,-77.6356 2768.47,-76.1996"/>
<polygon fill="none" stroke="midnightblue" points="1815.47,-156.258 1805.52,-159.907 1815.57,-163.257 1815.47,-156.258"/>
</g>
<!-- Node27 -->
<g id="node27" class="node"><title>Node27</title>
<g id="a_node27"><a xlink:href="../../dc/de6/class_instructions_1_1_long_1_1_sub.xhtml" target="_top" xlink:title=" ">
<polygon fill="none" stroke="black" points="2881,-6 2881,-74 2998,-74 2998,-6 2881,-6"/>
<text text-anchor="middle" x="2939.5" y="-62" font-family="Helvetica,sans-Serif" font-size="10.00">Instructions::Long::Sub</text>
<polyline fill="none" stroke="black" points="2881,-55 2998,-55 "/>
<text text-anchor="middle" x="2939.5" y="-43" font-family="Helvetica,sans-Serif" font-size="10.00"> </text>
<polyline fill="none" stroke="black" points="2881,-36 2998,-36 "/>
<text text-anchor="start" x="2889" y="-24" font-family="Helvetica,sans-Serif" font-size="10.00">+ Sub()</text>
<text text-anchor="start" x="2889" y="-13" font-family="Helvetica,sans-Serif" font-size="10.00">+ execute()</text>
</a>
</g>
</g>
<!-- Node1&#45;&gt;Node27 -->
<g id="edge26" class="edge"><title>Node1&#45;&gt;Node27</title>
<path fill="none" stroke="midnightblue" d="M1815.97,-159.651C2021.01,-156.294 2671.75,-140.981 2871.5,-80 2876.71,-78.4105 2881.95,-76.3656 2887.08,-74.0463"/>
<polygon fill="none" stroke="midnightblue" points="1815.62,-156.155 1805.68,-159.815 1815.74,-163.155 1815.62,-156.155"/>
</g>
<!-- Node28 -->
<g id="node28" class="node"><title>Node28</title>
<g id="a_node28"><a xlink:href="../../da/de9/class_instructions_1_1_long_1_1_to_double.xhtml" target="_top" xlink:title=" ">
<polygon fill="none" stroke="black" points="3016.5,-0.5 3016.5,-79.5 3110.5,-79.5 3110.5,-0.5 3016.5,-0.5"/>
<text text-anchor="start" x="3024.5" y="-67.5" font-family="Helvetica,sans-Serif" font-size="10.00">Instructions::Long</text>
<text text-anchor="middle" x="3063.5" y="-56.5" font-family="Helvetica,sans-Serif" font-size="10.00">::ToDouble</text>
<polyline fill="none" stroke="black" points="3016.5,-49.5 3110.5,-49.5 "/>
<text text-anchor="middle" x="3063.5" y="-37.5" font-family="Helvetica,sans-Serif" font-size="10.00"> </text>
<polyline fill="none" stroke="black" points="3016.5,-30.5 3110.5,-30.5 "/>
<text text-anchor="start" x="3024.5" y="-18.5" font-family="Helvetica,sans-Serif" font-size="10.00">+ ToDouble()</text>
<text text-anchor="start" x="3024.5" y="-7.5" font-family="Helvetica,sans-Serif" font-size="10.00">+ execute()</text>
</a>
</g>
</g>
<!-- Node1&#45;&gt;Node28 -->
<g id="edge27" class="edge"><title>Node1&#45;&gt;Node28</title>
<path fill="none" stroke="midnightblue" d="M1815.84,-160.9C2037.17,-161.64 2783.87,-158.155 3007.5,-80 3010.52,-78.9446 3013.53,-77.6781 3016.49,-76.2566"/>
<polygon fill="none" stroke="midnightblue" points="1815.72,-157.399 1805.7,-160.862 1815.69,-164.399 1815.72,-157.399"/>
</g>
<!-- Node29 -->
<g id="node29" class="node"><title>Node29</title>
<g id="a_node29"><a xlink:href="../../d6/d24/class_instructions_1_1_long_1_1_to_float.xhtml" target="_top" xlink:title=" ">
<polygon fill="none" stroke="black" points="3128.5,-0.5 3128.5,-79.5 3222.5,-79.5 3222.5,-0.5 3128.5,-0.5"/>
<text text-anchor="start" x="3136.5" y="-67.5" font-family="Helvetica,sans-Serif" font-size="10.00">Instructions::Long</text>
<text text-anchor="middle" x="3175.5" y="-56.5" font-family="Helvetica,sans-Serif" font-size="10.00">::ToFloat</text>
<polyline fill="none" stroke="black" points="3128.5,-49.5 3222.5,-49.5 "/>
<text text-anchor="middle" x="3175.5" y="-37.5" font-family="Helvetica,sans-Serif" font-size="10.00"> </text>
<polyline fill="none" stroke="black" points="3128.5,-30.5 3222.5,-30.5 "/>
<text text-anchor="start" x="3136.5" y="-18.5" font-family="Helvetica,sans-Serif" font-size="10.00">+ ToFloat()</text>
<text text-anchor="start" x="3136.5" y="-7.5" font-family="Helvetica,sans-Serif" font-size="10.00">+ execute()</text>
</a>
</g>
</g>
<!-- Node1&#45;&gt;Node29 -->
<g id="edge28" class="edge"><title>Node1&#45;&gt;Node29</title>
<path fill="none" stroke="midnightblue" d="M1815.54,-158.825C2066.02,-151.793 2995.38,-123.014 3119.5,-80 3122.52,-78.9526 3125.53,-77.6922 3128.49,-76.2756"/>
<polygon fill="none" stroke="midnightblue" points="1815.41,-155.327 1805.52,-159.105 1815.61,-162.324 1815.41,-155.327"/>
</g>
<!-- Node30 -->
<g id="node30" class="node"><title>Node30</title>
<g id="a_node30"><a xlink:href="../../d6/def/class_instructions_1_1_long_1_1_to_integer.xhtml" target="_top" xlink:title=" ">
<polygon fill="none" stroke="black" points="3240.5,-0.5 3240.5,-79.5 3334.5,-79.5 3334.5,-0.5 3240.5,-0.5"/>
<text text-anchor="start" x="3248.5" y="-67.5" font-family="Helvetica,sans-Serif" font-size="10.00">Instructions::Long</text>
<text text-anchor="middle" x="3287.5" y="-56.5" font-family="Helvetica,sans-Serif" font-size="10.00">::ToInteger</text>
<polyline fill="none" stroke="black" points="3240.5,-49.5 3334.5,-49.5 "/>
<text text-anchor="middle" x="3287.5" y="-37.5" font-family="Helvetica,sans-Serif" font-size="10.00"> </text>
<polyline fill="none" stroke="black" points="3240.5,-30.5 3334.5,-30.5 "/>
<text text-anchor="start" x="3248.5" y="-18.5" font-family="Helvetica,sans-Serif" font-size="10.00">+ ToInteger()</text>
<text text-anchor="start" x="3248.5" y="-7.5" font-family="Helvetica,sans-Serif" font-size="10.00">+ execute()</text>
</a>
</g>
</g>
<!-- Node1&#45;&gt;Node30 -->
<g id="edge29" class="edge"><title>Node1&#45;&gt;Node30</title>
<path fill="none" stroke="midnightblue" d="M1815.76,-159.117C2079.39,-152.988 3096.32,-126.511 3231.5,-80 3234.52,-78.9593 3237.53,-77.7043 3240.5,-76.2918"/>
<polygon fill="none" stroke="midnightblue" points="1815.52,-155.621 1805.61,-159.351 1815.68,-162.619 1815.52,-155.621"/>
</g>
<!-- Node31 -->
<g id="node31" class="node"><title>Node31</title>
<g id="a_node31"><a xlink:href="../../d4/d3e/class_instructions_1_1_long_1_1_xor.xhtml" target="_top" xlink:title=" ">
<polygon fill="none" stroke="black" points="3353,-6 3353,-74 3466,-74 3466,-6 3353,-6"/>
<text text-anchor="middle" x="3409.5" y="-62" font-family="Helvetica,sans-Serif" font-size="10.00">Instructions::Long::Xor</text>
<polyline fill="none" stroke="black" points="3353,-55 3466,-55 "/>
<text text-anchor="middle" x="3409.5" y="-43" font-family="Helvetica,sans-Serif" font-size="10.00"> </text>
<polyline fill="none" stroke="black" points="3353,-36 3466,-36 "/>
<text text-anchor="start" x="3361" y="-24" font-family="Helvetica,sans-Serif" font-size="10.00">+ Xor()</text>
<text text-anchor="start" x="3361" y="-13" font-family="Helvetica,sans-Serif" font-size="10.00">+ execute()</text>
</a>
</g>
</g>
<!-- Node1&#45;&gt;Node31 -->
<g id="edge30" class="edge"><title>Node1&#45;&gt;Node31</title>
<path fill="none" stroke="midnightblue" d="M1815.8,-159.109C2091.59,-152.714 3195.44,-124.528 3343.5,-80 3348.6,-78.4667 3353.71,-76.4604 3358.72,-74.1664"/>
<polygon fill="none" stroke="midnightblue" points="1815.49,-155.615 1805.58,-159.345 1815.66,-162.613 1815.49,-155.615"/>
</g>
<!-- Node2 -->
<g id="node2" class="node"><title>Node2</title>
<g id="a_node2"><a xlink:href="../../d4/da8/class_instructions_1_1_instruction.xhtml" target="_top" xlink:title=" ">
<polygon fill="none" stroke="black" points="1694.5,-243.5 1694.5,-344.5 1812.5,-344.5 1812.5,-243.5 1694.5,-243.5"/>
<text text-anchor="middle" x="1753.5" y="-332.5" font-family="Helvetica,sans-Serif" font-size="10.00">Instructions::Instruction</text>
<polyline fill="none" stroke="black" points="1694.5,-325.5 1812.5,-325.5 "/>
<text text-anchor="start" x="1702.5" y="-313.5" font-family="Helvetica,sans-Serif" font-size="10.00">+ opcode</text>
<polyline fill="none" stroke="black" points="1694.5,-306.5 1812.5,-306.5 "/>
<text text-anchor="start" x="1702.5" y="-294.5" font-family="Helvetica,sans-Serif" font-size="10.00">+ Instruction()</text>
<text text-anchor="start" x="1702.5" y="-283.5" font-family="Helvetica,sans-Serif" font-size="10.00">+ ~Instruction()</text>
<text text-anchor="start" x="1702.5" y="-272.5" font-family="Helvetica,sans-Serif" font-size="10.00">+ execute()</text>
<text text-anchor="start" x="1702.5" y="-261.5" font-family="Helvetica,sans-Serif" font-size="10.00">+ toBytecode()</text>
<text text-anchor="start" x="1702.5" y="-250.5" font-family="Helvetica,sans-Serif" font-size="10.00">+ toBytecode_json()</text>
</a>
</g>
</g>
<!-- Node2&#45;&gt;Node1 -->
<g id="edge1" class="edge"><title>Node2&#45;&gt;Node1</title>
<path fill="none" stroke="midnightblue" d="M1753.5,-233.232C1753.5,-224.236 1753.5,-215.101 1753.5,-206.516"/>
<polygon fill="none" stroke="midnightblue" points="1750,-233.291 1753.5,-243.291 1757,-233.291 1750,-233.291"/>
</g>
</g>
</svg>
