<?xml version="1.0" encoding="UTF-8" standalone="no"?>
<!DOCTYPE svg PUBLIC "-//W3C//DTD SVG 1.1//EN"
 "http://www.w3.org/Graphics/SVG/1.1/DTD/svg11.dtd">
<!-- Generated by graphviz version 2.38.0 (20140413.2041)
 -->
<!-- Title: include/utils/frame.h Pages: 1 -->
<svg width="231pt" height="285pt"
 viewBox="0.00 0.00 230.50 285.00" xmlns="http://www.w3.org/2000/svg" xmlns:xlink="http://www.w3.org/1999/xlink">
<g id="graph0" class="graph" transform="scale(1 1) rotate(0) translate(4 281)">
<title>include/utils/frame.h</title>
<!-- Node1 -->
<g id="node1" class="node"><title>Node1</title>
<g id="a_node1"><a xlink:title=" ">
<polygon fill="#bfbfbf" stroke="black" points="0,-257.5 0,-276.5 104,-276.5 104,-257.5 0,-257.5"/>
<text text-anchor="middle" x="52" y="-264.5" font-family="Helvetica,sans-Serif" font-size="10.00">include/utils/frame.h</text>
</a>
</g>
</g>
<!-- Node2 -->
<g id="node2" class="node"><title>Node2</title>
<g id="a_node2"><a xlink:href="../../d3/d97/interpreter_8h.xhtml" target="_top" xlink:title=" ">
<polygon fill="none" stroke="black" points="17,-0.5 17,-19.5 119,-19.5 119,-0.5 17,-0.5"/>
<text text-anchor="middle" x="68" y="-7.5" font-family="Helvetica,sans-Serif" font-size="10.00">include/interpreter.h</text>
</a>
</g>
</g>
<!-- Node1&#45;&gt;Node2 -->
<g id="edge1" class="edge"><title>Node1&#45;&gt;Node2</title>
<path fill="none" stroke="midnightblue" d="M41.236,-248.685C36.8215,-240.595 32.2297,-230.637 30,-221 26.8944,-207.577 28.5835,-203.705 30,-190 36.8592,-123.639 58.0357,-45.7001 65.4245,-19.8335"/>
<polygon fill="midnightblue" stroke="midnightblue" points="38.3028,-250.603 46.3622,-257.481 44.3506,-247.078 38.3028,-250.603"/>
</g>
<!-- Node3 -->
<g id="node3" class="node"><title>Node3</title>
<g id="a_node3"><a xlink:href="../../dd/d7e/java__stack_8h.xhtml" target="_top" xlink:title=" ">
<polygon fill="none" stroke="black" points="39.5,-190.5 39.5,-220.5 146.5,-220.5 146.5,-190.5 39.5,-190.5"/>
<text text-anchor="start" x="47.5" y="-208.5" font-family="Helvetica,sans-Serif" font-size="10.00">include/utils/memory</text>
<text text-anchor="middle" x="93" y="-197.5" font-family="Helvetica,sans-Serif" font-size="10.00">_areas/java_stack.h</text>
</a>
</g>
</g>
<!-- Node1&#45;&gt;Node3 -->
<g id="edge2" class="edge"><title>Node1&#45;&gt;Node3</title>
<path fill="none" stroke="midnightblue" d="M63.7395,-248.963C69.946,-239.956 77.4721,-229.034 83.3371,-220.523"/>
<polygon fill="midnightblue" stroke="midnightblue" points="60.6664,-247.255 57.8743,-257.475 66.4305,-251.227 60.6664,-247.255"/>
</g>
<!-- Node3&#45;&gt;Node2 -->
<g id="edge3" class="edge"><title>Node3&#45;&gt;Node2</title>
<path fill="none" stroke="midnightblue" d="M78.7895,-181.409C74.4291,-173.083 70.2023,-163.412 68,-154 56.3487,-104.203 63.4487,-41.9522 66.6666,-19.5353"/>
<polygon fill="midnightblue" stroke="midnightblue" points="75.7396,-183.126 83.6684,-190.154 81.8525,-179.716 75.7396,-183.126"/>
</g>
<!-- Node4 -->
<g id="node4" class="node"><title>Node4</title>
<g id="a_node4"><a xlink:href="../../db/dd5/thread_8h.xhtml" target="_top" xlink:title=" ">
<polygon fill="none" stroke="black" points="77.5,-123.5 77.5,-153.5 184.5,-153.5 184.5,-123.5 77.5,-123.5"/>
<text text-anchor="start" x="85.5" y="-141.5" font-family="Helvetica,sans-Serif" font-size="10.00">include/utils/memory</text>
<text text-anchor="middle" x="131" y="-130.5" font-family="Helvetica,sans-Serif" font-size="10.00">_areas/thread.h</text>
</a>
</g>
</g>
<!-- Node3&#45;&gt;Node4 -->
<g id="edge4" class="edge"><title>Node3&#45;&gt;Node4</title>
<path fill="none" stroke="midnightblue" d="M106.402,-181.576C111.859,-172.241 117.993,-161.748 122.771,-153.577"/>
<polygon fill="midnightblue" stroke="midnightblue" points="103.271,-179.997 101.245,-190.396 109.314,-183.529 103.271,-179.997"/>
</g>
<!-- Node4&#45;&gt;Node2 -->
<g id="edge7" class="edge"><title>Node4&#45;&gt;Node2</title>
<path fill="none" stroke="midnightblue" d="M119.427,-114.262C105.27,-85.8349 82.0009,-39.113 72.3769,-19.7885"/>
<polygon fill="midnightblue" stroke="midnightblue" points="116.426,-116.088 124.017,-123.479 122.692,-112.967 116.426,-116.088"/>
</g>
<!-- Node5 -->
<g id="node5" class="node"><title>Node5</title>
<g id="a_node5"><a xlink:href="../../da/ddb/heap_8h.xhtml" target="_top" xlink:title=" ">
<polygon fill="none" stroke="black" points="115.5,-56.5 115.5,-86.5 222.5,-86.5 222.5,-56.5 115.5,-56.5"/>
<text text-anchor="start" x="123.5" y="-74.5" font-family="Helvetica,sans-Serif" font-size="10.00">include/utils/memory</text>
<text text-anchor="middle" x="169" y="-63.5" font-family="Helvetica,sans-Serif" font-size="10.00">_areas/heap.h</text>
</a>
</g>
</g>
<!-- Node4&#45;&gt;Node5 -->
<g id="edge5" class="edge"><title>Node4&#45;&gt;Node5</title>
<path fill="none" stroke="midnightblue" d="M144.402,-114.576C149.859,-105.241 155.993,-94.7483 160.771,-86.5765"/>
<polygon fill="midnightblue" stroke="midnightblue" points="141.271,-112.997 139.245,-123.396 147.314,-116.529 141.271,-112.997"/>
</g>
<!-- Node5&#45;&gt;Node2 -->
<g id="edge6" class="edge"><title>Node5&#45;&gt;Node2</title>
<path fill="none" stroke="midnightblue" d="M136.016,-51.0688C118.012,-40.4624 96.6171,-27.8586 82.6964,-19.6578"/>
<polygon fill="midnightblue" stroke="midnightblue" points="134.672,-54.3391 145.064,-56.3993 138.225,-48.3079 134.672,-54.3391"/>
</g>
</g>
</svg>
