<?xml version="1.0" encoding="UTF-8" standalone="no"?>
<!DOCTYPE svg PUBLIC "-//W3C//DTD SVG 1.1//EN"
 "http://www.w3.org/Graphics/SVG/1.1/DTD/svg11.dtd">
<!-- Generated by graphviz version 2.38.0 (20140413.2041)
 -->
<!-- Title: nlohmann::basic_json::operator= Pages: 1 -->
<svg width="361pt" height="61pt"
 viewBox="0.00 0.00 361.00 61.00" xmlns="http://www.w3.org/2000/svg" xmlns:xlink="http://www.w3.org/1999/xlink">
<g id="graph0" class="graph" transform="scale(1 1) rotate(0) translate(4 57)">
<title>nlohmann::basic_json::operator=</title>
<!-- Node1 -->
<g id="node1" class="node"><title>Node1</title>
<g id="a_node1"><a xlink:title="copy assignment">
<polygon fill="#bfbfbf" stroke="black" points="0,-0.5 0,-30.5 111,-30.5 111,-0.5 0,-0.5"/>
<text text-anchor="start" x="8" y="-18.5" font-family="Helvetica,sans-Serif" font-size="10.00">nlohmann::basic_json</text>
<text text-anchor="middle" x="55.5" y="-7.5" font-family="Helvetica,sans-Serif" font-size="10.00">::operator=</text>
</a>
</g>
</g>
<!-- Node2 -->
<g id="node2" class="node"><title>Node2</title>
<g id="a_node2"><a xlink:href="../../d9/dcc/classnlohmann_1_1basic__json.xhtml#a8c9d932353e1ab98a7dc2fc27e002031" target="_top" xlink:title="exchanges the values">
<polygon fill="none" stroke="black" points="147,-22.5 147,-52.5 258,-52.5 258,-22.5 147,-22.5"/>
<text text-anchor="start" x="155" y="-40.5" font-family="Helvetica,sans-Serif" font-size="10.00">nlohmann::basic_json</text>
<text text-anchor="middle" x="202.5" y="-29.5" font-family="Helvetica,sans-Serif" font-size="10.00">::swap</text>
</a>
</g>
</g>
<!-- Node1&#45;&gt;Node2 -->
<g id="edge1" class="edge"><title>Node1&#45;&gt;Node2</title>
<path fill="none" stroke="midnightblue" d="M111.318,-23.8173C119.529,-25.063 128.061,-26.3575 136.459,-27.6317"/>
<polygon fill="midnightblue" stroke="midnightblue" points="136.192,-31.1312 146.604,-29.171 137.242,-24.2104 136.192,-31.1312"/>
</g>
<!-- Node3 -->
<g id="node3" class="node"><title>Node3</title>
<g id="a_node3"><a xlink:href="../../d8/dcc/namespacestd.xhtml#a907191b7578e209391ce938e3b2afdf7" target="_top" xlink:title="exchanges the values of two JSON objects">
<polygon fill="none" stroke="black" points="294,-6 294,-25 353,-25 353,-6 294,-6"/>
<text text-anchor="middle" x="323.5" y="-13" font-family="Helvetica,sans-Serif" font-size="10.00">std::swap</text>
</a>
</g>
</g>
<!-- Node1&#45;&gt;Node3 -->
<g id="edge3" class="edge"><title>Node1&#45;&gt;Node3</title>
<path fill="none" stroke="midnightblue" d="M111.053,-14.0995C122.903,-13.8498 135.371,-13.6285 147,-13.5 196.33,-12.955 208.673,-12.7354 258,-13.5 266.362,-13.6296 275.332,-13.8537 283.844,-14.1061"/>
<polygon fill="midnightblue" stroke="midnightblue" points="283.823,-17.6071 293.928,-14.4237 284.043,-10.6106 283.823,-17.6071"/>
</g>
<!-- Node2&#45;&gt;Node3 -->
<g id="edge2" class="edge"><title>Node2&#45;&gt;Node3</title>
<path fill="none" stroke="midnightblue" d="M258.124,-27.4014C266.802,-25.7971 275.619,-24.167 283.831,-22.6489"/>
<polygon fill="midnightblue" stroke="midnightblue" points="284.655,-26.0559 293.852,-20.7962 283.383,-19.1726 284.655,-26.0559"/>
</g>
</g>
</svg>
