<?xml version="1.0" encoding="UTF-8" standalone="no"?>
<!DOCTYPE svg PUBLIC "-//W3C//DTD SVG 1.1//EN"
 "http://www.w3.org/Graphics/SVG/1.1/DTD/svg11.dtd">
<!-- Generated by graphviz version 2.38.0 (20140413.2041)
 -->
<!-- Title: nlohmann::basic_json::diff Pages: 1 -->
<svg width="440pt" height="421pt"
 viewBox="0.00 0.00 440.00 421.00" xmlns="http://www.w3.org/2000/svg" xmlns:xlink="http://www.w3.org/1999/xlink">
<g id="graph0" class="graph" transform="scale(1 1) rotate(0) translate(4 417)">
<title>nlohmann::basic_json::diff</title>
<!-- Node1 -->
<g id="node1" class="node"><title>Node1</title>
<g id="a_node1"><a xlink:title="creates a diff as a JSON patch">
<polygon fill="#bfbfbf" stroke="black" points="0,-196.5 0,-226.5 111,-226.5 111,-196.5 0,-196.5"/>
<text text-anchor="start" x="8" y="-214.5" font-family="Helvetica,sans-Serif" font-size="10.00">nlohmann::basic_json</text>
<text text-anchor="middle" x="55.5" y="-203.5" font-family="Helvetica,sans-Serif" font-size="10.00">::diff</text>
</a>
</g>
</g>
<!-- Node2 -->
<g id="node2" class="node"><title>Node2</title>
<g id="a_node2"><a xlink:href="../../d9/dcc/classnlohmann_1_1basic__json.xhtml#a0ff28dac23f2bdecee9564d07f51dcdc" target="_top" xlink:title="returns an iterator to the first element">
<polygon fill="none" stroke="black" points="149.5,-382.5 149.5,-412.5 260.5,-412.5 260.5,-382.5 149.5,-382.5"/>
<text text-anchor="start" x="157.5" y="-400.5" font-family="Helvetica,sans-Serif" font-size="10.00">nlohmann::basic_json</text>
<text text-anchor="middle" x="205" y="-389.5" font-family="Helvetica,sans-Serif" font-size="10.00">::begin</text>
</a>
</g>
</g>
<!-- Node1&#45;&gt;Node2 -->
<g id="edge1" class="edge"><title>Node1&#45;&gt;Node2</title>
<path fill="none" stroke="midnightblue" d="M61.9627,-226.65C73.4963,-256.84 102.947,-325.225 147,-367.5 150.688,-371.039 154.875,-374.27 159.267,-377.191"/>
<polygon fill="midnightblue" stroke="midnightblue" points="157.522,-380.226 167.886,-382.425 161.155,-374.243 157.522,-380.226"/>
</g>
<!-- Node3 -->
<g id="node3" class="node"><title>Node3</title>
<g id="a_node3"><a xlink:href="../../d9/dcc/classnlohmann_1_1basic__json.xhtml#a13e032a02a7fd8a93fdddc2fcbc4763c" target="_top" xlink:title="returns an iterator to one past the last element">
<polygon fill="none" stroke="black" points="299,-344 299,-363 432,-363 432,-344 299,-344"/>
<text text-anchor="middle" x="365.5" y="-351" font-family="Helvetica,sans-Serif" font-size="10.00">nlohmann::basic_json::end</text>
</a>
</g>
</g>
<!-- Node1&#45;&gt;Node3 -->
<g id="edge2" class="edge"><title>Node1&#45;&gt;Node3</title>
<path fill="none" stroke="midnightblue" d="M62.687,-226.892C74.5038,-254.026 103.083,-309.831 147,-334.5 189.616,-358.439 244.488,-363.081 288.454,-361.793"/>
<polygon fill="midnightblue" stroke="midnightblue" points="288.667,-365.288 298.519,-361.391 288.387,-358.293 288.667,-365.288"/>
</g>
<!-- Node4 -->
<g id="node4" class="node"><title>Node4</title>
<g id="a_node4"><a xlink:href="../../d9/dcc/classnlohmann_1_1basic__json.xhtml#aeed33787bd362c7ead59a4ba945392db" target="_top" xlink:title="find an element in a JSON object">
<polygon fill="none" stroke="black" points="149.5,-294.5 149.5,-324.5 260.5,-324.5 260.5,-294.5 149.5,-294.5"/>
<text text-anchor="start" x="157.5" y="-312.5" font-family="Helvetica,sans-Serif" font-size="10.00">nlohmann::basic_json</text>
<text text-anchor="middle" x="205" y="-301.5" font-family="Helvetica,sans-Serif" font-size="10.00">::find</text>
</a>
</g>
</g>
<!-- Node1&#45;&gt;Node4 -->
<g id="edge3" class="edge"><title>Node1&#45;&gt;Node4</title>
<path fill="none" stroke="midnightblue" d="M72.1154,-226.65C89.3637,-242.79 118.485,-268.331 147,-285.5 149.501,-287.006 152.113,-288.462 154.786,-289.863"/>
<polygon fill="midnightblue" stroke="midnightblue" points="153.508,-293.135 164.026,-294.403 156.594,-286.852 153.508,-293.135"/>
</g>
<!-- Node6 -->
<g id="node6" class="node"><title>Node6</title>
<g id="a_node6"><a xlink:href="../../d9/dcc/classnlohmann_1_1basic__json.xhtml#a0136728f5db69d4051c77b94307abd6c" target="_top" xlink:title="inserts element">
<polygon fill="none" stroke="black" points="149.5,-245.5 149.5,-275.5 260.5,-275.5 260.5,-245.5 149.5,-245.5"/>
<text text-anchor="start" x="157.5" y="-263.5" font-family="Helvetica,sans-Serif" font-size="10.00">nlohmann::basic_json</text>
<text text-anchor="middle" x="205" y="-252.5" font-family="Helvetica,sans-Serif" font-size="10.00">::insert</text>
</a>
</g>
</g>
<!-- Node1&#45;&gt;Node6 -->
<g id="edge6" class="edge"><title>Node1&#45;&gt;Node6</title>
<path fill="none" stroke="midnightblue" d="M101.958,-226.601C116.889,-231.562 133.644,-237.127 149.193,-242.293"/>
<polygon fill="midnightblue" stroke="midnightblue" points="148.098,-245.617 158.692,-245.448 150.305,-238.974 148.098,-245.617"/>
</g>
<!-- Node9 -->
<g id="node9" class="node"><title>Node9</title>
<g id="a_node9"><a xlink:href="../../d9/dcc/classnlohmann_1_1basic__json.xhtml#a9f42ee7d10eee2d5a73fd94ca7f767ca" target="_top" xlink:title="explicitly create an object from an initializer list">
<polygon fill="none" stroke="black" points="149.5,-147.5 149.5,-177.5 260.5,-177.5 260.5,-147.5 149.5,-147.5"/>
<text text-anchor="start" x="157.5" y="-165.5" font-family="Helvetica,sans-Serif" font-size="10.00">nlohmann::basic_json</text>
<text text-anchor="middle" x="205" y="-154.5" font-family="Helvetica,sans-Serif" font-size="10.00">::object</text>
</a>
</g>
</g>
<!-- Node1&#45;&gt;Node9 -->
<g id="edge9" class="edge"><title>Node1&#45;&gt;Node9</title>
<path fill="none" stroke="midnightblue" d="M101.958,-196.399C116.889,-191.438 133.644,-185.873 149.193,-180.707"/>
<polygon fill="midnightblue" stroke="midnightblue" points="150.305,-184.026 158.692,-177.552 148.098,-177.383 150.305,-184.026"/>
</g>
<!-- Node11 -->
<g id="node11" class="node"><title>Node11</title>
<g id="a_node11"><a xlink:href="../../d9/dcc/classnlohmann_1_1basic__json.xhtml#ac8e523ddc8c2dd7e5d2daf0d49a9c0d7" target="_top" xlink:title="add an object to an array">
<polygon fill="none" stroke="black" points="149.5,-196.5 149.5,-226.5 260.5,-226.5 260.5,-196.5 149.5,-196.5"/>
<text text-anchor="start" x="157.5" y="-214.5" font-family="Helvetica,sans-Serif" font-size="10.00">nlohmann::basic_json</text>
<text text-anchor="middle" x="205" y="-203.5" font-family="Helvetica,sans-Serif" font-size="10.00">::push_back</text>
</a>
</g>
</g>
<!-- Node1&#45;&gt;Node11 -->
<g id="edge11" class="edge"><title>Node1&#45;&gt;Node11</title>
<path fill="none" stroke="midnightblue" d="M111.004,-211.5C120.165,-211.5 129.751,-211.5 139.143,-211.5"/>
<polygon fill="midnightblue" stroke="midnightblue" points="139.227,-215 149.227,-211.5 139.227,-208 139.227,-215"/>
</g>
<!-- Node13 -->
<g id="node13" class="node"><title>Node13</title>
<g id="a_node13"><a xlink:href="../../d9/dcc/classnlohmann_1_1basic__json.xhtml#a25e27ad0c6d53c01871c5485e1f75b96" target="_top" xlink:title="returns the number of elements">
<polygon fill="none" stroke="black" points="149.5,-98.5 149.5,-128.5 260.5,-128.5 260.5,-98.5 149.5,-98.5"/>
<text text-anchor="start" x="157.5" y="-116.5" font-family="Helvetica,sans-Serif" font-size="10.00">nlohmann::basic_json</text>
<text text-anchor="middle" x="205" y="-105.5" font-family="Helvetica,sans-Serif" font-size="10.00">::size</text>
</a>
</g>
</g>
<!-- Node1&#45;&gt;Node13 -->
<g id="edge15" class="edge"><title>Node1&#45;&gt;Node13</title>
<path fill="none" stroke="midnightblue" d="M72.5202,-196.363C89.8803,-180.51 118.881,-155.587 147,-138.5 150.14,-136.592 153.451,-134.75 156.833,-132.99"/>
<polygon fill="midnightblue" stroke="midnightblue" points="158.455,-136.092 165.879,-128.533 155.362,-129.813 158.455,-136.092"/>
</g>
<!-- Node14 -->
<g id="node14" class="node"><title>Node14</title>
<g id="a_node14"><a xlink:href="../../d7/d9f/namespacenlohmann_1_1std__support.xhtml#a4e2d47525849f8d33f495cb20a4064ae" target="_top" xlink:title=" ">
<polygon fill="none" stroke="black" points="147,-49.5 147,-79.5 263,-79.5 263,-49.5 147,-49.5"/>
<text text-anchor="start" x="155" y="-67.5" font-family="Helvetica,sans-Serif" font-size="10.00">nlohmann::std_support</text>
<text text-anchor="middle" x="205" y="-56.5" font-family="Helvetica,sans-Serif" font-size="10.00">::to_string</text>
</a>
</g>
</g>
<!-- Node1&#45;&gt;Node14 -->
<g id="edge16" class="edge"><title>Node1&#45;&gt;Node14</title>
<path fill="none" stroke="midnightblue" d="M64.2749,-196.388C77.9221,-171.167 108.436,-120.238 147,-89.5 149.07,-87.8499 151.266,-86.2866 153.545,-84.8087"/>
<polygon fill="midnightblue" stroke="midnightblue" points="155.758,-87.5717 162.654,-79.5283 152.247,-81.5157 155.758,-87.5717"/>
</g>
<!-- Node15 -->
<g id="node15" class="node"><title>Node15</title>
<g id="a_node15"><a xlink:href="../../d9/dcc/classnlohmann_1_1basic__json.xhtml#a2b2d781d7f2a4ee41bc0016e931cadf7" target="_top" xlink:title="return the type of the JSON value (explicit)">
<polygon fill="none" stroke="black" points="149.5,-0.5 149.5,-30.5 260.5,-30.5 260.5,-0.5 149.5,-0.5"/>
<text text-anchor="start" x="157.5" y="-18.5" font-family="Helvetica,sans-Serif" font-size="10.00">nlohmann::basic_json</text>
<text text-anchor="middle" x="205" y="-7.5" font-family="Helvetica,sans-Serif" font-size="10.00">::type</text>
</a>
</g>
</g>
<!-- Node1&#45;&gt;Node15 -->
<g id="edge17" class="edge"><title>Node1&#45;&gt;Node15</title>
<path fill="none" stroke="midnightblue" d="M60.6038,-196.468C70.2829,-163.65 97.5263,-84.8995 147,-39.5 148.278,-38.3271 149.622,-37.2067 151.018,-36.1367"/>
<polygon fill="midnightblue" stroke="midnightblue" points="153.072,-38.9749 159.493,-30.5476 149.218,-33.1312 153.072,-38.9749"/>
</g>
<!-- Node4&#45;&gt;Node3 -->
<g id="edge4" class="edge"><title>Node4&#45;&gt;Node3</title>
<path fill="none" stroke="midnightblue" d="M260.103,-324.519C279.716,-329.964 301.621,-336.045 320.282,-341.225"/>
<polygon fill="midnightblue" stroke="midnightblue" points="319.425,-344.619 329.996,-343.922 321.297,-337.874 319.425,-344.619"/>
</g>
<!-- Node5 -->
<g id="node5" class="node"><title>Node5</title>
<g id="a_node5"><a xlink:href="../../d9/dcc/classnlohmann_1_1basic__json.xhtml#af8f511af124e82e4579f444b4175787c" target="_top" xlink:title="return whether value is an object">
<polygon fill="none" stroke="black" points="310,-294.5 310,-324.5 421,-324.5 421,-294.5 310,-294.5"/>
<text text-anchor="start" x="318" y="-312.5" font-family="Helvetica,sans-Serif" font-size="10.00">nlohmann::basic_json</text>
<text text-anchor="middle" x="365.5" y="-301.5" font-family="Helvetica,sans-Serif" font-size="10.00">::is_object</text>
</a>
</g>
</g>
<!-- Node4&#45;&gt;Node5 -->
<g id="edge5" class="edge"><title>Node4&#45;&gt;Node5</title>
<path fill="none" stroke="midnightblue" d="M260.547,-309.5C273.124,-309.5 286.624,-309.5 299.593,-309.5"/>
<polygon fill="midnightblue" stroke="midnightblue" points="299.853,-313 309.853,-309.5 299.853,-306 299.853,-313"/>
</g>
<!-- Node7 -->
<g id="node7" class="node"><title>Node7</title>
<g id="a_node7"><a xlink:href="../../d9/dcc/classnlohmann_1_1basic__json.xhtml#aef9ce5dd2381caee1f8ddcdb5bdd9c65" target="_top" xlink:title="return whether value is an array">
<polygon fill="none" stroke="black" points="310,-245.5 310,-275.5 421,-275.5 421,-245.5 310,-245.5"/>
<text text-anchor="start" x="318" y="-263.5" font-family="Helvetica,sans-Serif" font-size="10.00">nlohmann::basic_json</text>
<text text-anchor="middle" x="365.5" y="-252.5" font-family="Helvetica,sans-Serif" font-size="10.00">::is_array</text>
</a>
</g>
</g>
<!-- Node6&#45;&gt;Node7 -->
<g id="edge7" class="edge"><title>Node6&#45;&gt;Node7</title>
<path fill="none" stroke="midnightblue" d="M260.547,-260.5C273.124,-260.5 286.624,-260.5 299.593,-260.5"/>
<polygon fill="midnightblue" stroke="midnightblue" points="299.853,-264 309.853,-260.5 299.853,-257 299.853,-264"/>
</g>
<!-- Node8 -->
<g id="node8" class="node"><title>Node8</title>
<g id="a_node8"><a xlink:href="../../d9/dcc/classnlohmann_1_1basic__json.xhtml#a6b75862bdb4d26650616cf9821430755" target="_top" xlink:title="return the type as string">
<polygon fill="none" stroke="black" points="310,-196.5 310,-226.5 421,-226.5 421,-196.5 310,-196.5"/>
<text text-anchor="start" x="318" y="-214.5" font-family="Helvetica,sans-Serif" font-size="10.00">nlohmann::basic_json</text>
<text text-anchor="middle" x="365.5" y="-203.5" font-family="Helvetica,sans-Serif" font-size="10.00">::type_name</text>
</a>
</g>
</g>
<!-- Node6&#45;&gt;Node8 -->
<g id="edge8" class="edge"><title>Node6&#45;&gt;Node8</title>
<path fill="none" stroke="midnightblue" d="M254.849,-245.399C271.044,-240.392 289.237,-234.768 306.078,-229.561"/>
<polygon fill="midnightblue" stroke="midnightblue" points="307.293,-232.849 315.813,-226.552 305.225,-226.161 307.293,-232.849"/>
</g>
<!-- Node10 -->
<g id="node10" class="node"><title>Node10</title>
<g id="a_node10"><a xlink:href="../../d9/dcc/classnlohmann_1_1basic__json.xhtml#a32124a16dc80729d964d9caf607c2bc8" target="_top" xlink:title="create an empty value with a given type">
<polygon fill="none" stroke="black" points="310,-98.5 310,-128.5 421,-128.5 421,-98.5 310,-98.5"/>
<text text-anchor="start" x="318" y="-116.5" font-family="Helvetica,sans-Serif" font-size="10.00">nlohmann::basic_json</text>
<text text-anchor="middle" x="365.5" y="-105.5" font-family="Helvetica,sans-Serif" font-size="10.00">::basic_json</text>
</a>
</g>
</g>
<!-- Node9&#45;&gt;Node10 -->
<g id="edge10" class="edge"><title>Node9&#45;&gt;Node10</title>
<path fill="none" stroke="midnightblue" d="M254.849,-147.399C271.044,-142.392 289.237,-136.768 306.078,-131.561"/>
<polygon fill="midnightblue" stroke="midnightblue" points="307.293,-134.849 315.813,-128.552 305.225,-128.161 307.293,-134.849"/>
</g>
<!-- Node11&#45;&gt;Node7 -->
<g id="edge12" class="edge"><title>Node11&#45;&gt;Node7</title>
<path fill="none" stroke="midnightblue" d="M254.849,-226.601C271.044,-231.608 289.237,-237.232 306.078,-242.439"/>
<polygon fill="midnightblue" stroke="midnightblue" points="305.225,-245.839 315.813,-245.448 307.293,-239.151 305.225,-245.839"/>
</g>
<!-- Node11&#45;&gt;Node8 -->
<g id="edge14" class="edge"><title>Node11&#45;&gt;Node8</title>
<path fill="none" stroke="midnightblue" d="M260.547,-211.5C273.124,-211.5 286.624,-211.5 299.593,-211.5"/>
<polygon fill="midnightblue" stroke="midnightblue" points="299.853,-215 309.853,-211.5 299.853,-208 299.853,-215"/>
</g>
<!-- Node12 -->
<g id="node12" class="node"><title>Node12</title>
<g id="a_node12"><a xlink:href="../../d9/dcc/classnlohmann_1_1basic__json.xhtml#a8faa039ca82427ed29c486ffd00600c3" target="_top" xlink:title="return whether value is null">
<polygon fill="none" stroke="black" points="310,-147.5 310,-177.5 421,-177.5 421,-147.5 310,-147.5"/>
<text text-anchor="start" x="318" y="-165.5" font-family="Helvetica,sans-Serif" font-size="10.00">nlohmann::basic_json</text>
<text text-anchor="middle" x="365.5" y="-154.5" font-family="Helvetica,sans-Serif" font-size="10.00">::is_null</text>
</a>
</g>
</g>
<!-- Node11&#45;&gt;Node12 -->
<g id="edge13" class="edge"><title>Node11&#45;&gt;Node12</title>
<path fill="none" stroke="midnightblue" d="M254.849,-196.399C271.044,-191.392 289.237,-185.768 306.078,-180.561"/>
<polygon fill="midnightblue" stroke="midnightblue" points="307.293,-183.849 315.813,-177.552 305.225,-177.161 307.293,-183.849"/>
</g>
</g>
</svg>
