<?xml version="1.0" encoding="UTF-8" standalone="no"?>
<!DOCTYPE svg PUBLIC "-//W3C//DTD SVG 1.1//EN"
 "http://www.w3.org/Graphics/SVG/1.1/DTD/svg11.dtd">
<!-- Generated by graphviz version 2.38.0 (20140413.2041)
 -->
<!-- Title: nlohmann::basic_json::cend Pages: 1 -->
<svg width="435pt" height="176pt"
 viewBox="0.00 0.00 435.00 176.00" xmlns="http://www.w3.org/2000/svg" xmlns:xlink="http://www.w3.org/1999/xlink">
<g id="graph0" class="graph" transform="scale(1 1) rotate(0) translate(4 172)">
<title>nlohmann::basic_json::cend</title>
<!-- Node1 -->
<g id="node1" class="node"><title>Node1</title>
<g id="a_node1"><a xlink:title="returns a const iterator to one past the last element">
<polygon fill="#bfbfbf" stroke="black" points="316,-66.5 316,-96.5 427,-96.5 427,-66.5 316,-66.5"/>
<text text-anchor="start" x="324" y="-84.5" font-family="Helvetica,sans-Serif" font-size="10.00">nlohmann::basic_json</text>
<text text-anchor="middle" x="371.5" y="-73.5" font-family="Helvetica,sans-Serif" font-size="10.00">::cend</text>
</a>
</g>
</g>
<!-- Node2 -->
<g id="node2" class="node"><title>Node2</title>
<g id="a_node2"><a xlink:href="../../d9/dcc/classnlohmann_1_1basic__json.xhtml#a83fe4a151b3a591f357527d5d9aa1b9f" target="_top" xlink:title="access the last element">
<polygon fill="none" stroke="black" points="158,-137.5 158,-167.5 269,-167.5 269,-137.5 158,-137.5"/>
<text text-anchor="start" x="166" y="-155.5" font-family="Helvetica,sans-Serif" font-size="10.00">nlohmann::basic_json</text>
<text text-anchor="middle" x="213.5" y="-144.5" font-family="Helvetica,sans-Serif" font-size="10.00">::back</text>
</a>
</g>
</g>
<!-- Node1&#45;&gt;Node2 -->
<g id="edge1" class="edge"><title>Node1&#45;&gt;Node2</title>
<path fill="none" stroke="midnightblue" d="M334.404,-101.594C318.033,-110.355 298.283,-120.442 280,-128.5 273.018,-131.577 265.506,-134.593 258.147,-137.392"/>
<polygon fill="midnightblue" stroke="midnightblue" points="336.484,-104.449 343.616,-96.6141 333.155,-98.2908 336.484,-104.449"/>
</g>
<!-- Node3 -->
<g id="node3" class="node"><title>Node3</title>
<g id="a_node3"><a xlink:href="../../d9/dcc/classnlohmann_1_1basic__json.xhtml#a1e0769d22d54573f294da0e5c6abc9de" target="_top" xlink:title="returns a const reverse iterator to the last element">
<polygon fill="none" stroke="black" points="158,-88.5 158,-118.5 269,-118.5 269,-88.5 158,-88.5"/>
<text text-anchor="start" x="166" y="-106.5" font-family="Helvetica,sans-Serif" font-size="10.00">nlohmann::basic_json</text>
<text text-anchor="middle" x="213.5" y="-95.5" font-family="Helvetica,sans-Serif" font-size="10.00">::crbegin</text>
</a>
</g>
</g>
<!-- Node1&#45;&gt;Node3 -->
<g id="edge2" class="edge"><title>Node1&#45;&gt;Node3</title>
<path fill="none" stroke="midnightblue" d="M305.803,-90.6239C293.578,-92.3479 280.904,-94.1353 269.03,-95.8098"/>
<polygon fill="midnightblue" stroke="midnightblue" points="306.526,-94.0568 315.939,-89.1945 305.548,-87.1253 306.526,-94.0568"/>
</g>
<!-- Node5 -->
<g id="node5" class="node"><title>Node5</title>
<g id="a_node5"><a xlink:href="../../d9/dcc/classnlohmann_1_1basic__json.xhtml#a1c15707055088cd5436ae91db72cbe67" target="_top" xlink:title="returns a const iterator to one past the last element">
<polygon fill="none" stroke="black" points="147,-50 147,-69 280,-69 280,-50 147,-50"/>
<text text-anchor="middle" x="213.5" y="-57" font-family="Helvetica,sans-Serif" font-size="10.00">nlohmann::basic_json::end</text>
</a>
</g>
</g>
<!-- Node1&#45;&gt;Node5 -->
<g id="edge4" class="edge"><title>Node1&#45;&gt;Node5</title>
<path fill="none" stroke="midnightblue" d="M305.998,-72.4036C297.42,-71.1939 288.617,-69.9525 280.022,-68.7403"/>
<polygon fill="midnightblue" stroke="midnightblue" points="305.548,-75.8747 315.939,-73.8055 306.526,-68.9432 305.548,-75.8747"/>
</g>
<!-- Node6 -->
<g id="node6" class="node"><title>Node6</title>
<g id="a_node6"><a xlink:href="../../d9/dcc/classnlohmann_1_1basic__json.xhtml#a6d2f26a0a84787a43c989c88e2b7023b" target="_top" xlink:title="find an element in a JSON object">
<polygon fill="none" stroke="black" points="158,-0.5 158,-30.5 269,-30.5 269,-0.5 158,-0.5"/>
<text text-anchor="start" x="166" y="-18.5" font-family="Helvetica,sans-Serif" font-size="10.00">nlohmann::basic_json</text>
<text text-anchor="middle" x="213.5" y="-7.5" font-family="Helvetica,sans-Serif" font-size="10.00">::find</text>
</a>
</g>
</g>
<!-- Node1&#45;&gt;Node6 -->
<g id="edge5" class="edge"><title>Node1&#45;&gt;Node6</title>
<path fill="none" stroke="midnightblue" d="M329.219,-62.1607C313.856,-55.1326 296.217,-47.2609 280,-40.5 272.024,-37.1746 263.433,-33.7707 255.183,-30.5877"/>
<polygon fill="midnightblue" stroke="midnightblue" points="327.909,-65.4108 338.457,-66.4102 330.835,-59.0514 327.909,-65.4108"/>
</g>
<!-- Node4 -->
<g id="node4" class="node"><title>Node4</title>
<g id="a_node4"><a xlink:href="../../d9/dcc/classnlohmann_1_1basic__json.xhtml#a515e7618392317dbf4b72d3e18bf2ab2" target="_top" xlink:title="returns a const reverse iterator to the last element">
<polygon fill="none" stroke="black" points="0,-88.5 0,-118.5 111,-118.5 111,-88.5 0,-88.5"/>
<text text-anchor="start" x="8" y="-106.5" font-family="Helvetica,sans-Serif" font-size="10.00">nlohmann::basic_json</text>
<text text-anchor="middle" x="55.5" y="-95.5" font-family="Helvetica,sans-Serif" font-size="10.00">::rbegin</text>
</a>
</g>
</g>
<!-- Node3&#45;&gt;Node4 -->
<g id="edge3" class="edge"><title>Node3&#45;&gt;Node4</title>
<path fill="none" stroke="midnightblue" d="M147.803,-103.5C135.578,-103.5 122.904,-103.5 111.03,-103.5"/>
<polygon fill="midnightblue" stroke="midnightblue" points="147.939,-107 157.939,-103.5 147.939,-100 147.939,-107"/>
</g>
</g>
</svg>
