<?xml version="1.0" encoding="UTF-8" standalone="no"?>
<!DOCTYPE svg PUBLIC "-//W3C//DTD SVG 1.1//EN"
 "http://www.w3.org/Graphics/SVG/1.1/DTD/svg11.dtd">
<!-- Generated by graphviz version 2.38.0 (20140413.2041)
 -->
<!-- Title: nlohmann::basic_json::erase Pages: 1 -->
<svg width="271pt" height="186pt"
 viewBox="0.00 0.00 271.00 186.00" xmlns="http://www.w3.org/2000/svg" xmlns:xlink="http://www.w3.org/1999/xlink">
<g id="graph0" class="graph" transform="scale(1 1) rotate(0) translate(4 182)">
<title>nlohmann::basic_json::erase</title>
<!-- Node1 -->
<g id="node1" class="node"><title>Node1</title>
<g id="a_node1"><a xlink:title="remove element from a JSON array given an index">
<polygon fill="#bfbfbf" stroke="black" points="0,-73.5 0,-103.5 111,-103.5 111,-73.5 0,-73.5"/>
<text text-anchor="start" x="8" y="-91.5" font-family="Helvetica,sans-Serif" font-size="10.00">nlohmann::basic_json</text>
<text text-anchor="middle" x="55.5" y="-80.5" font-family="Helvetica,sans-Serif" font-size="10.00">::erase</text>
</a>
</g>
</g>
<!-- Node2 -->
<g id="node2" class="node"><title>Node2</title>
<g id="a_node2"><a xlink:href="../../d9/dcc/classnlohmann_1_1basic__json.xhtml#aef9ce5dd2381caee1f8ddcdb5bdd9c65" target="_top" xlink:title="return whether value is an array">
<polygon fill="none" stroke="black" points="149.5,-147.5 149.5,-177.5 260.5,-177.5 260.5,-147.5 149.5,-147.5"/>
<text text-anchor="start" x="157.5" y="-165.5" font-family="Helvetica,sans-Serif" font-size="10.00">nlohmann::basic_json</text>
<text text-anchor="middle" x="205" y="-154.5" font-family="Helvetica,sans-Serif" font-size="10.00">::is_array</text>
</a>
</g>
</g>
<!-- Node1&#45;&gt;Node2 -->
<g id="edge1" class="edge"><title>Node1&#45;&gt;Node2</title>
<path fill="none" stroke="midnightblue" d="M82.2521,-103.685C100.155,-114.004 124.712,-127.689 147,-138.5 150.336,-140.118 153.809,-141.736 157.322,-143.325"/>
<polygon fill="midnightblue" stroke="midnightblue" points="156.083,-146.604 166.644,-147.443 158.911,-140.201 156.083,-146.604"/>
</g>
<!-- Node3 -->
<g id="node3" class="node"><title>Node3</title>
<g id="a_node3"><a xlink:href="../../d9/dcc/classnlohmann_1_1basic__json.xhtml#a25e27ad0c6d53c01871c5485e1f75b96" target="_top" xlink:title="returns the number of elements">
<polygon fill="none" stroke="black" points="149.5,-98.5 149.5,-128.5 260.5,-128.5 260.5,-98.5 149.5,-98.5"/>
<text text-anchor="start" x="157.5" y="-116.5" font-family="Helvetica,sans-Serif" font-size="10.00">nlohmann::basic_json</text>
<text text-anchor="middle" x="205" y="-105.5" font-family="Helvetica,sans-Serif" font-size="10.00">::size</text>
</a>
</g>
</g>
<!-- Node1&#45;&gt;Node3 -->
<g id="edge2" class="edge"><title>Node1&#45;&gt;Node3</title>
<path fill="none" stroke="midnightblue" d="M111.004,-97.738C120.165,-99.2907 129.751,-100.915 139.143,-102.507"/>
<polygon fill="midnightblue" stroke="midnightblue" points="138.783,-105.996 149.227,-104.216 139.953,-99.0945 138.783,-105.996"/>
</g>
<!-- Node4 -->
<g id="node4" class="node"><title>Node4</title>
<g id="a_node4"><a xlink:href="../../d7/d9f/namespacenlohmann_1_1std__support.xhtml#a4e2d47525849f8d33f495cb20a4064ae" target="_top" xlink:title=" ">
<polygon fill="none" stroke="black" points="147,-49.5 147,-79.5 263,-79.5 263,-49.5 147,-49.5"/>
<text text-anchor="start" x="155" y="-67.5" font-family="Helvetica,sans-Serif" font-size="10.00">nlohmann::std_support</text>
<text text-anchor="middle" x="205" y="-56.5" font-family="Helvetica,sans-Serif" font-size="10.00">::to_string</text>
</a>
</g>
</g>
<!-- Node1&#45;&gt;Node4 -->
<g id="edge3" class="edge"><title>Node1&#45;&gt;Node4</title>
<path fill="none" stroke="midnightblue" d="M111.004,-79.6315C119.38,-78.2686 128.112,-76.8479 136.725,-75.4464"/>
<polygon fill="midnightblue" stroke="midnightblue" points="137.445,-78.8754 146.753,-73.8147 136.321,-71.9662 137.445,-78.8754"/>
</g>
<!-- Node5 -->
<g id="node5" class="node"><title>Node5</title>
<g id="a_node5"><a xlink:href="../../d9/dcc/classnlohmann_1_1basic__json.xhtml#a6b75862bdb4d26650616cf9821430755" target="_top" xlink:title="return the type as string">
<polygon fill="none" stroke="black" points="149.5,-0.5 149.5,-30.5 260.5,-30.5 260.5,-0.5 149.5,-0.5"/>
<text text-anchor="start" x="157.5" y="-18.5" font-family="Helvetica,sans-Serif" font-size="10.00">nlohmann::basic_json</text>
<text text-anchor="middle" x="205" y="-7.5" font-family="Helvetica,sans-Serif" font-size="10.00">::type_name</text>
</a>
</g>
</g>
<!-- Node1&#45;&gt;Node5 -->
<g id="edge4" class="edge"><title>Node1&#45;&gt;Node5</title>
<path fill="none" stroke="midnightblue" d="M83.5556,-73.4733C101.4,-63.7308 125.386,-50.9541 147,-40.5 150.993,-38.5688 155.171,-36.6141 159.372,-34.6932"/>
<polygon fill="midnightblue" stroke="midnightblue" points="160.861,-37.8613 168.542,-30.5641 157.987,-31.4784 160.861,-37.8613"/>
</g>
</g>
</svg>
