<?xml version="1.0" encoding="UTF-8" standalone="no"?>
<!DOCTYPE svg PUBLIC "-//W3C//DTD SVG 1.1//EN"
 "http://www.w3.org/Graphics/SVG/1.1/DTD/svg11.dtd">
<!-- Generated by graphviz version 2.38.0 (20140413.2041)
 -->
<!-- Title: nlohmann::basic_json::operator[] Pages: 1 -->
<svg width="413pt" height="186pt"
 viewBox="0.00 0.00 413.00 186.00" xmlns="http://www.w3.org/2000/svg" xmlns:xlink="http://www.w3.org/1999/xlink">
<g id="graph0" class="graph" transform="scale(1 1) rotate(0) translate(4 182)">
<title>nlohmann::basic_json::operator[]</title>
<!-- Node1 -->
<g id="node1" class="node"><title>Node1</title>
<g id="a_node1"><a xlink:title="access specified object element">
<polygon fill="#bfbfbf" stroke="black" points="0,-73.5 0,-103.5 111,-103.5 111,-73.5 0,-73.5"/>
<text text-anchor="start" x="8" y="-91.5" font-family="Helvetica,sans-Serif" font-size="10.00">nlohmann::basic_json</text>
<text text-anchor="middle" x="55.5" y="-80.5" font-family="Helvetica,sans-Serif" font-size="10.00">::operator[]</text>
</a>
</g>
</g>
<!-- Node2 -->
<g id="node2" class="node"><title>Node2</title>
<g id="a_node2"><a xlink:href="../../d9/dcc/classnlohmann_1_1basic__json.xhtml#ac871e3b03fb2eeca9a8de4db2bea760f" target="_top" xlink:title="access specified array element">
<polygon fill="none" stroke="black" points="147,-73.5 147,-103.5 258,-103.5 258,-73.5 147,-73.5"/>
<text text-anchor="start" x="155" y="-91.5" font-family="Helvetica,sans-Serif" font-size="10.00">nlohmann::basic_json</text>
<text text-anchor="middle" x="202.5" y="-80.5" font-family="Helvetica,sans-Serif" font-size="10.00">::operator[]</text>
</a>
</g>
</g>
<!-- Node1&#45;&gt;Node2 -->
<g id="edge1" class="edge"><title>Node1&#45;&gt;Node2</title>
<path fill="none" stroke="midnightblue" d="M111.318,-88.5C119.529,-88.5 128.061,-88.5 136.459,-88.5"/>
<polygon fill="midnightblue" stroke="midnightblue" points="136.604,-92.0001 146.604,-88.5 136.604,-85.0001 136.604,-92.0001"/>
</g>
<!-- Node3 -->
<g id="node3" class="node"><title>Node3</title>
<g id="a_node3"><a xlink:href="../../d9/dcc/classnlohmann_1_1basic__json.xhtml#a32124a16dc80729d964d9caf607c2bc8" target="_top" xlink:title="create an empty value with a given type">
<polygon fill="none" stroke="black" points="294,-147.5 294,-177.5 405,-177.5 405,-147.5 294,-147.5"/>
<text text-anchor="start" x="302" y="-165.5" font-family="Helvetica,sans-Serif" font-size="10.00">nlohmann::basic_json</text>
<text text-anchor="middle" x="349.5" y="-154.5" font-family="Helvetica,sans-Serif" font-size="10.00">::basic_json</text>
</a>
</g>
</g>
<!-- Node2&#45;&gt;Node3 -->
<g id="edge2" class="edge"><title>Node2&#45;&gt;Node3</title>
<path fill="none" stroke="midnightblue" d="M229.309,-103.57C247.237,-113.837 271.801,-127.508 294,-138.5 297.153,-140.061 300.431,-141.632 303.744,-143.181"/>
<polygon fill="midnightblue" stroke="midnightblue" points="302.555,-146.486 313.105,-147.467 305.47,-140.121 302.555,-146.486"/>
</g>
<!-- Node4 -->
<g id="node4" class="node"><title>Node4</title>
<g id="a_node4"><a xlink:href="../../d9/dcc/classnlohmann_1_1basic__json.xhtml#aef9ce5dd2381caee1f8ddcdb5bdd9c65" target="_top" xlink:title="return whether value is an array">
<polygon fill="none" stroke="black" points="294,-98.5 294,-128.5 405,-128.5 405,-98.5 294,-98.5"/>
<text text-anchor="start" x="302" y="-116.5" font-family="Helvetica,sans-Serif" font-size="10.00">nlohmann::basic_json</text>
<text text-anchor="middle" x="349.5" y="-105.5" font-family="Helvetica,sans-Serif" font-size="10.00">::is_array</text>
</a>
</g>
</g>
<!-- Node2&#45;&gt;Node4 -->
<g id="edge3" class="edge"><title>Node2&#45;&gt;Node4</title>
<path fill="none" stroke="midnightblue" d="M258.318,-97.9514C266.619,-99.3826 275.249,-100.87 283.735,-102.334"/>
<polygon fill="midnightblue" stroke="midnightblue" points="283.155,-105.785 293.604,-104.035 284.344,-98.8869 283.155,-105.785"/>
</g>
<!-- Node5 -->
<g id="node5" class="node"><title>Node5</title>
<g id="a_node5"><a xlink:href="../../d9/dcc/classnlohmann_1_1basic__json.xhtml#a8faa039ca82427ed29c486ffd00600c3" target="_top" xlink:title="return whether value is null">
<polygon fill="none" stroke="black" points="294,-49.5 294,-79.5 405,-79.5 405,-49.5 294,-49.5"/>
<text text-anchor="start" x="302" y="-67.5" font-family="Helvetica,sans-Serif" font-size="10.00">nlohmann::basic_json</text>
<text text-anchor="middle" x="349.5" y="-56.5" font-family="Helvetica,sans-Serif" font-size="10.00">::is_null</text>
</a>
</g>
</g>
<!-- Node2&#45;&gt;Node5 -->
<g id="edge4" class="edge"><title>Node2&#45;&gt;Node5</title>
<path fill="none" stroke="midnightblue" d="M258.318,-79.4266C266.619,-78.0528 275.249,-76.6244 283.735,-75.2197"/>
<polygon fill="midnightblue" stroke="midnightblue" points="284.31,-78.6723 293.604,-73.5862 283.167,-71.7662 284.31,-78.6723"/>
</g>
<!-- Node6 -->
<g id="node6" class="node"><title>Node6</title>
<g id="a_node6"><a xlink:href="../../d9/dcc/classnlohmann_1_1basic__json.xhtml#a6b75862bdb4d26650616cf9821430755" target="_top" xlink:title="return the type as string">
<polygon fill="none" stroke="black" points="294,-0.5 294,-30.5 405,-30.5 405,-0.5 294,-0.5"/>
<text text-anchor="start" x="302" y="-18.5" font-family="Helvetica,sans-Serif" font-size="10.00">nlohmann::basic_json</text>
<text text-anchor="middle" x="349.5" y="-7.5" font-family="Helvetica,sans-Serif" font-size="10.00">::type_name</text>
</a>
</g>
</g>
<!-- Node2&#45;&gt;Node6 -->
<g id="edge5" class="edge"><title>Node2&#45;&gt;Node6</title>
<path fill="none" stroke="midnightblue" d="M231.013,-73.3784C248.839,-63.7125 272.633,-51.056 294,-40.5 297.78,-38.6326 301.728,-36.7304 305.696,-34.851"/>
<polygon fill="midnightblue" stroke="midnightblue" points="307.348,-37.9424 314.922,-30.5347 304.381,-31.602 307.348,-37.9424"/>
</g>
</g>
</svg>
