<?xml version="1.0" encoding="UTF-8" standalone="no"?>
<!DOCTYPE svg PUBLIC "-//W3C//DTD SVG 1.1//EN"
 "http://www.w3.org/Graphics/SVG/1.1/DTD/svg11.dtd">
<!-- Generated by graphviz version 2.38.0 (20140413.2041)
 -->
<!-- Title: nlohmann::basic_json::basic_json Pages: 1 -->
<svg width="560pt" height="203pt"
 viewBox="0.00 0.00 560.00 202.50" xmlns="http://www.w3.org/2000/svg" xmlns:xlink="http://www.w3.org/1999/xlink">
<g id="graph0" class="graph" transform="scale(1 1) rotate(0) translate(4 198.5)">
<title>nlohmann::basic_json::basic_json</title>
<!-- Node1 -->
<g id="node1" class="node"><title>Node1</title>
<g id="a_node1"><a xlink:title="create an empty value with a given type">
<polygon fill="#bfbfbf" stroke="black" points="441,-73.5 441,-103.5 552,-103.5 552,-73.5 441,-73.5"/>
<text text-anchor="start" x="449" y="-91.5" font-family="Helvetica,sans-Serif" font-size="10.00">nlohmann::basic_json</text>
<text text-anchor="middle" x="496.5" y="-80.5" font-family="Helvetica,sans-Serif" font-size="10.00">::basic_json</text>
</a>
</g>
</g>
<!-- Node2 -->
<g id="node2" class="node"><title>Node2</title>
<g id="a_node2"><a xlink:href="../../d9/dcc/classnlohmann_1_1basic__json.xhtml#a4a4ec75e4d2845d9bcf7a9e5458e4949" target="_top" xlink:title="explicitly create an array from an initializer list">
<polygon fill="none" stroke="black" points="294,-147.5 294,-177.5 405,-177.5 405,-147.5 294,-147.5"/>
<text text-anchor="start" x="302" y="-165.5" font-family="Helvetica,sans-Serif" font-size="10.00">nlohmann::basic_json</text>
<text text-anchor="middle" x="349.5" y="-154.5" font-family="Helvetica,sans-Serif" font-size="10.00">::array</text>
</a>
</g>
</g>
<!-- Node1&#45;&gt;Node2 -->
<g id="edge1" class="edge"><title>Node1&#45;&gt;Node2</title>
<path fill="none" stroke="midnightblue" d="M460.001,-108.425C443.424,-117.547 423.342,-128.34 405,-137.5 398.388,-140.802 391.251,-144.196 384.39,-147.376"/>
<polygon fill="midnightblue" stroke="midnightblue" points="461.759,-111.452 468.817,-103.55 458.372,-105.326 461.759,-111.452"/>
</g>
<!-- Node6 -->
<g id="node6" class="node"><title>Node6</title>
<g id="a_node6"><a xlink:href="../../d9/dcc/classnlohmann_1_1basic__json.xhtml#a9f42ee7d10eee2d5a73fd94ca7f767ca" target="_top" xlink:title="explicitly create an object from an initializer list">
<polygon fill="none" stroke="black" points="294,-98.5 294,-128.5 405,-128.5 405,-98.5 294,-98.5"/>
<text text-anchor="start" x="302" y="-116.5" font-family="Helvetica,sans-Serif" font-size="10.00">nlohmann::basic_json</text>
<text text-anchor="middle" x="349.5" y="-105.5" font-family="Helvetica,sans-Serif" font-size="10.00">::object</text>
</a>
</g>
</g>
<!-- Node1&#45;&gt;Node6 -->
<g id="edge5" class="edge"><title>Node1&#45;&gt;Node6</title>
<path fill="none" stroke="midnightblue" d="M430.815,-99.6526C422.329,-101.116 413.698,-102.604 405.396,-104.035"/>
<polygon fill="midnightblue" stroke="midnightblue" points="431.422,-103.1 440.682,-97.9514 430.232,-96.2015 431.422,-103.1"/>
</g>
<!-- Node8 -->
<g id="node8" class="node"><title>Node8</title>
<g id="a_node8"><a xlink:href="../../d9/dcc/classnlohmann_1_1basic__json.xhtml#ac871e3b03fb2eeca9a8de4db2bea760f" target="_top" xlink:title="access specified array element">
<polygon fill="none" stroke="black" points="294,-49.5 294,-79.5 405,-79.5 405,-49.5 294,-49.5"/>
<text text-anchor="start" x="302" y="-67.5" font-family="Helvetica,sans-Serif" font-size="10.00">nlohmann::basic_json</text>
<text text-anchor="middle" x="349.5" y="-56.5" font-family="Helvetica,sans-Serif" font-size="10.00">::operator[]</text>
</a>
</g>
</g>
<!-- Node1&#45;&gt;Node8 -->
<g id="edge7" class="edge"><title>Node1&#45;&gt;Node8</title>
<path fill="none" stroke="midnightblue" d="M430.815,-77.7935C422.329,-76.3889 413.698,-74.9604 405.396,-73.5862"/>
<polygon fill="midnightblue" stroke="midnightblue" points="430.244,-81.2466 440.682,-79.4266 431.388,-74.3406 430.244,-81.2466"/>
</g>
<!-- Node10 -->
<g id="node10" class="node"><title>Node10</title>
<g id="a_node10"><a xlink:href="../../d9/dcc/classnlohmann_1_1basic__json.xhtml#ab2716cbe2e997ab8309926b87f044434" target="_top" xlink:title="add an object to an object">
<polygon fill="none" stroke="black" points="294,-0.5 294,-30.5 405,-30.5 405,-0.5 294,-0.5"/>
<text text-anchor="start" x="302" y="-18.5" font-family="Helvetica,sans-Serif" font-size="10.00">nlohmann::basic_json</text>
<text text-anchor="middle" x="349.5" y="-7.5" font-family="Helvetica,sans-Serif" font-size="10.00">::push_back</text>
</a>
</g>
</g>
<!-- Node1&#45;&gt;Node10 -->
<g id="edge9" class="edge"><title>Node1&#45;&gt;Node10</title>
<path fill="none" stroke="midnightblue" d="M460.065,-68.4472C443.501,-59.2986 423.412,-48.5198 405,-39.5 398.872,-36.4981 392.282,-33.4488 385.874,-30.5762"/>
<polygon fill="midnightblue" stroke="midnightblue" points="458.43,-71.5428 468.871,-73.3406 461.83,-65.4239 458.43,-71.5428"/>
</g>
<!-- Node3 -->
<g id="node3" class="node"><title>Node3</title>
<g id="a_node3"><a xlink:href="../../d9/dcc/classnlohmann_1_1basic__json.xhtml#a86f339e8449cce96b89e86635a7d389e" target="_top" xlink:title="deserialize from an array">
<polygon fill="none" stroke="black" points="147,-147.5 147,-177.5 258,-177.5 258,-147.5 147,-147.5"/>
<text text-anchor="start" x="155" y="-165.5" font-family="Helvetica,sans-Serif" font-size="10.00">nlohmann::basic_json</text>
<text text-anchor="middle" x="202.5" y="-154.5" font-family="Helvetica,sans-Serif" font-size="10.00">::parse</text>
</a>
</g>
</g>
<!-- Node2&#45;&gt;Node3 -->
<g id="edge2" class="edge"><title>Node2&#45;&gt;Node3</title>
<path fill="none" stroke="midnightblue" d="M283.538,-162.5C275.141,-162.5 266.608,-162.5 258.396,-162.5"/>
<polygon fill="midnightblue" stroke="midnightblue" points="283.682,-166 293.682,-162.5 283.682,-159 283.682,-166"/>
</g>
<!-- Node4 -->
<g id="node4" class="node"><title>Node4</title>
<g id="a_node4"><a xlink:href="../../d3/dd1/nlohmann__json_8hpp.xhtml#ae90d59ab420a183cd5fb8588bdc95e06" target="_top" xlink:title="user&#45;defined string literal for JSON values">
<polygon fill="none" stroke="black" points="14,-175 14,-194 97,-194 97,-175 14,-175"/>
<text text-anchor="middle" x="55.5" y="-182" font-family="Helvetica,sans-Serif" font-size="10.00">operator&quot;&quot;_json</text>
</a>
</g>
</g>
<!-- Node3&#45;&gt;Node4 -->
<g id="edge3" class="edge"><title>Node3&#45;&gt;Node4</title>
<path fill="none" stroke="midnightblue" d="M136.584,-172.349C123.252,-174.372 109.573,-176.448 97.3791,-178.298"/>
<polygon fill="midnightblue" stroke="midnightblue" points="137.32,-175.778 146.682,-170.817 136.27,-168.857 137.32,-175.778"/>
</g>
<!-- Node5 -->
<g id="node5" class="node"><title>Node5</title>
<g id="a_node5"><a xlink:href="../../d9/dcc/classnlohmann_1_1basic__json.xhtml#ab275a3e00a40189e96d244de6c8f311a" target="_top" xlink:title="deserialize from string literal">
<polygon fill="none" stroke="black" points="0,-125.5 0,-155.5 111,-155.5 111,-125.5 0,-125.5"/>
<text text-anchor="start" x="8" y="-143.5" font-family="Helvetica,sans-Serif" font-size="10.00">nlohmann::basic_json</text>
<text text-anchor="middle" x="55.5" y="-132.5" font-family="Helvetica,sans-Serif" font-size="10.00">::parse</text>
</a>
</g>
</g>
<!-- Node3&#45;&gt;Node5 -->
<g id="edge4" class="edge"><title>Node3&#45;&gt;Node5</title>
<path fill="none" stroke="midnightblue" d="M136.538,-152.644C128.141,-151.37 119.608,-150.075 111.396,-148.829"/>
<polygon fill="midnightblue" stroke="midnightblue" points="136.27,-156.143 146.682,-154.183 137.32,-149.222 136.27,-156.143"/>
</g>
<!-- Node7 -->
<g id="node7" class="node"><title>Node7</title>
<g id="a_node7"><a xlink:href="../../d9/dcc/classnlohmann_1_1basic__json.xhtml#a543bd5f7490de54c875b2c0912dc9a49" target="_top" xlink:title="creates a diff as a JSON patch">
<polygon fill="none" stroke="black" points="147,-98.5 147,-128.5 258,-128.5 258,-98.5 147,-98.5"/>
<text text-anchor="start" x="155" y="-116.5" font-family="Helvetica,sans-Serif" font-size="10.00">nlohmann::basic_json</text>
<text text-anchor="middle" x="202.5" y="-105.5" font-family="Helvetica,sans-Serif" font-size="10.00">::diff</text>
</a>
</g>
</g>
<!-- Node6&#45;&gt;Node7 -->
<g id="edge6" class="edge"><title>Node6&#45;&gt;Node7</title>
<path fill="none" stroke="midnightblue" d="M283.538,-113.5C275.141,-113.5 266.608,-113.5 258.396,-113.5"/>
<polygon fill="midnightblue" stroke="midnightblue" points="283.682,-117 293.682,-113.5 283.682,-110 283.682,-117"/>
</g>
<!-- Node9 -->
<g id="node9" class="node"><title>Node9</title>
<g id="a_node9"><a xlink:href="../../d9/dcc/classnlohmann_1_1basic__json.xhtml#a1416bbec9d9a8eeca21c213cf5290868" target="_top" xlink:title="access specified object element">
<polygon fill="none" stroke="black" points="147,-49.5 147,-79.5 258,-79.5 258,-49.5 147,-49.5"/>
<text text-anchor="start" x="155" y="-67.5" font-family="Helvetica,sans-Serif" font-size="10.00">nlohmann::basic_json</text>
<text text-anchor="middle" x="202.5" y="-56.5" font-family="Helvetica,sans-Serif" font-size="10.00">::operator[]</text>
</a>
</g>
</g>
<!-- Node8&#45;&gt;Node9 -->
<g id="edge8" class="edge"><title>Node8&#45;&gt;Node9</title>
<path fill="none" stroke="midnightblue" d="M283.538,-64.5C275.141,-64.5 266.608,-64.5 258.396,-64.5"/>
<polygon fill="midnightblue" stroke="midnightblue" points="283.682,-68.0001 293.682,-64.5 283.682,-61.0001 283.682,-68.0001"/>
</g>
</g>
</svg>
