<?xml version="1.0" encoding="UTF-8" standalone="no"?>
<!DOCTYPE svg PUBLIC "-//W3C//DTD SVG 1.1//EN"
 "http://www.w3.org/Graphics/SVG/1.1/DTD/svg11.dtd">
<!-- Generated by graphviz version 2.38.0 (20140413.2041)
 -->
<!-- Title: nlohmann::basic_json::insert Pages: 1 -->
<svg width="413pt" height="88pt"
 viewBox="0.00 0.00 413.00 88.00" xmlns="http://www.w3.org/2000/svg" xmlns:xlink="http://www.w3.org/1999/xlink">
<g id="graph0" class="graph" transform="scale(1 1) rotate(0) translate(4 84)">
<title>nlohmann::basic_json::insert</title>
<!-- Node1 -->
<g id="node1" class="node"><title>Node1</title>
<g id="a_node1"><a xlink:title="inserts element">
<polygon fill="#bfbfbf" stroke="black" points="0,-24.5 0,-54.5 111,-54.5 111,-24.5 0,-24.5"/>
<text text-anchor="start" x="8" y="-42.5" font-family="Helvetica,sans-Serif" font-size="10.00">nlohmann::basic_json</text>
<text text-anchor="middle" x="55.5" y="-31.5" font-family="Helvetica,sans-Serif" font-size="10.00">::insert</text>
</a>
</g>
</g>
<!-- Node2 -->
<g id="node2" class="node"><title>Node2</title>
<g id="a_node2"><a xlink:href="../../d9/dcc/classnlohmann_1_1basic__json.xhtml#a0136728f5db69d4051c77b94307abd6c" target="_top" xlink:title="inserts element">
<polygon fill="none" stroke="black" points="147,-24.5 147,-54.5 258,-54.5 258,-24.5 147,-24.5"/>
<text text-anchor="start" x="155" y="-42.5" font-family="Helvetica,sans-Serif" font-size="10.00">nlohmann::basic_json</text>
<text text-anchor="middle" x="202.5" y="-31.5" font-family="Helvetica,sans-Serif" font-size="10.00">::insert</text>
</a>
</g>
</g>
<!-- Node1&#45;&gt;Node2 -->
<g id="edge1" class="edge"><title>Node1&#45;&gt;Node2</title>
<path fill="none" stroke="midnightblue" d="M111.318,-39.5C119.529,-39.5 128.061,-39.5 136.459,-39.5"/>
<polygon fill="midnightblue" stroke="midnightblue" points="136.604,-43.0001 146.604,-39.5 136.604,-36.0001 136.604,-43.0001"/>
</g>
<!-- Node3 -->
<g id="node3" class="node"><title>Node3</title>
<g id="a_node3"><a xlink:href="../../d9/dcc/classnlohmann_1_1basic__json.xhtml#aef9ce5dd2381caee1f8ddcdb5bdd9c65" target="_top" xlink:title="return whether value is an array">
<polygon fill="none" stroke="black" points="294,-49.5 294,-79.5 405,-79.5 405,-49.5 294,-49.5"/>
<text text-anchor="start" x="302" y="-67.5" font-family="Helvetica,sans-Serif" font-size="10.00">nlohmann::basic_json</text>
<text text-anchor="middle" x="349.5" y="-56.5" font-family="Helvetica,sans-Serif" font-size="10.00">::is_array</text>
</a>
</g>
</g>
<!-- Node2&#45;&gt;Node3 -->
<g id="edge2" class="edge"><title>Node2&#45;&gt;Node3</title>
<path fill="none" stroke="midnightblue" d="M258.318,-48.9514C266.619,-50.3826 275.249,-51.8705 283.735,-53.3337"/>
<polygon fill="midnightblue" stroke="midnightblue" points="283.155,-56.7852 293.604,-55.0352 284.344,-49.8869 283.155,-56.7852"/>
</g>
<!-- Node4 -->
<g id="node4" class="node"><title>Node4</title>
<g id="a_node4"><a xlink:href="../../d9/dcc/classnlohmann_1_1basic__json.xhtml#a6b75862bdb4d26650616cf9821430755" target="_top" xlink:title="return the type as string">
<polygon fill="none" stroke="black" points="294,-0.5 294,-30.5 405,-30.5 405,-0.5 294,-0.5"/>
<text text-anchor="start" x="302" y="-18.5" font-family="Helvetica,sans-Serif" font-size="10.00">nlohmann::basic_json</text>
<text text-anchor="middle" x="349.5" y="-7.5" font-family="Helvetica,sans-Serif" font-size="10.00">::type_name</text>
</a>
</g>
</g>
<!-- Node2&#45;&gt;Node4 -->
<g id="edge3" class="edge"><title>Node2&#45;&gt;Node4</title>
<path fill="none" stroke="midnightblue" d="M258.318,-30.4266C266.619,-29.0528 275.249,-27.6244 283.735,-26.2197"/>
<polygon fill="midnightblue" stroke="midnightblue" points="284.31,-29.6723 293.604,-24.5862 283.167,-22.7662 284.31,-29.6723"/>
</g>
</g>
</svg>
