<?xml version="1.0" encoding="UTF-8" standalone="no"?>
<!DOCTYPE svg PUBLIC "-//W3C//DTD SVG 1.1//EN"
 "http://www.w3.org/Graphics/SVG/1.1/DTD/svg11.dtd">
<!-- Generated by graphviz version 2.38.0 (20140413.2041)
 -->
<!-- Title: nlohmann::basic_json::is_object Pages: 1 -->
<svg width="574pt" height="499pt"
 viewBox="0.00 0.00 574.00 498.50" xmlns="http://www.w3.org/2000/svg" xmlns:xlink="http://www.w3.org/1999/xlink">
<g id="graph0" class="graph" transform="scale(1 1) rotate(0) translate(4 494.5)">
<title>nlohmann::basic_json::is_object</title>
<!-- Node1 -->
<g id="node1" class="node"><title>Node1</title>
<g id="a_node1"><a xlink:title="return whether value is an object">
<polygon fill="#bfbfbf" stroke="black" points="455,-235.5 455,-265.5 566,-265.5 566,-235.5 455,-235.5"/>
<text text-anchor="start" x="463" y="-253.5" font-family="Helvetica,sans-Serif" font-size="10.00">nlohmann::basic_json</text>
<text text-anchor="middle" x="510.5" y="-242.5" font-family="Helvetica,sans-Serif" font-size="10.00">::is_object</text>
</a>
</g>
</g>
<!-- Node2 -->
<g id="node2" class="node"><title>Node2</title>
<g id="a_node2"><a xlink:href="../../d9/dcc/classnlohmann_1_1basic__json.xhtml#a93403e803947b86f4da2d1fb3345cf2c" target="_top" xlink:title="access specified object element with bounds checking">
<polygon fill="none" stroke="black" points="294,-471 294,-490 419,-490 419,-471 294,-471"/>
<text text-anchor="middle" x="356.5" y="-478" font-family="Helvetica,sans-Serif" font-size="10.00">nlohmann::basic_json::at</text>
</a>
</g>
</g>
<!-- Node1&#45;&gt;Node2 -->
<g id="edge1" class="edge"><title>Node1&#45;&gt;Node2</title>
<path fill="none" stroke="midnightblue" d="M505.705,-275.67C497.735,-319.748 475.119,-411.012 419,-461.5 414.68,-465.387 409.578,-468.478 404.189,-470.937"/>
<polygon fill="midnightblue" stroke="midnightblue" points="509.161,-276.225 507.388,-265.779 502.26,-275.05 509.161,-276.225"/>
</g>
<!-- Node3 -->
<g id="node3" class="node"><title>Node3</title>
<g id="a_node3"><a xlink:href="../../d9/dcc/classnlohmann_1_1basic__json.xhtml#a5261eba9637f59d17d6cab5f14ce5747" target="_top" xlink:title="returns the number of occurrences of a key in a JSON object">
<polygon fill="none" stroke="black" points="301,-421.5 301,-451.5 412,-451.5 412,-421.5 301,-421.5"/>
<text text-anchor="start" x="309" y="-439.5" font-family="Helvetica,sans-Serif" font-size="10.00">nlohmann::basic_json</text>
<text text-anchor="middle" x="356.5" y="-428.5" font-family="Helvetica,sans-Serif" font-size="10.00">::count</text>
</a>
</g>
</g>
<!-- Node1&#45;&gt;Node3 -->
<g id="edge2" class="edge"><title>Node1&#45;&gt;Node3</title>
<path fill="none" stroke="midnightblue" d="M501.725,-275.193C489.492,-310.293 462.552,-374.555 419,-412.5 415.111,-415.888 410.689,-418.827 406.042,-421.369"/>
<polygon fill="midnightblue" stroke="midnightblue" points="505.046,-276.299 504.92,-265.705 498.412,-274.065 505.046,-276.299"/>
</g>
<!-- Node4 -->
<g id="node4" class="node"><title>Node4</title>
<g id="a_node4"><a xlink:href="../../d9/dcc/classnlohmann_1_1basic__json.xhtml#a5338e282d1d02bed389d852dd670d98d" target="_top" xlink:title="add an object to an object if key does not exist">
<polygon fill="none" stroke="black" points="301,-372.5 301,-402.5 412,-402.5 412,-372.5 301,-372.5"/>
<text text-anchor="start" x="309" y="-390.5" font-family="Helvetica,sans-Serif" font-size="10.00">nlohmann::basic_json</text>
<text text-anchor="middle" x="356.5" y="-379.5" font-family="Helvetica,sans-Serif" font-size="10.00">::emplace</text>
</a>
</g>
</g>
<!-- Node1&#45;&gt;Node4 -->
<g id="edge3" class="edge"><title>Node1&#45;&gt;Node4</title>
<path fill="none" stroke="midnightblue" d="M495.67,-274.392C479.972,-299.64 452.189,-339.108 419,-363.5 414.382,-366.894 409.222,-369.877 403.908,-372.481"/>
<polygon fill="midnightblue" stroke="midnightblue" points="498.696,-276.153 500.894,-265.788 492.712,-272.52 498.696,-276.153"/>
</g>
<!-- Node5 -->
<g id="node5" class="node"><title>Node5</title>
<g id="a_node5"><a xlink:href="../../d9/dcc/classnlohmann_1_1basic__json.xhtml#a2f8484d69c55d8f2a9697a7bec29362a" target="_top" xlink:title="remove element from a JSON object given a key">
<polygon fill="none" stroke="black" points="301,-323.5 301,-353.5 412,-353.5 412,-323.5 301,-323.5"/>
<text text-anchor="start" x="309" y="-341.5" font-family="Helvetica,sans-Serif" font-size="10.00">nlohmann::basic_json</text>
<text text-anchor="middle" x="356.5" y="-330.5" font-family="Helvetica,sans-Serif" font-size="10.00">::erase</text>
</a>
</g>
</g>
<!-- Node1&#45;&gt;Node5 -->
<g id="edge4" class="edge"><title>Node1&#45;&gt;Node5</title>
<path fill="none" stroke="midnightblue" d="M479.061,-271.261C461.754,-282.745 439.505,-296.98 419,-308.5 409.782,-313.679 399.541,-318.883 390.101,-323.468"/>
<polygon fill="midnightblue" stroke="midnightblue" points="481.258,-274.003 487.626,-265.535 477.367,-268.183 481.258,-274.003"/>
</g>
<!-- Node6 -->
<g id="node6" class="node"><title>Node6</title>
<g id="a_node6"><a xlink:href="../../d9/dcc/classnlohmann_1_1basic__json.xhtml#aeed33787bd362c7ead59a4ba945392db" target="_top" xlink:title="find an element in a JSON object">
<polygon fill="none" stroke="black" points="301,-235.5 301,-265.5 412,-265.5 412,-235.5 301,-235.5"/>
<text text-anchor="start" x="309" y="-253.5" font-family="Helvetica,sans-Serif" font-size="10.00">nlohmann::basic_json</text>
<text text-anchor="middle" x="356.5" y="-242.5" font-family="Helvetica,sans-Serif" font-size="10.00">::find</text>
</a>
</g>
</g>
<!-- Node1&#45;&gt;Node6 -->
<g id="edge5" class="edge"><title>Node1&#45;&gt;Node6</title>
<path fill="none" stroke="midnightblue" d="M444.404,-250.5C433.617,-250.5 422.531,-250.5 412.04,-250.5"/>
<polygon fill="midnightblue" stroke="midnightblue" points="444.625,-254 454.625,-250.5 444.624,-247 444.625,-254"/>
</g>
<!-- Node8 -->
<g id="node8" class="node"><title>Node8</title>
<g id="a_node8"><a xlink:href="../../d9/dcc/classnlohmann_1_1basic__json.xhtml#a81e0c41a4a9dff4df2f6973f7f8b2a83" target="_top" xlink:title="applies a JSON patch">
<polygon fill="none" stroke="black" points="147,-284.5 147,-314.5 258,-314.5 258,-284.5 147,-284.5"/>
<text text-anchor="start" x="155" y="-302.5" font-family="Helvetica,sans-Serif" font-size="10.00">nlohmann::basic_json</text>
<text text-anchor="middle" x="202.5" y="-291.5" font-family="Helvetica,sans-Serif" font-size="10.00">::patch</text>
</a>
</g>
</g>
<!-- Node1&#45;&gt;Node8 -->
<g id="edge12" class="edge"><title>Node1&#45;&gt;Node8</title>
<path fill="none" stroke="midnightblue" d="M450.629,-268.213C440.162,-270.946 429.31,-273.515 419,-275.5 364.846,-285.927 302.099,-292.28 258.329,-295.807"/>
<polygon fill="midnightblue" stroke="midnightblue" points="451.768,-271.531 460.517,-265.555 449.952,-264.771 451.768,-271.531"/>
</g>
<!-- Node9 -->
<g id="node9" class="node"><title>Node9</title>
<g id="a_node9"><a xlink:href="../../d9/dcc/classnlohmann_1_1basic__json.xhtml#af9c51328fbe1da75eca750be3009917a" target="_top" xlink:title="access specified object element with default value">
<polygon fill="none" stroke="black" points="147,-186.5 147,-216.5 258,-216.5 258,-186.5 147,-186.5"/>
<text text-anchor="start" x="155" y="-204.5" font-family="Helvetica,sans-Serif" font-size="10.00">nlohmann::basic_json</text>
<text text-anchor="middle" x="202.5" y="-193.5" font-family="Helvetica,sans-Serif" font-size="10.00">::value</text>
</a>
</g>
</g>
<!-- Node1&#45;&gt;Node9 -->
<g id="edge15" class="edge"><title>Node1&#45;&gt;Node9</title>
<path fill="none" stroke="midnightblue" d="M447.765,-232.866C438.186,-230.496 428.364,-228.275 419,-226.5 364.788,-216.222 302.049,-209.521 258.297,-205.668"/>
<polygon fill="midnightblue" stroke="midnightblue" points="447.075,-236.302 457.63,-235.376 448.802,-229.518 447.075,-236.302"/>
</g>
<!-- Node11 -->
<g id="node11" class="node"><title>Node11</title>
<g id="a_node11"><a xlink:href="../../d9/dcc/classnlohmann_1_1basic__json.xhtml#a9f68a0af820c3ced7f9d17851ce4c22d" target="_top" xlink:title="return whether type is structured">
<polygon fill="none" stroke="black" points="301,-147.5 301,-177.5 412,-177.5 412,-147.5 301,-147.5"/>
<text text-anchor="start" x="309" y="-165.5" font-family="Helvetica,sans-Serif" font-size="10.00">nlohmann::basic_json</text>
<text text-anchor="middle" x="356.5" y="-154.5" font-family="Helvetica,sans-Serif" font-size="10.00">::is_structured</text>
</a>
</g>
</g>
<!-- Node1&#45;&gt;Node11 -->
<g id="edge10" class="edge"><title>Node1&#45;&gt;Node11</title>
<path fill="none" stroke="midnightblue" d="M479.061,-229.739C461.754,-218.255 439.505,-204.02 419,-192.5 409.782,-187.321 399.541,-182.117 390.101,-177.532"/>
<polygon fill="midnightblue" stroke="midnightblue" points="477.367,-232.817 487.626,-235.465 481.258,-226.997 477.367,-232.817"/>
</g>
<!-- Node12 -->
<g id="node12" class="node"><title>Node12</title>
<g id="a_node12"><a xlink:href="../../d9/dcc/classnlohmann_1_1basic__json.xhtml#a233b02b0839ef798942dd46157cc0fe6" target="_top" xlink:title="access specified object element">
<polygon fill="none" stroke="black" points="301,-98.5 301,-128.5 412,-128.5 412,-98.5 301,-98.5"/>
<text text-anchor="start" x="309" y="-116.5" font-family="Helvetica,sans-Serif" font-size="10.00">nlohmann::basic_json</text>
<text text-anchor="middle" x="356.5" y="-105.5" font-family="Helvetica,sans-Serif" font-size="10.00">::operator[]</text>
</a>
</g>
</g>
<!-- Node1&#45;&gt;Node12 -->
<g id="edge11" class="edge"><title>Node1&#45;&gt;Node12</title>
<path fill="none" stroke="midnightblue" d="M495.346,-226.585C479.514,-201.629 451.749,-162.813 419,-138.5 413.91,-134.721 408.169,-131.412 402.291,-128.546"/>
<polygon fill="midnightblue" stroke="midnightblue" points="492.573,-228.755 500.815,-235.412 498.523,-225.068 492.573,-228.755"/>
</g>
<!-- Node13 -->
<g id="node13" class="node"><title>Node13</title>
<g id="a_node13"><a xlink:href="../../d9/dcc/classnlohmann_1_1basic__json.xhtml#ae11a3a51782c058fff2f6550cdfb9b3c" target="_top" xlink:title="add an object to an object">
<polygon fill="none" stroke="black" points="301,-49.5 301,-79.5 412,-79.5 412,-49.5 301,-49.5"/>
<text text-anchor="start" x="309" y="-67.5" font-family="Helvetica,sans-Serif" font-size="10.00">nlohmann::basic_json</text>
<text text-anchor="middle" x="356.5" y="-56.5" font-family="Helvetica,sans-Serif" font-size="10.00">::push_back</text>
</a>
</g>
</g>
<!-- Node1&#45;&gt;Node13 -->
<g id="edge13" class="edge"><title>Node1&#45;&gt;Node13</title>
<path fill="none" stroke="midnightblue" d="M501.452,-225.591C489.007,-190.71 461.947,-127.35 419,-89.5 414.677,-85.6897 409.696,-82.4142 404.48,-79.6098"/>
<polygon fill="midnightblue" stroke="midnightblue" points="498.279,-227.128 504.846,-235.442 504.897,-224.847 498.279,-227.128"/>
</g>
<!-- Node14 -->
<g id="node14" class="node"><title>Node14</title>
<g id="a_node14"><a xlink:href="../../d9/dcc/classnlohmann_1_1basic__json.xhtml#ac31f12587d2f1a3be5ffc394aa9d72a4" target="_top" xlink:title="exchanges the values">
<polygon fill="none" stroke="black" points="301,-0.5 301,-30.5 412,-30.5 412,-0.5 301,-0.5"/>
<text text-anchor="start" x="309" y="-18.5" font-family="Helvetica,sans-Serif" font-size="10.00">nlohmann::basic_json</text>
<text text-anchor="middle" x="356.5" y="-7.5" font-family="Helvetica,sans-Serif" font-size="10.00">::swap</text>
</a>
</g>
</g>
<!-- Node1&#45;&gt;Node14 -->
<g id="edge14" class="edge"><title>Node1&#45;&gt;Node14</title>
<path fill="none" stroke="midnightblue" d="M505.272,-225.46C496.665,-181.91 473.139,-91.8757 419,-39.5 415.458,-36.0733 411.371,-33.1206 407.021,-30.5794"/>
<polygon fill="midnightblue" stroke="midnightblue" points="501.867,-226.294 507.148,-235.479 508.747,-225.005 501.867,-226.294"/>
</g>
<!-- Node7 -->
<g id="node7" class="node"><title>Node7</title>
<g id="a_node7"><a xlink:href="../../d9/dcc/classnlohmann_1_1basic__json.xhtml#a543bd5f7490de54c875b2c0912dc9a49" target="_top" xlink:title="creates a diff as a JSON patch">
<polygon fill="none" stroke="black" points="147,-235.5 147,-265.5 258,-265.5 258,-235.5 147,-235.5"/>
<text text-anchor="start" x="155" y="-253.5" font-family="Helvetica,sans-Serif" font-size="10.00">nlohmann::basic_json</text>
<text text-anchor="middle" x="202.5" y="-242.5" font-family="Helvetica,sans-Serif" font-size="10.00">::diff</text>
</a>
</g>
</g>
<!-- Node6&#45;&gt;Node7 -->
<g id="edge6" class="edge"><title>Node6&#45;&gt;Node7</title>
<path fill="none" stroke="midnightblue" d="M290.404,-250.5C279.617,-250.5 268.531,-250.5 258.04,-250.5"/>
<polygon fill="midnightblue" stroke="midnightblue" points="290.625,-254 300.625,-250.5 290.624,-247 290.625,-254"/>
</g>
<!-- Node6&#45;&gt;Node8 -->
<g id="edge7" class="edge"><title>Node6&#45;&gt;Node8</title>
<path fill="none" stroke="midnightblue" d="M298.86,-268.759C282.828,-273.927 265.564,-279.492 250.191,-284.448"/>
<polygon fill="midnightblue" stroke="midnightblue" points="300.211,-272.001 308.655,-265.601 298.063,-265.339 300.211,-272.001"/>
</g>
<!-- Node6&#45;&gt;Node9 -->
<g id="edge8" class="edge"><title>Node6&#45;&gt;Node9</title>
<path fill="none" stroke="midnightblue" d="M298.86,-232.241C282.828,-227.073 265.564,-221.508 250.191,-216.552"/>
<polygon fill="midnightblue" stroke="midnightblue" points="298.063,-235.661 308.655,-235.399 300.211,-228.999 298.063,-235.661"/>
</g>
<!-- Node10 -->
<g id="node10" class="node"><title>Node10</title>
<g id="a_node10"><a xlink:href="../../d9/dcc/classnlohmann_1_1basic__json.xhtml#ad6a18403e7fbac9c4efd06facc71fc88" target="_top" xlink:title="overload for a default value of type const char*">
<polygon fill="none" stroke="black" points="0,-186.5 0,-216.5 111,-216.5 111,-186.5 0,-186.5"/>
<text text-anchor="start" x="8" y="-204.5" font-family="Helvetica,sans-Serif" font-size="10.00">nlohmann::basic_json</text>
<text text-anchor="middle" x="55.5" y="-193.5" font-family="Helvetica,sans-Serif" font-size="10.00">::value</text>
</a>
</g>
</g>
<!-- Node9&#45;&gt;Node10 -->
<g id="edge9" class="edge"><title>Node9&#45;&gt;Node10</title>
<path fill="none" stroke="midnightblue" d="M136.538,-201.5C128.141,-201.5 119.608,-201.5 111.396,-201.5"/>
<polygon fill="midnightblue" stroke="midnightblue" points="136.682,-205 146.682,-201.5 136.682,-198 136.682,-205"/>
</g>
</g>
</svg>
