<?xml version="1.0" encoding="UTF-8" standalone="no"?>
<!DOCTYPE svg PUBLIC "-//W3C//DTD SVG 1.1//EN"
 "http://www.w3.org/Graphics/SVG/1.1/DTD/svg11.dtd">
<!-- Generated by graphviz version 2.38.0 (20140413.2041)
 -->
<!-- Title: nlohmann::basic_json::is_array Pages: 1 -->
<svg width="427pt" height="410pt"
 viewBox="0.00 0.00 427.00 409.50" xmlns="http://www.w3.org/2000/svg" xmlns:xlink="http://www.w3.org/1999/xlink">
<g id="graph0" class="graph" transform="scale(1 1) rotate(0) translate(4 405.5)">
<title>nlohmann::basic_json::is_array</title>
<!-- Node1 -->
<g id="node1" class="node"><title>Node1</title>
<g id="a_node1"><a xlink:title="return whether value is an array">
<polygon fill="#bfbfbf" stroke="black" points="308,-196.5 308,-226.5 419,-226.5 419,-196.5 308,-196.5"/>
<text text-anchor="start" x="316" y="-214.5" font-family="Helvetica,sans-Serif" font-size="10.00">nlohmann::basic_json</text>
<text text-anchor="middle" x="363.5" y="-203.5" font-family="Helvetica,sans-Serif" font-size="10.00">::is_array</text>
</a>
</g>
</g>
<!-- Node2 -->
<g id="node2" class="node"><title>Node2</title>
<g id="a_node2"><a xlink:href="../../d9/dcc/classnlohmann_1_1basic__json.xhtml#a73ae333487310e3302135189ce8ff5d8" target="_top" xlink:title="access specified array element with bounds checking">
<polygon fill="none" stroke="black" points="147,-382 147,-401 272,-401 272,-382 147,-382"/>
<text text-anchor="middle" x="209.5" y="-389" font-family="Helvetica,sans-Serif" font-size="10.00">nlohmann::basic_json::at</text>
</a>
</g>
</g>
<!-- Node1&#45;&gt;Node2 -->
<g id="edge1" class="edge"><title>Node1&#45;&gt;Node2</title>
<path fill="none" stroke="midnightblue" d="M354.12,-236.235C341.425,-270.237 314.228,-331.307 272,-367.5 264.777,-373.691 255.773,-378.39 246.902,-381.914"/>
<polygon fill="midnightblue" stroke="midnightblue" points="357.492,-237.204 357.595,-226.61 350.908,-234.827 357.492,-237.204"/>
</g>
<!-- Node3 -->
<g id="node3" class="node"><title>Node3</title>
<g id="a_node3"><a xlink:href="../../d9/dcc/classnlohmann_1_1basic__json.xhtml#a81e0c41a4a9dff4df2f6973f7f8b2a83" target="_top" xlink:title="applies a JSON patch">
<polygon fill="none" stroke="black" points="0,-343.5 0,-373.5 111,-373.5 111,-343.5 0,-343.5"/>
<text text-anchor="start" x="8" y="-361.5" font-family="Helvetica,sans-Serif" font-size="10.00">nlohmann::basic_json</text>
<text text-anchor="middle" x="55.5" y="-350.5" font-family="Helvetica,sans-Serif" font-size="10.00">::patch</text>
</a>
</g>
</g>
<!-- Node1&#45;&gt;Node3 -->
<g id="edge12" class="edge"><title>Node1&#45;&gt;Node3</title>
<path fill="none" stroke="midnightblue" d="M351.927,-236.206C338.119,-265.138 311.02,-311.967 272,-334.5 222.938,-362.832 157.082,-366.146 111.135,-364.067"/>
<polygon fill="midnightblue" stroke="midnightblue" points="355.259,-237.336 356.254,-226.788 348.898,-234.413 355.259,-237.336"/>
</g>
<!-- Node4 -->
<g id="node4" class="node"><title>Node4</title>
<g id="a_node4"><a xlink:href="../../d9/dcc/classnlohmann_1_1basic__json.xhtml#aacf5eed15a8b66fb1e88910707a5e229" target="_top" xlink:title="add an object to an array">
<polygon fill="none" stroke="black" points="154,-196.5 154,-226.5 265,-226.5 265,-196.5 154,-196.5"/>
<text text-anchor="start" x="162" y="-214.5" font-family="Helvetica,sans-Serif" font-size="10.00">nlohmann::basic_json</text>
<text text-anchor="middle" x="209.5" y="-203.5" font-family="Helvetica,sans-Serif" font-size="10.00">::emplace_back</text>
</a>
</g>
</g>
<!-- Node1&#45;&gt;Node4 -->
<g id="edge3" class="edge"><title>Node1&#45;&gt;Node4</title>
<path fill="none" stroke="midnightblue" d="M297.404,-211.5C286.617,-211.5 275.531,-211.5 265.04,-211.5"/>
<polygon fill="midnightblue" stroke="midnightblue" points="297.625,-215 307.625,-211.5 297.624,-208 297.625,-215"/>
</g>
<!-- Node5 -->
<g id="node5" class="node"><title>Node5</title>
<g id="a_node5"><a xlink:href="../../d9/dcc/classnlohmann_1_1basic__json.xhtml#a88cbcefe9a3f4d294bed0653550a5cb9" target="_top" xlink:title="remove element from a JSON array given an index">
<polygon fill="none" stroke="black" points="154,-147.5 154,-177.5 265,-177.5 265,-147.5 154,-147.5"/>
<text text-anchor="start" x="162" y="-165.5" font-family="Helvetica,sans-Serif" font-size="10.00">nlohmann::basic_json</text>
<text text-anchor="middle" x="209.5" y="-154.5" font-family="Helvetica,sans-Serif" font-size="10.00">::erase</text>
</a>
</g>
</g>
<!-- Node1&#45;&gt;Node5 -->
<g id="edge4" class="edge"><title>Node1&#45;&gt;Node5</title>
<path fill="none" stroke="midnightblue" d="M305.86,-193.241C289.828,-188.073 272.564,-182.508 257.191,-177.552"/>
<polygon fill="midnightblue" stroke="midnightblue" points="305.063,-196.661 315.655,-196.399 307.211,-189.999 305.063,-196.661"/>
</g>
<!-- Node6 -->
<g id="node6" class="node"><title>Node6</title>
<g id="a_node6"><a xlink:href="../../d9/dcc/classnlohmann_1_1basic__json.xhtml#a0136728f5db69d4051c77b94307abd6c" target="_top" xlink:title="inserts element">
<polygon fill="none" stroke="black" points="154,-294.5 154,-324.5 265,-324.5 265,-294.5 154,-294.5"/>
<text text-anchor="start" x="162" y="-312.5" font-family="Helvetica,sans-Serif" font-size="10.00">nlohmann::basic_json</text>
<text text-anchor="middle" x="209.5" y="-301.5" font-family="Helvetica,sans-Serif" font-size="10.00">::insert</text>
</a>
</g>
</g>
<!-- Node1&#45;&gt;Node6 -->
<g id="edge5" class="edge"><title>Node1&#45;&gt;Node6</title>
<path fill="none" stroke="midnightblue" d="M339.096,-233.594C321.611,-249.27 296.584,-270.015 272,-284.5 265.843,-288.127 259.062,-291.464 252.319,-294.438"/>
<polygon fill="midnightblue" stroke="midnightblue" points="341.533,-236.11 346.571,-226.789 336.82,-230.933 341.533,-236.11"/>
</g>
<!-- Node9 -->
<g id="node9" class="node"><title>Node9</title>
<g id="a_node9"><a xlink:href="../../d9/dcc/classnlohmann_1_1basic__json.xhtml#a9f68a0af820c3ced7f9d17851ce4c22d" target="_top" xlink:title="return whether type is structured">
<polygon fill="none" stroke="black" points="154,-98.5 154,-128.5 265,-128.5 265,-98.5 154,-98.5"/>
<text text-anchor="start" x="162" y="-116.5" font-family="Helvetica,sans-Serif" font-size="10.00">nlohmann::basic_json</text>
<text text-anchor="middle" x="209.5" y="-105.5" font-family="Helvetica,sans-Serif" font-size="10.00">::is_structured</text>
</a>
</g>
</g>
<!-- Node1&#45;&gt;Node9 -->
<g id="edge9" class="edge"><title>Node1&#45;&gt;Node9</title>
<path fill="none" stroke="midnightblue" d="M339.847,-189.561C322.392,-173.541 297.074,-152.149 272,-137.5 266.458,-134.262 260.398,-131.293 254.311,-128.629"/>
<polygon fill="midnightblue" stroke="midnightblue" points="337.585,-192.237 347.284,-196.5 342.36,-187.119 337.585,-192.237"/>
</g>
<!-- Node10 -->
<g id="node10" class="node"><title>Node10</title>
<g id="a_node10"><a xlink:href="../../d9/dcc/classnlohmann_1_1basic__json.xhtml#ac871e3b03fb2eeca9a8de4db2bea760f" target="_top" xlink:title="access specified array element">
<polygon fill="none" stroke="black" points="154,-49.5 154,-79.5 265,-79.5 265,-49.5 154,-49.5"/>
<text text-anchor="start" x="162" y="-67.5" font-family="Helvetica,sans-Serif" font-size="10.00">nlohmann::basic_json</text>
<text text-anchor="middle" x="209.5" y="-56.5" font-family="Helvetica,sans-Serif" font-size="10.00">::operator[]</text>
</a>
</g>
</g>
<!-- Node1&#45;&gt;Node10 -->
<g id="edge10" class="edge"><title>Node1&#45;&gt;Node10</title>
<path fill="none" stroke="midnightblue" d="M350.345,-187.582C335.33,-160.198 307.378,-115.633 272,-88.5 267.635,-85.152 262.744,-82.2157 257.679,-79.6545"/>
<polygon fill="midnightblue" stroke="midnightblue" points="347.308,-189.325 355.107,-196.496 353.482,-186.026 347.308,-189.325"/>
</g>
<!-- Node12 -->
<g id="node12" class="node"><title>Node12</title>
<g id="a_node12"><a xlink:href="../../d9/dcc/classnlohmann_1_1basic__json.xhtml#ac8e523ddc8c2dd7e5d2daf0d49a9c0d7" target="_top" xlink:title="add an object to an array">
<polygon fill="none" stroke="black" points="154,-245.5 154,-275.5 265,-275.5 265,-245.5 154,-245.5"/>
<text text-anchor="start" x="162" y="-263.5" font-family="Helvetica,sans-Serif" font-size="10.00">nlohmann::basic_json</text>
<text text-anchor="middle" x="209.5" y="-252.5" font-family="Helvetica,sans-Serif" font-size="10.00">::push_back</text>
</a>
</g>
</g>
<!-- Node1&#45;&gt;Node12 -->
<g id="edge13" class="edge"><title>Node1&#45;&gt;Node12</title>
<path fill="none" stroke="midnightblue" d="M305.86,-229.759C289.828,-234.927 272.564,-240.492 257.191,-245.448"/>
<polygon fill="midnightblue" stroke="midnightblue" points="307.211,-233.001 315.655,-226.601 305.063,-226.339 307.211,-233.001"/>
</g>
<!-- Node15 -->
<g id="node15" class="node"><title>Node15</title>
<g id="a_node15"><a xlink:href="../../d9/dcc/classnlohmann_1_1basic__json.xhtml#a65b0a24e1361a030ad0a661de22f6c8e" target="_top" xlink:title="exchanges the values">
<polygon fill="none" stroke="black" points="154,-0.5 154,-30.5 265,-30.5 265,-0.5 154,-0.5"/>
<text text-anchor="start" x="162" y="-18.5" font-family="Helvetica,sans-Serif" font-size="10.00">nlohmann::basic_json</text>
<text text-anchor="middle" x="209.5" y="-7.5" font-family="Helvetica,sans-Serif" font-size="10.00">::swap</text>
</a>
</g>
</g>
<!-- Node1&#45;&gt;Node15 -->
<g id="edge18" class="edge"><title>Node1&#45;&gt;Node15</title>
<path fill="none" stroke="midnightblue" d="M355.498,-186.414C343.96,-149.418 317.571,-80.2214 272,-39.5 268.154,-36.0634 263.76,-33.0935 259.129,-30.5322"/>
<polygon fill="midnightblue" stroke="midnightblue" points="352.259,-187.798 358.485,-196.37 358.964,-185.786 352.259,-187.798"/>
</g>
<!-- Node2&#45;&gt;Node3 -->
<g id="edge2" class="edge"><title>Node2&#45;&gt;Node3</title>
<path fill="none" stroke="midnightblue" d="M154.518,-379.78C140.45,-376.726 125.281,-373.433 111.178,-370.371"/>
<polygon fill="midnightblue" stroke="midnightblue" points="154.02,-383.254 164.535,-381.955 155.506,-376.413 154.02,-383.254"/>
</g>
<!-- Node6&#45;&gt;Node3 -->
<g id="edge8" class="edge"><title>Node6&#45;&gt;Node3</title>
<path fill="none" stroke="midnightblue" d="M151.86,-327.759C135.828,-332.927 118.564,-338.492 103.191,-343.448"/>
<polygon fill="midnightblue" stroke="midnightblue" points="153.211,-331.001 161.655,-324.601 151.063,-324.339 153.211,-331.001"/>
</g>
<!-- Node7 -->
<g id="node7" class="node"><title>Node7</title>
<g id="a_node7"><a xlink:href="../../d9/dcc/classnlohmann_1_1basic__json.xhtml#a543bd5f7490de54c875b2c0912dc9a49" target="_top" xlink:title="creates a diff as a JSON patch">
<polygon fill="none" stroke="black" points="0,-245.5 0,-275.5 111,-275.5 111,-245.5 0,-245.5"/>
<text text-anchor="start" x="8" y="-263.5" font-family="Helvetica,sans-Serif" font-size="10.00">nlohmann::basic_json</text>
<text text-anchor="middle" x="55.5" y="-252.5" font-family="Helvetica,sans-Serif" font-size="10.00">::diff</text>
</a>
</g>
</g>
<!-- Node6&#45;&gt;Node7 -->
<g id="edge6" class="edge"><title>Node6&#45;&gt;Node7</title>
<path fill="none" stroke="midnightblue" d="M151.86,-291.241C135.828,-286.073 118.564,-280.508 103.191,-275.552"/>
<polygon fill="midnightblue" stroke="midnightblue" points="151.063,-294.661 161.655,-294.399 153.211,-287.999 151.063,-294.661"/>
</g>
<!-- Node8 -->
<g id="node8" class="node"><title>Node8</title>
<g id="a_node8"><a xlink:href="../../d9/dcc/classnlohmann_1_1basic__json.xhtml#a1ecce113ff11dd294689ee4d45cbb855" target="_top" xlink:title="inserts element">
<polygon fill="none" stroke="black" points="0,-294.5 0,-324.5 111,-324.5 111,-294.5 0,-294.5"/>
<text text-anchor="start" x="8" y="-312.5" font-family="Helvetica,sans-Serif" font-size="10.00">nlohmann::basic_json</text>
<text text-anchor="middle" x="55.5" y="-301.5" font-family="Helvetica,sans-Serif" font-size="10.00">::insert</text>
</a>
</g>
</g>
<!-- Node6&#45;&gt;Node8 -->
<g id="edge7" class="edge"><title>Node6&#45;&gt;Node8</title>
<path fill="none" stroke="midnightblue" d="M143.404,-309.5C132.617,-309.5 121.531,-309.5 111.04,-309.5"/>
<polygon fill="midnightblue" stroke="midnightblue" points="143.625,-313 153.625,-309.5 143.624,-306 143.625,-313"/>
</g>
<!-- Node11 -->
<g id="node11" class="node"><title>Node11</title>
<g id="a_node11"><a xlink:href="../../d9/dcc/classnlohmann_1_1basic__json.xhtml#a1416bbec9d9a8eeca21c213cf5290868" target="_top" xlink:title="access specified object element">
<polygon fill="none" stroke="black" points="0,-49.5 0,-79.5 111,-79.5 111,-49.5 0,-49.5"/>
<text text-anchor="start" x="8" y="-67.5" font-family="Helvetica,sans-Serif" font-size="10.00">nlohmann::basic_json</text>
<text text-anchor="middle" x="55.5" y="-56.5" font-family="Helvetica,sans-Serif" font-size="10.00">::operator[]</text>
</a>
</g>
</g>
<!-- Node10&#45;&gt;Node11 -->
<g id="edge11" class="edge"><title>Node10&#45;&gt;Node11</title>
<path fill="none" stroke="midnightblue" d="M143.404,-64.5C132.617,-64.5 121.531,-64.5 111.04,-64.5"/>
<polygon fill="midnightblue" stroke="midnightblue" points="143.625,-68.0001 153.625,-64.5 143.624,-61.0001 143.625,-68.0001"/>
</g>
<!-- Node12&#45;&gt;Node3 -->
<g id="edge16" class="edge"><title>Node12&#45;&gt;Node3</title>
<path fill="none" stroke="midnightblue" d="M152.539,-280.598C150.621,-281.831 148.766,-283.131 147,-284.5 125.358,-301.276 132.279,-317.265 111,-334.5 106.903,-337.819 102.275,-340.768 97.4907,-343.362"/>
<polygon fill="midnightblue" stroke="midnightblue" points="154.333,-283.604 161.287,-275.61 150.866,-277.523 154.333,-283.604"/>
</g>
<!-- Node12&#45;&gt;Node7 -->
<g id="edge14" class="edge"><title>Node12&#45;&gt;Node7</title>
<path fill="none" stroke="midnightblue" d="M143.404,-260.5C132.617,-260.5 121.531,-260.5 111.04,-260.5"/>
<polygon fill="midnightblue" stroke="midnightblue" points="143.625,-264 153.625,-260.5 143.624,-257 143.625,-264"/>
</g>
<!-- Node13 -->
<g id="node13" class="node"><title>Node13</title>
<g id="a_node13"><a xlink:href="../../d9/dcc/classnlohmann_1_1basic__json.xhtml#aea1085f2d35cc0e1ce119cf0110119e6" target="_top" xlink:title="add an object to an array">
<polygon fill="none" stroke="black" points="0,-196.5 0,-226.5 111,-226.5 111,-196.5 0,-196.5"/>
<text text-anchor="start" x="8" y="-214.5" font-family="Helvetica,sans-Serif" font-size="10.00">nlohmann::basic_json</text>
<text text-anchor="middle" x="55.5" y="-203.5" font-family="Helvetica,sans-Serif" font-size="10.00">::operator+=</text>
</a>
</g>
</g>
<!-- Node12&#45;&gt;Node13 -->
<g id="edge15" class="edge"><title>Node12&#45;&gt;Node13</title>
<path fill="none" stroke="midnightblue" d="M151.86,-242.241C135.828,-237.073 118.564,-231.508 103.191,-226.552"/>
<polygon fill="midnightblue" stroke="midnightblue" points="151.063,-245.661 161.655,-245.399 153.211,-238.999 151.063,-245.661"/>
</g>
<!-- Node14 -->
<g id="node14" class="node"><title>Node14</title>
<g id="a_node14"><a xlink:href="../../d9/dcc/classnlohmann_1_1basic__json.xhtml#ab2716cbe2e997ab8309926b87f044434" target="_top" xlink:title="add an object to an object">
<polygon fill="none" stroke="black" points="0,-147.5 0,-177.5 111,-177.5 111,-147.5 0,-147.5"/>
<text text-anchor="start" x="8" y="-165.5" font-family="Helvetica,sans-Serif" font-size="10.00">nlohmann::basic_json</text>
<text text-anchor="middle" x="55.5" y="-154.5" font-family="Helvetica,sans-Serif" font-size="10.00">::push_back</text>
</a>
</g>
</g>
<!-- Node12&#45;&gt;Node14 -->
<g id="edge17" class="edge"><title>Node12&#45;&gt;Node14</title>
<path fill="none" stroke="midnightblue" d="M154.151,-240.464C151.659,-238.913 149.259,-237.259 147,-235.5 125.679,-218.897 132.081,-203.408 111,-186.5 106.806,-183.136 102.067,-180.149 97.1782,-177.524"/>
<polygon fill="midnightblue" stroke="midnightblue" points="152.47,-243.534 162.908,-245.351 155.882,-237.421 152.47,-243.534"/>
</g>
</g>
</svg>
