<?xml version="1.0" encoding="UTF-8" standalone="no"?>
<!DOCTYPE svg PUBLIC "-//W3C//DTD SVG 1.1//EN"
 "http://www.w3.org/Graphics/SVG/1.1/DTD/svg11.dtd">
<!-- Generated by graphviz version 2.38.0 (20140413.2041)
 -->
<!-- Title: nlohmann::basic_json::patch Pages: 1 -->
<!--zoomable 513 -->
<svg id="main" version="1.1" xmlns="http://www.w3.org/2000/svg" xmlns:xlink="http://www.w3.org/1999/xlink" xml:space="preserve" onload="init(evt)">
<style type="text/css"><![CDATA[
.edge:hover path { stroke: red; }
.edge:hover polygon { stroke: red; fill: red; }
]]></style>
<script type="text/javascript"><![CDATA[
var edges = document.getElementsByTagName('g');
if (edges && edges.length) {
  for (var i=0;i<edges.length;i++) {
    if (edges[i].id.substr(0,4)=='edge') {
      edges[i].setAttribute('class','edge');
    }
  }
}
]]></script>
        <defs>
                <circle id="rim" cx="0" cy="0" r="7"/>
                <circle id="rim2" cx="0" cy="0" r="3.5"/>
                <g id="zoomPlus">
                        <use xlink:href="#rim" fill="#404040">
                                <set attributeName="fill" to="#808080" begin="zoomplus.mouseover" end="zoomplus.mouseout"/>
                        </use>
                        <path d="M-4,0h8M0,-4v8" fill="none" stroke="white" stroke-width="1.5" pointer-events="none"/>
                </g>
                <g id="zoomMin">
                        <use xlink:href="#rim" fill="#404040">
                                <set attributeName="fill" to="#808080" begin="zoomminus.mouseover" end="zoomminus.mouseout"/>
                        </use>
                        <path d="M-4,0h8" fill="none" stroke="white" stroke-width="1.5" pointer-events="none"/>
                </g>
                <g id="dirArrow">
                        <path fill="none" stroke="white" stroke-width="1.5" d="M0,-3.0v7 M-2.5,-0.5L0,-3.0L2.5,-0.5"/>
                </g>
               <g id="resetDef">
                       <use xlink:href="#rim2" fill="#404040">
                               <set attributeName="fill" to="#808080" begin="reset.mouseover" end="reset.mouseout"/>
                       </use>
               </g>
        </defs>

<script type="text/javascript">
var viewWidth = 449;
var viewHeight = 513;
var sectionId = 'dynsection-58';
</script>
<script xlink:href="../../svgpan.js"/>
<svg id="graph" class="graph">
<g id="viewport">
<title>nlohmann::basic_json::patch</title>
<!-- Node1 -->
<g id="node1" class="node"><title>Node1</title>
<g id="a_node1"><a xlink:title="applies a JSON patch">
<polygon fill="#bfbfbf" stroke="black" points="0,-249.5 0,-279.5 111,-279.5 111,-249.5 0,-249.5"/>
<text text-anchor="start" x="8" y="-267.5" font-family="Helvetica,sans-Serif" font-size="10.00">nlohmann::basic_json</text>
<text text-anchor="middle" x="55.5" y="-256.5" font-family="Helvetica,sans-Serif" font-size="10.00">::patch</text>
</a>
</g>
</g>
<!-- Node2 -->
<g id="node2" class="node"><title>Node2</title>
<g id="a_node2"><a xlink:href="../../d9/dcc/classnlohmann_1_1basic__json.xhtml#a73ae333487310e3302135189ce8ff5d8" target="_top" xlink:title="access specified array element with bounds checking">
<polygon fill="none" stroke="black" points="147,-422 147,-441 272,-441 272,-422 147,-422"/>
<text text-anchor="middle" x="209.5" y="-429" font-family="Helvetica,sans-Serif" font-size="10.00">nlohmann::basic_json::at</text>
</a>
</g>
</g>
<!-- Node1&#45;&gt;Node2 -->
<g id="edge1" class="edge"><title>Node1&#45;&gt;Node2</title>
<path fill="none" stroke="midnightblue" d="M61.5687,-279.565C72.394,-309.45 100.633,-376.455 147,-412.5 149.436,-414.394 152.062,-416.1 154.808,-417.637"/>
<polygon fill="midnightblue" stroke="midnightblue" points="153.374,-420.831 163.905,-421.993 156.398,-414.518 153.374,-420.831"/>
</g>
<!-- Node3 -->
<g id="node3" class="node"><title>Node3</title>
<g id="a_node3"><a xlink:href="../../d9/dcc/classnlohmann_1_1basic__json.xhtml#aef9ce5dd2381caee1f8ddcdb5bdd9c65" target="_top" xlink:title="return whether value is an array">
<polygon fill="none" stroke="black" points="319,-390.5 319,-420.5 430,-420.5 430,-390.5 319,-390.5"/>
<text text-anchor="start" x="327" y="-408.5" font-family="Helvetica,sans-Serif" font-size="10.00">nlohmann::basic_json</text>
<text text-anchor="middle" x="374.5" y="-397.5" font-family="Helvetica,sans-Serif" font-size="10.00">::is_array</text>
</a>
</g>
</g>
<!-- Node1&#45;&gt;Node3 -->
<g id="edge17" class="edge"><title>Node1&#45;&gt;Node3</title>
<path fill="none" stroke="midnightblue" d="M58.4973,-279.596C64.3,-316.605 84.8914,-411.649 147,-450.5 207.862,-488.571 294.398,-451.367 340.914,-425.567"/>
<polygon fill="midnightblue" stroke="midnightblue" points="342.707,-428.574 349.665,-420.584 339.243,-422.491 342.707,-428.574"/>
</g>
<!-- Node4 -->
<g id="node4" class="node"><title>Node4</title>
<g id="a_node4"><a xlink:href="../../d7/d9f/namespacenlohmann_1_1std__support.xhtml#a4e2d47525849f8d33f495cb20a4064ae" target="_top" xlink:title=" ">
<polygon fill="none" stroke="black" points="316.5,-474.5 316.5,-504.5 432.5,-504.5 432.5,-474.5 316.5,-474.5"/>
<text text-anchor="start" x="324.5" y="-492.5" font-family="Helvetica,sans-Serif" font-size="10.00">nlohmann::std_support</text>
<text text-anchor="middle" x="374.5" y="-481.5" font-family="Helvetica,sans-Serif" font-size="10.00">::to_string</text>
</a>
</g>
</g>
<!-- Node1&#45;&gt;Node4 -->
<g id="edge25" class="edge"><title>Node1&#45;&gt;Node4</title>
<path fill="none" stroke="midnightblue" d="M57.9062,-279.54C62.4763,-318.948 80.7034,-425.404 147,-472.5 192.77,-505.014 257.686,-506.621 306.296,-501.642"/>
<polygon fill="midnightblue" stroke="midnightblue" points="306.87,-505.099 316.408,-500.488 306.076,-498.145 306.87,-505.099"/>
</g>
<!-- Node6 -->
<g id="node6" class="node"><title>Node6</title>
<g id="a_node6"><a xlink:href="../../d9/dcc/classnlohmann_1_1basic__json.xhtml#a0ff28dac23f2bdecee9564d07f51dcdc" target="_top" xlink:title="returns an iterator to the first element">
<polygon fill="none" stroke="black" points="154,-372.5 154,-402.5 265,-402.5 265,-372.5 154,-372.5"/>
<text text-anchor="start" x="162" y="-390.5" font-family="Helvetica,sans-Serif" font-size="10.00">nlohmann::basic_json</text>
<text text-anchor="middle" x="209.5" y="-379.5" font-family="Helvetica,sans-Serif" font-size="10.00">::begin</text>
</a>
</g>
</g>
<!-- Node1&#45;&gt;Node6 -->
<g id="edge5" class="edge"><title>Node1&#45;&gt;Node6</title>
<path fill="none" stroke="midnightblue" d="M66.8073,-279.583C82.0748,-300.916 112.624,-339.924 147,-363.5 149.15,-364.975 151.404,-366.377 153.726,-367.708"/>
<polygon fill="midnightblue" stroke="midnightblue" points="152.456,-370.992 162.945,-372.49 155.68,-364.778 152.456,-370.992"/>
</g>
<!-- Node7 -->
<g id="node7" class="node"><title>Node7</title>
<g id="a_node7"><a xlink:href="../../d9/dcc/classnlohmann_1_1basic__json.xhtml#a13e032a02a7fd8a93fdddc2fcbc4763c" target="_top" xlink:title="returns an iterator to one past the last element">
<polygon fill="none" stroke="black" points="308,-187 308,-206 441,-206 441,-187 308,-187"/>
<text text-anchor="middle" x="374.5" y="-194" font-family="Helvetica,sans-Serif" font-size="10.00">nlohmann::basic_json::end</text>
</a>
</g>
</g>
<!-- Node1&#45;&gt;Node7 -->
<g id="edge6" class="edge"><title>Node1&#45;&gt;Node7</title>
<path fill="none" stroke="midnightblue" d="M78.842,-249.383C96.5231,-238.248 122.273,-223.821 147,-216.5 195.812,-202.047 252.92,-197.08 297.582,-195.71"/>
<polygon fill="midnightblue" stroke="midnightblue" points="297.874,-199.204 307.782,-195.452 297.697,-192.206 297.874,-199.204"/>
</g>
<!-- Node8 -->
<g id="node8" class="node"><title>Node8</title>
<g id="a_node8"><a xlink:href="../../d9/dcc/classnlohmann_1_1basic__json.xhtml#a068a16e76be178e83da6a192916923ed" target="_top" xlink:title="remove element given an iterator">
<polygon fill="none" stroke="black" points="154,-225.5 154,-255.5 265,-255.5 265,-225.5 154,-225.5"/>
<text text-anchor="start" x="162" y="-243.5" font-family="Helvetica,sans-Serif" font-size="10.00">nlohmann::basic_json</text>
<text text-anchor="middle" x="209.5" y="-232.5" font-family="Helvetica,sans-Serif" font-size="10.00">::erase</text>
</a>
</g>
</g>
<!-- Node1&#45;&gt;Node8 -->
<g id="edge7" class="edge"><title>Node1&#45;&gt;Node8</title>
<path fill="none" stroke="midnightblue" d="M111.375,-255.835C121.988,-254.16 133.197,-252.39 144.082,-250.671"/>
<polygon fill="midnightblue" stroke="midnightblue" points="144.628,-254.128 153.96,-249.112 143.536,-247.214 144.628,-254.128"/>
</g>
<!-- Node10 -->
<g id="node10" class="node"><title>Node10</title>
<g id="a_node10"><a xlink:href="../../d9/dcc/classnlohmann_1_1basic__json.xhtml#aeed33787bd362c7ead59a4ba945392db" target="_top" xlink:title="find an element in a JSON object">
<polygon fill="none" stroke="black" points="154,-137.5 154,-167.5 265,-167.5 265,-137.5 154,-137.5"/>
<text text-anchor="start" x="162" y="-155.5" font-family="Helvetica,sans-Serif" font-size="10.00">nlohmann::basic_json</text>
<text text-anchor="middle" x="209.5" y="-144.5" font-family="Helvetica,sans-Serif" font-size="10.00">::find</text>
</a>
</g>
</g>
<!-- Node1&#45;&gt;Node10 -->
<g id="edge11" class="edge"><title>Node1&#45;&gt;Node10</title>
<path fill="none" stroke="midnightblue" d="M70.4709,-249.484C87.3907,-231.887 117.326,-202.584 147,-182.5 152.359,-178.873 158.221,-175.431 164.131,-172.26"/>
<polygon fill="midnightblue" stroke="midnightblue" points="166.088,-175.19 173.39,-167.512 162.894,-168.961 166.088,-175.19"/>
</g>
<!-- Node11 -->
<g id="node11" class="node"><title>Node11</title>
<g id="a_node11"><a xlink:href="../../d9/dcc/classnlohmann_1_1basic__json.xhtml#af8f511af124e82e4579f444b4175787c" target="_top" xlink:title="return whether value is an object">
<polygon fill="none" stroke="black" points="319,-115.5 319,-145.5 430,-145.5 430,-115.5 319,-115.5"/>
<text text-anchor="start" x="327" y="-133.5" font-family="Helvetica,sans-Serif" font-size="10.00">nlohmann::basic_json</text>
<text text-anchor="middle" x="374.5" y="-122.5" font-family="Helvetica,sans-Serif" font-size="10.00">::is_object</text>
</a>
</g>
</g>
<!-- Node1&#45;&gt;Node11 -->
<g id="edge18" class="edge"><title>Node1&#45;&gt;Node11</title>
<path fill="none" stroke="midnightblue" d="M61.128,-249.356C71.1612,-219.538 98.0467,-153.832 147,-127.5 196.471,-100.889 261.251,-104.909 308.855,-113.661"/>
<polygon fill="midnightblue" stroke="midnightblue" points="308.255,-117.11 318.741,-115.591 309.597,-110.24 308.255,-117.11"/>
</g>
<!-- Node12 -->
<g id="node12" class="node"><title>Node12</title>
<g id="a_node12"><a xlink:href="../../d9/dcc/classnlohmann_1_1basic__json.xhtml#a0136728f5db69d4051c77b94307abd6c" target="_top" xlink:title="inserts element">
<polygon fill="none" stroke="black" points="154,-323.5 154,-353.5 265,-353.5 265,-323.5 154,-323.5"/>
<text text-anchor="start" x="162" y="-341.5" font-family="Helvetica,sans-Serif" font-size="10.00">nlohmann::basic_json</text>
<text text-anchor="middle" x="209.5" y="-330.5" font-family="Helvetica,sans-Serif" font-size="10.00">::insert</text>
</a>
</g>
</g>
<!-- Node1&#45;&gt;Node12 -->
<g id="edge14" class="edge"><title>Node1&#45;&gt;Node12</title>
<path fill="none" stroke="midnightblue" d="M81.7749,-279.648C99.6694,-290.078 124.409,-303.908 147,-314.5 150.575,-316.176 154.302,-317.836 158.075,-319.453"/>
<polygon fill="midnightblue" stroke="midnightblue" points="156.911,-322.76 167.488,-323.372 159.601,-316.297 156.911,-322.76"/>
</g>
<!-- Node13 -->
<g id="node13" class="node"><title>Node13</title>
<g id="a_node13"><a xlink:href="../../d9/dcc/classnlohmann_1_1basic__json.xhtml#ac8e523ddc8c2dd7e5d2daf0d49a9c0d7" target="_top" xlink:title="add an object to an array">
<polygon fill="none" stroke="black" points="154,-274.5 154,-304.5 265,-304.5 265,-274.5 154,-274.5"/>
<text text-anchor="start" x="162" y="-292.5" font-family="Helvetica,sans-Serif" font-size="10.00">nlohmann::basic_json</text>
<text text-anchor="middle" x="209.5" y="-281.5" font-family="Helvetica,sans-Serif" font-size="10.00">::push_back</text>
</a>
</g>
</g>
<!-- Node1&#45;&gt;Node13 -->
<g id="edge19" class="edge"><title>Node1&#45;&gt;Node13</title>
<path fill="none" stroke="midnightblue" d="M111.375,-273.526C121.988,-275.271 133.197,-277.115 144.082,-278.905"/>
<polygon fill="midnightblue" stroke="midnightblue" points="143.524,-282.36 153.96,-280.53 144.661,-275.453 143.524,-282.36"/>
</g>
<!-- Node15 -->
<g id="node15" class="node"><title>Node15</title>
<g id="a_node15"><a xlink:href="../../d9/dcc/classnlohmann_1_1basic__json.xhtml#a25e27ad0c6d53c01871c5485e1f75b96" target="_top" xlink:title="returns the number of elements">
<polygon fill="none" stroke="black" points="154,-49.5 154,-79.5 265,-79.5 265,-49.5 154,-49.5"/>
<text text-anchor="start" x="162" y="-67.5" font-family="Helvetica,sans-Serif" font-size="10.00">nlohmann::basic_json</text>
<text text-anchor="middle" x="209.5" y="-56.5" font-family="Helvetica,sans-Serif" font-size="10.00">::size</text>
</a>
</g>
</g>
<!-- Node1&#45;&gt;Node15 -->
<g id="edge23" class="edge"><title>Node1&#45;&gt;Node15</title>
<path fill="none" stroke="midnightblue" d="M60.9963,-249.356C71.2791,-217.028 99.3679,-140.477 147,-94.5 150.75,-90.8801 155.021,-87.6198 159.525,-84.7022"/>
<polygon fill="midnightblue" stroke="midnightblue" points="161.534,-87.5819 168.395,-79.5094 157.997,-81.5409 161.534,-87.5819"/>
</g>
<!-- Node16 -->
<g id="node16" class="node"><title>Node16</title>
<g id="a_node16"><a xlink:href="../../d7/d9f/namespacenlohmann_1_1std__support.xhtml#ac7419e8f359884603794c4cda1475a6a" target="_top" xlink:title=" ">
<polygon fill="none" stroke="black" points="151.5,-0.5 151.5,-30.5 267.5,-30.5 267.5,-0.5 151.5,-0.5"/>
<text text-anchor="start" x="159.5" y="-18.5" font-family="Helvetica,sans-Serif" font-size="10.00">nlohmann::std_support</text>
<text text-anchor="middle" x="209.5" y="-7.5" font-family="Helvetica,sans-Serif" font-size="10.00">::stoi</text>
</a>
</g>
</g>
<!-- Node1&#45;&gt;Node16 -->
<g id="edge24" class="edge"><title>Node1&#45;&gt;Node16</title>
<path fill="none" stroke="midnightblue" d="M58.411,-249.376C64.2166,-209.552 85.2035,-100.66 147,-39.5 148.069,-38.4418 149.19,-37.4291 150.355,-36.4599"/>
<polygon fill="midnightblue" stroke="midnightblue" points="152.422,-39.2856 158.595,-30.6753 148.4,-33.5564 152.422,-39.2856"/>
</g>
<!-- Node2&#45;&gt;Node3 -->
<g id="edge2" class="edge"><title>Node2&#45;&gt;Node3</title>
<path fill="none" stroke="midnightblue" d="M270.27,-421.966C282.816,-419.965 296.104,-417.845 308.82,-415.817"/>
<polygon fill="midnightblue" stroke="midnightblue" points="309.547,-419.245 318.871,-414.214 308.444,-412.333 309.547,-419.245"/>
</g>
<!-- Node2&#45;&gt;Node4 -->
<g id="edge3" class="edge"><title>Node2&#45;&gt;Node4</title>
<path fill="none" stroke="midnightblue" d="M237.416,-441.078C260.226,-449.194 293.593,-461.067 321.577,-471.024"/>
<polygon fill="midnightblue" stroke="midnightblue" points="320.631,-474.402 331.225,-474.457 322.977,-467.808 320.631,-474.402"/>
</g>
<!-- Node5 -->
<g id="node5" class="node"><title>Node5</title>
<g id="a_node5"><a xlink:href="../../d9/dcc/classnlohmann_1_1basic__json.xhtml#a6b75862bdb4d26650616cf9821430755" target="_top" xlink:title="return the type as string">
<polygon fill="none" stroke="black" points="319,-323.5 319,-353.5 430,-353.5 430,-323.5 319,-323.5"/>
<text text-anchor="start" x="327" y="-341.5" font-family="Helvetica,sans-Serif" font-size="10.00">nlohmann::basic_json</text>
<text text-anchor="middle" x="374.5" y="-330.5" font-family="Helvetica,sans-Serif" font-size="10.00">::type_name</text>
</a>
</g>
</g>
<!-- Node2&#45;&gt;Node5 -->
<g id="edge4" class="edge"><title>Node2&#45;&gt;Node5</title>
<path fill="none" stroke="midnightblue" d="M249.88,-421.981C257.455,-419.423 265.155,-416.286 272,-412.5 290.476,-402.28 291.139,-394.21 308,-381.5 318.184,-373.824 329.693,-366.003 340.191,-359.173"/>
<polygon fill="midnightblue" stroke="midnightblue" points="342.198,-362.043 348.72,-353.694 338.415,-356.154 342.198,-362.043"/>
</g>
<!-- Node8&#45;&gt;Node5 -->
<g id="edge10" class="edge"><title>Node8&#45;&gt;Node5</title>
<path fill="none" stroke="midnightblue" d="M256.092,-255.649C261.72,-258.476 267.18,-261.747 272,-265.5 293.321,-282.103 286.392,-298.271 308,-314.5 309.849,-315.889 311.787,-317.204 313.789,-318.449"/>
<polygon fill="midnightblue" stroke="midnightblue" points="312.464,-321.714 322.913,-323.465 315.837,-315.58 312.464,-321.714"/>
</g>
<!-- Node8&#45;&gt;Node7 -->
<g id="edge8" class="edge"><title>Node8&#45;&gt;Node7</title>
<path fill="none" stroke="midnightblue" d="M265.23,-225.726C285.707,-220.199 308.721,-213.986 328.248,-208.715"/>
<polygon fill="midnightblue" stroke="midnightblue" points="329.367,-212.039 338.109,-206.053 327.543,-205.28 329.367,-212.039"/>
</g>
<!-- Node9 -->
<g id="node9" class="node"><title>Node9</title>
<g id="a_node9"><a xlink:href="../../d9/dcc/classnlohmann_1_1basic__json.xhtml#a69b596a4a6683b362095c9a139637396" target="_top" xlink:title="return whether value is a string">
<polygon fill="none" stroke="black" points="319,-225.5 319,-255.5 430,-255.5 430,-225.5 319,-225.5"/>
<text text-anchor="start" x="327" y="-243.5" font-family="Helvetica,sans-Serif" font-size="10.00">nlohmann::basic_json</text>
<text text-anchor="middle" x="374.5" y="-232.5" font-family="Helvetica,sans-Serif" font-size="10.00">::is_string</text>
</a>
</g>
</g>
<!-- Node8&#45;&gt;Node9 -->
<g id="edge9" class="edge"><title>Node8&#45;&gt;Node9</title>
<path fill="none" stroke="midnightblue" d="M265.23,-240.5C279.147,-240.5 294.236,-240.5 308.605,-240.5"/>
<polygon fill="midnightblue" stroke="midnightblue" points="308.914,-244 318.914,-240.5 308.914,-237 308.914,-244"/>
</g>
<!-- Node10&#45;&gt;Node7 -->
<g id="edge12" class="edge"><title>Node10&#45;&gt;Node7</title>
<path fill="none" stroke="midnightblue" d="M265.23,-167.274C285.707,-172.801 308.721,-179.014 328.248,-184.285"/>
<polygon fill="midnightblue" stroke="midnightblue" points="327.543,-187.72 338.109,-186.947 329.367,-180.961 327.543,-187.72"/>
</g>
<!-- Node10&#45;&gt;Node11 -->
<g id="edge13" class="edge"><title>Node10&#45;&gt;Node11</title>
<path fill="none" stroke="midnightblue" d="M265.23,-145.113C279.147,-143.235 294.236,-141.198 308.605,-139.259"/>
<polygon fill="midnightblue" stroke="midnightblue" points="309.472,-142.674 318.914,-137.867 308.536,-135.736 309.472,-142.674"/>
</g>
<!-- Node12&#45;&gt;Node3 -->
<g id="edge15" class="edge"><title>Node12&#45;&gt;Node3</title>
<path fill="none" stroke="midnightblue" d="M247.589,-353.533C255.641,-356.809 264.109,-360.264 272,-363.5 290.311,-371.01 310.457,-379.334 327.941,-386.577"/>
<polygon fill="midnightblue" stroke="midnightblue" points="326.773,-389.882 337.351,-390.478 329.454,-383.415 326.773,-389.882"/>
</g>
<!-- Node12&#45;&gt;Node5 -->
<g id="edge16" class="edge"><title>Node12&#45;&gt;Node5</title>
<path fill="none" stroke="midnightblue" d="M265.23,-338.5C279.147,-338.5 294.236,-338.5 308.605,-338.5"/>
<polygon fill="midnightblue" stroke="midnightblue" points="308.914,-342 318.914,-338.5 308.914,-335 308.914,-342"/>
</g>
<!-- Node13&#45;&gt;Node3 -->
<g id="edge20" class="edge"><title>Node13&#45;&gt;Node3</title>
<path fill="none" stroke="midnightblue" d="M256.092,-304.649C261.72,-307.476 267.18,-310.747 272,-314.5 293.321,-331.103 288.295,-345.007 308,-363.5 316.447,-371.427 326.584,-378.756 336.331,-384.998"/>
<polygon fill="midnightblue" stroke="midnightblue" points="334.764,-388.143 345.113,-390.411 338.437,-382.184 334.764,-388.143"/>
</g>
<!-- Node13&#45;&gt;Node5 -->
<g id="edge22" class="edge"><title>Node13&#45;&gt;Node5</title>
<path fill="none" stroke="midnightblue" d="M260.735,-304.601C277.391,-309.608 296.1,-315.232 313.419,-320.439"/>
<polygon fill="midnightblue" stroke="midnightblue" points="312.846,-323.921 323.43,-323.448 314.861,-317.218 312.846,-323.921"/>
</g>
<!-- Node14 -->
<g id="node14" class="node"><title>Node14</title>
<g id="a_node14"><a xlink:href="../../d9/dcc/classnlohmann_1_1basic__json.xhtml#a8faa039ca82427ed29c486ffd00600c3" target="_top" xlink:title="return whether value is null">
<polygon fill="none" stroke="black" points="319,-274.5 319,-304.5 430,-304.5 430,-274.5 319,-274.5"/>
<text text-anchor="start" x="327" y="-292.5" font-family="Helvetica,sans-Serif" font-size="10.00">nlohmann::basic_json</text>
<text text-anchor="middle" x="374.5" y="-281.5" font-family="Helvetica,sans-Serif" font-size="10.00">::is_null</text>
</a>
</g>
</g>
<!-- Node13&#45;&gt;Node14 -->
<g id="edge21" class="edge"><title>Node13&#45;&gt;Node14</title>
<path fill="none" stroke="midnightblue" d="M265.23,-289.5C279.147,-289.5 294.236,-289.5 308.605,-289.5"/>
<polygon fill="midnightblue" stroke="midnightblue" points="308.914,-293 318.914,-289.5 308.914,-286 308.914,-293"/>
</g>
</g>
</svg>
        <g id="navigator" transform="translate(0 0)" fill="#404254">
                <rect fill="#f2f5e9" fill-opacity="0.5" stroke="#606060" stroke-width=".5" x="0" y="0" width="60" height="60"/>
                <use id="zoomplus" xlink:href="#zoomPlus" x="17" y="9" onmousedown="handleZoom(evt,'in')"/>
                <use id="zoomminus" xlink:href="#zoomMin" x="42" y="9" onmousedown="handleZoom(evt,'out')"/>
                <use id="reset" xlink:href="#resetDef" x="30" y="36" onmousedown="handleReset()"/>
                <g id="arrowUp" xlink:href="#dirArrow" transform="translate(30 24)" onmousedown="handlePan(0,-1)">
                  <use xlink:href="#rim" fill="#404040">
                        <set attributeName="fill" to="#808080" begin="arrowUp.mouseover" end="arrowUp.mouseout"/>
                  </use>
                  <path fill="none" stroke="white" stroke-width="1.5" d="M0,-3.0v7 M-2.5,-0.5L0,-3.0L2.5,-0.5"/>
                </g>
                <g id="arrowRight" xlink:href="#dirArrow" transform="rotate(90) translate(36 -43)" onmousedown="handlePan(1,0)">
                  <use xlink:href="#rim" fill="#404040">
                        <set attributeName="fill" to="#808080" begin="arrowRight.mouseover" end="arrowRight.mouseout"/>
                  </use>
                  <path fill="none" stroke="white" stroke-width="1.5" d="M0,-3.0v7 M-2.5,-0.5L0,-3.0L2.5,-0.5"/>
                </g>
                <g id="arrowDown" xlink:href="#dirArrow" transform="rotate(180) translate(-30 -48)" onmousedown="handlePan(0,1)">
                  <use xlink:href="#rim" fill="#404040">
                        <set attributeName="fill" to="#808080" begin="arrowDown.mouseover" end="arrowDown.mouseout"/>
                  </use>
                  <path fill="none" stroke="white" stroke-width="1.5" d="M0,-3.0v7 M-2.5,-0.5L0,-3.0L2.5,-0.5"/>
                </g>
                <g id="arrowLeft" xlink:href="#dirArrow" transform="rotate(270) translate(-36 17)" onmousedown="handlePan(-1,0)">
                  <use xlink:href="#rim" fill="#404040">
                        <set attributeName="fill" to="#808080" begin="arrowLeft.mouseover" end="arrowLeft.mouseout"/>
                  </use>
                  <path fill="none" stroke="white" stroke-width="1.5" d="M0,-3.0v7 M-2.5,-0.5L0,-3.0L2.5,-0.5"/>
                </g>
        </g>
        <svg viewBox="0 0 15 15" width="100%" height="30px" preserveAspectRatio="xMaxYMin meet">
         <g id="arrow_out" transform="scale(0.3 0.3)">
          <a xlink:href="classnlohmann_1_1basic__json_a81e0c41a4a9dff4df2f6973f7f8b2a83_cgraph_org.svg" target="_base">
           <rect id="button" ry="5" rx="5" y="6" x="6" height="38" width="38"
                fill="#f2f5e9" fill-opacity="0.5" stroke="#606060" stroke-width="1.0"/>
           <path id="arrow"
             d="M 11.500037,31.436501 C 11.940474,20.09759 22.043105,11.32322 32.158766,21.979434 L 37.068811,17.246167 C 37.068811,17.246167 37.088388,32 37.088388,32 L 22.160133,31.978069 C 22.160133,31.978069 26.997745,27.140456 26.997745,27.140456 C 18.528582,18.264221 13.291696,25.230495 11.500037,31.436501 z"
             style="fill:#404040;"/>
          </a>
         </g>
        </svg>
</svg>
