<?xml version="1.0" encoding="UTF-8" standalone="no"?>
<!DOCTYPE svg PUBLIC "-//W3C//DTD SVG 1.1//EN"
 "http://www.w3.org/Graphics/SVG/1.1/DTD/svg11.dtd">
<!-- Generated by graphviz version 2.38.0 (20140413.2041)
 -->
<!-- Title: nlohmann::basic_json::begin Pages: 1 -->
<svg width="266pt" height="235pt"
 viewBox="0.00 0.00 266.00 235.00" xmlns="http://www.w3.org/2000/svg" xmlns:xlink="http://www.w3.org/1999/xlink">
<g id="graph0" class="graph" transform="scale(1 1) rotate(0) translate(4 231)">
<title>nlohmann::basic_json::begin</title>
<!-- Node1 -->
<g id="node1" class="node"><title>Node1</title>
<g id="a_node1"><a xlink:title="returns an iterator to the first element">
<polygon fill="#bfbfbf" stroke="black" points="147,-98.5 147,-128.5 258,-128.5 258,-98.5 147,-98.5"/>
<text text-anchor="start" x="155" y="-116.5" font-family="Helvetica,sans-Serif" font-size="10.00">nlohmann::basic_json</text>
<text text-anchor="middle" x="202.5" y="-105.5" font-family="Helvetica,sans-Serif" font-size="10.00">::begin</text>
</a>
</g>
</g>
<!-- Node2 -->
<g id="node2" class="node"><title>Node2</title>
<g id="a_node2"><a xlink:href="../../d9/dcc/classnlohmann_1_1basic__json.xhtml#a543bd5f7490de54c875b2c0912dc9a49" target="_top" xlink:title="creates a diff as a JSON patch">
<polygon fill="none" stroke="black" points="0,-196.5 0,-226.5 111,-226.5 111,-196.5 0,-196.5"/>
<text text-anchor="start" x="8" y="-214.5" font-family="Helvetica,sans-Serif" font-size="10.00">nlohmann::basic_json</text>
<text text-anchor="middle" x="55.5" y="-203.5" font-family="Helvetica,sans-Serif" font-size="10.00">::diff</text>
</a>
</g>
</g>
<!-- Node1&#45;&gt;Node2 -->
<g id="edge1" class="edge"><title>Node1&#45;&gt;Node2</title>
<path fill="none" stroke="midnightblue" d="M178.341,-135.417C160.803,-151.248 135.606,-172.41 111,-187.5 105.8,-190.689 100.102,-193.683 94.4122,-196.402"/>
<polygon fill="midnightblue" stroke="midnightblue" points="180.818,-137.895 185.83,-128.56 176.091,-132.732 180.818,-137.895"/>
</g>
<!-- Node3 -->
<g id="node3" class="node"><title>Node3</title>
<g id="a_node3"><a xlink:href="../../d9/dcc/classnlohmann_1_1basic__json.xhtml#a5338e282d1d02bed389d852dd670d98d" target="_top" xlink:title="add an object to an object if key does not exist">
<polygon fill="none" stroke="black" points="0,-147.5 0,-177.5 111,-177.5 111,-147.5 0,-147.5"/>
<text text-anchor="start" x="8" y="-165.5" font-family="Helvetica,sans-Serif" font-size="10.00">nlohmann::basic_json</text>
<text text-anchor="middle" x="55.5" y="-154.5" font-family="Helvetica,sans-Serif" font-size="10.00">::emplace</text>
</a>
</g>
</g>
<!-- Node1&#45;&gt;Node3 -->
<g id="edge2" class="edge"><title>Node1&#45;&gt;Node3</title>
<path fill="none" stroke="midnightblue" d="M147.082,-131.89C131.984,-136.992 115.769,-142.471 101.29,-147.364"/>
<polygon fill="midnightblue" stroke="midnightblue" points="148.459,-135.119 156.812,-128.601 146.218,-128.487 148.459,-135.119"/>
</g>
<!-- Node4 -->
<g id="node4" class="node"><title>Node4</title>
<g id="a_node4"><a xlink:href="../../d9/dcc/classnlohmann_1_1basic__json.xhtml#a3acba9c6ceb7214e565fe08c3ba5b352" target="_top" xlink:title="access the first element">
<polygon fill="none" stroke="black" points="0,-98.5 0,-128.5 111,-128.5 111,-98.5 0,-98.5"/>
<text text-anchor="start" x="8" y="-116.5" font-family="Helvetica,sans-Serif" font-size="10.00">nlohmann::basic_json</text>
<text text-anchor="middle" x="55.5" y="-105.5" font-family="Helvetica,sans-Serif" font-size="10.00">::front</text>
</a>
</g>
</g>
<!-- Node1&#45;&gt;Node4 -->
<g id="edge3" class="edge"><title>Node1&#45;&gt;Node4</title>
<path fill="none" stroke="midnightblue" d="M136.538,-113.5C128.141,-113.5 119.608,-113.5 111.396,-113.5"/>
<polygon fill="midnightblue" stroke="midnightblue" points="136.682,-117 146.682,-113.5 136.682,-110 136.682,-117"/>
</g>
<!-- Node5 -->
<g id="node5" class="node"><title>Node5</title>
<g id="a_node5"><a xlink:href="../../d9/dcc/classnlohmann_1_1basic__json.xhtml#a81e0c41a4a9dff4df2f6973f7f8b2a83" target="_top" xlink:title="applies a JSON patch">
<polygon fill="none" stroke="black" points="0,-49.5 0,-79.5 111,-79.5 111,-49.5 0,-49.5"/>
<text text-anchor="start" x="8" y="-67.5" font-family="Helvetica,sans-Serif" font-size="10.00">nlohmann::basic_json</text>
<text text-anchor="middle" x="55.5" y="-56.5" font-family="Helvetica,sans-Serif" font-size="10.00">::patch</text>
</a>
</g>
</g>
<!-- Node1&#45;&gt;Node5 -->
<g id="edge4" class="edge"><title>Node1&#45;&gt;Node5</title>
<path fill="none" stroke="midnightblue" d="M147.082,-95.1104C131.984,-90.0084 115.769,-84.5289 101.29,-79.6359"/>
<polygon fill="midnightblue" stroke="midnightblue" points="146.218,-98.5128 156.812,-98.3986 148.459,-91.8813 146.218,-98.5128"/>
</g>
<!-- Node6 -->
<g id="node6" class="node"><title>Node6</title>
<g id="a_node6"><a xlink:href="../../d9/dcc/classnlohmann_1_1basic__json.xhtml#ac77aed0925d447744676725ab0b6d535" target="_top" xlink:title="returns an iterator to the reverse&#45;end">
<polygon fill="none" stroke="black" points="0,-0.5 0,-30.5 111,-30.5 111,-0.5 0,-0.5"/>
<text text-anchor="start" x="8" y="-18.5" font-family="Helvetica,sans-Serif" font-size="10.00">nlohmann::basic_json</text>
<text text-anchor="middle" x="55.5" y="-7.5" font-family="Helvetica,sans-Serif" font-size="10.00">::rend</text>
</a>
</g>
</g>
<!-- Node1&#45;&gt;Node6 -->
<g id="edge5" class="edge"><title>Node1&#45;&gt;Node6</title>
<path fill="none" stroke="midnightblue" d="M177.901,-91.7286C160.32,-76.2105 135.259,-55.5216 111,-40.5 105.247,-36.9378 98.9022,-33.5729 92.6367,-30.5346"/>
<polygon fill="midnightblue" stroke="midnightblue" points="175.636,-94.3982 185.423,-98.4558 180.302,-89.1805 175.636,-94.3982"/>
</g>
</g>
</svg>
