<?xml version="1.0" encoding="UTF-8" standalone="no"?>
<!DOCTYPE svg PUBLIC "-//W3C//DTD SVG 1.1//EN"
 "http://www.w3.org/Graphics/SVG/1.1/DTD/svg11.dtd">
<!-- Generated by graphviz version 2.38.0 (20140413.2041)
 -->
<!-- Title: nlohmann::basic_json::is_string Pages: 1 -->
<svg width="413pt" height="137pt"
 viewBox="0.00 0.00 413.00 137.00" xmlns="http://www.w3.org/2000/svg" xmlns:xlink="http://www.w3.org/1999/xlink">
<g id="graph0" class="graph" transform="scale(1 1) rotate(0) translate(4 133)">
<title>nlohmann::basic_json::is_string</title>
<!-- Node1 -->
<g id="node1" class="node"><title>Node1</title>
<g id="a_node1"><a xlink:title="return whether value is a string">
<polygon fill="#bfbfbf" stroke="black" points="294,-49.5 294,-79.5 405,-79.5 405,-49.5 294,-49.5"/>
<text text-anchor="start" x="302" y="-67.5" font-family="Helvetica,sans-Serif" font-size="10.00">nlohmann::basic_json</text>
<text text-anchor="middle" x="349.5" y="-56.5" font-family="Helvetica,sans-Serif" font-size="10.00">::is_string</text>
</a>
</g>
</g>
<!-- Node2 -->
<g id="node2" class="node"><title>Node2</title>
<g id="a_node2"><a xlink:href="../../d9/dcc/classnlohmann_1_1basic__json.xhtml#a068a16e76be178e83da6a192916923ed" target="_top" xlink:title="remove element given an iterator">
<polygon fill="none" stroke="black" points="147,-98.5 147,-128.5 258,-128.5 258,-98.5 147,-98.5"/>
<text text-anchor="start" x="155" y="-116.5" font-family="Helvetica,sans-Serif" font-size="10.00">nlohmann::basic_json</text>
<text text-anchor="middle" x="202.5" y="-105.5" font-family="Helvetica,sans-Serif" font-size="10.00">::erase</text>
</a>
</g>
</g>
<!-- Node1&#45;&gt;Node2 -->
<g id="edge1" class="edge"><title>Node1&#45;&gt;Node2</title>
<path fill="none" stroke="midnightblue" d="M294.082,-82.8896C278.984,-87.9916 262.769,-93.4711 248.29,-98.3641"/>
<polygon fill="midnightblue" stroke="midnightblue" points="295.459,-86.1187 303.812,-79.6014 293.218,-79.4872 295.459,-86.1187"/>
</g>
<!-- Node4 -->
<g id="node4" class="node"><title>Node4</title>
<g id="a_node4"><a xlink:href="../../d9/dcc/classnlohmann_1_1basic__json.xhtml#a6362b88718eb5c6d4fed6a61eed44b95" target="_top" xlink:title="return whether type is primitive">
<polygon fill="none" stroke="black" points="147,-49.5 147,-79.5 258,-79.5 258,-49.5 147,-49.5"/>
<text text-anchor="start" x="155" y="-67.5" font-family="Helvetica,sans-Serif" font-size="10.00">nlohmann::basic_json</text>
<text text-anchor="middle" x="202.5" y="-56.5" font-family="Helvetica,sans-Serif" font-size="10.00">::is_primitive</text>
</a>
</g>
</g>
<!-- Node1&#45;&gt;Node4 -->
<g id="edge3" class="edge"><title>Node1&#45;&gt;Node4</title>
<path fill="none" stroke="midnightblue" d="M283.538,-64.5C275.141,-64.5 266.608,-64.5 258.396,-64.5"/>
<polygon fill="midnightblue" stroke="midnightblue" points="283.682,-68.0001 293.682,-64.5 283.682,-61.0001 283.682,-68.0001"/>
</g>
<!-- Node5 -->
<g id="node5" class="node"><title>Node5</title>
<g id="a_node5"><a xlink:href="../../d9/dcc/classnlohmann_1_1basic__json.xhtml#adaa1ed0a889d86c8e0216a3d66980f76" target="_top" xlink:title="exchanges the values">
<polygon fill="none" stroke="black" points="147,-0.5 147,-30.5 258,-30.5 258,-0.5 147,-0.5"/>
<text text-anchor="start" x="155" y="-18.5" font-family="Helvetica,sans-Serif" font-size="10.00">nlohmann::basic_json</text>
<text text-anchor="middle" x="202.5" y="-7.5" font-family="Helvetica,sans-Serif" font-size="10.00">::swap</text>
</a>
</g>
</g>
<!-- Node1&#45;&gt;Node5 -->
<g id="edge4" class="edge"><title>Node1&#45;&gt;Node5</title>
<path fill="none" stroke="midnightblue" d="M294.082,-46.1104C278.984,-41.0084 262.769,-35.5289 248.29,-30.6359"/>
<polygon fill="midnightblue" stroke="midnightblue" points="293.218,-49.5128 303.812,-49.3986 295.459,-42.8813 293.218,-49.5128"/>
</g>
<!-- Node3 -->
<g id="node3" class="node"><title>Node3</title>
<g id="a_node3"><a xlink:href="../../d9/dcc/classnlohmann_1_1basic__json.xhtml#a81e0c41a4a9dff4df2f6973f7f8b2a83" target="_top" xlink:title="applies a JSON patch">
<polygon fill="none" stroke="black" points="0,-98.5 0,-128.5 111,-128.5 111,-98.5 0,-98.5"/>
<text text-anchor="start" x="8" y="-116.5" font-family="Helvetica,sans-Serif" font-size="10.00">nlohmann::basic_json</text>
<text text-anchor="middle" x="55.5" y="-105.5" font-family="Helvetica,sans-Serif" font-size="10.00">::patch</text>
</a>
</g>
</g>
<!-- Node2&#45;&gt;Node3 -->
<g id="edge2" class="edge"><title>Node2&#45;&gt;Node3</title>
<path fill="none" stroke="midnightblue" d="M136.538,-113.5C128.141,-113.5 119.608,-113.5 111.396,-113.5"/>
<polygon fill="midnightblue" stroke="midnightblue" points="136.682,-117 146.682,-113.5 136.682,-110 136.682,-117"/>
</g>
</g>
</svg>
