<?xml version="1.0" encoding="UTF-8" standalone="no"?>
<!DOCTYPE svg PUBLIC "-//W3C//DTD SVG 1.1//EN"
 "http://www.w3.org/Graphics/SVG/1.1/DTD/svg11.dtd">
<!-- Generated by graphviz version 2.38.0 (20140413.2041)
 -->
<!-- Title: nlohmann::basic_json::value Pages: 1 -->
<svg width="435pt" height="146pt"
 viewBox="0.00 0.00 435.00 146.26" xmlns="http://www.w3.org/2000/svg" xmlns:xlink="http://www.w3.org/1999/xlink">
<g id="graph0" class="graph" transform="scale(1 1) rotate(0) translate(4 142.264)">
<title>nlohmann::basic_json::value</title>
<!-- Node1 -->
<g id="node1" class="node"><title>Node1</title>
<g id="a_node1"><a xlink:title="access specified object element with default value">
<polygon fill="#bfbfbf" stroke="black" points="0,-66.5 0,-96.5 111,-96.5 111,-66.5 0,-66.5"/>
<text text-anchor="start" x="8" y="-84.5" font-family="Helvetica,sans-Serif" font-size="10.00">nlohmann::basic_json</text>
<text text-anchor="middle" x="55.5" y="-73.5" font-family="Helvetica,sans-Serif" font-size="10.00">::value</text>
</a>
</g>
</g>
<!-- Node2 -->
<g id="node2" class="node"><title>Node2</title>
<g id="a_node2"><a xlink:href="../../d9/dcc/classnlohmann_1_1basic__json.xhtml#a13e032a02a7fd8a93fdddc2fcbc4763c" target="_top" xlink:title="returns an iterator to one past the last element">
<polygon fill="none" stroke="black" points="294,-116 294,-135 427,-135 427,-116 294,-116"/>
<text text-anchor="middle" x="360.5" y="-123" font-family="Helvetica,sans-Serif" font-size="10.00">nlohmann::basic_json::end</text>
</a>
</g>
</g>
<!-- Node1&#45;&gt;Node2 -->
<g id="edge1" class="edge"><title>Node1&#45;&gt;Node2</title>
<path fill="none" stroke="midnightblue" d="M78.3595,-96.6794C95.985,-107.944 121.89,-122.368 147,-128.5 191.442,-139.352 242.684,-138.988 283.713,-135.727"/>
<polygon fill="midnightblue" stroke="midnightblue" points="284.255,-139.193 293.914,-134.841 283.648,-132.22 284.255,-139.193"/>
</g>
<!-- Node3 -->
<g id="node3" class="node"><title>Node3</title>
<g id="a_node3"><a xlink:href="../../d9/dcc/classnlohmann_1_1basic__json.xhtml#aeed33787bd362c7ead59a4ba945392db" target="_top" xlink:title="find an element in a JSON object">
<polygon fill="none" stroke="black" points="147,-88.5 147,-118.5 258,-118.5 258,-88.5 147,-88.5"/>
<text text-anchor="start" x="155" y="-106.5" font-family="Helvetica,sans-Serif" font-size="10.00">nlohmann::basic_json</text>
<text text-anchor="middle" x="202.5" y="-95.5" font-family="Helvetica,sans-Serif" font-size="10.00">::find</text>
</a>
</g>
</g>
<!-- Node1&#45;&gt;Node3 -->
<g id="edge2" class="edge"><title>Node1&#45;&gt;Node3</title>
<path fill="none" stroke="midnightblue" d="M111.318,-89.8173C119.529,-91.063 128.061,-92.3575 136.459,-93.6317"/>
<polygon fill="midnightblue" stroke="midnightblue" points="136.192,-97.1312 146.604,-95.171 137.242,-90.2104 136.192,-97.1312"/>
</g>
<!-- Node4 -->
<g id="node4" class="node"><title>Node4</title>
<g id="a_node4"><a xlink:href="../../d9/dcc/classnlohmann_1_1basic__json.xhtml#af8f511af124e82e4579f444b4175787c" target="_top" xlink:title="return whether value is an object">
<polygon fill="none" stroke="black" points="305,-55.5 305,-85.5 416,-85.5 416,-55.5 305,-55.5"/>
<text text-anchor="start" x="313" y="-73.5" font-family="Helvetica,sans-Serif" font-size="10.00">nlohmann::basic_json</text>
<text text-anchor="middle" x="360.5" y="-62.5" font-family="Helvetica,sans-Serif" font-size="10.00">::is_object</text>
</a>
</g>
</g>
<!-- Node1&#45;&gt;Node4 -->
<g id="edge5" class="edge"><title>Node1&#45;&gt;Node4</title>
<path fill="none" stroke="midnightblue" d="M111.02,-79.5207C162.562,-77.6496 239.937,-74.8406 294.628,-72.8551"/>
<polygon fill="midnightblue" stroke="midnightblue" points="295.041,-76.3425 304.907,-72.4819 294.787,-69.3471 295.041,-76.3425"/>
</g>
<!-- Node5 -->
<g id="node5" class="node"><title>Node5</title>
<g id="a_node5"><a xlink:href="../../d9/dcc/classnlohmann_1_1basic__json.xhtml#a6b75862bdb4d26650616cf9821430755" target="_top" xlink:title="return the type as string">
<polygon fill="none" stroke="black" points="147,-0.5 147,-30.5 258,-30.5 258,-0.5 147,-0.5"/>
<text text-anchor="start" x="155" y="-18.5" font-family="Helvetica,sans-Serif" font-size="10.00">nlohmann::basic_json</text>
<text text-anchor="middle" x="202.5" y="-7.5" font-family="Helvetica,sans-Serif" font-size="10.00">::type_name</text>
</a>
</g>
</g>
<!-- Node1&#45;&gt;Node5 -->
<g id="edge6" class="edge"><title>Node1&#45;&gt;Node5</title>
<path fill="none" stroke="midnightblue" d="M89.7659,-66.3583C110.397,-56.9676 137.094,-44.8159 159.218,-34.7456"/>
<polygon fill="midnightblue" stroke="midnightblue" points="160.737,-37.8996 168.389,-30.5713 157.837,-31.5286 160.737,-37.8996"/>
</g>
<!-- Node3&#45;&gt;Node2 -->
<g id="edge3" class="edge"><title>Node3&#45;&gt;Node2</title>
<path fill="none" stroke="midnightblue" d="M258.061,-111.195C266.397,-112.37 275.127,-113.601 283.818,-114.827"/>
<polygon fill="midnightblue" stroke="midnightblue" points="283.587,-118.329 293.978,-116.26 284.564,-111.397 283.587,-118.329"/>
</g>
<!-- Node3&#45;&gt;Node4 -->
<g id="edge4" class="edge"><title>Node3&#45;&gt;Node4</title>
<path fill="none" stroke="midnightblue" d="M258.061,-91.9582C269.936,-89.4461 282.611,-86.765 294.835,-84.1792"/>
<polygon fill="midnightblue" stroke="midnightblue" points="295.91,-87.5292 304.97,-82.0353 294.462,-80.6807 295.91,-87.5292"/>
</g>
</g>
</svg>
