<?xml version="1.0" encoding="UTF-8" standalone="no"?>
<!DOCTYPE svg PUBLIC "-//W3C//DTD SVG 1.1//EN"
 "http://www.w3.org/Graphics/SVG/1.1/DTD/svg11.dtd">
<!-- Generated by graphviz version 2.38.0 (20140413.2041)
 -->
<!-- Title: nlohmann::basic_json::array Pages: 1 -->
<svg width="413pt" height="78pt"
 viewBox="0.00 0.00 413.00 77.50" xmlns="http://www.w3.org/2000/svg" xmlns:xlink="http://www.w3.org/1999/xlink">
<g id="graph0" class="graph" transform="scale(1 1) rotate(0) translate(4 73.5)">
<title>nlohmann::basic_json::array</title>
<!-- Node1 -->
<g id="node1" class="node"><title>Node1</title>
<g id="a_node1"><a xlink:title="explicitly create an array from an initializer list">
<polygon fill="#bfbfbf" stroke="black" points="294,-22.5 294,-52.5 405,-52.5 405,-22.5 294,-22.5"/>
<text text-anchor="start" x="302" y="-40.5" font-family="Helvetica,sans-Serif" font-size="10.00">nlohmann::basic_json</text>
<text text-anchor="middle" x="349.5" y="-29.5" font-family="Helvetica,sans-Serif" font-size="10.00">::array</text>
</a>
</g>
</g>
<!-- Node2 -->
<g id="node2" class="node"><title>Node2</title>
<g id="a_node2"><a xlink:href="../../d9/dcc/classnlohmann_1_1basic__json.xhtml#a86f339e8449cce96b89e86635a7d389e" target="_top" xlink:title="deserialize from an array">
<polygon fill="none" stroke="black" points="147,-22.5 147,-52.5 258,-52.5 258,-22.5 147,-22.5"/>
<text text-anchor="start" x="155" y="-40.5" font-family="Helvetica,sans-Serif" font-size="10.00">nlohmann::basic_json</text>
<text text-anchor="middle" x="202.5" y="-29.5" font-family="Helvetica,sans-Serif" font-size="10.00">::parse</text>
</a>
</g>
</g>
<!-- Node1&#45;&gt;Node2 -->
<g id="edge1" class="edge"><title>Node1&#45;&gt;Node2</title>
<path fill="none" stroke="midnightblue" d="M283.538,-37.5C275.141,-37.5 266.608,-37.5 258.396,-37.5"/>
<polygon fill="midnightblue" stroke="midnightblue" points="283.682,-41.0001 293.682,-37.5 283.682,-34.0001 283.682,-41.0001"/>
</g>
<!-- Node3 -->
<g id="node3" class="node"><title>Node3</title>
<g id="a_node3"><a xlink:href="../../d3/dd1/nlohmann__json_8hpp.xhtml#ae90d59ab420a183cd5fb8588bdc95e06" target="_top" xlink:title="user&#45;defined string literal for JSON values">
<polygon fill="none" stroke="black" points="14,-50 14,-69 97,-69 97,-50 14,-50"/>
<text text-anchor="middle" x="55.5" y="-57" font-family="Helvetica,sans-Serif" font-size="10.00">operator&quot;&quot;_json</text>
</a>
</g>
</g>
<!-- Node2&#45;&gt;Node3 -->
<g id="edge2" class="edge"><title>Node2&#45;&gt;Node3</title>
<path fill="none" stroke="midnightblue" d="M136.584,-47.3493C123.252,-49.3722 109.573,-51.4475 97.3791,-53.2977"/>
<polygon fill="midnightblue" stroke="midnightblue" points="137.32,-50.7778 146.682,-45.8173 136.27,-43.857 137.32,-50.7778"/>
</g>
<!-- Node4 -->
<g id="node4" class="node"><title>Node4</title>
<g id="a_node4"><a xlink:href="../../d9/dcc/classnlohmann_1_1basic__json.xhtml#ab275a3e00a40189e96d244de6c8f311a" target="_top" xlink:title="deserialize from string literal">
<polygon fill="none" stroke="black" points="0,-0.5 0,-30.5 111,-30.5 111,-0.5 0,-0.5"/>
<text text-anchor="start" x="8" y="-18.5" font-family="Helvetica,sans-Serif" font-size="10.00">nlohmann::basic_json</text>
<text text-anchor="middle" x="55.5" y="-7.5" font-family="Helvetica,sans-Serif" font-size="10.00">::parse</text>
</a>
</g>
</g>
<!-- Node2&#45;&gt;Node4 -->
<g id="edge3" class="edge"><title>Node2&#45;&gt;Node4</title>
<path fill="none" stroke="midnightblue" d="M136.538,-27.6437C128.141,-26.3697 119.608,-25.075 111.396,-23.829"/>
<polygon fill="midnightblue" stroke="midnightblue" points="136.27,-31.143 146.682,-29.1827 137.32,-24.2222 136.27,-31.143"/>
</g>
</g>
</svg>
