<?xml version="1.0" encoding="UTF-8" standalone="no"?>
<!DOCTYPE svg PUBLIC "-//W3C//DTD SVG 1.1//EN"
 "http://www.w3.org/Graphics/SVG/1.1/DTD/svg11.dtd">
<!-- Generated by graphviz version 2.38.0 (20140413.2041)
 -->
<!-- Title: Utils::Attributes::NotImplemented Pages: 1 -->
<svg width="218pt" height="332pt"
 viewBox="0.00 0.00 217.50 332.00" xmlns="http://www.w3.org/2000/svg" xmlns:xlink="http://www.w3.org/1999/xlink">
<g id="graph0" class="graph" transform="scale(1 1) rotate(0) translate(4 328)">
<title>Utils::Attributes::NotImplemented</title>
<!-- Node1 -->
<g id="node1" class="node"><title>Node1</title>
<g id="a_node1"><a xlink:title=" ">
<polygon fill="#bfbfbf" stroke="black" points="20.5,-0.5 20.5,-90.5 128.5,-90.5 128.5,-0.5 20.5,-0.5"/>
<text text-anchor="start" x="28.5" y="-78.5" font-family="Helvetica,sans-Serif" font-size="10.00">Utils::Attributes::</text>
<text text-anchor="middle" x="74.5" y="-67.5" font-family="Helvetica,sans-Serif" font-size="10.00">NotImplemented</text>
<polyline fill="none" stroke="black" points="20.5,-60.5 128.5,-60.5 "/>
<text text-anchor="middle" x="74.5" y="-48.5" font-family="Helvetica,sans-Serif" font-size="10.00"> </text>
<polyline fill="none" stroke="black" points="20.5,-41.5 128.5,-41.5 "/>
<text text-anchor="start" x="28.5" y="-29.5" font-family="Helvetica,sans-Serif" font-size="10.00">+ NotImplemented()</text>
<text text-anchor="start" x="28.5" y="-18.5" font-family="Helvetica,sans-Serif" font-size="10.00">+ ~NotImplemented()</text>
<text text-anchor="start" x="28.5" y="-7.5" font-family="Helvetica,sans-Serif" font-size="10.00">+ getSpecificInfo()</text>
</a>
</g>
</g>
<!-- Node2 -->
<g id="node2" class="node"><title>Node2</title>
<g id="a_node2"><a xlink:href="../../dc/dac/class_utils_1_1_attributes_1_1_base_attribute.xhtml" target="_top" xlink:title=" ">
<polygon fill="none" stroke="black" points="26,-128.5 26,-218.5 123,-218.5 123,-128.5 26,-128.5"/>
<text text-anchor="start" x="34" y="-206.5" font-family="Helvetica,sans-Serif" font-size="10.00">Utils::Attributes::</text>
<text text-anchor="middle" x="74.5" y="-195.5" font-family="Helvetica,sans-Serif" font-size="10.00">BaseAttribute</text>
<polyline fill="none" stroke="black" points="26,-188.5 123,-188.5 "/>
<text text-anchor="middle" x="74.5" y="-176.5" font-family="Helvetica,sans-Serif" font-size="10.00"> </text>
<polyline fill="none" stroke="black" points="26,-169.5 123,-169.5 "/>
<text text-anchor="start" x="34" y="-157.5" font-family="Helvetica,sans-Serif" font-size="10.00">+ BaseAttribute()</text>
<text text-anchor="start" x="34" y="-146.5" font-family="Helvetica,sans-Serif" font-size="10.00">+ BaseAttribute()</text>
<text text-anchor="start" x="34" y="-135.5" font-family="Helvetica,sans-Serif" font-size="10.00">+ ~BaseAttribute()</text>
</a>
</g>
</g>
<!-- Node2&#45;&gt;Node1 -->
<g id="edge1" class="edge"><title>Node2&#45;&gt;Node1</title>
<path fill="none" stroke="midnightblue" d="M74.5,-118.226C74.5,-109.056 74.5,-99.6331 74.5,-90.7568"/>
<polygon fill="none" stroke="midnightblue" points="71.0001,-118.431 74.5,-128.431 78.0001,-118.431 71.0001,-118.431"/>
</g>
<!-- Node3 -->
<g id="node3" class="node"><title>Node3</title>
<g id="a_node3"><a xlink:title=" ">
<polygon fill="none" stroke="#bfbfbf" points="0,-266.5 0,-323.5 51,-323.5 51,-266.5 0,-266.5"/>
<text text-anchor="middle" x="25.5" y="-311.5" font-family="Helvetica,sans-Serif" font-size="10.00">uint32_t</text>
<polyline fill="none" stroke="#bfbfbf" points="0,-304.5 51,-304.5 "/>
<text text-anchor="middle" x="25.5" y="-292.5" font-family="Helvetica,sans-Serif" font-size="10.00"> </text>
<polyline fill="none" stroke="#bfbfbf" points="0,-285.5 51,-285.5 "/>
<text text-anchor="middle" x="25.5" y="-273.5" font-family="Helvetica,sans-Serif" font-size="10.00"> </text>
</a>
</g>
</g>
<!-- Node3&#45;&gt;Node2 -->
<g id="edge2" class="edge"><title>Node3&#45;&gt;Node2</title>
<path fill="none" stroke="#404040" d="M22.5193,-266.417C22.3852,-256.87 23.2672,-246.25 26.5,-237 27.3986,-234.429 28.4476,-231.88 29.6183,-229.365"/>
<polygon fill="none" stroke="#404040" points="29.7343,-229.15 29.0688,-221.97 35.4409,-218.594 36.1064,-225.774 29.7343,-229.15"/>
<text text-anchor="middle" x="64.5" y="-240" font-family="Helvetica,sans-Serif" font-size="10.00"> +attribute_length</text>
</g>
<!-- Node4 -->
<g id="node4" class="node"><title>Node4</title>
<g id="a_node4"><a xlink:title=" ">
<polygon fill="none" stroke="#bfbfbf" points="99,-266.5 99,-323.5 150,-323.5 150,-266.5 99,-266.5"/>
<text text-anchor="middle" x="124.5" y="-311.5" font-family="Helvetica,sans-Serif" font-size="10.00">uint16_t</text>
<polyline fill="none" stroke="#bfbfbf" points="99,-304.5 150,-304.5 "/>
<text text-anchor="middle" x="124.5" y="-292.5" font-family="Helvetica,sans-Serif" font-size="10.00"> </text>
<polyline fill="none" stroke="#bfbfbf" points="99,-285.5 150,-285.5 "/>
<text text-anchor="middle" x="124.5" y="-273.5" font-family="Helvetica,sans-Serif" font-size="10.00"> </text>
</a>
</g>
</g>
<!-- Node4&#45;&gt;Node2 -->
<g id="edge3" class="edge"><title>Node4&#45;&gt;Node2</title>
<path fill="none" stroke="#404040" d="M114.162,-266.34C110.574,-256.981 106.457,-246.498 102.5,-237 101.535,-234.685 100.54,-232.327 99.5245,-229.949"/>
<polygon fill="none" stroke="#404040" points="99.4474,-229.771 93.3914,-225.856 94.6757,-218.76 100.732,-222.675 99.4474,-229.771"/>
<text text-anchor="middle" x="158" y="-240" font-family="Helvetica,sans-Serif" font-size="10.00"> +attribute_name_index</text>
</g>
</g>
</svg>
