<?xml version="1.0" encoding="UTF-8" standalone="no"?>
<!DOCTYPE svg PUBLIC "-//W3C//DTD SVG 1.1//EN"
 "http://www.w3.org/Graphics/SVG/1.1/DTD/svg11.dtd">
<!-- Generated by graphviz version 2.38.0 (20140413.2041)
 -->
<!-- Title: include/utils/attributes.h Pages: 1 -->
<svg width="1244pt" height="408pt"
 viewBox="0.00 0.00 1243.59 408.00" xmlns="http://www.w3.org/2000/svg" xmlns:xlink="http://www.w3.org/1999/xlink">
<g id="graph0" class="graph" transform="scale(1 1) rotate(0) translate(4 404)">
<title>include/utils/attributes.h</title>
<!-- Node1 -->
<g id="node1" class="node"><title>Node1</title>
<g id="a_node1"><a xlink:title=" ">
<polygon fill="#bfbfbf" stroke="black" points="507.09,-380.5 507.09,-399.5 627.09,-399.5 627.09,-380.5 507.09,-380.5"/>
<text text-anchor="middle" x="567.09" y="-387.5" font-family="Helvetica,sans-Serif" font-size="10.00">include/utils/attributes.h</text>
</a>
</g>
</g>
<!-- Node2 -->
<g id="node2" class="node"><title>Node2</title>
<g id="a_node2"><a xlink:href="../../d0/d36/constant_pool_8h.xhtml" target="_top" xlink:title=" ">
<polygon fill="none" stroke="black" points="155.59,-324.5 155.59,-343.5 292.59,-343.5 292.59,-324.5 155.59,-324.5"/>
<text text-anchor="middle" x="224.09" y="-331.5" font-family="Helvetica,sans-Serif" font-size="10.00">include/utils/constantPool.h</text>
</a>
</g>
</g>
<!-- Node1&#45;&gt;Node2 -->
<g id="edge1" class="edge"><title>Node1&#45;&gt;Node2</title>
<path fill="none" stroke="midnightblue" d="M502.643,-378.854C437.836,-368.651 339.044,-353.098 278.185,-343.516"/>
<polygon fill="midnightblue" stroke="midnightblue" points="502.318,-382.346 512.741,-380.444 503.407,-375.431 502.318,-382.346"/>
</g>
<!-- Node14 -->
<g id="node14" class="node"><title>Node14</title>
<g id="a_node14"><a xlink:href="../../dc/dba/viewer_8h.xhtml" target="_top" xlink:title=" ">
<polygon fill="none" stroke="black" points="1150.59,-196 1150.59,-215 1235.59,-215 1235.59,-196 1150.59,-196"/>
<text text-anchor="middle" x="1193.09" y="-203" font-family="Helvetica,sans-Serif" font-size="10.00">include/viewer.h</text>
</a>
</g>
</g>
<!-- Node1&#45;&gt;Node14 -->
<g id="edge30" class="edge"><title>Node1&#45;&gt;Node14</title>
<path fill="none" stroke="midnightblue" d="M606.322,-377.563C722.305,-343.75 1061.83,-244.767 1163.8,-215.039"/>
<polygon fill="midnightblue" stroke="midnightblue" points="605.065,-374.283 596.444,-380.442 607.024,-381.004 605.065,-374.283"/>
</g>
<!-- Node19 -->
<g id="node19" class="node"><title>Node19</title>
<g id="a_node19"><a xlink:href="../../d9/d70/infos_8h.xhtml" target="_top" xlink:title=" ">
<polygon fill="none" stroke="black" points="517.09,-324.5 517.09,-343.5 617.09,-343.5 617.09,-324.5 517.09,-324.5"/>
<text text-anchor="middle" x="567.09" y="-331.5" font-family="Helvetica,sans-Serif" font-size="10.00">include/utils/infos.h</text>
</a>
</g>
</g>
<!-- Node1&#45;&gt;Node19 -->
<g id="edge26" class="edge"><title>Node1&#45;&gt;Node19</title>
<path fill="none" stroke="midnightblue" d="M567.09,-369.805C567.09,-360.91 567.09,-350.78 567.09,-343.751"/>
<polygon fill="midnightblue" stroke="midnightblue" points="563.59,-370.083 567.09,-380.083 570.59,-370.083 563.59,-370.083"/>
</g>
<!-- Node3 -->
<g id="node3" class="node"><title>Node3</title>
<g id="a_node3"><a xlink:href="../../d4/db4/classfile_8h.xhtml" target="_top" xlink:title=" ">
<polygon fill="none" stroke="black" points="520.09,-263 520.09,-282 614.09,-282 614.09,-263 520.09,-263"/>
<text text-anchor="middle" x="567.09" y="-270" font-family="Helvetica,sans-Serif" font-size="10.00">include/classfile.h</text>
</a>
</g>
</g>
<!-- Node2&#45;&gt;Node3 -->
<g id="edge2" class="edge"><title>Node2&#45;&gt;Node3</title>
<path fill="none" stroke="midnightblue" d="M283.228,-322.741C350.3,-311.107 458.325,-292.368 519.967,-281.674"/>
<polygon fill="midnightblue" stroke="midnightblue" points="282.488,-319.317 273.234,-324.475 283.685,-326.214 282.488,-319.317"/>
</g>
<!-- Node6 -->
<g id="node6" class="node"><title>Node6</title>
<g id="a_node6"><a xlink:href="../../d6/dda/reader_8h.xhtml" target="_top" xlink:title=" ">
<polygon fill="none" stroke="black" points="146.09,-196 146.09,-215 232.09,-215 232.09,-196 146.09,-196"/>
<text text-anchor="middle" x="189.09" y="-203" font-family="Helvetica,sans-Serif" font-size="10.00">include/reader.h</text>
</a>
</g>
</g>
<!-- Node2&#45;&gt;Node6 -->
<g id="edge24" class="edge"><title>Node2&#45;&gt;Node6</title>
<path fill="none" stroke="midnightblue" d="M218.207,-314.81C215.623,-306.641 212.61,-296.865 210.09,-288 202.581,-261.577 194.775,-230.009 191.159,-215.103"/>
<polygon fill="midnightblue" stroke="midnightblue" points="214.898,-315.954 221.279,-324.411 221.565,-313.82 214.898,-315.954"/>
</g>
<!-- Node7 -->
<g id="node7" class="node"><title>Node7</title>
<g id="a_node7"><a xlink:href="../../d8/df4/helper__functions_8h.xhtml" target="_top" xlink:title=" ">
<polygon fill="none" stroke="black" points="288.09,-190.5 288.09,-220.5 386.09,-220.5 386.09,-190.5 288.09,-190.5"/>
<text text-anchor="start" x="296.09" y="-208.5" font-family="Helvetica,sans-Serif" font-size="10.00">include/utils/helper</text>
<text text-anchor="middle" x="337.09" y="-197.5" font-family="Helvetica,sans-Serif" font-size="10.00">_functions.h</text>
</a>
</g>
</g>
<!-- Node2&#45;&gt;Node7 -->
<g id="edge25" class="edge"><title>Node2&#45;&gt;Node7</title>
<path fill="none" stroke="midnightblue" d="M238.575,-316.785C260.815,-291.887 303.023,-244.638 324.238,-220.888"/>
<polygon fill="midnightblue" stroke="midnightblue" points="235.909,-314.516 231.857,-324.305 241.129,-319.179 235.909,-314.516"/>
</g>
<!-- Node15 -->
<g id="node15" class="node"><title>Node15</title>
<g id="a_node15"><a xlink:href="../../df/d7d/frame_8h.xhtml" target="_top" xlink:title=" ">
<polygon fill="none" stroke="black" points="22.0903,-263 22.0903,-282 126.09,-282 126.09,-263 22.0903,-263"/>
<text text-anchor="middle" x="74.0903" y="-270" font-family="Helvetica,sans-Serif" font-size="10.00">include/utils/frame.h</text>
</a>
</g>
</g>
<!-- Node2&#45;&gt;Node15 -->
<g id="edge16" class="edge"><title>Node2&#45;&gt;Node15</title>
<path fill="none" stroke="midnightblue" d="M193.29,-320.782C164.14,-309.22 121.143,-292.164 95.5418,-282.009"/>
<polygon fill="midnightblue" stroke="midnightblue" points="192.013,-324.041 202.599,-324.475 194.594,-317.534 192.013,-324.041"/>
</g>
<!-- Node4 -->
<g id="node4" class="node"><title>Node4</title>
<g id="a_node4"><a xlink:href="../../df/d50/method__area_8h.xhtml" target="_top" xlink:title=" ">
<polygon fill="none" stroke="black" points="251.59,-123.5 251.59,-153.5 364.59,-153.5 364.59,-123.5 251.59,-123.5"/>
<text text-anchor="start" x="259.59" y="-141.5" font-family="Helvetica,sans-Serif" font-size="10.00">include/utils/memory</text>
<text text-anchor="middle" x="308.09" y="-130.5" font-family="Helvetica,sans-Serif" font-size="10.00">_areas/method_area.h</text>
</a>
</g>
</g>
<!-- Node3&#45;&gt;Node4 -->
<g id="edge3" class="edge"><title>Node3&#45;&gt;Node4</title>
<path fill="none" stroke="midnightblue" d="M526.373,-259.954C498.992,-251.291 462.642,-238.012 433.09,-221 414.201,-210.126 413.016,-202.399 395.09,-190 375.7,-176.588 352.566,-163.278 335.03,-153.692"/>
<polygon fill="midnightblue" stroke="midnightblue" points="525.439,-263.328 536.026,-262.935 527.504,-256.64 525.439,-263.328"/>
</g>
<!-- Node3&#45;&gt;Node6 -->
<g id="edge5" class="edge"><title>Node3&#45;&gt;Node6</title>
<path fill="none" stroke="midnightblue" d="M510.071,-261.695C433.853,-248.589 300.454,-225.65 232.115,-213.898"/>
<polygon fill="midnightblue" stroke="midnightblue" points="509.532,-265.154 519.981,-263.399 510.718,-258.255 509.532,-265.154"/>
</g>
<!-- Node3&#45;&gt;Node7 -->
<g id="edge6" class="edge"><title>Node3&#45;&gt;Node7</title>
<path fill="none" stroke="midnightblue" d="M526.818,-260.119C487.689,-249.061 428.204,-232.25 386.292,-220.405"/>
<polygon fill="midnightblue" stroke="midnightblue" points="525.973,-263.517 536.548,-262.869 527.877,-256.781 525.973,-263.517"/>
</g>
<!-- Node8 -->
<g id="node8" class="node"><title>Node8</title>
<g id="a_node8"><a xlink:href="../../d8/d07/attribute_serializer_8h.xhtml" target="_top" xlink:title=" ">
<polygon fill="none" stroke="black" points="710.09,-190.5 710.09,-220.5 826.09,-220.5 826.09,-190.5 710.09,-190.5"/>
<text text-anchor="start" x="718.09" y="-208.5" font-family="Helvetica,sans-Serif" font-size="10.00">include/utils/serializers</text>
<text text-anchor="middle" x="768.09" y="-197.5" font-family="Helvetica,sans-Serif" font-size="10.00">/attributeSerializer.h</text>
</a>
</g>
</g>
<!-- Node3&#45;&gt;Node8 -->
<g id="edge8" class="edge"><title>Node3&#45;&gt;Node8</title>
<path fill="none" stroke="midnightblue" d="M603.348,-259.775C637.43,-248.753 688.483,-232.244 724.711,-220.528"/>
<polygon fill="midnightblue" stroke="midnightblue" points="602.219,-256.461 593.782,-262.869 604.373,-263.122 602.219,-256.461"/>
</g>
<!-- Node9 -->
<g id="node9" class="node"><title>Node9</title>
<g id="a_node9"><a xlink:href="../../da/d13/classfile_serializer_8h.xhtml" target="_top" xlink:title=" ">
<polygon fill="none" stroke="black" points="844.09,-190.5 844.09,-220.5 960.09,-220.5 960.09,-190.5 844.09,-190.5"/>
<text text-anchor="start" x="852.09" y="-208.5" font-family="Helvetica,sans-Serif" font-size="10.00">include/utils/serializers</text>
<text text-anchor="middle" x="902.09" y="-197.5" font-family="Helvetica,sans-Serif" font-size="10.00">/classfileSerializer.h</text>
</a>
</g>
</g>
<!-- Node3&#45;&gt;Node9 -->
<g id="edge9" class="edge"><title>Node3&#45;&gt;Node9</title>
<path fill="none" stroke="midnightblue" d="M607.802,-260.527C612.933,-259.272 618.123,-258.063 623.09,-257 716.546,-237.004 741.251,-239.112 835.09,-221 838.012,-220.436 841.001,-219.844 844.018,-219.235"/>
<polygon fill="midnightblue" stroke="midnightblue" points="606.924,-257.139 598.08,-262.974 608.632,-263.927 606.924,-257.139"/>
</g>
<!-- Node10 -->
<g id="node10" class="node"><title>Node10</title>
<g id="a_node10"><a xlink:href="../../d2/dbc/constpool_serializer_8h.xhtml" target="_top" xlink:title=" ">
<polygon fill="none" stroke="black" points="978.09,-190.5 978.09,-220.5 1094.09,-220.5 1094.09,-190.5 978.09,-190.5"/>
<text text-anchor="start" x="986.09" y="-208.5" font-family="Helvetica,sans-Serif" font-size="10.00">include/utils/serializers</text>
<text text-anchor="middle" x="1036.09" y="-197.5" font-family="Helvetica,sans-Serif" font-size="10.00">/constpoolSerializer.h</text>
</a>
</g>
</g>
<!-- Node3&#45;&gt;Node10 -->
<g id="edge10" class="edge"><title>Node3&#45;&gt;Node10</title>
<path fill="none" stroke="midnightblue" d="M606.393,-260.534C611.97,-259.209 617.655,-257.981 623.09,-257 775.241,-229.546 816.418,-245.388 969.09,-221 972.028,-220.531 975.032,-220.015 978.059,-219.466"/>
<polygon fill="midnightblue" stroke="midnightblue" points="605.407,-257.173 596.551,-262.99 607.101,-263.965 605.407,-257.173"/>
</g>
<!-- Node11 -->
<g id="node11" class="node"><title>Node11</title>
<g id="a_node11"><a xlink:href="../../d8/d6c/instruction_serializer_8h.xhtml" target="_top" xlink:title=" ">
<polygon fill="none" stroke="black" points="1021.09,-123.5 1021.09,-153.5 1137.09,-153.5 1137.09,-123.5 1021.09,-123.5"/>
<text text-anchor="start" x="1029.09" y="-141.5" font-family="Helvetica,sans-Serif" font-size="10.00">include/utils/serializers</text>
<text text-anchor="middle" x="1079.09" y="-130.5" font-family="Helvetica,sans-Serif" font-size="10.00">/instructionSerializer.h</text>
</a>
</g>
</g>
<!-- Node3&#45;&gt;Node11 -->
<g id="edge13" class="edge"><title>Node3&#45;&gt;Node11</title>
<path fill="none" stroke="midnightblue" d="M605.988,-260.478C611.689,-259.14 617.517,-257.923 623.09,-257 675.855,-248.262 1066.71,-260.207 1103.09,-221 1120.45,-202.294 1103.38,-171.651 1090.5,-153.747"/>
<polygon fill="midnightblue" stroke="midnightblue" points="604.803,-257.166 595.945,-262.979 606.494,-263.959 604.803,-257.166"/>
</g>
<!-- Node12 -->
<g id="node12" class="node"><title>Node12</title>
<g id="a_node12"><a xlink:href="../../d0/dfa/field_serializer_8h.xhtml" target="_top" xlink:title=" ">
<polygon fill="none" stroke="black" points="442.09,-190.5 442.09,-220.5 558.09,-220.5 558.09,-190.5 442.09,-190.5"/>
<text text-anchor="start" x="450.09" y="-208.5" font-family="Helvetica,sans-Serif" font-size="10.00">include/utils/serializers</text>
<text text-anchor="middle" x="500.09" y="-197.5" font-family="Helvetica,sans-Serif" font-size="10.00">/fieldSerializer.h</text>
</a>
</g>
</g>
<!-- Node3&#45;&gt;Node12 -->
<g id="edge12" class="edge"><title>Node3&#45;&gt;Node12</title>
<path fill="none" stroke="midnightblue" d="M550.719,-255.617C539.679,-244.907 525.243,-230.902 514.613,-220.589"/>
<polygon fill="midnightblue" stroke="midnightblue" points="548.44,-258.283 558.054,-262.734 553.314,-253.259 548.44,-258.283"/>
</g>
<!-- Node13 -->
<g id="node13" class="node"><title>Node13</title>
<g id="a_node13"><a xlink:href="../../de/df9/method_serializer_8h.xhtml" target="_top" xlink:title=" ">
<polygon fill="none" stroke="black" points="576.09,-190.5 576.09,-220.5 692.09,-220.5 692.09,-190.5 576.09,-190.5"/>
<text text-anchor="start" x="584.09" y="-208.5" font-family="Helvetica,sans-Serif" font-size="10.00">include/utils/serializers</text>
<text text-anchor="middle" x="634.09" y="-197.5" font-family="Helvetica,sans-Serif" font-size="10.00">/methodSerializer.h</text>
</a>
</g>
</g>
<!-- Node3&#45;&gt;Node13 -->
<g id="edge14" class="edge"><title>Node3&#45;&gt;Node13</title>
<path fill="none" stroke="midnightblue" d="M583.462,-255.617C594.502,-244.907 608.937,-230.902 619.568,-220.589"/>
<polygon fill="midnightblue" stroke="midnightblue" points="580.867,-253.259 576.126,-262.734 585.741,-258.283 580.867,-253.259"/>
</g>
<!-- Node3&#45;&gt;Node14 -->
<g id="edge15" class="edge"><title>Node3&#45;&gt;Node14</title>
<path fill="none" stroke="midnightblue" d="M605.984,-260.454C611.686,-259.119 617.515,-257.91 623.09,-257 848.669,-220.2 910.434,-257.319 1136.09,-221 1145.16,-219.54 1154.9,-217.314 1163.72,-215.042"/>
<polygon fill="midnightblue" stroke="midnightblue" points="604.8,-257.142 595.94,-262.952 606.489,-263.935 604.8,-257.142"/>
</g>
<!-- Node5 -->
<g id="node5" class="node"><title>Node5</title>
<g id="a_node5"><a xlink:href="../../d3/d97/interpreter_8h.xhtml" target="_top" xlink:title=" ">
<polygon fill="none" stroke="black" points="61.0903,-0.5 61.0903,-19.5 163.09,-19.5 163.09,-0.5 61.0903,-0.5"/>
<text text-anchor="middle" x="112.09" y="-7.5" font-family="Helvetica,sans-Serif" font-size="10.00">include/interpreter.h</text>
</a>
</g>
</g>
<!-- Node4&#45;&gt;Node5 -->
<g id="edge4" class="edge"><title>Node4&#45;&gt;Node5</title>
<path fill="none" stroke="midnightblue" d="M285.598,-116.45C266.093,-98.8816 236.59,-73.9108 208.09,-56 184.09,-40.9168 154.225,-27.6961 134.236,-19.5553"/>
<polygon fill="midnightblue" stroke="midnightblue" points="283.314,-119.103 293.062,-123.252 288.029,-113.929 283.314,-119.103"/>
</g>
<!-- Node7&#45;&gt;Node4 -->
<g id="edge7" class="edge"><title>Node7&#45;&gt;Node4</title>
<path fill="none" stroke="midnightblue" d="M326.602,-180.991C322.503,-171.804 317.941,-161.578 314.371,-153.577"/>
<polygon fill="midnightblue" stroke="midnightblue" points="323.527,-182.69 330.798,-190.396 329.92,-179.838 323.527,-182.69"/>
</g>
<!-- Node10&#45;&gt;Node11 -->
<g id="edge11" class="edge"><title>Node10&#45;&gt;Node11</title>
<path fill="none" stroke="midnightblue" d="M1051.06,-181.867C1057.29,-172.459 1064.32,-161.833 1069.78,-153.577"/>
<polygon fill="midnightblue" stroke="midnightblue" points="1048.02,-180.125 1045.42,-190.396 1053.86,-183.987 1048.02,-180.125"/>
</g>
<!-- Node15&#45;&gt;Node5 -->
<g id="edge17" class="edge"><title>Node15&#45;&gt;Node5</title>
<path fill="none" stroke="midnightblue" d="M47.2158,-257.63C33.7042,-249.07 18.6313,-236.71 11.0903,-221 -7.75848,-181.734 1.98963,-165.594 11.0903,-123 17.9074,-91.0936 19.7382,-80.6694 41.0903,-56 55.2253,-39.669 76.7469,-27.1804 92.3901,-19.5498"/>
<polygon fill="midnightblue" stroke="midnightblue" points="45.8189,-260.87 56.2089,-262.943 49.3796,-254.843 45.8189,-260.87"/>
</g>
<!-- Node16 -->
<g id="node16" class="node"><title>Node16</title>
<g id="a_node16"><a xlink:href="../../dd/d7e/java__stack_8h.xhtml" target="_top" xlink:title=" ">
<polygon fill="none" stroke="black" points="20.5903,-190.5 20.5903,-220.5 127.59,-220.5 127.59,-190.5 20.5903,-190.5"/>
<text text-anchor="start" x="28.5903" y="-208.5" font-family="Helvetica,sans-Serif" font-size="10.00">include/utils/memory</text>
<text text-anchor="middle" x="74.0903" y="-197.5" font-family="Helvetica,sans-Serif" font-size="10.00">_areas/java_stack.h</text>
</a>
</g>
</g>
<!-- Node15&#45;&gt;Node16 -->
<g id="edge18" class="edge"><title>Node15&#45;&gt;Node16</title>
<path fill="none" stroke="midnightblue" d="M74.0903,-252.411C74.0903,-242.222 74.0903,-229.901 74.0903,-220.589"/>
<polygon fill="midnightblue" stroke="midnightblue" points="70.5904,-252.734 74.0903,-262.734 77.5904,-252.734 70.5904,-252.734"/>
</g>
<!-- Node16&#45;&gt;Node5 -->
<g id="edge19" class="edge"><title>Node16&#45;&gt;Node5</title>
<path fill="none" stroke="midnightblue" d="M103.226,-184.377C114.334,-175.827 126.594,-165.238 136.09,-154 158.186,-127.852 165.357,-120.101 174.09,-87 177.605,-73.6781 180.348,-68.2746 174.09,-56 165.391,-38.9372 146.861,-26.8318 132.313,-19.5055"/>
<polygon fill="midnightblue" stroke="midnightblue" points="100.946,-181.712 95.0215,-190.496 105.13,-187.323 100.946,-181.712"/>
</g>
<!-- Node17 -->
<g id="node17" class="node"><title>Node17</title>
<g id="a_node17"><a xlink:href="../../db/dd5/thread_8h.xhtml" target="_top" xlink:title=" ">
<polygon fill="none" stroke="black" points="20.5903,-123.5 20.5903,-153.5 127.59,-153.5 127.59,-123.5 20.5903,-123.5"/>
<text text-anchor="start" x="28.5903" y="-141.5" font-family="Helvetica,sans-Serif" font-size="10.00">include/utils/memory</text>
<text text-anchor="middle" x="74.0903" y="-130.5" font-family="Helvetica,sans-Serif" font-size="10.00">_areas/thread.h</text>
</a>
</g>
</g>
<!-- Node16&#45;&gt;Node17 -->
<g id="edge20" class="edge"><title>Node16&#45;&gt;Node17</title>
<path fill="none" stroke="midnightblue" d="M74.0903,-180.108C74.0903,-171.154 74.0903,-161.323 74.0903,-153.577"/>
<polygon fill="midnightblue" stroke="midnightblue" points="70.5904,-180.396 74.0903,-190.396 77.5904,-180.396 70.5904,-180.396"/>
</g>
<!-- Node17&#45;&gt;Node5 -->
<g id="edge23" class="edge"><title>Node17&#45;&gt;Node5</title>
<path fill="none" stroke="midnightblue" d="M58.0336,-114.736C48.291,-97.9114 39.4335,-74.7649 49.0903,-56 57.8854,-38.9095 76.5124,-26.8711 91.243,-19.5733"/>
<polygon fill="midnightblue" stroke="midnightblue" points="55.158,-116.739 63.4253,-123.365 61.0944,-113.03 55.158,-116.739"/>
</g>
<!-- Node18 -->
<g id="node18" class="node"><title>Node18</title>
<g id="a_node18"><a xlink:href="../../da/ddb/heap_8h.xhtml" target="_top" xlink:title=" ">
<polygon fill="none" stroke="black" points="58.5903,-56.5 58.5903,-86.5 165.59,-86.5 165.59,-56.5 58.5903,-56.5"/>
<text text-anchor="start" x="66.5903" y="-74.5" font-family="Helvetica,sans-Serif" font-size="10.00">include/utils/memory</text>
<text text-anchor="middle" x="112.09" y="-63.5" font-family="Helvetica,sans-Serif" font-size="10.00">_areas/heap.h</text>
</a>
</g>
</g>
<!-- Node17&#45;&gt;Node18 -->
<g id="edge21" class="edge"><title>Node17&#45;&gt;Node18</title>
<path fill="none" stroke="midnightblue" d="M87.4923,-114.576C92.9497,-105.241 99.0836,-94.7483 103.861,-86.5765"/>
<polygon fill="midnightblue" stroke="midnightblue" points="84.3612,-112.997 82.3357,-123.396 90.4043,-116.529 84.3612,-112.997"/>
</g>
<!-- Node18&#45;&gt;Node5 -->
<g id="edge22" class="edge"><title>Node18&#45;&gt;Node5</title>
<path fill="none" stroke="midnightblue" d="M112.09,-46.2892C112.09,-36.857 112.09,-26.6548 112.09,-19.6578"/>
<polygon fill="midnightblue" stroke="midnightblue" points="108.59,-46.3993 112.09,-56.3993 115.59,-46.3994 108.59,-46.3993"/>
</g>
<!-- Node19&#45;&gt;Node3 -->
<g id="edge27" class="edge"><title>Node19&#45;&gt;Node3</title>
<path fill="none" stroke="midnightblue" d="M567.09,-314.317C567.09,-303.496 567.09,-290.398 567.09,-282.009"/>
<polygon fill="midnightblue" stroke="midnightblue" points="563.59,-314.475 567.09,-324.475 570.59,-314.475 563.59,-314.475"/>
</g>
<!-- Node19&#45;&gt;Node4 -->
<g id="edge29" class="edge"><title>Node19&#45;&gt;Node4</title>
<path fill="none" stroke="midnightblue" d="M506.868,-328.819C438.567,-320.483 330.085,-295.547 279.09,-221 264.675,-199.927 282.194,-170.902 295.591,-153.779"/>
<polygon fill="midnightblue" stroke="midnightblue" points="506.724,-332.325 517.055,-329.976 507.514,-325.37 506.724,-332.325"/>
</g>
<!-- Node20 -->
<g id="node20" class="node"><title>Node20</title>
<g id="a_node20"><a xlink:href="../../db/dab/printer_8h.xhtml" target="_top" xlink:title=" ">
<polygon fill="none" stroke="black" points="632.59,-257.5 632.59,-287.5 733.59,-287.5 733.59,-257.5 632.59,-257.5"/>
<text text-anchor="start" x="640.59" y="-275.5" font-family="Helvetica,sans-Serif" font-size="10.00">include/instructions</text>
<text text-anchor="middle" x="683.09" y="-264.5" font-family="Helvetica,sans-Serif" font-size="10.00">/printer.h</text>
</a>
</g>
</g>
<!-- Node19&#45;&gt;Node20 -->
<g id="edge28" class="edge"><title>Node19&#45;&gt;Node20</title>
<path fill="none" stroke="midnightblue" d="M592.812,-319.807C611.487,-310.228 636.712,-297.289 655.751,-287.523"/>
<polygon fill="midnightblue" stroke="midnightblue" points="591.011,-316.797 583.71,-324.475 594.205,-323.025 591.011,-316.797"/>
</g>
</g>
</svg>
