<?xml version="1.0" encoding="UTF-8" standalone="no"?>
<!DOCTYPE svg PUBLIC "-//W3C//DTD SVG 1.1//EN"
 "http://www.w3.org/Graphics/SVG/1.1/DTD/svg11.dtd">
<!-- Generated by graphviz version 2.38.0 (20140413.2041)
 -->
<!-- Title: include/utils/attributes.h Pages: 1 -->
<!--zoomable 408 -->
<svg id="main" version="1.1" xmlns="http://www.w3.org/2000/svg" xmlns:xlink="http://www.w3.org/1999/xlink" xml:space="preserve" onload="init(evt)">
<style type="text/css"><![CDATA[
.edge:hover path { stroke: red; }
.edge:hover polygon { stroke: red; fill: red; }
]]></style>
<script type="text/javascript"><![CDATA[
var edges = document.getElementsByTagName('g');
if (edges && edges.length) {
  for (var i=0;i<edges.length;i++) {
    if (edges[i].id.substr(0,4)=='edge') {
      edges[i].setAttribute('class','edge');
    }
  }
}
]]></script>
        <defs>
                <circle id="rim" cx="0" cy="0" r="7"/>
                <circle id="rim2" cx="0" cy="0" r="3.5"/>
                <g id="zoomPlus">
                        <use xlink:href="#rim" fill="#404040">
                                <set attributeName="fill" to="#808080" begin="zoomplus.mouseover" end="zoomplus.mouseout"/>
                        </use>
                        <path d="M-4,0h8M0,-4v8" fill="none" stroke="white" stroke-width="1.5" pointer-events="none"/>
                </g>
                <g id="zoomMin">
                        <use xlink:href="#rim" fill="#404040">
                                <set attributeName="fill" to="#808080" begin="zoomminus.mouseover" end="zoomminus.mouseout"/>
                        </use>
                        <path d="M-4,0h8" fill="none" stroke="white" stroke-width="1.5" pointer-events="none"/>
                </g>
                <g id="dirArrow">
                        <path fill="none" stroke="white" stroke-width="1.5" d="M0,-3.0v7 M-2.5,-0.5L0,-3.0L2.5,-0.5"/>
                </g>
               <g id="resetDef">
                       <use xlink:href="#rim2" fill="#404040">
                               <set attributeName="fill" to="#808080" begin="reset.mouseover" end="reset.mouseout"/>
                       </use>
               </g>
        </defs>

<script type="text/javascript">
var viewWidth = 1236;
var viewHeight = 408;
var sectionId = 'dynsection-1';
</script>
<script xlink:href="../../svgpan.js"/>
<svg id="graph" class="graph">
<g id="viewport">
<title>include/utils/attributes.h</title>
<!-- Node1 -->
<g id="node1" class="node"><title>Node1</title>
<g id="a_node1"><a xlink:title=" ">
<polygon fill="#bfbfbf" stroke="black" points="882.993,-380.5 882.993,-399.5 1002.99,-399.5 1002.99,-380.5 882.993,-380.5"/>
<text text-anchor="middle" x="942.993" y="-387.5" font-family="Helvetica,sans-Serif" font-size="10.00">include/utils/attributes.h</text>
</a>
</g>
</g>
<!-- Node2 -->
<g id="node2" class="node"><title>Node2</title>
<g id="a_node2"><a xlink:href="../../d0/d36/constant_pool_8h.xhtml" target="_top" xlink:title=" ">
<polygon fill="none" stroke="black" points="223.493,-324.5 223.493,-343.5 360.493,-343.5 360.493,-324.5 223.493,-324.5"/>
<text text-anchor="middle" x="291.993" y="-331.5" font-family="Helvetica,sans-Serif" font-size="10.00">include/utils/constantPool.h</text>
</a>
</g>
</g>
<!-- Node1&#45;&gt;Node2 -->
<g id="edge1" class="edge"><title>Node1&#45;&gt;Node2</title>
<path fill="none" stroke="midnightblue" d="M872.64,-383.164C746.906,-372.735 485.169,-351.024 360.661,-340.696"/>
<polygon fill="midnightblue" stroke="midnightblue" points="872.661,-386.678 882.916,-384.017 873.239,-379.702 872.661,-386.678"/>
</g>
<!-- Node15 -->
<g id="node15" class="node"><title>Node15</title>
<g id="a_node15"><a xlink:href="../../dc/dba/viewer_8h.xhtml" target="_top" xlink:title=" ">
<polygon fill="none" stroke="black" points="1143.49,-196 1143.49,-215 1228.49,-215 1228.49,-196 1143.49,-196"/>
<text text-anchor="middle" x="1185.99" y="-203" font-family="Helvetica,sans-Serif" font-size="10.00">include/viewer.h</text>
</a>
</g>
</g>
<!-- Node1&#45;&gt;Node15 -->
<g id="edge31" class="edge"><title>Node1&#45;&gt;Node15</title>
<path fill="none" stroke="midnightblue" d="M963.146,-374.523C990.141,-355.068 1039.46,-319.31 1080.99,-288 1115.64,-261.886 1156.02,-230.173 1175.04,-215.169"/>
<polygon fill="midnightblue" stroke="midnightblue" points="960.962,-371.782 954.891,-380.465 965.052,-377.464 960.962,-371.782"/>
</g>
<!-- Node19 -->
<g id="node19" class="node"><title>Node19</title>
<g id="a_node19"><a xlink:href="../../d9/d70/infos_8h.xhtml" target="_top" xlink:title=" ">
<polygon fill="none" stroke="black" points="892.993,-324.5 892.993,-343.5 992.993,-343.5 992.993,-324.5 892.993,-324.5"/>
<text text-anchor="middle" x="942.993" y="-331.5" font-family="Helvetica,sans-Serif" font-size="10.00">include/utils/infos.h</text>
</a>
</g>
</g>
<!-- Node1&#45;&gt;Node19 -->
<g id="edge27" class="edge"><title>Node1&#45;&gt;Node19</title>
<path fill="none" stroke="midnightblue" d="M942.993,-369.805C942.993,-360.91 942.993,-350.78 942.993,-343.751"/>
<polygon fill="midnightblue" stroke="midnightblue" points="939.494,-370.083 942.993,-380.083 946.494,-370.083 939.494,-370.083"/>
</g>
<!-- Node3 -->
<g id="node3" class="node"><title>Node3</title>
<g id="a_node3"><a xlink:href="../../d4/db4/classfile_8h.xhtml" target="_top" xlink:title=" ">
<polygon fill="none" stroke="black" points="608.993,-263 608.993,-282 702.993,-282 702.993,-263 608.993,-263"/>
<text text-anchor="middle" x="655.993" y="-270" font-family="Helvetica,sans-Serif" font-size="10.00">include/classfile.h</text>
</a>
</g>
</g>
<!-- Node2&#45;&gt;Node3 -->
<g id="edge2" class="edge"><title>Node2&#45;&gt;Node3</title>
<path fill="none" stroke="midnightblue" d="M354.018,-322.861C426.188,-311.064 543.748,-291.848 608.854,-281.205"/>
<polygon fill="midnightblue" stroke="midnightblue" points="353.45,-319.408 344.146,-324.475 354.579,-326.316 353.45,-319.408"/>
</g>
<!-- Node6 -->
<g id="node6" class="node"><title>Node6</title>
<g id="a_node6"><a xlink:href="../../d6/dda/reader_8h.xhtml" target="_top" xlink:title=" ">
<polygon fill="none" stroke="black" points="138.993,-196 138.993,-215 224.993,-215 224.993,-196 138.993,-196"/>
<text text-anchor="middle" x="181.993" y="-203" font-family="Helvetica,sans-Serif" font-size="10.00">include/reader.h</text>
</a>
</g>
</g>
<!-- Node2&#45;&gt;Node6 -->
<g id="edge25" class="edge"><title>Node2&#45;&gt;Node6</title>
<path fill="none" stroke="midnightblue" d="M277.623,-316.474C254.007,-289.315 207.794,-236.171 189.607,-215.256"/>
<polygon fill="midnightblue" stroke="midnightblue" points="275.23,-319.056 284.433,-324.305 280.512,-314.462 275.23,-319.056"/>
</g>
<!-- Node7 -->
<g id="node7" class="node"><title>Node7</title>
<g id="a_node7"><a xlink:href="../../d8/df4/helper__functions_8h.xhtml" target="_top" xlink:title=" ">
<polygon fill="none" stroke="black" points="242.993,-190.5 242.993,-220.5 340.993,-220.5 340.993,-190.5 242.993,-190.5"/>
<text text-anchor="start" x="250.993" y="-208.5" font-family="Helvetica,sans-Serif" font-size="10.00">include/utils/helper</text>
<text text-anchor="middle" x="291.993" y="-197.5" font-family="Helvetica,sans-Serif" font-size="10.00">_functions.h</text>
</a>
</g>
</g>
<!-- Node2&#45;&gt;Node7 -->
<g id="edge26" class="edge"><title>Node2&#45;&gt;Node7</title>
<path fill="none" stroke="midnightblue" d="M291.993,-314.108C291.993,-288.629 291.993,-243.811 291.993,-220.888"/>
<polygon fill="midnightblue" stroke="midnightblue" points="288.494,-314.305 291.993,-324.305 295.494,-314.305 288.494,-314.305"/>
</g>
<!-- Node16 -->
<g id="node16" class="node"><title>Node16</title>
<g id="a_node16"><a xlink:href="../../df/d7d/frame_8h.xhtml" target="_top" xlink:title=" ">
<polygon fill="none" stroke="black" points="14.9934,-263 14.9934,-282 118.993,-282 118.993,-263 14.9934,-263"/>
<text text-anchor="middle" x="66.9934" y="-270" font-family="Helvetica,sans-Serif" font-size="10.00">include/utils/frame.h</text>
</a>
</g>
</g>
<!-- Node2&#45;&gt;Node16 -->
<g id="edge18" class="edge"><title>Node2&#45;&gt;Node16</title>
<path fill="none" stroke="midnightblue" d="M250.002,-321.896C206.303,-310.34 138.824,-292.495 99.1706,-282.009"/>
<polygon fill="midnightblue" stroke="midnightblue" points="249.194,-325.302 259.756,-324.475 250.984,-318.535 249.194,-325.302"/>
</g>
<!-- Node4 -->
<g id="node4" class="node"><title>Node4</title>
<g id="a_node4"><a xlink:href="../../df/d50/method__area_8h.xhtml" target="_top" xlink:title=" ">
<polygon fill="none" stroke="black" points="298.493,-123.5 298.493,-153.5 411.493,-153.5 411.493,-123.5 298.493,-123.5"/>
<text text-anchor="start" x="306.493" y="-141.5" font-family="Helvetica,sans-Serif" font-size="10.00">include/utils/memory</text>
<text text-anchor="middle" x="354.993" y="-130.5" font-family="Helvetica,sans-Serif" font-size="10.00">_areas/method_area.h</text>
</a>
</g>
</g>
<!-- Node3&#45;&gt;Node4 -->
<g id="edge3" class="edge"><title>Node3&#45;&gt;Node4</title>
<path fill="none" stroke="midnightblue" d="M598.45,-267.081C529.55,-260.714 419.483,-246.786 387.993,-221 367.325,-204.075 359.493,-172.205 356.606,-153.731"/>
<polygon fill="midnightblue" stroke="midnightblue" points="598.447,-270.595 608.719,-268.002 599.072,-263.623 598.447,-270.595"/>
</g>
<!-- Node3&#45;&gt;Node6 -->
<g id="edge5" class="edge"><title>Node3&#45;&gt;Node6</title>
<path fill="none" stroke="midnightblue" d="M598.73,-267.439C517.165,-261.024 363.1,-246.57 233.993,-221 225.995,-219.416 217.427,-217.234 209.601,-215.043"/>
<polygon fill="midnightblue" stroke="midnightblue" points="598.549,-270.935 608.79,-268.218 599.09,-263.956 598.549,-270.935"/>
</g>
<!-- Node3&#45;&gt;Node7 -->
<g id="edge6" class="edge"><title>Node3&#45;&gt;Node7</title>
<path fill="none" stroke="midnightblue" d="M598.768,-262.946C538.078,-253.629 439.494,-237.797 354.993,-221 350.48,-220.103 345.797,-219.121 341.113,-218.105"/>
<polygon fill="midnightblue" stroke="midnightblue" points="598.497,-266.445 608.911,-264.496 599.555,-259.525 598.497,-266.445"/>
</g>
<!-- Node9 -->
<g id="node9" class="node"><title>Node9</title>
<g id="a_node9"><a xlink:href="../../d8/d07/attribute_serializer_8h.xhtml" target="_top" xlink:title=" ">
<polygon fill="none" stroke="black" points="664.993,-190.5 664.993,-220.5 780.993,-220.5 780.993,-190.5 664.993,-190.5"/>
<text text-anchor="start" x="672.993" y="-208.5" font-family="Helvetica,sans-Serif" font-size="10.00">include/utils/serializers</text>
<text text-anchor="middle" x="722.993" y="-197.5" font-family="Helvetica,sans-Serif" font-size="10.00">/attributeSerializer.h</text>
</a>
</g>
</g>
<!-- Node3&#45;&gt;Node9 -->
<g id="edge10" class="edge"><title>Node3&#45;&gt;Node9</title>
<path fill="none" stroke="midnightblue" d="M672.365,-255.617C683.405,-244.907 697.84,-230.902 708.471,-220.589"/>
<polygon fill="midnightblue" stroke="midnightblue" points="669.77,-253.259 665.029,-262.734 674.644,-258.283 669.77,-253.259"/>
</g>
<!-- Node10 -->
<g id="node10" class="node"><title>Node10</title>
<g id="a_node10"><a xlink:href="../../da/d13/classfile_serializer_8h.xhtml" target="_top" xlink:title=" ">
<polygon fill="none" stroke="black" points="798.993,-190.5 798.993,-220.5 914.993,-220.5 914.993,-190.5 798.993,-190.5"/>
<text text-anchor="start" x="806.993" y="-208.5" font-family="Helvetica,sans-Serif" font-size="10.00">include/utils/serializers</text>
<text text-anchor="middle" x="856.993" y="-197.5" font-family="Helvetica,sans-Serif" font-size="10.00">/classfileSerializer.h</text>
</a>
</g>
</g>
<!-- Node3&#45;&gt;Node10 -->
<g id="edge11" class="edge"><title>Node3&#45;&gt;Node10</title>
<path fill="none" stroke="midnightblue" d="M692.251,-259.775C726.333,-248.753 777.387,-232.244 813.614,-220.528"/>
<polygon fill="midnightblue" stroke="midnightblue" points="691.123,-256.461 682.685,-262.869 693.276,-263.122 691.123,-256.461"/>
</g>
<!-- Node11 -->
<g id="node11" class="node"><title>Node11</title>
<g id="a_node11"><a xlink:href="../../d2/dbc/constpool_serializer_8h.xhtml" target="_top" xlink:title=" ">
<polygon fill="none" stroke="black" points="1008.99,-190.5 1008.99,-220.5 1124.99,-220.5 1124.99,-190.5 1008.99,-190.5"/>
<text text-anchor="start" x="1016.99" y="-208.5" font-family="Helvetica,sans-Serif" font-size="10.00">include/utils/serializers</text>
<text text-anchor="middle" x="1066.99" y="-197.5" font-family="Helvetica,sans-Serif" font-size="10.00">/constpoolSerializer.h</text>
</a>
</g>
</g>
<!-- Node3&#45;&gt;Node11 -->
<g id="edge12" class="edge"><title>Node3&#45;&gt;Node11</title>
<path fill="none" stroke="midnightblue" d="M713.004,-263.909C780.484,-254.716 896.176,-238.299 994.993,-221 999.515,-220.208 1004.19,-219.353 1008.88,-218.467"/>
<polygon fill="midnightblue" stroke="midnightblue" points="712.44,-260.453 703.001,-265.267 713.381,-267.39 712.44,-260.453"/>
</g>
<!-- Node12 -->
<g id="node12" class="node"><title>Node12</title>
<g id="a_node12"><a xlink:href="../../d8/d6c/instruction_serializer_8h.xhtml" target="_top" xlink:title=" ">
<polygon fill="none" stroke="black" points="965.993,-123.5 965.993,-153.5 1081.99,-153.5 1081.99,-123.5 965.993,-123.5"/>
<text text-anchor="start" x="973.993" y="-141.5" font-family="Helvetica,sans-Serif" font-size="10.00">include/utils/serializers</text>
<text text-anchor="middle" x="1023.99" y="-130.5" font-family="Helvetica,sans-Serif" font-size="10.00">/instructionSerializer.h</text>
</a>
</g>
</g>
<!-- Node3&#45;&gt;Node12 -->
<g id="edge15" class="edge"><title>Node3&#45;&gt;Node12</title>
<path fill="none" stroke="midnightblue" d="M713.256,-268.877C769.283,-264.468 855.885,-252.652 923.993,-221 959.74,-204.388 993.601,-172.096 1011.27,-153.536"/>
<polygon fill="midnightblue" stroke="midnightblue" points="712.879,-265.396 703.162,-269.618 713.391,-272.377 712.879,-265.396"/>
</g>
<!-- Node13 -->
<g id="node13" class="node"><title>Node13</title>
<g id="a_node13"><a xlink:href="../../d0/dfa/field_serializer_8h.xhtml" target="_top" xlink:title=" ">
<polygon fill="none" stroke="black" points="396.993,-190.5 396.993,-220.5 512.993,-220.5 512.993,-190.5 396.993,-190.5"/>
<text text-anchor="start" x="404.993" y="-208.5" font-family="Helvetica,sans-Serif" font-size="10.00">include/utils/serializers</text>
<text text-anchor="middle" x="454.993" y="-197.5" font-family="Helvetica,sans-Serif" font-size="10.00">/fieldSerializer.h</text>
</a>
</g>
</g>
<!-- Node3&#45;&gt;Node13 -->
<g id="edge14" class="edge"><title>Node3&#45;&gt;Node13</title>
<path fill="none" stroke="midnightblue" d="M619.736,-259.775C585.654,-248.753 534.6,-232.244 498.373,-220.528"/>
<polygon fill="midnightblue" stroke="midnightblue" points="618.71,-263.122 629.302,-262.869 620.864,-256.461 618.71,-263.122"/>
</g>
<!-- Node14 -->
<g id="node14" class="node"><title>Node14</title>
<g id="a_node14"><a xlink:href="../../de/df9/method_serializer_8h.xhtml" target="_top" xlink:title=" ">
<polygon fill="none" stroke="black" points="530.993,-190.5 530.993,-220.5 646.993,-220.5 646.993,-190.5 530.993,-190.5"/>
<text text-anchor="start" x="538.993" y="-208.5" font-family="Helvetica,sans-Serif" font-size="10.00">include/utils/serializers</text>
<text text-anchor="middle" x="588.993" y="-197.5" font-family="Helvetica,sans-Serif" font-size="10.00">/methodSerializer.h</text>
</a>
</g>
</g>
<!-- Node3&#45;&gt;Node14 -->
<g id="edge16" class="edge"><title>Node3&#45;&gt;Node14</title>
<path fill="none" stroke="midnightblue" d="M639.622,-255.617C628.582,-244.907 614.147,-230.902 603.516,-220.589"/>
<polygon fill="midnightblue" stroke="midnightblue" points="637.343,-258.283 646.958,-262.734 642.217,-253.259 637.343,-258.283"/>
</g>
<!-- Node3&#45;&gt;Node15 -->
<g id="edge17" class="edge"><title>Node3&#45;&gt;Node15</title>
<path fill="none" stroke="midnightblue" d="M713.203,-268.545C803.34,-263.197 983.639,-249.698 1133.99,-221 1142.09,-219.454 1150.77,-217.257 1158.67,-215.04"/>
<polygon fill="midnightblue" stroke="midnightblue" points="712.97,-265.052 703.19,-269.127 713.376,-272.041 712.97,-265.052"/>
</g>
<!-- Node5 -->
<g id="node5" class="node"><title>Node5</title>
<g id="a_node5"><a xlink:href="../../d3/d97/interpreter_8h.xhtml" target="_top" xlink:title=" ">
<polygon fill="none" stroke="black" points="75.9934,-0.5 75.9934,-19.5 177.993,-19.5 177.993,-0.5 75.9934,-0.5"/>
<text text-anchor="middle" x="126.993" y="-7.5" font-family="Helvetica,sans-Serif" font-size="10.00">include/interpreter.h</text>
</a>
</g>
</g>
<!-- Node4&#45;&gt;Node5 -->
<g id="edge4" class="edge"><title>Node4&#45;&gt;Node5</title>
<path fill="none" stroke="midnightblue" d="M337.466,-115.491C321.815,-97.1847 297.344,-71.6736 270.993,-56 240.603,-37.9239 202.22,-26.3983 172.725,-19.5413"/>
<polygon fill="midnightblue" stroke="midnightblue" points="334.918,-117.9 344.012,-123.334 340.292,-113.414 334.918,-117.9"/>
</g>
<!-- Node7&#45;&gt;Node4 -->
<g id="edge9" class="edge"><title>Node7&#45;&gt;Node4</title>
<path fill="none" stroke="midnightblue" d="M312.808,-183.024C322.195,-173.34 333.017,-162.174 341.35,-153.577"/>
<polygon fill="midnightblue" stroke="midnightblue" points="310.11,-180.779 305.663,-190.396 315.137,-185.651 310.11,-180.779"/>
</g>
<!-- Node8 -->
<g id="node8" class="node"><title>Node8</title>
<g id="a_node8"><a xlink:href="../../da/ddb/heap_8h.xhtml" target="_top" xlink:title=" ">
<polygon fill="none" stroke="black" points="155.493,-56.5 155.493,-86.5 262.493,-86.5 262.493,-56.5 155.493,-56.5"/>
<text text-anchor="start" x="163.493" y="-74.5" font-family="Helvetica,sans-Serif" font-size="10.00">include/utils/memory</text>
<text text-anchor="middle" x="208.993" y="-63.5" font-family="Helvetica,sans-Serif" font-size="10.00">_areas/heap.h</text>
</a>
</g>
</g>
<!-- Node7&#45;&gt;Node8 -->
<g id="edge7" class="edge"><title>Node7&#45;&gt;Node8</title>
<path fill="none" stroke="midnightblue" d="M277.741,-181.834C260.533,-154.466 232.123,-109.284 217.812,-86.5247"/>
<polygon fill="midnightblue" stroke="midnightblue" points="274.825,-183.771 283.111,-190.374 280.751,-180.045 274.825,-183.771"/>
</g>
<!-- Node8&#45;&gt;Node5 -->
<g id="edge8" class="edge"><title>Node8&#45;&gt;Node5</title>
<path fill="none" stroke="midnightblue" d="M181.407,-50.483C166.962,-40.0013 150.02,-27.7081 138.925,-19.6578"/>
<polygon fill="midnightblue" stroke="midnightblue" points="179.411,-53.3592 189.561,-56.3993 183.522,-47.6936 179.411,-53.3592"/>
</g>
<!-- Node11&#45;&gt;Node12 -->
<g id="edge13" class="edge"><title>Node11&#45;&gt;Node12</title>
<path fill="none" stroke="midnightblue" d="M1052.02,-181.867C1045.8,-172.459 1038.77,-161.833 1033.31,-153.577"/>
<polygon fill="midnightblue" stroke="midnightblue" points="1049.23,-183.987 1057.66,-190.396 1055.06,-180.125 1049.23,-183.987"/>
</g>
<!-- Node16&#45;&gt;Node5 -->
<g id="edge19" class="edge"><title>Node16&#45;&gt;Node5</title>
<path fill="none" stroke="midnightblue" d="M40.1189,-257.63C26.6073,-249.07 11.5345,-236.71 3.99343,-221 -1.96894,-208.579 -0.0555584,-203.169 3.99343,-190 27.0419,-115.035 93.8358,-43.72 118.073,-19.6125"/>
<polygon fill="midnightblue" stroke="midnightblue" points="38.722,-260.87 49.112,-262.943 42.2827,-254.843 38.722,-260.87"/>
</g>
<!-- Node17 -->
<g id="node17" class="node"><title>Node17</title>
<g id="a_node17"><a xlink:href="../../dd/d7e/java__stack_8h.xhtml" target="_top" xlink:title=" ">
<polygon fill="none" stroke="black" points="13.4934,-190.5 13.4934,-220.5 120.493,-220.5 120.493,-190.5 13.4934,-190.5"/>
<text text-anchor="start" x="21.4934" y="-208.5" font-family="Helvetica,sans-Serif" font-size="10.00">include/utils/memory</text>
<text text-anchor="middle" x="66.9934" y="-197.5" font-family="Helvetica,sans-Serif" font-size="10.00">_areas/java_stack.h</text>
</a>
</g>
</g>
<!-- Node16&#45;&gt;Node17 -->
<g id="edge20" class="edge"><title>Node16&#45;&gt;Node17</title>
<path fill="none" stroke="midnightblue" d="M66.9934,-252.411C66.9934,-242.222 66.9934,-229.901 66.9934,-220.589"/>
<polygon fill="midnightblue" stroke="midnightblue" points="63.4935,-252.734 66.9934,-262.734 70.4935,-252.734 63.4935,-252.734"/>
</g>
<!-- Node17&#45;&gt;Node5 -->
<g id="edge21" class="edge"><title>Node17&#45;&gt;Node5</title>
<path fill="none" stroke="midnightblue" d="M71.8044,-180.402C75.2614,-164.071 80.3025,-142.072 85.9934,-123 97.7162,-83.7131 115.832,-38.1991 123.439,-19.5922"/>
<polygon fill="midnightblue" stroke="midnightblue" points="68.3702,-179.726 69.7705,-190.228 75.2249,-181.145 68.3702,-179.726"/>
</g>
<!-- Node18 -->
<g id="node18" class="node"><title>Node18</title>
<g id="a_node18"><a xlink:href="../../db/dd5/thread_8h.xhtml" target="_top" xlink:title=" ">
<polygon fill="none" stroke="black" points="95.4934,-123.5 95.4934,-153.5 202.493,-153.5 202.493,-123.5 95.4934,-123.5"/>
<text text-anchor="start" x="103.493" y="-141.5" font-family="Helvetica,sans-Serif" font-size="10.00">include/utils/memory</text>
<text text-anchor="middle" x="148.993" y="-130.5" font-family="Helvetica,sans-Serif" font-size="10.00">_areas/thread.h</text>
</a>
</g>
</g>
<!-- Node17&#45;&gt;Node18 -->
<g id="edge22" class="edge"><title>Node17&#45;&gt;Node18</title>
<path fill="none" stroke="midnightblue" d="M92.6435,-184.168C105.182,-174.228 119.96,-162.514 131.235,-153.577"/>
<polygon fill="midnightblue" stroke="midnightblue" points="90.4486,-181.441 84.7862,-190.396 94.797,-186.927 90.4486,-181.441"/>
</g>
<!-- Node18&#45;&gt;Node5 -->
<g id="edge24" class="edge"><title>Node18&#45;&gt;Node5</title>
<path fill="none" stroke="midnightblue" d="M144.822,-113.513C139.867,-85.0209 131.853,-38.9442 128.522,-19.7885"/>
<polygon fill="midnightblue" stroke="midnightblue" points="141.393,-114.227 146.555,-123.479 148.29,-113.027 141.393,-114.227"/>
</g>
<!-- Node18&#45;&gt;Node8 -->
<g id="edge23" class="edge"><title>Node18&#45;&gt;Node8</title>
<path fill="none" stroke="midnightblue" d="M168.817,-116.024C177.757,-106.34 188.064,-95.1739 196,-86.5765"/>
<polygon fill="midnightblue" stroke="midnightblue" points="166.224,-113.674 162.013,-123.396 171.367,-118.422 166.224,-113.674"/>
</g>
<!-- Node19&#45;&gt;Node3 -->
<g id="edge28" class="edge"><title>Node19&#45;&gt;Node3</title>
<path fill="none" stroke="midnightblue" d="M891.875,-322.402C836.235,-310.867 748.363,-292.65 697.037,-282.009"/>
<polygon fill="midnightblue" stroke="midnightblue" points="891.371,-325.872 901.873,-324.475 892.792,-319.018 891.371,-325.872"/>
</g>
<!-- Node19&#45;&gt;Node4 -->
<g id="edge30" class="edge"><title>Node19&#45;&gt;Node4</title>
<path fill="none" stroke="midnightblue" d="M946.967,-314.508C952.366,-283.782 957.829,-222.392 923.993,-190 887.481,-155.045 548.247,-143.737 411.615,-140.581"/>
<polygon fill="midnightblue" stroke="midnightblue" points="943.53,-313.846 945.053,-324.331 950.401,-315.185 943.53,-313.846"/>
</g>
<!-- Node20 -->
<g id="node20" class="node"><title>Node20</title>
<g id="a_node20"><a xlink:href="../../db/dab/printer_8h.xhtml" target="_top" xlink:title=" ">
<polygon fill="none" stroke="black" points="971.493,-257.5 971.493,-287.5 1072.49,-287.5 1072.49,-257.5 971.493,-257.5"/>
<text text-anchor="start" x="979.493" y="-275.5" font-family="Helvetica,sans-Serif" font-size="10.00">include/instructions</text>
<text text-anchor="middle" x="1021.99" y="-264.5" font-family="Helvetica,sans-Serif" font-size="10.00">/printer.h</text>
</a>
</g>
</g>
<!-- Node19&#45;&gt;Node20 -->
<g id="edge29" class="edge"><title>Node19&#45;&gt;Node20</title>
<path fill="none" stroke="midnightblue" d="M962.65,-318.195C975.107,-308.813 991.122,-296.751 1003.37,-287.523"/>
<polygon fill="midnightblue" stroke="midnightblue" points="960.194,-315.663 954.312,-324.475 964.406,-321.255 960.194,-315.663"/>
</g>
</g>
</svg>
        <g id="navigator" transform="translate(0 0)" fill="#404254">
                <rect fill="#f2f5e9" fill-opacity="0.5" stroke="#606060" stroke-width=".5" x="0" y="0" width="60" height="60"/>
                <use id="zoomplus" xlink:href="#zoomPlus" x="17" y="9" onmousedown="handleZoom(evt,'in')"/>
                <use id="zoomminus" xlink:href="#zoomMin" x="42" y="9" onmousedown="handleZoom(evt,'out')"/>
                <use id="reset" xlink:href="#resetDef" x="30" y="36" onmousedown="handleReset()"/>
                <g id="arrowUp" xlink:href="#dirArrow" transform="translate(30 24)" onmousedown="handlePan(0,-1)">
                  <use xlink:href="#rim" fill="#404040">
                        <set attributeName="fill" to="#808080" begin="arrowUp.mouseover" end="arrowUp.mouseout"/>
                  </use>
                  <path fill="none" stroke="white" stroke-width="1.5" d="M0,-3.0v7 M-2.5,-0.5L0,-3.0L2.5,-0.5"/>
                </g>
                <g id="arrowRight" xlink:href="#dirArrow" transform="rotate(90) translate(36 -43)" onmousedown="handlePan(1,0)">
                  <use xlink:href="#rim" fill="#404040">
                        <set attributeName="fill" to="#808080" begin="arrowRight.mouseover" end="arrowRight.mouseout"/>
                  </use>
                  <path fill="none" stroke="white" stroke-width="1.5" d="M0,-3.0v7 M-2.5,-0.5L0,-3.0L2.5,-0.5"/>
                </g>
                <g id="arrowDown" xlink:href="#dirArrow" transform="rotate(180) translate(-30 -48)" onmousedown="handlePan(0,1)">
                  <use xlink:href="#rim" fill="#404040">
                        <set attributeName="fill" to="#808080" begin="arrowDown.mouseover" end="arrowDown.mouseout"/>
                  </use>
                  <path fill="none" stroke="white" stroke-width="1.5" d="M0,-3.0v7 M-2.5,-0.5L0,-3.0L2.5,-0.5"/>
                </g>
                <g id="arrowLeft" xlink:href="#dirArrow" transform="rotate(270) translate(-36 17)" onmousedown="handlePan(-1,0)">
                  <use xlink:href="#rim" fill="#404040">
                        <set attributeName="fill" to="#808080" begin="arrowLeft.mouseover" end="arrowLeft.mouseout"/>
                  </use>
                  <path fill="none" stroke="white" stroke-width="1.5" d="M0,-3.0v7 M-2.5,-0.5L0,-3.0L2.5,-0.5"/>
                </g>
        </g>
        <svg viewBox="0 0 15 15" width="100%" height="30px" preserveAspectRatio="xMaxYMin meet">
         <g id="arrow_out" transform="scale(0.3 0.3)">
          <a xlink:href="attributes_8h__dep__incl_org.svg" target="_base">
           <rect id="button" ry="5" rx="5" y="6" x="6" height="38" width="38"
                fill="#f2f5e9" fill-opacity="0.5" stroke="#606060" stroke-width="1.0"/>
           <path id="arrow"
             d="M 11.500037,31.436501 C 11.940474,20.09759 22.043105,11.32322 32.158766,21.979434 L 37.068811,17.246167 C 37.068811,17.246167 37.088388,32 37.088388,32 L 22.160133,31.978069 C 22.160133,31.978069 26.997745,27.140456 26.997745,27.140456 C 18.528582,18.264221 13.291696,25.230495 11.500037,31.436501 z"
             style="fill:#404040;"/>
          </a>
         </g>
        </svg>
</svg>
