<?xml version="1.0" encoding="UTF-8" standalone="no"?>
<!DOCTYPE svg PUBLIC "-//W3C//DTD SVG 1.1//EN"
 "http://www.w3.org/Graphics/SVG/1.1/DTD/svg11.dtd">
<!-- Generated by graphviz version 2.38.0 (20140413.2041)
 -->
<!-- Title: Utils::ConstantPool::BaseReference Pages: 1 -->
<svg width="546pt" height="375pt"
 viewBox="0.00 0.00 546.00 375.00" xmlns="http://www.w3.org/2000/svg" xmlns:xlink="http://www.w3.org/1999/xlink">
<g id="graph0" class="graph" transform="scale(1 1) rotate(0) translate(4 371)">
<title>Utils::ConstantPool::BaseReference</title>
<!-- Node1 -->
<g id="node1" class="node"><title>Node1</title>
<g id="a_node1"><a xlink:title=" ">
<polygon fill="#bfbfbf" stroke="black" points="203.5,-138.5 203.5,-239.5 326.5,-239.5 326.5,-138.5 203.5,-138.5"/>
<text text-anchor="start" x="211.5" y="-227.5" font-family="Helvetica,sans-Serif" font-size="10.00">Utils::ConstantPool</text>
<text text-anchor="middle" x="265" y="-216.5" font-family="Helvetica,sans-Serif" font-size="10.00">::BaseReference</text>
<polyline fill="none" stroke="black" points="203.5,-209.5 326.5,-209.5 "/>
<text text-anchor="start" x="211.5" y="-197.5" font-family="Helvetica,sans-Serif" font-size="10.00">+ class_index</text>
<text text-anchor="start" x="211.5" y="-186.5" font-family="Helvetica,sans-Serif" font-size="10.00">+ name_and_type_index</text>
<polyline fill="none" stroke="black" points="203.5,-179.5 326.5,-179.5 "/>
<text text-anchor="start" x="211.5" y="-167.5" font-family="Helvetica,sans-Serif" font-size="10.00">+ BaseReference()</text>
<text text-anchor="start" x="211.5" y="-156.5" font-family="Helvetica,sans-Serif" font-size="10.00">+ getValue()</text>
<text text-anchor="start" x="211.5" y="-145.5" font-family="Helvetica,sans-Serif" font-size="10.00">+ getGeneralInfo()</text>
</a>
</g>
</g>
<!-- Node3 -->
<g id="node3" class="node"><title>Node3</title>
<g id="a_node3"><a xlink:href="../../d8/d68/class_utils_1_1_constant_pool_1_1_c_o_n_s_t_a_n_t___field_ref__info.xhtml" target="_top" xlink:title=" ">
<polygon fill="none" stroke="black" points="0,-0.5 0,-101.5 150,-101.5 150,-0.5 0,-0.5"/>
<text text-anchor="start" x="8" y="-89.5" font-family="Helvetica,sans-Serif" font-size="10.00">Utils::ConstantPool</text>
<text text-anchor="middle" x="75" y="-78.5" font-family="Helvetica,sans-Serif" font-size="10.00">::CONSTANT_FieldRef_info</text>
<polyline fill="none" stroke="black" points="0,-71.5 150,-71.5 "/>
<text text-anchor="middle" x="75" y="-59.5" font-family="Helvetica,sans-Serif" font-size="10.00"> </text>
<polyline fill="none" stroke="black" points="0,-52.5 150,-52.5 "/>
<text text-anchor="start" x="8" y="-40.5" font-family="Helvetica,sans-Serif" font-size="10.00">+ CONSTANT_FieldRef_info()</text>
<text text-anchor="start" x="8" y="-29.5" font-family="Helvetica,sans-Serif" font-size="10.00">+ ~CONSTANT_FieldRef_info()</text>
<text text-anchor="start" x="8" y="-18.5" font-family="Helvetica,sans-Serif" font-size="10.00">+ getValue()</text>
<text text-anchor="start" x="8" y="-7.5" font-family="Helvetica,sans-Serif" font-size="10.00">+ getGeneralInfo()</text>
</a>
</g>
</g>
<!-- Node1&#45;&gt;Node3 -->
<g id="edge2" class="edge"><title>Node1&#45;&gt;Node3</title>
<path fill="none" stroke="midnightblue" d="M194.796,-137.748C178.3,-125.941 160.732,-113.366 144.277,-101.588"/>
<polygon fill="none" stroke="midnightblue" points="193.144,-140.87 203.312,-143.845 197.218,-135.178 193.144,-140.87"/>
</g>
<!-- Node4 -->
<g id="node4" class="node"><title>Node4</title>
<g id="a_node4"><a xlink:href="../../d4/d69/class_utils_1_1_constant_pool_1_1_c_o_n_s_t_a_n_t___interface_methodref__info.xhtml" target="_top" xlink:title=" ">
<polygon fill="none" stroke="black" points="168,-0.5 168,-101.5 362,-101.5 362,-0.5 168,-0.5"/>
<text text-anchor="start" x="176" y="-89.5" font-family="Helvetica,sans-Serif" font-size="10.00">Utils::ConstantPool</text>
<text text-anchor="middle" x="265" y="-78.5" font-family="Helvetica,sans-Serif" font-size="10.00">::CONSTANT_InterfaceMethodref_info</text>
<polyline fill="none" stroke="black" points="168,-71.5 362,-71.5 "/>
<text text-anchor="middle" x="265" y="-59.5" font-family="Helvetica,sans-Serif" font-size="10.00"> </text>
<polyline fill="none" stroke="black" points="168,-52.5 362,-52.5 "/>
<text text-anchor="start" x="176" y="-40.5" font-family="Helvetica,sans-Serif" font-size="10.00">+ CONSTANT_InterfaceMethodref_info()</text>
<text text-anchor="start" x="176" y="-29.5" font-family="Helvetica,sans-Serif" font-size="10.00">+ ~CONSTANT_InterfaceMethodref_info()</text>
<text text-anchor="start" x="176" y="-18.5" font-family="Helvetica,sans-Serif" font-size="10.00">+ getValue()</text>
<text text-anchor="start" x="176" y="-7.5" font-family="Helvetica,sans-Serif" font-size="10.00">+ getGeneralInfo()</text>
</a>
</g>
</g>
<!-- Node1&#45;&gt;Node4 -->
<g id="edge3" class="edge"><title>Node1&#45;&gt;Node4</title>
<path fill="none" stroke="midnightblue" d="M265,-128C265,-119.271 265,-110.363 265,-101.863"/>
<polygon fill="none" stroke="midnightblue" points="261.5,-128.131 265,-138.131 268.5,-128.131 261.5,-128.131"/>
</g>
<!-- Node5 -->
<g id="node5" class="node"><title>Node5</title>
<g id="a_node5"><a xlink:href="../../d3/dbc/class_utils_1_1_constant_pool_1_1_c_o_n_s_t_a_n_t___methodref__info.xhtml" target="_top" xlink:title=" ">
<polygon fill="none" stroke="black" points="380,-0.5 380,-101.5 538,-101.5 538,-0.5 380,-0.5"/>
<text text-anchor="start" x="388" y="-89.5" font-family="Helvetica,sans-Serif" font-size="10.00">Utils::ConstantPool</text>
<text text-anchor="middle" x="459" y="-78.5" font-family="Helvetica,sans-Serif" font-size="10.00">::CONSTANT_Methodref_info</text>
<polyline fill="none" stroke="black" points="380,-71.5 538,-71.5 "/>
<text text-anchor="middle" x="459" y="-59.5" font-family="Helvetica,sans-Serif" font-size="10.00"> </text>
<polyline fill="none" stroke="black" points="380,-52.5 538,-52.5 "/>
<text text-anchor="start" x="388" y="-40.5" font-family="Helvetica,sans-Serif" font-size="10.00">+ CONSTANT_Methodref_info()</text>
<text text-anchor="start" x="388" y="-29.5" font-family="Helvetica,sans-Serif" font-size="10.00">+ ~CONSTANT_Methodref_info()</text>
<text text-anchor="start" x="388" y="-18.5" font-family="Helvetica,sans-Serif" font-size="10.00">+ getValue()</text>
<text text-anchor="start" x="388" y="-7.5" font-family="Helvetica,sans-Serif" font-size="10.00">+ getGeneralInfo()</text>
</a>
</g>
</g>
<!-- Node1&#45;&gt;Node5 -->
<g id="edge4" class="edge"><title>Node1&#45;&gt;Node5</title>
<path fill="none" stroke="midnightblue" d="M335.056,-138.888C352.408,-126.725 371.009,-113.685 388.386,-101.502"/>
<polygon fill="none" stroke="midnightblue" points="332.829,-136.176 326.649,-144.782 336.847,-141.907 332.829,-136.176"/>
</g>
<!-- Node2 -->
<g id="node2" class="node"><title>Node2</title>
<g id="a_node2"><a xlink:href="../../d7/d7d/class_utils_1_1_constant_pool_1_1_base_constant_info.xhtml" target="_top" xlink:title=" ">
<polygon fill="none" stroke="black" points="208,-276.5 208,-366.5 322,-366.5 322,-276.5 208,-276.5"/>
<text text-anchor="start" x="216" y="-354.5" font-family="Helvetica,sans-Serif" font-size="10.00">Utils::ConstantPool</text>
<text text-anchor="middle" x="265" y="-343.5" font-family="Helvetica,sans-Serif" font-size="10.00">::BaseConstantInfo</text>
<polyline fill="none" stroke="black" points="208,-336.5 322,-336.5 "/>
<text text-anchor="start" x="216" y="-324.5" font-family="Helvetica,sans-Serif" font-size="10.00">+ tag</text>
<polyline fill="none" stroke="black" points="208,-317.5 322,-317.5 "/>
<text text-anchor="start" x="216" y="-305.5" font-family="Helvetica,sans-Serif" font-size="10.00">+ BaseConstantInfo()</text>
<text text-anchor="start" x="216" y="-294.5" font-family="Helvetica,sans-Serif" font-size="10.00">+ BaseConstantInfo()</text>
<text text-anchor="start" x="216" y="-283.5" font-family="Helvetica,sans-Serif" font-size="10.00">+ ~BaseConstantInfo()</text>
</a>
</g>
</g>
<!-- Node2&#45;&gt;Node1 -->
<g id="edge1" class="edge"><title>Node2&#45;&gt;Node1</title>
<path fill="none" stroke="midnightblue" d="M265,-266.131C265,-257.311 265,-248.219 265,-239.523"/>
<polygon fill="none" stroke="midnightblue" points="261.5,-266.319 265,-276.319 268.5,-266.319 261.5,-266.319"/>
</g>
</g>
</svg>
