<?xml version="1.0" encoding="UTF-8" standalone="no"?>
<!DOCTYPE svg PUBLIC "-//W3C//DTD SVG 1.1//EN"
 "http://www.w3.org/Graphics/SVG/1.1/DTD/svg11.dtd">
<!-- Generated by graphviz version 2.38.0 (20140413.2041)
 -->
<!-- Title: Utils::Attributes::SourceDebugExtension_attribute Pages: 1 -->
<svg width="271pt" height="375pt"
 viewBox="0.00 0.00 270.50 375.00" xmlns="http://www.w3.org/2000/svg" xmlns:xlink="http://www.w3.org/1999/xlink">
<g id="graph0" class="graph" transform="scale(1 1) rotate(0) translate(4 371)">
<title>Utils::Attributes::SourceDebugExtension_attribute</title>
<!-- Node1 -->
<g id="node1" class="node"><title>Node1</title>
<g id="a_node1"><a xlink:title=" ">
<polygon fill="#bfbfbf" stroke="black" points="95.5,-0.5 95.5,-123.5 229.5,-123.5 229.5,-0.5 95.5,-0.5"/>
<text text-anchor="start" x="103.5" y="-111.5" font-family="Helvetica,sans-Serif" font-size="10.00">Utils::Attributes::</text>
<text text-anchor="start" x="103.5" y="-100.5" font-family="Helvetica,sans-Serif" font-size="10.00">SourceDebugExtension</text>
<text text-anchor="middle" x="162.5" y="-89.5" font-family="Helvetica,sans-Serif" font-size="10.00">_attribute</text>
<polyline fill="none" stroke="black" points="95.5,-82.5 229.5,-82.5 "/>
<text text-anchor="middle" x="162.5" y="-70.5" font-family="Helvetica,sans-Serif" font-size="10.00"> </text>
<polyline fill="none" stroke="black" points="95.5,-63.5 229.5,-63.5 "/>
<text text-anchor="start" x="103.5" y="-51.5" font-family="Helvetica,sans-Serif" font-size="10.00">+ SourceDebugExtension</text>
<text text-anchor="start" x="103.5" y="-40.5" font-family="Helvetica,sans-Serif" font-size="10.00">_attribute()</text>
<text text-anchor="start" x="103.5" y="-29.5" font-family="Helvetica,sans-Serif" font-size="10.00">+ ~SourceDebugExtension</text>
<text text-anchor="start" x="103.5" y="-18.5" font-family="Helvetica,sans-Serif" font-size="10.00">_attribute()</text>
<text text-anchor="start" x="103.5" y="-7.5" font-family="Helvetica,sans-Serif" font-size="10.00">+ getSpecificInfo()</text>
</a>
</g>
</g>
<!-- Node2 -->
<g id="node2" class="node"><title>Node2</title>
<g id="a_node2"><a xlink:href="../../dc/dac/class_utils_1_1_attributes_1_1_base_attribute.xhtml" target="_top" xlink:title=" ">
<polygon fill="none" stroke="black" points="26,-171.5 26,-261.5 123,-261.5 123,-171.5 26,-171.5"/>
<text text-anchor="start" x="34" y="-249.5" font-family="Helvetica,sans-Serif" font-size="10.00">Utils::Attributes::</text>
<text text-anchor="middle" x="74.5" y="-238.5" font-family="Helvetica,sans-Serif" font-size="10.00">BaseAttribute</text>
<polyline fill="none" stroke="black" points="26,-231.5 123,-231.5 "/>
<text text-anchor="middle" x="74.5" y="-219.5" font-family="Helvetica,sans-Serif" font-size="10.00"> </text>
<polyline fill="none" stroke="black" points="26,-212.5 123,-212.5 "/>
<text text-anchor="start" x="34" y="-200.5" font-family="Helvetica,sans-Serif" font-size="10.00">+ BaseAttribute()</text>
<text text-anchor="start" x="34" y="-189.5" font-family="Helvetica,sans-Serif" font-size="10.00">+ BaseAttribute()</text>
<text text-anchor="start" x="34" y="-178.5" font-family="Helvetica,sans-Serif" font-size="10.00">+ ~BaseAttribute()</text>
</a>
</g>
</g>
<!-- Node2&#45;&gt;Node1 -->
<g id="edge1" class="edge"><title>Node2&#45;&gt;Node1</title>
<path fill="none" stroke="midnightblue" d="M105.099,-162.473C112.312,-149.974 120.056,-136.553 127.448,-123.743"/>
<polygon fill="none" stroke="midnightblue" points="101.92,-160.98 99.9532,-171.391 107.983,-164.479 101.92,-160.98"/>
</g>
<!-- Node3 -->
<g id="node3" class="node"><title>Node3</title>
<g id="a_node3"><a xlink:title=" ">
<polygon fill="none" stroke="#bfbfbf" points="0,-309.5 0,-366.5 51,-366.5 51,-309.5 0,-309.5"/>
<text text-anchor="middle" x="25.5" y="-354.5" font-family="Helvetica,sans-Serif" font-size="10.00">uint32_t</text>
<polyline fill="none" stroke="#bfbfbf" points="0,-347.5 51,-347.5 "/>
<text text-anchor="middle" x="25.5" y="-335.5" font-family="Helvetica,sans-Serif" font-size="10.00"> </text>
<polyline fill="none" stroke="#bfbfbf" points="0,-328.5 51,-328.5 "/>
<text text-anchor="middle" x="25.5" y="-316.5" font-family="Helvetica,sans-Serif" font-size="10.00"> </text>
</a>
</g>
</g>
<!-- Node3&#45;&gt;Node2 -->
<g id="edge2" class="edge"><title>Node3&#45;&gt;Node2</title>
<path fill="none" stroke="#404040" d="M22.5193,-309.417C22.3852,-299.87 23.2672,-289.25 26.5,-280 27.3986,-277.429 28.4476,-274.88 29.6183,-272.365"/>
<polygon fill="none" stroke="#404040" points="29.7343,-272.15 29.0688,-264.97 35.4409,-261.594 36.1064,-268.774 29.7343,-272.15"/>
<text text-anchor="middle" x="64.5" y="-283" font-family="Helvetica,sans-Serif" font-size="10.00"> +attribute_length</text>
</g>
<!-- Node4 -->
<g id="node4" class="node"><title>Node4</title>
<g id="a_node4"><a xlink:title=" ">
<polygon fill="none" stroke="#bfbfbf" points="99,-309.5 99,-366.5 150,-366.5 150,-309.5 99,-309.5"/>
<text text-anchor="middle" x="124.5" y="-354.5" font-family="Helvetica,sans-Serif" font-size="10.00">uint16_t</text>
<polyline fill="none" stroke="#bfbfbf" points="99,-347.5 150,-347.5 "/>
<text text-anchor="middle" x="124.5" y="-335.5" font-family="Helvetica,sans-Serif" font-size="10.00"> </text>
<polyline fill="none" stroke="#bfbfbf" points="99,-328.5 150,-328.5 "/>
<text text-anchor="middle" x="124.5" y="-316.5" font-family="Helvetica,sans-Serif" font-size="10.00"> </text>
</a>
</g>
</g>
<!-- Node4&#45;&gt;Node2 -->
<g id="edge3" class="edge"><title>Node4&#45;&gt;Node2</title>
<path fill="none" stroke="#404040" d="M114.162,-309.34C110.574,-299.981 106.457,-289.498 102.5,-280 101.535,-277.685 100.54,-275.327 99.5245,-272.949"/>
<polygon fill="none" stroke="#404040" points="99.4474,-272.771 93.3914,-268.856 94.6757,-261.76 100.732,-265.675 99.4474,-272.771"/>
<text text-anchor="middle" x="159" y="-283" font-family="Helvetica,sans-Serif" font-size="10.00"> +attribute_name_index</text>
</g>
<!-- Node5 -->
<g id="node5" class="node"><title>Node5</title>
<g id="a_node5"><a xlink:title=" ">
<polygon fill="none" stroke="#bfbfbf" points="141,-182.5 141,-250.5 244,-250.5 244,-182.5 141,-182.5"/>
<text text-anchor="start" x="149" y="-238.5" font-family="Helvetica,sans-Serif" font-size="10.00">vector&lt; Utils::Types</text>
<text text-anchor="middle" x="192.5" y="-227.5" font-family="Helvetica,sans-Serif" font-size="10.00">::u1 &gt;</text>
<polyline fill="none" stroke="#bfbfbf" points="141,-220.5 244,-220.5 "/>
<text text-anchor="middle" x="192.5" y="-208.5" font-family="Helvetica,sans-Serif" font-size="10.00"> </text>
<polyline fill="none" stroke="#bfbfbf" points="141,-201.5 244,-201.5 "/>
<text text-anchor="middle" x="192.5" y="-189.5" font-family="Helvetica,sans-Serif" font-size="10.00"> </text>
</a>
</g>
</g>
<!-- Node5&#45;&gt;Node1 -->
<g id="edge4" class="edge"><title>Node5&#45;&gt;Node1</title>
<path fill="none" stroke="#404040" d="M185.99,-182.41C183.272,-168.594 180,-151.958 176.773,-135.552"/>
<polygon fill="none" stroke="#404040" points="176.755,-135.464 171.672,-130.349 174.439,-123.69 179.522,-128.805 176.755,-135.464"/>
<text text-anchor="middle" x="221" y="-145" font-family="Helvetica,sans-Serif" font-size="10.00"> +debug_extension</text>
</g>
</g>
</svg>
