<?xml version="1.0" encoding="UTF-8" standalone="no"?>
<!DOCTYPE svg PUBLIC "-//W3C//DTD SVG 1.1//EN"
 "http://www.w3.org/Graphics/SVG/1.1/DTD/svg11.dtd">
<!-- Generated by graphviz version 2.38.0 (20140413.2041)
 -->
<!-- Title: Utils::Attributes::LocalVariableTable_attribute Pages: 1 -->
<svg width="493pt" height="364pt"
 viewBox="0.00 0.00 492.50 364.00" xmlns="http://www.w3.org/2000/svg" xmlns:xlink="http://www.w3.org/1999/xlink">
<g id="graph0" class="graph" transform="scale(1 1) rotate(0) translate(4 360)">
<title>Utils::Attributes::LocalVariableTable_attribute</title>
<!-- Node1 -->
<g id="node1" class="node"><title>Node1</title>
<g id="a_node1"><a xlink:title=" ">
<polygon fill="#bfbfbf" stroke="black" points="173,-0.5 173,-112.5 312,-112.5 312,-0.5 173,-0.5"/>
<text text-anchor="start" x="181" y="-100.5" font-family="Helvetica,sans-Serif" font-size="10.00">Utils::Attributes::</text>
<text text-anchor="middle" x="242.5" y="-89.5" font-family="Helvetica,sans-Serif" font-size="10.00">LocalVariableTable_attribute</text>
<polyline fill="none" stroke="black" points="173,-82.5 312,-82.5 "/>
<text text-anchor="middle" x="242.5" y="-70.5" font-family="Helvetica,sans-Serif" font-size="10.00"> </text>
<polyline fill="none" stroke="black" points="173,-63.5 312,-63.5 "/>
<text text-anchor="start" x="181" y="-51.5" font-family="Helvetica,sans-Serif" font-size="10.00">+ LocalVariableTable</text>
<text text-anchor="start" x="181" y="-40.5" font-family="Helvetica,sans-Serif" font-size="10.00">_attribute()</text>
<text text-anchor="start" x="181" y="-29.5" font-family="Helvetica,sans-Serif" font-size="10.00">+ ~LocalVariableTable</text>
<text text-anchor="start" x="181" y="-18.5" font-family="Helvetica,sans-Serif" font-size="10.00">_attribute()</text>
<text text-anchor="start" x="181" y="-7.5" font-family="Helvetica,sans-Serif" font-size="10.00">+ getSpecificInfo()</text>
</a>
</g>
</g>
<!-- Node2 -->
<g id="node2" class="node"><title>Node2</title>
<g id="a_node2"><a xlink:href="../../dc/dac/class_utils_1_1_attributes_1_1_base_attribute.xhtml" target="_top" xlink:title=" ">
<polygon fill="none" stroke="black" points="76,-160.5 76,-250.5 173,-250.5 173,-160.5 76,-160.5"/>
<text text-anchor="start" x="84" y="-238.5" font-family="Helvetica,sans-Serif" font-size="10.00">Utils::Attributes::</text>
<text text-anchor="middle" x="124.5" y="-227.5" font-family="Helvetica,sans-Serif" font-size="10.00">BaseAttribute</text>
<polyline fill="none" stroke="black" points="76,-220.5 173,-220.5 "/>
<text text-anchor="middle" x="124.5" y="-208.5" font-family="Helvetica,sans-Serif" font-size="10.00"> </text>
<polyline fill="none" stroke="black" points="76,-201.5 173,-201.5 "/>
<text text-anchor="start" x="84" y="-189.5" font-family="Helvetica,sans-Serif" font-size="10.00">+ BaseAttribute()</text>
<text text-anchor="start" x="84" y="-178.5" font-family="Helvetica,sans-Serif" font-size="10.00">+ BaseAttribute()</text>
<text text-anchor="start" x="84" y="-167.5" font-family="Helvetica,sans-Serif" font-size="10.00">+ ~BaseAttribute()</text>
</a>
</g>
</g>
<!-- Node2&#45;&gt;Node1 -->
<g id="edge1" class="edge"><title>Node2&#45;&gt;Node1</title>
<path fill="none" stroke="midnightblue" d="M166.262,-152.475C176.656,-139.526 187.833,-125.602 198.338,-112.515"/>
<polygon fill="none" stroke="midnightblue" points="163.434,-150.406 159.904,-160.395 168.893,-154.788 163.434,-150.406"/>
</g>
<!-- Node3 -->
<g id="node3" class="node"><title>Node3</title>
<g id="a_node3"><a xlink:title=" ">
<polygon fill="none" stroke="#bfbfbf" points="0,-298.5 0,-355.5 51,-355.5 51,-298.5 0,-298.5"/>
<text text-anchor="middle" x="25.5" y="-343.5" font-family="Helvetica,sans-Serif" font-size="10.00">uint32_t</text>
<polyline fill="none" stroke="#bfbfbf" points="0,-336.5 51,-336.5 "/>
<text text-anchor="middle" x="25.5" y="-324.5" font-family="Helvetica,sans-Serif" font-size="10.00"> </text>
<polyline fill="none" stroke="#bfbfbf" points="0,-317.5 51,-317.5 "/>
<text text-anchor="middle" x="25.5" y="-305.5" font-family="Helvetica,sans-Serif" font-size="10.00"> </text>
</a>
</g>
</g>
<!-- Node3&#45;&gt;Node2 -->
<g id="edge2" class="edge"><title>Node3&#45;&gt;Node2</title>
<path fill="none" stroke="#404040" d="M30.0533,-298.343C32.5967,-288.474 36.5118,-277.665 42.5,-269 48.9953,-259.601 57.3492,-251.003 66.231,-243.392"/>
<polygon fill="none" stroke="#404040" points="66.2781,-243.354 68.4405,-236.475 75.6223,-235.825 73.4599,-242.704 66.2781,-243.354"/>
<text text-anchor="middle" x="80.5" y="-272" font-family="Helvetica,sans-Serif" font-size="10.00"> +attribute_length</text>
</g>
<!-- Node4 -->
<g id="node4" class="node"><title>Node4</title>
<g id="a_node4"><a xlink:title=" ">
<polygon fill="none" stroke="#bfbfbf" points="158,-298.5 158,-355.5 209,-355.5 209,-298.5 158,-298.5"/>
<text text-anchor="middle" x="183.5" y="-343.5" font-family="Helvetica,sans-Serif" font-size="10.00">uint16_t</text>
<polyline fill="none" stroke="#bfbfbf" points="158,-336.5 209,-336.5 "/>
<text text-anchor="middle" x="183.5" y="-324.5" font-family="Helvetica,sans-Serif" font-size="10.00"> </text>
<polyline fill="none" stroke="#bfbfbf" points="158,-317.5 209,-317.5 "/>
<text text-anchor="middle" x="183.5" y="-305.5" font-family="Helvetica,sans-Serif" font-size="10.00"> </text>
</a>
</g>
</g>
<!-- Node4&#45;&gt;Node1 -->
<g id="edge4" class="edge"><title>Node4&#45;&gt;Node1</title>
<path fill="none" stroke="#404040" d="M209.153,-306.038C216.722,-298.717 224.14,-289.799 228.5,-280 250.19,-231.249 252.58,-170.479 250.165,-124.773"/>
<polygon fill="none" stroke="#404040" points="250.153,-124.578 245.78,-118.844 249.391,-112.602 253.764,-118.336 250.153,-124.578"/>
<text text-anchor="start" x="251.5" y="-208.5" font-family="Helvetica,sans-Serif" font-size="10.00"> +local_variable_table</text>
<text text-anchor="middle" x="298.5" y="-197.5" font-family="Helvetica,sans-Serif" font-size="10.00">_length</text>
</g>
<!-- Node4&#45;&gt;Node2 -->
<g id="edge3" class="edge"><title>Node4&#45;&gt;Node2</title>
<path fill="none" stroke="#404040" d="M157.847,-312.758C145.694,-304.995 132.361,-293.955 125.5,-280 122.892,-274.696 121.196,-268.906 120.165,-262.979"/>
<polygon fill="none" stroke="#404040" points="120.134,-262.669 115.542,-257.109 118.908,-250.732 123.5,-256.292 120.134,-262.669"/>
<text text-anchor="middle" x="177" y="-272" font-family="Helvetica,sans-Serif" font-size="10.00"> +attribute_name_index</text>
</g>
<!-- Node5 -->
<g id="node5" class="node"><title>Node5</title>
<g id="a_node5"><a xlink:title=" ">
<polygon fill="none" stroke="#bfbfbf" points="354.5,-171.5 354.5,-239.5 484.5,-239.5 484.5,-171.5 354.5,-171.5"/>
<text text-anchor="start" x="362.5" y="-227.5" font-family="Helvetica,sans-Serif" font-size="10.00">vector&lt; localVariableTable</text>
<text text-anchor="middle" x="419.5" y="-216.5" font-family="Helvetica,sans-Serif" font-size="10.00">_info &gt;</text>
<polyline fill="none" stroke="#bfbfbf" points="354.5,-209.5 484.5,-209.5 "/>
<text text-anchor="middle" x="419.5" y="-197.5" font-family="Helvetica,sans-Serif" font-size="10.00"> </text>
<polyline fill="none" stroke="#bfbfbf" points="354.5,-190.5 484.5,-190.5 "/>
<text text-anchor="middle" x="419.5" y="-178.5" font-family="Helvetica,sans-Serif" font-size="10.00"> </text>
</a>
</g>
</g>
<!-- Node5&#45;&gt;Node1 -->
<g id="edge5" class="edge"><title>Node5&#45;&gt;Node1</title>
<path fill="none" stroke="#404040" d="M379.336,-171.143C361.211,-156.09 339.184,-137.797 318.147,-120.325"/>
<polygon fill="none" stroke="#404040" points="318.12,-120.303 310.948,-119.547 308.888,-112.636 316.06,-113.392 318.12,-120.303"/>
<text text-anchor="middle" x="389.5" y="-134" font-family="Helvetica,sans-Serif" font-size="10.00"> +local_variable_table</text>
</g>
</g>
</svg>
