<?xml version="1.0" encoding="UTF-8" standalone="no"?>
<!DOCTYPE svg PUBLIC "-//W3C//DTD SVG 1.1//EN"
 "http://www.w3.org/Graphics/SVG/1.1/DTD/svg11.dtd">
<!-- Generated by graphviz version 2.38.0 (20140413.2041)
 -->
<!-- Title: Instructions::Integer::CompareGreaterEqual Pages: 1 -->
<svg width="136pt" height="353pt"
 viewBox="0.00 0.00 136.00 353.00" xmlns="http://www.w3.org/2000/svg" xmlns:xlink="http://www.w3.org/1999/xlink">
<g id="graph0" class="graph" transform="scale(1 1) rotate(0) translate(4 349)">
<title>Instructions::Integer::CompareGreaterEqual</title>
<!-- Node1 -->
<g id="node1" class="node"><title>Node1</title>
<g id="a_node1"><a xlink:title=" ">
<polygon fill="#bfbfbf" stroke="black" points="0,-0.5 0,-79.5 128,-79.5 128,-0.5 0,-0.5"/>
<text text-anchor="start" x="8" y="-67.5" font-family="Helvetica,sans-Serif" font-size="10.00">Instructions::Integer</text>
<text text-anchor="middle" x="64" y="-56.5" font-family="Helvetica,sans-Serif" font-size="10.00">::CompareGreaterEqual</text>
<polyline fill="none" stroke="black" points="0,-49.5 128,-49.5 "/>
<text text-anchor="middle" x="64" y="-37.5" font-family="Helvetica,sans-Serif" font-size="10.00"> </text>
<polyline fill="none" stroke="black" points="0,-30.5 128,-30.5 "/>
<text text-anchor="start" x="8" y="-18.5" font-family="Helvetica,sans-Serif" font-size="10.00">+ CompareGreaterEqual()</text>
<text text-anchor="start" x="8" y="-7.5" font-family="Helvetica,sans-Serif" font-size="10.00">+ execute()</text>
</a>
</g>
</g>
<!-- Node2 -->
<g id="node2" class="node"><title>Node2</title>
<g id="a_node2"><a xlink:href="../../dd/de2/class_instructions_1_1_integer_1_1_base_integer.xhtml" target="_top" xlink:title=" ">
<polygon fill="none" stroke="black" points="12,-116.5 12,-206.5 116,-206.5 116,-116.5 12,-116.5"/>
<text text-anchor="start" x="20" y="-194.5" font-family="Helvetica,sans-Serif" font-size="10.00">Instructions::Integer</text>
<text text-anchor="middle" x="64" y="-183.5" font-family="Helvetica,sans-Serif" font-size="10.00">::BaseInteger</text>
<polyline fill="none" stroke="black" points="12,-176.5 116,-176.5 "/>
<text text-anchor="middle" x="64" y="-164.5" font-family="Helvetica,sans-Serif" font-size="10.00"> </text>
<polyline fill="none" stroke="black" points="12,-157.5 116,-157.5 "/>
<text text-anchor="start" x="20" y="-145.5" font-family="Helvetica,sans-Serif" font-size="10.00">+ BaseInteger()</text>
<text text-anchor="start" x="20" y="-134.5" font-family="Helvetica,sans-Serif" font-size="10.00">+ toBytecode()</text>
<text text-anchor="start" x="20" y="-123.5" font-family="Helvetica,sans-Serif" font-size="10.00">+ toBytecode_json()</text>
</a>
</g>
</g>
<!-- Node2&#45;&gt;Node1 -->
<g id="edge1" class="edge"><title>Node2&#45;&gt;Node1</title>
<path fill="none" stroke="midnightblue" d="M64,-106.079C64,-97.234 64,-88.2325 64,-79.8576"/>
<polygon fill="none" stroke="midnightblue" points="60.5001,-106.342 64,-116.342 67.5001,-106.342 60.5001,-106.342"/>
</g>
<!-- Node3 -->
<g id="node3" class="node"><title>Node3</title>
<g id="a_node3"><a xlink:href="../../d4/da8/class_instructions_1_1_instruction.xhtml" target="_top" xlink:title=" ">
<polygon fill="none" stroke="black" points="5,-243.5 5,-344.5 123,-344.5 123,-243.5 5,-243.5"/>
<text text-anchor="middle" x="64" y="-332.5" font-family="Helvetica,sans-Serif" font-size="10.00">Instructions::Instruction</text>
<polyline fill="none" stroke="black" points="5,-325.5 123,-325.5 "/>
<text text-anchor="start" x="13" y="-313.5" font-family="Helvetica,sans-Serif" font-size="10.00">+ opcode</text>
<polyline fill="none" stroke="black" points="5,-306.5 123,-306.5 "/>
<text text-anchor="start" x="13" y="-294.5" font-family="Helvetica,sans-Serif" font-size="10.00">+ Instruction()</text>
<text text-anchor="start" x="13" y="-283.5" font-family="Helvetica,sans-Serif" font-size="10.00">+ ~Instruction()</text>
<text text-anchor="start" x="13" y="-272.5" font-family="Helvetica,sans-Serif" font-size="10.00">+ execute()</text>
<text text-anchor="start" x="13" y="-261.5" font-family="Helvetica,sans-Serif" font-size="10.00">+ toBytecode()</text>
<text text-anchor="start" x="13" y="-250.5" font-family="Helvetica,sans-Serif" font-size="10.00">+ toBytecode_json()</text>
</a>
</g>
</g>
<!-- Node3&#45;&gt;Node2 -->
<g id="edge2" class="edge"><title>Node3&#45;&gt;Node2</title>
<path fill="none" stroke="midnightblue" d="M64,-233.232C64,-224.236 64,-215.101 64,-206.516"/>
<polygon fill="none" stroke="midnightblue" points="60.5001,-233.291 64,-243.291 67.5001,-233.291 60.5001,-233.291"/>
</g>
</g>
</svg>
