<?xml version="1.0" encoding="UTF-8" standalone="no"?>
<!DOCTYPE svg PUBLIC "-//W3C//DTD SVG 1.1//EN"
 "http://www.w3.org/Graphics/SVG/1.1/DTD/svg11.dtd">
<!-- Generated by graphviz version 2.38.0 (20140413.2041)
 -->
<!-- Title: include/utils/infos.h Pages: 1 -->
<svg width="1125pt" height="285pt"
 viewBox="0.00 0.00 1125.00 285.00" xmlns="http://www.w3.org/2000/svg" xmlns:xlink="http://www.w3.org/1999/xlink">
<g id="graph0" class="graph" transform="scale(1 1) rotate(0) translate(4 281)">
<title>include/utils/infos.h</title>
<!-- Node1 -->
<g id="node1" class="node"><title>Node1</title>
<g id="a_node1"><a xlink:title=" ">
<polygon fill="#bfbfbf" stroke="black" points="465.5,-257.5 465.5,-276.5 565.5,-276.5 565.5,-257.5 465.5,-257.5"/>
<text text-anchor="middle" x="515.5" y="-264.5" font-family="Helvetica,sans-Serif" font-size="10.00">include/utils/infos.h</text>
</a>
</g>
</g>
<!-- Node2 -->
<g id="node2" class="node"><title>Node2</title>
<g id="a_node2"><a xlink:href="../../d4/db4/classfile_8h.xhtml" target="_top" xlink:title=" ">
<polygon fill="none" stroke="black" points="468.5,-196 468.5,-215 562.5,-215 562.5,-196 468.5,-196"/>
<text text-anchor="middle" x="515.5" y="-203" font-family="Helvetica,sans-Serif" font-size="10.00">include/classfile.h</text>
</a>
</g>
</g>
<!-- Node1&#45;&gt;Node2 -->
<g id="edge1" class="edge"><title>Node1&#45;&gt;Node2</title>
<path fill="none" stroke="midnightblue" d="M515.5,-247.317C515.5,-236.496 515.5,-223.398 515.5,-215.009"/>
<polygon fill="midnightblue" stroke="midnightblue" points="512,-247.475 515.5,-257.475 519,-247.475 512,-247.475"/>
</g>
<!-- Node3 -->
<g id="node3" class="node"><title>Node3</title>
<g id="a_node3"><a xlink:href="../../df/d50/method__area_8h.xhtml" target="_top" xlink:title=" ">
<polygon fill="none" stroke="black" points="0,-56.5 0,-86.5 113,-86.5 113,-56.5 0,-56.5"/>
<text text-anchor="start" x="8" y="-74.5" font-family="Helvetica,sans-Serif" font-size="10.00">include/utils/memory</text>
<text text-anchor="middle" x="56.5" y="-63.5" font-family="Helvetica,sans-Serif" font-size="10.00">_areas/method_area.h</text>
</a>
</g>
</g>
<!-- Node1&#45;&gt;Node3 -->
<g id="edge18" class="edge"><title>Node1&#45;&gt;Node3</title>
<path fill="none" stroke="midnightblue" d="M455.549,-259.306C345.748,-245.765 118.891,-211.427 67.5,-154 50.9332,-135.487 51.8051,-104.489 54.0635,-86.5307"/>
<polygon fill="midnightblue" stroke="midnightblue" points="455.132,-262.781 465.482,-260.514 455.977,-255.832 455.132,-262.781"/>
</g>
<!-- Node15 -->
<g id="node15" class="node"><title>Node15</title>
<g id="a_node15"><a xlink:href="../../db/dab/printer_8h.xhtml" target="_top" xlink:title=" ">
<polygon fill="none" stroke="black" points="581,-190.5 581,-220.5 682,-220.5 682,-190.5 581,-190.5"/>
<text text-anchor="start" x="589" y="-208.5" font-family="Helvetica,sans-Serif" font-size="10.00">include/instructions</text>
<text text-anchor="middle" x="631.5" y="-197.5" font-family="Helvetica,sans-Serif" font-size="10.00">/printer.h</text>
</a>
</g>
</g>
<!-- Node1&#45;&gt;Node15 -->
<g id="edge17" class="edge"><title>Node1&#45;&gt;Node15</title>
<path fill="none" stroke="midnightblue" d="M541.221,-252.807C559.896,-243.228 585.122,-230.289 604.161,-220.523"/>
<polygon fill="midnightblue" stroke="midnightblue" points="539.42,-249.797 532.12,-257.475 542.615,-256.025 539.42,-249.797"/>
</g>
<!-- Node2&#45;&gt;Node3 -->
<g id="edge2" class="edge"><title>Node2&#45;&gt;Node3</title>
<path fill="none" stroke="midnightblue" d="M458.394,-204.357C357.117,-203.031 151.343,-195.179 94.5,-154 72.2487,-137.88 62.632,-105.404 58.7946,-86.68"/>
<polygon fill="midnightblue" stroke="midnightblue" points="458.409,-207.857 468.449,-204.472 458.489,-200.858 458.409,-207.857"/>
</g>
<!-- Node5 -->
<g id="node5" class="node"><title>Node5</title>
<g id="a_node5"><a xlink:href="../../d6/dda/reader_8h.xhtml" target="_top" xlink:title=" ">
<polygon fill="none" stroke="black" points="219.5,-129 219.5,-148 305.5,-148 305.5,-129 219.5,-129"/>
<text text-anchor="middle" x="262.5" y="-136" font-family="Helvetica,sans-Serif" font-size="10.00">include/reader.h</text>
</a>
</g>
</g>
<!-- Node2&#45;&gt;Node5 -->
<g id="edge4" class="edge"><title>Node2&#45;&gt;Node5</title>
<path fill="none" stroke="midnightblue" d="M470.305,-193.498C429.511,-183.484 367.884,-168.147 314.5,-154 307.434,-152.127 299.846,-150.05 292.711,-148.066"/>
<polygon fill="midnightblue" stroke="midnightblue" points="469.664,-196.945 480.209,-195.925 471.33,-190.146 469.664,-196.945"/>
</g>
<!-- Node6 -->
<g id="node6" class="node"><title>Node6</title>
<g id="a_node6"><a xlink:href="../../d8/df4/helper__functions_8h.xhtml" target="_top" xlink:title=" ">
<polygon fill="none" stroke="black" points="103.5,-123.5 103.5,-153.5 201.5,-153.5 201.5,-123.5 103.5,-123.5"/>
<text text-anchor="start" x="111.5" y="-141.5" font-family="Helvetica,sans-Serif" font-size="10.00">include/utils/helper</text>
<text text-anchor="middle" x="152.5" y="-130.5" font-family="Helvetica,sans-Serif" font-size="10.00">_functions.h</text>
</a>
</g>
</g>
<!-- Node2&#45;&gt;Node6 -->
<g id="edge5" class="edge"><title>Node2&#45;&gt;Node6</title>
<path fill="none" stroke="midnightblue" d="M457.981,-196.394C396.471,-187.396 296.197,-171.776 210.5,-154 207.654,-153.41 204.737,-152.775 201.799,-152.113"/>
<polygon fill="midnightblue" stroke="midnightblue" points="457.857,-199.913 468.256,-197.889 458.864,-192.986 457.857,-199.913"/>
</g>
<!-- Node8 -->
<g id="node8" class="node"><title>Node8</title>
<g id="a_node8"><a xlink:href="../../d8/d07/attribute_serializer_8h.xhtml" target="_top" xlink:title=" ">
<polygon fill="none" stroke="black" points="323.5,-123.5 323.5,-153.5 439.5,-153.5 439.5,-123.5 323.5,-123.5"/>
<text text-anchor="start" x="331.5" y="-141.5" font-family="Helvetica,sans-Serif" font-size="10.00">include/utils/serializers</text>
<text text-anchor="middle" x="381.5" y="-130.5" font-family="Helvetica,sans-Serif" font-size="10.00">/attributeSerializer.h</text>
</a>
</g>
</g>
<!-- Node2&#45;&gt;Node8 -->
<g id="edge9" class="edge"><title>Node2&#45;&gt;Node8</title>
<path fill="none" stroke="midnightblue" d="M488.646,-191.474C465.992,-180.485 433.638,-164.791 410.419,-153.528"/>
<polygon fill="midnightblue" stroke="midnightblue" points="487.181,-194.653 497.706,-195.869 490.236,-188.355 487.181,-194.653"/>
</g>
<!-- Node9 -->
<g id="node9" class="node"><title>Node9</title>
<g id="a_node9"><a xlink:href="../../da/d13/classfile_serializer_8h.xhtml" target="_top" xlink:title=" ">
<polygon fill="none" stroke="black" points="457.5,-123.5 457.5,-153.5 573.5,-153.5 573.5,-123.5 457.5,-123.5"/>
<text text-anchor="start" x="465.5" y="-141.5" font-family="Helvetica,sans-Serif" font-size="10.00">include/utils/serializers</text>
<text text-anchor="middle" x="515.5" y="-130.5" font-family="Helvetica,sans-Serif" font-size="10.00">/classfileSerializer.h</text>
</a>
</g>
</g>
<!-- Node2&#45;&gt;Node9 -->
<g id="edge10" class="edge"><title>Node2&#45;&gt;Node9</title>
<path fill="none" stroke="midnightblue" d="M515.5,-185.411C515.5,-175.222 515.5,-162.901 515.5,-153.589"/>
<polygon fill="midnightblue" stroke="midnightblue" points="512,-185.734 515.5,-195.734 519,-185.734 512,-185.734"/>
</g>
<!-- Node10 -->
<g id="node10" class="node"><title>Node10</title>
<g id="a_node10"><a xlink:href="../../d2/dbc/constpool_serializer_8h.xhtml" target="_top" xlink:title=" ">
<polygon fill="none" stroke="black" points="629.5,-123.5 629.5,-153.5 745.5,-153.5 745.5,-123.5 629.5,-123.5"/>
<text text-anchor="start" x="637.5" y="-141.5" font-family="Helvetica,sans-Serif" font-size="10.00">include/utils/serializers</text>
<text text-anchor="middle" x="687.5" y="-130.5" font-family="Helvetica,sans-Serif" font-size="10.00">/constpoolSerializer.h</text>
</a>
</g>
</g>
<!-- Node2&#45;&gt;Node10 -->
<g id="edge11" class="edge"><title>Node2&#45;&gt;Node10</title>
<path fill="none" stroke="midnightblue" d="M548.041,-192.202C577.188,-181.188 619.911,-165.042 650.38,-153.528"/>
<polygon fill="midnightblue" stroke="midnightblue" points="546.457,-189.059 538.34,-195.869 548.932,-195.607 546.457,-189.059"/>
</g>
<!-- Node11 -->
<g id="node11" class="node"><title>Node11</title>
<g id="a_node11"><a xlink:href="../../d8/d6c/instruction_serializer_8h.xhtml" target="_top" xlink:title=" ">
<polygon fill="none" stroke="black" points="586.5,-56.5 586.5,-86.5 702.5,-86.5 702.5,-56.5 586.5,-56.5"/>
<text text-anchor="start" x="594.5" y="-74.5" font-family="Helvetica,sans-Serif" font-size="10.00">include/utils/serializers</text>
<text text-anchor="middle" x="644.5" y="-63.5" font-family="Helvetica,sans-Serif" font-size="10.00">/instructionSerializer.h</text>
</a>
</g>
</g>
<!-- Node2&#45;&gt;Node11 -->
<g id="edge14" class="edge"><title>Node2&#45;&gt;Node11</title>
<path fill="none" stroke="midnightblue" d="M537.311,-190.346C551.035,-180.905 568.698,-167.741 582.5,-154 603.918,-132.677 624.231,-103.734 635.462,-86.6939"/>
<polygon fill="midnightblue" stroke="midnightblue" points="535.281,-187.492 528.941,-195.98 539.19,-193.299 535.281,-187.492"/>
</g>
<!-- Node12 -->
<g id="node12" class="node"><title>Node12</title>
<g id="a_node12"><a xlink:href="../../d0/dfa/field_serializer_8h.xhtml" target="_top" xlink:title=" ">
<polygon fill="none" stroke="black" points="763.5,-123.5 763.5,-153.5 879.5,-153.5 879.5,-123.5 763.5,-123.5"/>
<text text-anchor="start" x="771.5" y="-141.5" font-family="Helvetica,sans-Serif" font-size="10.00">include/utils/serializers</text>
<text text-anchor="middle" x="821.5" y="-130.5" font-family="Helvetica,sans-Serif" font-size="10.00">/fieldSerializer.h</text>
</a>
</g>
</g>
<!-- Node2&#45;&gt;Node12 -->
<g id="edge13" class="edge"><title>Node2&#45;&gt;Node12</title>
<path fill="none" stroke="midnightblue" d="M556.995,-193.464C561.874,-192.253 566.79,-191.072 571.5,-190 652.325,-171.603 673.321,-170.767 754.5,-154 757.414,-153.398 760.397,-152.776 763.41,-152.142"/>
<polygon fill="midnightblue" stroke="midnightblue" points="555.944,-190.12 547.109,-195.967 557.662,-196.905 555.944,-190.12"/>
</g>
<!-- Node13 -->
<g id="node13" class="node"><title>Node13</title>
<g id="a_node13"><a xlink:href="../../de/df9/method_serializer_8h.xhtml" target="_top" xlink:title=" ">
<polygon fill="none" stroke="black" points="897.5,-123.5 897.5,-153.5 1013.5,-153.5 1013.5,-123.5 897.5,-123.5"/>
<text text-anchor="start" x="905.5" y="-141.5" font-family="Helvetica,sans-Serif" font-size="10.00">include/utils/serializers</text>
<text text-anchor="middle" x="955.5" y="-130.5" font-family="Helvetica,sans-Serif" font-size="10.00">/methodSerializer.h</text>
</a>
</g>
</g>
<!-- Node2&#45;&gt;Node13 -->
<g id="edge15" class="edge"><title>Node2&#45;&gt;Node13</title>
<path fill="none" stroke="midnightblue" d="M555.002,-193.536C560.516,-192.221 566.131,-190.995 571.5,-190 710.921,-164.165 748.587,-177.025 888.5,-154 891.436,-153.517 894.437,-152.99 897.463,-152.432"/>
<polygon fill="midnightblue" stroke="midnightblue" points="554.116,-190.15 545.261,-195.967 555.811,-196.942 554.116,-190.15"/>
</g>
<!-- Node14 -->
<g id="node14" class="node"><title>Node14</title>
<g id="a_node14"><a xlink:href="../../dc/dba/viewer_8h.xhtml" target="_top" xlink:title=" ">
<polygon fill="none" stroke="black" points="1032,-129 1032,-148 1117,-148 1117,-129 1032,-129"/>
<text text-anchor="middle" x="1074.5" y="-136" font-family="Helvetica,sans-Serif" font-size="10.00">include/viewer.h</text>
</a>
</g>
</g>
<!-- Node2&#45;&gt;Node14 -->
<g id="edge16" class="edge"><title>Node2&#45;&gt;Node14</title>
<path fill="none" stroke="midnightblue" d="M554.592,-193.458C560.232,-192.134 565.991,-190.926 571.5,-190 769.801,-156.673 824.517,-189.168 1022.5,-154 1030.8,-152.525 1039.7,-150.295 1047.74,-148.023"/>
<polygon fill="midnightblue" stroke="midnightblue" points="553.508,-190.121 544.648,-195.93 555.197,-196.914 553.508,-190.121"/>
</g>
<!-- Node4 -->
<g id="node4" class="node"><title>Node4</title>
<g id="a_node4"><a xlink:href="../../d3/d97/interpreter_8h.xhtml" target="_top" xlink:title=" ">
<polygon fill="none" stroke="black" points="69.5,-0.5 69.5,-19.5 171.5,-19.5 171.5,-0.5 69.5,-0.5"/>
<text text-anchor="middle" x="120.5" y="-7.5" font-family="Helvetica,sans-Serif" font-size="10.00">include/interpreter.h</text>
</a>
</g>
</g>
<!-- Node3&#45;&gt;Node4 -->
<g id="edge3" class="edge"><title>Node3&#45;&gt;Node4</title>
<path fill="none" stroke="midnightblue" d="M79.3032,-49.3002C90.2876,-39.0881 102.852,-27.4072 111.187,-19.6578"/>
<polygon fill="midnightblue" stroke="midnightblue" points="76.6079,-47.027 71.6671,-56.3993 81.3741,-52.1538 76.6079,-47.027"/>
</g>
<!-- Node6&#45;&gt;Node3 -->
<g id="edge8" class="edge"><title>Node6&#45;&gt;Node3</title>
<path fill="none" stroke="midnightblue" d="M123.307,-117.734C108.452,-107.676 90.742,-95.6847 77.2899,-86.5765"/>
<polygon fill="midnightblue" stroke="midnightblue" points="121.427,-120.688 131.669,-123.396 125.351,-114.891 121.427,-120.688"/>
</g>
<!-- Node7 -->
<g id="node7" class="node"><title>Node7</title>
<g id="a_node7"><a xlink:href="../../da/ddb/heap_8h.xhtml" target="_top" xlink:title=" ">
<polygon fill="none" stroke="black" points="131,-56.5 131,-86.5 238,-86.5 238,-56.5 131,-56.5"/>
<text text-anchor="start" x="139" y="-74.5" font-family="Helvetica,sans-Serif" font-size="10.00">include/utils/memory</text>
<text text-anchor="middle" x="184.5" y="-63.5" font-family="Helvetica,sans-Serif" font-size="10.00">_areas/heap.h</text>
</a>
</g>
</g>
<!-- Node6&#45;&gt;Node7 -->
<g id="edge6" class="edge"><title>Node6&#45;&gt;Node7</title>
<path fill="none" stroke="midnightblue" d="M163.93,-114.283C168.489,-105.022 173.589,-94.6632 177.57,-86.5765"/>
<polygon fill="midnightblue" stroke="midnightblue" points="160.72,-112.878 159.444,-123.396 167.001,-115.97 160.72,-112.878"/>
</g>
<!-- Node7&#45;&gt;Node4 -->
<g id="edge7" class="edge"><title>Node7&#45;&gt;Node4</title>
<path fill="none" stroke="midnightblue" d="M161.697,-49.3002C150.712,-39.0881 138.148,-27.4072 129.813,-19.6578"/>
<polygon fill="midnightblue" stroke="midnightblue" points="159.626,-52.1538 169.333,-56.3993 164.392,-47.027 159.626,-52.1538"/>
</g>
<!-- Node10&#45;&gt;Node11 -->
<g id="edge12" class="edge"><title>Node10&#45;&gt;Node11</title>
<path fill="none" stroke="midnightblue" d="M672.527,-114.867C666.304,-105.459 659.274,-94.8334 653.812,-86.5765"/>
<polygon fill="midnightblue" stroke="midnightblue" points="669.733,-116.987 678.17,-123.396 675.571,-113.125 669.733,-116.987"/>
</g>
</g>
</svg>
