<?xml version="1.0" encoding="UTF-8" standalone="no"?>
<!DOCTYPE svg PUBLIC "-//W3C//DTD SVG 1.1//EN"
 "http://www.w3.org/Graphics/SVG/1.1/DTD/svg11.dtd">
<!-- Generated by graphviz version 2.38.0 (20140413.2041)
 -->
<!-- Title: include/utils/infos.h Pages: 1 -->
<svg width="1218pt" height="285pt"
 viewBox="0.00 0.00 1217.50 285.00" xmlns="http://www.w3.org/2000/svg" xmlns:xlink="http://www.w3.org/1999/xlink">
<g id="graph0" class="graph" transform="scale(1 1) rotate(0) translate(4 281)">
<title>include/utils/infos.h</title>
<!-- Node1 -->
<g id="node1" class="node"><title>Node1</title>
<g id="a_node1"><a xlink:title=" ">
<polygon fill="#bfbfbf" stroke="black" points="1030,-257.5 1030,-276.5 1130,-276.5 1130,-257.5 1030,-257.5"/>
<text text-anchor="middle" x="1080" y="-264.5" font-family="Helvetica,sans-Serif" font-size="10.00">include/utils/infos.h</text>
</a>
</g>
</g>
<!-- Node2 -->
<g id="node2" class="node"><title>Node2</title>
<g id="a_node2"><a xlink:href="../../d4/db4/classfile_8h.xhtml" target="_top" xlink:title=" ">
<polygon fill="none" stroke="black" points="555,-196 555,-215 649,-215 649,-196 555,-196"/>
<text text-anchor="middle" x="602" y="-203" font-family="Helvetica,sans-Serif" font-size="10.00">include/classfile.h</text>
</a>
</g>
</g>
<!-- Node1&#45;&gt;Node2 -->
<g id="edge1" class="edge"><title>Node1&#45;&gt;Node2</title>
<path fill="none" stroke="midnightblue" d="M1019.57,-258.478C923.126,-246.473 736.382,-223.228 649.1,-212.363"/>
<polygon fill="midnightblue" stroke="midnightblue" points="1019.39,-261.983 1029.75,-259.745 1020.26,-255.036 1019.39,-261.983"/>
</g>
<!-- Node3 -->
<g id="node3" class="node"><title>Node3</title>
<g id="a_node3"><a xlink:href="../../df/d50/method__area_8h.xhtml" target="_top" xlink:title=" ">
<polygon fill="none" stroke="black" points="985.5,-56.5 985.5,-86.5 1098.5,-86.5 1098.5,-56.5 985.5,-56.5"/>
<text text-anchor="start" x="993.5" y="-74.5" font-family="Helvetica,sans-Serif" font-size="10.00">include/utils/memory</text>
<text text-anchor="middle" x="1042" y="-63.5" font-family="Helvetica,sans-Serif" font-size="10.00">_areas/method_area.h</text>
</a>
</g>
</g>
<!-- Node1&#45;&gt;Node3 -->
<g id="edge16" class="edge"><title>Node1&#45;&gt;Node3</title>
<path fill="none" stroke="midnightblue" d="M1076.39,-247.603C1068.84,-209.161 1051.53,-121.038 1044.77,-86.6299"/>
<polygon fill="midnightblue" stroke="midnightblue" points="1072.96,-248.298 1078.32,-257.436 1079.83,-246.949 1072.96,-248.298"/>
</g>
<!-- Node14 -->
<g id="node14" class="node"><title>Node14</title>
<g id="a_node14"><a xlink:href="../../db/dab/printer_8h.xhtml" target="_top" xlink:title=" ">
<polygon fill="none" stroke="black" points="1108.5,-190.5 1108.5,-220.5 1209.5,-220.5 1209.5,-190.5 1108.5,-190.5"/>
<text text-anchor="start" x="1116.5" y="-208.5" font-family="Helvetica,sans-Serif" font-size="10.00">include/instructions</text>
<text text-anchor="middle" x="1159" y="-197.5" font-family="Helvetica,sans-Serif" font-size="10.00">/printer.h</text>
</a>
</g>
</g>
<!-- Node1&#45;&gt;Node14 -->
<g id="edge15" class="edge"><title>Node1&#45;&gt;Node14</title>
<path fill="none" stroke="midnightblue" d="M1099.66,-251.195C1112.11,-241.813 1128.13,-229.751 1140.38,-220.523"/>
<polygon fill="midnightblue" stroke="midnightblue" points="1097.2,-248.663 1091.32,-257.475 1101.41,-254.255 1097.2,-248.663"/>
</g>
<!-- Node2&#45;&gt;Node3 -->
<g id="edge2" class="edge"><title>Node2&#45;&gt;Node3</title>
<path fill="none" stroke="midnightblue" d="M659.218,-205.458C761.657,-205.943 970.589,-200.957 1023,-154 1041.94,-137.034 1043.86,-105.179 1043.18,-86.7188"/>
<polygon fill="midnightblue" stroke="midnightblue" points="659.074,-201.957 649.051,-205.39 659.028,-208.957 659.074,-201.957"/>
</g>
<!-- Node5 -->
<g id="node5" class="node"><title>Node5</title>
<g id="a_node5"><a xlink:href="../../d6/dda/reader_8h.xhtml" target="_top" xlink:title=" ">
<polygon fill="none" stroke="black" points="134,-129 134,-148 220,-148 220,-129 134,-129"/>
<text text-anchor="middle" x="177" y="-136" font-family="Helvetica,sans-Serif" font-size="10.00">include/reader.h</text>
</a>
</g>
</g>
<!-- Node2&#45;&gt;Node5 -->
<g id="edge4" class="edge"><title>Node2&#45;&gt;Node5</title>
<path fill="none" stroke="midnightblue" d="M544.653,-198.657C471.979,-190.789 343.04,-175.281 234,-154 225.481,-152.337 216.336,-150.18 207.918,-148.041"/>
<polygon fill="midnightblue" stroke="midnightblue" points="544.641,-202.176 554.958,-199.762 545.388,-195.216 544.641,-202.176"/>
</g>
<!-- Node6 -->
<g id="node6" class="node"><title>Node6</title>
<g id="a_node6"><a xlink:href="../../d8/df4/helper__functions_8h.xhtml" target="_top" xlink:title=" ">
<polygon fill="none" stroke="black" points="916,-123.5 916,-153.5 1014,-153.5 1014,-123.5 916,-123.5"/>
<text text-anchor="start" x="924" y="-141.5" font-family="Helvetica,sans-Serif" font-size="10.00">include/utils/helper</text>
<text text-anchor="middle" x="965" y="-130.5" font-family="Helvetica,sans-Serif" font-size="10.00">_functions.h</text>
</a>
</g>
</g>
<!-- Node2&#45;&gt;Node6 -->
<g id="edge5" class="edge"><title>Node2&#45;&gt;Node6</title>
<path fill="none" stroke="midnightblue" d="M659.519,-196.394C721.029,-187.396 821.303,-171.776 907,-154 909.846,-153.41 912.763,-152.775 915.701,-152.113"/>
<polygon fill="midnightblue" stroke="midnightblue" points="658.636,-192.986 649.244,-197.889 659.643,-199.913 658.636,-192.986"/>
</g>
<!-- Node7 -->
<g id="node7" class="node"><title>Node7</title>
<g id="a_node7"><a xlink:href="../../d8/d07/attribute_serializer_8h.xhtml" target="_top" xlink:title=" ">
<polygon fill="none" stroke="black" points="276,-123.5 276,-153.5 392,-153.5 392,-123.5 276,-123.5"/>
<text text-anchor="start" x="284" y="-141.5" font-family="Helvetica,sans-Serif" font-size="10.00">include/utils/serializers</text>
<text text-anchor="middle" x="334" y="-130.5" font-family="Helvetica,sans-Serif" font-size="10.00">/attributeSerializer.h</text>
</a>
</g>
</g>
<!-- Node2&#45;&gt;Node7 -->
<g id="edge7" class="edge"><title>Node2&#45;&gt;Node7</title>
<path fill="none" stroke="midnightblue" d="M556.84,-193.547C511.482,-182.546 441.405,-165.55 391.967,-153.559"/>
<polygon fill="midnightblue" stroke="midnightblue" points="556.145,-196.98 566.688,-195.936 557.795,-190.177 556.145,-196.98"/>
</g>
<!-- Node8 -->
<g id="node8" class="node"><title>Node8</title>
<g id="a_node8"><a xlink:href="../../da/d13/classfile_serializer_8h.xhtml" target="_top" xlink:title=" ">
<polygon fill="none" stroke="black" points="410,-123.5 410,-153.5 526,-153.5 526,-123.5 410,-123.5"/>
<text text-anchor="start" x="418" y="-141.5" font-family="Helvetica,sans-Serif" font-size="10.00">include/utils/serializers</text>
<text text-anchor="middle" x="468" y="-130.5" font-family="Helvetica,sans-Serif" font-size="10.00">/classfileSerializer.h</text>
</a>
</g>
</g>
<!-- Node2&#45;&gt;Node8 -->
<g id="edge8" class="edge"><title>Node2&#45;&gt;Node8</title>
<path fill="none" stroke="midnightblue" d="M575.146,-191.474C552.492,-180.485 520.138,-164.791 496.919,-153.528"/>
<polygon fill="midnightblue" stroke="midnightblue" points="573.681,-194.653 584.206,-195.869 576.736,-188.355 573.681,-194.653"/>
</g>
<!-- Node9 -->
<g id="node9" class="node"><title>Node9</title>
<g id="a_node9"><a xlink:href="../../d2/dbc/constpool_serializer_8h.xhtml" target="_top" xlink:title=" ">
<polygon fill="none" stroke="black" points="0,-123.5 0,-153.5 116,-153.5 116,-123.5 0,-123.5"/>
<text text-anchor="start" x="8" y="-141.5" font-family="Helvetica,sans-Serif" font-size="10.00">include/utils/serializers</text>
<text text-anchor="middle" x="58" y="-130.5" font-family="Helvetica,sans-Serif" font-size="10.00">/constpoolSerializer.h</text>
</a>
</g>
</g>
<!-- Node2&#45;&gt;Node9 -->
<g id="edge9" class="edge"><title>Node2&#45;&gt;Node9</title>
<path fill="none" stroke="midnightblue" d="M544.744,-200.441C454.931,-193.625 275.62,-178.199 125,-154 122.062,-153.528 119.06,-153.01 116.032,-152.459"/>
<polygon fill="midnightblue" stroke="midnightblue" points="544.489,-203.932 554.723,-201.191 545.013,-196.951 544.489,-203.932"/>
</g>
<!-- Node10 -->
<g id="node10" class="node"><title>Node10</title>
<g id="a_node10"><a xlink:href="../../d8/d6c/instruction_serializer_8h.xhtml" target="_top" xlink:title=" ">
<polygon fill="none" stroke="black" points="95,-56.5 95,-86.5 211,-86.5 211,-56.5 95,-56.5"/>
<text text-anchor="start" x="103" y="-74.5" font-family="Helvetica,sans-Serif" font-size="10.00">include/utils/serializers</text>
<text text-anchor="middle" x="153" y="-63.5" font-family="Helvetica,sans-Serif" font-size="10.00">/instructionSerializer.h</text>
</a>
</g>
</g>
<!-- Node2&#45;&gt;Node10 -->
<g id="edge12" class="edge"><title>Node2&#45;&gt;Node10</title>
<path fill="none" stroke="midnightblue" d="M544.673,-204.936C475.853,-203.453 358.306,-194.442 267,-154 247.071,-145.173 246.542,-135.936 229,-123 211.405,-110.025 190.695,-96.3643 175.341,-86.5271"/>
<polygon fill="midnightblue" stroke="midnightblue" points="544.818,-208.438 554.876,-205.108 544.936,-201.439 544.818,-208.438"/>
</g>
<!-- Node11 -->
<g id="node11" class="node"><title>Node11</title>
<g id="a_node11"><a xlink:href="../../d0/dfa/field_serializer_8h.xhtml" target="_top" xlink:title=" ">
<polygon fill="none" stroke="black" points="544,-123.5 544,-153.5 660,-153.5 660,-123.5 544,-123.5"/>
<text text-anchor="start" x="552" y="-141.5" font-family="Helvetica,sans-Serif" font-size="10.00">include/utils/serializers</text>
<text text-anchor="middle" x="602" y="-130.5" font-family="Helvetica,sans-Serif" font-size="10.00">/fieldSerializer.h</text>
</a>
</g>
</g>
<!-- Node2&#45;&gt;Node11 -->
<g id="edge11" class="edge"><title>Node2&#45;&gt;Node11</title>
<path fill="none" stroke="midnightblue" d="M602,-185.411C602,-175.222 602,-162.901 602,-153.589"/>
<polygon fill="midnightblue" stroke="midnightblue" points="598.5,-185.734 602,-195.734 605.5,-185.734 598.5,-185.734"/>
</g>
<!-- Node12 -->
<g id="node12" class="node"><title>Node12</title>
<g id="a_node12"><a xlink:href="../../de/df9/method_serializer_8h.xhtml" target="_top" xlink:title=" ">
<polygon fill="none" stroke="black" points="678,-123.5 678,-153.5 794,-153.5 794,-123.5 678,-123.5"/>
<text text-anchor="start" x="686" y="-141.5" font-family="Helvetica,sans-Serif" font-size="10.00">include/utils/serializers</text>
<text text-anchor="middle" x="736" y="-130.5" font-family="Helvetica,sans-Serif" font-size="10.00">/methodSerializer.h</text>
</a>
</g>
</g>
<!-- Node2&#45;&gt;Node12 -->
<g id="edge13" class="edge"><title>Node2&#45;&gt;Node12</title>
<path fill="none" stroke="midnightblue" d="M628.854,-191.474C651.508,-180.485 683.862,-164.791 707.081,-153.528"/>
<polygon fill="midnightblue" stroke="midnightblue" points="627.264,-188.355 619.794,-195.869 630.319,-194.653 627.264,-188.355"/>
</g>
<!-- Node13 -->
<g id="node13" class="node"><title>Node13</title>
<g id="a_node13"><a xlink:href="../../dc/dba/viewer_8h.xhtml" target="_top" xlink:title=" ">
<polygon fill="none" stroke="black" points="812.5,-129 812.5,-148 897.5,-148 897.5,-129 812.5,-129"/>
<text text-anchor="middle" x="855" y="-136" font-family="Helvetica,sans-Serif" font-size="10.00">include/viewer.h</text>
</a>
</g>
</g>
<!-- Node2&#45;&gt;Node13 -->
<g id="edge14" class="edge"><title>Node2&#45;&gt;Node13</title>
<path fill="none" stroke="midnightblue" d="M647.195,-193.498C687.989,-183.484 749.616,-168.147 803,-154 810.066,-152.127 817.654,-150.05 824.789,-148.066"/>
<polygon fill="midnightblue" stroke="midnightblue" points="646.17,-190.146 637.291,-195.925 647.836,-196.945 646.17,-190.146"/>
</g>
<!-- Node4 -->
<g id="node4" class="node"><title>Node4</title>
<g id="a_node4"><a xlink:href="../../d3/d97/interpreter_8h.xhtml" target="_top" xlink:title=" ">
<polygon fill="none" stroke="black" points="991,-0.5 991,-19.5 1093,-19.5 1093,-0.5 991,-0.5"/>
<text text-anchor="middle" x="1042" y="-7.5" font-family="Helvetica,sans-Serif" font-size="10.00">include/interpreter.h</text>
</a>
</g>
</g>
<!-- Node3&#45;&gt;Node4 -->
<g id="edge3" class="edge"><title>Node3&#45;&gt;Node4</title>
<path fill="none" stroke="midnightblue" d="M1042,-46.2892C1042,-36.857 1042,-26.6548 1042,-19.6578"/>
<polygon fill="midnightblue" stroke="midnightblue" points="1038.5,-46.3993 1042,-56.3993 1045.5,-46.3994 1038.5,-46.3993"/>
</g>
<!-- Node6&#45;&gt;Node3 -->
<g id="edge6" class="edge"><title>Node6&#45;&gt;Node3</title>
<path fill="none" stroke="midnightblue" d="M989.423,-116.883C1001.12,-107.005 1014.84,-95.4293 1025.32,-86.5765"/>
<polygon fill="midnightblue" stroke="midnightblue" points="987.092,-114.271 981.708,-123.396 991.607,-119.62 987.092,-114.271"/>
</g>
<!-- Node9&#45;&gt;Node10 -->
<g id="edge10" class="edge"><title>Node9&#45;&gt;Node10</title>
<path fill="none" stroke="midnightblue" d="M86.8893,-117.734C101.59,-107.676 119.115,-95.6847 132.427,-86.5765"/>
<polygon fill="midnightblue" stroke="midnightblue" points="84.8903,-114.861 78.6136,-123.396 88.8431,-120.638 84.8903,-114.861"/>
</g>
</g>
</svg>
