<?xml version="1.0" encoding="UTF-8" standalone="no"?>
<!DOCTYPE svg PUBLIC "-//W3C//DTD SVG 1.1//EN"
 "http://www.w3.org/Graphics/SVG/1.1/DTD/svg11.dtd">
<!-- Generated by graphviz version 2.38.0 (20140413.2041)
 -->
<!-- Title: include/instructions/instruction_set/monitor.h Pages: 1 -->
<svg width="395pt" height="218pt"
 viewBox="0.00 0.00 395.00 218.00" xmlns="http://www.w3.org/2000/svg" xmlns:xlink="http://www.w3.org/1999/xlink">
<g id="graph0" class="graph" transform="scale(1 1) rotate(0) translate(4 214)">
<title>include/instructions/instruction_set/monitor.h</title>
<!-- Node1 -->
<g id="node1" class="node"><title>Node1</title>
<g id="a_node1"><a xlink:title=" ">
<polygon fill="#bfbfbf" stroke="black" points="104.5,-179.5 104.5,-209.5 231.5,-209.5 231.5,-179.5 104.5,-179.5"/>
<text text-anchor="start" x="112.5" y="-197.5" font-family="Helvetica,sans-Serif" font-size="10.00">include/instructions</text>
<text text-anchor="middle" x="168" y="-186.5" font-family="Helvetica,sans-Serif" font-size="10.00">/instruction_set/monitor.h</text>
</a>
</g>
</g>
<!-- Node2 -->
<g id="node2" class="node"><title>Node2</title>
<g id="a_node2"><a xlink:title=" ">
<polygon fill="none" stroke="#bfbfbf" points="0,-118 0,-137 54,-137 54,-118 0,-118"/>
<text text-anchor="middle" x="27" y="-125" font-family="Helvetica,sans-Serif" font-size="10.00">iostream</text>
</a>
</g>
</g>
<!-- Node1&#45;&gt;Node2 -->
<g id="edge1" class="edge"><title>Node1&#45;&gt;Node2</title>
<path fill="none" stroke="midnightblue" d="M137.405,-179.396C112.775,-168.041 78.4544,-152.22 54.644,-141.244"/>
<polygon fill="midnightblue" stroke="midnightblue" points="56.0004,-138.015 45.4537,-137.007 53.0698,-144.372 56.0004,-138.015"/>
</g>
<!-- Node3 -->
<g id="node3" class="node"><title>Node3</title>
<g id="a_node3"><a xlink:title=" ">
<polygon fill="none" stroke="#bfbfbf" points="127.5,-56.5 127.5,-75.5 168.5,-75.5 168.5,-56.5 127.5,-56.5"/>
<text text-anchor="middle" x="148" y="-63.5" font-family="Helvetica,sans-Serif" font-size="10.00">string</text>
</a>
</g>
</g>
<!-- Node1&#45;&gt;Node3 -->
<g id="edge2" class="edge"><title>Node1&#45;&gt;Node3</title>
<path fill="none" stroke="midnightblue" d="M138.315,-179.34C124.261,-170.918 108.863,-158.774 101,-143 94.8531,-130.669 95.5894,-124.671 101,-112 106.147,-99.9469 116.281,-89.5764 125.826,-81.8389"/>
<polygon fill="midnightblue" stroke="midnightblue" points="128.04,-84.5532 133.922,-75.7409 123.828,-78.9619 128.04,-84.5532"/>
</g>
<!-- Node4 -->
<g id="node4" class="node"><title>Node4</title>
<g id="a_node4"><a xlink:title=" ">
<polygon fill="none" stroke="#bfbfbf" points="345,-56.5 345,-75.5 387,-75.5 387,-56.5 345,-56.5"/>
<text text-anchor="middle" x="366" y="-63.5" font-family="Helvetica,sans-Serif" font-size="10.00">vector</text>
</a>
</g>
</g>
<!-- Node1&#45;&gt;Node4 -->
<g id="edge3" class="edge"><title>Node1&#45;&gt;Node4</title>
<path fill="none" stroke="midnightblue" d="M231.668,-185.937C283.682,-178.295 351.248,-164.508 368,-143 380.641,-126.77 377.148,-102.132 372.482,-85.3395"/>
<polygon fill="midnightblue" stroke="midnightblue" points="375.755,-84.084 369.403,-75.6047 369.081,-86.1947 375.755,-84.084"/>
</g>
<!-- Node5 -->
<g id="node5" class="node"><title>Node5</title>
<g id="a_node5"><a xlink:href="../../d3/d5a/base_8h.xhtml" target="_top" xlink:title=" ">
<polygon fill="none" stroke="black" points="243.5,-112.5 243.5,-142.5 358.5,-142.5 358.5,-112.5 243.5,-112.5"/>
<text text-anchor="start" x="251.5" y="-130.5" font-family="Helvetica,sans-Serif" font-size="10.00">instructions/instruction</text>
<text text-anchor="middle" x="301" y="-119.5" font-family="Helvetica,sans-Serif" font-size="10.00">_set/base.h</text>
</a>
</g>
</g>
<!-- Node1&#45;&gt;Node5 -->
<g id="edge4" class="edge"><title>Node1&#45;&gt;Node5</title>
<path fill="none" stroke="midnightblue" d="M196.859,-179.396C216.292,-169.899 242.119,-157.276 263.191,-146.978"/>
<polygon fill="midnightblue" stroke="midnightblue" points="264.75,-150.112 272.197,-142.577 261.676,-143.823 264.75,-150.112"/>
</g>
<!-- Node9 -->
<g id="node9" class="node"><title>Node9</title>
<g id="a_node9"><a xlink:href="../../d3/de6/opcodes_8h.xhtml" target="_top" xlink:title=" ">
<polygon fill="none" stroke="black" points="110.5,-118 110.5,-137 225.5,-137 225.5,-118 110.5,-118"/>
<text text-anchor="middle" x="168" y="-125" font-family="Helvetica,sans-Serif" font-size="10.00">instructions/opcodes.h</text>
</a>
</g>
</g>
<!-- Node1&#45;&gt;Node9 -->
<g id="edge10" class="edge"><title>Node1&#45;&gt;Node9</title>
<path fill="none" stroke="midnightblue" d="M168,-179.396C168,-170.064 168,-157.714 168,-147.517"/>
<polygon fill="midnightblue" stroke="midnightblue" points="171.5,-147.195 168,-137.195 164.5,-147.195 171.5,-147.195"/>
</g>
<!-- Node5&#45;&gt;Node3 -->
<g id="edge6" class="edge"><title>Node5&#45;&gt;Node3</title>
<path fill="none" stroke="midnightblue" d="M264.741,-112.399C238.334,-102.13 202.985,-88.383 178.127,-78.7159"/>
<polygon fill="midnightblue" stroke="midnightblue" points="179.089,-75.3348 168.5,-74.9723 176.552,-81.8589 179.089,-75.3348"/>
</g>
<!-- Node5&#45;&gt;Node4 -->
<g id="edge7" class="edge"><title>Node5&#45;&gt;Node4</title>
<path fill="none" stroke="midnightblue" d="M316.404,-112.399C326.239,-103.397 338.993,-91.7214 349.105,-82.4652"/>
<polygon fill="midnightblue" stroke="midnightblue" points="351.529,-84.9916 356.542,-75.6578 346.802,-79.8282 351.529,-84.9916"/>
</g>
<!-- Node6 -->
<g id="node6" class="node"><title>Node6</title>
<g id="a_node6"><a xlink:title=" ">
<polygon fill="none" stroke="#bfbfbf" points="275,-56.5 275,-75.5 327,-75.5 327,-56.5 275,-56.5"/>
<text text-anchor="middle" x="301" y="-63.5" font-family="Helvetica,sans-Serif" font-size="10.00">sstream</text>
</a>
</g>
</g>
<!-- Node5&#45;&gt;Node6 -->
<g id="edge5" class="edge"><title>Node5&#45;&gt;Node6</title>
<path fill="none" stroke="midnightblue" d="M301,-112.399C301,-104.466 301,-94.458 301,-85.8583"/>
<polygon fill="midnightblue" stroke="midnightblue" points="304.5,-85.6577 301,-75.6578 297.5,-85.6578 304.5,-85.6577"/>
</g>
<!-- Node7 -->
<g id="node7" class="node"><title>Node7</title>
<g id="a_node7"><a xlink:href="../../d9/d49/types_8h.xhtml" target="_top" xlink:title=" ">
<polygon fill="none" stroke="black" points="187,-56.5 187,-75.5 257,-75.5 257,-56.5 187,-56.5"/>
<text text-anchor="middle" x="222" y="-63.5" font-family="Helvetica,sans-Serif" font-size="10.00">utils/types.h</text>
</a>
</g>
</g>
<!-- Node5&#45;&gt;Node7 -->
<g id="edge8" class="edge"><title>Node5&#45;&gt;Node7</title>
<path fill="none" stroke="midnightblue" d="M282.278,-112.399C270.088,-103.218 254.208,-91.2579 241.807,-81.9182"/>
<polygon fill="midnightblue" stroke="midnightblue" points="243.589,-78.8782 233.495,-75.6578 239.377,-84.4697 243.589,-78.8782"/>
</g>
<!-- Node8 -->
<g id="node8" class="node"><title>Node8</title>
<g id="a_node8"><a xlink:title=" ">
<polygon fill="none" stroke="#bfbfbf" points="199,-0.5 199,-19.5 245,-19.5 245,-0.5 199,-0.5"/>
<text text-anchor="middle" x="222" y="-7.5" font-family="Helvetica,sans-Serif" font-size="10.00">cstdint</text>
</a>
</g>
</g>
<!-- Node7&#45;&gt;Node8 -->
<g id="edge9" class="edge"><title>Node7&#45;&gt;Node8</title>
<path fill="none" stroke="midnightblue" d="M222,-56.083C222,-49.0059 222,-38.8611 222,-29.9865"/>
<polygon fill="midnightblue" stroke="midnightblue" points="225.5,-29.751 222,-19.7511 218.5,-29.7511 225.5,-29.751"/>
</g>
<!-- Node9&#45;&gt;Node3 -->
<g id="edge11" class="edge"><title>Node9&#45;&gt;Node3</title>
<path fill="none" stroke="midnightblue" d="M165.134,-117.975C162.283,-109.492 157.817,-96.2043 154.159,-85.3222"/>
<polygon fill="midnightblue" stroke="midnightblue" points="157.364,-83.8727 150.86,-75.5091 150.729,-86.1031 157.364,-83.8727"/>
</g>
<!-- Node9&#45;&gt;Node4 -->
<g id="edge12" class="edge"><title>Node9&#45;&gt;Node4</title>
<path fill="none" stroke="midnightblue" d="M196.369,-117.975C233.119,-106.931 296.967,-87.7449 334.972,-76.3239"/>
<polygon fill="midnightblue" stroke="midnightblue" points="336.393,-79.5517 344.963,-73.3218 334.379,-72.8478 336.393,-79.5517"/>
</g>
<!-- Node9&#45;&gt;Node7 -->
<g id="edge13" class="edge"><title>Node9&#45;&gt;Node7</title>
<path fill="none" stroke="midnightblue" d="M175.737,-117.975C183.997,-108.873 197.277,-94.241 207.494,-82.983"/>
<polygon fill="midnightblue" stroke="midnightblue" points="210.149,-85.2663 214.277,-75.5091 204.965,-80.5619 210.149,-85.2663"/>
</g>
</g>
</svg>
