<?xml version="1.0" encoding="UTF-8" standalone="no"?>
<!DOCTYPE svg PUBLIC "-//W3C//DTD SVG 1.1//EN"
 "http://www.w3.org/Graphics/SVG/1.1/DTD/svg11.dtd">
<!-- Generated by graphviz version 2.38.0 (20140413.2041)
 -->
<!-- Title: Options Pages: 1 -->
<svg width="324pt" height="226pt"
 viewBox="0.00 0.00 324.00 226.00" xmlns="http://www.w3.org/2000/svg" xmlns:xlink="http://www.w3.org/1999/xlink">
<g id="graph0" class="graph" transform="scale(1 1) rotate(0) translate(4 222)">
<title>Options</title>
<!-- Node1 -->
<g id="node1" class="node"><title>Node1</title>
<g id="a_node1"><a xlink:title=" ">
<polygon fill="#bfbfbf" stroke="black" points="126,-0.5 126,-57.5 176,-57.5 176,-0.5 126,-0.5"/>
<text text-anchor="middle" x="151" y="-45.5" font-family="Helvetica,sans-Serif" font-size="10.00">Options</text>
<polyline fill="none" stroke="black" points="126,-38.5 176,-38.5 "/>
<text text-anchor="middle" x="151" y="-26.5" font-family="Helvetica,sans-Serif" font-size="10.00"> </text>
<polyline fill="none" stroke="black" points="126,-19.5 176,-19.5 "/>
<text text-anchor="middle" x="151" y="-7.5" font-family="Helvetica,sans-Serif" font-size="10.00"> </text>
</a>
</g>
</g>
<!-- Node2 -->
<g id="node2" class="node"><title>Node2</title>
<g id="a_node2"><a xlink:title=" ">
<polygon fill="none" stroke="#bfbfbf" points="0,-160.5 0,-217.5 112,-217.5 112,-160.5 0,-160.5"/>
<text text-anchor="middle" x="56" y="-205.5" font-family="Helvetica,sans-Serif" font-size="10.00">anonymous:+KMODE</text>
<polyline fill="none" stroke="#bfbfbf" points="0,-198.5 112,-198.5 "/>
<text text-anchor="middle" x="56" y="-186.5" font-family="Helvetica,sans-Serif" font-size="10.00"> </text>
<polyline fill="none" stroke="#bfbfbf" points="0,-179.5 112,-179.5 "/>
<text text-anchor="middle" x="56" y="-167.5" font-family="Helvetica,sans-Serif" font-size="10.00"> </text>
</a>
</g>
</g>
<!-- Node2&#45;&gt;Node1 -->
<g id="edge1" class="edge"><title>Node2&#45;&gt;Node1</title>
<path fill="none" stroke="#404040" d="M63.424,-160.07C70.5904,-136.323 83.0149,-102.034 101,-76 105.488,-69.5039 111.047,-63.2599 116.811,-57.5804"/>
<polygon fill="none" stroke="#404040" points="117.101,-57.312 118.791,-50.3016 125.912,-49.1649 124.222,-56.1753 117.101,-57.312"/>
<text text-anchor="middle" x="124" y="-106.5" font-family="Helvetica,sans-Serif" font-size="10.00"> +KMODE</text>
</g>
<!-- Node3 -->
<g id="node3" class="node"><title>Node3</title>
<g id="a_node3"><a xlink:title=" ">
<polygon fill="none" stroke="#bfbfbf" points="130.5,-160.5 130.5,-217.5 171.5,-217.5 171.5,-160.5 130.5,-160.5"/>
<text text-anchor="middle" x="151" y="-205.5" font-family="Helvetica,sans-Serif" font-size="10.00">string</text>
<polyline fill="none" stroke="#bfbfbf" points="130.5,-198.5 171.5,-198.5 "/>
<text text-anchor="middle" x="151" y="-186.5" font-family="Helvetica,sans-Serif" font-size="10.00"> </text>
<polyline fill="none" stroke="#bfbfbf" points="130.5,-179.5 171.5,-179.5 "/>
<text text-anchor="middle" x="151" y="-167.5" font-family="Helvetica,sans-Serif" font-size="10.00"> </text>
</a>
</g>
</g>
<!-- Node3&#45;&gt;Node1 -->
<g id="edge2" class="edge"><title>Node3&#45;&gt;Node1</title>
<path fill="none" stroke="#404040" d="M151,-160.479C151,-135.484 151,-98.3112 151,-70.0293"/>
<polygon fill="none" stroke="#404040" points="151,-69.7362 147,-63.7363 151,-57.7362 155,-63.7362 151,-69.7362"/>
<text text-anchor="middle" x="183" y="-117.5" font-family="Helvetica,sans-Serif" font-size="10.00"> +kPATH</text>
<text text-anchor="middle" x="183" y="-106.5" font-family="Helvetica,sans-Serif" font-size="10.00">+kFILE</text>
<text text-anchor="middle" x="183" y="-95.5" font-family="Helvetica,sans-Serif" font-size="10.00">+kJVM_ARGS</text>
</g>
<!-- Node4 -->
<g id="node4" class="node"><title>Node4</title>
<g id="a_node4"><a xlink:title=" ">
<polygon fill="none" stroke="#bfbfbf" points="220.5,-160.5 220.5,-217.5 255.5,-217.5 255.5,-160.5 220.5,-160.5"/>
<text text-anchor="middle" x="238" y="-205.5" font-family="Helvetica,sans-Serif" font-size="10.00">bool</text>
<polyline fill="none" stroke="#bfbfbf" points="220.5,-198.5 255.5,-198.5 "/>
<text text-anchor="middle" x="238" y="-186.5" font-family="Helvetica,sans-Serif" font-size="10.00"> </text>
<polyline fill="none" stroke="#bfbfbf" points="220.5,-179.5 255.5,-179.5 "/>
<text text-anchor="middle" x="238" y="-167.5" font-family="Helvetica,sans-Serif" font-size="10.00"> </text>
</a>
</g>
</g>
<!-- Node4&#45;&gt;Node1 -->
<g id="edge3" class="edge"><title>Node4&#45;&gt;Node1</title>
<path fill="none" stroke="#404040" d="M238.161,-160.085C237.054,-136.029 232.366,-101.286 216,-76 208.713,-64.7424 197.617,-55.4117 186.643,-48.164"/>
<polygon fill="none" stroke="#404040" points="186.538,-48.0998 179.333,-48.3955 176.289,-41.8584 183.494,-41.5627 186.538,-48.0998"/>
<text text-anchor="middle" x="276.5" y="-134" font-family="Helvetica,sans-Serif" font-size="10.00"> +kJSON</text>
<text text-anchor="middle" x="276.5" y="-123" font-family="Helvetica,sans-Serif" font-size="10.00">+kVERBOSE</text>
<text text-anchor="middle" x="276.5" y="-112" font-family="Helvetica,sans-Serif" font-size="10.00">+kDEBUG</text>
<text text-anchor="middle" x="276.5" y="-101" font-family="Helvetica,sans-Serif" font-size="10.00">+kINTERPRETER</text>
<text text-anchor="middle" x="276.5" y="-90" font-family="Helvetica,sans-Serif" font-size="10.00">+kVIEWER</text>
<text text-anchor="middle" x="276.5" y="-79" font-family="Helvetica,sans-Serif" font-size="10.00">+kIGNORE</text>
</g>
</g>
</svg>
