<?xml version="1.0" encoding="UTF-8" standalone="no"?>
<!DOCTYPE svg PUBLIC "-//W3C//DTD SVG 1.1//EN"
 "http://www.w3.org/Graphics/SVG/1.1/DTD/svg11.dtd">
<!-- Generated by graphviz version 2.38.0 (20140413.2041)
 -->
<!-- Title: include/utils/external/any.h Pages: 1 -->
<svg width="279pt" height="352pt"
 viewBox="0.00 0.00 279.00 352.00" xmlns="http://www.w3.org/2000/svg" xmlns:xlink="http://www.w3.org/1999/xlink">
<g id="graph0" class="graph" transform="scale(1 1) rotate(0) translate(4 348)">
<title>include/utils/external/any.h</title>
<!-- Node1 -->
<g id="node1" class="node"><title>Node1</title>
<g id="a_node1"><a xlink:title=" ">
<polygon fill="#bfbfbf" stroke="black" points="124,-313.5 124,-343.5 230,-343.5 230,-313.5 124,-313.5"/>
<text text-anchor="start" x="132" y="-331.5" font-family="Helvetica,sans-Serif" font-size="10.00">include/utils/external</text>
<text text-anchor="middle" x="177" y="-320.5" font-family="Helvetica,sans-Serif" font-size="10.00">/any.h</text>
</a>
</g>
</g>
<!-- Node2 -->
<g id="node2" class="node"><title>Node2</title>
<g id="a_node2"><a xlink:href="../../df/d7d/frame_8h.xhtml" target="_top" xlink:title=" ">
<polygon fill="none" stroke="black" points="0,-257.5 0,-276.5 104,-276.5 104,-257.5 0,-257.5"/>
<text text-anchor="middle" x="52" y="-264.5" font-family="Helvetica,sans-Serif" font-size="10.00">include/utils/frame.h</text>
</a>
</g>
</g>
<!-- Node1&#45;&gt;Node2 -->
<g id="edge1" class="edge"><title>Node1&#45;&gt;Node2</title>
<path fill="none" stroke="midnightblue" d="M138.311,-309.084C115.606,-298.276 87.9704,-285.122 70.1886,-276.658"/>
<polygon fill="midnightblue" stroke="midnightblue" points="136.843,-312.262 147.377,-313.399 139.852,-305.941 136.843,-312.262"/>
</g>
<!-- Node7 -->
<g id="node7" class="node"><title>Node7</title>
<g id="a_node7"><a xlink:href="../../d4/df7/array__t_8h.xhtml" target="_top" xlink:title=" ">
<polygon fill="none" stroke="black" points="122,-257.5 122,-276.5 232,-276.5 232,-257.5 122,-257.5"/>
<text text-anchor="middle" x="177" y="-264.5" font-family="Helvetica,sans-Serif" font-size="10.00">include/utils/array_t.h</text>
</a>
</g>
</g>
<!-- Node1&#45;&gt;Node7 -->
<g id="edge9" class="edge"><title>Node1&#45;&gt;Node7</title>
<path fill="none" stroke="midnightblue" d="M177,-303.289C177,-293.857 177,-283.655 177,-276.658"/>
<polygon fill="midnightblue" stroke="midnightblue" points="173.5,-303.399 177,-313.399 180.5,-303.399 173.5,-303.399"/>
</g>
<!-- Node8 -->
<g id="node8" class="node"><title>Node8</title>
<g id="a_node8"><a xlink:href="../../de/d10/object_8h.xhtml" target="_top" xlink:title=" ">
<polygon fill="none" stroke="black" points="165,-196 165,-215 271,-215 271,-196 165,-196"/>
<text text-anchor="middle" x="218" y="-203" font-family="Helvetica,sans-Serif" font-size="10.00">include/utils/object.h</text>
</a>
</g>
</g>
<!-- Node1&#45;&gt;Node8 -->
<g id="edge12" class="edge"><title>Node1&#45;&gt;Node8</title>
<path fill="none" stroke="midnightblue" d="M213.125,-307.803C224.149,-299.81 234.949,-289.483 241,-277 251.333,-255.684 234.931,-228.589 224.887,-215.035"/>
<polygon fill="midnightblue" stroke="midnightblue" points="211.067,-304.969 204.725,-313.456 214.975,-310.776 211.067,-304.969"/>
</g>
<!-- Node3 -->
<g id="node3" class="node"><title>Node3</title>
<g id="a_node3"><a xlink:href="../../d3/d97/interpreter_8h.xhtml" target="_top" xlink:title=" ">
<polygon fill="none" stroke="black" points="18,-0.5 18,-19.5 120,-19.5 120,-0.5 18,-0.5"/>
<text text-anchor="middle" x="69" y="-7.5" font-family="Helvetica,sans-Serif" font-size="10.00">include/interpreter.h</text>
</a>
</g>
</g>
<!-- Node2&#45;&gt;Node3 -->
<g id="edge2" class="edge"><title>Node2&#45;&gt;Node3</title>
<path fill="none" stroke="midnightblue" d="M41.236,-248.685C36.8215,-240.595 32.2297,-230.637 30,-221 26.8944,-207.577 28.5345,-203.7 30,-190 37.1042,-123.587 58.7967,-45.6816 66.363,-19.8285"/>
<polygon fill="midnightblue" stroke="midnightblue" points="38.3028,-250.603 46.3622,-257.481 44.3506,-247.078 38.3028,-250.603"/>
</g>
<!-- Node4 -->
<g id="node4" class="node"><title>Node4</title>
<g id="a_node4"><a xlink:href="../../dd/d7e/java__stack_8h.xhtml" target="_top" xlink:title=" ">
<polygon fill="none" stroke="black" points="39.5,-190.5 39.5,-220.5 146.5,-220.5 146.5,-190.5 39.5,-190.5"/>
<text text-anchor="start" x="47.5" y="-208.5" font-family="Helvetica,sans-Serif" font-size="10.00">include/utils/memory</text>
<text text-anchor="middle" x="93" y="-197.5" font-family="Helvetica,sans-Serif" font-size="10.00">_areas/java_stack.h</text>
</a>
</g>
</g>
<!-- Node2&#45;&gt;Node4 -->
<g id="edge3" class="edge"><title>Node2&#45;&gt;Node4</title>
<path fill="none" stroke="midnightblue" d="M63.7395,-248.963C69.946,-239.956 77.4721,-229.034 83.3371,-220.523"/>
<polygon fill="midnightblue" stroke="midnightblue" points="60.6664,-247.255 57.8743,-257.475 66.4305,-251.227 60.6664,-247.255"/>
</g>
<!-- Node4&#45;&gt;Node3 -->
<g id="edge4" class="edge"><title>Node4&#45;&gt;Node3</title>
<path fill="none" stroke="midnightblue" d="M79.2185,-181.077C75.0801,-172.807 71.0876,-163.256 69,-154 57.7481,-104.111 64.6047,-41.9164 67.7123,-19.5248"/>
<polygon fill="midnightblue" stroke="midnightblue" points="76.2405,-182.93 84.0381,-190.103 82.4154,-179.633 76.2405,-182.93"/>
</g>
<!-- Node5 -->
<g id="node5" class="node"><title>Node5</title>
<g id="a_node5"><a xlink:href="../../db/dd5/thread_8h.xhtml" target="_top" xlink:title=" ">
<polygon fill="none" stroke="black" points="78.5,-123.5 78.5,-153.5 185.5,-153.5 185.5,-123.5 78.5,-123.5"/>
<text text-anchor="start" x="86.5" y="-141.5" font-family="Helvetica,sans-Serif" font-size="10.00">include/utils/memory</text>
<text text-anchor="middle" x="132" y="-130.5" font-family="Helvetica,sans-Serif" font-size="10.00">_areas/thread.h</text>
</a>
</g>
</g>
<!-- Node4&#45;&gt;Node5 -->
<g id="edge5" class="edge"><title>Node4&#45;&gt;Node5</title>
<path fill="none" stroke="midnightblue" d="M106.755,-181.576C112.356,-172.241 118.651,-161.748 123.554,-153.577"/>
<polygon fill="midnightblue" stroke="midnightblue" points="103.606,-180.02 101.462,-190.396 109.609,-183.622 103.606,-180.02"/>
</g>
<!-- Node5&#45;&gt;Node3 -->
<g id="edge8" class="edge"><title>Node5&#45;&gt;Node3</title>
<path fill="none" stroke="midnightblue" d="M120.427,-114.262C106.27,-85.8349 83.0009,-39.113 73.3769,-19.7885"/>
<polygon fill="midnightblue" stroke="midnightblue" points="117.426,-116.088 125.017,-123.479 123.692,-112.967 117.426,-116.088"/>
</g>
<!-- Node6 -->
<g id="node6" class="node"><title>Node6</title>
<g id="a_node6"><a xlink:href="../../da/ddb/heap_8h.xhtml" target="_top" xlink:title=" ">
<polygon fill="none" stroke="black" points="116.5,-56.5 116.5,-86.5 223.5,-86.5 223.5,-56.5 116.5,-56.5"/>
<text text-anchor="start" x="124.5" y="-74.5" font-family="Helvetica,sans-Serif" font-size="10.00">include/utils/memory</text>
<text text-anchor="middle" x="170" y="-63.5" font-family="Helvetica,sans-Serif" font-size="10.00">_areas/heap.h</text>
</a>
</g>
</g>
<!-- Node5&#45;&gt;Node6 -->
<g id="edge6" class="edge"><title>Node5&#45;&gt;Node6</title>
<path fill="none" stroke="midnightblue" d="M145.402,-114.576C150.859,-105.241 156.993,-94.7483 161.771,-86.5765"/>
<polygon fill="midnightblue" stroke="midnightblue" points="142.271,-112.997 140.245,-123.396 148.314,-116.529 142.271,-112.997"/>
</g>
<!-- Node6&#45;&gt;Node3 -->
<g id="edge7" class="edge"><title>Node6&#45;&gt;Node3</title>
<path fill="none" stroke="midnightblue" d="M137.016,-51.0688C119.012,-40.4624 97.6171,-27.8586 83.6964,-19.6578"/>
<polygon fill="midnightblue" stroke="midnightblue" points="135.672,-54.3391 146.064,-56.3993 139.225,-48.3079 135.672,-54.3391"/>
</g>
<!-- Node7&#45;&gt;Node8 -->
<g id="edge10" class="edge"><title>Node7&#45;&gt;Node8</title>
<path fill="none" stroke="midnightblue" d="M188.711,-249.005C196.371,-237.888 206.052,-223.84 212.137,-215.009"/>
<polygon fill="midnightblue" stroke="midnightblue" points="185.666,-247.255 182.874,-257.475 191.43,-251.227 185.666,-247.255"/>
</g>
<!-- Node8&#45;&gt;Node6 -->
<g id="edge11" class="edge"><title>Node8&#45;&gt;Node6</title>
<path fill="none" stroke="midnightblue" d="M213.362,-185.692C209.032,-168.993 202.043,-144.046 194,-123 189.218,-110.487 182.618,-96.7896 177.549,-86.8212"/>
<polygon fill="midnightblue" stroke="midnightblue" points="210.07,-186.95 215.915,-195.787 216.856,-185.234 210.07,-186.95"/>
</g>
</g>
</svg>
