<?xml version="1.0" encoding="UTF-8" standalone="no"?>
<!DOCTYPE svg PUBLIC "-//W3C//DTD SVG 1.1//EN"
 "http://www.w3.org/Graphics/SVG/1.1/DTD/svg11.dtd">
<!-- Generated by graphviz version 2.38.0 (20140413.2041)
 -->
<!-- Title: include/utils/external/any.h Pages: 1 -->
<svg width="351pt" height="408pt"
 viewBox="0.00 0.00 350.54 408.00" xmlns="http://www.w3.org/2000/svg" xmlns:xlink="http://www.w3.org/1999/xlink">
<g id="graph0" class="graph" transform="scale(1 1) rotate(0) translate(4 404)">
<title>include/utils/external/any.h</title>
<!-- Node1 -->
<g id="node1" class="node"><title>Node1</title>
<g id="a_node1"><a xlink:title=" ">
<polygon fill="#bfbfbf" stroke="black" points="185.913,-369.5 185.913,-399.5 291.913,-399.5 291.913,-369.5 185.913,-369.5"/>
<text text-anchor="start" x="193.913" y="-387.5" font-family="Helvetica,sans-Serif" font-size="10.00">include/utils/external</text>
<text text-anchor="middle" x="238.913" y="-376.5" font-family="Helvetica,sans-Serif" font-size="10.00">/any.h</text>
</a>
</g>
</g>
<!-- Node2 -->
<g id="node2" class="node"><title>Node2</title>
<g id="a_node2"><a xlink:href="../../df/d7d/frame_8h.xhtml" target="_top" xlink:title=" ">
<polygon fill="none" stroke="black" points="22.9132,-257.5 22.9132,-276.5 126.913,-276.5 126.913,-257.5 22.9132,-257.5"/>
<text text-anchor="middle" x="74.9132" y="-264.5" font-family="Helvetica,sans-Serif" font-size="10.00">include/utils/frame.h</text>
</a>
</g>
</g>
<!-- Node1&#45;&gt;Node2 -->
<g id="edge1" class="edge"><title>Node1&#45;&gt;Node2</title>
<path fill="none" stroke="midnightblue" d="M196.624,-364.811C179.024,-356.201 158.8,-345.187 141.913,-333 117.996,-315.739 94.2218,-290.168 82.4762,-276.827"/>
<polygon fill="midnightblue" stroke="midnightblue" points="195.563,-368.183 206.095,-369.339 198.583,-361.868 195.563,-368.183"/>
</g>
<!-- Node7 -->
<g id="node7" class="node"><title>Node7</title>
<g id="a_node7"><a xlink:href="../../d4/df7/array__t_8h.xhtml" target="_top" xlink:title=" ">
<polygon fill="none" stroke="black" points="183.913,-313.5 183.913,-332.5 293.913,-332.5 293.913,-313.5 183.913,-313.5"/>
<text text-anchor="middle" x="238.913" y="-320.5" font-family="Helvetica,sans-Serif" font-size="10.00">include/utils/array_t.h</text>
</a>
</g>
</g>
<!-- Node1&#45;&gt;Node7 -->
<g id="edge9" class="edge"><title>Node1&#45;&gt;Node7</title>
<path fill="none" stroke="midnightblue" d="M238.913,-359.289C238.913,-349.857 238.913,-339.655 238.913,-332.658"/>
<polygon fill="midnightblue" stroke="midnightblue" points="235.413,-359.399 238.913,-369.399 242.413,-359.399 235.413,-359.399"/>
</g>
<!-- Node8 -->
<g id="node8" class="node"><title>Node8</title>
<g id="a_node8"><a xlink:href="../../d1/d4d/field__t_8h.xhtml" target="_top" xlink:title=" ">
<polygon fill="none" stroke="black" points="227.413,-257.5 227.413,-276.5 332.413,-276.5 332.413,-257.5 227.413,-257.5"/>
<text text-anchor="middle" x="279.913" y="-264.5" font-family="Helvetica,sans-Serif" font-size="10.00">include/utils/field_t.h</text>
</a>
</g>
</g>
<!-- Node1&#45;&gt;Node8 -->
<g id="edge18" class="edge"><title>Node1&#45;&gt;Node8</title>
<path fill="none" stroke="midnightblue" d="M275.038,-363.803C286.062,-355.81 296.862,-345.483 302.913,-333 312.312,-313.611 297.123,-289.353 287.276,-276.658"/>
<polygon fill="midnightblue" stroke="midnightblue" points="272.98,-360.969 266.638,-369.456 276.888,-366.776 272.98,-360.969"/>
</g>
<!-- Node9 -->
<g id="node9" class="node"><title>Node9</title>
<g id="a_node9"><a xlink:href="../../d8/dd9/class__t_8h.xhtml" target="_top" xlink:title=" ">
<polygon fill="none" stroke="black" points="225.413,-129 225.413,-148 336.413,-148 336.413,-129 225.413,-129"/>
<text text-anchor="middle" x="280.913" y="-136" font-family="Helvetica,sans-Serif" font-size="10.00">include/utils/class_t.h</text>
</a>
</g>
</g>
<!-- Node1&#45;&gt;Node9 -->
<g id="edge17" class="edge"><title>Node1&#45;&gt;Node9</title>
<path fill="none" stroke="midnightblue" d="M279.796,-364.414C293.688,-356.319 308.351,-345.77 318.913,-333 335.956,-312.394 335.937,-303.274 340.913,-277 350.751,-225.051 307.259,-169.03 288.829,-148.06"/>
<polygon fill="midnightblue" stroke="midnightblue" points="277.884,-361.472 270.83,-369.377 281.274,-367.596 277.884,-361.472"/>
</g>
<!-- Node10 -->
<g id="node10" class="node"><title>Node10</title>
<g id="a_node10"><a xlink:href="../../de/d10/object_8h.xhtml" target="_top" xlink:title=" ">
<polygon fill="none" stroke="black" points="146.913,-196 146.913,-215 252.913,-215 252.913,-196 146.913,-196"/>
<text text-anchor="middle" x="199.913" y="-203" font-family="Helvetica,sans-Serif" font-size="10.00">include/utils/object.h</text>
</a>
</g>
</g>
<!-- Node1&#45;&gt;Node10 -->
<g id="edge19" class="edge"><title>Node1&#45;&gt;Node10</title>
<path fill="none" stroke="midnightblue" d="M202.789,-363.803C191.764,-355.81 180.965,-345.483 174.913,-333 155.09,-292.107 182.425,-236.524 194.593,-215.263"/>
<polygon fill="midnightblue" stroke="midnightblue" points="200.938,-366.776 211.188,-369.456 204.847,-360.969 200.938,-366.776"/>
</g>
<!-- Node3 -->
<g id="node3" class="node"><title>Node3</title>
<g id="a_node3"><a xlink:href="../../d3/d97/interpreter_8h.xhtml" target="_top" xlink:title=" ">
<polygon fill="none" stroke="black" points="11.9132,-0.5 11.9132,-19.5 113.913,-19.5 113.913,-0.5 11.9132,-0.5"/>
<text text-anchor="middle" x="62.9132" y="-7.5" font-family="Helvetica,sans-Serif" font-size="10.00">include/interpreter.h</text>
</a>
</g>
</g>
<!-- Node2&#45;&gt;Node3 -->
<g id="edge2" class="edge"><title>Node2&#45;&gt;Node3</title>
<path fill="none" stroke="midnightblue" d="M45.091,-252.606C32.4342,-245.234 18.9905,-234.753 11.9132,-221 -25.1688,-148.943 36.6327,-48.9801 56.851,-19.5011"/>
<polygon fill="midnightblue" stroke="midnightblue" points="43.6001,-255.778 54.0659,-257.427 46.9126,-249.611 43.6001,-255.778"/>
</g>
<!-- Node4 -->
<g id="node4" class="node"><title>Node4</title>
<g id="a_node4"><a xlink:href="../../dd/d7e/java__stack_8h.xhtml" target="_top" xlink:title=" ">
<polygon fill="none" stroke="black" points="21.4132,-190.5 21.4132,-220.5 128.413,-220.5 128.413,-190.5 21.4132,-190.5"/>
<text text-anchor="start" x="29.4132" y="-208.5" font-family="Helvetica,sans-Serif" font-size="10.00">include/utils/memory</text>
<text text-anchor="middle" x="74.9132" y="-197.5" font-family="Helvetica,sans-Serif" font-size="10.00">_areas/java_stack.h</text>
</a>
</g>
</g>
<!-- Node2&#45;&gt;Node4 -->
<g id="edge3" class="edge"><title>Node2&#45;&gt;Node4</title>
<path fill="none" stroke="midnightblue" d="M74.9132,-247.235C74.9132,-238.586 74.9132,-228.497 74.9132,-220.523"/>
<polygon fill="midnightblue" stroke="midnightblue" points="71.4133,-247.475 74.9132,-257.475 78.4133,-247.475 71.4133,-247.475"/>
</g>
<!-- Node4&#45;&gt;Node3 -->
<g id="edge4" class="edge"><title>Node4&#45;&gt;Node3</title>
<path fill="none" stroke="midnightblue" d="M61.8769,-181.38C57.8485,-173.021 53.9396,-163.338 51.9132,-154 41.0885,-104.117 54.654,-42.4257 60.4886,-19.8256"/>
<polygon fill="midnightblue" stroke="midnightblue" points="58.8715,-183.189 66.5551,-190.484 65.0976,-179.99 58.8715,-183.189"/>
</g>
<!-- Node5 -->
<g id="node5" class="node"><title>Node5</title>
<g id="a_node5"><a xlink:href="../../db/dd5/thread_8h.xhtml" target="_top" xlink:title=" ">
<polygon fill="none" stroke="black" points="61.4132,-123.5 61.4132,-153.5 168.413,-153.5 168.413,-123.5 61.4132,-123.5"/>
<text text-anchor="start" x="69.4132" y="-141.5" font-family="Helvetica,sans-Serif" font-size="10.00">include/utils/memory</text>
<text text-anchor="middle" x="114.913" y="-130.5" font-family="Helvetica,sans-Serif" font-size="10.00">_areas/thread.h</text>
</a>
</g>
</g>
<!-- Node4&#45;&gt;Node5 -->
<g id="edge5" class="edge"><title>Node4&#45;&gt;Node5</title>
<path fill="none" stroke="midnightblue" d="M88.8413,-181.867C94.6305,-172.459 101.17,-161.833 106.251,-153.577"/>
<polygon fill="midnightblue" stroke="midnightblue" points="85.8528,-180.045 83.5926,-190.396 91.8144,-183.714 85.8528,-180.045"/>
</g>
<!-- Node5&#45;&gt;Node3 -->
<g id="edge8" class="edge"><title>Node5&#45;&gt;Node3</title>
<path fill="none" stroke="midnightblue" d="M105.207,-113.888C93.5079,-85.4274 74.4348,-39.0286 66.5259,-19.7885"/>
<polygon fill="midnightblue" stroke="midnightblue" points="102.11,-115.561 109.15,-123.479 108.585,-112.899 102.11,-115.561"/>
</g>
<!-- Node6 -->
<g id="node6" class="node"><title>Node6</title>
<g id="a_node6"><a xlink:href="../../da/ddb/heap_8h.xhtml" target="_top" xlink:title=" ">
<polygon fill="none" stroke="black" points="132.413,-56.5 132.413,-86.5 239.413,-86.5 239.413,-56.5 132.413,-56.5"/>
<text text-anchor="start" x="140.413" y="-74.5" font-family="Helvetica,sans-Serif" font-size="10.00">include/utils/memory</text>
<text text-anchor="middle" x="185.913" y="-63.5" font-family="Helvetica,sans-Serif" font-size="10.00">_areas/heap.h</text>
</a>
</g>
</g>
<!-- Node5&#45;&gt;Node6 -->
<g id="edge6" class="edge"><title>Node5&#45;&gt;Node6</title>
<path fill="none" stroke="midnightblue" d="M137.745,-116.598C148.466,-106.783 160.96,-95.3442 170.537,-86.5765"/>
<polygon fill="midnightblue" stroke="midnightblue" points="135.332,-114.062 130.319,-123.396 140.058,-119.225 135.332,-114.062"/>
</g>
<!-- Node6&#45;&gt;Node3 -->
<g id="edge7" class="edge"><title>Node6&#45;&gt;Node3</title>
<path fill="none" stroke="midnightblue" d="M147.545,-51.9399C125.26,-41.1595 98.2304,-28.0843 80.8108,-19.6578"/>
<polygon fill="midnightblue" stroke="midnightblue" points="146.238,-55.1953 156.764,-56.3993 149.286,-48.8939 146.238,-55.1953"/>
</g>
<!-- Node7&#45;&gt;Node8 -->
<g id="edge10" class="edge"><title>Node7&#45;&gt;Node8</title>
<path fill="none" stroke="midnightblue" d="M251.93,-304.855C259.03,-295.505 267.517,-284.327 273.269,-276.751"/>
<polygon fill="midnightblue" stroke="midnightblue" points="248.943,-303.002 245.684,-313.083 254.518,-307.235 248.943,-303.002"/>
</g>
<!-- Node7&#45;&gt;Node10 -->
<g id="edge16" class="edge"><title>Node7&#45;&gt;Node10</title>
<path fill="none" stroke="midnightblue" d="M229.725,-304.312C225.728,-296.147 221.214,-286.235 217.913,-277 210.175,-255.351 204.342,-228.851 201.616,-215.34"/>
<polygon fill="midnightblue" stroke="midnightblue" points="226.6,-305.888 234.227,-313.242 232.85,-302.737 226.6,-305.888"/>
</g>
<!-- Node8&#45;&gt;Node9 -->
<g id="edge11" class="edge"><title>Node8&#45;&gt;Node9</title>
<path fill="none" stroke="midnightblue" d="M280.064,-246.935C280.284,-219.124 280.684,-168.537 280.844,-148.256"/>
<polygon fill="midnightblue" stroke="midnightblue" points="276.561,-247.278 279.982,-257.305 283.561,-247.333 276.561,-247.278"/>
</g>
<!-- Node8&#45;&gt;Node10 -->
<g id="edge13" class="edge"><title>Node8&#45;&gt;Node10</title>
<path fill="none" stroke="midnightblue" d="M260.14,-251.294C244.794,-239.88 224.058,-224.458 211.354,-215.009"/>
<polygon fill="midnightblue" stroke="midnightblue" points="258.338,-254.316 268.451,-257.475 262.516,-248.699 258.338,-254.316"/>
</g>
<!-- Node9&#45;&gt;Node6 -->
<g id="edge12" class="edge"><title>Node9&#45;&gt;Node6</title>
<path fill="none" stroke="midnightblue" d="M259.501,-122.849C243.644,-112 222.163,-97.3028 206.505,-86.589"/>
<polygon fill="midnightblue" stroke="midnightblue" points="257.872,-125.976 268.101,-128.734 261.824,-120.198 257.872,-125.976"/>
</g>
<!-- Node10&#45;&gt;Node6 -->
<g id="edge14" class="edge"><title>Node10&#45;&gt;Node6</title>
<path fill="none" stroke="midnightblue" d="M197.939,-185.889C195.113,-159.244 189.975,-110.798 187.428,-86.7832"/>
<polygon fill="midnightblue" stroke="midnightblue" points="194.459,-186.264 198.995,-195.839 201.42,-185.526 194.459,-186.264"/>
</g>
<!-- Node10&#45;&gt;Node9 -->
<g id="edge15" class="edge"><title>Node10&#45;&gt;Node9</title>
<path fill="none" stroke="midnightblue" d="M218.963,-189.213C234.921,-176.407 257.126,-158.588 270.162,-148.127"/>
<polygon fill="midnightblue" stroke="midnightblue" points="216.446,-186.745 210.837,-195.734 220.827,-192.205 216.446,-186.745"/>
</g>
</g>
</svg>
