<?xml version="1.0" encoding="UTF-8" standalone="no"?>
<!DOCTYPE svg PUBLIC "-//W3C//DTD SVG 1.1//EN"
 "http://www.w3.org/Graphics/SVG/1.1/DTD/svg11.dtd">
<!-- Generated by graphviz version 2.38.0 (20140413.2041)
 -->
<!-- Title: include/utils/object.h Pages: 1 -->
<svg width="478pt" height="252pt"
 viewBox="0.00 0.00 477.50 252.00" xmlns="http://www.w3.org/2000/svg" xmlns:xlink="http://www.w3.org/1999/xlink">
<g id="graph0" class="graph" transform="scale(1 1) rotate(0) translate(4 248)">
<title>include/utils/object.h</title>
<!-- Node1 -->
<g id="node1" class="node"><title>Node1</title>
<g id="a_node1"><a xlink:title=" ">
<polygon fill="#bfbfbf" stroke="black" points="109.5,-224.5 109.5,-243.5 215.5,-243.5 215.5,-224.5 109.5,-224.5"/>
<text text-anchor="middle" x="162.5" y="-231.5" font-family="Helvetica,sans-Serif" font-size="10.00">include/utils/object.h</text>
</a>
</g>
</g>
<!-- Node2 -->
<g id="node2" class="node"><title>Node2</title>
<g id="a_node2"><a xlink:title=" ">
<polygon fill="none" stroke="#bfbfbf" points="21.5,-168.5 21.5,-187.5 73.5,-187.5 73.5,-168.5 21.5,-168.5"/>
<text text-anchor="middle" x="47.5" y="-175.5" font-family="Helvetica,sans-Serif" font-size="10.00">ostream</text>
</a>
</g>
</g>
<!-- Node1&#45;&gt;Node2 -->
<g id="edge1" class="edge"><title>Node1&#45;&gt;Node2</title>
<path fill="none" stroke="midnightblue" d="M144.278,-224.444C125.604,-215.675 96.344,-201.935 74.8826,-191.858"/>
<polygon fill="midnightblue" stroke="midnightblue" points="76.1763,-188.599 65.6368,-187.516 73.2009,-194.935 76.1763,-188.599"/>
</g>
<!-- Node3 -->
<g id="node3" class="node"><title>Node3</title>
<g id="a_node3"><a xlink:href="../../d4/df7/array__t_8h.xhtml" target="_top" xlink:title=" ">
<polygon fill="none" stroke="black" points="91.5,-168.5 91.5,-187.5 167.5,-187.5 167.5,-168.5 91.5,-168.5"/>
<text text-anchor="middle" x="129.5" y="-175.5" font-family="Helvetica,sans-Serif" font-size="10.00">utils/array_t.h</text>
</a>
</g>
</g>
<!-- Node1&#45;&gt;Node3 -->
<g id="edge2" class="edge"><title>Node1&#45;&gt;Node3</title>
<path fill="none" stroke="midnightblue" d="M157.051,-224.083C152.486,-216.613 145.832,-205.724 140.207,-196.52"/>
<polygon fill="midnightblue" stroke="midnightblue" points="143.049,-194.459 134.848,-187.751 137.076,-198.109 143.049,-194.459"/>
</g>
<!-- Node6 -->
<g id="node6" class="node"><title>Node6</title>
<g id="a_node6"><a xlink:href="../../df/d8d/any_8h.xhtml" target="_top" xlink:title=" ">
<polygon fill="none" stroke="black" points="247,-112.5 247,-131.5 346,-131.5 346,-112.5 247,-112.5"/>
<text text-anchor="middle" x="296.5" y="-119.5" font-family="Helvetica,sans-Serif" font-size="10.00">utils/external/any.h</text>
</a>
</g>
</g>
<!-- Node1&#45;&gt;Node6 -->
<g id="edge15" class="edge"><title>Node1&#45;&gt;Node6</title>
<path fill="none" stroke="midnightblue" d="M173.015,-224.368C195.716,-205.733 249.561,-161.532 278.064,-138.134"/>
<polygon fill="midnightblue" stroke="midnightblue" points="280.526,-140.642 286.034,-131.591 276.084,-135.231 280.526,-140.642"/>
</g>
<!-- Node12 -->
<g id="node12" class="node"><title>Node12</title>
<g id="a_node12"><a xlink:href="../../d3/d47/reference__kind_8h.xhtml" target="_top" xlink:title=" ">
<polygon fill="none" stroke="black" points="120,-112.5 120,-131.5 229,-131.5 229,-112.5 120,-112.5"/>
<text text-anchor="middle" x="174.5" y="-119.5" font-family="Helvetica,sans-Serif" font-size="10.00">utils/reference_kind.h</text>
</a>
</g>
</g>
<!-- Node1&#45;&gt;Node12 -->
<g id="edge16" class="edge"><title>Node1&#45;&gt;Node12</title>
<path fill="none" stroke="midnightblue" d="M166.1,-224.222C169.556,-215.285 174.533,-200.942 176.5,-188 178.835,-172.633 178.08,-154.996 176.884,-141.974"/>
<polygon fill="midnightblue" stroke="midnightblue" points="180.348,-141.454 175.785,-131.892 173.389,-142.213 180.348,-141.454"/>
</g>
<!-- Node4 -->
<g id="node4" class="node"><title>Node4</title>
<g id="a_node4"><a xlink:title=" ">
<polygon fill="none" stroke="#bfbfbf" points="0,-112.5 0,-131.5 41,-131.5 41,-112.5 0,-112.5"/>
<text text-anchor="middle" x="20.5" y="-119.5" font-family="Helvetica,sans-Serif" font-size="10.00">stack</text>
</a>
</g>
</g>
<!-- Node3&#45;&gt;Node4 -->
<g id="edge3" class="edge"><title>Node3&#45;&gt;Node4</title>
<path fill="none" stroke="midnightblue" d="M111.987,-168.324C94.4276,-159.625 67.1686,-146.12 46.9688,-136.113"/>
<polygon fill="midnightblue" stroke="midnightblue" points="48.4837,-132.958 37.9693,-131.655 45.3762,-139.23 48.4837,-132.958"/>
</g>
<!-- Node5 -->
<g id="node5" class="node"><title>Node5</title>
<g id="a_node5"><a xlink:title=" ">
<polygon fill="none" stroke="#bfbfbf" points="59.5,-112.5 59.5,-131.5 101.5,-131.5 101.5,-112.5 59.5,-112.5"/>
<text text-anchor="middle" x="80.5" y="-119.5" font-family="Helvetica,sans-Serif" font-size="10.00">vector</text>
</a>
</g>
</g>
<!-- Node3&#45;&gt;Node5 -->
<g id="edge4" class="edge"><title>Node3&#45;&gt;Node5</title>
<path fill="none" stroke="midnightblue" d="M121.409,-168.083C114.345,-160.298 103.912,-148.801 95.3511,-139.367"/>
<polygon fill="midnightblue" stroke="midnightblue" points="97.7527,-136.805 88.4408,-131.751 92.5688,-141.509 97.7527,-136.805"/>
</g>
<!-- Node3&#45;&gt;Node6 -->
<g id="edge5" class="edge"><title>Node3&#45;&gt;Node6</title>
<path fill="none" stroke="midnightblue" d="M155.962,-168.444C184.178,-159.32 229.04,-144.813 260.468,-134.651"/>
<polygon fill="midnightblue" stroke="midnightblue" points="261.724,-137.923 270.162,-131.516 259.57,-131.263 261.724,-137.923"/>
</g>
<!-- Node3&#45;&gt;Node12 -->
<g id="edge11" class="edge"><title>Node3&#45;&gt;Node12</title>
<path fill="none" stroke="midnightblue" d="M136.931,-168.083C143.353,-160.377 152.806,-149.033 160.622,-139.653"/>
<polygon fill="midnightblue" stroke="midnightblue" points="163.494,-141.674 167.207,-131.751 158.117,-137.193 163.494,-141.674"/>
</g>
<!-- Node7 -->
<g id="node7" class="node"><title>Node7</title>
<g id="a_node7"><a xlink:title=" ">
<polygon fill="none" stroke="#bfbfbf" points="340,-56.5 340,-75.5 389,-75.5 389,-56.5 340,-56.5"/>
<text text-anchor="middle" x="364.5" y="-63.5" font-family="Helvetica,sans-Serif" font-size="10.00">cassert</text>
</a>
</g>
</g>
<!-- Node6&#45;&gt;Node7 -->
<g id="edge6" class="edge"><title>Node6&#45;&gt;Node7</title>
<path fill="none" stroke="midnightblue" d="M307.425,-112.324C317.675,-104.185 333.221,-91.8395 345.501,-82.0874"/>
<polygon fill="midnightblue" stroke="midnightblue" points="347.721,-84.7937 353.376,-75.8339 343.368,-79.3119 347.721,-84.7937"/>
</g>
<!-- Node8 -->
<g id="node8" class="node"><title>Node8</title>
<g id="a_node8"><a xlink:title=" ">
<polygon fill="none" stroke="#bfbfbf" points="154,-56.5 154,-75.5 195,-75.5 195,-56.5 154,-56.5"/>
<text text-anchor="middle" x="174.5" y="-63.5" font-family="Helvetica,sans-Serif" font-size="10.00">string</text>
</a>
</g>
</g>
<!-- Node6&#45;&gt;Node8 -->
<g id="edge7" class="edge"><title>Node6&#45;&gt;Node8</title>
<path fill="none" stroke="midnightblue" d="M277.169,-112.444C257.18,-103.596 225.757,-89.6875 202.936,-79.5865"/>
<polygon fill="midnightblue" stroke="midnightblue" points="204.302,-76.3635 193.741,-75.5164 201.468,-82.7645 204.302,-76.3635"/>
</g>
<!-- Node9 -->
<g id="node9" class="node"><title>Node9</title>
<g id="a_node9"><a xlink:title=" ">
<polygon fill="none" stroke="#bfbfbf" points="407.5,-56.5 407.5,-75.5 469.5,-75.5 469.5,-56.5 407.5,-56.5"/>
<text text-anchor="middle" x="438.5" y="-63.5" font-family="Helvetica,sans-Serif" font-size="10.00">type_traits</text>
</a>
</g>
</g>
<!-- Node6&#45;&gt;Node9 -->
<g id="edge8" class="edge"><title>Node6&#45;&gt;Node9</title>
<path fill="none" stroke="midnightblue" d="M319,-112.444C342.577,-103.478 379.822,-89.314 406.464,-79.1827"/>
<polygon fill="midnightblue" stroke="midnightblue" points="408.002,-82.3424 416.105,-75.5164 405.514,-75.7995 408.002,-82.3424"/>
</g>
<!-- Node10 -->
<g id="node10" class="node"><title>Node10</title>
<g id="a_node10"><a xlink:title=" ">
<polygon fill="none" stroke="#bfbfbf" points="213.5,-56.5 213.5,-75.5 263.5,-75.5 263.5,-56.5 213.5,-56.5"/>
<text text-anchor="middle" x="238.5" y="-63.5" font-family="Helvetica,sans-Serif" font-size="10.00">typeinfo</text>
</a>
</g>
</g>
<!-- Node6&#45;&gt;Node10 -->
<g id="edge9" class="edge"><title>Node6&#45;&gt;Node10</title>
<path fill="none" stroke="midnightblue" d="M287.181,-112.324C278.607,-104.341 265.688,-92.3128 255.312,-82.6529"/>
<polygon fill="midnightblue" stroke="midnightblue" points="257.692,-80.0865 247.988,-75.8339 252.922,-85.2098 257.692,-80.0865"/>
</g>
<!-- Node11 -->
<g id="node11" class="node"><title>Node11</title>
<g id="a_node11"><a xlink:title=" ">
<polygon fill="none" stroke="#bfbfbf" points="281.5,-56.5 281.5,-75.5 321.5,-75.5 321.5,-56.5 281.5,-56.5"/>
<text text-anchor="middle" x="301.5" y="-63.5" font-family="Helvetica,sans-Serif" font-size="10.00">utility</text>
</a>
</g>
</g>
<!-- Node6&#45;&gt;Node11 -->
<g id="edge10" class="edge"><title>Node6&#45;&gt;Node11</title>
<path fill="none" stroke="midnightblue" d="M297.326,-112.083C297.981,-105.006 298.92,-94.8611 299.742,-85.9865"/>
<polygon fill="midnightblue" stroke="midnightblue" points="303.253,-86.0312 300.69,-75.7511 296.283,-85.3858 303.253,-86.0312"/>
</g>
<!-- Node12&#45;&gt;Node8 -->
<g id="edge12" class="edge"><title>Node12&#45;&gt;Node8</title>
<path fill="none" stroke="midnightblue" d="M174.5,-112.083C174.5,-105.006 174.5,-94.8611 174.5,-85.9865"/>
<polygon fill="midnightblue" stroke="midnightblue" points="178,-85.751 174.5,-75.7511 171,-85.7511 178,-85.751"/>
</g>
<!-- Node13 -->
<g id="node13" class="node"><title>Node13</title>
<g id="a_node13"><a xlink:href="../../d9/d49/types_8h.xhtml" target="_top" xlink:title=" ">
<polygon fill="none" stroke="black" points="65.5,-56.5 65.5,-75.5 135.5,-75.5 135.5,-56.5 65.5,-56.5"/>
<text text-anchor="middle" x="100.5" y="-63.5" font-family="Helvetica,sans-Serif" font-size="10.00">utils/types.h</text>
</a>
</g>
</g>
<!-- Node12&#45;&gt;Node13 -->
<g id="edge13" class="edge"><title>Node12&#45;&gt;Node13</title>
<path fill="none" stroke="midnightblue" d="M162.611,-112.324C151.35,-104.107 134.213,-91.6017 120.791,-81.8069"/>
<polygon fill="midnightblue" stroke="midnightblue" points="122.747,-78.9014 112.606,-75.8339 118.62,-84.5559 122.747,-78.9014"/>
</g>
<!-- Node14 -->
<g id="node14" class="node"><title>Node14</title>
<g id="a_node14"><a xlink:title=" ">
<polygon fill="none" stroke="#bfbfbf" points="77.5,-0.5 77.5,-19.5 123.5,-19.5 123.5,-0.5 77.5,-0.5"/>
<text text-anchor="middle" x="100.5" y="-7.5" font-family="Helvetica,sans-Serif" font-size="10.00">cstdint</text>
</a>
</g>
</g>
<!-- Node13&#45;&gt;Node14 -->
<g id="edge14" class="edge"><title>Node13&#45;&gt;Node14</title>
<path fill="none" stroke="midnightblue" d="M100.5,-56.083C100.5,-49.0059 100.5,-38.8611 100.5,-29.9865"/>
<polygon fill="midnightblue" stroke="midnightblue" points="104,-29.751 100.5,-19.7511 97.0001,-29.7511 104,-29.751"/>
</g>
</g>
</svg>
