<?xml version="1.0" encoding="UTF-8" standalone="no"?>
<!DOCTYPE svg PUBLIC "-//W3C//DTD SVG 1.1//EN"
 "http://www.w3.org/Graphics/SVG/1.1/DTD/svg11.dtd">
<!-- Generated by graphviz version 2.38.0 (20140413.2041)
 -->
<!-- Title: include/utils/helper_functions.h Pages: 1 -->
<svg width="1966pt" height="330pt"
 viewBox="0.00 0.00 1965.50 330.00" xmlns="http://www.w3.org/2000/svg" xmlns:xlink="http://www.w3.org/1999/xlink">
<g id="graph0" class="graph" transform="scale(1 1) rotate(0) translate(4 326)">
<title>include/utils/helper_functions.h</title>
<!-- Node1 -->
<g id="node1" class="node"><title>Node1</title>
<g id="a_node1"><a xlink:title=" ">
<polygon fill="#bfbfbf" stroke="black" points="54.5,-291.5 54.5,-321.5 152.5,-321.5 152.5,-291.5 54.5,-291.5"/>
<text text-anchor="start" x="62.5" y="-309.5" font-family="Helvetica,sans-Serif" font-size="10.00">include/utils/helper</text>
<text text-anchor="middle" x="103.5" y="-298.5" font-family="Helvetica,sans-Serif" font-size="10.00">_functions.h</text>
</a>
</g>
</g>
<!-- Node2 -->
<g id="node2" class="node"><title>Node2</title>
<g id="a_node2"><a xlink:title=" ">
<polygon fill="none" stroke="#bfbfbf" points="0,-56.5 0,-75.5 41,-75.5 41,-56.5 0,-56.5"/>
<text text-anchor="middle" x="20.5" y="-63.5" font-family="Helvetica,sans-Serif" font-size="10.00">string</text>
</a>
</g>
</g>
<!-- Node1&#45;&gt;Node2 -->
<g id="edge1" class="edge"><title>Node1&#45;&gt;Node2</title>
<path fill="none" stroke="midnightblue" d="M93.8464,-291.261C80.7085,-271.358 57.16,-233.749 42.5,-199 32.4384,-175.151 31.097,-168.473 26.5,-143 23.016,-123.694 21.5551,-101.267 20.9424,-85.805"/>
<polygon fill="midnightblue" stroke="midnightblue" points="24.4313,-85.3909 20.6198,-75.5054 17.4347,-85.6101 24.4313,-85.3909"/>
</g>
<!-- Node3 -->
<g id="node3" class="node"><title>Node3</title>
<g id="a_node3"><a xlink:href="../../d4/db4/classfile_8h.xhtml" target="_top" xlink:title=" ">
<polygon fill="none" stroke="black" points="227.5,-235.5 227.5,-254.5 287.5,-254.5 287.5,-235.5 227.5,-235.5"/>
<text text-anchor="middle" x="257.5" y="-242.5" font-family="Helvetica,sans-Serif" font-size="10.00">classfile.h</text>
</a>
</g>
</g>
<!-- Node1&#45;&gt;Node3 -->
<g id="edge2" class="edge"><title>Node1&#45;&gt;Node3</title>
<path fill="none" stroke="midnightblue" d="M139.996,-291.399C166.065,-281.327 200.794,-267.909 225.724,-258.277"/>
<polygon fill="midnightblue" stroke="midnightblue" points="227.025,-261.527 235.092,-254.658 224.502,-254.997 227.025,-261.527"/>
</g>
<!-- Node5 -->
<g id="node5" class="node"><title>Node5</title>
<g id="a_node5"><a xlink:href="../../d0/d36/constant_pool_8h.xhtml" target="_top" xlink:title=" ">
<polygon fill="none" stroke="black" points="52,-179.5 52,-198.5 155,-198.5 155,-179.5 52,-179.5"/>
<text text-anchor="middle" x="103.5" y="-186.5" font-family="Helvetica,sans-Serif" font-size="10.00">utils/constantPool.h</text>
</a>
</g>
</g>
<!-- Node1&#45;&gt;Node5 -->
<g id="edge47" class="edge"><title>Node1&#45;&gt;Node5</title>
<path fill="none" stroke="midnightblue" d="M103.5,-291.337C103.5,-270.622 103.5,-232.016 103.5,-208.899"/>
<polygon fill="midnightblue" stroke="midnightblue" points="107,-208.669 103.5,-198.669 100,-208.669 107,-208.669"/>
</g>
<!-- Node4 -->
<g id="node4" class="node"><title>Node4</title>
<g id="a_node4"><a xlink:title=" ">
<polygon fill="none" stroke="#bfbfbf" points="173.5,-56.5 173.5,-75.5 215.5,-75.5 215.5,-56.5 173.5,-56.5"/>
<text text-anchor="middle" x="194.5" y="-63.5" font-family="Helvetica,sans-Serif" font-size="10.00">vector</text>
</a>
</g>
</g>
<!-- Node3&#45;&gt;Node4 -->
<g id="edge3" class="edge"><title>Node3&#45;&gt;Node4</title>
<path fill="none" stroke="midnightblue" d="M270.564,-235.436C281.414,-227.471 296.073,-214.515 302.5,-199 317.297,-163.277 323.948,-144.173 302.5,-112 297.919,-105.129 255.579,-88.8294 225.299,-77.8522"/>
<polygon fill="midnightblue" stroke="midnightblue" points="226.159,-74.4421 215.565,-74.3548 223.792,-81.0299 226.159,-74.4421"/>
</g>
<!-- Node3&#45;&gt;Node5 -->
<g id="edge4" class="edge"><title>Node3&#45;&gt;Node5</title>
<path fill="none" stroke="midnightblue" d="M233.098,-235.444C207.303,-226.399 166.423,-212.064 137.482,-201.916"/>
<polygon fill="midnightblue" stroke="midnightblue" points="138.382,-198.523 127.788,-198.516 136.066,-205.128 138.382,-198.523"/>
</g>
<!-- Node7 -->
<g id="node7" class="node"><title>Node7</title>
<g id="a_node7"><a xlink:href="../../d9/d49/types_8h.xhtml" target="_top" xlink:title=" ">
<polygon fill="none" stroke="black" points="85.5,-56.5 85.5,-75.5 155.5,-75.5 155.5,-56.5 85.5,-56.5"/>
<text text-anchor="middle" x="120.5" y="-63.5" font-family="Helvetica,sans-Serif" font-size="10.00">utils/types.h</text>
</a>
</g>
</g>
<!-- Node3&#45;&gt;Node7 -->
<g id="edge46" class="edge"><title>Node3&#45;&gt;Node7</title>
<path fill="none" stroke="midnightblue" d="M259.923,-235.111C262.969,-222.128 266.86,-197.515 258.5,-179 236.888,-131.136 183.015,-97.4107 149.331,-80.1803"/>
<polygon fill="midnightblue" stroke="midnightblue" points="150.512,-76.8595 139.997,-75.5622 147.408,-83.1337 150.512,-76.8595"/>
</g>
<!-- Node9 -->
<g id="node9" class="node"><title>Node9</title>
<g id="a_node9"><a xlink:href="../../d3/dd1/nlohmann__json_8hpp.xhtml" target="_top" xlink:title=" ">
<polygon fill="none" stroke="black" points="946,-112.5 946,-142.5 1063,-142.5 1063,-112.5 946,-112.5"/>
<text text-anchor="start" x="954" y="-130.5" font-family="Helvetica,sans-Serif" font-size="10.00">utils/external/nlohmann</text>
<text text-anchor="middle" x="1004.5" y="-119.5" font-family="Helvetica,sans-Serif" font-size="10.00">_json.hpp</text>
</a>
</g>
</g>
<!-- Node3&#45;&gt;Node9 -->
<g id="edge13" class="edge"><title>Node3&#45;&gt;Node9</title>
<path fill="none" stroke="midnightblue" d="M287.708,-239.329C397.682,-222.325 778.444,-163.452 935.716,-139.135"/>
<polygon fill="midnightblue" stroke="midnightblue" points="936.399,-142.571 945.747,-137.584 935.329,-135.654 936.399,-142.571"/>
</g>
<!-- Node35 -->
<g id="node35" class="node"><title>Node35</title>
<g id="a_node35"><a xlink:href="../../d9/d70/infos_8h.xhtml" target="_top" xlink:title=" ">
<polygon fill="none" stroke="black" points="183.5,-179.5 183.5,-198.5 249.5,-198.5 249.5,-179.5 183.5,-179.5"/>
<text text-anchor="middle" x="216.5" y="-186.5" font-family="Helvetica,sans-Serif" font-size="10.00">utils/infos.h</text>
</a>
</g>
</g>
<!-- Node3&#45;&gt;Node35 -->
<g id="edge42" class="edge"><title>Node3&#45;&gt;Node35</title>
<path fill="none" stroke="midnightblue" d="M250.73,-235.083C244.938,-227.455 236.442,-216.264 229.362,-206.941"/>
<polygon fill="midnightblue" stroke="midnightblue" points="231.979,-204.599 223.144,-198.751 226.404,-208.832 231.979,-204.599"/>
</g>
<!-- Node5&#45;&gt;Node2 -->
<g id="edge5" class="edge"><title>Node5&#45;&gt;Node2</title>
<path fill="none" stroke="midnightblue" d="M86.9179,-179.474C73.3728,-171.701 54.6981,-159.002 43.5,-143 31.4269,-125.748 25.5728,-102.025 22.8144,-85.6966"/>
<polygon fill="midnightblue" stroke="midnightblue" points="26.2693,-85.1329 21.3611,-75.7436 19.3428,-86.1444 26.2693,-85.1329"/>
</g>
<!-- Node5&#45;&gt;Node4 -->
<g id="edge6" class="edge"><title>Node5&#45;&gt;Node4</title>
<path fill="none" stroke="midnightblue" d="M115.839,-179.47C127.203,-171.153 143.996,-157.647 155.5,-143 169.627,-125.013 180.887,-101.117 187.607,-84.9582"/>
<polygon fill="midnightblue" stroke="midnightblue" points="190.887,-86.1816 191.352,-75.597 184.388,-83.5814 190.887,-86.1816"/>
</g>
<!-- Node6 -->
<g id="node6" class="node"><title>Node6</title>
<g id="a_node6"><a xlink:href="../../da/d6e/attributes_8h.xhtml" target="_top" xlink:title=" ">
<polygon fill="none" stroke="black" points="60.5,-118 60.5,-137 146.5,-137 146.5,-118 60.5,-118"/>
<text text-anchor="middle" x="103.5" y="-125" font-family="Helvetica,sans-Serif" font-size="10.00">utils/attributes.h</text>
</a>
</g>
</g>
<!-- Node5&#45;&gt;Node6 -->
<g id="edge7" class="edge"><title>Node5&#45;&gt;Node6</title>
<path fill="none" stroke="midnightblue" d="M103.5,-179.475C103.5,-171.08 103.5,-157.981 103.5,-147.163"/>
<polygon fill="midnightblue" stroke="midnightblue" points="107,-147.009 103.5,-137.009 100,-147.009 107,-147.009"/>
</g>
<!-- Node5&#45;&gt;Node7 -->
<g id="edge12" class="edge"><title>Node5&#45;&gt;Node7</title>
<path fill="none" stroke="midnightblue" d="M87.7167,-179.467C75.2973,-171.769 58.8949,-159.179 51.5,-143 45.7725,-130.469 44.9376,-124.115 51.5,-112 59.2486,-97.6958 73.7342,-87.2188 87.44,-79.992"/>
<polygon fill="midnightblue" stroke="midnightblue" points="89.2376,-83.0103 96.7116,-75.501 86.186,-76.7104 89.2376,-83.0103"/>
</g>
<!-- Node6&#45;&gt;Node2 -->
<g id="edge8" class="edge"><title>Node6&#45;&gt;Node2</title>
<path fill="none" stroke="midnightblue" d="M91.6081,-117.975C78.2952,-108.431 56.5001,-92.8073 40.5432,-81.3683"/>
<polygon fill="midnightblue" stroke="midnightblue" points="42.5364,-78.4908 32.3698,-75.5091 38.458,-84.18 42.5364,-78.4908"/>
</g>
<!-- Node6&#45;&gt;Node4 -->
<g id="edge9" class="edge"><title>Node6&#45;&gt;Node4</title>
<path fill="none" stroke="midnightblue" d="M116.538,-117.975C131.269,-108.343 155.473,-92.5175 173.009,-81.0517"/>
<polygon fill="midnightblue" stroke="midnightblue" points="175.032,-83.911 181.486,-75.5091 171.201,-78.0522 175.032,-83.911"/>
</g>
<!-- Node6&#45;&gt;Node7 -->
<g id="edge10" class="edge"><title>Node6&#45;&gt;Node7</title>
<path fill="none" stroke="midnightblue" d="M105.936,-117.975C108.359,-109.492 112.156,-96.2043 115.265,-85.3222"/>
<polygon fill="midnightblue" stroke="midnightblue" points="118.687,-86.0859 118.069,-75.5091 111.956,-84.1628 118.687,-86.0859"/>
</g>
<!-- Node8 -->
<g id="node8" class="node"><title>Node8</title>
<g id="a_node8"><a xlink:title=" ">
<polygon fill="none" stroke="#bfbfbf" points="158.5,-0.5 158.5,-19.5 204.5,-19.5 204.5,-0.5 158.5,-0.5"/>
<text text-anchor="middle" x="181.5" y="-7.5" font-family="Helvetica,sans-Serif" font-size="10.00">cstdint</text>
</a>
</g>
</g>
<!-- Node7&#45;&gt;Node8 -->
<g id="edge11" class="edge"><title>Node7&#45;&gt;Node8</title>
<path fill="none" stroke="midnightblue" d="M130.301,-56.324C139.318,-48.3414 152.906,-36.3128 163.818,-26.6529"/>
<polygon fill="midnightblue" stroke="midnightblue" points="166.353,-29.083 171.521,-19.8339 161.713,-23.8416 166.353,-29.083"/>
</g>
<!-- Node9&#45;&gt;Node2 -->
<g id="edge37" class="edge"><title>Node9&#45;&gt;Node2</title>
<path fill="none" stroke="midnightblue" d="M945.968,-125.447C799.229,-122.343 403.976,-111.127 76.5,-76 68.239,-75.1139 59.3402,-73.8342 51.1215,-72.5166"/>
<polygon fill="midnightblue" stroke="midnightblue" points="51.6141,-69.0505 41.174,-70.8543 50.4603,-75.9548 51.6141,-69.0505"/>
</g>
<!-- Node9&#45;&gt;Node4 -->
<g id="edge40" class="edge"><title>Node9&#45;&gt;Node4</title>
<path fill="none" stroke="midnightblue" d="M945.753,-126.398C815.795,-125.36 494.461,-118.319 229.5,-76 228.245,-75.7996 226.97,-75.5746 225.686,-75.3302"/>
<polygon fill="midnightblue" stroke="midnightblue" points="226.357,-71.8942 215.838,-73.1605 224.851,-78.7303 226.357,-71.8942"/>
</g>
<!-- Node9&#45;&gt;Node8 -->
<g id="edge21" class="edge"><title>Node9&#45;&gt;Node8</title>
<path fill="none" stroke="midnightblue" d="M945.933,-127.002C793.323,-127.603 386.691,-124.469 262.5,-76 235.61,-65.5052 210.674,-42.7162 195.765,-27.1141"/>
<polygon fill="midnightblue" stroke="midnightblue" points="198.283,-24.6817 188.925,-19.7135 193.142,-29.4329 198.283,-24.6817"/>
</g>
<!-- Node10 -->
<g id="node10" class="node"><title>Node10</title>
<g id="a_node10"><a xlink:title=" ">
<polygon fill="none" stroke="#bfbfbf" points="1845.5,-56.5 1845.5,-75.5 1901.5,-75.5 1901.5,-56.5 1845.5,-56.5"/>
<text text-anchor="middle" x="1873.5" y="-63.5" font-family="Helvetica,sans-Serif" font-size="10.00">algorithm</text>
</a>
</g>
</g>
<!-- Node9&#45;&gt;Node10 -->
<g id="edge14" class="edge"><title>Node9&#45;&gt;Node10</title>
<path fill="none" stroke="midnightblue" d="M1063.13,-126.514C1198.04,-125.778 1540.89,-119.526 1835.31,-75.9027"/>
<polygon fill="midnightblue" stroke="midnightblue" points="1835.95,-79.3456 1845.32,-74.4017 1834.91,-72.4229 1835.95,-79.3456"/>
</g>
<!-- Node11 -->
<g id="node11" class="node"><title>Node11</title>
<g id="a_node11"><a xlink:title=" ">
<polygon fill="none" stroke="#bfbfbf" points="1919.5,-56.5 1919.5,-75.5 1957.5,-75.5 1957.5,-56.5 1919.5,-56.5"/>
<text text-anchor="middle" x="1938.5" y="-63.5" font-family="Helvetica,sans-Serif" font-size="10.00">array</text>
</a>
</g>
</g>
<!-- Node9&#45;&gt;Node11 -->
<g id="edge15" class="edge"><title>Node9&#45;&gt;Node11</title>
<path fill="none" stroke="midnightblue" d="M1063.18,-125.184C1233.74,-121.055 1728.18,-106.859 1909.45,-75.6432"/>
<polygon fill="midnightblue" stroke="midnightblue" points="1910.16,-79.0702 1919.39,-73.8544 1908.92,-72.1808 1910.16,-79.0702"/>
</g>
<!-- Node12 -->
<g id="node12" class="node"><title>Node12</title>
<g id="a_node12"><a xlink:title=" ">
<polygon fill="none" stroke="#bfbfbf" points="272,-56.5 272,-75.5 321,-75.5 321,-56.5 272,-56.5"/>
<text text-anchor="middle" x="296.5" y="-63.5" font-family="Helvetica,sans-Serif" font-size="10.00">cassert</text>
</a>
</g>
</g>
<!-- Node9&#45;&gt;Node12 -->
<g id="edge16" class="edge"><title>Node9&#45;&gt;Node12</title>
<path fill="none" stroke="midnightblue" d="M945.915,-125.726C830.062,-123.412 563.54,-114.202 331.255,-75.7928"/>
<polygon fill="midnightblue" stroke="midnightblue" points="331.708,-72.3201 321.267,-74.1196 330.551,-79.2239 331.708,-72.3201"/>
</g>
<!-- Node13 -->
<g id="node13" class="node"><title>Node13</title>
<g id="a_node13"><a xlink:title=" ">
<polygon fill="none" stroke="#bfbfbf" points="339.5,-56.5 339.5,-75.5 385.5,-75.5 385.5,-56.5 339.5,-56.5"/>
<text text-anchor="middle" x="362.5" y="-63.5" font-family="Helvetica,sans-Serif" font-size="10.00">cctype</text>
</a>
</g>
</g>
<!-- Node9&#45;&gt;Node13 -->
<g id="edge17" class="edge"><title>Node9&#45;&gt;Node13</title>
<path fill="none" stroke="midnightblue" d="M945.983,-125.375C838.517,-122.501 602.532,-112.44 395.925,-75.9249"/>
<polygon fill="midnightblue" stroke="midnightblue" points="396.259,-72.4291 385.798,-74.1095 395.024,-79.3193 396.259,-72.4291"/>
</g>
<!-- Node14 -->
<g id="node14" class="node"><title>Node14</title>
<g id="a_node14"><a xlink:title=" ">
<polygon fill="none" stroke="#bfbfbf" points="403.5,-56.5 403.5,-75.5 453.5,-75.5 453.5,-56.5 403.5,-56.5"/>
<text text-anchor="middle" x="428.5" y="-63.5" font-family="Helvetica,sans-Serif" font-size="10.00">ciso646</text>
</a>
</g>
</g>
<!-- Node9&#45;&gt;Node14 -->
<g id="edge18" class="edge"><title>Node9&#45;&gt;Node14</title>
<path fill="none" stroke="midnightblue" d="M945.923,-124.228C847.862,-119.728 644.259,-107.412 463.595,-75.9122"/>
<polygon fill="midnightblue" stroke="midnightblue" points="464.104,-72.448 453.647,-74.154 462.885,-79.3411 464.104,-72.448"/>
</g>
<!-- Node15 -->
<g id="node15" class="node"><title>Node15</title>
<g id="a_node15"><a xlink:title=" ">
<polygon fill="none" stroke="#bfbfbf" points="471.5,-56.5 471.5,-75.5 515.5,-75.5 515.5,-56.5 471.5,-56.5"/>
<text text-anchor="middle" x="493.5" y="-63.5" font-family="Helvetica,sans-Serif" font-size="10.00">cmath</text>
</a>
</g>
</g>
<!-- Node9&#45;&gt;Node15 -->
<g id="edge19" class="edge"><title>Node9&#45;&gt;Node15</title>
<path fill="none" stroke="midnightblue" d="M945.628,-123.681C856.567,-118.677 682.259,-105.995 526,-75.9711"/>
<polygon fill="midnightblue" stroke="midnightblue" points="526.22,-72.4481 515.735,-73.9683 524.879,-79.3185 526.22,-72.4481"/>
</g>
<!-- Node16 -->
<g id="node16" class="node"><title>Node16</title>
<g id="a_node16"><a xlink:title=" ">
<polygon fill="none" stroke="#bfbfbf" points="533.5,-56.5 533.5,-75.5 581.5,-75.5 581.5,-56.5 533.5,-56.5"/>
<text text-anchor="middle" x="557.5" y="-63.5" font-family="Helvetica,sans-Serif" font-size="10.00">cstddef</text>
</a>
</g>
</g>
<!-- Node9&#45;&gt;Node16 -->
<g id="edge20" class="edge"><title>Node9&#45;&gt;Node16</title>
<path fill="none" stroke="midnightblue" d="M945.971,-121.889C865.576,-114.977 716.696,-100.106 591.5,-76 591.399,-75.9805 591.297,-75.9609 591.196,-75.9412"/>
<polygon fill="midnightblue" stroke="midnightblue" points="592.073,-72.5506 581.552,-73.8031 590.557,-79.3846 592.073,-72.5506"/>
</g>
<!-- Node17 -->
<g id="node17" class="node"><title>Node17</title>
<g id="a_node17"><a xlink:title=" ">
<polygon fill="none" stroke="#bfbfbf" points="600,-56.5 600,-75.5 645,-75.5 645,-56.5 600,-56.5"/>
<text text-anchor="middle" x="622.5" y="-63.5" font-family="Helvetica,sans-Serif" font-size="10.00">cstdlib</text>
</a>
</g>
</g>
<!-- Node9&#45;&gt;Node17 -->
<g id="edge22" class="edge"><title>Node9&#45;&gt;Node17</title>
<path fill="none" stroke="midnightblue" d="M945.875,-120.416C878.137,-112.857 763.223,-98.4088 655.227,-75.8937"/>
<polygon fill="midnightblue" stroke="midnightblue" points="655.642,-72.4041 645.135,-73.7614 654.195,-79.253 655.642,-72.4041"/>
</g>
<!-- Node18 -->
<g id="node18" class="node"><title>Node18</title>
<g id="a_node18"><a xlink:title=" ">
<polygon fill="none" stroke="#bfbfbf" points="663.5,-56.5 663.5,-75.5 709.5,-75.5 709.5,-56.5 663.5,-56.5"/>
<text text-anchor="middle" x="686.5" y="-63.5" font-family="Helvetica,sans-Serif" font-size="10.00">cstring</text>
</a>
</g>
</g>
<!-- Node9&#45;&gt;Node18 -->
<g id="edge23" class="edge"><title>Node9&#45;&gt;Node18</title>
<path fill="none" stroke="midnightblue" d="M945.786,-117.695C887.945,-108.646 797.212,-93.4443 719.5,-76 719.399,-75.9772 719.297,-75.9544 719.195,-75.9314"/>
<polygon fill="midnightblue" stroke="midnightblue" points="720.057,-72.5392 709.512,-73.5628 718.394,-79.3387 720.057,-72.5392"/>
</g>
<!-- Node19 -->
<g id="node19" class="node"><title>Node19</title>
<g id="a_node19"><a xlink:title=" ">
<polygon fill="none" stroke="#bfbfbf" points="728,-56.5 728,-75.5 793,-75.5 793,-56.5 728,-56.5"/>
<text text-anchor="middle" x="760.5" y="-63.5" font-family="Helvetica,sans-Serif" font-size="10.00">forward_list</text>
</a>
</g>
</g>
<!-- Node9&#45;&gt;Node19 -->
<g id="edge24" class="edge"><title>Node9&#45;&gt;Node19</title>
<path fill="none" stroke="midnightblue" d="M946.984,-112.475C902.917,-101.729 843.097,-87.1416 803.216,-77.4165"/>
<polygon fill="midnightblue" stroke="midnightblue" points="803.823,-73.9619 793.278,-74.9931 802.164,-80.7626 803.823,-73.9619"/>
</g>
<!-- Node20 -->
<g id="node20" class="node"><title>Node20</title>
<g id="a_node20"><a xlink:title=" ">
<polygon fill="none" stroke="#bfbfbf" points="811.5,-56.5 811.5,-75.5 869.5,-75.5 869.5,-56.5 811.5,-56.5"/>
<text text-anchor="middle" x="840.5" y="-63.5" font-family="Helvetica,sans-Serif" font-size="10.00">functional</text>
</a>
</g>
</g>
<!-- Node9&#45;&gt;Node20 -->
<g id="edge25" class="edge"><title>Node9&#45;&gt;Node20</title>
<path fill="none" stroke="midnightblue" d="M965.634,-112.399C937.749,-102.283 900.561,-88.7905 873.987,-79.1493"/>
<polygon fill="midnightblue" stroke="midnightblue" points="874.958,-75.7782 864.363,-75.6578 872.57,-82.3585 874.958,-75.7782"/>
</g>
<!-- Node21 -->
<g id="node21" class="node"><title>Node21</title>
<g id="a_node21"><a xlink:title=" ">
<polygon fill="none" stroke="#bfbfbf" points="888,-56.5 888,-75.5 961,-75.5 961,-56.5 888,-56.5"/>
<text text-anchor="middle" x="924.5" y="-63.5" font-family="Helvetica,sans-Serif" font-size="10.00">initializer_list</text>
</a>
</g>
</g>
<!-- Node9&#45;&gt;Node21 -->
<g id="edge26" class="edge"><title>Node9&#45;&gt;Node21</title>
<path fill="none" stroke="midnightblue" d="M985.541,-112.399C973.077,-103.129 956.803,-91.0254 944.193,-81.6469"/>
<polygon fill="midnightblue" stroke="midnightblue" points="946.253,-78.8173 936.141,-75.6578 942.076,-84.4341 946.253,-78.8173"/>
</g>
<!-- Node22 -->
<g id="node22" class="node"><title>Node22</title>
<g id="a_node22"><a xlink:title=" ">
<polygon fill="none" stroke="#bfbfbf" points="979.5,-56.5 979.5,-75.5 1029.5,-75.5 1029.5,-56.5 979.5,-56.5"/>
<text text-anchor="middle" x="1004.5" y="-63.5" font-family="Helvetica,sans-Serif" font-size="10.00">iomanip</text>
</a>
</g>
</g>
<!-- Node9&#45;&gt;Node22 -->
<g id="edge27" class="edge"><title>Node9&#45;&gt;Node22</title>
<path fill="none" stroke="midnightblue" d="M1004.5,-112.399C1004.5,-104.466 1004.5,-94.458 1004.5,-85.8583"/>
<polygon fill="midnightblue" stroke="midnightblue" points="1008,-85.6577 1004.5,-75.6578 1001,-85.6578 1008,-85.6577"/>
</g>
<!-- Node23 -->
<g id="node23" class="node"><title>Node23</title>
<g id="a_node23"><a xlink:title=" ">
<polygon fill="none" stroke="#bfbfbf" points="1047.5,-56.5 1047.5,-75.5 1101.5,-75.5 1101.5,-56.5 1047.5,-56.5"/>
<text text-anchor="middle" x="1074.5" y="-63.5" font-family="Helvetica,sans-Serif" font-size="10.00">iostream</text>
</a>
</g>
</g>
<!-- Node9&#45;&gt;Node23 -->
<g id="edge28" class="edge"><title>Node9&#45;&gt;Node23</title>
<path fill="none" stroke="midnightblue" d="M1021.09,-112.399C1031.79,-103.308 1045.69,-91.4899 1056.63,-82.1909"/>
<polygon fill="midnightblue" stroke="midnightblue" points="1058.96,-84.8011 1064.31,-75.6578 1054.43,-79.4675 1058.96,-84.8011"/>
</g>
<!-- Node24 -->
<g id="node24" class="node"><title>Node24</title>
<g id="a_node24"><a xlink:title=" ">
<polygon fill="none" stroke="#bfbfbf" points="1120,-56.5 1120,-75.5 1167,-75.5 1167,-56.5 1120,-56.5"/>
<text text-anchor="middle" x="1143.5" y="-63.5" font-family="Helvetica,sans-Serif" font-size="10.00">iterator</text>
</a>
</g>
</g>
<!-- Node9&#45;&gt;Node24 -->
<g id="edge29" class="edge"><title>Node9&#45;&gt;Node24</title>
<path fill="none" stroke="midnightblue" d="M1037.44,-112.399C1060.66,-102.461 1091.49,-89.2649 1113.92,-79.6625"/>
<polygon fill="midnightblue" stroke="midnightblue" points="1115.46,-82.8106 1123.27,-75.6578 1112.7,-76.3754 1115.46,-82.8106"/>
</g>
<!-- Node25 -->
<g id="node25" class="node"><title>Node25</title>
<g id="a_node25"><a xlink:title=" ">
<polygon fill="none" stroke="#bfbfbf" points="1185.5,-56.5 1185.5,-75.5 1225.5,-75.5 1225.5,-56.5 1185.5,-56.5"/>
<text text-anchor="middle" x="1205.5" y="-63.5" font-family="Helvetica,sans-Serif" font-size="10.00">limits</text>
</a>
</g>
</g>
<!-- Node9&#45;&gt;Node25 -->
<g id="edge30" class="edge"><title>Node9&#45;&gt;Node25</title>
<path fill="none" stroke="midnightblue" d="M1053.12,-112.441C1085.38,-103.064 1128.89,-90.3213 1175.55,-76.2585"/>
<polygon fill="midnightblue" stroke="midnightblue" points="1176.67,-79.5754 1185.23,-73.3339 1174.65,-72.8742 1176.67,-79.5754"/>
</g>
<!-- Node26 -->
<g id="node26" class="node"><title>Node26</title>
<g id="a_node26"><a xlink:title=" ">
<polygon fill="none" stroke="#bfbfbf" points="1243.5,-56.5 1243.5,-75.5 1285.5,-75.5 1285.5,-56.5 1243.5,-56.5"/>
<text text-anchor="middle" x="1264.5" y="-63.5" font-family="Helvetica,sans-Serif" font-size="10.00">locale</text>
</a>
</g>
</g>
<!-- Node9&#45;&gt;Node26 -->
<g id="edge31" class="edge"><title>Node9&#45;&gt;Node26</title>
<path fill="none" stroke="midnightblue" d="M1063.4,-114.842C1107.76,-105.77 1170.26,-92.3732 1233.51,-76.1165"/>
<polygon fill="midnightblue" stroke="midnightblue" points="1234.45,-79.488 1243.25,-73.5905 1232.69,-72.712 1234.45,-79.488"/>
</g>
<!-- Node27 -->
<g id="node27" class="node"><title>Node27</title>
<g id="a_node27"><a xlink:title=" ">
<polygon fill="none" stroke="#bfbfbf" points="1304,-56.5 1304,-75.5 1339,-75.5 1339,-56.5 1304,-56.5"/>
<text text-anchor="middle" x="1321.5" y="-63.5" font-family="Helvetica,sans-Serif" font-size="10.00">map</text>
</a>
</g>
</g>
<!-- Node9&#45;&gt;Node27 -->
<g id="edge32" class="edge"><title>Node9&#45;&gt;Node27</title>
<path fill="none" stroke="midnightblue" d="M1063.09,-118.92C1119.86,-110.985 1208.46,-97.05 1294.02,-75.7805"/>
<polygon fill="midnightblue" stroke="midnightblue" points="1295.05,-79.1288 1303.89,-73.2886 1293.34,-72.3415 1295.05,-79.1288"/>
</g>
<!-- Node28 -->
<g id="node28" class="node"><title>Node28</title>
<g id="a_node28"><a xlink:title=" ">
<polygon fill="none" stroke="#bfbfbf" points="1357.5,-56.5 1357.5,-75.5 1409.5,-75.5 1409.5,-56.5 1357.5,-56.5"/>
<text text-anchor="middle" x="1383.5" y="-63.5" font-family="Helvetica,sans-Serif" font-size="10.00">memory</text>
</a>
</g>
</g>
<!-- Node9&#45;&gt;Node28 -->
<g id="edge33" class="edge"><title>Node9&#45;&gt;Node28</title>
<path fill="none" stroke="midnightblue" d="M1063.26,-119.798C1129.92,-111.763 1242.04,-96.9515 1347.35,-76.0571"/>
<polygon fill="midnightblue" stroke="midnightblue" points="1348.08,-79.4814 1357.2,-74.0825 1346.7,-72.6182 1348.08,-79.4814"/>
</g>
<!-- Node29 -->
<g id="node29" class="node"><title>Node29</title>
<g id="a_node29"><a xlink:title=" ">
<polygon fill="none" stroke="#bfbfbf" points="1428,-56.5 1428,-75.5 1479,-75.5 1479,-56.5 1428,-56.5"/>
<text text-anchor="middle" x="1453.5" y="-63.5" font-family="Helvetica,sans-Serif" font-size="10.00">numeric</text>
</a>
</g>
</g>
<!-- Node9&#45;&gt;Node29 -->
<g id="edge34" class="edge"><title>Node9&#45;&gt;Node29</title>
<path fill="none" stroke="midnightblue" d="M1063.15,-121.771C1141.74,-114.898 1285.67,-100.43 1418.06,-75.8392"/>
<polygon fill="midnightblue" stroke="midnightblue" points="1418.79,-79.2624 1427.97,-73.974 1417.5,-72.383 1418.79,-79.2624"/>
</g>
<!-- Node30 -->
<g id="node30" class="node"><title>Node30</title>
<g id="a_node30"><a xlink:title=" ">
<polygon fill="none" stroke="#bfbfbf" points="1497.5,-56.5 1497.5,-75.5 1549.5,-75.5 1549.5,-56.5 1497.5,-56.5"/>
<text text-anchor="middle" x="1523.5" y="-63.5" font-family="Helvetica,sans-Serif" font-size="10.00">sstream</text>
</a>
</g>
</g>
<!-- Node9&#45;&gt;Node30 -->
<g id="edge35" class="edge"><title>Node9&#45;&gt;Node30</title>
<path fill="none" stroke="midnightblue" d="M1063,-123.194C1152.52,-117.521 1328.91,-103.921 1487.29,-75.9763"/>
<polygon fill="midnightblue" stroke="midnightblue" points="1487.99,-79.4074 1497.22,-74.2021 1486.76,-72.5167 1487.99,-79.4074"/>
</g>
<!-- Node31 -->
<g id="node31" class="node"><title>Node31</title>
<g id="a_node31"><a xlink:title=" ">
<polygon fill="none" stroke="#bfbfbf" points="1568,-56.5 1568,-75.5 1627,-75.5 1627,-56.5 1568,-56.5"/>
<text text-anchor="middle" x="1597.5" y="-63.5" font-family="Helvetica,sans-Serif" font-size="10.00">stdexcept</text>
</a>
</g>
</g>
<!-- Node9&#45;&gt;Node31 -->
<g id="edge36" class="edge"><title>Node9&#45;&gt;Node31</title>
<path fill="none" stroke="midnightblue" d="M1063.05,-123.783C1162.7,-118.586 1371.7,-105.203 1557.8,-75.8877"/>
<polygon fill="midnightblue" stroke="midnightblue" points="1558.45,-79.3295 1567.77,-74.2988 1557.35,-72.4168 1558.45,-79.3295"/>
</g>
<!-- Node32 -->
<g id="node32" class="node"><title>Node32</title>
<g id="a_node32"><a xlink:title=" ">
<polygon fill="none" stroke="#bfbfbf" points="1645.5,-56.5 1645.5,-75.5 1707.5,-75.5 1707.5,-56.5 1645.5,-56.5"/>
<text text-anchor="middle" x="1676.5" y="-63.5" font-family="Helvetica,sans-Serif" font-size="10.00">type_traits</text>
</a>
</g>
</g>
<!-- Node9&#45;&gt;Node32 -->
<g id="edge38" class="edge"><title>Node9&#45;&gt;Node32</title>
<path fill="none" stroke="midnightblue" d="M1063.2,-124.585C1173.52,-120.382 1419.42,-108.152 1635.21,-75.9945"/>
<polygon fill="midnightblue" stroke="midnightblue" points="1635.77,-79.4495 1645.14,-74.4976 1634.73,-72.5277 1635.77,-79.4495"/>
</g>
<!-- Node33 -->
<g id="node33" class="node"><title>Node33</title>
<g id="a_node33"><a xlink:title=" ">
<polygon fill="none" stroke="#bfbfbf" points="1725.5,-56.5 1725.5,-75.5 1765.5,-75.5 1765.5,-56.5 1725.5,-56.5"/>
<text text-anchor="middle" x="1745.5" y="-63.5" font-family="Helvetica,sans-Serif" font-size="10.00">utility</text>
</a>
</g>
</g>
<!-- Node9&#45;&gt;Node33 -->
<g id="edge39" class="edge"><title>Node9&#45;&gt;Node33</title>
<path fill="none" stroke="midnightblue" d="M1063.22,-126.877C1184.15,-126.674 1469.53,-121.148 1715.53,-75.7389"/>
<polygon fill="midnightblue" stroke="midnightblue" points="1716.18,-79.1776 1725.37,-73.8975 1714.9,-72.2971 1716.18,-79.1776"/>
</g>
<!-- Node34 -->
<g id="node34" class="node"><title>Node34</title>
<g id="a_node34"><a xlink:title=" ">
<polygon fill="none" stroke="#bfbfbf" points="1784,-56.5 1784,-75.5 1827,-75.5 1827,-56.5 1784,-56.5"/>
<text text-anchor="middle" x="1805.5" y="-63.5" font-family="Helvetica,sans-Serif" font-size="10.00">cstdio</text>
</a>
</g>
</g>
<!-- Node9&#45;&gt;Node34 -->
<g id="edge41" class="edge"><title>Node9&#45;&gt;Node34</title>
<path fill="none" stroke="midnightblue" d="M1063.46,-126.97C1191.51,-127.057 1504.5,-122.222 1773.99,-75.6473"/>
<polygon fill="midnightblue" stroke="midnightblue" points="1774.71,-79.0739 1783.96,-73.9014 1773.51,-72.1788 1774.71,-79.0739"/>
</g>
<!-- Node35&#45;&gt;Node4 -->
<g id="edge43" class="edge"><title>Node35&#45;&gt;Node4</title>
<path fill="none" stroke="midnightblue" d="M220.023,-179.35C225.339,-165.015 234.029,-135.58 226.5,-112 223.159,-101.538 216.4,-91.4277 209.951,-83.4496"/>
<polygon fill="midnightblue" stroke="midnightblue" points="212.444,-80.9815 203.251,-75.7136 207.152,-85.5641 212.444,-80.9815"/>
</g>
<!-- Node35&#45;&gt;Node6 -->
<g id="edge44" class="edge"><title>Node35&#45;&gt;Node6</title>
<path fill="none" stroke="midnightblue" d="M200.31,-179.475C181.598,-169.622 150.577,-153.288 128.701,-141.77"/>
<polygon fill="midnightblue" stroke="midnightblue" points="130.139,-138.571 119.66,-137.009 126.878,-144.765 130.139,-138.571"/>
</g>
<!-- Node35&#45;&gt;Node7 -->
<g id="edge45" class="edge"><title>Node35&#45;&gt;Node7</title>
<path fill="none" stroke="midnightblue" d="M209.596,-179.298C193.682,-159.24 154.21,-109.489 133.561,-83.4628"/>
<polygon fill="midnightblue" stroke="midnightblue" points="136.299,-81.2817 127.342,-75.6232 130.815,-85.6325 136.299,-81.2817"/>
</g>
</g>
</svg>
