<?xml version="1.0" encoding="UTF-8" standalone="no"?>
<!DOCTYPE svg PUBLIC "-//W3C//DTD SVG 1.1//EN"
 "http://www.w3.org/Graphics/SVG/1.1/DTD/svg11.dtd">
<!-- Generated by graphviz version 2.38.0 (20140413.2041)
 -->
<!-- Title: Utils::Attributes::attribute_info Pages: 1 -->
<svg width="218pt" height="364pt"
 viewBox="0.00 0.00 217.50 364.00" xmlns="http://www.w3.org/2000/svg" xmlns:xlink="http://www.w3.org/1999/xlink">
<g id="graph0" class="graph" transform="scale(1 1) rotate(0) translate(4 360)">
<title>Utils::Attributes::attribute_info</title>
<!-- Node1 -->
<g id="node1" class="node"><title>Node1</title>
<g id="a_node1"><a xlink:title=" ">
<polygon fill="#bfbfbf" stroke="black" points="28,-0.5 28,-112.5 121,-112.5 121,-0.5 28,-0.5"/>
<text text-anchor="start" x="36" y="-100.5" font-family="Helvetica,sans-Serif" font-size="10.00">Utils::Attributes::</text>
<text text-anchor="middle" x="74.5" y="-89.5" font-family="Helvetica,sans-Serif" font-size="10.00">attribute_info</text>
<polyline fill="none" stroke="black" points="28,-82.5 121,-82.5 "/>
<text text-anchor="middle" x="74.5" y="-70.5" font-family="Helvetica,sans-Serif" font-size="10.00"> </text>
<polyline fill="none" stroke="black" points="28,-63.5 121,-63.5 "/>
<text text-anchor="start" x="36" y="-51.5" font-family="Helvetica,sans-Serif" font-size="10.00">+ attribute_info()</text>
<text text-anchor="start" x="36" y="-40.5" font-family="Helvetica,sans-Serif" font-size="10.00">+ ~attribute_info()</text>
<text text-anchor="start" x="36" y="-29.5" font-family="Helvetica,sans-Serif" font-size="10.00">+ deleteclass()</text>
<text text-anchor="start" x="36" y="-18.5" font-family="Helvetica,sans-Serif" font-size="10.00">+ setBase()</text>
<text text-anchor="start" x="36" y="-7.5" font-family="Helvetica,sans-Serif" font-size="10.00">+ getClass()</text>
</a>
</g>
</g>
<!-- Node2 -->
<g id="node2" class="node"><title>Node2</title>
<g id="a_node2"><a xlink:href="../../dc/dac/class_utils_1_1_attributes_1_1_base_attribute.xhtml" target="_top" xlink:title=" ">
<polygon fill="none" stroke="black" points="26,-160.5 26,-250.5 123,-250.5 123,-160.5 26,-160.5"/>
<text text-anchor="start" x="34" y="-238.5" font-family="Helvetica,sans-Serif" font-size="10.00">Utils::Attributes::</text>
<text text-anchor="middle" x="74.5" y="-227.5" font-family="Helvetica,sans-Serif" font-size="10.00">BaseAttribute</text>
<polyline fill="none" stroke="black" points="26,-220.5 123,-220.5 "/>
<text text-anchor="middle" x="74.5" y="-208.5" font-family="Helvetica,sans-Serif" font-size="10.00"> </text>
<polyline fill="none" stroke="black" points="26,-201.5 123,-201.5 "/>
<text text-anchor="start" x="34" y="-189.5" font-family="Helvetica,sans-Serif" font-size="10.00">+ BaseAttribute()</text>
<text text-anchor="start" x="34" y="-178.5" font-family="Helvetica,sans-Serif" font-size="10.00">+ BaseAttribute()</text>
<text text-anchor="start" x="34" y="-167.5" font-family="Helvetica,sans-Serif" font-size="10.00">+ ~BaseAttribute()</text>
</a>
</g>
</g>
<!-- Node2&#45;&gt;Node1 -->
<g id="edge1" class="edge"><title>Node2&#45;&gt;Node1</title>
<path fill="none" stroke="#404040" d="M74.5,-160.395C74.5,-149.105 74.5,-136.707 74.5,-124.547"/>
<polygon fill="none" stroke="#404040" points="74.5001,-124.515 70.5,-118.515 74.5,-112.515 78.5,-118.515 74.5001,-124.515"/>
<text text-anchor="middle" x="90" y="-134" font-family="Helvetica,sans-Serif" font-size="10.00"> +base</text>
</g>
<!-- Node3 -->
<g id="node3" class="node"><title>Node3</title>
<g id="a_node3"><a xlink:title=" ">
<polygon fill="none" stroke="#bfbfbf" points="0,-298.5 0,-355.5 51,-355.5 51,-298.5 0,-298.5"/>
<text text-anchor="middle" x="25.5" y="-343.5" font-family="Helvetica,sans-Serif" font-size="10.00">uint32_t</text>
<polyline fill="none" stroke="#bfbfbf" points="0,-336.5 51,-336.5 "/>
<text text-anchor="middle" x="25.5" y="-324.5" font-family="Helvetica,sans-Serif" font-size="10.00"> </text>
<polyline fill="none" stroke="#bfbfbf" points="0,-317.5 51,-317.5 "/>
<text text-anchor="middle" x="25.5" y="-305.5" font-family="Helvetica,sans-Serif" font-size="10.00"> </text>
</a>
</g>
</g>
<!-- Node3&#45;&gt;Node2 -->
<g id="edge2" class="edge"><title>Node3&#45;&gt;Node2</title>
<path fill="none" stroke="#404040" d="M22.5193,-298.417C22.3852,-288.87 23.2672,-278.25 26.5,-269 27.3986,-266.429 28.4476,-263.88 29.6183,-261.365"/>
<polygon fill="none" stroke="#404040" points="29.7343,-261.15 29.0688,-253.97 35.4409,-250.594 36.1064,-257.774 29.7343,-261.15"/>
<text text-anchor="middle" x="64.5" y="-272" font-family="Helvetica,sans-Serif" font-size="10.00"> +attribute_length</text>
</g>
<!-- Node4 -->
<g id="node4" class="node"><title>Node4</title>
<g id="a_node4"><a xlink:title=" ">
<polygon fill="none" stroke="#bfbfbf" points="99,-298.5 99,-355.5 150,-355.5 150,-298.5 99,-298.5"/>
<text text-anchor="middle" x="124.5" y="-343.5" font-family="Helvetica,sans-Serif" font-size="10.00">uint16_t</text>
<polyline fill="none" stroke="#bfbfbf" points="99,-336.5 150,-336.5 "/>
<text text-anchor="middle" x="124.5" y="-324.5" font-family="Helvetica,sans-Serif" font-size="10.00"> </text>
<polyline fill="none" stroke="#bfbfbf" points="99,-317.5 150,-317.5 "/>
<text text-anchor="middle" x="124.5" y="-305.5" font-family="Helvetica,sans-Serif" font-size="10.00"> </text>
</a>
</g>
</g>
<!-- Node4&#45;&gt;Node2 -->
<g id="edge3" class="edge"><title>Node4&#45;&gt;Node2</title>
<path fill="none" stroke="#404040" d="M114.162,-298.34C110.574,-288.981 106.457,-278.498 102.5,-269 101.535,-266.685 100.54,-264.327 99.5245,-261.949"/>
<polygon fill="none" stroke="#404040" points="99.4474,-261.771 93.3914,-257.856 94.6757,-250.76 100.732,-254.675 99.4474,-261.771"/>
<text text-anchor="middle" x="158" y="-272" font-family="Helvetica,sans-Serif" font-size="10.00"> +attribute_name_index</text>
</g>
</g>
</svg>
