<?xml version="1.0" encoding="UTF-8" standalone="no"?>
<!DOCTYPE svg PUBLIC "-//W3C//DTD SVG 1.1//EN"
 "http://www.w3.org/Graphics/SVG/1.1/DTD/svg11.dtd">
<!-- Generated by graphviz version 2.38.0 (20140413.2041)
 -->
<!-- Title: Instructions::Integer::Or Pages: 1 -->
<svg width="127pt" height="342pt"
 viewBox="0.00 0.00 127.00 342.00" xmlns="http://www.w3.org/2000/svg" xmlns:xlink="http://www.w3.org/1999/xlink">
<g id="graph0" class="graph" transform="scale(1 1) rotate(0) translate(4 338)">
<title>Instructions::Integer::Or</title>
<!-- Node1 -->
<g id="node1" class="node"><title>Node1</title>
<g id="a_node1"><a xlink:title=" ">
<polygon fill="#bfbfbf" stroke="black" points="0,-0.5 0,-68.5 119,-68.5 119,-0.5 0,-0.5"/>
<text text-anchor="middle" x="59.5" y="-56.5" font-family="Helvetica,sans-Serif" font-size="10.00">Instructions::Integer::Or</text>
<polyline fill="none" stroke="black" points="0,-49.5 119,-49.5 "/>
<text text-anchor="middle" x="59.5" y="-37.5" font-family="Helvetica,sans-Serif" font-size="10.00"> </text>
<polyline fill="none" stroke="black" points="0,-30.5 119,-30.5 "/>
<text text-anchor="start" x="8" y="-18.5" font-family="Helvetica,sans-Serif" font-size="10.00">+ Or()</text>
<text text-anchor="start" x="8" y="-7.5" font-family="Helvetica,sans-Serif" font-size="10.00">+ execute()</text>
</a>
</g>
</g>
<!-- Node2 -->
<g id="node2" class="node"><title>Node2</title>
<g id="a_node2"><a xlink:href="../../dd/de2/class_instructions_1_1_integer_1_1_base_integer.xhtml" target="_top" xlink:title=" ">
<polygon fill="none" stroke="black" points="7.5,-105.5 7.5,-195.5 111.5,-195.5 111.5,-105.5 7.5,-105.5"/>
<text text-anchor="start" x="15.5" y="-183.5" font-family="Helvetica,sans-Serif" font-size="10.00">Instructions::Integer</text>
<text text-anchor="middle" x="59.5" y="-172.5" font-family="Helvetica,sans-Serif" font-size="10.00">::BaseInteger</text>
<polyline fill="none" stroke="black" points="7.5,-165.5 111.5,-165.5 "/>
<text text-anchor="middle" x="59.5" y="-153.5" font-family="Helvetica,sans-Serif" font-size="10.00"> </text>
<polyline fill="none" stroke="black" points="7.5,-146.5 111.5,-146.5 "/>
<text text-anchor="start" x="15.5" y="-134.5" font-family="Helvetica,sans-Serif" font-size="10.00">+ BaseInteger()</text>
<text text-anchor="start" x="15.5" y="-123.5" font-family="Helvetica,sans-Serif" font-size="10.00">+ toBytecode()</text>
<text text-anchor="start" x="15.5" y="-112.5" font-family="Helvetica,sans-Serif" font-size="10.00">+ toBytecode_json()</text>
</a>
</g>
</g>
<!-- Node2&#45;&gt;Node1 -->
<g id="edge1" class="edge"><title>Node2&#45;&gt;Node1</title>
<path fill="none" stroke="midnightblue" d="M59.5,-95.3164C59.5,-86.2849 59.5,-77.1589 59.5,-68.8483"/>
<polygon fill="none" stroke="midnightblue" points="56.0001,-95.4246 59.5,-105.425 63.0001,-95.4247 56.0001,-95.4246"/>
</g>
<!-- Node3 -->
<g id="node3" class="node"><title>Node3</title>
<g id="a_node3"><a xlink:href="../../d4/da8/class_instructions_1_1_instruction.xhtml" target="_top" xlink:title=" ">
<polygon fill="none" stroke="black" points="0.5,-232.5 0.5,-333.5 118.5,-333.5 118.5,-232.5 0.5,-232.5"/>
<text text-anchor="middle" x="59.5" y="-321.5" font-family="Helvetica,sans-Serif" font-size="10.00">Instructions::Instruction</text>
<polyline fill="none" stroke="black" points="0.5,-314.5 118.5,-314.5 "/>
<text text-anchor="start" x="8.5" y="-302.5" font-family="Helvetica,sans-Serif" font-size="10.00">+ opcode</text>
<polyline fill="none" stroke="black" points="0.5,-295.5 118.5,-295.5 "/>
<text text-anchor="start" x="8.5" y="-283.5" font-family="Helvetica,sans-Serif" font-size="10.00">+ Instruction()</text>
<text text-anchor="start" x="8.5" y="-272.5" font-family="Helvetica,sans-Serif" font-size="10.00">+ ~Instruction()</text>
<text text-anchor="start" x="8.5" y="-261.5" font-family="Helvetica,sans-Serif" font-size="10.00">+ execute()</text>
<text text-anchor="start" x="8.5" y="-250.5" font-family="Helvetica,sans-Serif" font-size="10.00">+ toBytecode()</text>
<text text-anchor="start" x="8.5" y="-239.5" font-family="Helvetica,sans-Serif" font-size="10.00">+ toBytecode_json()</text>
</a>
</g>
</g>
<!-- Node3&#45;&gt;Node2 -->
<g id="edge2" class="edge"><title>Node3&#45;&gt;Node2</title>
<path fill="none" stroke="midnightblue" d="M59.5,-222.232C59.5,-213.236 59.5,-204.101 59.5,-195.516"/>
<polygon fill="none" stroke="midnightblue" points="56.0001,-222.291 59.5,-232.291 63.0001,-222.291 56.0001,-222.291"/>
</g>
</g>
</svg>
