<?xml version="1.0" encoding="UTF-8" standalone="no"?>
<!DOCTYPE svg PUBLIC "-//W3C//DTD SVG 1.1//EN"
 "http://www.w3.org/Graphics/SVG/1.1/DTD/svg11.dtd">
<!-- Generated by graphviz version 2.38.0 (20140413.2041)
 -->
<!-- Title: Instructions::Integer::Rem Pages: 1 -->
<svg width="136pt" height="342pt"
 viewBox="0.00 0.00 136.00 342.00" xmlns="http://www.w3.org/2000/svg" xmlns:xlink="http://www.w3.org/1999/xlink">
<g id="graph0" class="graph" transform="scale(1 1) rotate(0) translate(4 338)">
<title>Instructions::Integer::Rem</title>
<!-- Node1 -->
<g id="node1" class="node"><title>Node1</title>
<g id="a_node1"><a xlink:title=" ">
<polygon fill="#bfbfbf" stroke="black" points="0,-0.5 0,-68.5 128,-68.5 128,-0.5 0,-0.5"/>
<text text-anchor="middle" x="64" y="-56.5" font-family="Helvetica,sans-Serif" font-size="10.00">Instructions::Integer::Rem</text>
<polyline fill="none" stroke="black" points="0,-49.5 128,-49.5 "/>
<text text-anchor="middle" x="64" y="-37.5" font-family="Helvetica,sans-Serif" font-size="10.00"> </text>
<polyline fill="none" stroke="black" points="0,-30.5 128,-30.5 "/>
<text text-anchor="start" x="8" y="-18.5" font-family="Helvetica,sans-Serif" font-size="10.00">+ Rem()</text>
<text text-anchor="start" x="8" y="-7.5" font-family="Helvetica,sans-Serif" font-size="10.00">+ execute()</text>
</a>
</g>
</g>
<!-- Node2 -->
<g id="node2" class="node"><title>Node2</title>
<g id="a_node2"><a xlink:href="../../dd/de2/class_instructions_1_1_integer_1_1_base_integer.xhtml" target="_top" xlink:title=" ">
<polygon fill="none" stroke="black" points="12,-105.5 12,-195.5 116,-195.5 116,-105.5 12,-105.5"/>
<text text-anchor="start" x="20" y="-183.5" font-family="Helvetica,sans-Serif" font-size="10.00">Instructions::Integer</text>
<text text-anchor="middle" x="64" y="-172.5" font-family="Helvetica,sans-Serif" font-size="10.00">::BaseInteger</text>
<polyline fill="none" stroke="black" points="12,-165.5 116,-165.5 "/>
<text text-anchor="middle" x="64" y="-153.5" font-family="Helvetica,sans-Serif" font-size="10.00"> </text>
<polyline fill="none" stroke="black" points="12,-146.5 116,-146.5 "/>
<text text-anchor="start" x="20" y="-134.5" font-family="Helvetica,sans-Serif" font-size="10.00">+ BaseInteger()</text>
<text text-anchor="start" x="20" y="-123.5" font-family="Helvetica,sans-Serif" font-size="10.00">+ toBytecode()</text>
<text text-anchor="start" x="20" y="-112.5" font-family="Helvetica,sans-Serif" font-size="10.00">+ toBytecode_json()</text>
</a>
</g>
</g>
<!-- Node2&#45;&gt;Node1 -->
<g id="edge1" class="edge"><title>Node2&#45;&gt;Node1</title>
<path fill="none" stroke="midnightblue" d="M64,-95.3164C64,-86.2849 64,-77.1589 64,-68.8483"/>
<polygon fill="none" stroke="midnightblue" points="60.5001,-95.4246 64,-105.425 67.5001,-95.4247 60.5001,-95.4246"/>
</g>
<!-- Node3 -->
<g id="node3" class="node"><title>Node3</title>
<g id="a_node3"><a xlink:href="../../d4/da8/class_instructions_1_1_instruction.xhtml" target="_top" xlink:title=" ">
<polygon fill="none" stroke="black" points="5,-232.5 5,-333.5 123,-333.5 123,-232.5 5,-232.5"/>
<text text-anchor="middle" x="64" y="-321.5" font-family="Helvetica,sans-Serif" font-size="10.00">Instructions::Instruction</text>
<polyline fill="none" stroke="black" points="5,-314.5 123,-314.5 "/>
<text text-anchor="start" x="13" y="-302.5" font-family="Helvetica,sans-Serif" font-size="10.00">+ opcode</text>
<polyline fill="none" stroke="black" points="5,-295.5 123,-295.5 "/>
<text text-anchor="start" x="13" y="-283.5" font-family="Helvetica,sans-Serif" font-size="10.00">+ Instruction()</text>
<text text-anchor="start" x="13" y="-272.5" font-family="Helvetica,sans-Serif" font-size="10.00">+ ~Instruction()</text>
<text text-anchor="start" x="13" y="-261.5" font-family="Helvetica,sans-Serif" font-size="10.00">+ execute()</text>
<text text-anchor="start" x="13" y="-250.5" font-family="Helvetica,sans-Serif" font-size="10.00">+ toBytecode()</text>
<text text-anchor="start" x="13" y="-239.5" font-family="Helvetica,sans-Serif" font-size="10.00">+ toBytecode_json()</text>
</a>
</g>
</g>
<!-- Node3&#45;&gt;Node2 -->
<g id="edge2" class="edge"><title>Node3&#45;&gt;Node2</title>
<path fill="none" stroke="midnightblue" d="M64,-222.232C64,-213.236 64,-204.101 64,-195.516"/>
<polygon fill="none" stroke="midnightblue" points="60.5001,-222.291 64,-232.291 67.5001,-222.291 60.5001,-222.291"/>
</g>
</g>
</svg>
