<?xml version="1.0" encoding="UTF-8" standalone="no"?>
<!DOCTYPE svg PUBLIC "-//W3C//DTD SVG 1.1//EN"
 "http://www.w3.org/Graphics/SVG/1.1/DTD/svg11.dtd">
<!-- Generated by graphviz version 2.38.0 (20140413.2041)
 -->
<!-- Title: Utils::Attributes::Code_attribute Pages: 1 -->
<svg width="769pt" height="342pt"
 viewBox="0.00 0.00 769.00 342.00" xmlns="http://www.w3.org/2000/svg" xmlns:xlink="http://www.w3.org/1999/xlink">
<g id="graph0" class="graph" transform="scale(1 1) rotate(0) translate(4 338)">
<title>Utils::Attributes::Code_attribute</title>
<!-- Node1 -->
<g id="node1" class="node"><title>Node1</title>
<g id="a_node1"><a xlink:title=" ">
<polygon fill="#bfbfbf" stroke="black" points="301,-0.5 301,-90.5 402,-90.5 402,-0.5 301,-0.5"/>
<text text-anchor="start" x="309" y="-78.5" font-family="Helvetica,sans-Serif" font-size="10.00">Utils::Attributes::</text>
<text text-anchor="middle" x="351.5" y="-67.5" font-family="Helvetica,sans-Serif" font-size="10.00">Code_attribute</text>
<polyline fill="none" stroke="black" points="301,-60.5 402,-60.5 "/>
<text text-anchor="middle" x="351.5" y="-48.5" font-family="Helvetica,sans-Serif" font-size="10.00"> </text>
<polyline fill="none" stroke="black" points="301,-41.5 402,-41.5 "/>
<text text-anchor="start" x="309" y="-29.5" font-family="Helvetica,sans-Serif" font-size="10.00">+ Code_attribute()</text>
<text text-anchor="start" x="309" y="-18.5" font-family="Helvetica,sans-Serif" font-size="10.00">+ ~Code_attribute()</text>
<text text-anchor="start" x="309" y="-7.5" font-family="Helvetica,sans-Serif" font-size="10.00">+ getSpecificInfo()</text>
</a>
</g>
</g>
<!-- Node2 -->
<g id="node2" class="node"><title>Node2</title>
<g id="a_node2"><a xlink:href="../../dc/dac/class_utils_1_1_attributes_1_1_base_attribute.xhtml" target="_top" xlink:title=" ">
<polygon fill="none" stroke="black" points="92,-138.5 92,-228.5 189,-228.5 189,-138.5 92,-138.5"/>
<text text-anchor="start" x="100" y="-216.5" font-family="Helvetica,sans-Serif" font-size="10.00">Utils::Attributes::</text>
<text text-anchor="middle" x="140.5" y="-205.5" font-family="Helvetica,sans-Serif" font-size="10.00">BaseAttribute</text>
<polyline fill="none" stroke="black" points="92,-198.5 189,-198.5 "/>
<text text-anchor="middle" x="140.5" y="-186.5" font-family="Helvetica,sans-Serif" font-size="10.00"> </text>
<polyline fill="none" stroke="black" points="92,-179.5 189,-179.5 "/>
<text text-anchor="start" x="100" y="-167.5" font-family="Helvetica,sans-Serif" font-size="10.00">+ BaseAttribute()</text>
<text text-anchor="start" x="100" y="-156.5" font-family="Helvetica,sans-Serif" font-size="10.00">+ BaseAttribute()</text>
<text text-anchor="start" x="100" y="-145.5" font-family="Helvetica,sans-Serif" font-size="10.00">+ ~BaseAttribute()</text>
</a>
</g>
</g>
<!-- Node2&#45;&gt;Node1 -->
<g id="edge1" class="edge"><title>Node2&#45;&gt;Node1</title>
<path fill="none" stroke="midnightblue" d="M197.363,-140.981C212.503,-130.295 228.971,-118.996 244.5,-109 262.589,-97.3556 282.873,-85.2717 300.877,-74.8683"/>
<polygon fill="none" stroke="midnightblue" points="195.232,-138.201 189.102,-146.842 199.283,-143.91 195.232,-138.201"/>
</g>
<!-- Node3 -->
<g id="node3" class="node"><title>Node3</title>
<g id="a_node3"><a xlink:title=" ">
<polygon fill="none" stroke="#bfbfbf" points="0,-276.5 0,-333.5 51,-333.5 51,-276.5 0,-276.5"/>
<text text-anchor="middle" x="25.5" y="-321.5" font-family="Helvetica,sans-Serif" font-size="10.00">uint32_t</text>
<polyline fill="none" stroke="#bfbfbf" points="0,-314.5 51,-314.5 "/>
<text text-anchor="middle" x="25.5" y="-302.5" font-family="Helvetica,sans-Serif" font-size="10.00"> </text>
<polyline fill="none" stroke="#bfbfbf" points="0,-295.5 51,-295.5 "/>
<text text-anchor="middle" x="25.5" y="-283.5" font-family="Helvetica,sans-Serif" font-size="10.00"> </text>
</a>
</g>
</g>
<!-- Node3&#45;&gt;Node1 -->
<g id="edge5" class="edge"><title>Node3&#45;&gt;Node1</title>
<path fill="none" stroke="#404040" d="M15.0376,-276.412C3.42201,-240.621 -9.97054,-178.036 20.5,-138 52.8402,-95.507 201.989,-67.6805 288.641,-54.8011"/>
<polygon fill="none" stroke="#404040" points="288.818,-54.7754 294.179,-49.9525 300.693,-53.0461 295.332,-57.869 288.818,-54.7754"/>
<text text-anchor="middle" x="51.5" y="-181" font-family="Helvetica,sans-Serif" font-size="10.00"> +code_length</text>
</g>
<!-- Node3&#45;&gt;Node2 -->
<g id="edge2" class="edge"><title>Node3&#45;&gt;Node2</title>
<path fill="none" stroke="#404040" d="M38.5884,-276.437C43.9856,-266.578 50.7904,-255.752 58.5,-247 65.5493,-238.998 73.7587,-231.335 82.2065,-224.287"/>
<polygon fill="none" stroke="#404040" points="82.4304,-224.108 84.6128,-217.235 91.7965,-216.606 89.6141,-223.479 82.4304,-224.108"/>
<text text-anchor="middle" x="96.5" y="-250" font-family="Helvetica,sans-Serif" font-size="10.00"> +attribute_length</text>
</g>
<!-- Node4 -->
<g id="node4" class="node"><title>Node4</title>
<g id="a_node4"><a xlink:title=" ">
<polygon fill="none" stroke="#bfbfbf" points="174,-276.5 174,-333.5 225,-333.5 225,-276.5 174,-276.5"/>
<text text-anchor="middle" x="199.5" y="-321.5" font-family="Helvetica,sans-Serif" font-size="10.00">uint16_t</text>
<polyline fill="none" stroke="#bfbfbf" points="174,-314.5 225,-314.5 "/>
<text text-anchor="middle" x="199.5" y="-302.5" font-family="Helvetica,sans-Serif" font-size="10.00"> </text>
<polyline fill="none" stroke="#bfbfbf" points="174,-295.5 225,-295.5 "/>
<text text-anchor="middle" x="199.5" y="-283.5" font-family="Helvetica,sans-Serif" font-size="10.00"> </text>
</a>
</g>
</g>
<!-- Node4&#45;&gt;Node1 -->
<g id="edge6" class="edge"><title>Node4&#45;&gt;Node1</title>
<path fill="none" stroke="#404040" d="M225.377,-282.766C232.585,-275.61 239.737,-267.108 244.5,-258 269.667,-209.88 243.099,-186.513 267.5,-138 274.305,-124.471 283.697,-111.479 293.746,-99.7475"/>
<polygon fill="none" stroke="#404040" points="293.908,-99.5668 294.927,-92.428 301.908,-90.6231 300.889,-97.7619 293.908,-99.5668"/>
<text text-anchor="middle" x="322" y="-197.5" font-family="Helvetica,sans-Serif" font-size="10.00"> +exception_table_length</text>
<text text-anchor="middle" x="322" y="-186.5" font-family="Helvetica,sans-Serif" font-size="10.00">+attributes_count</text>
<text text-anchor="middle" x="322" y="-175.5" font-family="Helvetica,sans-Serif" font-size="10.00">+max_stack</text>
<text text-anchor="middle" x="322" y="-164.5" font-family="Helvetica,sans-Serif" font-size="10.00">+max_locals</text>
</g>
<!-- Node4&#45;&gt;Node2 -->
<g id="edge3" class="edge"><title>Node4&#45;&gt;Node2</title>
<path fill="none" stroke="#404040" d="M173.847,-290.758C161.694,-282.995 148.361,-271.955 141.5,-258 138.892,-252.696 137.196,-246.906 136.165,-240.979"/>
<polygon fill="none" stroke="#404040" points="136.134,-240.669 131.542,-235.109 134.908,-228.732 139.5,-234.292 136.134,-240.669"/>
<text text-anchor="middle" x="193" y="-250" font-family="Helvetica,sans-Serif" font-size="10.00"> +attribute_name_index</text>
</g>
<!-- Node5 -->
<g id="node5" class="node"><title>Node5</title>
<g id="a_node5"><a xlink:title=" ">
<polygon fill="none" stroke="#bfbfbf" points="386,-155 386,-212 503,-212 503,-155 386,-155"/>
<text text-anchor="middle" x="444.5" y="-200" font-family="Helvetica,sans-Serif" font-size="10.00">vector&lt; excption_info &gt;</text>
<polyline fill="none" stroke="#bfbfbf" points="386,-193 503,-193 "/>
<text text-anchor="middle" x="444.5" y="-181" font-family="Helvetica,sans-Serif" font-size="10.00"> </text>
<polyline fill="none" stroke="#bfbfbf" points="386,-174 503,-174 "/>
<text text-anchor="middle" x="444.5" y="-162" font-family="Helvetica,sans-Serif" font-size="10.00"> </text>
</a>
</g>
</g>
<!-- Node5&#45;&gt;Node1 -->
<g id="edge4" class="edge"><title>Node5&#45;&gt;Node1</title>
<path fill="none" stroke="#404040" d="M425.68,-154.978C415.022,-139.392 401.313,-119.345 388.586,-100.733"/>
<polygon fill="none" stroke="#404040" points="388.416,-100.484 381.727,-97.7896 381.642,-90.579 388.331,-93.2738 388.416,-100.484"/>
<text text-anchor="middle" x="440.5" y="-112" font-family="Helvetica,sans-Serif" font-size="10.00"> +exception_table</text>
</g>
<!-- Node6 -->
<g id="node6" class="node"><title>Node6</title>
<g id="a_node6"><a xlink:title=" ">
<polygon fill="none" stroke="#bfbfbf" points="521,-149.5 521,-217.5 640,-217.5 640,-149.5 521,-149.5"/>
<text text-anchor="start" x="529" y="-205.5" font-family="Helvetica,sans-Serif" font-size="10.00">vector&lt; Utils::Attributes</text>
<text text-anchor="middle" x="580.5" y="-194.5" font-family="Helvetica,sans-Serif" font-size="10.00">::attribute_info &gt;</text>
<polyline fill="none" stroke="#bfbfbf" points="521,-187.5 640,-187.5 "/>
<text text-anchor="middle" x="580.5" y="-175.5" font-family="Helvetica,sans-Serif" font-size="10.00"> </text>
<polyline fill="none" stroke="#bfbfbf" points="521,-168.5 640,-168.5 "/>
<text text-anchor="middle" x="580.5" y="-156.5" font-family="Helvetica,sans-Serif" font-size="10.00"> </text>
</a>
</g>
</g>
<!-- Node6&#45;&gt;Node1 -->
<g id="edge7" class="edge"><title>Node6&#45;&gt;Node1</title>
<path fill="none" stroke="#404040" d="M540.757,-149.444C523.698,-136.044 503.19,-120.946 483.5,-109 461.432,-95.6113 436.041,-82.9876 413.46,-72.6377"/>
<polygon fill="none" stroke="#404040" points="413.223,-72.5306 406.108,-73.708 402.285,-67.5938 409.4,-66.4164 413.223,-72.5306"/>
<text text-anchor="middle" x="525.5" y="-112" font-family="Helvetica,sans-Serif" font-size="10.00"> +attributes</text>
</g>
<!-- Node7 -->
<g id="node7" class="node"><title>Node7</title>
<g id="a_node7"><a xlink:title=" ">
<polygon fill="none" stroke="#bfbfbf" points="658,-149.5 658,-217.5 761,-217.5 761,-149.5 658,-149.5"/>
<text text-anchor="start" x="666" y="-205.5" font-family="Helvetica,sans-Serif" font-size="10.00">vector&lt; Utils::Types</text>
<text text-anchor="middle" x="709.5" y="-194.5" font-family="Helvetica,sans-Serif" font-size="10.00">::u1 &gt;</text>
<polyline fill="none" stroke="#bfbfbf" points="658,-187.5 761,-187.5 "/>
<text text-anchor="middle" x="709.5" y="-175.5" font-family="Helvetica,sans-Serif" font-size="10.00"> </text>
<polyline fill="none" stroke="#bfbfbf" points="658,-168.5 761,-168.5 "/>
<text text-anchor="middle" x="709.5" y="-156.5" font-family="Helvetica,sans-Serif" font-size="10.00"> </text>
</a>
</g>
</g>
<!-- Node7&#45;&gt;Node1 -->
<g id="edge8" class="edge"><title>Node7&#45;&gt;Node1</title>
<path fill="none" stroke="#404040" d="M667.996,-149.481C661.673,-145.27 655.062,-141.29 648.5,-138 571.744,-99.5162 475.645,-73.5195 413.914,-59.3566"/>
<polygon fill="none" stroke="#404040" points="413.748,-59.3193 407.015,-61.9026 402.041,-56.6816 408.774,-54.0983 413.748,-59.3193"/>
<text text-anchor="middle" x="618" y="-112" font-family="Helvetica,sans-Serif" font-size="10.00"> +code</text>
</g>
</g>
</svg>
