<?xml version="1.0" encoding="UTF-8" standalone="no"?>
<!DOCTYPE svg PUBLIC "-//W3C//DTD SVG 1.1//EN"
 "http://www.w3.org/Graphics/SVG/1.1/DTD/svg11.dtd">
<!-- Generated by graphviz version 2.38.0 (20140413.2041)
 -->
<!-- Title: include/utils/serializers/attributeSerializer.h Pages: 1 -->
<!--zoomable 330 -->
<svg id="main" version="1.1" xmlns="http://www.w3.org/2000/svg" xmlns:xlink="http://www.w3.org/1999/xlink" xml:space="preserve" onload="init(evt)">
<style type="text/css"><![CDATA[
.edge:hover path { stroke: red; }
.edge:hover polygon { stroke: red; fill: red; }
]]></style>
<script type="text/javascript"><![CDATA[
var edges = document.getElementsByTagName('g');
if (edges && edges.length) {
  for (var i=0;i<edges.length;i++) {
    if (edges[i].id.substr(0,4)=='edge') {
      edges[i].setAttribute('class','edge');
    }
  }
}
]]></script>
        <defs>
                <circle id="rim" cx="0" cy="0" r="7"/>
                <circle id="rim2" cx="0" cy="0" r="3.5"/>
                <g id="zoomPlus">
                        <use xlink:href="#rim" fill="#404040">
                                <set attributeName="fill" to="#808080" begin="zoomplus.mouseover" end="zoomplus.mouseout"/>
                        </use>
                        <path d="M-4,0h8M0,-4v8" fill="none" stroke="white" stroke-width="1.5" pointer-events="none"/>
                </g>
                <g id="zoomMin">
                        <use xlink:href="#rim" fill="#404040">
                                <set attributeName="fill" to="#808080" begin="zoomminus.mouseover" end="zoomminus.mouseout"/>
                        </use>
                        <path d="M-4,0h8" fill="none" stroke="white" stroke-width="1.5" pointer-events="none"/>
                </g>
                <g id="dirArrow">
                        <path fill="none" stroke="white" stroke-width="1.5" d="M0,-3.0v7 M-2.5,-0.5L0,-3.0L2.5,-0.5"/>
                </g>
               <g id="resetDef">
                       <use xlink:href="#rim2" fill="#404040">
                               <set attributeName="fill" to="#808080" begin="reset.mouseover" end="reset.mouseout"/>
                       </use>
               </g>
        </defs>

<script type="text/javascript">
var viewWidth = 1920;
var viewHeight = 330;
var sectionId = 'dynsection-0';
</script>
<script xlink:href="../../svgpan.js"/>
<svg id="graph" class="graph">
<g id="viewport">
<title>include/utils/serializers/attributeSerializer.h</title>
<!-- Node1 -->
<g id="node1" class="node"><title>Node1</title>
<g id="a_node1"><a xlink:title=" ">
<polygon fill="#bfbfbf" stroke="black" points="1486.6,-291.5 1486.6,-321.5 1602.6,-321.5 1602.6,-291.5 1486.6,-291.5"/>
<text text-anchor="start" x="1494.6" y="-309.5" font-family="Helvetica,sans-Serif" font-size="10.00">include/utils/serializers</text>
<text text-anchor="middle" x="1544.6" y="-298.5" font-family="Helvetica,sans-Serif" font-size="10.00">/attributeSerializer.h</text>
</a>
</g>
</g>
<!-- Node2 -->
<g id="node2" class="node"><title>Node2</title>
<g id="a_node2"><a xlink:title=" ">
<polygon fill="none" stroke="#bfbfbf" points="1717.6,-56.5 1717.6,-75.5 1759.6,-75.5 1759.6,-56.5 1717.6,-56.5"/>
<text text-anchor="middle" x="1738.6" y="-63.5" font-family="Helvetica,sans-Serif" font-size="10.00">vector</text>
</a>
</g>
</g>
<!-- Node1&#45;&gt;Node2 -->
<g id="edge1" class="edge"><title>Node1&#45;&gt;Node2</title>
<path fill="none" stroke="midnightblue" d="M1548.9,-291.245C1560.04,-256.447 1592.91,-166.064 1648.6,-112 1665.28,-95.8053 1688.94,-84.2872 1707.81,-76.96"/>
<polygon fill="midnightblue" stroke="midnightblue" points="1709.28,-80.1495 1717.46,-73.4127 1706.86,-73.5797 1709.28,-80.1495"/>
</g>
<!-- Node3 -->
<g id="node3" class="node"><title>Node3</title>
<g id="a_node3"><a xlink:href="../../d4/db4/classfile_8h.xhtml" target="_top" xlink:title=" ">
<polygon fill="none" stroke="black" points="1630.6,-235.5 1630.6,-254.5 1690.6,-254.5 1690.6,-235.5 1630.6,-235.5"/>
<text text-anchor="middle" x="1660.6" y="-242.5" font-family="Helvetica,sans-Serif" font-size="10.00">classfile.h</text>
</a>
</g>
</g>
<!-- Node1&#45;&gt;Node3 -->
<g id="edge2" class="edge"><title>Node1&#45;&gt;Node3</title>
<path fill="none" stroke="midnightblue" d="M1572.09,-291.399C1591.03,-281.684 1616.04,-268.855 1634.64,-259.314"/>
<polygon fill="midnightblue" stroke="midnightblue" points="1636.42,-262.336 1643.72,-254.658 1633.22,-256.108 1636.42,-262.336"/>
</g>
<!-- Node9 -->
<g id="node9" class="node"><title>Node9</title>
<g id="a_node9"><a xlink:href="../../d3/dd1/nlohmann__json_8hpp.xhtml" target="_top" xlink:title=" ">
<polygon fill="none" stroke="black" points="922.096,-112.5 922.096,-142.5 1039.1,-142.5 1039.1,-112.5 922.096,-112.5"/>
<text text-anchor="start" x="930.096" y="-130.5" font-family="Helvetica,sans-Serif" font-size="10.00">utils/external/nlohmann</text>
<text text-anchor="middle" x="980.596" y="-119.5" font-family="Helvetica,sans-Serif" font-size="10.00">_json.hpp</text>
</a>
</g>
</g>
<!-- Node1&#45;&gt;Node9 -->
<g id="edge47" class="edge"><title>Node1&#45;&gt;Node9</title>
<path fill="none" stroke="midnightblue" d="M1499.87,-291.463C1397.44,-259.318 1146.16,-180.458 1035,-145.574"/>
<polygon fill="midnightblue" stroke="midnightblue" points="1035.92,-142.193 1025.33,-142.538 1033.82,-148.872 1035.92,-142.193"/>
</g>
<!-- Node3&#45;&gt;Node2 -->
<g id="edge3" class="edge"><title>Node3&#45;&gt;Node2</title>
<path fill="none" stroke="midnightblue" d="M1654.5,-235.276C1646.61,-222.899 1634.44,-199.471 1639.6,-179 1647.85,-146.218 1653.26,-137.374 1675.6,-112 1686.46,-99.6597 1701.32,-88.8389 1713.88,-80.9027"/>
<polygon fill="midnightblue" stroke="midnightblue" points="1715.8,-83.8333 1722.53,-75.6532 1712.17,-77.8491 1715.8,-83.8333"/>
</g>
<!-- Node4 -->
<g id="node4" class="node"><title>Node4</title>
<g id="a_node4"><a xlink:href="../../d0/d36/constant_pool_8h.xhtml" target="_top" xlink:title=" ">
<polygon fill="none" stroke="black" points="1649.1,-179.5 1649.1,-198.5 1752.1,-198.5 1752.1,-179.5 1649.1,-179.5"/>
<text text-anchor="middle" x="1700.6" y="-186.5" font-family="Helvetica,sans-Serif" font-size="10.00">utils/constantPool.h</text>
</a>
</g>
</g>
<!-- Node3&#45;&gt;Node4 -->
<g id="edge4" class="edge"><title>Node3&#45;&gt;Node4</title>
<path fill="none" stroke="midnightblue" d="M1667.2,-235.083C1672.85,-227.455 1681.14,-216.264 1688.05,-206.941"/>
<polygon fill="midnightblue" stroke="midnightblue" points="1690.97,-208.87 1694.11,-198.751 1685.35,-204.703 1690.97,-208.87"/>
</g>
<!-- Node7 -->
<g id="node7" class="node"><title>Node7</title>
<g id="a_node7"><a xlink:href="../../d9/d49/types_8h.xhtml" target="_top" xlink:title=" ">
<polygon fill="none" stroke="black" points="1841.6,-56.5 1841.6,-75.5 1911.6,-75.5 1911.6,-56.5 1841.6,-56.5"/>
<text text-anchor="middle" x="1876.6" y="-63.5" font-family="Helvetica,sans-Serif" font-size="10.00">utils/types.h</text>
</a>
</g>
</g>
<!-- Node3&#45;&gt;Node7 -->
<g id="edge46" class="edge"><title>Node3&#45;&gt;Node7</title>
<path fill="none" stroke="midnightblue" d="M1690.91,-241.37C1729.16,-237.028 1796.03,-225.973 1846.6,-199 1879.07,-181.678 1892.79,-176.693 1907.6,-143 1913.14,-130.386 1911.69,-125.156 1907.6,-112 1904.37,-101.622 1897.82,-91.5209 1891.57,-83.5268"/>
<polygon fill="midnightblue" stroke="midnightblue" points="1894.18,-81.1902 1885.08,-75.7661 1888.81,-85.6818 1894.18,-81.1902"/>
</g>
<!-- Node3&#45;&gt;Node9 -->
<g id="edge13" class="edge"><title>Node3&#45;&gt;Node9</title>
<path fill="none" stroke="midnightblue" d="M1630.5,-238.888C1528.59,-221.578 1194.79,-164.881 1049.35,-140.178"/>
<polygon fill="midnightblue" stroke="midnightblue" points="1049.66,-136.68 1039.21,-138.456 1048.48,-143.581 1049.66,-136.68"/>
</g>
<!-- Node35 -->
<g id="node35" class="node"><title>Node35</title>
<g id="a_node35"><a xlink:href="../../d9/d70/infos_8h.xhtml" target="_top" xlink:title=" ">
<polygon fill="none" stroke="black" points="1771.6,-179.5 1771.6,-198.5 1837.6,-198.5 1837.6,-179.5 1771.6,-179.5"/>
<text text-anchor="middle" x="1804.6" y="-186.5" font-family="Helvetica,sans-Serif" font-size="10.00">utils/infos.h</text>
</a>
</g>
</g>
<!-- Node3&#45;&gt;Node35 -->
<g id="edge42" class="edge"><title>Node3&#45;&gt;Node35</title>
<path fill="none" stroke="midnightblue" d="M1683.41,-235.444C1707.43,-226.438 1745.42,-212.189 1772.46,-202.049"/>
<polygon fill="midnightblue" stroke="midnightblue" points="1773.75,-205.305 1781.89,-198.516 1771.29,-198.751 1773.75,-205.305"/>
</g>
<!-- Node4&#45;&gt;Node2 -->
<g id="edge6" class="edge"><title>Node4&#45;&gt;Node2</title>
<path fill="none" stroke="midnightblue" d="M1694.85,-179.162C1686.14,-164.558 1671.7,-134.743 1682.6,-112 1688.85,-98.9542 1700.93,-88.4921 1712.28,-80.9506"/>
<polygon fill="midnightblue" stroke="midnightblue" points="1714.41,-83.7515 1721.09,-75.5351 1710.74,-77.7869 1714.41,-83.7515"/>
</g>
<!-- Node5 -->
<g id="node5" class="node"><title>Node5</title>
<g id="a_node5"><a xlink:title=" ">
<polygon fill="none" stroke="#bfbfbf" points="1778.1,-56.5 1778.1,-75.5 1819.1,-75.5 1819.1,-56.5 1778.1,-56.5"/>
<text text-anchor="middle" x="1798.6" y="-63.5" font-family="Helvetica,sans-Serif" font-size="10.00">string</text>
</a>
</g>
</g>
<!-- Node4&#45;&gt;Node5 -->
<g id="edge5" class="edge"><title>Node4&#45;&gt;Node5</title>
<path fill="none" stroke="midnightblue" d="M1706.01,-179.206C1715.11,-164.664 1734.39,-134.938 1753.6,-112 1762.29,-101.624 1772.96,-90.8739 1781.74,-82.4839"/>
<polygon fill="midnightblue" stroke="midnightblue" points="1784.26,-84.9194 1789.15,-75.5207 1779.46,-79.8183 1784.26,-84.9194"/>
</g>
<!-- Node6 -->
<g id="node6" class="node"><title>Node6</title>
<g id="a_node6"><a xlink:href="../../da/d6e/attributes_8h.xhtml" target="_top" xlink:title=" ">
<polygon fill="none" stroke="black" points="1762.6,-118 1762.6,-137 1848.6,-137 1848.6,-118 1762.6,-118"/>
<text text-anchor="middle" x="1805.6" y="-125" font-family="Helvetica,sans-Serif" font-size="10.00">utils/attributes.h</text>
</a>
</g>
</g>
<!-- Node4&#45;&gt;Node6 -->
<g id="edge7" class="edge"><title>Node4&#45;&gt;Node6</title>
<path fill="none" stroke="midnightblue" d="M1715.64,-179.475C1732.87,-169.711 1761.34,-153.581 1781.63,-142.081"/>
<polygon fill="midnightblue" stroke="midnightblue" points="1783.6,-144.984 1790.58,-137.009 1780.15,-138.894 1783.6,-144.984"/>
</g>
<!-- Node4&#45;&gt;Node7 -->
<g id="edge12" class="edge"><title>Node4&#45;&gt;Node7</title>
<path fill="none" stroke="midnightblue" d="M1749.86,-179.426C1790.08,-171.455 1842.62,-158.496 1857.6,-143 1872.26,-127.823 1876.13,-103.118 1876.9,-86.0142"/>
<polygon fill="midnightblue" stroke="midnightblue" points="1880.41,-85.6421 1877.03,-75.598 1873.41,-85.5522 1880.41,-85.6421"/>
</g>
<!-- Node6&#45;&gt;Node2 -->
<g id="edge9" class="edge"><title>Node6&#45;&gt;Node2</title>
<path fill="none" stroke="midnightblue" d="M1796,-117.975C1785.55,-108.697 1768.63,-93.6706 1755.86,-82.331"/>
<polygon fill="midnightblue" stroke="midnightblue" points="1757.98,-79.5323 1748.18,-75.5091 1753.33,-84.7663 1757.98,-79.5323"/>
</g>
<!-- Node6&#45;&gt;Node5 -->
<g id="edge8" class="edge"><title>Node6&#45;&gt;Node5</title>
<path fill="none" stroke="midnightblue" d="M1804.59,-117.975C1803.61,-109.58 1802.06,-96.4806 1800.79,-85.6631"/>
<polygon fill="midnightblue" stroke="midnightblue" points="1804.24,-85.0316 1799.6,-75.5091 1797.29,-85.8496 1804.24,-85.0316"/>
</g>
<!-- Node6&#45;&gt;Node7 -->
<g id="edge10" class="edge"><title>Node6&#45;&gt;Node7</title>
<path fill="none" stroke="midnightblue" d="M1815.77,-117.975C1826.95,-108.608 1845.11,-93.3839 1858.69,-82.0081"/>
<polygon fill="midnightblue" stroke="midnightblue" points="1861.03,-84.6148 1866.44,-75.5091 1856.53,-79.2496 1861.03,-84.6148"/>
</g>
<!-- Node8 -->
<g id="node8" class="node"><title>Node8</title>
<g id="a_node8"><a xlink:title=" ">
<polygon fill="none" stroke="#bfbfbf" points="907.596,-0.5 907.596,-19.5 953.596,-19.5 953.596,-0.5 907.596,-0.5"/>
<text text-anchor="middle" x="930.596" y="-7.5" font-family="Helvetica,sans-Serif" font-size="10.00">cstdint</text>
</a>
</g>
</g>
<!-- Node7&#45;&gt;Node8 -->
<g id="edge11" class="edge"><title>Node7&#45;&gt;Node8</title>
<path fill="none" stroke="midnightblue" d="M1841.35,-57.9539C1836.74,-57.2002 1832.06,-56.52 1827.6,-56 1492.3,-16.9682 1082.61,-11.7703 964.137,-11.0956"/>
<polygon fill="midnightblue" stroke="midnightblue" points="963.921,-7.59461 953.904,-11.0448 963.886,-14.5945 963.921,-7.59461"/>
</g>
<!-- Node9&#45;&gt;Node2 -->
<g id="edge40" class="edge"><title>Node9&#45;&gt;Node2</title>
<path fill="none" stroke="midnightblue" d="M1039.54,-126.642C1163.97,-126.015 1462.2,-119.629 1707.6,-76 1707.7,-75.9822 1707.8,-75.9642 1707.9,-75.9461"/>
<polygon fill="midnightblue" stroke="midnightblue" points="1708.41,-79.4187 1717.39,-73.8023 1706.87,-72.5905 1708.41,-79.4187"/>
</g>
<!-- Node9&#45;&gt;Node5 -->
<g id="edge37" class="edge"><title>Node9&#45;&gt;Node5</title>
<path fill="none" stroke="midnightblue" d="M1039.47,-127.272C1169.61,-128.002 1491.43,-124.439 1767.86,-75.6523"/>
<polygon fill="midnightblue" stroke="midnightblue" points="1768.86,-79.0291 1778.09,-73.8228 1767.63,-72.1385 1768.86,-79.0291"/>
</g>
<!-- Node9&#45;&gt;Node8 -->
<g id="edge21" class="edge"><title>Node9&#45;&gt;Node8</title>
<path fill="none" stroke="midnightblue" d="M921.749,-125.665C715.528,-122.454 36.2871,-109.374 4.59569,-76 -1.52516,-69.5543 -1.53526,-62.4361 4.59569,-56 35.9652,-23.0691 733.977,-13.2077 896.839,-11.3513"/>
<polygon fill="midnightblue" stroke="midnightblue" points="897.243,-14.8472 907.203,-11.2359 897.165,-7.8476 897.243,-14.8472"/>
</g>
<!-- Node10 -->
<g id="node10" class="node"><title>Node10</title>
<g id="a_node10"><a xlink:title=" ">
<polygon fill="none" stroke="#bfbfbf" points="13.5957,-56.5 13.5957,-75.5 69.5957,-75.5 69.5957,-56.5 13.5957,-56.5"/>
<text text-anchor="middle" x="41.5957" y="-63.5" font-family="Helvetica,sans-Serif" font-size="10.00">algorithm</text>
</a>
</g>
</g>
<!-- Node9&#45;&gt;Node10 -->
<g id="edge14" class="edge"><title>Node9&#45;&gt;Node10</title>
<path fill="none" stroke="midnightblue" d="M921.918,-126.909C779.073,-127.113 401.96,-122.894 79.7685,-75.8903"/>
<polygon fill="midnightblue" stroke="midnightblue" points="80.1764,-72.4127 69.7726,-74.4156 79.1547,-79.3378 80.1764,-72.4127"/>
</g>
<!-- Node11 -->
<g id="node11" class="node"><title>Node11</title>
<g id="a_node11"><a xlink:title=" ">
<polygon fill="none" stroke="#bfbfbf" points="87.5957,-56.5 87.5957,-75.5 125.596,-75.5 125.596,-56.5 87.5957,-56.5"/>
<text text-anchor="middle" x="106.596" y="-63.5" font-family="Helvetica,sans-Serif" font-size="10.00">array</text>
</a>
</g>
</g>
<!-- Node9&#45;&gt;Node11 -->
<g id="edge15" class="edge"><title>Node9&#45;&gt;Node11</title>
<path fill="none" stroke="midnightblue" d="M921.993,-124.918C759.523,-120.233 304.784,-105.024 135.711,-75.6614"/>
<polygon fill="midnightblue" stroke="midnightblue" points="136.176,-72.1887 125.711,-73.8442 134.924,-79.0759 136.176,-72.1887"/>
</g>
<!-- Node12 -->
<g id="node12" class="node"><title>Node12</title>
<g id="a_node12"><a xlink:title=" ">
<polygon fill="none" stroke="#bfbfbf" points="144.096,-56.5 144.096,-75.5 193.096,-75.5 193.096,-56.5 144.096,-56.5"/>
<text text-anchor="middle" x="168.596" y="-63.5" font-family="Helvetica,sans-Serif" font-size="10.00">cassert</text>
</a>
</g>
</g>
<!-- Node9&#45;&gt;Node12 -->
<g id="edge16" class="edge"><title>Node9&#45;&gt;Node12</title>
<path fill="none" stroke="midnightblue" d="M922.089,-126.56C793.493,-125.862 476.626,-119.6 203.465,-75.7902"/>
<polygon fill="midnightblue" stroke="midnightblue" points="203.79,-72.2973 193.358,-74.1488 202.668,-79.2067 203.79,-72.2973"/>
</g>
<!-- Node13 -->
<g id="node13" class="node"><title>Node13</title>
<g id="a_node13"><a xlink:title=" ">
<polygon fill="none" stroke="#bfbfbf" points="211.596,-56.5 211.596,-75.5 257.596,-75.5 257.596,-56.5 211.596,-56.5"/>
<text text-anchor="middle" x="234.596" y="-63.5" font-family="Helvetica,sans-Serif" font-size="10.00">cctype</text>
</a>
</g>
</g>
<!-- Node9&#45;&gt;Node13 -->
<g id="edge17" class="edge"><title>Node9&#45;&gt;Node13</title>
<path fill="none" stroke="midnightblue" d="M921.8,-126.372C800.711,-125.239 514.831,-118.079 267.769,-75.8538"/>
<polygon fill="midnightblue" stroke="midnightblue" points="268.339,-72.4005 257.888,-74.1426 267.144,-79.2978 268.339,-72.4005"/>
</g>
<!-- Node14 -->
<g id="node14" class="node"><title>Node14</title>
<g id="a_node14"><a xlink:title=" ">
<polygon fill="none" stroke="#bfbfbf" points="275.596,-56.5 275.596,-75.5 325.596,-75.5 325.596,-56.5 275.596,-56.5"/>
<text text-anchor="middle" x="300.596" y="-63.5" font-family="Helvetica,sans-Serif" font-size="10.00">ciso646</text>
</a>
</g>
</g>
<!-- Node9&#45;&gt;Node14 -->
<g id="edge18" class="edge"><title>Node9&#45;&gt;Node14</title>
<path fill="none" stroke="midnightblue" d="M921.814,-125.452C809.511,-122.682 556.721,-112.742 335.894,-75.9138"/>
<polygon fill="midnightblue" stroke="midnightblue" points="336.179,-72.4124 325.736,-74.1966 335.012,-79.3145 336.179,-72.4124"/>
</g>
<!-- Node15 -->
<g id="node15" class="node"><title>Node15</title>
<g id="a_node15"><a xlink:title=" ">
<polygon fill="none" stroke="#bfbfbf" points="343.596,-56.5 343.596,-75.5 387.596,-75.5 387.596,-56.5 343.596,-56.5"/>
<text text-anchor="middle" x="365.596" y="-63.5" font-family="Helvetica,sans-Serif" font-size="10.00">cmath</text>
</a>
</g>
</g>
<!-- Node9&#45;&gt;Node15 -->
<g id="edge19" class="edge"><title>Node9&#45;&gt;Node15</title>
<path fill="none" stroke="midnightblue" d="M922.062,-125.231C818.053,-122.151 594.265,-111.806 397.749,-75.8613"/>
<polygon fill="midnightblue" stroke="midnightblue" points="398.291,-72.4022 387.821,-74.0189 397.014,-79.2847 398.291,-72.4022"/>
</g>
<!-- Node16 -->
<g id="node16" class="node"><title>Node16</title>
<g id="a_node16"><a xlink:title=" ">
<polygon fill="none" stroke="#bfbfbf" points="405.596,-56.5 405.596,-75.5 453.596,-75.5 453.596,-56.5 405.596,-56.5"/>
<text text-anchor="middle" x="429.596" y="-63.5" font-family="Helvetica,sans-Serif" font-size="10.00">cstddef</text>
</a>
</g>
</g>
<!-- Node9&#45;&gt;Node16 -->
<g id="edge20" class="edge"><title>Node9&#45;&gt;Node16</title>
<path fill="none" stroke="midnightblue" d="M921.885,-124.011C827.212,-119.291 634.949,-106.779 463.593,-75.882"/>
<polygon fill="midnightblue" stroke="midnightblue" points="464.104,-72.4176 453.638,-74.0618 462.845,-79.3035 464.104,-72.4176"/>
</g>
<!-- Node17 -->
<g id="node17" class="node"><title>Node17</title>
<g id="a_node17"><a xlink:title=" ">
<polygon fill="none" stroke="#bfbfbf" points="472.096,-56.5 472.096,-75.5 517.096,-75.5 517.096,-56.5 472.096,-56.5"/>
<text text-anchor="middle" x="494.596" y="-63.5" font-family="Helvetica,sans-Serif" font-size="10.00">cstdlib</text>
</a>
</g>
</g>
<!-- Node9&#45;&gt;Node17 -->
<g id="edge22" class="edge"><title>Node9&#45;&gt;Node17</title>
<path fill="none" stroke="midnightblue" d="M922.085,-123.059C837.122,-117.387 674.608,-104.001 527.338,-75.8202"/>
<polygon fill="midnightblue" stroke="midnightblue" points="527.695,-72.3243 517.211,-73.8541 526.361,-79.196 527.695,-72.3243"/>
</g>
<!-- Node18 -->
<g id="node18" class="node"><title>Node18</title>
<g id="a_node18"><a xlink:title=" ">
<polygon fill="none" stroke="#bfbfbf" points="535.596,-56.5 535.596,-75.5 581.596,-75.5 581.596,-56.5 535.596,-56.5"/>
<text text-anchor="middle" x="558.596" y="-63.5" font-family="Helvetica,sans-Serif" font-size="10.00">cstring</text>
</a>
</g>
</g>
<!-- Node9&#45;&gt;Node18 -->
<g id="edge23" class="edge"><title>Node9&#45;&gt;Node18</title>
<path fill="none" stroke="midnightblue" d="M922.013,-121.592C847.352,-114.744 714.241,-100.547 591.838,-75.9996"/>
<polygon fill="midnightblue" stroke="midnightblue" points="592.415,-72.5454 581.918,-73.9825 591.02,-79.405 592.415,-72.5454"/>
</g>
<!-- Node19 -->
<g id="node19" class="node"><title>Node19</title>
<g id="a_node19"><a xlink:title=" ">
<polygon fill="none" stroke="#bfbfbf" points="600.096,-56.5 600.096,-75.5 665.096,-75.5 665.096,-56.5 600.096,-56.5"/>
<text text-anchor="middle" x="632.596" y="-63.5" font-family="Helvetica,sans-Serif" font-size="10.00">forward_list</text>
</a>
</g>
</g>
<!-- Node9&#45;&gt;Node19 -->
<g id="edge24" class="edge"><title>Node9&#45;&gt;Node19</title>
<path fill="none" stroke="midnightblue" d="M922.073,-117.688C862.547,-108.535 767.409,-93.3817 675.191,-76.0347"/>
<polygon fill="midnightblue" stroke="midnightblue" points="675.601,-72.5502 665.124,-74.13 674.299,-79.4281 675.601,-72.5502"/>
</g>
<!-- Node20 -->
<g id="node20" class="node"><title>Node20</title>
<g id="a_node20"><a xlink:title=" ">
<polygon fill="none" stroke="#bfbfbf" points="683.596,-56.5 683.596,-75.5 741.596,-75.5 741.596,-56.5 683.596,-56.5"/>
<text text-anchor="middle" x="712.596" y="-63.5" font-family="Helvetica,sans-Serif" font-size="10.00">functional</text>
</a>
</g>
</g>
<!-- Node9&#45;&gt;Node20 -->
<g id="edge25" class="edge"><title>Node9&#45;&gt;Node20</title>
<path fill="none" stroke="midnightblue" d="M921.926,-113.896C877.684,-104.328 815.246,-90.6896 751.462,-76.1709"/>
<polygon fill="midnightblue" stroke="midnightblue" points="752.158,-72.74 741.63,-73.9284 750.602,-79.5647 752.158,-72.74"/>
</g>
<!-- Node21 -->
<g id="node21" class="node"><title>Node21</title>
<g id="a_node21"><a xlink:title=" ">
<polygon fill="none" stroke="#bfbfbf" points="760.096,-56.5 760.096,-75.5 833.096,-75.5 833.096,-56.5 760.096,-56.5"/>
<text text-anchor="middle" x="796.596" y="-63.5" font-family="Helvetica,sans-Serif" font-size="10.00">initializer_list</text>
</a>
</g>
</g>
<!-- Node9&#45;&gt;Node21 -->
<g id="edge26" class="edge"><title>Node9&#45;&gt;Node21</title>
<path fill="none" stroke="midnightblue" d="M936.99,-112.399C905.196,-102.118 862.621,-88.3506 832.721,-78.6818"/>
<polygon fill="midnightblue" stroke="midnightblue" points="833.693,-75.3176 823.101,-75.5709 831.539,-81.978 833.693,-75.3176"/>
</g>
<!-- Node22 -->
<g id="node22" class="node"><title>Node22</title>
<g id="a_node22"><a xlink:title=" ">
<polygon fill="none" stroke="#bfbfbf" points="851.596,-56.5 851.596,-75.5 901.596,-75.5 901.596,-56.5 851.596,-56.5"/>
<text text-anchor="middle" x="876.596" y="-63.5" font-family="Helvetica,sans-Serif" font-size="10.00">iomanip</text>
</a>
</g>
</g>
<!-- Node9&#45;&gt;Node22 -->
<g id="edge27" class="edge"><title>Node9&#45;&gt;Node22</title>
<path fill="none" stroke="midnightblue" d="M955.949,-112.399C939.279,-102.862 917.365,-90.3248 900.79,-80.8422"/>
<polygon fill="midnightblue" stroke="midnightblue" points="902.147,-77.5858 891.729,-75.6578 898.67,-83.6617 902.147,-77.5858"/>
</g>
<!-- Node23 -->
<g id="node23" class="node"><title>Node23</title>
<g id="a_node23"><a xlink:title=" ">
<polygon fill="none" stroke="#bfbfbf" points="919.596,-56.5 919.596,-75.5 973.596,-75.5 973.596,-56.5 919.596,-56.5"/>
<text text-anchor="middle" x="946.596" y="-63.5" font-family="Helvetica,sans-Serif" font-size="10.00">iostream</text>
</a>
</g>
</g>
<!-- Node9&#45;&gt;Node23 -->
<g id="edge28" class="edge"><title>Node9&#45;&gt;Node23</title>
<path fill="none" stroke="midnightblue" d="M972.538,-112.399C967.75,-104.021 961.64,-93.3269 956.552,-84.4229"/>
<polygon fill="midnightblue" stroke="midnightblue" points="959.543,-82.6037 951.543,-75.6578 953.466,-86.0767 959.543,-82.6037"/>
</g>
<!-- Node24 -->
<g id="node24" class="node"><title>Node24</title>
<g id="a_node24"><a xlink:title=" ">
<polygon fill="none" stroke="#bfbfbf" points="992.096,-56.5 992.096,-75.5 1039.1,-75.5 1039.1,-56.5 992.096,-56.5"/>
<text text-anchor="middle" x="1015.6" y="-63.5" font-family="Helvetica,sans-Serif" font-size="10.00">iterator</text>
</a>
</g>
</g>
<!-- Node9&#45;&gt;Node24 -->
<g id="edge29" class="edge"><title>Node9&#45;&gt;Node24</title>
<path fill="none" stroke="midnightblue" d="M988.89,-112.399C993.819,-104.021 1000.11,-93.3269 1005.35,-84.4229"/>
<polygon fill="midnightblue" stroke="midnightblue" points="1008.45,-86.0517 1010.5,-75.6578 1002.42,-82.5025 1008.45,-86.0517"/>
</g>
<!-- Node25 -->
<g id="node25" class="node"><title>Node25</title>
<g id="a_node25"><a xlink:title=" ">
<polygon fill="none" stroke="#bfbfbf" points="1057.6,-56.5 1057.6,-75.5 1097.6,-75.5 1097.6,-56.5 1057.6,-56.5"/>
<text text-anchor="middle" x="1077.6" y="-63.5" font-family="Helvetica,sans-Serif" font-size="10.00">limits</text>
</a>
</g>
</g>
<!-- Node9&#45;&gt;Node25 -->
<g id="edge30" class="edge"><title>Node9&#45;&gt;Node25</title>
<path fill="none" stroke="midnightblue" d="M1003.58,-112.399C1018.99,-102.951 1039.19,-90.5589 1054.59,-81.1089"/>
<polygon fill="midnightblue" stroke="midnightblue" points="1056.79,-83.87 1063.48,-75.6578 1053.13,-77.9031 1056.79,-83.87"/>
</g>
<!-- Node26 -->
<g id="node26" class="node"><title>Node26</title>
<g id="a_node26"><a xlink:title=" ">
<polygon fill="none" stroke="#bfbfbf" points="1115.6,-56.5 1115.6,-75.5 1157.6,-75.5 1157.6,-56.5 1115.6,-56.5"/>
<text text-anchor="middle" x="1136.6" y="-63.5" font-family="Helvetica,sans-Serif" font-size="10.00">locale</text>
</a>
</g>
</g>
<!-- Node9&#45;&gt;Node26 -->
<g id="edge31" class="edge"><title>Node9&#45;&gt;Node26</title>
<path fill="none" stroke="midnightblue" d="M1017.57,-112.399C1044.45,-102.145 1080.43,-88.4232 1105.77,-78.7584"/>
<polygon fill="midnightblue" stroke="midnightblue" points="1107.15,-81.9756 1115.25,-75.1417 1104.66,-75.4352 1107.15,-81.9756"/>
</g>
<!-- Node27 -->
<g id="node27" class="node"><title>Node27</title>
<g id="a_node27"><a xlink:title=" ">
<polygon fill="none" stroke="#bfbfbf" points="1176.1,-56.5 1176.1,-75.5 1211.1,-75.5 1211.1,-56.5 1176.1,-56.5"/>
<text text-anchor="middle" x="1193.6" y="-63.5" font-family="Helvetica,sans-Serif" font-size="10.00">map</text>
</a>
</g>
</g>
<!-- Node9&#45;&gt;Node27 -->
<g id="edge32" class="edge"><title>Node9&#45;&gt;Node27</title>
<path fill="none" stroke="midnightblue" d="M1035.76,-112.397C1070.65,-103.279 1116.87,-90.8292 1166.32,-75.9559"/>
<polygon fill="midnightblue" stroke="midnightblue" points="1167.37,-79.2972 1175.92,-73.0503 1165.34,-72.5974 1167.37,-79.2972"/>
</g>
<!-- Node28 -->
<g id="node28" class="node"><title>Node28</title>
<g id="a_node28"><a xlink:title=" ">
<polygon fill="none" stroke="#bfbfbf" points="1229.6,-56.5 1229.6,-75.5 1281.6,-75.5 1281.6,-56.5 1229.6,-56.5"/>
<text text-anchor="middle" x="1255.6" y="-63.5" font-family="Helvetica,sans-Serif" font-size="10.00">memory</text>
</a>
</g>
</g>
<!-- Node9&#45;&gt;Node28 -->
<g id="edge33" class="edge"><title>Node9&#45;&gt;Node28</title>
<path fill="none" stroke="midnightblue" d="M1039.17,-114.749C1085.36,-105.339 1151.66,-91.5193 1219.29,-76"/>
<polygon fill="midnightblue" stroke="midnightblue" points="1220.32,-79.355 1229.28,-73.6983 1218.75,-72.5339 1220.32,-79.355"/>
</g>
<!-- Node29 -->
<g id="node29" class="node"><title>Node29</title>
<g id="a_node29"><a xlink:title=" ">
<polygon fill="none" stroke="#bfbfbf" points="1300.1,-56.5 1300.1,-75.5 1351.1,-75.5 1351.1,-56.5 1300.1,-56.5"/>
<text text-anchor="middle" x="1325.6" y="-63.5" font-family="Helvetica,sans-Serif" font-size="10.00">numeric</text>
</a>
</g>
</g>
<!-- Node9&#45;&gt;Node29 -->
<g id="edge34" class="edge"><title>Node9&#45;&gt;Node29</title>
<path fill="none" stroke="midnightblue" d="M1039.16,-118.567C1099.58,-110.022 1196.68,-95.2826 1290.14,-75.9264"/>
<polygon fill="midnightblue" stroke="midnightblue" points="1290.97,-79.3277 1300.04,-73.8542 1289.54,-72.476 1290.97,-79.3277"/>
</g>
<!-- Node30 -->
<g id="node30" class="node"><title>Node30</title>
<g id="a_node30"><a xlink:title=" ">
<polygon fill="none" stroke="#bfbfbf" points="1369.6,-56.5 1369.6,-75.5 1421.6,-75.5 1421.6,-56.5 1369.6,-56.5"/>
<text text-anchor="middle" x="1395.6" y="-63.5" font-family="Helvetica,sans-Serif" font-size="10.00">sstream</text>
</a>
</g>
</g>
<!-- Node9&#45;&gt;Node30 -->
<g id="edge35" class="edge"><title>Node9&#45;&gt;Node30</title>
<path fill="none" stroke="midnightblue" d="M1039.36,-120.743C1112.1,-113.156 1239.89,-98.3215 1359.28,-75.8441"/>
<polygon fill="midnightblue" stroke="midnightblue" points="1360.16,-79.2397 1369.33,-73.9302 1358.85,-72.3633 1360.16,-79.2397"/>
</g>
<!-- Node31 -->
<g id="node31" class="node"><title>Node31</title>
<g id="a_node31"><a xlink:title=" ">
<polygon fill="none" stroke="#bfbfbf" points="1440.1,-56.5 1440.1,-75.5 1499.1,-75.5 1499.1,-56.5 1440.1,-56.5"/>
<text text-anchor="middle" x="1469.6" y="-63.5" font-family="Helvetica,sans-Serif" font-size="10.00">stdexcept</text>
</a>
</g>
</g>
<!-- Node9&#45;&gt;Node31 -->
<g id="edge36" class="edge"><title>Node9&#45;&gt;Node31</title>
<path fill="none" stroke="midnightblue" d="M1039.15,-122.094C1123.37,-115.278 1283.7,-100.522 1429.81,-75.9438"/>
<polygon fill="midnightblue" stroke="midnightblue" points="1430.59,-79.3621 1439.86,-74.2341 1429.41,-72.4613 1430.59,-79.3621"/>
</g>
<!-- Node32 -->
<g id="node32" class="node"><title>Node32</title>
<g id="a_node32"><a xlink:title=" ">
<polygon fill="none" stroke="#bfbfbf" points="1517.6,-56.5 1517.6,-75.5 1579.6,-75.5 1579.6,-56.5 1517.6,-56.5"/>
<text text-anchor="middle" x="1548.6" y="-63.5" font-family="Helvetica,sans-Serif" font-size="10.00">type_traits</text>
</a>
</g>
</g>
<!-- Node9&#45;&gt;Node32 -->
<g id="edge38" class="edge"><title>Node9&#45;&gt;Node32</title>
<path fill="none" stroke="midnightblue" d="M1039.37,-123.188C1135.22,-117.278 1331.26,-103.069 1507.36,-75.829"/>
<polygon fill="midnightblue" stroke="midnightblue" points="1507.99,-79.2736 1517.33,-74.2701 1506.91,-72.3577 1507.99,-79.2736"/>
</g>
<!-- Node33 -->
<g id="node33" class="node"><title>Node33</title>
<g id="a_node33"><a xlink:title=" ">
<polygon fill="none" stroke="#bfbfbf" points="1597.6,-56.5 1597.6,-75.5 1637.6,-75.5 1637.6,-56.5 1597.6,-56.5"/>
<text text-anchor="middle" x="1617.6" y="-63.5" font-family="Helvetica,sans-Serif" font-size="10.00">utility</text>
</a>
</g>
</g>
<!-- Node9&#45;&gt;Node33 -->
<g id="edge39" class="edge"><title>Node9&#45;&gt;Node33</title>
<path fill="none" stroke="midnightblue" d="M1039.44,-125.857C1146.91,-123.762 1382.01,-114.925 1587.39,-75.8117"/>
<polygon fill="midnightblue" stroke="midnightblue" points="1588.3,-79.2002 1597.46,-73.8655 1586.98,-72.3274 1588.3,-79.2002"/>
</g>
<!-- Node34 -->
<g id="node34" class="node"><title>Node34</title>
<g id="a_node34"><a xlink:title=" ">
<polygon fill="none" stroke="#bfbfbf" points="1656.1,-56.5 1656.1,-75.5 1699.1,-75.5 1699.1,-56.5 1656.1,-56.5"/>
<text text-anchor="middle" x="1677.6" y="-63.5" font-family="Helvetica,sans-Serif" font-size="10.00">cstdio</text>
</a>
</g>
</g>
<!-- Node9&#45;&gt;Node34 -->
<g id="edge41" class="edge"><title>Node9&#45;&gt;Node34</title>
<path fill="none" stroke="midnightblue" d="M1039.46,-126.107C1154.5,-124.46 1417.11,-116.372 1645.87,-75.7079"/>
<polygon fill="midnightblue" stroke="midnightblue" points="1646.83,-79.0915 1656.05,-73.8726 1645.59,-72.2026 1646.83,-79.0915"/>
</g>
<!-- Node35&#45;&gt;Node2 -->
<g id="edge43" class="edge"><title>Node35&#45;&gt;Node2</title>
<path fill="none" stroke="midnightblue" d="M1790.61,-179.46C1778.84,-171.51 1762.53,-158.564 1753.6,-143 1743.46,-125.357 1740.07,-102.026 1738.99,-85.8904"/>
<polygon fill="midnightblue" stroke="midnightblue" points="1742.47,-85.4378 1738.54,-75.5973 1735.48,-85.7384 1742.47,-85.4378"/>
</g>
<!-- Node35&#45;&gt;Node6 -->
<g id="edge44" class="edge"><title>Node35&#45;&gt;Node6</title>
<path fill="none" stroke="midnightblue" d="M1804.74,-179.475C1804.88,-171.08 1805.1,-157.981 1805.28,-147.163"/>
<polygon fill="midnightblue" stroke="midnightblue" points="1808.78,-147.067 1805.45,-137.009 1801.79,-146.949 1808.78,-147.067"/>
</g>
<!-- Node35&#45;&gt;Node7 -->
<g id="edge45" class="edge"><title>Node35&#45;&gt;Node7</title>
<path fill="none" stroke="midnightblue" d="M1837.91,-179.798C1856.91,-173.225 1879.16,-161.884 1890.6,-143 1901.41,-125.131 1893.9,-100.888 1886.34,-84.6319"/>
<polygon fill="midnightblue" stroke="midnightblue" points="1889.44,-83.0073 1881.8,-75.6709 1883.2,-86.1728 1889.44,-83.0073"/>
</g>
</g>
</svg>
        <g id="navigator" transform="translate(0 0)" fill="#404254">
                <rect fill="#f2f5e9" fill-opacity="0.5" stroke="#606060" stroke-width=".5" x="0" y="0" width="60" height="60"/>
                <use id="zoomplus" xlink:href="#zoomPlus" x="17" y="9" onmousedown="handleZoom(evt,'in')"/>
                <use id="zoomminus" xlink:href="#zoomMin" x="42" y="9" onmousedown="handleZoom(evt,'out')"/>
                <use id="reset" xlink:href="#resetDef" x="30" y="36" onmousedown="handleReset()"/>
                <g id="arrowUp" xlink:href="#dirArrow" transform="translate(30 24)" onmousedown="handlePan(0,-1)">
                  <use xlink:href="#rim" fill="#404040">
                        <set attributeName="fill" to="#808080" begin="arrowUp.mouseover" end="arrowUp.mouseout"/>
                  </use>
                  <path fill="none" stroke="white" stroke-width="1.5" d="M0,-3.0v7 M-2.5,-0.5L0,-3.0L2.5,-0.5"/>
                </g>
                <g id="arrowRight" xlink:href="#dirArrow" transform="rotate(90) translate(36 -43)" onmousedown="handlePan(1,0)">
                  <use xlink:href="#rim" fill="#404040">
                        <set attributeName="fill" to="#808080" begin="arrowRight.mouseover" end="arrowRight.mouseout"/>
                  </use>
                  <path fill="none" stroke="white" stroke-width="1.5" d="M0,-3.0v7 M-2.5,-0.5L0,-3.0L2.5,-0.5"/>
                </g>
                <g id="arrowDown" xlink:href="#dirArrow" transform="rotate(180) translate(-30 -48)" onmousedown="handlePan(0,1)">
                  <use xlink:href="#rim" fill="#404040">
                        <set attributeName="fill" to="#808080" begin="arrowDown.mouseover" end="arrowDown.mouseout"/>
                  </use>
                  <path fill="none" stroke="white" stroke-width="1.5" d="M0,-3.0v7 M-2.5,-0.5L0,-3.0L2.5,-0.5"/>
                </g>
                <g id="arrowLeft" xlink:href="#dirArrow" transform="rotate(270) translate(-36 17)" onmousedown="handlePan(-1,0)">
                  <use xlink:href="#rim" fill="#404040">
                        <set attributeName="fill" to="#808080" begin="arrowLeft.mouseover" end="arrowLeft.mouseout"/>
                  </use>
                  <path fill="none" stroke="white" stroke-width="1.5" d="M0,-3.0v7 M-2.5,-0.5L0,-3.0L2.5,-0.5"/>
                </g>
        </g>
        <svg viewBox="0 0 15 15" width="100%" height="30px" preserveAspectRatio="xMaxYMin meet">
         <g id="arrow_out" transform="scale(0.3 0.3)">
          <a xlink:href="attribute_serializer_8h__incl_org.svg" target="_base">
           <rect id="button" ry="5" rx="5" y="6" x="6" height="38" width="38"
                fill="#f2f5e9" fill-opacity="0.5" stroke="#606060" stroke-width="1.0"/>
           <path id="arrow"
             d="M 11.500037,31.436501 C 11.940474,20.09759 22.043105,11.32322 32.158766,21.979434 L 37.068811,17.246167 C 37.068811,17.246167 37.088388,32 37.088388,32 L 22.160133,31.978069 C 22.160133,31.978069 26.997745,27.140456 26.997745,27.140456 C 18.528582,18.264221 13.291696,25.230495 11.500037,31.436501 z"
             style="fill:#404040;"/>
          </a>
         </g>
        </svg>
</svg>
