<?xml version="1.0" encoding="UTF-8" standalone="no"?>
<!DOCTYPE svg PUBLIC "-//W3C//DTD SVG 1.1//EN"
 "http://www.w3.org/Graphics/SVG/1.1/DTD/svg11.dtd">
<!-- Generated by graphviz version 2.38.0 (20140413.2041)
 -->
<!-- Title: Utils::Class_t Pages: 1 -->
<svg width="202pt" height="226pt"
 viewBox="0.00 0.00 201.50 226.00" xmlns="http://www.w3.org/2000/svg" xmlns:xlink="http://www.w3.org/1999/xlink">
<g id="graph0" class="graph" transform="scale(1 1) rotate(0) translate(4 222)">
<title>Utils::Class_t</title>
<!-- Node1 -->
<g id="node1" class="node"><title>Node1</title>
<g id="a_node1"><a xlink:title=" ">
<polygon fill="#bfbfbf" stroke="black" points="66,-0.5 66,-101.5 141,-101.5 141,-0.5 66,-0.5"/>
<text text-anchor="middle" x="103.5" y="-89.5" font-family="Helvetica,sans-Serif" font-size="10.00">Utils::Class_t</text>
<polyline fill="none" stroke="black" points="66,-82.5 141,-82.5 "/>
<text text-anchor="middle" x="103.5" y="-70.5" font-family="Helvetica,sans-Serif" font-size="10.00"> </text>
<polyline fill="none" stroke="black" points="66,-63.5 141,-63.5 "/>
<text text-anchor="start" x="74" y="-51.5" font-family="Helvetica,sans-Serif" font-size="10.00">+ Class_t()</text>
<text text-anchor="start" x="74" y="-40.5" font-family="Helvetica,sans-Serif" font-size="10.00">+ Class_t()</text>
<text text-anchor="start" x="74" y="-29.5" font-family="Helvetica,sans-Serif" font-size="10.00">+ ~Class_t()</text>
<text text-anchor="start" x="74" y="-18.5" font-family="Helvetica,sans-Serif" font-size="10.00">+ addField()</text>
<text text-anchor="start" x="74" y="-7.5" font-family="Helvetica,sans-Serif" font-size="10.00">+ getField()</text>
</a>
</g>
</g>
<!-- Node2 -->
<g id="node2" class="node"><title>Node2</title>
<g id="a_node2"><a xlink:title=" ">
<polygon fill="none" stroke="#bfbfbf" points="0,-149.5 0,-217.5 113,-217.5 113,-149.5 0,-149.5"/>
<text text-anchor="start" x="8" y="-205.5" font-family="Helvetica,sans-Serif" font-size="10.00">map&lt; std::string, Utils</text>
<text text-anchor="middle" x="56.5" y="-194.5" font-family="Helvetica,sans-Serif" font-size="10.00">::Field_t * &gt;</text>
<polyline fill="none" stroke="#bfbfbf" points="0,-187.5 113,-187.5 "/>
<text text-anchor="middle" x="56.5" y="-175.5" font-family="Helvetica,sans-Serif" font-size="10.00"> </text>
<polyline fill="none" stroke="#bfbfbf" points="0,-168.5 113,-168.5 "/>
<text text-anchor="middle" x="56.5" y="-156.5" font-family="Helvetica,sans-Serif" font-size="10.00"> </text>
</a>
</g>
</g>
<!-- Node2&#45;&gt;Node1 -->
<g id="edge1" class="edge"><title>Node2&#45;&gt;Node1</title>
<path fill="none" stroke="#404040" d="M68.4817,-149.232C72.3977,-138.359 76.8805,-125.912 81.3018,-113.636"/>
<polygon fill="none" stroke="#404040" points="81.4351,-113.265 79.7048,-106.265 85.5013,-101.975 87.2315,-108.976 81.4351,-113.265"/>
<text text-anchor="middle" x="95.5" y="-123" font-family="Helvetica,sans-Serif" font-size="10.00"> +fields</text>
</g>
<!-- Node3 -->
<g id="node3" class="node"><title>Node3</title>
<g id="a_node3"><a xlink:title=" ">
<polygon fill="none" stroke="#bfbfbf" points="131,-155 131,-212 172,-212 172,-155 131,-155"/>
<text text-anchor="middle" x="151.5" y="-200" font-family="Helvetica,sans-Serif" font-size="10.00">string</text>
<polyline fill="none" stroke="#bfbfbf" points="131,-193 172,-193 "/>
<text text-anchor="middle" x="151.5" y="-181" font-family="Helvetica,sans-Serif" font-size="10.00"> </text>
<polyline fill="none" stroke="#bfbfbf" points="131,-174 172,-174 "/>
<text text-anchor="middle" x="151.5" y="-162" font-family="Helvetica,sans-Serif" font-size="10.00"> </text>
</a>
</g>
</g>
<!-- Node3&#45;&gt;Node1 -->
<g id="edge2" class="edge"><title>Node3&#45;&gt;Node1</title>
<path fill="none" stroke="#404040" d="M141.32,-154.824C136.826,-142.604 131.349,-127.716 125.976,-113.106"/>
<polygon fill="none" stroke="#404040" points="125.851,-112.767 120.026,-108.517 121.709,-101.505 127.534,-105.755 125.851,-112.767"/>
<text text-anchor="middle" x="162.5" y="-123" font-family="Helvetica,sans-Serif" font-size="10.00"> +class_name</text>
</g>
</g>
</svg>
