<?xml version="1.0" encoding="UTF-8" standalone="no"?>
<!DOCTYPE svg PUBLIC "-//W3C//DTD SVG 1.1//EN"
 "http://www.w3.org/Graphics/SVG/1.1/DTD/svg11.dtd">
<!-- Generated by graphviz version 2.38.0 (20140413.2041)
 -->
<!-- Title: include/utils/serializers/instructionSerializer.h Pages: 1 -->
<svg width="1971pt" height="397pt"
 viewBox="0.00 0.00 1970.59 397.00" xmlns="http://www.w3.org/2000/svg" xmlns:xlink="http://www.w3.org/1999/xlink">
<g id="graph0" class="graph" transform="scale(1 1) rotate(0) translate(4 393)">
<title>include/utils/serializers/instructionSerializer.h</title>
<!-- Node1 -->
<g id="node1" class="node"><title>Node1</title>
<g id="a_node1"><a xlink:title=" ">
<polygon fill="#bfbfbf" stroke="black" points="1694.59,-358.5 1694.59,-388.5 1810.59,-388.5 1810.59,-358.5 1694.59,-358.5"/>
<text text-anchor="start" x="1702.59" y="-376.5" font-family="Helvetica,sans-Serif" font-size="10.00">include/utils/serializers</text>
<text text-anchor="middle" x="1752.59" y="-365.5" font-family="Helvetica,sans-Serif" font-size="10.00">/instructionSerializer.h</text>
</a>
</g>
</g>
<!-- Node2 -->
<g id="node2" class="node"><title>Node2</title>
<g id="a_node2"><a xlink:title=" ">
<polygon fill="none" stroke="#bfbfbf" points="1865.59,-56.5 1865.59,-75.5 1907.59,-75.5 1907.59,-56.5 1865.59,-56.5"/>
<text text-anchor="middle" x="1886.59" y="-63.5" font-family="Helvetica,sans-Serif" font-size="10.00">vector</text>
</a>
</g>
</g>
<!-- Node1&#45;&gt;Node2 -->
<g id="edge1" class="edge"><title>Node1&#45;&gt;Node2</title>
<path fill="none" stroke="midnightblue" d="M1810.81,-363.097C1872.96,-349.351 1962.59,-317.185 1962.59,-246 1962.59,-246 1962.59,-246 1962.59,-188 1962.59,-144.475 1926.89,-103.775 1904.43,-82.4715"/>
<polygon fill="midnightblue" stroke="midnightblue" points="1906.58,-79.6984 1896.84,-75.5313 1901.86,-84.8634 1906.58,-79.6984"/>
</g>
<!-- Node3 -->
<g id="node3" class="node"><title>Node3</title>
<g id="a_node3"><a xlink:href="../../d4/db4/classfile_8h.xhtml" target="_top" xlink:title=" ">
<polygon fill="none" stroke="black" points="1676.59,-235.5 1676.59,-254.5 1736.59,-254.5 1736.59,-235.5 1676.59,-235.5"/>
<text text-anchor="middle" x="1706.59" y="-242.5" font-family="Helvetica,sans-Serif" font-size="10.00">classfile.h</text>
</a>
</g>
</g>
<!-- Node1&#45;&gt;Node3 -->
<g id="edge2" class="edge"><title>Node1&#45;&gt;Node3</title>
<path fill="none" stroke="midnightblue" d="M1750.36,-358.28C1747.48,-341.712 1741.72,-313.709 1732.59,-291 1728.72,-281.373 1723.08,-271.314 1718.04,-263.154"/>
<polygon fill="midnightblue" stroke="midnightblue" points="1720.89,-261.114 1712.55,-254.588 1715,-264.894 1720.89,-261.114"/>
</g>
<!-- Node36 -->
<g id="node36" class="node"><title>Node36</title>
<g id="a_node36"><a xlink:href="../../d2/dbc/constpool_serializer_8h.xhtml" target="_top" xlink:title=" ">
<polygon fill="none" stroke="black" points="1597.09,-291.5 1597.09,-321.5 1724.09,-321.5 1724.09,-291.5 1597.09,-291.5"/>
<text text-anchor="start" x="1605.09" y="-309.5" font-family="Helvetica,sans-Serif" font-size="10.00">utils/serializers/constpool</text>
<text text-anchor="middle" x="1660.59" y="-298.5" font-family="Helvetica,sans-Serif" font-size="10.00">Serializer.h</text>
</a>
</g>
</g>
<!-- Node1&#45;&gt;Node36 -->
<g id="edge47" class="edge"><title>Node1&#45;&gt;Node36</title>
<path fill="none" stroke="midnightblue" d="M1732.63,-358.396C1719.85,-349.367 1703.07,-337.514 1688.93,-327.518"/>
<polygon fill="midnightblue" stroke="midnightblue" points="1690.7,-324.488 1680.52,-321.577 1686.66,-330.205 1690.7,-324.488"/>
</g>
<!-- Node3&#45;&gt;Node2 -->
<g id="edge3" class="edge"><title>Node3&#45;&gt;Node2</title>
<path fill="none" stroke="midnightblue" d="M1736.63,-239.875C1779.28,-233.37 1854.15,-219.342 1871.59,-199 1898.91,-167.147 1894.97,-113.9 1890.41,-85.7553"/>
<polygon fill="midnightblue" stroke="midnightblue" points="1893.81,-84.8817 1888.57,-75.6734 1886.92,-86.1396 1893.81,-84.8817"/>
</g>
<!-- Node4 -->
<g id="node4" class="node"><title>Node4</title>
<g id="a_node4"><a xlink:href="../../d0/d36/constant_pool_8h.xhtml" target="_top" xlink:title=" ">
<polygon fill="none" stroke="black" points="1655.09,-179.5 1655.09,-198.5 1758.09,-198.5 1758.09,-179.5 1655.09,-179.5"/>
<text text-anchor="middle" x="1706.59" y="-186.5" font-family="Helvetica,sans-Serif" font-size="10.00">utils/constantPool.h</text>
</a>
</g>
</g>
<!-- Node3&#45;&gt;Node4 -->
<g id="edge4" class="edge"><title>Node3&#45;&gt;Node4</title>
<path fill="none" stroke="midnightblue" d="M1706.59,-235.083C1706.59,-228.006 1706.59,-217.861 1706.59,-208.986"/>
<polygon fill="midnightblue" stroke="midnightblue" points="1710.09,-208.751 1706.59,-198.751 1703.09,-208.751 1710.09,-208.751"/>
</g>
<!-- Node7 -->
<g id="node7" class="node"><title>Node7</title>
<g id="a_node7"><a xlink:href="../../d9/d49/types_8h.xhtml" target="_top" xlink:title=" ">
<polygon fill="none" stroke="black" points="1777.59,-56.5 1777.59,-75.5 1847.59,-75.5 1847.59,-56.5 1777.59,-56.5"/>
<text text-anchor="middle" x="1812.59" y="-63.5" font-family="Helvetica,sans-Serif" font-size="10.00">utils/types.h</text>
</a>
</g>
</g>
<!-- Node3&#45;&gt;Node7 -->
<g id="edge46" class="edge"><title>Node3&#45;&gt;Node7</title>
<path fill="none" stroke="midnightblue" d="M1686.69,-235.41C1672.37,-228.04 1654.13,-215.916 1645.59,-199 1629.82,-167.766 1667.62,-121.593 1678.59,-112 1692.11,-100.178 1733.97,-87.1647 1767.35,-78.1868"/>
<polygon fill="midnightblue" stroke="midnightblue" points="1768.62,-81.4717 1777.39,-75.5358 1766.83,-74.7034 1768.62,-81.4717"/>
</g>
<!-- Node9 -->
<g id="node9" class="node"><title>Node9</title>
<g id="a_node9"><a xlink:href="../../d3/dd1/nlohmann__json_8hpp.xhtml" target="_top" xlink:title=" ">
<polygon fill="none" stroke="black" points="904.092,-112.5 904.092,-142.5 1021.09,-142.5 1021.09,-112.5 904.092,-112.5"/>
<text text-anchor="start" x="912.092" y="-130.5" font-family="Helvetica,sans-Serif" font-size="10.00">utils/external/nlohmann</text>
<text text-anchor="middle" x="962.592" y="-119.5" font-family="Helvetica,sans-Serif" font-size="10.00">_json.hpp</text>
</a>
</g>
</g>
<!-- Node3&#45;&gt;Node9 -->
<g id="edge13" class="edge"><title>Node3&#45;&gt;Node9</title>
<path fill="none" stroke="midnightblue" d="M1676.5,-239.329C1566.97,-222.325 1187.74,-163.452 1031.1,-139.135"/>
<polygon fill="midnightblue" stroke="midnightblue" points="1031.53,-135.66 1021.11,-137.584 1030.45,-142.577 1031.53,-135.66"/>
</g>
<!-- Node35 -->
<g id="node35" class="node"><title>Node35</title>
<g id="a_node35"><a xlink:href="../../d9/d70/infos_8h.xhtml" target="_top" xlink:title=" ">
<polygon fill="none" stroke="black" points="1796.59,-179.5 1796.59,-198.5 1862.59,-198.5 1862.59,-179.5 1796.59,-179.5"/>
<text text-anchor="middle" x="1829.59" y="-186.5" font-family="Helvetica,sans-Serif" font-size="10.00">utils/infos.h</text>
</a>
</g>
</g>
<!-- Node3&#45;&gt;Node35 -->
<g id="edge42" class="edge"><title>Node3&#45;&gt;Node35</title>
<path fill="none" stroke="midnightblue" d="M1726.08,-235.444C1746.23,-226.596 1777.92,-212.687 1800.92,-202.586"/>
<polygon fill="midnightblue" stroke="midnightblue" points="1802.44,-205.741 1810.19,-198.516 1799.63,-199.332 1802.44,-205.741"/>
</g>
<!-- Node4&#45;&gt;Node2 -->
<g id="edge6" class="edge"><title>Node4&#45;&gt;Node2</title>
<path fill="none" stroke="midnightblue" d="M1725.06,-179.469C1742.67,-171.051 1769.68,-157.384 1791.59,-143 1820.38,-124.105 1851.03,-98.4535 1869.5,-82.3139"/>
<polygon fill="midnightblue" stroke="midnightblue" points="1871.89,-84.8681 1877.07,-75.6263 1867.26,-79.6202 1871.89,-84.8681"/>
</g>
<!-- Node5 -->
<g id="node5" class="node"><title>Node5</title>
<g id="a_node5"><a xlink:title=" ">
<polygon fill="none" stroke="#bfbfbf" points="1718.09,-56.5 1718.09,-75.5 1759.09,-75.5 1759.09,-56.5 1718.09,-56.5"/>
<text text-anchor="middle" x="1738.59" y="-63.5" font-family="Helvetica,sans-Serif" font-size="10.00">string</text>
</a>
</g>
</g>
<!-- Node4&#45;&gt;Node5 -->
<g id="edge5" class="edge"><title>Node4&#45;&gt;Node5</title>
<path fill="none" stroke="midnightblue" d="M1690.81,-179.467C1678.39,-171.769 1661.99,-159.179 1654.59,-143 1648.86,-130.469 1647.51,-123.821 1654.59,-112 1660.75,-101.722 1686.82,-88.6715 1708.31,-79.2747"/>
<polygon fill="midnightblue" stroke="midnightblue" points="1709.94,-82.3814 1717.77,-75.2374 1707.2,-75.9431 1709.94,-82.3814"/>
</g>
<!-- Node6 -->
<g id="node6" class="node"><title>Node6</title>
<g id="a_node6"><a xlink:href="../../da/d6e/attributes_8h.xhtml" target="_top" xlink:title=" ">
<polygon fill="none" stroke="black" points="1696.59,-118 1696.59,-137 1782.59,-137 1782.59,-118 1696.59,-118"/>
<text text-anchor="middle" x="1739.59" y="-125" font-family="Helvetica,sans-Serif" font-size="10.00">utils/attributes.h</text>
</a>
</g>
</g>
<!-- Node4&#45;&gt;Node6 -->
<g id="edge7" class="edge"><title>Node4&#45;&gt;Node6</title>
<path fill="none" stroke="midnightblue" d="M1711.32,-179.475C1716.17,-170.727 1723.86,-156.869 1729.99,-145.809"/>
<polygon fill="midnightblue" stroke="midnightblue" points="1733.08,-147.452 1734.87,-137.009 1726.96,-144.057 1733.08,-147.452"/>
</g>
<!-- Node4&#45;&gt;Node7 -->
<g id="edge12" class="edge"><title>Node4&#45;&gt;Node7</title>
<path fill="none" stroke="midnightblue" d="M1700.17,-179.19C1690.03,-164.101 1672.89,-132.919 1687.59,-112 1697.17,-98.378 1735.7,-85.8081 1767.48,-77.4362"/>
<polygon fill="midnightblue" stroke="midnightblue" points="1768.7,-80.7381 1777.52,-74.8695 1766.96,-73.9563 1768.7,-80.7381"/>
</g>
<!-- Node6&#45;&gt;Node2 -->
<g id="edge9" class="edge"><title>Node6&#45;&gt;Node2</title>
<path fill="none" stroke="midnightblue" d="M1760.65,-117.975C1785.65,-107.857 1827.53,-90.9046 1856.08,-79.3507"/>
<polygon fill="midnightblue" stroke="midnightblue" points="1857.61,-82.5054 1865.57,-75.5091 1854.99,-76.0168 1857.61,-82.5054"/>
</g>
<!-- Node6&#45;&gt;Node5 -->
<g id="edge8" class="edge"><title>Node6&#45;&gt;Node5</title>
<path fill="none" stroke="midnightblue" d="M1739.45,-117.975C1739.31,-109.58 1739.09,-96.4806 1738.91,-85.6631"/>
<polygon fill="midnightblue" stroke="midnightblue" points="1742.4,-85.4488 1738.74,-75.5091 1735.4,-85.5665 1742.4,-85.4488"/>
</g>
<!-- Node6&#45;&gt;Node7 -->
<g id="edge10" class="edge"><title>Node6&#45;&gt;Node7</title>
<path fill="none" stroke="midnightblue" d="M1750.05,-117.975C1761.54,-108.608 1780.22,-93.3839 1794.18,-82.0081"/>
<polygon fill="midnightblue" stroke="midnightblue" points="1796.61,-84.54 1802.15,-75.5091 1792.19,-79.114 1796.61,-84.54"/>
</g>
<!-- Node8 -->
<g id="node8" class="node"><title>Node8</title>
<g id="a_node8"><a xlink:title=" ">
<polygon fill="none" stroke="#bfbfbf" points="875.592,-0.5 875.592,-19.5 921.592,-19.5 921.592,-0.5 875.592,-0.5"/>
<text text-anchor="middle" x="898.592" y="-7.5" font-family="Helvetica,sans-Serif" font-size="10.00">cstdint</text>
</a>
</g>
</g>
<!-- Node7&#45;&gt;Node8 -->
<g id="edge11" class="edge"><title>Node7&#45;&gt;Node8</title>
<path fill="none" stroke="midnightblue" d="M1777.3,-57.4362C1774.03,-56.8879 1770.75,-56.396 1767.59,-56 1443.8,-15.4563 1047.73,-11.2941 931.884,-10.9831"/>
<polygon fill="midnightblue" stroke="midnightblue" points="931.871,-7.4832 921.865,-10.9643 931.858,-14.4832 931.871,-7.4832"/>
</g>
<!-- Node9&#45;&gt;Node2 -->
<g id="edge40" class="edge"><title>Node9&#45;&gt;Node2</title>
<path fill="none" stroke="midnightblue" d="M1021.39,-124.982C1190.39,-120.338 1676.27,-104.952 1855.36,-75.7355"/>
<polygon fill="midnightblue" stroke="midnightblue" points="1856.17,-79.1483 1865.44,-74.0184 1854.99,-72.2478 1856.17,-79.1483"/>
</g>
<!-- Node9&#45;&gt;Node5 -->
<g id="edge37" class="edge"><title>Node9&#45;&gt;Node5</title>
<path fill="none" stroke="midnightblue" d="M1021.18,-126.965C1146.13,-127.005 1447.91,-122.024 1708.07,-75.6233"/>
<polygon fill="midnightblue" stroke="midnightblue" points="1708.87,-79.036 1718.08,-73.8128 1707.62,-72.1477 1708.87,-79.036"/>
</g>
<!-- Node9&#45;&gt;Node8 -->
<g id="edge21" class="edge"><title>Node9&#45;&gt;Node8</title>
<path fill="none" stroke="midnightblue" d="M903.776,-125.606C700.106,-122.225 35.631,-108.718 4.59211,-76 -1.52561,-69.5513 -1.53325,-62.4414 4.59211,-56 34.8198,-24.2125 707.306,-13.4904 865.489,-11.4036"/>
<polygon fill="midnightblue" stroke="midnightblue" points="865.611,-14.9024 875.564,-11.2733 865.52,-7.90302 865.611,-14.9024"/>
</g>
<!-- Node10 -->
<g id="node10" class="node"><title>Node10</title>
<g id="a_node10"><a xlink:title=" ">
<polygon fill="none" stroke="#bfbfbf" points="1455.59,-56.5 1455.59,-75.5 1511.59,-75.5 1511.59,-56.5 1455.59,-56.5"/>
<text text-anchor="middle" x="1483.59" y="-63.5" font-family="Helvetica,sans-Serif" font-size="10.00">algorithm</text>
</a>
</g>
</g>
<!-- Node9&#45;&gt;Node10 -->
<g id="edge14" class="edge"><title>Node9&#45;&gt;Node10</title>
<path fill="none" stroke="midnightblue" d="M1021.29,-122.804C1112.53,-116.511 1293.69,-101.819 1445.59,-76 1445.69,-75.983 1445.79,-75.9658 1445.89,-75.9485"/>
<polygon fill="midnightblue" stroke="midnightblue" points="1446.3,-79.4342 1455.45,-74.0894 1444.97,-72.5629 1446.3,-79.4342"/>
</g>
<!-- Node11 -->
<g id="node11" class="node"><title>Node11</title>
<g id="a_node11"><a xlink:title=" ">
<polygon fill="none" stroke="#bfbfbf" points="1529.59,-56.5 1529.59,-75.5 1567.59,-75.5 1567.59,-56.5 1529.59,-56.5"/>
<text text-anchor="middle" x="1548.59" y="-63.5" font-family="Helvetica,sans-Serif" font-size="10.00">array</text>
</a>
</g>
</g>
<!-- Node9&#45;&gt;Node11 -->
<g id="edge15" class="edge"><title>Node9&#45;&gt;Node11</title>
<path fill="none" stroke="midnightblue" d="M1021.45,-125.429C1122.08,-122.672 1333.55,-112.845 1519.5,-75.7801"/>
<polygon fill="midnightblue" stroke="midnightblue" points="1520.35,-79.1792 1529.46,-73.7643 1518.97,-72.3184 1520.35,-79.1792"/>
</g>
<!-- Node12 -->
<g id="node12" class="node"><title>Node12</title>
<g id="a_node12"><a xlink:title=" ">
<polygon fill="none" stroke="#bfbfbf" points="1586.09,-56.5 1586.09,-75.5 1635.09,-75.5 1635.09,-56.5 1586.09,-56.5"/>
<text text-anchor="middle" x="1610.59" y="-63.5" font-family="Helvetica,sans-Serif" font-size="10.00">cassert</text>
</a>
</g>
</g>
<!-- Node9&#45;&gt;Node12 -->
<g id="edge16" class="edge"><title>Node9&#45;&gt;Node12</title>
<path fill="none" stroke="midnightblue" d="M1021.44,-125.113C1129.58,-121.815 1367.16,-111.079 1575.9,-75.7971"/>
<polygon fill="midnightblue" stroke="midnightblue" points="1576.56,-79.2364 1585.82,-74.0983 1575.37,-72.3369 1576.56,-79.2364"/>
</g>
<!-- Node13 -->
<g id="node13" class="node"><title>Node13</title>
<g id="a_node13"><a xlink:title=" ">
<polygon fill="none" stroke="#bfbfbf" points="1653.59,-56.5 1653.59,-75.5 1699.59,-75.5 1699.59,-56.5 1653.59,-56.5"/>
<text text-anchor="middle" x="1676.59" y="-63.5" font-family="Helvetica,sans-Serif" font-size="10.00">cctype</text>
</a>
</g>
</g>
<!-- Node9&#45;&gt;Node13 -->
<g id="edge17" class="edge"><title>Node9&#45;&gt;Node13</title>
<path fill="none" stroke="midnightblue" d="M1021.35,-125.932C1138.21,-123.983 1407.97,-115.391 1643.17,-75.6838"/>
<polygon fill="midnightblue" stroke="midnightblue" points="1644.01,-79.0899 1653.28,-73.9534 1642.83,-72.1901 1644.01,-79.0899"/>
</g>
<!-- Node14 -->
<g id="node14" class="node"><title>Node14</title>
<g id="a_node14"><a xlink:title=" ">
<polygon fill="none" stroke="#bfbfbf" points="13.5921,-56.5 13.5921,-75.5 63.5921,-75.5 63.5921,-56.5 13.5921,-56.5"/>
<text text-anchor="middle" x="38.5921" y="-63.5" font-family="Helvetica,sans-Serif" font-size="10.00">ciso646</text>
</a>
</g>
</g>
<!-- Node9&#45;&gt;Node14 -->
<g id="edge18" class="edge"><title>Node9&#45;&gt;Node14</title>
<path fill="none" stroke="midnightblue" d="M903.842,-127.248C762.232,-128.177 390.951,-125.408 74.0266,-75.8875"/>
<polygon fill="midnightblue" stroke="midnightblue" points="74.1459,-72.3629 63.7219,-74.2577 73.0523,-79.277 74.1459,-72.3629"/>
</g>
<!-- Node15 -->
<g id="node15" class="node"><title>Node15</title>
<g id="a_node15"><a xlink:title=" ">
<polygon fill="none" stroke="#bfbfbf" points="81.5921,-56.5 81.5921,-75.5 125.592,-75.5 125.592,-56.5 81.5921,-56.5"/>
<text text-anchor="middle" x="103.592" y="-63.5" font-family="Helvetica,sans-Serif" font-size="10.00">cmath</text>
</a>
</g>
</g>
<!-- Node9&#45;&gt;Node15 -->
<g id="edge19" class="edge"><title>Node9&#45;&gt;Node15</title>
<path fill="none" stroke="midnightblue" d="M903.814,-124.609C743.722,-119.195 301.432,-102.411 135.837,-75.7742"/>
<polygon fill="midnightblue" stroke="midnightblue" points="136.246,-72.294 125.805,-74.0881 135.086,-79.1972 136.246,-72.294"/>
</g>
<!-- Node16 -->
<g id="node16" class="node"><title>Node16</title>
<g id="a_node16"><a xlink:title=" ">
<polygon fill="none" stroke="#bfbfbf" points="143.592,-56.5 143.592,-75.5 191.592,-75.5 191.592,-56.5 143.592,-56.5"/>
<text text-anchor="middle" x="167.592" y="-63.5" font-family="Helvetica,sans-Serif" font-size="10.00">cstddef</text>
</a>
</g>
</g>
<!-- Node9&#45;&gt;Node16 -->
<g id="edge20" class="edge"><title>Node9&#45;&gt;Node16</title>
<path fill="none" stroke="midnightblue" d="M903.816,-126.591C776.955,-125.931 468.113,-119.703 201.868,-75.8599"/>
<polygon fill="midnightblue" stroke="midnightblue" points="202.059,-72.3434 191.619,-74.1498 200.907,-79.2479 202.059,-72.3434"/>
</g>
<!-- Node17 -->
<g id="node17" class="node"><title>Node17</title>
<g id="a_node17"><a xlink:title=" ">
<polygon fill="none" stroke="#bfbfbf" points="210.092,-56.5 210.092,-75.5 255.092,-75.5 255.092,-56.5 210.092,-56.5"/>
<text text-anchor="middle" x="232.592" y="-63.5" font-family="Helvetica,sans-Serif" font-size="10.00">cstdlib</text>
</a>
</g>
</g>
<!-- Node9&#45;&gt;Node17 -->
<g id="edge22" class="edge"><title>Node9&#45;&gt;Node17</title>
<path fill="none" stroke="midnightblue" d="M903.733,-126.236C784.628,-124.838 506.603,-117.199 265.204,-75.7093"/>
<polygon fill="midnightblue" stroke="midnightblue" points="265.64,-72.2326 255.187,-73.9644 264.438,-79.1287 265.64,-72.2326"/>
</g>
<!-- Node18 -->
<g id="node18" class="node"><title>Node18</title>
<g id="a_node18"><a xlink:title=" ">
<polygon fill="none" stroke="#bfbfbf" points="273.592,-56.5 273.592,-75.5 319.592,-75.5 319.592,-56.5 273.592,-56.5"/>
<text text-anchor="middle" x="296.592" y="-63.5" font-family="Helvetica,sans-Serif" font-size="10.00">cstring</text>
</a>
</g>
</g>
<!-- Node9&#45;&gt;Node18 -->
<g id="edge23" class="edge"><title>Node9&#45;&gt;Node18</title>
<path fill="none" stroke="midnightblue" d="M903.979,-125.631C793.239,-123.166 545.744,-113.73 329.822,-75.8834"/>
<polygon fill="midnightblue" stroke="midnightblue" points="330.347,-72.422 319.889,-74.1181 329.122,-79.314 330.347,-72.422"/>
</g>
<!-- Node19 -->
<g id="node19" class="node"><title>Node19</title>
<g id="a_node19"><a xlink:title=" ">
<polygon fill="none" stroke="#bfbfbf" points="338.092,-56.5 338.092,-75.5 403.092,-75.5 403.092,-56.5 338.092,-56.5"/>
<text text-anchor="middle" x="370.592" y="-63.5" font-family="Helvetica,sans-Serif" font-size="10.00">forward_list</text>
</a>
</g>
</g>
<!-- Node9&#45;&gt;Node19 -->
<g id="edge24" class="edge"><title>Node9&#45;&gt;Node19</title>
<path fill="none" stroke="midnightblue" d="M903.706,-123.41C804.575,-117.7 597.966,-103.624 413.687,-75.9883"/>
<polygon fill="midnightblue" stroke="midnightblue" points="413.95,-72.4884 403.539,-74.4491 412.901,-79.4092 413.95,-72.4884"/>
</g>
<!-- Node20 -->
<g id="node20" class="node"><title>Node20</title>
<g id="a_node20"><a xlink:title=" ">
<polygon fill="none" stroke="#bfbfbf" points="421.592,-56.5 421.592,-75.5 479.592,-75.5 479.592,-56.5 421.592,-56.5"/>
<text text-anchor="middle" x="450.592" y="-63.5" font-family="Helvetica,sans-Serif" font-size="10.00">functional</text>
</a>
</g>
</g>
<!-- Node9&#45;&gt;Node20 -->
<g id="edge25" class="edge"><title>Node9&#45;&gt;Node20</title>
<path fill="none" stroke="midnightblue" d="M903.887,-122.644C815.929,-116.339 644.619,-102.018 490.126,-76.0725"/>
<polygon fill="midnightblue" stroke="midnightblue" points="490.42,-72.5724 479.975,-74.3467 489.247,-79.4734 490.42,-72.5724"/>
</g>
<!-- Node21 -->
<g id="node21" class="node"><title>Node21</title>
<g id="a_node21"><a xlink:title=" ">
<polygon fill="none" stroke="#bfbfbf" points="498.092,-56.5 498.092,-75.5 571.092,-75.5 571.092,-56.5 498.092,-56.5"/>
<text text-anchor="middle" x="534.592" y="-63.5" font-family="Helvetica,sans-Serif" font-size="10.00">initializer_list</text>
</a>
</g>
</g>
<!-- Node9&#45;&gt;Node21 -->
<g id="edge26" class="edge"><title>Node9&#45;&gt;Node21</title>
<path fill="none" stroke="midnightblue" d="M903.856,-119.877C830.768,-111.382 701.925,-95.5712 581.361,-76.0333"/>
<polygon fill="midnightblue" stroke="midnightblue" points="581.647,-72.5338 571.214,-74.3768 580.519,-79.4423 581.647,-72.5338"/>
</g>
<!-- Node22 -->
<g id="node22" class="node"><title>Node22</title>
<g id="a_node22"><a xlink:title=" ">
<polygon fill="none" stroke="#bfbfbf" points="589.592,-56.5 589.592,-75.5 639.592,-75.5 639.592,-56.5 589.592,-56.5"/>
<text text-anchor="middle" x="614.592" y="-63.5" font-family="Helvetica,sans-Serif" font-size="10.00">iomanip</text>
</a>
</g>
</g>
<!-- Node9&#45;&gt;Node22 -->
<g id="edge27" class="edge"><title>Node9&#45;&gt;Node22</title>
<path fill="none" stroke="midnightblue" d="M903.82,-118.825C842.655,-110.439 743.935,-95.7858 649.756,-76.0759"/>
<polygon fill="midnightblue" stroke="midnightblue" points="650.284,-72.6102 639.776,-73.9644 648.835,-79.4586 650.284,-72.6102"/>
</g>
<!-- Node23 -->
<g id="node23" class="node"><title>Node23</title>
<g id="a_node23"><a xlink:title=" ">
<polygon fill="none" stroke="#bfbfbf" points="657.592,-56.5 657.592,-75.5 711.592,-75.5 711.592,-56.5 657.592,-56.5"/>
<text text-anchor="middle" x="684.592" y="-63.5" font-family="Helvetica,sans-Serif" font-size="10.00">iostream</text>
</a>
</g>
</g>
<!-- Node9&#45;&gt;Node23 -->
<g id="edge28" class="edge"><title>Node9&#45;&gt;Node23</title>
<path fill="none" stroke="midnightblue" d="M903.77,-114.897C856.979,-105.514 789.601,-91.6626 721.71,-76.1901"/>
<polygon fill="midnightblue" stroke="midnightblue" points="722.221,-72.7166 711.692,-73.8959 720.658,-79.5399 722.221,-72.7166"/>
</g>
<!-- Node24 -->
<g id="node24" class="node"><title>Node24</title>
<g id="a_node24"><a xlink:title=" ">
<polygon fill="none" stroke="#bfbfbf" points="730.092,-56.5 730.092,-75.5 777.092,-75.5 777.092,-56.5 730.092,-56.5"/>
<text text-anchor="middle" x="753.592" y="-63.5" font-family="Helvetica,sans-Serif" font-size="10.00">iterator</text>
</a>
</g>
</g>
<!-- Node9&#45;&gt;Node24 -->
<g id="edge29" class="edge"><title>Node9&#45;&gt;Node24</title>
<path fill="none" stroke="midnightblue" d="M913.327,-112.475C874.501,-101.421 821.4,-86.304 787.293,-76.5942"/>
<polygon fill="midnightblue" stroke="midnightblue" points="787.931,-73.1368 777.354,-73.7649 786.014,-79.8693 787.931,-73.1368"/>
</g>
<!-- Node25 -->
<g id="node25" class="node"><title>Node25</title>
<g id="a_node25"><a xlink:title=" ">
<polygon fill="none" stroke="#bfbfbf" points="795.592,-56.5 795.592,-75.5 835.592,-75.5 835.592,-56.5 795.592,-56.5"/>
<text text-anchor="middle" x="815.592" y="-63.5" font-family="Helvetica,sans-Serif" font-size="10.00">limits</text>
</a>
</g>
</g>
<!-- Node9&#45;&gt;Node25 -->
<g id="edge30" class="edge"><title>Node9&#45;&gt;Node25</title>
<path fill="none" stroke="midnightblue" d="M927.755,-112.399C902.645,-102.236 869.119,-88.6658 845.279,-79.016"/>
<polygon fill="midnightblue" stroke="midnightblue" points="846.289,-75.6493 835.707,-75.1417 843.663,-82.138 846.289,-75.6493"/>
</g>
<!-- Node26 -->
<g id="node26" class="node"><title>Node26</title>
<g id="a_node26"><a xlink:title=" ">
<polygon fill="none" stroke="#bfbfbf" points="853.592,-56.5 853.592,-75.5 895.592,-75.5 895.592,-56.5 853.592,-56.5"/>
<text text-anchor="middle" x="874.592" y="-63.5" font-family="Helvetica,sans-Serif" font-size="10.00">locale</text>
</a>
</g>
</g>
<!-- Node9&#45;&gt;Node26 -->
<g id="edge31" class="edge"><title>Node9&#45;&gt;Node26</title>
<path fill="none" stroke="midnightblue" d="M941.737,-112.399C927.895,-103.04 909.781,-90.7924 895.856,-81.3771"/>
<polygon fill="midnightblue" stroke="midnightblue" points="897.641,-78.3596 887.397,-75.6578 893.721,-84.1585 897.641,-78.3596"/>
</g>
<!-- Node27 -->
<g id="node27" class="node"><title>Node27</title>
<g id="a_node27"><a xlink:title=" ">
<polygon fill="none" stroke="#bfbfbf" points="914.092,-56.5 914.092,-75.5 949.092,-75.5 949.092,-56.5 914.092,-56.5"/>
<text text-anchor="middle" x="931.592" y="-63.5" font-family="Helvetica,sans-Serif" font-size="10.00">map</text>
</a>
</g>
</g>
<!-- Node9&#45;&gt;Node27 -->
<g id="edge32" class="edge"><title>Node9&#45;&gt;Node27</title>
<path fill="none" stroke="midnightblue" d="M955.246,-112.399C950.927,-104.11 945.427,-93.5542 940.818,-84.7077"/>
<polygon fill="midnightblue" stroke="midnightblue" points="943.827,-82.9091 936.103,-75.6578 937.62,-86.1435 943.827,-82.9091"/>
</g>
<!-- Node28 -->
<g id="node28" class="node"><title>Node28</title>
<g id="a_node28"><a xlink:title=" ">
<polygon fill="none" stroke="#bfbfbf" points="967.592,-56.5 967.592,-75.5 1019.59,-75.5 1019.59,-56.5 967.592,-56.5"/>
<text text-anchor="middle" x="993.592" y="-63.5" font-family="Helvetica,sans-Serif" font-size="10.00">memory</text>
</a>
</g>
</g>
<!-- Node9&#45;&gt;Node28 -->
<g id="edge33" class="edge"><title>Node9&#45;&gt;Node28</title>
<path fill="none" stroke="midnightblue" d="M969.939,-112.399C974.258,-104.11 979.757,-93.5542 984.366,-84.7077"/>
<polygon fill="midnightblue" stroke="midnightblue" points="987.565,-86.1435 989.081,-75.6578 981.357,-82.9091 987.565,-86.1435"/>
</g>
<!-- Node29 -->
<g id="node29" class="node"><title>Node29</title>
<g id="a_node29"><a xlink:title=" ">
<polygon fill="none" stroke="#bfbfbf" points="1038.09,-56.5 1038.09,-75.5 1089.09,-75.5 1089.09,-56.5 1038.09,-56.5"/>
<text text-anchor="middle" x="1063.59" y="-63.5" font-family="Helvetica,sans-Serif" font-size="10.00">numeric</text>
</a>
</g>
</g>
<!-- Node9&#45;&gt;Node29 -->
<g id="edge34" class="edge"><title>Node9&#45;&gt;Node29</title>
<path fill="none" stroke="midnightblue" d="M986.528,-112.399C1002.72,-102.862 1024,-90.3248 1040.1,-80.8422"/>
<polygon fill="midnightblue" stroke="midnightblue" points="1042.06,-83.7492 1048.9,-75.6578 1038.5,-77.718 1042.06,-83.7492"/>
</g>
<!-- Node30 -->
<g id="node30" class="node"><title>Node30</title>
<g id="a_node30"><a xlink:title=" ">
<polygon fill="none" stroke="#bfbfbf" points="1107.59,-56.5 1107.59,-75.5 1159.59,-75.5 1159.59,-56.5 1107.59,-56.5"/>
<text text-anchor="middle" x="1133.59" y="-63.5" font-family="Helvetica,sans-Serif" font-size="10.00">sstream</text>
</a>
</g>
</g>
<!-- Node9&#45;&gt;Node30 -->
<g id="edge35" class="edge"><title>Node9&#45;&gt;Node30</title>
<path fill="none" stroke="midnightblue" d="M1003.12,-112.399C1032.32,-102.238 1071.31,-88.6716 1099.04,-79.0221"/>
<polygon fill="midnightblue" stroke="midnightblue" points="1100.42,-82.2497 1108.71,-75.6578 1098.12,-75.6385 1100.42,-82.2497"/>
</g>
<!-- Node31 -->
<g id="node31" class="node"><title>Node31</title>
<g id="a_node31"><a xlink:title=" ">
<polygon fill="none" stroke="#bfbfbf" points="1178.09,-56.5 1178.09,-75.5 1237.09,-75.5 1237.09,-56.5 1178.09,-56.5"/>
<text text-anchor="middle" x="1207.59" y="-63.5" font-family="Helvetica,sans-Serif" font-size="10.00">stdexcept</text>
</a>
</g>
</g>
<!-- Node9&#45;&gt;Node31 -->
<g id="edge36" class="edge"><title>Node9&#45;&gt;Node31</title>
<path fill="none" stroke="midnightblue" d="M1020.34,-112.475C1065.89,-101.413 1128.2,-86.2802 1168.18,-76.5712"/>
<polygon fill="midnightblue" stroke="midnightblue" points="1169.2,-79.9265 1178.09,-74.1653 1167.54,-73.1242 1169.2,-79.9265"/>
</g>
<!-- Node32 -->
<g id="node32" class="node"><title>Node32</title>
<g id="a_node32"><a xlink:title=" ">
<polygon fill="none" stroke="#bfbfbf" points="1255.59,-56.5 1255.59,-75.5 1317.59,-75.5 1317.59,-56.5 1255.59,-56.5"/>
<text text-anchor="middle" x="1286.59" y="-63.5" font-family="Helvetica,sans-Serif" font-size="10.00">type_traits</text>
</a>
</g>
</g>
<!-- Node9&#45;&gt;Node32 -->
<g id="edge38" class="edge"><title>Node9&#45;&gt;Node32</title>
<path fill="none" stroke="midnightblue" d="M1021.26,-116.727C1076.4,-107.384 1161.47,-92.5648 1245.33,-75.9844"/>
<polygon fill="midnightblue" stroke="midnightblue" points="1246.15,-79.3886 1255.28,-74.0069 1244.79,-72.5228 1246.15,-79.3886"/>
</g>
<!-- Node33 -->
<g id="node33" class="node"><title>Node33</title>
<g id="a_node33"><a xlink:title=" ">
<polygon fill="none" stroke="#bfbfbf" points="1335.59,-56.5 1335.59,-75.5 1375.59,-75.5 1375.59,-56.5 1335.59,-56.5"/>
<text text-anchor="middle" x="1355.59" y="-63.5" font-family="Helvetica,sans-Serif" font-size="10.00">utility</text>
</a>
</g>
</g>
<!-- Node9&#45;&gt;Node33 -->
<g id="edge39" class="edge"><title>Node9&#45;&gt;Node33</title>
<path fill="none" stroke="midnightblue" d="M1021.11,-121.348C1091.42,-114.499 1212.98,-100.562 1325.6,-75.9035"/>
<polygon fill="midnightblue" stroke="midnightblue" points="1326.42,-79.3066 1335.42,-73.72 1324.9,-72.4733 1326.42,-79.3066"/>
</g>
<!-- Node34 -->
<g id="node34" class="node"><title>Node34</title>
<g id="a_node34"><a xlink:title=" ">
<polygon fill="none" stroke="#bfbfbf" points="1394.09,-56.5 1394.09,-75.5 1437.09,-75.5 1437.09,-56.5 1394.09,-56.5"/>
<text text-anchor="middle" x="1415.59" y="-63.5" font-family="Helvetica,sans-Serif" font-size="10.00">cstdio</text>
</a>
</g>
</g>
<!-- Node9&#45;&gt;Node34 -->
<g id="edge41" class="edge"><title>Node9&#45;&gt;Node34</title>
<path fill="none" stroke="midnightblue" d="M1021.09,-122.537C1101.01,-116.453 1248.81,-102.814 1383.91,-75.8031"/>
<polygon fill="midnightblue" stroke="midnightblue" points="1384.92,-79.169 1394.02,-73.7501 1383.53,-72.3088 1384.92,-79.169"/>
</g>
<!-- Node35&#45;&gt;Node2 -->
<g id="edge43" class="edge"><title>Node35&#45;&gt;Node2</title>
<path fill="none" stroke="midnightblue" d="M1833.69,-179.298C1842.98,-159.589 1865.77,-111.211 1878.19,-84.842"/>
<polygon fill="midnightblue" stroke="midnightblue" points="1881.43,-86.1612 1882.53,-75.6232 1875.1,-83.1781 1881.43,-86.1612"/>
</g>
<!-- Node35&#45;&gt;Node6 -->
<g id="edge44" class="edge"><title>Node35&#45;&gt;Node6</title>
<path fill="none" stroke="midnightblue" d="M1816.7,-179.475C1802.13,-169.843 1778.19,-154.017 1760.85,-142.552"/>
<polygon fill="midnightblue" stroke="midnightblue" points="1762.74,-139.604 1752.46,-137.009 1758.87,-145.444 1762.74,-139.604"/>
</g>
<!-- Node35&#45;&gt;Node7 -->
<g id="edge45" class="edge"><title>Node35&#45;&gt;Node7</title>
<path fill="none" stroke="midnightblue" d="M1828.37,-179.298C1825.62,-159.763 1818.92,-112.065 1815.2,-85.5471"/>
<polygon fill="midnightblue" stroke="midnightblue" points="1818.66,-85.0389 1813.8,-75.6232 1811.73,-86.0129 1818.66,-85.0389"/>
</g>
<!-- Node36&#45;&gt;Node3 -->
<g id="edge48" class="edge"><title>Node36&#45;&gt;Node3</title>
<path fill="none" stroke="midnightblue" d="M1671.49,-291.399C1678.18,-282.753 1686.77,-271.642 1693.78,-262.576"/>
<polygon fill="midnightblue" stroke="midnightblue" points="1696.55,-264.71 1699.9,-254.658 1691.01,-260.428 1696.55,-264.71"/>
</g>
<!-- Node36&#45;&gt;Node9 -->
<g id="edge49" class="edge"><title>Node36&#45;&gt;Node9</title>
<path fill="none" stroke="midnightblue" d="M1605.24,-291.463C1477.84,-259.156 1164.35,-179.663 1027.86,-145.051"/>
<polygon fill="midnightblue" stroke="midnightblue" points="1028.51,-141.604 1017.95,-142.538 1026.79,-148.389 1028.51,-141.604"/>
</g>
</g>
</svg>
