<?xml version="1.0" encoding="UTF-8" standalone="no"?>
<!DOCTYPE svg PUBLIC "-//W3C//DTD SVG 1.1//EN"
 "http://www.w3.org/Graphics/SVG/1.1/DTD/svg11.dtd">
<!-- Generated by graphviz version 2.38.0 (20140413.2041)
 -->
<!-- Title: MemoryAreas::Thread::pushReturnValue Pages: 1 -->
<svg width="306pt" height="154pt"
 viewBox="0.00 0.00 306.00 154.00" xmlns="http://www.w3.org/2000/svg" xmlns:xlink="http://www.w3.org/1999/xlink">
<g id="graph0" class="graph" transform="scale(1 1) rotate(0) translate(4 150)">
<title>MemoryAreas::Thread::pushReturnValue</title>
<!-- Node1 -->
<g id="node1" class="node"><title>Node1</title>
<g id="a_node1"><a xlink:title=" ">
<polygon fill="#bfbfbf" stroke="black" points="0,-55 0,-85 113,-85 113,-55 0,-55"/>
<text text-anchor="start" x="8" y="-73" font-family="Helvetica,sans-Serif" font-size="10.00">MemoryAreas::Thread</text>
<text text-anchor="middle" x="56.5" y="-62" font-family="Helvetica,sans-Serif" font-size="10.00">::pushReturnValue</text>
</a>
</g>
</g>
<!-- Node2 -->
<g id="node2" class="node"><title>Node2</title>
<g id="a_node2"><a xlink:href="../../d4/d01/class_memory_areas_1_1_java_stack.xhtml#a119ca662aab74c83e23a14f8fa1b7549" target="_top" xlink:title=" ">
<polygon fill="none" stroke="black" points="149,-126.5 149,-145.5 298,-145.5 298,-126.5 149,-126.5"/>
<text text-anchor="middle" x="223.5" y="-133.5" font-family="Helvetica,sans-Serif" font-size="10.00">MemoryAreas::JavaStack::pop</text>
</a>
</g>
</g>
<!-- Node1&#45;&gt;Node2 -->
<g id="edge1" class="edge"><title>Node1&#45;&gt;Node2</title>
<path fill="none" stroke="midnightblue" d="M83.219,-85.1631C101.178,-95.2594 125.968,-108.232 149,-117 155.372,-119.426 162.171,-121.647 168.963,-123.648"/>
<polygon fill="midnightblue" stroke="midnightblue" points="168.286,-127.093 178.86,-126.418 170.174,-120.352 168.286,-127.093"/>
</g>
<!-- Node3 -->
<g id="node3" class="node"><title>Node3</title>
<g id="a_node3"><a xlink:href="../../d4/d01/class_memory_areas_1_1_java_stack.xhtml#a65a380b227d379d1163cdefd493ed29d" target="_top" xlink:title=" ">
<polygon fill="none" stroke="black" points="159.5,-77 159.5,-107 287.5,-107 287.5,-77 159.5,-77"/>
<text text-anchor="start" x="167.5" y="-95" font-family="Helvetica,sans-Serif" font-size="10.00">MemoryAreas::JavaStack</text>
<text text-anchor="middle" x="223.5" y="-84" font-family="Helvetica,sans-Serif" font-size="10.00">::push</text>
</a>
</g>
</g>
<!-- Node1&#45;&gt;Node3 -->
<g id="edge2" class="edge"><title>Node1&#45;&gt;Node3</title>
<path fill="none" stroke="midnightblue" d="M113.361,-77.4482C124.902,-78.9869 137.221,-80.6295 149.273,-82.2364"/>
<polygon fill="midnightblue" stroke="midnightblue" points="148.936,-85.7224 159.311,-83.5748 149.862,-78.7838 148.936,-85.7224"/>
</g>
<!-- Node4 -->
<g id="node4" class="node"><title>Node4</title>
<g id="a_node4"><a xlink:href="../../d8/d62/class_utils_1_1_frame.xhtml#a237175c998e76ecba63539775183b200" target="_top" xlink:title=" ">
<polygon fill="none" stroke="black" points="156.5,-38.5 156.5,-57.5 290.5,-57.5 290.5,-38.5 156.5,-38.5"/>
<text text-anchor="middle" x="223.5" y="-45.5" font-family="Helvetica,sans-Serif" font-size="10.00">Utils::Frame::pushOperand</text>
</a>
</g>
</g>
<!-- Node1&#45;&gt;Node4 -->
<g id="edge3" class="edge"><title>Node1&#45;&gt;Node4</title>
<path fill="none" stroke="midnightblue" d="M113.361,-62.5518C123.955,-61.1393 135.206,-59.6393 146.303,-58.1596"/>
<polygon fill="midnightblue" stroke="midnightblue" points="146.978,-61.6006 156.428,-56.8096 146.053,-54.662 146.978,-61.6006"/>
</g>
<!-- Node5 -->
<g id="node5" class="node"><title>Node5</title>
<g id="a_node5"><a xlink:href="../../d4/d01/class_memory_areas_1_1_java_stack.xhtml#ae0e8ee898d32ea42e3877dd94df9e3c2" target="_top" xlink:title=" ">
<polygon fill="none" stroke="black" points="150,-0.5 150,-19.5 297,-19.5 297,-0.5 150,-0.5"/>
<text text-anchor="middle" x="223.5" y="-7.5" font-family="Helvetica,sans-Serif" font-size="10.00">MemoryAreas::JavaStack::top</text>
</a>
</g>
</g>
<!-- Node1&#45;&gt;Node5 -->
<g id="edge4" class="edge"><title>Node1&#45;&gt;Node5</title>
<path fill="none" stroke="midnightblue" d="M87.8935,-54.83C105.455,-46.4599 128.137,-36.3123 149,-29 155.926,-26.5723 163.317,-24.3018 170.643,-22.2349"/>
<polygon fill="midnightblue" stroke="midnightblue" points="171.809,-25.5451 180.542,-19.5469 169.975,-18.7897 171.809,-25.5451"/>
</g>
</g>
</svg>
