<?xml version="1.0" encoding="UTF-8" standalone="no"?>
<!DOCTYPE svg PUBLIC "-//W3C//DTD SVG 1.1//EN"
 "http://www.w3.org/Graphics/SVG/1.1/DTD/svg11.dtd">
<!-- Generated by graphviz version 2.38.0 (20140413.2041)
 -->
<!-- Title: MethodParameters_info Pages: 1 -->
<svg width="135pt" height="182pt"
 viewBox="0.00 0.00 134.50 182.00" xmlns="http://www.w3.org/2000/svg" xmlns:xlink="http://www.w3.org/1999/xlink">
<g id="graph0" class="graph" transform="scale(1 1) rotate(0) translate(4 178)">
<title>MethodParameters_info</title>
<!-- Node1 -->
<g id="node1" class="node"><title>Node1</title>
<g id="a_node1"><a xlink:title=" ">
<polygon fill="#bfbfbf" stroke="black" points="0,-0.5 0,-57.5 119,-57.5 119,-0.5 0,-0.5"/>
<text text-anchor="middle" x="59.5" y="-45.5" font-family="Helvetica,sans-Serif" font-size="10.00">MethodParameters_info</text>
<polyline fill="none" stroke="black" points="0,-38.5 119,-38.5 "/>
<text text-anchor="middle" x="59.5" y="-26.5" font-family="Helvetica,sans-Serif" font-size="10.00"> </text>
<polyline fill="none" stroke="black" points="0,-19.5 119,-19.5 "/>
<text text-anchor="middle" x="59.5" y="-7.5" font-family="Helvetica,sans-Serif" font-size="10.00"> </text>
</a>
</g>
</g>
<!-- Node2 -->
<g id="node2" class="node"><title>Node2</title>
<g id="a_node2"><a xlink:title=" ">
<polygon fill="none" stroke="#bfbfbf" points="34,-116.5 34,-173.5 85,-173.5 85,-116.5 34,-116.5"/>
<text text-anchor="middle" x="59.5" y="-161.5" font-family="Helvetica,sans-Serif" font-size="10.00">uint16_t</text>
<polyline fill="none" stroke="#bfbfbf" points="34,-154.5 85,-154.5 "/>
<text text-anchor="middle" x="59.5" y="-142.5" font-family="Helvetica,sans-Serif" font-size="10.00"> </text>
<polyline fill="none" stroke="#bfbfbf" points="34,-135.5 85,-135.5 "/>
<text text-anchor="middle" x="59.5" y="-123.5" font-family="Helvetica,sans-Serif" font-size="10.00"> </text>
</a>
</g>
</g>
<!-- Node2&#45;&gt;Node1 -->
<g id="edge1" class="edge"><title>Node2&#45;&gt;Node1</title>
<path fill="none" stroke="#404040" d="M59.5,-116.404C59.5,-102.504 59.5,-85.3915 59.5,-70.073"/>
<polygon fill="none" stroke="#404040" points="59.5001,-69.7372 55.5,-63.7372 59.5,-57.7372 63.5,-63.7372 59.5001,-69.7372"/>
<text text-anchor="middle" x="93" y="-90" font-family="Helvetica,sans-Serif" font-size="10.00"> +access_flags</text>
<text text-anchor="middle" x="93" y="-79" font-family="Helvetica,sans-Serif" font-size="10.00">+name_index</text>
</g>
</g>
</svg>
