<?xml version="1.0" encoding="UTF-8" standalone="no"?>
<!DOCTYPE svg PUBLIC "-//W3C//DTD SVG 1.1//EN"
 "http://www.w3.org/Graphics/SVG/1.1/DTD/svg11.dtd">
<!-- Generated by graphviz version 2.38.0 (20140413.2041)
 -->
<!-- Title: Utils::ConstantPool::CONSTANT_InvokeDynamic_info Pages: 1 -->
<svg width="188pt" height="259pt"
 viewBox="0.00 0.00 188.00 259.00" xmlns="http://www.w3.org/2000/svg" xmlns:xlink="http://www.w3.org/1999/xlink">
<g id="graph0" class="graph" transform="scale(1 1) rotate(0) translate(4 255)">
<title>Utils::ConstantPool::CONSTANT_InvokeDynamic_info</title>
<!-- Node1 -->
<g id="node1" class="node"><title>Node1</title>
<g id="a_node1"><a xlink:title=" ">
<polygon fill="#bfbfbf" stroke="black" points="0,-0.5 0,-123.5 180,-123.5 180,-0.5 0,-0.5"/>
<text text-anchor="start" x="8" y="-111.5" font-family="Helvetica,sans-Serif" font-size="10.00">Utils::ConstantPool</text>
<text text-anchor="middle" x="90" y="-100.5" font-family="Helvetica,sans-Serif" font-size="10.00">::CONSTANT_InvokeDynamic_info</text>
<polyline fill="none" stroke="black" points="0,-93.5 180,-93.5 "/>
<text text-anchor="start" x="8" y="-81.5" font-family="Helvetica,sans-Serif" font-size="10.00">+ bootstrap_method_attr</text>
<text text-anchor="start" x="8" y="-70.5" font-family="Helvetica,sans-Serif" font-size="10.00">_index</text>
<text text-anchor="start" x="8" y="-59.5" font-family="Helvetica,sans-Serif" font-size="10.00">+ name_and_type_index</text>
<polyline fill="none" stroke="black" points="0,-52.5 180,-52.5 "/>
<text text-anchor="start" x="8" y="-40.5" font-family="Helvetica,sans-Serif" font-size="10.00">+ CONSTANT_InvokeDynamic_info()</text>
<text text-anchor="start" x="8" y="-29.5" font-family="Helvetica,sans-Serif" font-size="10.00">+ ~CONSTANT_InvokeDynamic_info()</text>
<text text-anchor="start" x="8" y="-18.5" font-family="Helvetica,sans-Serif" font-size="10.00">+ getValue()</text>
<text text-anchor="start" x="8" y="-7.5" font-family="Helvetica,sans-Serif" font-size="10.00">+ getGeneralInfo()</text>
</a>
</g>
</g>
<!-- Node2 -->
<g id="node2" class="node"><title>Node2</title>
<g id="a_node2"><a xlink:href="../../d7/d7d/class_utils_1_1_constant_pool_1_1_base_constant_info.xhtml" target="_top" xlink:title=" ">
<polygon fill="none" stroke="black" points="33,-160.5 33,-250.5 147,-250.5 147,-160.5 33,-160.5"/>
<text text-anchor="start" x="41" y="-238.5" font-family="Helvetica,sans-Serif" font-size="10.00">Utils::ConstantPool</text>
<text text-anchor="middle" x="90" y="-227.5" font-family="Helvetica,sans-Serif" font-size="10.00">::BaseConstantInfo</text>
<polyline fill="none" stroke="black" points="33,-220.5 147,-220.5 "/>
<text text-anchor="start" x="41" y="-208.5" font-family="Helvetica,sans-Serif" font-size="10.00">+ tag</text>
<polyline fill="none" stroke="black" points="33,-201.5 147,-201.5 "/>
<text text-anchor="start" x="41" y="-189.5" font-family="Helvetica,sans-Serif" font-size="10.00">+ BaseConstantInfo()</text>
<text text-anchor="start" x="41" y="-178.5" font-family="Helvetica,sans-Serif" font-size="10.00">+ BaseConstantInfo()</text>
<text text-anchor="start" x="41" y="-167.5" font-family="Helvetica,sans-Serif" font-size="10.00">+ ~BaseConstantInfo()</text>
</a>
</g>
</g>
<!-- Node2&#45;&gt;Node1 -->
<g id="edge1" class="edge"><title>Node2&#45;&gt;Node1</title>
<path fill="none" stroke="midnightblue" d="M90,-150.11C90,-141.421 90,-132.383 90,-123.561"/>
<polygon fill="none" stroke="midnightblue" points="86.5001,-150.117 90,-160.117 93.5001,-150.117 86.5001,-150.117"/>
</g>
</g>
</svg>
