<?xml version="1.0" encoding="UTF-8" standalone="no"?>
<!DOCTYPE svg PUBLIC "-//W3C//DTD SVG 1.1//EN"
 "http://www.w3.org/Graphics/SVG/1.1/DTD/svg11.dtd">
<!-- Generated by graphviz version 2.38.0 (20140413.2041)
 -->
<!-- Title: Instructions::Double::Div Pages: 1 -->
<svg width="130pt" height="449pt"
 viewBox="0.00 0.00 130.00 449.00" xmlns="http://www.w3.org/2000/svg" xmlns:xlink="http://www.w3.org/1999/xlink">
<g id="graph0" class="graph" transform="scale(1 1) rotate(0) translate(4 445)">
<title>Instructions::Double::Div</title>
<!-- Node1 -->
<g id="node1" class="node"><title>Node1</title>
<g id="a_node1"><a xlink:title=" ">
<polygon fill="#bfbfbf" stroke="black" points="0,-0.5 0,-68.5 122,-68.5 122,-0.5 0,-0.5"/>
<text text-anchor="middle" x="61" y="-56.5" font-family="Helvetica,sans-Serif" font-size="10.00">Instructions::Double::Div</text>
<polyline fill="none" stroke="black" points="0,-49.5 122,-49.5 "/>
<text text-anchor="middle" x="61" y="-37.5" font-family="Helvetica,sans-Serif" font-size="10.00"> </text>
<polyline fill="none" stroke="black" points="0,-30.5 122,-30.5 "/>
<text text-anchor="start" x="8" y="-18.5" font-family="Helvetica,sans-Serif" font-size="10.00">+ Div()</text>
<text text-anchor="start" x="8" y="-7.5" font-family="Helvetica,sans-Serif" font-size="10.00">+ execute()</text>
</a>
</g>
</g>
<!-- Node2 -->
<g id="node2" class="node"><title>Node2</title>
<g id="a_node2"><a xlink:href="../../da/de3/class_instructions_1_1_double_1_1_base_double.xhtml" target="_top" xlink:title=" ">
<polygon fill="none" stroke="black" points="9,-106.5 9,-196.5 113,-196.5 113,-106.5 9,-106.5"/>
<text text-anchor="start" x="17" y="-184.5" font-family="Helvetica,sans-Serif" font-size="10.00">Instructions::Double</text>
<text text-anchor="middle" x="61" y="-173.5" font-family="Helvetica,sans-Serif" font-size="10.00">::BaseDouble</text>
<polyline fill="none" stroke="black" points="9,-166.5 113,-166.5 "/>
<text text-anchor="middle" x="61" y="-154.5" font-family="Helvetica,sans-Serif" font-size="10.00"> </text>
<polyline fill="none" stroke="black" points="9,-147.5 113,-147.5 "/>
<text text-anchor="start" x="17" y="-135.5" font-family="Helvetica,sans-Serif" font-size="10.00">+ BaseDouble()</text>
<text text-anchor="start" x="17" y="-124.5" font-family="Helvetica,sans-Serif" font-size="10.00">+ toBytecode()</text>
<text text-anchor="start" x="17" y="-113.5" font-family="Helvetica,sans-Serif" font-size="10.00">+ toBytecode_json()</text>
</a>
</g>
</g>
<!-- Node2&#45;&gt;Node1 -->
<g id="edge1" class="edge"><title>Node2&#45;&gt;Node1</title>
<path fill="none" stroke="midnightblue" d="M61,-96.2309C61,-86.8035 61,-77.2599 61,-68.6181"/>
<polygon fill="none" stroke="midnightblue" points="57.5001,-96.3669 61,-106.367 64.5001,-96.3669 57.5001,-96.3669"/>
</g>
<!-- Node3 -->
<g id="node3" class="node"><title>Node3</title>
<g id="a_node3"><a xlink:href="../../d4/da8/class_instructions_1_1_instruction.xhtml" target="_top" xlink:title=" ">
<polygon fill="none" stroke="black" points="2,-234.5 2,-335.5 120,-335.5 120,-234.5 2,-234.5"/>
<text text-anchor="middle" x="61" y="-323.5" font-family="Helvetica,sans-Serif" font-size="10.00">Instructions::Instruction</text>
<polyline fill="none" stroke="black" points="2,-316.5 120,-316.5 "/>
<text text-anchor="middle" x="61" y="-304.5" font-family="Helvetica,sans-Serif" font-size="10.00"> </text>
<polyline fill="none" stroke="black" points="2,-297.5 120,-297.5 "/>
<text text-anchor="start" x="10" y="-285.5" font-family="Helvetica,sans-Serif" font-size="10.00">+ Instruction()</text>
<text text-anchor="start" x="10" y="-274.5" font-family="Helvetica,sans-Serif" font-size="10.00">+ ~Instruction()</text>
<text text-anchor="start" x="10" y="-263.5" font-family="Helvetica,sans-Serif" font-size="10.00">+ execute()</text>
<text text-anchor="start" x="10" y="-252.5" font-family="Helvetica,sans-Serif" font-size="10.00">+ toBytecode()</text>
<text text-anchor="start" x="10" y="-241.5" font-family="Helvetica,sans-Serif" font-size="10.00">+ toBytecode_json()</text>
</a>
</g>
</g>
<!-- Node3&#45;&gt;Node2 -->
<g id="edge2" class="edge"><title>Node3&#45;&gt;Node2</title>
<path fill="none" stroke="midnightblue" d="M61,-224.001C61,-214.8 61,-205.449 61,-196.673"/>
<polygon fill="none" stroke="midnightblue" points="57.5001,-224.285 61,-234.285 64.5001,-224.286 57.5001,-224.285"/>
</g>
<!-- Node4 -->
<g id="node4" class="node"><title>Node4</title>
<g id="a_node4"><a xlink:title=" ">
<polygon fill="none" stroke="#bfbfbf" points="46.5,-383.5 46.5,-440.5 75.5,-440.5 75.5,-383.5 46.5,-383.5"/>
<text text-anchor="middle" x="61" y="-428.5" font-family="Helvetica,sans-Serif" font-size="10.00">u1</text>
<polyline fill="none" stroke="#bfbfbf" points="46.5,-421.5 75.5,-421.5 "/>
<text text-anchor="middle" x="61" y="-409.5" font-family="Helvetica,sans-Serif" font-size="10.00"> </text>
<polyline fill="none" stroke="#bfbfbf" points="46.5,-402.5 75.5,-402.5 "/>
<text text-anchor="middle" x="61" y="-390.5" font-family="Helvetica,sans-Serif" font-size="10.00"> </text>
</a>
</g>
</g>
<!-- Node4&#45;&gt;Node3 -->
<g id="edge3" class="edge"><title>Node4&#45;&gt;Node3</title>
<path fill="none" stroke="#404040" d="M61,-383.258C61,-372.793 61,-360.422 61,-348.072"/>
<polygon fill="none" stroke="#404040" points="61.0001,-347.802 57,-341.802 61,-335.802 65,-341.802 61.0001,-347.802"/>
<text text-anchor="middle" x="81.5" y="-357" font-family="Helvetica,sans-Serif" font-size="10.00"> +opcode</text>
</g>
</g>
</svg>
