<?xml version="1.0" encoding="UTF-8" standalone="no"?>
<!DOCTYPE svg PUBLIC "-//W3C//DTD SVG 1.1//EN"
 "http://www.w3.org/Graphics/SVG/1.1/DTD/svg11.dtd">
<!-- Generated by graphviz version 2.38.0 (20140413.2041)
 -->
<!-- Title: nlohmann::detail::from_json Pages: 1 -->
<svg width="311pt" height="78pt"
 viewBox="0.00 0.00 311.00 77.50" xmlns="http://www.w3.org/2000/svg" xmlns:xlink="http://www.w3.org/1999/xlink">
<g id="graph0" class="graph" transform="scale(1 1) rotate(0) translate(4 73.5)">
<title>nlohmann::detail::from_json</title>
<!-- Node1 -->
<g id="node1" class="node"><title>Node1</title>
<g id="a_node1"><a xlink:title=" ">
<polygon fill="#bfbfbf" stroke="black" points="167,-22.5 167,-41.5 303,-41.5 303,-22.5 167,-22.5"/>
<text text-anchor="middle" x="235" y="-29.5" font-family="Helvetica,sans-Serif" font-size="10.00">nlohmann::detail::from_json</text>
</a>
</g>
</g>
<!-- Node2 -->
<g id="node2" class="node"><title>Node2</title>
<g id="a_node2"><a xlink:href="../../dc/dc7/structnlohmann_1_1adl__serializer.xhtml#ab39cad07c1a2bf4414d6cae5215b4e7a" target="_top" xlink:title="convert a JSON value to any value type">
<polygon fill="none" stroke="black" points="4.5,-39 4.5,-69 126.5,-69 126.5,-39 4.5,-39"/>
<text text-anchor="start" x="12.5" y="-57" font-family="Helvetica,sans-Serif" font-size="10.00">nlohmann::adl_serializer</text>
<text text-anchor="middle" x="65.5" y="-46" font-family="Helvetica,sans-Serif" font-size="10.00">::from_json</text>
</a>
</g>
</g>
<!-- Node1&#45;&gt;Node2 -->
<g id="edge1" class="edge"><title>Node1&#45;&gt;Node2</title>
<path fill="none" stroke="midnightblue" d="M156.784,-42.1419C146.666,-43.4707 136.42,-44.8164 126.642,-46.1007"/>
<polygon fill="midnightblue" stroke="midnightblue" points="157.377,-45.594 166.836,-40.8215 156.466,-38.6536 157.377,-45.594"/>
</g>
<!-- Node3 -->
<g id="node3" class="node"><title>Node3</title>
<g id="a_node3"><a xlink:href="../../d9/dcc/classnlohmann_1_1basic__json.xhtml#aa6602bb24022183ab989439e19345d08" target="_top" xlink:title="get a value (explicit)">
<polygon fill="none" stroke="black" points="0,-0.5 0,-19.5 131,-19.5 131,-0.5 0,-0.5"/>
<text text-anchor="middle" x="65.5" y="-7.5" font-family="Helvetica,sans-Serif" font-size="10.00">nlohmann::basic_json::get</text>
</a>
</g>
</g>
<!-- Node1&#45;&gt;Node3 -->
<g id="edge2" class="edge"><title>Node1&#45;&gt;Node3</title>
<path fill="none" stroke="midnightblue" d="M156.844,-21.8661C148.278,-20.7409 139.618,-19.6036 131.228,-18.5016"/>
<polygon fill="midnightblue" stroke="midnightblue" points="156.466,-25.3464 166.836,-23.1785 157.377,-18.406 156.466,-25.3464"/>
</g>
</g>
</svg>
