<?xml version="1.0" encoding="UTF-8" standalone="no"?>
<!DOCTYPE svg PUBLIC "-//W3C//DTD SVG 1.1//EN"
 "http://www.w3.org/Graphics/SVG/1.1/DTD/svg11.dtd">
<!-- Generated by graphviz version 2.38.0 (20140413.2041)
 -->
<!-- Title: nlohmann::detail::to_json Pages: 1 -->
<svg width="291pt" height="88pt"
 viewBox="0.00 0.00 291.00 88.00" xmlns="http://www.w3.org/2000/svg" xmlns:xlink="http://www.w3.org/1999/xlink">
<g id="graph0" class="graph" transform="scale(1 1) rotate(0) translate(4 84)">
<title>nlohmann::detail::to_json</title>
<!-- Node1 -->
<g id="node1" class="node"><title>Node1</title>
<g id="a_node1"><a xlink:title=" ">
<polygon fill="#bfbfbf" stroke="black" points="158,-30 158,-49 283,-49 283,-30 158,-30"/>
<text text-anchor="middle" x="220.5" y="-37" font-family="Helvetica,sans-Serif" font-size="10.00">nlohmann::detail::to_json</text>
</a>
</g>
</g>
<!-- Node2 -->
<g id="node2" class="node"><title>Node2</title>
<g id="a_node2"><a xlink:href="../../d9/dcc/classnlohmann_1_1basic__json.xhtml#a7639e0834df2bc719a04ffea89b31abc" target="_top" xlink:title="create a JSON value">
<polygon fill="none" stroke="black" points="5.5,-49.5 5.5,-79.5 116.5,-79.5 116.5,-49.5 5.5,-49.5"/>
<text text-anchor="start" x="13.5" y="-67.5" font-family="Helvetica,sans-Serif" font-size="10.00">nlohmann::basic_json</text>
<text text-anchor="middle" x="61" y="-56.5" font-family="Helvetica,sans-Serif" font-size="10.00">::basic_json</text>
</a>
</g>
</g>
<!-- Node1&#45;&gt;Node2 -->
<g id="edge1" class="edge"><title>Node1&#45;&gt;Node2</title>
<path fill="none" stroke="midnightblue" d="M149.49,-50.6128C138.484,-52.3597 127.248,-54.1431 116.656,-55.8245"/>
<polygon fill="midnightblue" stroke="midnightblue" points="150.179,-54.0472 159.507,-49.0227 149.082,-47.1338 150.179,-54.0472"/>
</g>
<!-- Node3 -->
<g id="node3" class="node"><title>Node3</title>
<g id="a_node3"><a xlink:href="../../dc/dc7/structnlohmann_1_1adl__serializer.xhtml#adf8cd96afe6ab243b67392dfe35ace89" target="_top" xlink:title="convert any value type to a JSON value">
<polygon fill="none" stroke="black" points="0,-0.5 0,-30.5 122,-30.5 122,-0.5 0,-0.5"/>
<text text-anchor="start" x="8" y="-18.5" font-family="Helvetica,sans-Serif" font-size="10.00">nlohmann::adl_serializer</text>
<text text-anchor="middle" x="61" y="-7.5" font-family="Helvetica,sans-Serif" font-size="10.00">::to_json</text>
</a>
</g>
</g>
<!-- Node1&#45;&gt;Node3 -->
<g id="edge2" class="edge"><title>Node1&#45;&gt;Node3</title>
<path fill="none" stroke="midnightblue" d="M147.714,-28.5612C139.141,-27.2547 130.456,-25.9313 122.071,-24.6536"/>
<polygon fill="midnightblue" stroke="midnightblue" points="147.291,-32.037 157.704,-30.0834 148.345,-25.1169 147.291,-32.037"/>
</g>
</g>
</svg>
