<?xml version="1.0" encoding="UTF-8" standalone="no"?>
<!DOCTYPE svg PUBLIC "-//W3C//DTD SVG 1.1//EN"
 "http://www.w3.org/Graphics/SVG/1.1/DTD/svg11.dtd">
<!-- Generated by graphviz version 2.38.0 (20140413.2041)
 -->
<!-- Title: nlohmann::detail::is_compatible_integer_type_impl&lt; bool, typename, typename &gt; Pages: 1 -->
<svg width="181pt" height="182pt"
 viewBox="0.00 0.00 181.00 182.00" xmlns="http://www.w3.org/2000/svg" xmlns:xlink="http://www.w3.org/1999/xlink">
<g id="graph0" class="graph" transform="scale(1 1) rotate(0) translate(4 178)">
<title>nlohmann::detail::is_compatible_integer_type_impl&lt; bool, typename, typename &gt;</title>
<!-- Node1 -->
<g id="node1" class="node"><title>Node1</title>
<g id="a_node1"><a xlink:title=" ">
<polygon fill="#bfbfbf" stroke="black" points="0,-0.5 0,-79.5 173,-79.5 173,-0.5 0,-0.5"/>
<text text-anchor="start" x="8" y="-67.5" font-family="Helvetica,sans-Serif" font-size="10.00">nlohmann::detail::is</text>
<text text-anchor="start" x="8" y="-56.5" font-family="Helvetica,sans-Serif" font-size="10.00">_compatible_integer_type</text>
<text text-anchor="middle" x="86.5" y="-45.5" font-family="Helvetica,sans-Serif" font-size="10.00">_impl&lt; bool, typename, typename &gt;</text>
<polyline fill="none" stroke="black" points="0,-38.5 173,-38.5 "/>
<text text-anchor="middle" x="86.5" y="-26.5" font-family="Helvetica,sans-Serif" font-size="10.00"> </text>
<polyline fill="none" stroke="black" points="0,-19.5 173,-19.5 "/>
<text text-anchor="middle" x="86.5" y="-7.5" font-family="Helvetica,sans-Serif" font-size="10.00"> </text>
</a>
</g>
</g>
<!-- Node2 -->
<g id="node2" class="node"><title>Node2</title>
<g id="a_node2"><a xlink:title=" ">
<polygon fill="none" stroke="#bfbfbf" points="56,-116.5 56,-173.5 117,-173.5 117,-116.5 56,-116.5"/>
<text text-anchor="middle" x="86.5" y="-161.5" font-family="Helvetica,sans-Serif" font-size="10.00">false_type</text>
<polyline fill="none" stroke="#bfbfbf" points="56,-154.5 117,-154.5 "/>
<text text-anchor="middle" x="86.5" y="-142.5" font-family="Helvetica,sans-Serif" font-size="10.00"> </text>
<polyline fill="none" stroke="#bfbfbf" points="56,-135.5 117,-135.5 "/>
<text text-anchor="middle" x="86.5" y="-123.5" font-family="Helvetica,sans-Serif" font-size="10.00"> </text>
</a>
</g>
</g>
<!-- Node2&#45;&gt;Node1 -->
<g id="edge1" class="edge"><title>Node2&#45;&gt;Node1</title>
<path fill="none" stroke="midnightblue" d="M86.5,-106.156C86.5,-97.4733 86.5,-88.2318 86.5,-79.5205"/>
<polygon fill="none" stroke="midnightblue" points="83.0001,-106.398 86.5,-116.398 90.0001,-106.398 83.0001,-106.398"/>
</g>
</g>
</svg>
