<?xml version="1.0" encoding="UTF-8" standalone="no"?>
<!DOCTYPE svg PUBLIC "-//W3C//DTD SVG 1.1//EN"
 "http://www.w3.org/Graphics/SVG/1.1/DTD/svg11.dtd">
<!-- Generated by graphviz version 2.38.0 (20140413.2041)
 -->
<!-- Title: Instructions::Double::Neg Pages: 1 -->
<svg width="134pt" height="449pt"
 viewBox="0.00 0.00 134.00 449.00" xmlns="http://www.w3.org/2000/svg" xmlns:xlink="http://www.w3.org/1999/xlink">
<g id="graph0" class="graph" transform="scale(1 1) rotate(0) translate(4 445)">
<title>Instructions::Double::Neg</title>
<!-- Node1 -->
<g id="node1" class="node"><title>Node1</title>
<g id="a_node1"><a xlink:title=" ">
<polygon fill="#bfbfbf" stroke="black" points="0,-0.5 0,-68.5 126,-68.5 126,-0.5 0,-0.5"/>
<text text-anchor="middle" x="63" y="-56.5" font-family="Helvetica,sans-Serif" font-size="10.00">Instructions::Double::Neg</text>
<polyline fill="none" stroke="black" points="0,-49.5 126,-49.5 "/>
<text text-anchor="middle" x="63" y="-37.5" font-family="Helvetica,sans-Serif" font-size="10.00"> </text>
<polyline fill="none" stroke="black" points="0,-30.5 126,-30.5 "/>
<text text-anchor="start" x="8" y="-18.5" font-family="Helvetica,sans-Serif" font-size="10.00">+ Neg()</text>
<text text-anchor="start" x="8" y="-7.5" font-family="Helvetica,sans-Serif" font-size="10.00">+ execute()</text>
</a>
</g>
</g>
<!-- Node2 -->
<g id="node2" class="node"><title>Node2</title>
<g id="a_node2"><a xlink:href="../../da/de3/class_instructions_1_1_double_1_1_base_double.xhtml" target="_top" xlink:title=" ">
<polygon fill="none" stroke="black" points="11,-106.5 11,-196.5 115,-196.5 115,-106.5 11,-106.5"/>
<text text-anchor="start" x="19" y="-184.5" font-family="Helvetica,sans-Serif" font-size="10.00">Instructions::Double</text>
<text text-anchor="middle" x="63" y="-173.5" font-family="Helvetica,sans-Serif" font-size="10.00">::BaseDouble</text>
<polyline fill="none" stroke="black" points="11,-166.5 115,-166.5 "/>
<text text-anchor="middle" x="63" y="-154.5" font-family="Helvetica,sans-Serif" font-size="10.00"> </text>
<polyline fill="none" stroke="black" points="11,-147.5 115,-147.5 "/>
<text text-anchor="start" x="19" y="-135.5" font-family="Helvetica,sans-Serif" font-size="10.00">+ BaseDouble()</text>
<text text-anchor="start" x="19" y="-124.5" font-family="Helvetica,sans-Serif" font-size="10.00">+ toBytecode()</text>
<text text-anchor="start" x="19" y="-113.5" font-family="Helvetica,sans-Serif" font-size="10.00">+ toBytecode_json()</text>
</a>
</g>
</g>
<!-- Node2&#45;&gt;Node1 -->
<g id="edge1" class="edge"><title>Node2&#45;&gt;Node1</title>
<path fill="none" stroke="midnightblue" d="M63,-96.2309C63,-86.8035 63,-77.2599 63,-68.6181"/>
<polygon fill="none" stroke="midnightblue" points="59.5001,-96.3669 63,-106.367 66.5001,-96.3669 59.5001,-96.3669"/>
</g>
<!-- Node3 -->
<g id="node3" class="node"><title>Node3</title>
<g id="a_node3"><a xlink:href="../../d4/da8/class_instructions_1_1_instruction.xhtml" target="_top" xlink:title=" ">
<polygon fill="none" stroke="black" points="4,-234.5 4,-335.5 122,-335.5 122,-234.5 4,-234.5"/>
<text text-anchor="middle" x="63" y="-323.5" font-family="Helvetica,sans-Serif" font-size="10.00">Instructions::Instruction</text>
<polyline fill="none" stroke="black" points="4,-316.5 122,-316.5 "/>
<text text-anchor="middle" x="63" y="-304.5" font-family="Helvetica,sans-Serif" font-size="10.00"> </text>
<polyline fill="none" stroke="black" points="4,-297.5 122,-297.5 "/>
<text text-anchor="start" x="12" y="-285.5" font-family="Helvetica,sans-Serif" font-size="10.00">+ Instruction()</text>
<text text-anchor="start" x="12" y="-274.5" font-family="Helvetica,sans-Serif" font-size="10.00">+ ~Instruction()</text>
<text text-anchor="start" x="12" y="-263.5" font-family="Helvetica,sans-Serif" font-size="10.00">+ execute()</text>
<text text-anchor="start" x="12" y="-252.5" font-family="Helvetica,sans-Serif" font-size="10.00">+ toBytecode()</text>
<text text-anchor="start" x="12" y="-241.5" font-family="Helvetica,sans-Serif" font-size="10.00">+ toBytecode_json()</text>
</a>
</g>
</g>
<!-- Node3&#45;&gt;Node2 -->
<g id="edge2" class="edge"><title>Node3&#45;&gt;Node2</title>
<path fill="none" stroke="midnightblue" d="M63,-224.001C63,-214.8 63,-205.449 63,-196.673"/>
<polygon fill="none" stroke="midnightblue" points="59.5001,-224.285 63,-234.285 66.5001,-224.286 59.5001,-224.285"/>
</g>
<!-- Node4 -->
<g id="node4" class="node"><title>Node4</title>
<g id="a_node4"><a xlink:title=" ">
<polygon fill="none" stroke="#bfbfbf" points="48.5,-383.5 48.5,-440.5 77.5,-440.5 77.5,-383.5 48.5,-383.5"/>
<text text-anchor="middle" x="63" y="-428.5" font-family="Helvetica,sans-Serif" font-size="10.00">u1</text>
<polyline fill="none" stroke="#bfbfbf" points="48.5,-421.5 77.5,-421.5 "/>
<text text-anchor="middle" x="63" y="-409.5" font-family="Helvetica,sans-Serif" font-size="10.00"> </text>
<polyline fill="none" stroke="#bfbfbf" points="48.5,-402.5 77.5,-402.5 "/>
<text text-anchor="middle" x="63" y="-390.5" font-family="Helvetica,sans-Serif" font-size="10.00"> </text>
</a>
</g>
</g>
<!-- Node4&#45;&gt;Node3 -->
<g id="edge3" class="edge"><title>Node4&#45;&gt;Node3</title>
<path fill="none" stroke="#404040" d="M63,-383.258C63,-372.793 63,-360.422 63,-348.072"/>
<polygon fill="none" stroke="#404040" points="63.0001,-347.802 59,-341.802 63,-335.802 67,-341.802 63.0001,-347.802"/>
<text text-anchor="middle" x="83.5" y="-357" font-family="Helvetica,sans-Serif" font-size="10.00"> +opcode</text>
</g>
</g>
</svg>
