<?xml version="1.0" encoding="UTF-8" standalone="no"?>
<!DOCTYPE svg PUBLIC "-//W3C//DTD SVG 1.1//EN"
 "http://www.w3.org/Graphics/SVG/1.1/DTD/svg11.dtd">
<!-- Generated by graphviz version 2.38.0 (20140413.2041)
 -->
<!-- Title: include/utils/memory_areas/method_area.h Pages: 1 -->
<!--zoomable 386 -->
<svg id="main" version="1.1" xmlns="http://www.w3.org/2000/svg" xmlns:xlink="http://www.w3.org/1999/xlink" xml:space="preserve" onload="init(evt)">
<style type="text/css"><![CDATA[
.edge:hover path { stroke: red; }
.edge:hover polygon { stroke: red; fill: red; }
]]></style>
<script type="text/javascript"><![CDATA[
var edges = document.getElementsByTagName('g');
if (edges && edges.length) {
  for (var i=0;i<edges.length;i++) {
    if (edges[i].id.substr(0,4)=='edge') {
      edges[i].setAttribute('class','edge');
    }
  }
}
]]></script>
        <defs>
                <circle id="rim" cx="0" cy="0" r="7"/>
                <circle id="rim2" cx="0" cy="0" r="3.5"/>
                <g id="zoomPlus">
                        <use xlink:href="#rim" fill="#404040">
                                <set attributeName="fill" to="#808080" begin="zoomplus.mouseover" end="zoomplus.mouseout"/>
                        </use>
                        <path d="M-4,0h8M0,-4v8" fill="none" stroke="white" stroke-width="1.5" pointer-events="none"/>
                </g>
                <g id="zoomMin">
                        <use xlink:href="#rim" fill="#404040">
                                <set attributeName="fill" to="#808080" begin="zoomminus.mouseover" end="zoomminus.mouseout"/>
                        </use>
                        <path d="M-4,0h8" fill="none" stroke="white" stroke-width="1.5" pointer-events="none"/>
                </g>
                <g id="dirArrow">
                        <path fill="none" stroke="white" stroke-width="1.5" d="M0,-3.0v7 M-2.5,-0.5L0,-3.0L2.5,-0.5"/>
                </g>
               <g id="resetDef">
                       <use xlink:href="#rim2" fill="#404040">
                               <set attributeName="fill" to="#808080" begin="reset.mouseover" end="reset.mouseout"/>
                       </use>
               </g>
        </defs>

<script type="text/javascript">
var viewWidth = 2030;
var viewHeight = 386;
var sectionId = 'dynsection-0';
</script>
<script xlink:href="../../svgpan.js"/>
<svg id="graph" class="graph">
<g id="viewport">
<title>include/utils/memory_areas/method_area.h</title>
<!-- Node1 -->
<g id="node1" class="node"><title>Node1</title>
<g id="a_node1"><a xlink:title=" ">
<polygon fill="#bfbfbf" stroke="black" points="1639.5,-347.5 1639.5,-377.5 1752.5,-377.5 1752.5,-347.5 1639.5,-347.5"/>
<text text-anchor="start" x="1647.5" y="-365.5" font-family="Helvetica,sans-Serif" font-size="10.00">include/utils/memory</text>
<text text-anchor="middle" x="1696" y="-354.5" font-family="Helvetica,sans-Serif" font-size="10.00">_areas/method_area.h</text>
</a>
</g>
</g>
<!-- Node2 -->
<g id="node2" class="node"><title>Node2</title>
<g id="a_node2"><a xlink:title=" ">
<polygon fill="none" stroke="#bfbfbf" points="1480.5,-291.5 1480.5,-310.5 1509.5,-310.5 1509.5,-291.5 1480.5,-291.5"/>
<text text-anchor="middle" x="1495" y="-298.5" font-family="Helvetica,sans-Serif" font-size="10.00">list</text>
</a>
</g>
</g>
<!-- Node1&#45;&gt;Node2 -->
<g id="edge1" class="edge"><title>Node1&#45;&gt;Node2</title>
<path fill="none" stroke="midnightblue" d="M1647.38,-347.441C1612.9,-337.418 1565.56,-323.55 1524,-311 1522.55,-310.562 1521.06,-310.109 1519.55,-309.649"/>
<polygon fill="midnightblue" stroke="midnightblue" points="1520.33,-306.225 1509.74,-306.622 1518.26,-312.914 1520.33,-306.225"/>
</g>
<!-- Node3 -->
<g id="node3" class="node"><title>Node3</title>
<g id="a_node3"><a xlink:title=" ">
<polygon fill="none" stroke="#bfbfbf" points="1925.5,-56.5 1925.5,-75.5 1966.5,-75.5 1966.5,-56.5 1925.5,-56.5"/>
<text text-anchor="middle" x="1946" y="-63.5" font-family="Helvetica,sans-Serif" font-size="10.00">string</text>
</a>
</g>
</g>
<!-- Node1&#45;&gt;Node3 -->
<g id="edge2" class="edge"><title>Node1&#45;&gt;Node3</title>
<path fill="none" stroke="midnightblue" d="M1752.78,-353.328C1846.19,-338.275 2022,-302.442 2022,-246 2022,-246 2022,-246 2022,-188 2022,-144.475 1986.3,-103.775 1963.84,-82.4715"/>
<polygon fill="midnightblue" stroke="midnightblue" points="1965.99,-79.6984 1956.25,-75.5313 1961.27,-84.8634 1965.99,-79.6984"/>
</g>
<!-- Node4 -->
<g id="node4" class="node"><title>Node4</title>
<g id="a_node4"><a xlink:title=" ">
<polygon fill="none" stroke="#bfbfbf" points="1742,-56.5 1742,-75.5 1784,-75.5 1784,-56.5 1742,-56.5"/>
<text text-anchor="middle" x="1763" y="-63.5" font-family="Helvetica,sans-Serif" font-size="10.00">vector</text>
</a>
</g>
</g>
<!-- Node1&#45;&gt;Node4 -->
<g id="edge3" class="edge"><title>Node1&#45;&gt;Node4</title>
<path fill="none" stroke="midnightblue" d="M1644.7,-347.436C1598.57,-331.298 1538,-299.856 1538,-246 1538,-246 1538,-246 1538,-188 1538,-144.411 1670.64,-96.4252 1732.24,-76.4913"/>
<polygon fill="midnightblue" stroke="midnightblue" points="1733.37,-79.8045 1741.83,-73.4285 1731.24,-73.1362 1733.37,-79.8045"/>
</g>
<!-- Node5 -->
<g id="node5" class="node"><title>Node5</title>
<g id="a_node5"><a xlink:href="../../d4/db4/classfile_8h.xhtml" target="_top" xlink:title=" ">
<polygon fill="none" stroke="black" points="1632,-235.5 1632,-254.5 1692,-254.5 1692,-235.5 1632,-235.5"/>
<text text-anchor="middle" x="1662" y="-242.5" font-family="Helvetica,sans-Serif" font-size="10.00">classfile.h</text>
</a>
</g>
</g>
<!-- Node1&#45;&gt;Node5 -->
<g id="edge4" class="edge"><title>Node1&#45;&gt;Node5</title>
<path fill="none" stroke="midnightblue" d="M1691.83,-347.337C1685.68,-326.433 1674.16,-287.31 1667.38,-264.27"/>
<polygon fill="midnightblue" stroke="midnightblue" points="1670.73,-263.274 1664.55,-254.669 1664.02,-265.251 1670.73,-263.274"/>
</g>
<!-- Node36 -->
<g id="node36" class="node"><title>Node36</title>
<g id="a_node36"><a xlink:href="../../d9/d70/infos_8h.xhtml" target="_top" xlink:title=" ">
<polygon fill="none" stroke="black" points="1687,-179.5 1687,-198.5 1753,-198.5 1753,-179.5 1687,-179.5"/>
<text text-anchor="middle" x="1720" y="-186.5" font-family="Helvetica,sans-Serif" font-size="10.00">utils/infos.h</text>
</a>
</g>
</g>
<!-- Node1&#45;&gt;Node36 -->
<g id="edge53" class="edge"><title>Node1&#45;&gt;Node36</title>
<path fill="none" stroke="midnightblue" d="M1697.96,-347.465C1702.27,-316.704 1712.54,-243.329 1717.38,-208.7"/>
<polygon fill="midnightblue" stroke="midnightblue" points="1720.88,-208.948 1718.8,-198.56 1713.95,-207.978 1720.88,-208.948"/>
</g>
<!-- Node37 -->
<g id="node37" class="node"><title>Node37</title>
<g id="a_node37"><a xlink:href="../../d8/df4/helper__functions_8h.xhtml" target="_top" xlink:title=" ">
<polygon fill="none" stroke="black" points="1754,-291.5 1754,-310.5 1870,-310.5 1870,-291.5 1754,-291.5"/>
<text text-anchor="middle" x="1812" y="-298.5" font-family="Helvetica,sans-Serif" font-size="10.00">utils/helper_functions.h</text>
</a>
</g>
</g>
<!-- Node1&#45;&gt;Node37 -->
<g id="edge49" class="edge"><title>Node1&#45;&gt;Node37</title>
<path fill="none" stroke="midnightblue" d="M1723.49,-347.399C1742.43,-337.684 1767.44,-324.855 1786.04,-315.314"/>
<polygon fill="midnightblue" stroke="midnightblue" points="1787.82,-318.336 1795.12,-310.658 1784.63,-312.108 1787.82,-318.336"/>
</g>
<!-- Node5&#45;&gt;Node4 -->
<g id="edge5" class="edge"><title>Node5&#45;&gt;Node4</title>
<path fill="none" stroke="midnightblue" d="M1662.94,-235.397C1665.76,-212.957 1675.92,-151.639 1706,-112 1715.14,-99.9543 1728.23,-89.3182 1739.56,-81.4148"/>
<polygon fill="midnightblue" stroke="midnightblue" points="1741.77,-84.1437 1748.16,-75.6876 1737.89,-78.3175 1741.77,-84.1437"/>
</g>
<!-- Node6 -->
<g id="node6" class="node"><title>Node6</title>
<g id="a_node6"><a xlink:href="../../d0/d36/constant_pool_8h.xhtml" target="_top" xlink:title=" ">
<polygon fill="none" stroke="black" points="1778.5,-179.5 1778.5,-198.5 1881.5,-198.5 1881.5,-179.5 1778.5,-179.5"/>
<text text-anchor="middle" x="1830" y="-186.5" font-family="Helvetica,sans-Serif" font-size="10.00">utils/constantPool.h</text>
</a>
</g>
</g>
<!-- Node5&#45;&gt;Node6 -->
<g id="edge6" class="edge"><title>Node5&#45;&gt;Node6</title>
<path fill="none" stroke="midnightblue" d="M1688.62,-235.444C1717.01,-226.32 1762.14,-211.813 1793.75,-201.651"/>
<polygon fill="midnightblue" stroke="midnightblue" points="1795.06,-204.909 1803.5,-198.516 1792.91,-198.244 1795.06,-204.909"/>
</g>
<!-- Node8 -->
<g id="node8" class="node"><title>Node8</title>
<g id="a_node8"><a xlink:href="../../d9/d49/types_8h.xhtml" target="_top" xlink:title=" ">
<polygon fill="none" stroke="black" points="1802,-56.5 1802,-75.5 1872,-75.5 1872,-56.5 1802,-56.5"/>
<text text-anchor="middle" x="1837" y="-63.5" font-family="Helvetica,sans-Serif" font-size="10.00">utils/types.h</text>
</a>
</g>
</g>
<!-- Node5&#45;&gt;Node8 -->
<g id="edge48" class="edge"><title>Node5&#45;&gt;Node8</title>
<path fill="none" stroke="midnightblue" d="M1662.49,-235.381C1663.58,-222.311 1667.04,-197.089 1678,-179 1707.8,-129.828 1768.3,-96.5168 1805.48,-79.7225"/>
<polygon fill="midnightblue" stroke="midnightblue" points="1807.1,-82.8361 1814.85,-75.6164 1804.29,-76.4247 1807.1,-82.8361"/>
</g>
<!-- Node10 -->
<g id="node10" class="node"><title>Node10</title>
<g id="a_node10"><a xlink:href="../../d3/dd1/nlohmann__json_8hpp.xhtml" target="_top" xlink:title=" ">
<polygon fill="none" stroke="black" points="923.5,-112.5 923.5,-142.5 1040.5,-142.5 1040.5,-112.5 923.5,-112.5"/>
<text text-anchor="start" x="931.5" y="-130.5" font-family="Helvetica,sans-Serif" font-size="10.00">utils/external/nlohmann</text>
<text text-anchor="middle" x="982" y="-119.5" font-family="Helvetica,sans-Serif" font-size="10.00">_json.hpp</text>
</a>
</g>
</g>
<!-- Node5&#45;&gt;Node10 -->
<g id="edge15" class="edge"><title>Node5&#45;&gt;Node10</title>
<path fill="none" stroke="midnightblue" d="M1631.9,-238.888C1529.99,-221.578 1196.19,-164.881 1050.76,-140.178"/>
<polygon fill="midnightblue" stroke="midnightblue" points="1051.06,-136.68 1040.62,-138.456 1049.89,-143.581 1051.06,-136.68"/>
</g>
<!-- Node5&#45;&gt;Node36 -->
<g id="edge44" class="edge"><title>Node5&#45;&gt;Node36</title>
<path fill="none" stroke="midnightblue" d="M1671.32,-235.324C1679.89,-227.341 1692.81,-215.313 1703.19,-205.653"/>
<polygon fill="midnightblue" stroke="midnightblue" points="1705.58,-208.21 1710.51,-198.834 1700.81,-203.086 1705.58,-208.21"/>
</g>
<!-- Node6&#45;&gt;Node3 -->
<g id="edge7" class="edge"><title>Node6&#45;&gt;Node3</title>
<path fill="none" stroke="midnightblue" d="M1851.15,-179.356C1867.71,-171.746 1890.47,-159.333 1906,-143 1921.85,-126.338 1933.12,-102.17 1939.57,-85.5864"/>
<polygon fill="midnightblue" stroke="midnightblue" points="1942.96,-86.5324 1943.12,-75.9388 1936.39,-84.1164 1942.96,-86.5324"/>
</g>
<!-- Node6&#45;&gt;Node4 -->
<g id="edge8" class="edge"><title>Node6&#45;&gt;Node4</title>
<path fill="none" stroke="midnightblue" d="M1818.38,-179.238C1808.18,-170.958 1793.65,-157.65 1785,-143 1774.43,-125.108 1768.67,-101.822 1765.73,-85.7656"/>
<polygon fill="midnightblue" stroke="midnightblue" points="1769.12,-84.8355 1764.05,-75.5319 1762.21,-85.9659 1769.12,-84.8355"/>
</g>
<!-- Node7 -->
<g id="node7" class="node"><title>Node7</title>
<g id="a_node7"><a xlink:href="../../da/d6e/attributes_8h.xhtml" target="_top" xlink:title=" ">
<polygon fill="none" stroke="black" points="1794,-118 1794,-137 1880,-137 1880,-118 1794,-118"/>
<text text-anchor="middle" x="1837" y="-125" font-family="Helvetica,sans-Serif" font-size="10.00">utils/attributes.h</text>
</a>
</g>
</g>
<!-- Node6&#45;&gt;Node7 -->
<g id="edge9" class="edge"><title>Node6&#45;&gt;Node7</title>
<path fill="none" stroke="midnightblue" d="M1831,-179.475C1831.99,-171.08 1833.53,-157.981 1834.8,-147.163"/>
<polygon fill="midnightblue" stroke="midnightblue" points="1838.31,-147.35 1836,-137.009 1831.35,-146.532 1838.31,-147.35"/>
</g>
<!-- Node6&#45;&gt;Node8 -->
<g id="edge14" class="edge"><title>Node6&#45;&gt;Node8</title>
<path fill="none" stroke="midnightblue" d="M1848.98,-179.398C1862.89,-171.954 1880.71,-159.741 1889,-143 1895.11,-130.652 1894.73,-124.531 1889,-112 1883.22,-99.3602 1871.95,-88.911 1861.37,-81.2737"/>
<polygon fill="midnightblue" stroke="midnightblue" points="1863.04,-78.1817 1852.78,-75.5333 1859.15,-84.0009 1863.04,-78.1817"/>
</g>
<!-- Node7&#45;&gt;Node3 -->
<g id="edge10" class="edge"><title>Node7&#45;&gt;Node3</title>
<path fill="none" stroke="midnightblue" d="M1852.62,-117.975C1870.59,-108.166 1900.32,-91.9346 1921.41,-80.425"/>
<polygon fill="midnightblue" stroke="midnightblue" points="1923.31,-83.3726 1930.41,-75.5091 1919.96,-77.2284 1923.31,-83.3726"/>
</g>
<!-- Node7&#45;&gt;Node4 -->
<g id="edge11" class="edge"><title>Node7&#45;&gt;Node4</title>
<path fill="none" stroke="midnightblue" d="M1826.4,-117.975C1814.75,-108.608 1795.81,-93.3839 1781.67,-82.0081"/>
<polygon fill="midnightblue" stroke="midnightblue" points="1783.57,-79.0477 1773.58,-75.5091 1779.18,-84.503 1783.57,-79.0477"/>
</g>
<!-- Node7&#45;&gt;Node8 -->
<g id="edge12" class="edge"><title>Node7&#45;&gt;Node8</title>
<path fill="none" stroke="midnightblue" d="M1837,-117.975C1837,-109.58 1837,-96.4806 1837,-85.6631"/>
<polygon fill="midnightblue" stroke="midnightblue" points="1840.5,-85.5091 1837,-75.5091 1833.5,-85.5091 1840.5,-85.5091"/>
</g>
<!-- Node9 -->
<g id="node9" class="node"><title>Node9</title>
<g id="a_node9"><a xlink:title=" ">
<polygon fill="none" stroke="#bfbfbf" points="1653,-0.5 1653,-19.5 1699,-19.5 1699,-0.5 1653,-0.5"/>
<text text-anchor="middle" x="1676" y="-7.5" font-family="Helvetica,sans-Serif" font-size="10.00">cstdint</text>
</a>
</g>
</g>
<!-- Node8&#45;&gt;Node9 -->
<g id="edge13" class="edge"><title>Node8&#45;&gt;Node9</title>
<path fill="none" stroke="midnightblue" d="M1811.49,-56.4435C1783.69,-47.1186 1739.12,-32.1716 1708.75,-21.9858"/>
<polygon fill="midnightblue" stroke="midnightblue" points="1709.64,-18.5907 1699.04,-18.729 1707.41,-25.2274 1709.64,-18.5907"/>
</g>
<!-- Node10&#45;&gt;Node3 -->
<g id="edge39" class="edge"><title>Node10&#45;&gt;Node3</title>
<path fill="none" stroke="midnightblue" d="M1040.76,-124.857C1184.46,-120.477 1564.96,-106.705 1881,-76 1892.14,-74.9176 1904.3,-73.3404 1915.06,-71.8076"/>
<polygon fill="midnightblue" stroke="midnightblue" points="1915.88,-75.2253 1925.27,-70.3096 1914.86,-68.2995 1915.88,-75.2253"/>
</g>
<!-- Node10&#45;&gt;Node4 -->
<g id="edge42" class="edge"><title>Node10&#45;&gt;Node4</title>
<path fill="none" stroke="midnightblue" d="M1040.87,-126.822C1168.05,-126.583 1477.55,-120.962 1732,-76 1732.1,-75.9823 1732.2,-75.9645 1732.3,-75.9464"/>
<polygon fill="midnightblue" stroke="midnightblue" points="1732.81,-79.4194 1741.8,-73.8084 1731.27,-72.5903 1732.81,-79.4194"/>
</g>
<!-- Node10&#45;&gt;Node9 -->
<g id="edge23" class="edge"><title>Node10&#45;&gt;Node9</title>
<path fill="none" stroke="midnightblue" d="M1040.91,-123.489C1157.14,-117.092 1412.02,-100.686 1496,-76 1514.69,-70.5065 1516.99,-63.431 1535,-56 1570.96,-41.1588 1613.71,-28.1321 1642.63,-19.965"/>
<polygon fill="midnightblue" stroke="midnightblue" points="1643.93,-23.2365 1652.62,-17.1815 1642.05,-16.4932 1643.93,-23.2365"/>
</g>
<!-- Node11 -->
<g id="node11" class="node"><title>Node11</title>
<g id="a_node11"><a xlink:title=" ">
<polygon fill="none" stroke="#bfbfbf" points="1544,-56.5 1544,-75.5 1600,-75.5 1600,-56.5 1544,-56.5"/>
<text text-anchor="middle" x="1572" y="-63.5" font-family="Helvetica,sans-Serif" font-size="10.00">algorithm</text>
</a>
</g>
</g>
<!-- Node10&#45;&gt;Node11 -->
<g id="edge16" class="edge"><title>Node10&#45;&gt;Node11</title>
<path fill="none" stroke="midnightblue" d="M1040.67,-123.395C1141.26,-117.558 1352.91,-103.035 1530,-76 1531.24,-75.8101 1532.51,-75.6061 1533.78,-75.3907"/>
<polygon fill="midnightblue" stroke="midnightblue" points="1534.43,-78.8305 1543.62,-73.5611 1533.15,-71.9485 1534.43,-78.8305"/>
</g>
<!-- Node12 -->
<g id="node12" class="node"><title>Node12</title>
<g id="a_node12"><a xlink:title=" ">
<polygon fill="none" stroke="#bfbfbf" points="1618,-56.5 1618,-75.5 1656,-75.5 1656,-56.5 1618,-56.5"/>
<text text-anchor="middle" x="1637" y="-63.5" font-family="Helvetica,sans-Serif" font-size="10.00">array</text>
</a>
</g>
</g>
<!-- Node10&#45;&gt;Node12 -->
<g id="edge17" class="edge"><title>Node10&#45;&gt;Node12</title>
<path fill="none" stroke="midnightblue" d="M1040.53,-126.265C1150.43,-124.855 1394.99,-117.122 1607.77,-75.784"/>
<polygon fill="midnightblue" stroke="midnightblue" points="1608.74,-79.1594 1617.87,-73.79 1607.39,-72.2918 1608.74,-79.1594"/>
</g>
<!-- Node13 -->
<g id="node13" class="node"><title>Node13</title>
<g id="a_node13"><a xlink:title=" ">
<polygon fill="none" stroke="#bfbfbf" points="1674.5,-56.5 1674.5,-75.5 1723.5,-75.5 1723.5,-56.5 1674.5,-56.5"/>
<text text-anchor="middle" x="1699" y="-63.5" font-family="Helvetica,sans-Serif" font-size="10.00">cassert</text>
</a>
</g>
</g>
<!-- Node10&#45;&gt;Node13 -->
<g id="edge18" class="edge"><title>Node10&#45;&gt;Node13</title>
<path fill="none" stroke="midnightblue" d="M1040.91,-125.802C1158.06,-123.621 1428.54,-114.637 1664.1,-75.8139"/>
<polygon fill="midnightblue" stroke="midnightblue" points="1664.95,-79.2219 1674.23,-74.1225 1663.79,-72.3175 1664.95,-79.2219"/>
</g>
<!-- Node14 -->
<g id="node14" class="node"><title>Node14</title>
<g id="a_node14"><a xlink:title=" ">
<polygon fill="none" stroke="#bfbfbf" points="0,-56.5 0,-75.5 46,-75.5 46,-56.5 0,-56.5"/>
<text text-anchor="middle" x="23" y="-63.5" font-family="Helvetica,sans-Serif" font-size="10.00">cctype</text>
</a>
</g>
</g>
<!-- Node10&#45;&gt;Node14 -->
<g id="edge19" class="edge"><title>Node10&#45;&gt;Node14</title>
<path fill="none" stroke="midnightblue" d="M923.262,-124.988C749.997,-120.267 242.052,-104.478 56.2114,-75.7843"/>
<polygon fill="midnightblue" stroke="midnightblue" points="56.7138,-72.3202 46.2848,-74.1873 55.602,-79.2313 56.7138,-72.3202"/>
</g>
<!-- Node15 -->
<g id="node15" class="node"><title>Node15</title>
<g id="a_node15"><a xlink:title=" ">
<polygon fill="none" stroke="#bfbfbf" points="64,-56.5 64,-75.5 114,-75.5 114,-56.5 64,-56.5"/>
<text text-anchor="middle" x="89" y="-63.5" font-family="Helvetica,sans-Serif" font-size="10.00">ciso646</text>
</a>
</g>
</g>
<!-- Node10&#45;&gt;Node15 -->
<g id="edge20" class="edge"><title>Node10&#45;&gt;Node15</title>
<path fill="none" stroke="midnightblue" d="M923.495,-127.074C785.485,-127.567 428.926,-123.815 124.044,-75.8307"/>
<polygon fill="midnightblue" stroke="midnightblue" points="124.557,-72.3683 114.131,-74.2518 123.456,-79.2812 124.557,-72.3683"/>
</g>
<!-- Node16 -->
<g id="node16" class="node"><title>Node16</title>
<g id="a_node16"><a xlink:title=" ">
<polygon fill="none" stroke="#bfbfbf" points="132,-56.5 132,-75.5 176,-75.5 176,-56.5 132,-56.5"/>
<text text-anchor="middle" x="154" y="-63.5" font-family="Helvetica,sans-Serif" font-size="10.00">cmath</text>
</a>
</g>
</g>
<!-- Node10&#45;&gt;Node16 -->
<g id="edge21" class="edge"><title>Node10&#45;&gt;Node16</title>
<path fill="none" stroke="midnightblue" d="M923.485,-127.157C792.509,-127.689 465.928,-123.802 186.146,-75.8077"/>
<polygon fill="midnightblue" stroke="midnightblue" points="186.665,-72.3455 176.214,-74.0817 185.467,-79.2421 186.665,-72.3455"/>
</g>
<!-- Node17 -->
<g id="node17" class="node"><title>Node17</title>
<g id="a_node17"><a xlink:title=" ">
<polygon fill="none" stroke="#bfbfbf" points="194,-56.5 194,-75.5 242,-75.5 242,-56.5 194,-56.5"/>
<text text-anchor="middle" x="218" y="-63.5" font-family="Helvetica,sans-Serif" font-size="10.00">cstddef</text>
</a>
</g>
</g>
<!-- Node10&#45;&gt;Node17 -->
<g id="edge22" class="edge"><title>Node10&#45;&gt;Node17</title>
<path fill="none" stroke="midnightblue" d="M923.263,-126.356C800.183,-125.21 506.293,-118.054 252.191,-75.8521"/>
<polygon fill="midnightblue" stroke="midnightblue" points="252.47,-72.3501 242.028,-74.1419 251.309,-79.253 252.47,-72.3501"/>
</g>
<!-- Node18 -->
<g id="node18" class="node"><title>Node18</title>
<g id="a_node18"><a xlink:title=" ">
<polygon fill="none" stroke="#bfbfbf" points="260.5,-56.5 260.5,-75.5 305.5,-75.5 305.5,-56.5 260.5,-56.5"/>
<text text-anchor="middle" x="283" y="-63.5" font-family="Helvetica,sans-Serif" font-size="10.00">cstdlib</text>
</a>
</g>
</g>
<!-- Node10&#45;&gt;Node18 -->
<g id="edge24" class="edge"><title>Node10&#45;&gt;Node18</title>
<path fill="none" stroke="midnightblue" d="M923.073,-125.953C807.854,-124.037 544.732,-115.493 315.455,-75.6895"/>
<polygon fill="midnightblue" stroke="midnightblue" points="316.052,-72.2408 305.597,-73.9549 314.839,-79.1349 316.052,-72.2408"/>
</g>
<!-- Node19 -->
<g id="node19" class="node"><title>Node19</title>
<g id="a_node19"><a xlink:title=" ">
<polygon fill="none" stroke="#bfbfbf" points="324,-56.5 324,-75.5 370,-75.5 370,-56.5 324,-56.5"/>
<text text-anchor="middle" x="347" y="-63.5" font-family="Helvetica,sans-Serif" font-size="10.00">cstring</text>
</a>
</g>
</g>
<!-- Node10&#45;&gt;Node19 -->
<g id="edge25" class="edge"><title>Node10&#45;&gt;Node19</title>
<path fill="none" stroke="midnightblue" d="M923.306,-125.29C816.678,-122.288 584.104,-112.036 380.289,-75.9031"/>
<polygon fill="midnightblue" stroke="midnightblue" points="380.76,-72.4318 370.299,-74.1069 379.522,-79.3213 380.76,-72.4318"/>
</g>
<!-- Node20 -->
<g id="node20" class="node"><title>Node20</title>
<g id="a_node20"><a xlink:title=" ">
<polygon fill="none" stroke="#bfbfbf" points="388.5,-56.5 388.5,-75.5 453.5,-75.5 453.5,-56.5 388.5,-56.5"/>
<text text-anchor="middle" x="421" y="-63.5" font-family="Helvetica,sans-Serif" font-size="10.00">forward_list</text>
</a>
</g>
</g>
<!-- Node10&#45;&gt;Node20 -->
<g id="edge26" class="edge"><title>Node10&#45;&gt;Node20</title>
<path fill="none" stroke="midnightblue" d="M923.352,-122.982C828.741,-116.827 636.447,-102.333 463.97,-75.9802"/>
<polygon fill="midnightblue" stroke="midnightblue" points="464.366,-72.4999 453.949,-74.432 463.297,-79.4178 464.366,-72.4999"/>
</g>
<!-- Node21 -->
<g id="node21" class="node"><title>Node21</title>
<g id="a_node21"><a xlink:title=" ">
<polygon fill="none" stroke="#bfbfbf" points="472,-56.5 472,-75.5 530,-75.5 530,-56.5 472,-56.5"/>
<text text-anchor="middle" x="501" y="-63.5" font-family="Helvetica,sans-Serif" font-size="10.00">functional</text>
</a>
</g>
</g>
<!-- Node10&#45;&gt;Node21 -->
<g id="edge27" class="edge"><title>Node10&#45;&gt;Node21</title>
<path fill="none" stroke="midnightblue" d="M923.277,-122.046C840.142,-115.246 683.255,-100.597 540.63,-76.1054"/>
<polygon fill="midnightblue" stroke="midnightblue" points="540.839,-72.5893 530.387,-74.325 539.64,-79.4859 540.839,-72.5893"/>
</g>
<!-- Node22 -->
<g id="node22" class="node"><title>Node22</title>
<g id="a_node22"><a xlink:title=" ">
<polygon fill="none" stroke="#bfbfbf" points="548.5,-56.5 548.5,-75.5 621.5,-75.5 621.5,-56.5 548.5,-56.5"/>
<text text-anchor="middle" x="585" y="-63.5" font-family="Helvetica,sans-Serif" font-size="10.00">initializer_list</text>
</a>
</g>
</g>
<!-- Node10&#45;&gt;Node22 -->
<g id="edge28" class="edge"><title>Node10&#45;&gt;Node22</title>
<path fill="none" stroke="midnightblue" d="M923.48,-118.997C855.802,-110.114 740.805,-94.3912 631.816,-76.0628"/>
<polygon fill="midnightblue" stroke="midnightblue" points="632.072,-72.5564 621.628,-74.3388 630.904,-79.4583 632.072,-72.5564"/>
</g>
<!-- Node23 -->
<g id="node23" class="node"><title>Node23</title>
<g id="a_node23"><a xlink:title=" ">
<polygon fill="none" stroke="#bfbfbf" points="640,-56.5 640,-75.5 690,-75.5 690,-56.5 640,-56.5"/>
<text text-anchor="middle" x="665" y="-63.5" font-family="Helvetica,sans-Serif" font-size="10.00">iomanip</text>
</a>
</g>
</g>
<!-- Node10&#45;&gt;Node23 -->
<g id="edge29" class="edge"><title>Node10&#45;&gt;Node23</title>
<path fill="none" stroke="midnightblue" d="M923.457,-117.495C868.22,-108.672 782.918,-94.2107 700.027,-76.0859"/>
<polygon fill="midnightblue" stroke="midnightblue" points="700.714,-72.6533 690.195,-73.9159 699.205,-79.4888 700.714,-72.6533"/>
</g>
<!-- Node24 -->
<g id="node24" class="node"><title>Node24</title>
<g id="a_node24"><a xlink:title=" ">
<polygon fill="none" stroke="#bfbfbf" points="708,-56.5 708,-75.5 762,-75.5 762,-56.5 708,-56.5"/>
<text text-anchor="middle" x="735" y="-63.5" font-family="Helvetica,sans-Serif" font-size="10.00">iostream</text>
</a>
</g>
</g>
<!-- Node10&#45;&gt;Node24 -->
<g id="edge30" class="edge"><title>Node10&#45;&gt;Node24</title>
<path fill="none" stroke="midnightblue" d="M923.297,-112.617C883.257,-103.11 828.759,-90.0945 771.992,-76.2259"/>
<polygon fill="midnightblue" stroke="midnightblue" points="772.665,-72.7873 762.12,-73.8109 771.001,-79.5869 772.665,-72.7873"/>
</g>
<!-- Node25 -->
<g id="node25" class="node"><title>Node25</title>
<g id="a_node25"><a xlink:title=" ">
<polygon fill="none" stroke="#bfbfbf" points="780.5,-56.5 780.5,-75.5 827.5,-75.5 827.5,-56.5 780.5,-56.5"/>
<text text-anchor="middle" x="804" y="-63.5" font-family="Helvetica,sans-Serif" font-size="10.00">iterator</text>
</a>
</g>
</g>
<!-- Node10&#45;&gt;Node25 -->
<g id="edge31" class="edge"><title>Node10&#45;&gt;Node25</title>
<path fill="none" stroke="midnightblue" d="M939.816,-112.399C908.457,-101.917 866.256,-87.8104 837.263,-78.1189"/>
<polygon fill="midnightblue" stroke="midnightblue" points="838.192,-74.7391 827.598,-74.8882 835.973,-81.378 838.192,-74.7391"/>
</g>
<!-- Node26 -->
<g id="node26" class="node"><title>Node26</title>
<g id="a_node26"><a xlink:title=" ">
<polygon fill="none" stroke="#bfbfbf" points="846,-56.5 846,-75.5 886,-75.5 886,-56.5 846,-56.5"/>
<text text-anchor="middle" x="866" y="-63.5" font-family="Helvetica,sans-Serif" font-size="10.00">limits</text>
</a>
</g>
</g>
<!-- Node10&#45;&gt;Node26 -->
<g id="edge32" class="edge"><title>Node10&#45;&gt;Node26</title>
<path fill="none" stroke="midnightblue" d="M954.51,-112.399C935.568,-102.684 910.558,-89.8551 891.956,-80.3137"/>
<polygon fill="midnightblue" stroke="midnightblue" points="893.374,-77.1076 882.879,-75.6578 890.179,-83.336 893.374,-77.1076"/>
</g>
<!-- Node27 -->
<g id="node27" class="node"><title>Node27</title>
<g id="a_node27"><a xlink:title=" ">
<polygon fill="none" stroke="#bfbfbf" points="904,-56.5 904,-75.5 946,-75.5 946,-56.5 904,-56.5"/>
<text text-anchor="middle" x="925" y="-63.5" font-family="Helvetica,sans-Serif" font-size="10.00">locale</text>
</a>
</g>
</g>
<!-- Node10&#45;&gt;Node27 -->
<g id="edge33" class="edge"><title>Node10&#45;&gt;Node27</title>
<path fill="none" stroke="midnightblue" d="M968.492,-112.399C960.038,-103.575 949.125,-92.1827 940.345,-83.0178"/>
<polygon fill="midnightblue" stroke="midnightblue" points="942.739,-80.4577 933.294,-75.6578 937.684,-85.3002 942.739,-80.4577"/>
</g>
<!-- Node28 -->
<g id="node28" class="node"><title>Node28</title>
<g id="a_node28"><a xlink:title=" ">
<polygon fill="none" stroke="#bfbfbf" points="964.5,-56.5 964.5,-75.5 999.5,-75.5 999.5,-56.5 964.5,-56.5"/>
<text text-anchor="middle" x="982" y="-63.5" font-family="Helvetica,sans-Serif" font-size="10.00">map</text>
</a>
</g>
</g>
<!-- Node10&#45;&gt;Node28 -->
<g id="edge34" class="edge"><title>Node10&#45;&gt;Node28</title>
<path fill="none" stroke="midnightblue" d="M982,-112.399C982,-104.466 982,-94.458 982,-85.8583"/>
<polygon fill="midnightblue" stroke="midnightblue" points="985.5,-85.6577 982,-75.6578 978.5,-85.6578 985.5,-85.6577"/>
</g>
<!-- Node29 -->
<g id="node29" class="node"><title>Node29</title>
<g id="a_node29"><a xlink:title=" ">
<polygon fill="none" stroke="#bfbfbf" points="1018,-56.5 1018,-75.5 1070,-75.5 1070,-56.5 1018,-56.5"/>
<text text-anchor="middle" x="1044" y="-63.5" font-family="Helvetica,sans-Serif" font-size="10.00">memory</text>
</a>
</g>
</g>
<!-- Node10&#45;&gt;Node29 -->
<g id="edge35" class="edge"><title>Node10&#45;&gt;Node29</title>
<path fill="none" stroke="midnightblue" d="M996.693,-112.399C1005.98,-103.486 1018,-91.9523 1027.6,-82.7408"/>
<polygon fill="midnightblue" stroke="midnightblue" points="1030.19,-85.1072 1034.98,-75.6578 1025.34,-80.0566 1030.19,-85.1072"/>
</g>
<!-- Node30 -->
<g id="node30" class="node"><title>Node30</title>
<g id="a_node30"><a xlink:title=" ">
<polygon fill="none" stroke="#bfbfbf" points="1088.5,-56.5 1088.5,-75.5 1139.5,-75.5 1139.5,-56.5 1088.5,-56.5"/>
<text text-anchor="middle" x="1114" y="-63.5" font-family="Helvetica,sans-Serif" font-size="10.00">numeric</text>
</a>
</g>
</g>
<!-- Node10&#45;&gt;Node30 -->
<g id="edge36" class="edge"><title>Node10&#45;&gt;Node30</title>
<path fill="none" stroke="midnightblue" d="M1013.28,-112.399C1035.23,-102.505 1064.34,-89.3832 1085.62,-79.7919"/>
<polygon fill="midnightblue" stroke="midnightblue" points="1087.11,-82.958 1094.79,-75.6578 1084.24,-76.5764 1087.11,-82.958"/>
</g>
<!-- Node31 -->
<g id="node31" class="node"><title>Node31</title>
<g id="a_node31"><a xlink:title=" ">
<polygon fill="none" stroke="#bfbfbf" points="1158,-56.5 1158,-75.5 1210,-75.5 1210,-56.5 1158,-56.5"/>
<text text-anchor="middle" x="1184" y="-63.5" font-family="Helvetica,sans-Serif" font-size="10.00">sstream</text>
</a>
</g>
</g>
<!-- Node10&#45;&gt;Node31 -->
<g id="edge37" class="edge"><title>Node10&#45;&gt;Node31</title>
<path fill="none" stroke="midnightblue" d="M1029.62,-112.475C1065.87,-101.795 1115.01,-87.3214 1148.02,-77.597"/>
<polygon fill="midnightblue" stroke="midnightblue" points="1149.12,-80.924 1157.72,-74.741 1147.14,-74.2092 1149.12,-80.924"/>
</g>
<!-- Node32 -->
<g id="node32" class="node"><title>Node32</title>
<g id="a_node32"><a xlink:title=" ">
<polygon fill="none" stroke="#bfbfbf" points="1228.5,-56.5 1228.5,-75.5 1287.5,-75.5 1287.5,-56.5 1228.5,-56.5"/>
<text text-anchor="middle" x="1258" y="-63.5" font-family="Helvetica,sans-Serif" font-size="10.00">stdexcept</text>
</a>
</g>
</g>
<!-- Node10&#45;&gt;Node32 -->
<g id="edge38" class="edge"><title>Node10&#45;&gt;Node32</title>
<path fill="none" stroke="midnightblue" d="M1040.98,-114.22C1086.72,-104.631 1151.96,-90.8124 1218.39,-76.1068"/>
<polygon fill="midnightblue" stroke="midnightblue" points="1219.2,-79.5136 1228.2,-73.9311 1217.68,-72.6798 1219.2,-79.5136"/>
</g>
<!-- Node33 -->
<g id="node33" class="node"><title>Node33</title>
<g id="a_node33"><a xlink:title=" ">
<polygon fill="none" stroke="#bfbfbf" points="1306,-56.5 1306,-75.5 1368,-75.5 1368,-56.5 1306,-56.5"/>
<text text-anchor="middle" x="1337" y="-63.5" font-family="Helvetica,sans-Serif" font-size="10.00">type_traits</text>
</a>
</g>
</g>
<!-- Node10&#45;&gt;Node33 -->
<g id="edge40" class="edge"><title>Node10&#45;&gt;Node33</title>
<path fill="none" stroke="midnightblue" d="M1040.62,-118.086C1101.67,-109.095 1200.28,-93.9329 1295.59,-75.9788"/>
<polygon fill="midnightblue" stroke="midnightblue" points="1296.53,-79.3645 1305.7,-74.0623 1295.22,-72.4871 1296.53,-79.3645"/>
</g>
<!-- Node34 -->
<g id="node34" class="node"><title>Node34</title>
<g id="a_node34"><a xlink:title=" ">
<polygon fill="none" stroke="#bfbfbf" points="1386,-56.5 1386,-75.5 1426,-75.5 1426,-56.5 1386,-56.5"/>
<text text-anchor="middle" x="1406" y="-63.5" font-family="Helvetica,sans-Serif" font-size="10.00">utility</text>
</a>
</g>
</g>
<!-- Node10&#45;&gt;Node34 -->
<g id="edge41" class="edge"><title>Node10&#45;&gt;Node34</title>
<path fill="none" stroke="midnightblue" d="M1040.77,-122.195C1116.36,-115.949 1251.74,-102.366 1375.79,-75.9248"/>
<polygon fill="midnightblue" stroke="midnightblue" points="1376.81,-79.2854 1385.84,-73.7483 1375.32,-72.4439 1376.81,-79.2854"/>
</g>
<!-- Node35 -->
<g id="node35" class="node"><title>Node35</title>
<g id="a_node35"><a xlink:title=" ">
<polygon fill="none" stroke="#bfbfbf" points="1444.5,-56.5 1444.5,-75.5 1487.5,-75.5 1487.5,-56.5 1444.5,-56.5"/>
<text text-anchor="middle" x="1466" y="-63.5" font-family="Helvetica,sans-Serif" font-size="10.00">cstdio</text>
</a>
</g>
</g>
<!-- Node10&#45;&gt;Node35 -->
<g id="edge43" class="edge"><title>Node10&#45;&gt;Node35</title>
<path fill="none" stroke="midnightblue" d="M1040.77,-123.177C1125.69,-117.667 1287.63,-104.498 1434.35,-75.7773"/>
<polygon fill="midnightblue" stroke="midnightblue" points="1435.31,-79.1547 1444.44,-73.7729 1433.95,-72.2889 1435.31,-79.1547"/>
</g>
<!-- Node36&#45;&gt;Node4 -->
<g id="edge45" class="edge"><title>Node36&#45;&gt;Node4</title>
<path fill="none" stroke="midnightblue" d="M1716.68,-179.116C1711.75,-164.446 1704.1,-134.539 1714,-112 1719.39,-99.732 1729.96,-89.3414 1739.9,-81.6461"/>
<polygon fill="midnightblue" stroke="midnightblue" points="1742.25,-84.2697 1748.34,-75.598 1738.17,-78.5811 1742.25,-84.2697"/>
</g>
<!-- Node36&#45;&gt;Node7 -->
<g id="edge46" class="edge"><title>Node36&#45;&gt;Node7</title>
<path fill="none" stroke="midnightblue" d="M1736.76,-179.475C1756.22,-169.578 1788.55,-153.142 1811.21,-141.615"/>
<polygon fill="midnightblue" stroke="midnightblue" points="1812.94,-144.662 1820.27,-137.009 1809.77,-138.422 1812.94,-144.662"/>
</g>
<!-- Node36&#45;&gt;Node8 -->
<g id="edge47" class="edge"><title>Node36&#45;&gt;Node8</title>
<path fill="none" stroke="midnightblue" d="M1726.81,-179.197C1738.24,-164.644 1762.23,-134.901 1785,-112 1795.52,-101.417 1808.17,-90.4399 1818.35,-81.9771"/>
<polygon fill="midnightblue" stroke="midnightblue" points="1820.71,-84.5684 1826.23,-75.5234 1816.28,-79.1537 1820.71,-84.5684"/>
</g>
<!-- Node37&#45;&gt;Node3 -->
<g id="edge50" class="edge"><title>Node37&#45;&gt;Node3</title>
<path fill="none" stroke="midnightblue" d="M1820.93,-291.434C1843.47,-269.259 1902.83,-207.207 1931,-143 1939.09,-124.567 1942.84,-101.709 1944.57,-85.9015"/>
<polygon fill="midnightblue" stroke="midnightblue" points="1948.07,-86.0804 1945.5,-75.8013 1941.1,-85.4377 1948.07,-86.0804"/>
</g>
<!-- Node37&#45;&gt;Node5 -->
<g id="edge51" class="edge"><title>Node37&#45;&gt;Node5</title>
<path fill="none" stroke="midnightblue" d="M1788.23,-291.444C1763.11,-282.399 1723.29,-268.064 1695.1,-257.916"/>
<polygon fill="midnightblue" stroke="midnightblue" points="1696.25,-254.611 1685.66,-254.516 1693.88,-261.197 1696.25,-254.611"/>
</g>
<!-- Node37&#45;&gt;Node6 -->
<g id="edge52" class="edge"><title>Node37&#45;&gt;Node6</title>
<path fill="none" stroke="midnightblue" d="M1813.41,-291.368C1816.32,-273.617 1823.02,-232.666 1826.96,-208.597"/>
<polygon fill="midnightblue" stroke="midnightblue" points="1830.43,-209.025 1828.59,-198.591 1823.53,-207.895 1830.43,-209.025"/>
</g>
</g>
</svg>
        <g id="navigator" transform="translate(0 0)" fill="#404254">
                <rect fill="#f2f5e9" fill-opacity="0.5" stroke="#606060" stroke-width=".5" x="0" y="0" width="60" height="60"/>
                <use id="zoomplus" xlink:href="#zoomPlus" x="17" y="9" onmousedown="handleZoom(evt,'in')"/>
                <use id="zoomminus" xlink:href="#zoomMin" x="42" y="9" onmousedown="handleZoom(evt,'out')"/>
                <use id="reset" xlink:href="#resetDef" x="30" y="36" onmousedown="handleReset()"/>
                <g id="arrowUp" xlink:href="#dirArrow" transform="translate(30 24)" onmousedown="handlePan(0,-1)">
                  <use xlink:href="#rim" fill="#404040">
                        <set attributeName="fill" to="#808080" begin="arrowUp.mouseover" end="arrowUp.mouseout"/>
                  </use>
                  <path fill="none" stroke="white" stroke-width="1.5" d="M0,-3.0v7 M-2.5,-0.5L0,-3.0L2.5,-0.5"/>
                </g>
                <g id="arrowRight" xlink:href="#dirArrow" transform="rotate(90) translate(36 -43)" onmousedown="handlePan(1,0)">
                  <use xlink:href="#rim" fill="#404040">
                        <set attributeName="fill" to="#808080" begin="arrowRight.mouseover" end="arrowRight.mouseout"/>
                  </use>
                  <path fill="none" stroke="white" stroke-width="1.5" d="M0,-3.0v7 M-2.5,-0.5L0,-3.0L2.5,-0.5"/>
                </g>
                <g id="arrowDown" xlink:href="#dirArrow" transform="rotate(180) translate(-30 -48)" onmousedown="handlePan(0,1)">
                  <use xlink:href="#rim" fill="#404040">
                        <set attributeName="fill" to="#808080" begin="arrowDown.mouseover" end="arrowDown.mouseout"/>
                  </use>
                  <path fill="none" stroke="white" stroke-width="1.5" d="M0,-3.0v7 M-2.5,-0.5L0,-3.0L2.5,-0.5"/>
                </g>
                <g id="arrowLeft" xlink:href="#dirArrow" transform="rotate(270) translate(-36 17)" onmousedown="handlePan(-1,0)">
                  <use xlink:href="#rim" fill="#404040">
                        <set attributeName="fill" to="#808080" begin="arrowLeft.mouseover" end="arrowLeft.mouseout"/>
                  </use>
                  <path fill="none" stroke="white" stroke-width="1.5" d="M0,-3.0v7 M-2.5,-0.5L0,-3.0L2.5,-0.5"/>
                </g>
        </g>
        <svg viewBox="0 0 15 15" width="100%" height="30px" preserveAspectRatio="xMaxYMin meet">
         <g id="arrow_out" transform="scale(0.3 0.3)">
          <a xlink:href="method__area_8h__incl_org.svg" target="_base">
           <rect id="button" ry="5" rx="5" y="6" x="6" height="38" width="38"
                fill="#f2f5e9" fill-opacity="0.5" stroke="#606060" stroke-width="1.0"/>
           <path id="arrow"
             d="M 11.500037,31.436501 C 11.940474,20.09759 22.043105,11.32322 32.158766,21.979434 L 37.068811,17.246167 C 37.068811,17.246167 37.088388,32 37.088388,32 L 22.160133,31.978069 C 22.160133,31.978069 26.997745,27.140456 26.997745,27.140456 C 18.528582,18.264221 13.291696,25.230495 11.500037,31.436501 z"
             style="fill:#404040;"/>
          </a>
         </g>
        </svg>
</svg>
