<?xml version="1.0" encoding="UTF-8" standalone="no"?>
<!DOCTYPE svg PUBLIC "-//W3C//DTD SVG 1.1//EN"
 "http://www.w3.org/Graphics/SVG/1.1/DTD/svg11.dtd">
<!-- Generated by graphviz version 2.38.0 (20140413.2041)
 -->
<!-- Title: include/utils/field_t.h Pages: 1 -->
<svg width="464pt" height="252pt"
 viewBox="0.00 0.00 463.50 252.00" xmlns="http://www.w3.org/2000/svg" xmlns:xlink="http://www.w3.org/1999/xlink">
<g id="graph0" class="graph" transform="scale(1 1) rotate(0) translate(4 248)">
<title>include/utils/field_t.h</title>
<!-- Node1 -->
<g id="node1" class="node"><title>Node1</title>
<g id="a_node1"><a xlink:title=" ">
<polygon fill="#bfbfbf" stroke="black" points="155,-224.5 155,-243.5 260,-243.5 260,-224.5 155,-224.5"/>
<text text-anchor="middle" x="207.5" y="-231.5" font-family="Helvetica,sans-Serif" font-size="10.00">include/utils/field_t.h</text>
</a>
</g>
</g>
<!-- Node2 -->
<g id="node2" class="node"><title>Node2</title>
<g id="a_node2"><a xlink:href="../../d4/df7/array__t_8h.xhtml" target="_top" xlink:title=" ">
<polygon fill="none" stroke="black" points="122.5,-168.5 122.5,-187.5 198.5,-187.5 198.5,-168.5 122.5,-168.5"/>
<text text-anchor="middle" x="160.5" y="-175.5" font-family="Helvetica,sans-Serif" font-size="10.00">utils/array_t.h</text>
</a>
</g>
</g>
<!-- Node1&#45;&gt;Node2 -->
<g id="edge1" class="edge"><title>Node1&#45;&gt;Node2</title>
<path fill="none" stroke="midnightblue" d="M199.739,-224.083C192.963,-216.298 182.957,-204.801 174.745,-195.367"/>
<polygon fill="midnightblue" stroke="midnightblue" points="177.322,-192.996 168.117,-187.751 172.042,-197.592 177.322,-192.996"/>
</g>
<!-- Node5 -->
<g id="node5" class="node"><title>Node5</title>
<g id="a_node5"><a xlink:href="../../df/d8d/any_8h.xhtml" target="_top" xlink:title=" ">
<polygon fill="none" stroke="black" points="233,-112.5 233,-131.5 332,-131.5 332,-112.5 233,-112.5"/>
<text text-anchor="middle" x="282.5" y="-119.5" font-family="Helvetica,sans-Serif" font-size="10.00">utils/external/any.h</text>
</a>
</g>
</g>
<!-- Node1&#45;&gt;Node5 -->
<g id="edge14" class="edge"><title>Node1&#45;&gt;Node5</title>
<path fill="none" stroke="midnightblue" d="M213.385,-224.368C225.762,-206.215 254.681,-163.802 270.916,-139.99"/>
<polygon fill="midnightblue" stroke="midnightblue" points="273.901,-141.825 276.642,-131.591 268.117,-137.882 273.901,-141.825"/>
</g>
<!-- Node3 -->
<g id="node3" class="node"><title>Node3</title>
<g id="a_node3"><a xlink:title=" ">
<polygon fill="none" stroke="#bfbfbf" points="59,-112.5 59,-131.5 88,-131.5 88,-112.5 59,-112.5"/>
<text text-anchor="middle" x="73.5" y="-119.5" font-family="Helvetica,sans-Serif" font-size="10.00">list</text>
</a>
</g>
</g>
<!-- Node2&#45;&gt;Node3 -->
<g id="edge2" class="edge"><title>Node2&#45;&gt;Node3</title>
<path fill="none" stroke="midnightblue" d="M146.522,-168.324C132.95,-159.9 112.12,-146.971 96.175,-137.074"/>
<polygon fill="midnightblue" stroke="midnightblue" points="97.7856,-133.954 87.4434,-131.655 94.094,-139.902 97.7856,-133.954"/>
</g>
<!-- Node4 -->
<g id="node4" class="node"><title>Node4</title>
<g id="a_node4"><a xlink:title=" ">
<polygon fill="none" stroke="#bfbfbf" points="0,-112.5 0,-131.5 41,-131.5 41,-112.5 0,-112.5"/>
<text text-anchor="middle" x="20.5" y="-119.5" font-family="Helvetica,sans-Serif" font-size="10.00">stack</text>
</a>
</g>
</g>
<!-- Node2&#45;&gt;Node4 -->
<g id="edge3" class="edge"><title>Node2&#45;&gt;Node4</title>
<path fill="none" stroke="midnightblue" d="M138.317,-168.444C114.661,-159.319 77.051,-144.813 50.7041,-134.65"/>
<polygon fill="midnightblue" stroke="midnightblue" points="51.8,-131.322 41.2104,-130.988 49.2809,-137.853 51.8,-131.322"/>
</g>
<!-- Node2&#45;&gt;Node5 -->
<g id="edge4" class="edge"><title>Node2&#45;&gt;Node5</title>
<path fill="none" stroke="midnightblue" d="M179.831,-168.444C199.82,-159.596 231.243,-145.687 254.064,-135.586"/>
<polygon fill="midnightblue" stroke="midnightblue" points="255.532,-138.764 263.259,-131.516 252.698,-132.363 255.532,-138.764"/>
</g>
<!-- Node11 -->
<g id="node11" class="node"><title>Node11</title>
<g id="a_node11"><a xlink:href="../../d3/d47/reference__kind_8h.xhtml" target="_top" xlink:title=" ">
<polygon fill="none" stroke="black" points="106,-112.5 106,-131.5 215,-131.5 215,-112.5 106,-112.5"/>
<text text-anchor="middle" x="160.5" y="-119.5" font-family="Helvetica,sans-Serif" font-size="10.00">utils/reference_kind.h</text>
</a>
</g>
</g>
<!-- Node2&#45;&gt;Node11 -->
<g id="edge10" class="edge"><title>Node2&#45;&gt;Node11</title>
<path fill="none" stroke="midnightblue" d="M160.5,-168.083C160.5,-161.006 160.5,-150.861 160.5,-141.986"/>
<polygon fill="midnightblue" stroke="midnightblue" points="164,-141.751 160.5,-131.751 157,-141.751 164,-141.751"/>
</g>
<!-- Node6 -->
<g id="node6" class="node"><title>Node6</title>
<g id="a_node6"><a xlink:title=" ">
<polygon fill="none" stroke="#bfbfbf" points="326,-56.5 326,-75.5 375,-75.5 375,-56.5 326,-56.5"/>
<text text-anchor="middle" x="350.5" y="-63.5" font-family="Helvetica,sans-Serif" font-size="10.00">cassert</text>
</a>
</g>
</g>
<!-- Node5&#45;&gt;Node6 -->
<g id="edge5" class="edge"><title>Node5&#45;&gt;Node6</title>
<path fill="none" stroke="midnightblue" d="M293.425,-112.324C303.675,-104.185 319.221,-91.8395 331.501,-82.0874"/>
<polygon fill="midnightblue" stroke="midnightblue" points="333.721,-84.7937 339.376,-75.8339 329.368,-79.3119 333.721,-84.7937"/>
</g>
<!-- Node7 -->
<g id="node7" class="node"><title>Node7</title>
<g id="a_node7"><a xlink:title=" ">
<polygon fill="none" stroke="#bfbfbf" points="140,-56.5 140,-75.5 181,-75.5 181,-56.5 140,-56.5"/>
<text text-anchor="middle" x="160.5" y="-63.5" font-family="Helvetica,sans-Serif" font-size="10.00">string</text>
</a>
</g>
</g>
<!-- Node5&#45;&gt;Node7 -->
<g id="edge6" class="edge"><title>Node5&#45;&gt;Node7</title>
<path fill="none" stroke="midnightblue" d="M263.169,-112.444C243.18,-103.596 211.757,-89.6875 188.936,-79.5865"/>
<polygon fill="midnightblue" stroke="midnightblue" points="190.302,-76.3635 179.741,-75.5164 187.468,-82.7645 190.302,-76.3635"/>
</g>
<!-- Node8 -->
<g id="node8" class="node"><title>Node8</title>
<g id="a_node8"><a xlink:title=" ">
<polygon fill="none" stroke="#bfbfbf" points="393.5,-56.5 393.5,-75.5 455.5,-75.5 455.5,-56.5 393.5,-56.5"/>
<text text-anchor="middle" x="424.5" y="-63.5" font-family="Helvetica,sans-Serif" font-size="10.00">type_traits</text>
</a>
</g>
</g>
<!-- Node5&#45;&gt;Node8 -->
<g id="edge7" class="edge"><title>Node5&#45;&gt;Node8</title>
<path fill="none" stroke="midnightblue" d="M305,-112.444C328.577,-103.478 365.822,-89.314 392.464,-79.1827"/>
<polygon fill="midnightblue" stroke="midnightblue" points="394.002,-82.3424 402.105,-75.5164 391.514,-75.7995 394.002,-82.3424"/>
</g>
<!-- Node9 -->
<g id="node9" class="node"><title>Node9</title>
<g id="a_node9"><a xlink:title=" ">
<polygon fill="none" stroke="#bfbfbf" points="199.5,-56.5 199.5,-75.5 249.5,-75.5 249.5,-56.5 199.5,-56.5"/>
<text text-anchor="middle" x="224.5" y="-63.5" font-family="Helvetica,sans-Serif" font-size="10.00">typeinfo</text>
</a>
</g>
</g>
<!-- Node5&#45;&gt;Node9 -->
<g id="edge8" class="edge"><title>Node5&#45;&gt;Node9</title>
<path fill="none" stroke="midnightblue" d="M273.181,-112.324C264.607,-104.341 251.688,-92.3128 241.312,-82.6529"/>
<polygon fill="midnightblue" stroke="midnightblue" points="243.692,-80.0865 233.988,-75.8339 238.922,-85.2098 243.692,-80.0865"/>
</g>
<!-- Node10 -->
<g id="node10" class="node"><title>Node10</title>
<g id="a_node10"><a xlink:title=" ">
<polygon fill="none" stroke="#bfbfbf" points="267.5,-56.5 267.5,-75.5 307.5,-75.5 307.5,-56.5 267.5,-56.5"/>
<text text-anchor="middle" x="287.5" y="-63.5" font-family="Helvetica,sans-Serif" font-size="10.00">utility</text>
</a>
</g>
</g>
<!-- Node5&#45;&gt;Node10 -->
<g id="edge9" class="edge"><title>Node5&#45;&gt;Node10</title>
<path fill="none" stroke="midnightblue" d="M283.326,-112.083C283.981,-105.006 284.92,-94.8611 285.742,-85.9865"/>
<polygon fill="midnightblue" stroke="midnightblue" points="289.253,-86.0312 286.69,-75.7511 282.283,-85.3858 289.253,-86.0312"/>
</g>
<!-- Node11&#45;&gt;Node7 -->
<g id="edge11" class="edge"><title>Node11&#45;&gt;Node7</title>
<path fill="none" stroke="midnightblue" d="M160.5,-112.083C160.5,-105.006 160.5,-94.8611 160.5,-85.9865"/>
<polygon fill="midnightblue" stroke="midnightblue" points="164,-85.751 160.5,-75.7511 157,-85.7511 164,-85.751"/>
</g>
<!-- Node12 -->
<g id="node12" class="node"><title>Node12</title>
<g id="a_node12"><a xlink:href="../../d9/d49/types_8h.xhtml" target="_top" xlink:title=" ">
<polygon fill="none" stroke="black" points="51.5,-56.5 51.5,-75.5 121.5,-75.5 121.5,-56.5 51.5,-56.5"/>
<text text-anchor="middle" x="86.5" y="-63.5" font-family="Helvetica,sans-Serif" font-size="10.00">utils/types.h</text>
</a>
</g>
</g>
<!-- Node11&#45;&gt;Node12 -->
<g id="edge12" class="edge"><title>Node11&#45;&gt;Node12</title>
<path fill="none" stroke="midnightblue" d="M148.611,-112.324C137.35,-104.107 120.213,-91.6017 106.791,-81.8069"/>
<polygon fill="midnightblue" stroke="midnightblue" points="108.747,-78.9014 98.6057,-75.8339 104.62,-84.5559 108.747,-78.9014"/>
</g>
<!-- Node13 -->
<g id="node13" class="node"><title>Node13</title>
<g id="a_node13"><a xlink:title=" ">
<polygon fill="none" stroke="#bfbfbf" points="63.5,-0.5 63.5,-19.5 109.5,-19.5 109.5,-0.5 63.5,-0.5"/>
<text text-anchor="middle" x="86.5" y="-7.5" font-family="Helvetica,sans-Serif" font-size="10.00">cstdint</text>
</a>
</g>
</g>
<!-- Node12&#45;&gt;Node13 -->
<g id="edge13" class="edge"><title>Node12&#45;&gt;Node13</title>
<path fill="none" stroke="midnightblue" d="M86.5,-56.083C86.5,-49.0059 86.5,-38.8611 86.5,-29.9865"/>
<polygon fill="midnightblue" stroke="midnightblue" points="90.0001,-29.751 86.5,-19.7511 83.0001,-29.7511 90.0001,-29.751"/>
</g>
</g>
</svg>
