<?xml version="1.0" encoding="UTF-8" standalone="no"?>
<!DOCTYPE svg PUBLIC "-//W3C//DTD SVG 1.1//EN"
 "http://www.w3.org/Graphics/SVG/1.1/DTD/svg11.dtd">
<!-- Generated by graphviz version 2.38.0 (20140413.2041)
 -->
<!-- Title: Utils::Attributes::Synthetic_attribute Pages: 1 -->
<svg width="218pt" height="321pt"
 viewBox="0.00 0.00 217.50 321.00" xmlns="http://www.w3.org/2000/svg" xmlns:xlink="http://www.w3.org/1999/xlink">
<g id="graph0" class="graph" transform="scale(1 1) rotate(0) translate(4 317)">
<title>Utils::Attributes::Synthetic_attribute</title>
<!-- Node1 -->
<g id="node1" class="node"><title>Node1</title>
<g id="a_node1"><a xlink:title=" ">
<polygon fill="#bfbfbf" stroke="black" points="15,-0.5 15,-79.5 134,-79.5 134,-0.5 15,-0.5"/>
<text text-anchor="start" x="23" y="-67.5" font-family="Helvetica,sans-Serif" font-size="10.00">Utils::Attributes::</text>
<text text-anchor="middle" x="74.5" y="-56.5" font-family="Helvetica,sans-Serif" font-size="10.00">Synthetic_attribute</text>
<polyline fill="none" stroke="black" points="15,-49.5 134,-49.5 "/>
<text text-anchor="middle" x="74.5" y="-37.5" font-family="Helvetica,sans-Serif" font-size="10.00"> </text>
<polyline fill="none" stroke="black" points="15,-30.5 134,-30.5 "/>
<text text-anchor="start" x="23" y="-18.5" font-family="Helvetica,sans-Serif" font-size="10.00">+ Synthetic_attribute()</text>
<text text-anchor="start" x="23" y="-7.5" font-family="Helvetica,sans-Serif" font-size="10.00">+ ~Synthetic_attribute()</text>
</a>
</g>
</g>
<!-- Node2 -->
<g id="node2" class="node"><title>Node2</title>
<g id="a_node2"><a xlink:href="../../dc/dac/class_utils_1_1_attributes_1_1_base_attribute.xhtml" target="_top" xlink:title=" ">
<polygon fill="none" stroke="black" points="26,-117.5 26,-207.5 123,-207.5 123,-117.5 26,-117.5"/>
<text text-anchor="start" x="34" y="-195.5" font-family="Helvetica,sans-Serif" font-size="10.00">Utils::Attributes::</text>
<text text-anchor="middle" x="74.5" y="-184.5" font-family="Helvetica,sans-Serif" font-size="10.00">BaseAttribute</text>
<polyline fill="none" stroke="black" points="26,-177.5 123,-177.5 "/>
<text text-anchor="middle" x="74.5" y="-165.5" font-family="Helvetica,sans-Serif" font-size="10.00"> </text>
<polyline fill="none" stroke="black" points="26,-158.5 123,-158.5 "/>
<text text-anchor="start" x="34" y="-146.5" font-family="Helvetica,sans-Serif" font-size="10.00">+ BaseAttribute()</text>
<text text-anchor="start" x="34" y="-135.5" font-family="Helvetica,sans-Serif" font-size="10.00">+ BaseAttribute()</text>
<text text-anchor="start" x="34" y="-124.5" font-family="Helvetica,sans-Serif" font-size="10.00">+ ~BaseAttribute()</text>
</a>
</g>
</g>
<!-- Node2&#45;&gt;Node1 -->
<g id="edge1" class="edge"><title>Node2&#45;&gt;Node1</title>
<path fill="none" stroke="midnightblue" d="M74.5,-107.303C74.5,-97.966 74.5,-88.4333 74.5,-79.6138"/>
<polygon fill="none" stroke="midnightblue" points="71.0001,-107.314 74.5,-117.314 78.0001,-107.315 71.0001,-107.314"/>
</g>
<!-- Node3 -->
<g id="node3" class="node"><title>Node3</title>
<g id="a_node3"><a xlink:title=" ">
<polygon fill="none" stroke="#bfbfbf" points="0,-255.5 0,-312.5 51,-312.5 51,-255.5 0,-255.5"/>
<text text-anchor="middle" x="25.5" y="-300.5" font-family="Helvetica,sans-Serif" font-size="10.00">uint32_t</text>
<polyline fill="none" stroke="#bfbfbf" points="0,-293.5 51,-293.5 "/>
<text text-anchor="middle" x="25.5" y="-281.5" font-family="Helvetica,sans-Serif" font-size="10.00"> </text>
<polyline fill="none" stroke="#bfbfbf" points="0,-274.5 51,-274.5 "/>
<text text-anchor="middle" x="25.5" y="-262.5" font-family="Helvetica,sans-Serif" font-size="10.00"> </text>
</a>
</g>
</g>
<!-- Node3&#45;&gt;Node2 -->
<g id="edge2" class="edge"><title>Node3&#45;&gt;Node2</title>
<path fill="none" stroke="#404040" d="M22.5193,-255.417C22.3852,-245.87 23.2672,-235.25 26.5,-226 27.3986,-223.429 28.4476,-220.88 29.6183,-218.365"/>
<polygon fill="none" stroke="#404040" points="29.7343,-218.15 29.0688,-210.97 35.4409,-207.594 36.1064,-214.774 29.7343,-218.15"/>
<text text-anchor="middle" x="64.5" y="-229" font-family="Helvetica,sans-Serif" font-size="10.00"> +attribute_length</text>
</g>
<!-- Node4 -->
<g id="node4" class="node"><title>Node4</title>
<g id="a_node4"><a xlink:title=" ">
<polygon fill="none" stroke="#bfbfbf" points="99,-255.5 99,-312.5 150,-312.5 150,-255.5 99,-255.5"/>
<text text-anchor="middle" x="124.5" y="-300.5" font-family="Helvetica,sans-Serif" font-size="10.00">uint16_t</text>
<polyline fill="none" stroke="#bfbfbf" points="99,-293.5 150,-293.5 "/>
<text text-anchor="middle" x="124.5" y="-281.5" font-family="Helvetica,sans-Serif" font-size="10.00"> </text>
<polyline fill="none" stroke="#bfbfbf" points="99,-274.5 150,-274.5 "/>
<text text-anchor="middle" x="124.5" y="-262.5" font-family="Helvetica,sans-Serif" font-size="10.00"> </text>
</a>
</g>
</g>
<!-- Node4&#45;&gt;Node2 -->
<g id="edge3" class="edge"><title>Node4&#45;&gt;Node2</title>
<path fill="none" stroke="#404040" d="M114.162,-255.34C110.574,-245.981 106.457,-235.498 102.5,-226 101.535,-223.685 100.54,-221.327 99.5245,-218.949"/>
<polygon fill="none" stroke="#404040" points="99.4474,-218.771 93.3914,-214.856 94.6757,-207.76 100.732,-211.675 99.4474,-218.771"/>
<text text-anchor="middle" x="158" y="-229" font-family="Helvetica,sans-Serif" font-size="10.00"> +attribute_name_index</text>
</g>
</g>
</svg>
