<?xml version="1.0" encoding="UTF-8" standalone="no"?>
<!DOCTYPE svg PUBLIC "-//W3C//DTD SVG 1.1//EN"
 "http://www.w3.org/Graphics/SVG/1.1/DTD/svg11.dtd">
<!-- Generated by graphviz version 2.38.0 (20140413.2041)
 -->
<!-- Title: Utils::Object::~Object Pages: 1 -->
<svg width="205pt" height="66pt"
 viewBox="0.00 0.00 205.00 66.00" xmlns="http://www.w3.org/2000/svg" xmlns:xlink="http://www.w3.org/1999/xlink">
<g id="graph0" class="graph" transform="scale(1 1) rotate(0) translate(4 62)">
<title>Utils::Object::~Object</title>
<!-- Node1 -->
<g id="node1" class="node"><title>Node1</title>
<g id="a_node1"><a xlink:title=" ">
<polygon fill="#bfbfbf" stroke="black" points="0,-19.5 0,-38.5 111,-38.5 111,-19.5 0,-19.5"/>
<text text-anchor="middle" x="55.5" y="-26.5" font-family="Helvetica,sans-Serif" font-size="10.00">Utils::Object::~Object</text>
</a>
</g>
</g>
<!-- Node2 -->
<g id="node2" class="node"><title>Node2</title>
<g id="a_node2"><a xlink:href="../../db/da7/struct_any.xhtml#a9f8f21b5fb83040297ecd19b40c471cd" target="_top" xlink:title=" ">
<polygon fill="none" stroke="black" points="147,-38.5 147,-57.5 197,-57.5 197,-38.5 147,-38.5"/>
<text text-anchor="middle" x="172" y="-45.5" font-family="Helvetica,sans-Serif" font-size="10.00">Any::as</text>
</a>
</g>
</g>
<!-- Node1&#45;&gt;Node2 -->
<g id="edge1" class="edge"><title>Node1&#45;&gt;Node2</title>
<path fill="none" stroke="midnightblue" d="M111.067,-38.0548C119.798,-39.5036 128.612,-40.9662 136.695,-42.3075"/>
<polygon fill="midnightblue" stroke="midnightblue" points="136.393,-45.8052 146.831,-43.9895 137.539,-38.8996 136.393,-45.8052"/>
</g>
<!-- Node3 -->
<g id="node3" class="node"><title>Node3</title>
<g id="a_node3"><a xlink:href="../../db/da7/struct_any.xhtml#a518bb467847983d8e5563460f64e44c6" target="_top" xlink:title=" ">
<polygon fill="none" stroke="black" points="148.5,-0.5 148.5,-19.5 195.5,-19.5 195.5,-0.5 148.5,-0.5"/>
<text text-anchor="middle" x="172" y="-7.5" font-family="Helvetica,sans-Serif" font-size="10.00">Any::is</text>
</a>
</g>
</g>
<!-- Node1&#45;&gt;Node3 -->
<g id="edge2" class="edge"><title>Node1&#45;&gt;Node3</title>
<path fill="none" stroke="midnightblue" d="M111.067,-19.9452C120.404,-18.3959 129.836,-16.8308 138.367,-15.4152"/>
<polygon fill="midnightblue" stroke="midnightblue" points="138.967,-18.8635 148.259,-13.7737 137.821,-11.958 138.967,-18.8635"/>
</g>
</g>
</svg>
