<?xml version="1.0" encoding="UTF-8" standalone="no"?>
<!DOCTYPE svg PUBLIC "-//W3C//DTD SVG 1.1//EN"
 "http://www.w3.org/Graphics/SVG/1.1/DTD/svg11.dtd">
<!-- Generated by graphviz version 2.38.0 (20140413.2041)
 -->
<!-- Title: Utils::ConstantPool::BaseConstantInfo Pages: 1 -->
<!--zoomable 397 -->
<svg id="main" version="1.1" xmlns="http://www.w3.org/2000/svg" xmlns:xlink="http://www.w3.org/1999/xlink" xml:space="preserve" onload="init(evt)">
<style type="text/css"><![CDATA[
.edge:hover path { stroke: red; }
.edge:hover polygon { stroke: red; fill: red; }
]]></style>
<script type="text/javascript"><![CDATA[
var edges = document.getElementsByTagName('g');
if (edges && edges.length) {
  for (var i=0;i<edges.length;i++) {
    if (edges[i].id.substr(0,4)=='edge') {
      edges[i].setAttribute('class','edge');
    }
  }
}
]]></script>
        <defs>
                <circle id="rim" cx="0" cy="0" r="7"/>
                <circle id="rim2" cx="0" cy="0" r="3.5"/>
                <g id="zoomPlus">
                        <use xlink:href="#rim" fill="#404040">
                                <set attributeName="fill" to="#808080" begin="zoomplus.mouseover" end="zoomplus.mouseout"/>
                        </use>
                        <path d="M-4,0h8M0,-4v8" fill="none" stroke="white" stroke-width="1.5" pointer-events="none"/>
                </g>
                <g id="zoomMin">
                        <use xlink:href="#rim" fill="#404040">
                                <set attributeName="fill" to="#808080" begin="zoomminus.mouseover" end="zoomminus.mouseout"/>
                        </use>
                        <path d="M-4,0h8" fill="none" stroke="white" stroke-width="1.5" pointer-events="none"/>
                </g>
                <g id="dirArrow">
                        <path fill="none" stroke="white" stroke-width="1.5" d="M0,-3.0v7 M-2.5,-0.5L0,-3.0L2.5,-0.5"/>
                </g>
               <g id="resetDef">
                       <use xlink:href="#rim2" fill="#404040">
                               <set attributeName="fill" to="#808080" begin="reset.mouseover" end="reset.mouseout"/>
                       </use>
               </g>
        </defs>

<script type="text/javascript">
var viewWidth = 2214;
var viewHeight = 397;
var sectionId = 'dynsection-0';
</script>
<script xlink:href="../../svgpan.js"/>
<svg id="graph" class="graph">
<g id="viewport">
<title>Utils::ConstantPool::BaseConstantInfo</title>
<!-- Node1 -->
<g id="node1" class="node"><title>Node1</title>
<g id="a_node1"><a xlink:title=" ">
<polygon fill="#bfbfbf" stroke="black" points="1105,-298.5 1105,-388.5 1219,-388.5 1219,-298.5 1105,-298.5"/>
<text text-anchor="start" x="1113" y="-376.5" font-family="Helvetica,sans-Serif" font-size="10.00">Utils::ConstantPool</text>
<text text-anchor="middle" x="1162" y="-365.5" font-family="Helvetica,sans-Serif" font-size="10.00">::BaseConstantInfo</text>
<polyline fill="none" stroke="black" points="1105,-358.5 1219,-358.5 "/>
<text text-anchor="start" x="1113" y="-346.5" font-family="Helvetica,sans-Serif" font-size="10.00">+ tag</text>
<polyline fill="none" stroke="black" points="1105,-339.5 1219,-339.5 "/>
<text text-anchor="start" x="1113" y="-327.5" font-family="Helvetica,sans-Serif" font-size="10.00">+ BaseConstantInfo()</text>
<text text-anchor="start" x="1113" y="-316.5" font-family="Helvetica,sans-Serif" font-size="10.00">+ BaseConstantInfo()</text>
<text text-anchor="start" x="1113" y="-305.5" font-family="Helvetica,sans-Serif" font-size="10.00">+ ~BaseConstantInfo()</text>
</a>
</g>
</g>
<!-- Node2 -->
<g id="node2" class="node"><title>Node2</title>
<g id="a_node2"><a xlink:href="../../da/de3/class_utils_1_1_constant_pool_1_1_base_reference.xhtml" target="_top" xlink:title=" ">
<polygon fill="none" stroke="black" points="203.5,-149.5 203.5,-250.5 326.5,-250.5 326.5,-149.5 203.5,-149.5"/>
<text text-anchor="start" x="211.5" y="-238.5" font-family="Helvetica,sans-Serif" font-size="10.00">Utils::ConstantPool</text>
<text text-anchor="middle" x="265" y="-227.5" font-family="Helvetica,sans-Serif" font-size="10.00">::BaseReference</text>
<polyline fill="none" stroke="black" points="203.5,-220.5 326.5,-220.5 "/>
<text text-anchor="start" x="211.5" y="-208.5" font-family="Helvetica,sans-Serif" font-size="10.00">+ class_index</text>
<text text-anchor="start" x="211.5" y="-197.5" font-family="Helvetica,sans-Serif" font-size="10.00">+ name_and_type_index</text>
<polyline fill="none" stroke="black" points="203.5,-190.5 326.5,-190.5 "/>
<text text-anchor="start" x="211.5" y="-178.5" font-family="Helvetica,sans-Serif" font-size="10.00">+ BaseReference()</text>
<text text-anchor="start" x="211.5" y="-167.5" font-family="Helvetica,sans-Serif" font-size="10.00">+ getValue()</text>
<text text-anchor="start" x="211.5" y="-156.5" font-family="Helvetica,sans-Serif" font-size="10.00">+ getGeneralInfo()</text>
</a>
</g>
</g>
<!-- Node1&#45;&gt;Node2 -->
<g id="edge1" class="edge"><title>Node1&#45;&gt;Node2</title>
<path fill="none" stroke="midnightblue" d="M1094.58,-341.135C922.738,-336.833 472.272,-320.173 336,-262 328.975,-259.001 322.137,-255.048 315.653,-250.591"/>
<polygon fill="none" stroke="midnightblue" points="1094.68,-344.638 1104.76,-341.383 1094.85,-337.64 1094.68,-344.638"/>
</g>
<!-- Node6 -->
<g id="node6" class="node"><title>Node6</title>
<g id="a_node6"><a xlink:href="../../d3/de2/class_utils_1_1_constant_pool_1_1_c_o_n_s_t_a_n_t___class__info.xhtml" target="_top" xlink:title=" ">
<polygon fill="none" stroke="black" points="345,-149.5 345,-250.5 485,-250.5 485,-149.5 345,-149.5"/>
<text text-anchor="start" x="353" y="-238.5" font-family="Helvetica,sans-Serif" font-size="10.00">Utils::ConstantPool</text>
<text text-anchor="middle" x="415" y="-227.5" font-family="Helvetica,sans-Serif" font-size="10.00">::CONSTANT_Class_info</text>
<polyline fill="none" stroke="black" points="345,-220.5 485,-220.5 "/>
<text text-anchor="start" x="353" y="-208.5" font-family="Helvetica,sans-Serif" font-size="10.00">+ name_index</text>
<polyline fill="none" stroke="black" points="345,-201.5 485,-201.5 "/>
<text text-anchor="start" x="353" y="-189.5" font-family="Helvetica,sans-Serif" font-size="10.00">+ CONSTANT_Class_info()</text>
<text text-anchor="start" x="353" y="-178.5" font-family="Helvetica,sans-Serif" font-size="10.00">+ ~CONSTANT_Class_info()</text>
<text text-anchor="start" x="353" y="-167.5" font-family="Helvetica,sans-Serif" font-size="10.00">+ getValue()</text>
<text text-anchor="start" x="353" y="-156.5" font-family="Helvetica,sans-Serif" font-size="10.00">+ getGeneralInfo()</text>
</a>
</g>
</g>
<!-- Node1&#45;&gt;Node6 -->
<g id="edge5" class="edge"><title>Node1&#45;&gt;Node6</title>
<path fill="none" stroke="midnightblue" d="M1094.54,-338.86C947.525,-330.203 602.776,-305.771 495,-262 487.556,-258.977 480.205,-255.071 473.152,-250.696"/>
<polygon fill="none" stroke="midnightblue" points="1094.59,-342.369 1104.78,-339.456 1095,-335.381 1094.59,-342.369"/>
</g>
<!-- Node7 -->
<g id="node7" class="node"><title>Node7</title>
<g id="a_node7"><a xlink:href="../../db/de7/class_utils_1_1_constant_pool_1_1_c_o_n_s_t_a_n_t___double__info.xhtml" target="_top" xlink:title=" ">
<polygon fill="none" stroke="black" points="503.5,-144 503.5,-256 648.5,-256 648.5,-144 503.5,-144"/>
<text text-anchor="start" x="511.5" y="-244" font-family="Helvetica,sans-Serif" font-size="10.00">Utils::ConstantPool</text>
<text text-anchor="middle" x="576" y="-233" font-family="Helvetica,sans-Serif" font-size="10.00">::CONSTANT_Double_info</text>
<polyline fill="none" stroke="black" points="503.5,-226 648.5,-226 "/>
<text text-anchor="start" x="511.5" y="-214" font-family="Helvetica,sans-Serif" font-size="10.00">+ high_bytes</text>
<text text-anchor="start" x="511.5" y="-203" font-family="Helvetica,sans-Serif" font-size="10.00">+ low_bytes</text>
<polyline fill="none" stroke="black" points="503.5,-196 648.5,-196 "/>
<text text-anchor="start" x="511.5" y="-184" font-family="Helvetica,sans-Serif" font-size="10.00">+ CONSTANT_Double_info()</text>
<text text-anchor="start" x="511.5" y="-173" font-family="Helvetica,sans-Serif" font-size="10.00">+ ~CONSTANT_Double_info()</text>
<text text-anchor="start" x="511.5" y="-162" font-family="Helvetica,sans-Serif" font-size="10.00">+ getValue()</text>
<text text-anchor="start" x="511.5" y="-151" font-family="Helvetica,sans-Serif" font-size="10.00">+ getGeneralInfo()</text>
</a>
</g>
</g>
<!-- Node1&#45;&gt;Node7 -->
<g id="edge6" class="edge"><title>Node1&#45;&gt;Node7</title>
<path fill="none" stroke="midnightblue" d="M1094.58,-341.831C995.205,-338.647 805.268,-324.088 658,-262 653.913,-260.277 649.842,-258.308 645.823,-256.159"/>
<polygon fill="none" stroke="midnightblue" points="1094.69,-345.335 1104.79,-342.127 1094.89,-338.338 1094.69,-345.335"/>
</g>
<!-- Node8 -->
<g id="node8" class="node"><title>Node8</title>
<g id="a_node8"><a xlink:href="../../d7/dab/class_utils_1_1_constant_pool_1_1_c_o_n_s_t_a_n_t___float__info.xhtml" target="_top" xlink:title=" ">
<polygon fill="none" stroke="black" points="666.5,-149.5 666.5,-250.5 803.5,-250.5 803.5,-149.5 666.5,-149.5"/>
<text text-anchor="start" x="674.5" y="-238.5" font-family="Helvetica,sans-Serif" font-size="10.00">Utils::ConstantPool</text>
<text text-anchor="middle" x="735" y="-227.5" font-family="Helvetica,sans-Serif" font-size="10.00">::CONSTANT_Float_info</text>
<polyline fill="none" stroke="black" points="666.5,-220.5 803.5,-220.5 "/>
<text text-anchor="start" x="674.5" y="-208.5" font-family="Helvetica,sans-Serif" font-size="10.00">+ bytes</text>
<polyline fill="none" stroke="black" points="666.5,-201.5 803.5,-201.5 "/>
<text text-anchor="start" x="674.5" y="-189.5" font-family="Helvetica,sans-Serif" font-size="10.00">+ CONSTANT_Float_info()</text>
<text text-anchor="start" x="674.5" y="-178.5" font-family="Helvetica,sans-Serif" font-size="10.00">+ ~CONSTANT_Float_info()</text>
<text text-anchor="start" x="674.5" y="-167.5" font-family="Helvetica,sans-Serif" font-size="10.00">+ getValue()</text>
<text text-anchor="start" x="674.5" y="-156.5" font-family="Helvetica,sans-Serif" font-size="10.00">+ getGeneralInfo()</text>
</a>
</g>
</g>
<!-- Node1&#45;&gt;Node8 -->
<g id="edge7" class="edge"><title>Node1&#45;&gt;Node8</title>
<path fill="none" stroke="midnightblue" d="M1094.44,-335.747C1021.95,-326.525 904.868,-305.834 813,-262 806.173,-258.743 799.389,-254.803 792.834,-250.512"/>
<polygon fill="none" stroke="midnightblue" points="1094.45,-339.275 1104.8,-337.026 1095.3,-332.327 1094.45,-339.275"/>
</g>
<!-- Node9 -->
<g id="node9" class="node"><title>Node9</title>
<g id="a_node9"><a xlink:href="../../dd/d38/class_utils_1_1_constant_pool_1_1_c_o_n_s_t_a_n_t___integer__info.xhtml" target="_top" xlink:title=" ">
<polygon fill="none" stroke="black" points="822,-149.5 822,-250.5 966,-250.5 966,-149.5 822,-149.5"/>
<text text-anchor="start" x="830" y="-238.5" font-family="Helvetica,sans-Serif" font-size="10.00">Utils::ConstantPool</text>
<text text-anchor="middle" x="894" y="-227.5" font-family="Helvetica,sans-Serif" font-size="10.00">::CONSTANT_Integer_info</text>
<polyline fill="none" stroke="black" points="822,-220.5 966,-220.5 "/>
<text text-anchor="start" x="830" y="-208.5" font-family="Helvetica,sans-Serif" font-size="10.00">+ bytes</text>
<polyline fill="none" stroke="black" points="822,-201.5 966,-201.5 "/>
<text text-anchor="start" x="830" y="-189.5" font-family="Helvetica,sans-Serif" font-size="10.00">+ CONSTANT_Integer_info()</text>
<text text-anchor="start" x="830" y="-178.5" font-family="Helvetica,sans-Serif" font-size="10.00">+ ~CONSTANT_Integer_info()</text>
<text text-anchor="start" x="830" y="-167.5" font-family="Helvetica,sans-Serif" font-size="10.00">+ getValue()</text>
<text text-anchor="start" x="830" y="-156.5" font-family="Helvetica,sans-Serif" font-size="10.00">+ getGeneralInfo()</text>
</a>
</g>
</g>
<!-- Node1&#45;&gt;Node9 -->
<g id="edge8" class="edge"><title>Node1&#45;&gt;Node9</title>
<path fill="none" stroke="midnightblue" d="M1095.09,-318.207C1058.58,-303.846 1013.16,-284.155 975,-262 969.062,-258.553 963.054,-254.74 957.134,-250.754"/>
<polygon fill="none" stroke="midnightblue" points="1094.07,-321.564 1104.66,-321.927 1096.61,-315.04 1094.07,-321.564"/>
</g>
<!-- Node10 -->
<g id="node10" class="node"><title>Node10</title>
<g id="a_node10"><a xlink:href="../../dc/d23/class_utils_1_1_constant_pool_1_1_c_o_n_s_t_a_n_t___invoke_dynamic__info.xhtml" target="_top" xlink:title=" ">
<polygon fill="none" stroke="black" points="984,-138.5 984,-261.5 1164,-261.5 1164,-138.5 984,-138.5"/>
<text text-anchor="start" x="992" y="-249.5" font-family="Helvetica,sans-Serif" font-size="10.00">Utils::ConstantPool</text>
<text text-anchor="middle" x="1074" y="-238.5" font-family="Helvetica,sans-Serif" font-size="10.00">::CONSTANT_InvokeDynamic_info</text>
<polyline fill="none" stroke="black" points="984,-231.5 1164,-231.5 "/>
<text text-anchor="start" x="992" y="-219.5" font-family="Helvetica,sans-Serif" font-size="10.00">+ bootstrap_method_attr</text>
<text text-anchor="start" x="992" y="-208.5" font-family="Helvetica,sans-Serif" font-size="10.00">_index</text>
<text text-anchor="start" x="992" y="-197.5" font-family="Helvetica,sans-Serif" font-size="10.00">+ name_and_type_index</text>
<polyline fill="none" stroke="black" points="984,-190.5 1164,-190.5 "/>
<text text-anchor="start" x="992" y="-178.5" font-family="Helvetica,sans-Serif" font-size="10.00">+ CONSTANT_InvokeDynamic_info()</text>
<text text-anchor="start" x="992" y="-167.5" font-family="Helvetica,sans-Serif" font-size="10.00">+ ~CONSTANT_InvokeDynamic_info()</text>
<text text-anchor="start" x="992" y="-156.5" font-family="Helvetica,sans-Serif" font-size="10.00">+ getValue()</text>
<text text-anchor="start" x="992" y="-145.5" font-family="Helvetica,sans-Serif" font-size="10.00">+ getGeneralInfo()</text>
</a>
</g>
</g>
<!-- Node1&#45;&gt;Node10 -->
<g id="edge9" class="edge"><title>Node1&#45;&gt;Node10</title>
<path fill="none" stroke="midnightblue" d="M1129.05,-289.524C1123.38,-280.404 1117.45,-270.862 1111.66,-261.561"/>
<polygon fill="none" stroke="midnightblue" points="1126.14,-291.473 1134.4,-298.117 1132.09,-287.777 1126.14,-291.473"/>
</g>
<!-- Node11 -->
<g id="node11" class="node"><title>Node11</title>
<g id="a_node11"><a xlink:href="../../d5/dd3/class_utils_1_1_constant_pool_1_1_c_o_n_s_t_a_n_t___long__info.xhtml" target="_top" xlink:title=" ">
<polygon fill="none" stroke="black" points="1182,-144 1182,-256 1318,-256 1318,-144 1182,-144"/>
<text text-anchor="start" x="1190" y="-244" font-family="Helvetica,sans-Serif" font-size="10.00">Utils::ConstantPool</text>
<text text-anchor="middle" x="1250" y="-233" font-family="Helvetica,sans-Serif" font-size="10.00">::CONSTANT_Long_info</text>
<polyline fill="none" stroke="black" points="1182,-226 1318,-226 "/>
<text text-anchor="start" x="1190" y="-214" font-family="Helvetica,sans-Serif" font-size="10.00">+ high_bytes</text>
<text text-anchor="start" x="1190" y="-203" font-family="Helvetica,sans-Serif" font-size="10.00">+ low_bytes</text>
<polyline fill="none" stroke="black" points="1182,-196 1318,-196 "/>
<text text-anchor="start" x="1190" y="-184" font-family="Helvetica,sans-Serif" font-size="10.00">+ CONSTANT_Long_info()</text>
<text text-anchor="start" x="1190" y="-173" font-family="Helvetica,sans-Serif" font-size="10.00">+ ~CONSTANT_Long_info()</text>
<text text-anchor="start" x="1190" y="-162" font-family="Helvetica,sans-Serif" font-size="10.00">+ getValue()</text>
<text text-anchor="start" x="1190" y="-151" font-family="Helvetica,sans-Serif" font-size="10.00">+ getGeneralInfo()</text>
</a>
</g>
</g>
<!-- Node1&#45;&gt;Node11 -->
<g id="edge10" class="edge"><title>Node1&#45;&gt;Node11</title>
<path fill="none" stroke="midnightblue" d="M1194.94,-289.533C1201.71,-278.643 1208.86,-267.152 1215.68,-256.186"/>
<polygon fill="none" stroke="midnightblue" points="1191.91,-287.777 1189.6,-298.117 1197.86,-291.473 1191.91,-287.777"/>
</g>
<!-- Node12 -->
<g id="node12" class="node"><title>Node12</title>
<g id="a_node12"><a xlink:href="../../dd/d58/class_utils_1_1_constant_pool_1_1_c_o_n_s_t_a_n_t___method_handle__info.xhtml" target="_top" xlink:title=" ">
<polygon fill="none" stroke="black" points="1336.5,-144 1336.5,-256 1513.5,-256 1513.5,-144 1336.5,-144"/>
<text text-anchor="start" x="1344.5" y="-244" font-family="Helvetica,sans-Serif" font-size="10.00">Utils::ConstantPool</text>
<text text-anchor="middle" x="1425" y="-233" font-family="Helvetica,sans-Serif" font-size="10.00">::CONSTANT_MethodHandle_info</text>
<polyline fill="none" stroke="black" points="1336.5,-226 1513.5,-226 "/>
<text text-anchor="start" x="1344.5" y="-214" font-family="Helvetica,sans-Serif" font-size="10.00">+ reference_kind</text>
<text text-anchor="start" x="1344.5" y="-203" font-family="Helvetica,sans-Serif" font-size="10.00">+ reference_index</text>
<polyline fill="none" stroke="black" points="1336.5,-196 1513.5,-196 "/>
<text text-anchor="start" x="1344.5" y="-184" font-family="Helvetica,sans-Serif" font-size="10.00">+ CONSTANT_MethodHandle_info()</text>
<text text-anchor="start" x="1344.5" y="-173" font-family="Helvetica,sans-Serif" font-size="10.00">+ ~CONSTANT_MethodHandle_info()</text>
<text text-anchor="start" x="1344.5" y="-162" font-family="Helvetica,sans-Serif" font-size="10.00">+ getValue()</text>
<text text-anchor="start" x="1344.5" y="-151" font-family="Helvetica,sans-Serif" font-size="10.00">+ getGeneralInfo()</text>
</a>
</g>
</g>
<!-- Node1&#45;&gt;Node12 -->
<g id="edge11" class="edge"><title>Node1&#45;&gt;Node12</title>
<path fill="none" stroke="midnightblue" d="M1228.48,-311.98C1258.89,-297.536 1295.15,-279.619 1327,-262 1330.42,-260.108 1333.89,-258.151 1337.37,-256.148"/>
<polygon fill="none" stroke="midnightblue" points="1226.79,-308.909 1219.25,-316.347 1229.78,-315.237 1226.79,-308.909"/>
</g>
<!-- Node13 -->
<g id="node13" class="node"><title>Node13</title>
<g id="a_node13"><a xlink:href="../../d8/dae/class_utils_1_1_constant_pool_1_1_c_o_n_s_t_a_n_t___method_type__info.xhtml" target="_top" xlink:title=" ">
<polygon fill="none" stroke="black" points="1532,-149.5 1532,-250.5 1700,-250.5 1700,-149.5 1532,-149.5"/>
<text text-anchor="start" x="1540" y="-238.5" font-family="Helvetica,sans-Serif" font-size="10.00">Utils::ConstantPool</text>
<text text-anchor="middle" x="1616" y="-227.5" font-family="Helvetica,sans-Serif" font-size="10.00">::CONSTANT_MethodType_info</text>
<polyline fill="none" stroke="black" points="1532,-220.5 1700,-220.5 "/>
<text text-anchor="start" x="1540" y="-208.5" font-family="Helvetica,sans-Serif" font-size="10.00">+ descriptor_index</text>
<polyline fill="none" stroke="black" points="1532,-201.5 1700,-201.5 "/>
<text text-anchor="start" x="1540" y="-189.5" font-family="Helvetica,sans-Serif" font-size="10.00">+ CONSTANT_MethodType_info()</text>
<text text-anchor="start" x="1540" y="-178.5" font-family="Helvetica,sans-Serif" font-size="10.00">+ ~CONSTANT_MethodType_info()</text>
<text text-anchor="start" x="1540" y="-167.5" font-family="Helvetica,sans-Serif" font-size="10.00">+ getValue()</text>
<text text-anchor="start" x="1540" y="-156.5" font-family="Helvetica,sans-Serif" font-size="10.00">+ getGeneralInfo()</text>
</a>
</g>
</g>
<!-- Node1&#45;&gt;Node13 -->
<g id="edge12" class="edge"><title>Node1&#45;&gt;Node13</title>
<path fill="none" stroke="midnightblue" d="M1229.44,-334.853C1303.67,-324.769 1425.42,-303.253 1523,-262 1530.74,-258.729 1538.53,-254.809 1546.14,-250.554"/>
<polygon fill="none" stroke="midnightblue" points="1228.74,-331.415 1219.28,-336.201 1229.66,-338.354 1228.74,-331.415"/>
</g>
<!-- Node14 -->
<g id="node14" class="node"><title>Node14</title>
<g id="a_node14"><a xlink:href="../../d2/d46/class_utils_1_1_constant_pool_1_1_c_o_n_s_t_a_n_t___name_and_type__info.xhtml" target="_top" xlink:title=" ">
<polygon fill="none" stroke="black" points="1718.5,-144 1718.5,-256 1897.5,-256 1897.5,-144 1718.5,-144"/>
<text text-anchor="start" x="1726.5" y="-244" font-family="Helvetica,sans-Serif" font-size="10.00">Utils::ConstantPool</text>
<text text-anchor="middle" x="1808" y="-233" font-family="Helvetica,sans-Serif" font-size="10.00">::CONSTANT_NameAndType_info</text>
<polyline fill="none" stroke="black" points="1718.5,-226 1897.5,-226 "/>
<text text-anchor="start" x="1726.5" y="-214" font-family="Helvetica,sans-Serif" font-size="10.00">+ name_index</text>
<text text-anchor="start" x="1726.5" y="-203" font-family="Helvetica,sans-Serif" font-size="10.00">+ descriptor_index</text>
<polyline fill="none" stroke="black" points="1718.5,-196 1897.5,-196 "/>
<text text-anchor="start" x="1726.5" y="-184" font-family="Helvetica,sans-Serif" font-size="10.00">+ CONSTANT_NameAndType_info()</text>
<text text-anchor="start" x="1726.5" y="-173" font-family="Helvetica,sans-Serif" font-size="10.00">+ ~CONSTANT_NameAndType_info()</text>
<text text-anchor="start" x="1726.5" y="-162" font-family="Helvetica,sans-Serif" font-size="10.00">+ getValue()</text>
<text text-anchor="start" x="1726.5" y="-151" font-family="Helvetica,sans-Serif" font-size="10.00">+ getGeneralInfo()</text>
</a>
</g>
</g>
<!-- Node1&#45;&gt;Node14 -->
<g id="edge13" class="edge"><title>Node1&#45;&gt;Node14</title>
<path fill="none" stroke="midnightblue" d="M1229.54,-341.265C1335,-337.434 1543.81,-322.145 1709,-262 1713.84,-260.239 1718.69,-258.223 1723.52,-256.021"/>
<polygon fill="none" stroke="midnightblue" points="1229.23,-337.774 1219.36,-341.611 1229.47,-344.77 1229.23,-337.774"/>
</g>
<!-- Node15 -->
<g id="node15" class="node"><title>Node15</title>
<g id="a_node15"><a xlink:href="../../d3/d4a/class_utils_1_1_constant_pool_1_1_c_o_n_s_t_a_n_t___string__info.xhtml" target="_top" xlink:title=" ">
<polygon fill="none" stroke="black" points="1916,-149.5 1916,-250.5 2056,-250.5 2056,-149.5 1916,-149.5"/>
<text text-anchor="start" x="1924" y="-238.5" font-family="Helvetica,sans-Serif" font-size="10.00">Utils::ConstantPool</text>
<text text-anchor="middle" x="1986" y="-227.5" font-family="Helvetica,sans-Serif" font-size="10.00">::CONSTANT_String_info</text>
<polyline fill="none" stroke="black" points="1916,-220.5 2056,-220.5 "/>
<text text-anchor="start" x="1924" y="-208.5" font-family="Helvetica,sans-Serif" font-size="10.00">+ string_index</text>
<polyline fill="none" stroke="black" points="1916,-201.5 2056,-201.5 "/>
<text text-anchor="start" x="1924" y="-189.5" font-family="Helvetica,sans-Serif" font-size="10.00">+ CONSTANT_String_info()</text>
<text text-anchor="start" x="1924" y="-178.5" font-family="Helvetica,sans-Serif" font-size="10.00">+ ~CONSTANT_String_info()</text>
<text text-anchor="start" x="1924" y="-167.5" font-family="Helvetica,sans-Serif" font-size="10.00">+ getValue()</text>
<text text-anchor="start" x="1924" y="-156.5" font-family="Helvetica,sans-Serif" font-size="10.00">+ getGeneralInfo()</text>
</a>
</g>
</g>
<!-- Node1&#45;&gt;Node15 -->
<g id="edge14" class="edge"><title>Node1&#45;&gt;Node15</title>
<path fill="none" stroke="midnightblue" d="M1229.3,-339.895C1388.61,-332.986 1784.62,-311.245 1907,-262 1914.56,-258.96 1922,-254.98 1929.12,-250.507"/>
<polygon fill="none" stroke="midnightblue" points="1229,-336.405 1219.15,-340.329 1229.29,-343.399 1229,-336.405"/>
</g>
<!-- Node16 -->
<g id="node16" class="node"><title>Node16</title>
<g id="a_node16"><a xlink:href="../../d5/d71/class_utils_1_1_constant_pool_1_1_c_o_n_s_t_a_n_t___utf8__info.xhtml" target="_top" xlink:title=" ">
<polygon fill="none" stroke="black" points="2074,-144 2074,-256 2206,-256 2206,-144 2074,-144"/>
<text text-anchor="start" x="2082" y="-244" font-family="Helvetica,sans-Serif" font-size="10.00">Utils::ConstantPool</text>
<text text-anchor="middle" x="2140" y="-233" font-family="Helvetica,sans-Serif" font-size="10.00">::CONSTANT_Utf8_info</text>
<polyline fill="none" stroke="black" points="2074,-226 2206,-226 "/>
<text text-anchor="start" x="2082" y="-214" font-family="Helvetica,sans-Serif" font-size="10.00">+ length</text>
<text text-anchor="start" x="2082" y="-203" font-family="Helvetica,sans-Serif" font-size="10.00">+ bytes</text>
<polyline fill="none" stroke="black" points="2074,-196 2206,-196 "/>
<text text-anchor="start" x="2082" y="-184" font-family="Helvetica,sans-Serif" font-size="10.00">+ CONSTANT_Utf8_info()</text>
<text text-anchor="start" x="2082" y="-173" font-family="Helvetica,sans-Serif" font-size="10.00">+ ~CONSTANT_Utf8_info()</text>
<text text-anchor="start" x="2082" y="-162" font-family="Helvetica,sans-Serif" font-size="10.00">+ getValue()</text>
<text text-anchor="start" x="2082" y="-151" font-family="Helvetica,sans-Serif" font-size="10.00">+ getGeneralInfo()</text>
</a>
</g>
</g>
<!-- Node1&#45;&gt;Node16 -->
<g id="edge15" class="edge"><title>Node1&#45;&gt;Node16</title>
<path fill="none" stroke="midnightblue" d="M1229.16,-341.572C1411.69,-338.254 1913.3,-323.626 2065,-262 2069.2,-260.294 2073.35,-258.27 2077.41,-256.013"/>
<polygon fill="none" stroke="midnightblue" points="1229.1,-338.072 1219.16,-341.748 1229.22,-345.071 1229.1,-338.072"/>
</g>
<!-- Node3 -->
<g id="node3" class="node"><title>Node3</title>
<g id="a_node3"><a xlink:href="../../d8/d68/class_utils_1_1_constant_pool_1_1_c_o_n_s_t_a_n_t___field_ref__info.xhtml" target="_top" xlink:title=" ">
<polygon fill="none" stroke="black" points="0,-0.5 0,-101.5 150,-101.5 150,-0.5 0,-0.5"/>
<text text-anchor="start" x="8" y="-89.5" font-family="Helvetica,sans-Serif" font-size="10.00">Utils::ConstantPool</text>
<text text-anchor="middle" x="75" y="-78.5" font-family="Helvetica,sans-Serif" font-size="10.00">::CONSTANT_FieldRef_info</text>
<polyline fill="none" stroke="black" points="0,-71.5 150,-71.5 "/>
<text text-anchor="middle" x="75" y="-59.5" font-family="Helvetica,sans-Serif" font-size="10.00"> </text>
<polyline fill="none" stroke="black" points="0,-52.5 150,-52.5 "/>
<text text-anchor="start" x="8" y="-40.5" font-family="Helvetica,sans-Serif" font-size="10.00">+ CONSTANT_FieldRef_info()</text>
<text text-anchor="start" x="8" y="-29.5" font-family="Helvetica,sans-Serif" font-size="10.00">+ ~CONSTANT_FieldRef_info()</text>
<text text-anchor="start" x="8" y="-18.5" font-family="Helvetica,sans-Serif" font-size="10.00">+ getValue()</text>
<text text-anchor="start" x="8" y="-7.5" font-family="Helvetica,sans-Serif" font-size="10.00">+ getGeneralInfo()</text>
</a>
</g>
</g>
<!-- Node2&#45;&gt;Node3 -->
<g id="edge2" class="edge"><title>Node2&#45;&gt;Node3</title>
<path fill="none" stroke="midnightblue" d="M194.994,-144.837C176.66,-130.653 156.99,-115.434 138.988,-101.507"/>
<polygon fill="none" stroke="midnightblue" points="193.262,-147.922 203.312,-151.273 197.545,-142.386 193.262,-147.922"/>
</g>
<!-- Node4 -->
<g id="node4" class="node"><title>Node4</title>
<g id="a_node4"><a xlink:href="../../d4/d69/class_utils_1_1_constant_pool_1_1_c_o_n_s_t_a_n_t___interface_methodref__info.xhtml" target="_top" xlink:title=" ">
<polygon fill="none" stroke="black" points="168,-0.5 168,-101.5 362,-101.5 362,-0.5 168,-0.5"/>
<text text-anchor="start" x="176" y="-89.5" font-family="Helvetica,sans-Serif" font-size="10.00">Utils::ConstantPool</text>
<text text-anchor="middle" x="265" y="-78.5" font-family="Helvetica,sans-Serif" font-size="10.00">::CONSTANT_InterfaceMethodref_info</text>
<polyline fill="none" stroke="black" points="168,-71.5 362,-71.5 "/>
<text text-anchor="middle" x="265" y="-59.5" font-family="Helvetica,sans-Serif" font-size="10.00"> </text>
<polyline fill="none" stroke="black" points="168,-52.5 362,-52.5 "/>
<text text-anchor="start" x="176" y="-40.5" font-family="Helvetica,sans-Serif" font-size="10.00">+ CONSTANT_InterfaceMethodref_info()</text>
<text text-anchor="start" x="176" y="-29.5" font-family="Helvetica,sans-Serif" font-size="10.00">+ ~CONSTANT_InterfaceMethodref_info()</text>
<text text-anchor="start" x="176" y="-18.5" font-family="Helvetica,sans-Serif" font-size="10.00">+ getValue()</text>
<text text-anchor="start" x="176" y="-7.5" font-family="Helvetica,sans-Serif" font-size="10.00">+ getGeneralInfo()</text>
</a>
</g>
</g>
<!-- Node2&#45;&gt;Node4 -->
<g id="edge3" class="edge"><title>Node2&#45;&gt;Node4</title>
<path fill="none" stroke="midnightblue" d="M265,-138.986C265,-126.601 265,-113.687 265,-101.716"/>
<polygon fill="none" stroke="midnightblue" points="261.5,-139.232 265,-149.233 268.5,-139.233 261.5,-139.232"/>
</g>
<!-- Node5 -->
<g id="node5" class="node"><title>Node5</title>
<g id="a_node5"><a xlink:href="../../d3/dbc/class_utils_1_1_constant_pool_1_1_c_o_n_s_t_a_n_t___methodref__info.xhtml" target="_top" xlink:title=" ">
<polygon fill="none" stroke="black" points="380,-0.5 380,-101.5 538,-101.5 538,-0.5 380,-0.5"/>
<text text-anchor="start" x="388" y="-89.5" font-family="Helvetica,sans-Serif" font-size="10.00">Utils::ConstantPool</text>
<text text-anchor="middle" x="459" y="-78.5" font-family="Helvetica,sans-Serif" font-size="10.00">::CONSTANT_Methodref_info</text>
<polyline fill="none" stroke="black" points="380,-71.5 538,-71.5 "/>
<text text-anchor="middle" x="459" y="-59.5" font-family="Helvetica,sans-Serif" font-size="10.00"> </text>
<polyline fill="none" stroke="black" points="380,-52.5 538,-52.5 "/>
<text text-anchor="start" x="388" y="-40.5" font-family="Helvetica,sans-Serif" font-size="10.00">+ CONSTANT_Methodref_info()</text>
<text text-anchor="start" x="388" y="-29.5" font-family="Helvetica,sans-Serif" font-size="10.00">+ ~CONSTANT_Methodref_info()</text>
<text text-anchor="start" x="388" y="-18.5" font-family="Helvetica,sans-Serif" font-size="10.00">+ getValue()</text>
<text text-anchor="start" x="388" y="-7.5" font-family="Helvetica,sans-Serif" font-size="10.00">+ getGeneralInfo()</text>
</a>
</g>
</g>
<!-- Node2&#45;&gt;Node5 -->
<g id="edge4" class="edge"><title>Node2&#45;&gt;Node5</title>
<path fill="none" stroke="midnightblue" d="M329.884,-142.811C331.936,-141.176 333.978,-139.569 336,-138 351.747,-125.779 369.067,-113.182 385.612,-101.526"/>
<polygon fill="none" stroke="midnightblue" points="327.522,-140.22 321.943,-149.227 331.921,-145.665 327.522,-140.22"/>
</g>
</g>
</svg>
        <g id="navigator" transform="translate(0 0)" fill="#404254">
                <rect fill="#f2f5e9" fill-opacity="0.5" stroke="#606060" stroke-width=".5" x="0" y="0" width="60" height="60"/>
                <use id="zoomplus" xlink:href="#zoomPlus" x="17" y="9" onmousedown="handleZoom(evt,'in')"/>
                <use id="zoomminus" xlink:href="#zoomMin" x="42" y="9" onmousedown="handleZoom(evt,'out')"/>
                <use id="reset" xlink:href="#resetDef" x="30" y="36" onmousedown="handleReset()"/>
                <g id="arrowUp" xlink:href="#dirArrow" transform="translate(30 24)" onmousedown="handlePan(0,-1)">
                  <use xlink:href="#rim" fill="#404040">
                        <set attributeName="fill" to="#808080" begin="arrowUp.mouseover" end="arrowUp.mouseout"/>
                  </use>
                  <path fill="none" stroke="white" stroke-width="1.5" d="M0,-3.0v7 M-2.5,-0.5L0,-3.0L2.5,-0.5"/>
                </g>
                <g id="arrowRight" xlink:href="#dirArrow" transform="rotate(90) translate(36 -43)" onmousedown="handlePan(1,0)">
                  <use xlink:href="#rim" fill="#404040">
                        <set attributeName="fill" to="#808080" begin="arrowRight.mouseover" end="arrowRight.mouseout"/>
                  </use>
                  <path fill="none" stroke="white" stroke-width="1.5" d="M0,-3.0v7 M-2.5,-0.5L0,-3.0L2.5,-0.5"/>
                </g>
                <g id="arrowDown" xlink:href="#dirArrow" transform="rotate(180) translate(-30 -48)" onmousedown="handlePan(0,1)">
                  <use xlink:href="#rim" fill="#404040">
                        <set attributeName="fill" to="#808080" begin="arrowDown.mouseover" end="arrowDown.mouseout"/>
                  </use>
                  <path fill="none" stroke="white" stroke-width="1.5" d="M0,-3.0v7 M-2.5,-0.5L0,-3.0L2.5,-0.5"/>
                </g>
                <g id="arrowLeft" xlink:href="#dirArrow" transform="rotate(270) translate(-36 17)" onmousedown="handlePan(-1,0)">
                  <use xlink:href="#rim" fill="#404040">
                        <set attributeName="fill" to="#808080" begin="arrowLeft.mouseover" end="arrowLeft.mouseout"/>
                  </use>
                  <path fill="none" stroke="white" stroke-width="1.5" d="M0,-3.0v7 M-2.5,-0.5L0,-3.0L2.5,-0.5"/>
                </g>
        </g>
        <svg viewBox="0 0 15 15" width="100%" height="30px" preserveAspectRatio="xMaxYMin meet">
         <g id="arrow_out" transform="scale(0.3 0.3)">
          <a xlink:href="class_utils_1_1_constant_pool_1_1_base_constant_info__inherit__graph_org.svg" target="_base">
           <rect id="button" ry="5" rx="5" y="6" x="6" height="38" width="38"
                fill="#f2f5e9" fill-opacity="0.5" stroke="#606060" stroke-width="1.0"/>
           <path id="arrow"
             d="M 11.500037,31.436501 C 11.940474,20.09759 22.043105,11.32322 32.158766,21.979434 L 37.068811,17.246167 C 37.068811,17.246167 37.088388,32 37.088388,32 L 22.160133,31.978069 C 22.160133,31.978069 26.997745,27.140456 26.997745,27.140456 C 18.528582,18.264221 13.291696,25.230495 11.500037,31.436501 z"
             style="fill:#404040;"/>
          </a>
         </g>
        </svg>
</svg>
