<?xml version="1.0" encoding="UTF-8" standalone="no"?>
<!DOCTYPE svg PUBLIC "-//W3C//DTD SVG 1.1//EN"
 "http://www.w3.org/Graphics/SVG/1.1/DTD/svg11.dtd">
<!-- Generated by graphviz version 2.38.0 (20140413.2041)
 -->
<!-- Title: include/utils/class_t.h Pages: 1 -->
<svg width="439pt" height="364pt"
 viewBox="0.00 0.00 438.50 364.00" xmlns="http://www.w3.org/2000/svg" xmlns:xlink="http://www.w3.org/1999/xlink">
<g id="graph0" class="graph" transform="scale(1 1) rotate(0) translate(4 360)">
<title>include/utils/class_t.h</title>
<!-- Node1 -->
<g id="node1" class="node"><title>Node1</title>
<g id="a_node1"><a xlink:title=" ">
<polygon fill="#bfbfbf" stroke="black" points="56.5,-336.5 56.5,-355.5 167.5,-355.5 167.5,-336.5 56.5,-336.5"/>
<text text-anchor="middle" x="112" y="-343.5" font-family="Helvetica,sans-Serif" font-size="10.00">include/utils/class_t.h</text>
</a>
</g>
</g>
<!-- Node2 -->
<g id="node2" class="node"><title>Node2</title>
<g id="a_node2"><a xlink:title=" ">
<polygon fill="none" stroke="#bfbfbf" points="63.5,-224.5 63.5,-243.5 98.5,-243.5 98.5,-224.5 63.5,-224.5"/>
<text text-anchor="middle" x="81" y="-231.5" font-family="Helvetica,sans-Serif" font-size="10.00">map</text>
</a>
</g>
</g>
<!-- Node1&#45;&gt;Node2 -->
<g id="edge1" class="edge"><title>Node1&#45;&gt;Node2</title>
<path fill="none" stroke="midnightblue" d="M109.567,-336.368C104.542,-318.537 92.9196,-277.295 86.1493,-253.272"/>
<polygon fill="midnightblue" stroke="midnightblue" points="89.5026,-252.267 83.4212,-243.591 82.765,-254.166 89.5026,-252.267"/>
</g>
<!-- Node3 -->
<g id="node3" class="node"><title>Node3</title>
<g id="a_node3"><a xlink:href="../../df/d8d/any_8h.xhtml" target="_top" xlink:title=" ">
<polygon fill="none" stroke="black" points="98.5,-112.5 98.5,-131.5 197.5,-131.5 197.5,-112.5 98.5,-112.5"/>
<text text-anchor="middle" x="148" y="-119.5" font-family="Helvetica,sans-Serif" font-size="10.00">utils/external/any.h</text>
</a>
</g>
</g>
<!-- Node1&#45;&gt;Node3 -->
<g id="edge2" class="edge"><title>Node1&#45;&gt;Node3</title>
<path fill="none" stroke="midnightblue" d="M102.44,-336.387C81.939,-316.821 36.9454,-267.358 54,-224 68.617,-186.839 104.057,-155.248 127.003,-137.729"/>
<polygon fill="midnightblue" stroke="midnightblue" points="129.162,-140.486 135.116,-131.722 124.996,-134.86 129.162,-140.486"/>
</g>
<!-- Node9 -->
<g id="node9" class="node"><title>Node9</title>
<g id="a_node9"><a xlink:href="../../d1/d4d/field__t_8h.xhtml" target="_top" xlink:title=" ">
<polygon fill="none" stroke="black" points="116.5,-224.5 116.5,-243.5 187.5,-243.5 187.5,-224.5 116.5,-224.5"/>
<text text-anchor="middle" x="152" y="-231.5" font-family="Helvetica,sans-Serif" font-size="10.00">utils/field_t.h</text>
</a>
</g>
</g>
<!-- Node1&#45;&gt;Node9 -->
<g id="edge8" class="edge"><title>Node1&#45;&gt;Node9</title>
<path fill="none" stroke="midnightblue" d="M115.139,-336.368C121.623,-318.537 136.62,-277.295 145.356,-253.272"/>
<polygon fill="midnightblue" stroke="midnightblue" points="148.748,-254.185 148.876,-243.591 142.169,-251.793 148.748,-254.185"/>
</g>
<!-- Node16 -->
<g id="node16" class="node"><title>Node16</title>
<g id="a_node16"><a xlink:href="../../de/d10/object_8h.xhtml" target="_top" xlink:title=" ">
<polygon fill="none" stroke="black" points="175,-280.5 175,-299.5 247,-299.5 247,-280.5 175,-280.5"/>
<text text-anchor="middle" x="211" y="-287.5" font-family="Helvetica,sans-Serif" font-size="10.00">utils/object.h</text>
</a>
</g>
</g>
<!-- Node1&#45;&gt;Node16 -->
<g id="edge18" class="edge"><title>Node1&#45;&gt;Node16</title>
<path fill="none" stroke="midnightblue" d="M127.906,-336.324C143.638,-327.743 167.942,-314.486 186.209,-304.522"/>
<polygon fill="midnightblue" stroke="midnightblue" points="188.03,-307.516 195.133,-299.655 184.678,-301.37 188.03,-307.516"/>
</g>
<!-- Node4 -->
<g id="node4" class="node"><title>Node4</title>
<g id="a_node4"><a xlink:title=" ">
<polygon fill="none" stroke="#bfbfbf" points="126.5,-56.5 126.5,-75.5 175.5,-75.5 175.5,-56.5 126.5,-56.5"/>
<text text-anchor="middle" x="151" y="-63.5" font-family="Helvetica,sans-Serif" font-size="10.00">cassert</text>
</a>
</g>
</g>
<!-- Node3&#45;&gt;Node4 -->
<g id="edge3" class="edge"><title>Node3&#45;&gt;Node4</title>
<path fill="none" stroke="midnightblue" d="M148.495,-112.083C148.889,-105.006 149.452,-94.8611 149.945,-85.9865"/>
<polygon fill="midnightblue" stroke="midnightblue" points="153.454,-85.9299 150.514,-75.7511 146.464,-85.5415 153.454,-85.9299"/>
</g>
<!-- Node5 -->
<g id="node5" class="node"><title>Node5</title>
<g id="a_node5"><a xlink:title=" ">
<polygon fill="none" stroke="#bfbfbf" points="279.5,-56.5 279.5,-75.5 320.5,-75.5 320.5,-56.5 279.5,-56.5"/>
<text text-anchor="middle" x="300" y="-63.5" font-family="Helvetica,sans-Serif" font-size="10.00">string</text>
</a>
</g>
</g>
<!-- Node3&#45;&gt;Node5 -->
<g id="edge4" class="edge"><title>Node3&#45;&gt;Node5</title>
<path fill="none" stroke="midnightblue" d="M172.085,-112.444C198.593,-103.026 241.242,-87.8746 269.926,-77.6842"/>
<polygon fill="midnightblue" stroke="midnightblue" points="271.189,-80.9499 279.44,-74.3042 268.845,-74.3538 271.189,-80.9499"/>
</g>
<!-- Node6 -->
<g id="node6" class="node"><title>Node6</title>
<g id="a_node6"><a xlink:title=" ">
<polygon fill="none" stroke="#bfbfbf" points="194,-56.5 194,-75.5 256,-75.5 256,-56.5 194,-56.5"/>
<text text-anchor="middle" x="225" y="-63.5" font-family="Helvetica,sans-Serif" font-size="10.00">type_traits</text>
</a>
</g>
</g>
<!-- Node3&#45;&gt;Node6 -->
<g id="edge5" class="edge"><title>Node3&#45;&gt;Node6</title>
<path fill="none" stroke="midnightblue" d="M160.371,-112.324C172.158,-104.058 190.132,-91.4527 204.136,-81.6322"/>
<polygon fill="midnightblue" stroke="midnightblue" points="206.482,-84.2619 212.659,-75.6545 202.462,-78.5307 206.482,-84.2619"/>
</g>
<!-- Node7 -->
<g id="node7" class="node"><title>Node7</title>
<g id="a_node7"><a xlink:title=" ">
<polygon fill="none" stroke="#bfbfbf" points="0,-56.5 0,-75.5 50,-75.5 50,-56.5 0,-56.5"/>
<text text-anchor="middle" x="25" y="-63.5" font-family="Helvetica,sans-Serif" font-size="10.00">typeinfo</text>
</a>
</g>
</g>
<!-- Node3&#45;&gt;Node7 -->
<g id="edge6" class="edge"><title>Node3&#45;&gt;Node7</title>
<path fill="none" stroke="midnightblue" d="M128.51,-112.444C108.358,-103.596 76.6771,-89.6875 53.6692,-79.5865"/>
<polygon fill="midnightblue" stroke="midnightblue" points="54.962,-76.3316 44.3985,-75.5164 52.148,-82.7411 54.962,-76.3316"/>
</g>
<!-- Node8 -->
<g id="node8" class="node"><title>Node8</title>
<g id="a_node8"><a xlink:title=" ">
<polygon fill="none" stroke="#bfbfbf" points="68,-56.5 68,-75.5 108,-75.5 108,-56.5 68,-56.5"/>
<text text-anchor="middle" x="88" y="-63.5" font-family="Helvetica,sans-Serif" font-size="10.00">utility</text>
</a>
</g>
</g>
<!-- Node3&#45;&gt;Node8 -->
<g id="edge7" class="edge"><title>Node3&#45;&gt;Node8</title>
<path fill="none" stroke="midnightblue" d="M138.36,-112.324C129.49,-104.341 116.125,-92.3128 105.392,-82.6529"/>
<polygon fill="midnightblue" stroke="midnightblue" points="107.59,-79.922 97.8154,-75.8339 102.907,-85.1251 107.59,-79.922"/>
</g>
<!-- Node9&#45;&gt;Node3 -->
<g id="edge17" class="edge"><title>Node9&#45;&gt;Node3</title>
<path fill="none" stroke="midnightblue" d="M151.686,-224.368C151.041,-206.617 149.552,-165.666 148.676,-141.597"/>
<polygon fill="midnightblue" stroke="midnightblue" points="152.174,-141.458 148.312,-131.591 145.178,-141.712 152.174,-141.458"/>
</g>
<!-- Node10 -->
<g id="node10" class="node"><title>Node10</title>
<g id="a_node10"><a xlink:href="../../d4/df7/array__t_8h.xhtml" target="_top" xlink:title=" ">
<polygon fill="none" stroke="black" points="244,-168.5 244,-187.5 320,-187.5 320,-168.5 244,-168.5"/>
<text text-anchor="middle" x="282" y="-175.5" font-family="Helvetica,sans-Serif" font-size="10.00">utils/array_t.h</text>
</a>
</g>
</g>
<!-- Node9&#45;&gt;Node10 -->
<g id="edge9" class="edge"><title>Node9&#45;&gt;Node10</title>
<path fill="none" stroke="midnightblue" d="M172.599,-224.444C193.993,-215.557 227.681,-201.563 252.024,-191.451"/>
<polygon fill="midnightblue" stroke="midnightblue" points="253.605,-194.585 261.497,-187.516 250.92,-188.12 253.605,-194.585"/>
</g>
<!-- Node10&#45;&gt;Node3 -->
<g id="edge12" class="edge"><title>Node10&#45;&gt;Node3</title>
<path fill="none" stroke="midnightblue" d="M260.767,-168.444C238.616,-159.517 203.681,-145.439 178.564,-135.317"/>
<polygon fill="midnightblue" stroke="midnightblue" points="179.717,-132.008 169.133,-131.516 177.1,-138.501 179.717,-132.008"/>
</g>
<!-- Node11 -->
<g id="node11" class="node"><title>Node11</title>
<g id="a_node11"><a xlink:title=" ">
<polygon fill="none" stroke="#bfbfbf" points="215.5,-112.5 215.5,-131.5 244.5,-131.5 244.5,-112.5 215.5,-112.5"/>
<text text-anchor="middle" x="230" y="-119.5" font-family="Helvetica,sans-Serif" font-size="10.00">list</text>
</a>
</g>
</g>
<!-- Node10&#45;&gt;Node11 -->
<g id="edge10" class="edge"><title>Node10&#45;&gt;Node11</title>
<path fill="none" stroke="midnightblue" d="M273.413,-168.083C265.841,-160.22 254.622,-148.569 245.486,-139.081"/>
<polygon fill="midnightblue" stroke="midnightblue" points="247.885,-136.527 238.427,-131.751 242.842,-141.382 247.885,-136.527"/>
</g>
<!-- Node12 -->
<g id="node12" class="node"><title>Node12</title>
<g id="a_node12"><a xlink:title=" ">
<polygon fill="none" stroke="#bfbfbf" points="262.5,-112.5 262.5,-131.5 303.5,-131.5 303.5,-112.5 262.5,-112.5"/>
<text text-anchor="middle" x="283" y="-119.5" font-family="Helvetica,sans-Serif" font-size="10.00">stack</text>
</a>
</g>
</g>
<!-- Node10&#45;&gt;Node12 -->
<g id="edge11" class="edge"><title>Node10&#45;&gt;Node12</title>
<path fill="none" stroke="midnightblue" d="M282.165,-168.083C282.296,-161.006 282.484,-150.861 282.648,-141.986"/>
<polygon fill="midnightblue" stroke="midnightblue" points="286.152,-141.814 282.838,-131.751 279.153,-141.685 286.152,-141.814"/>
</g>
<!-- Node13 -->
<g id="node13" class="node"><title>Node13</title>
<g id="a_node13"><a xlink:href="../../d3/d47/reference__kind_8h.xhtml" target="_top" xlink:title=" ">
<polygon fill="none" stroke="black" points="321.5,-112.5 321.5,-131.5 430.5,-131.5 430.5,-112.5 321.5,-112.5"/>
<text text-anchor="middle" x="376" y="-119.5" font-family="Helvetica,sans-Serif" font-size="10.00">utils/reference_kind.h</text>
</a>
</g>
</g>
<!-- Node10&#45;&gt;Node13 -->
<g id="edge13" class="edge"><title>Node10&#45;&gt;Node13</title>
<path fill="none" stroke="midnightblue" d="M297.103,-168.324C311.903,-159.822 334.694,-146.729 351.982,-136.797"/>
<polygon fill="midnightblue" stroke="midnightblue" points="354.007,-139.671 360.935,-131.655 350.52,-133.601 354.007,-139.671"/>
</g>
<!-- Node13&#45;&gt;Node5 -->
<g id="edge14" class="edge"><title>Node13&#45;&gt;Node5</title>
<path fill="none" stroke="midnightblue" d="M363.789,-112.324C352.224,-104.107 334.625,-91.6017 320.839,-81.8069"/>
<polygon fill="midnightblue" stroke="midnightblue" points="322.612,-78.7729 312.433,-75.8339 318.557,-84.4791 322.612,-78.7729"/>
</g>
<!-- Node14 -->
<g id="node14" class="node"><title>Node14</title>
<g id="a_node14"><a xlink:href="../../d9/d49/types_8h.xhtml" target="_top" xlink:title=" ">
<polygon fill="none" stroke="black" points="341,-56.5 341,-75.5 411,-75.5 411,-56.5 341,-56.5"/>
<text text-anchor="middle" x="376" y="-63.5" font-family="Helvetica,sans-Serif" font-size="10.00">utils/types.h</text>
</a>
</g>
</g>
<!-- Node13&#45;&gt;Node14 -->
<g id="edge15" class="edge"><title>Node13&#45;&gt;Node14</title>
<path fill="none" stroke="midnightblue" d="M376,-112.083C376,-105.006 376,-94.8611 376,-85.9865"/>
<polygon fill="midnightblue" stroke="midnightblue" points="379.5,-85.751 376,-75.7511 372.5,-85.7511 379.5,-85.751"/>
</g>
<!-- Node15 -->
<g id="node15" class="node"><title>Node15</title>
<g id="a_node15"><a xlink:title=" ">
<polygon fill="none" stroke="#bfbfbf" points="353,-0.5 353,-19.5 399,-19.5 399,-0.5 353,-0.5"/>
<text text-anchor="middle" x="376" y="-7.5" font-family="Helvetica,sans-Serif" font-size="10.00">cstdint</text>
</a>
</g>
</g>
<!-- Node14&#45;&gt;Node15 -->
<g id="edge16" class="edge"><title>Node14&#45;&gt;Node15</title>
<path fill="none" stroke="midnightblue" d="M376,-56.083C376,-49.0059 376,-38.8611 376,-29.9865"/>
<polygon fill="midnightblue" stroke="midnightblue" points="379.5,-29.751 376,-19.7511 372.5,-29.7511 379.5,-29.751"/>
</g>
<!-- Node16&#45;&gt;Node2 -->
<g id="edge19" class="edge"><title>Node16&#45;&gt;Node2</title>
<path fill="none" stroke="midnightblue" d="M190.401,-280.444C168.126,-271.191 132.524,-256.402 108.018,-246.223"/>
<polygon fill="midnightblue" stroke="midnightblue" points="109.162,-242.908 98.5841,-242.304 106.476,-249.373 109.162,-242.908"/>
</g>
<!-- Node16&#45;&gt;Node3 -->
<g id="edge21" class="edge"><title>Node16&#45;&gt;Node3</title>
<path fill="none" stroke="midnightblue" d="M209.632,-280.42C207.488,-267.824 202.858,-243.686 196,-224 185.449,-193.712 168.526,-160.455 157.849,-140.673"/>
<polygon fill="midnightblue" stroke="midnightblue" points="160.777,-138.732 152.902,-131.644 154.638,-142.096 160.777,-138.732"/>
</g>
<!-- Node16&#45;&gt;Node9 -->
<g id="edge22" class="edge"><title>Node16&#45;&gt;Node9</title>
<path fill="none" stroke="midnightblue" d="M201.521,-280.324C192.799,-272.341 179.657,-260.313 169.102,-250.653"/>
<polygon fill="midnightblue" stroke="midnightblue" points="171.392,-248.004 161.652,-243.834 166.666,-253.167 171.392,-248.004"/>
</g>
<!-- Node16&#45;&gt;Node10 -->
<g id="edge20" class="edge"><title>Node16&#45;&gt;Node10</title>
<path fill="none" stroke="midnightblue" d="M216.571,-280.368C228.236,-262.296 255.423,-220.176 270.829,-196.307"/>
<polygon fill="midnightblue" stroke="midnightblue" points="273.972,-197.891 276.455,-187.591 268.091,-194.095 273.972,-197.891"/>
</g>
<!-- Node16&#45;&gt;Node13 -->
<g id="edge23" class="edge"><title>Node16&#45;&gt;Node13</title>
<path fill="none" stroke="midnightblue" d="M222.86,-280.358C245.085,-263.851 293.919,-226.078 329,-188 342.8,-173.021 356.172,-153.943 365.101,-140.338"/>
<polygon fill="midnightblue" stroke="midnightblue" points="368.055,-142.214 370.523,-131.91 362.169,-138.426 368.055,-142.214"/>
</g>
</g>
</svg>
