<?xml version="1.0" encoding="UTF-8" standalone="no"?>
<!DOCTYPE svg PUBLIC "-//W3C//DTD SVG 1.1//EN"
 "http://www.w3.org/Graphics/SVG/1.1/DTD/svg11.dtd">
<!-- Generated by graphviz version 2.38.0 (20140413.2041)
 -->
<!-- Title: include/instructions/instruction_set/misc.h Pages: 1 -->
<!--zoomable 218 -->
<svg id="main" version="1.1" xmlns="http://www.w3.org/2000/svg" xmlns:xlink="http://www.w3.org/1999/xlink" xml:space="preserve" onload="init(evt)">
<style type="text/css"><![CDATA[
.edge:hover path { stroke: red; }
.edge:hover polygon { stroke: red; fill: red; }
]]></style>
<script type="text/javascript"><![CDATA[
var edges = document.getElementsByTagName('g');
if (edges && edges.length) {
  for (var i=0;i<edges.length;i++) {
    if (edges[i].id.substr(0,4)=='edge') {
      edges[i].setAttribute('class','edge');
    }
  }
}
]]></script>
        <defs>
                <circle id="rim" cx="0" cy="0" r="7"/>
                <circle id="rim2" cx="0" cy="0" r="3.5"/>
                <g id="zoomPlus">
                        <use xlink:href="#rim" fill="#404040">
                                <set attributeName="fill" to="#808080" begin="zoomplus.mouseover" end="zoomplus.mouseout"/>
                        </use>
                        <path d="M-4,0h8M0,-4v8" fill="none" stroke="white" stroke-width="1.5" pointer-events="none"/>
                </g>
                <g id="zoomMin">
                        <use xlink:href="#rim" fill="#404040">
                                <set attributeName="fill" to="#808080" begin="zoomminus.mouseover" end="zoomminus.mouseout"/>
                        </use>
                        <path d="M-4,0h8" fill="none" stroke="white" stroke-width="1.5" pointer-events="none"/>
                </g>
                <g id="dirArrow">
                        <path fill="none" stroke="white" stroke-width="1.5" d="M0,-3.0v7 M-2.5,-0.5L0,-3.0L2.5,-0.5"/>
                </g>
               <g id="resetDef">
                       <use xlink:href="#rim2" fill="#404040">
                               <set attributeName="fill" to="#808080" begin="reset.mouseover" end="reset.mouseout"/>
                       </use>
               </g>
        </defs>

<script type="text/javascript">
var viewWidth = 616;
var viewHeight = 218;
var sectionId = 'dynsection-0';
</script>
<script xlink:href="../../svgpan.js"/>
<svg id="graph" class="graph">
<g id="viewport">
<title>include/instructions/instruction_set/misc.h</title>
<!-- Node1 -->
<g id="node1" class="node"><title>Node1</title>
<g id="a_node1"><a xlink:title=" ">
<polygon fill="#bfbfbf" stroke="black" points="232,-179.5 232,-209.5 348,-209.5 348,-179.5 232,-179.5"/>
<text text-anchor="start" x="240" y="-197.5" font-family="Helvetica,sans-Serif" font-size="10.00">include/instructions</text>
<text text-anchor="middle" x="290" y="-186.5" font-family="Helvetica,sans-Serif" font-size="10.00">/instruction_set/misc.h</text>
</a>
</g>
</g>
<!-- Node2 -->
<g id="node2" class="node"><title>Node2</title>
<g id="a_node2"><a xlink:title=" ">
<polygon fill="none" stroke="#bfbfbf" points="0,-118 0,-137 56,-137 56,-118 0,-118"/>
<text text-anchor="middle" x="28" y="-125" font-family="Helvetica,sans-Serif" font-size="10.00">algorithm</text>
</a>
</g>
</g>
<!-- Node1&#45;&gt;Node2 -->
<g id="edge1" class="edge"><title>Node1&#45;&gt;Node2</title>
<path fill="none" stroke="midnightblue" d="M231.559,-182.929C185.765,-174.036 120.697,-160.055 65,-143 62.5756,-142.258 60.0848,-141.43 57.5966,-140.556"/>
<polygon fill="midnightblue" stroke="midnightblue" points="58.7517,-137.251 48.1589,-137.043 56.3099,-143.812 58.7517,-137.251"/>
</g>
<!-- Node3 -->
<g id="node3" class="node"><title>Node3</title>
<g id="a_node3"><a xlink:title=" ">
<polygon fill="none" stroke="#bfbfbf" points="74,-118 74,-137 128,-137 128,-118 74,-118"/>
<text text-anchor="middle" x="101" y="-125" font-family="Helvetica,sans-Serif" font-size="10.00">iostream</text>
</a>
</g>
</g>
<!-- Node1&#45;&gt;Node3 -->
<g id="edge2" class="edge"><title>Node1&#45;&gt;Node3</title>
<path fill="none" stroke="midnightblue" d="M244.883,-179.447C214.275,-169.708 172.987,-156.171 137,-143 135.102,-142.305 133.154,-141.574 131.195,-140.825"/>
<polygon fill="midnightblue" stroke="midnightblue" points="132.06,-137.405 121.473,-137.01 129.503,-143.921 132.06,-137.405"/>
</g>
<!-- Node4 -->
<g id="node4" class="node"><title>Node4</title>
<g id="a_node4"><a xlink:title=" ">
<polygon fill="none" stroke="#bfbfbf" points="282.5,-56.5 282.5,-75.5 323.5,-75.5 323.5,-56.5 282.5,-56.5"/>
<text text-anchor="middle" x="303" y="-63.5" font-family="Helvetica,sans-Serif" font-size="10.00">string</text>
</a>
</g>
</g>
<!-- Node1&#45;&gt;Node4 -->
<g id="edge3" class="edge"><title>Node1&#45;&gt;Node4</title>
<path fill="none" stroke="midnightblue" d="M291.441,-179.479C293.78,-156.719 298.406,-111.702 301.041,-86.0582"/>
<polygon fill="midnightblue" stroke="midnightblue" points="304.556,-86.094 302.097,-75.7885 297.593,-85.3783 304.556,-86.094"/>
</g>
<!-- Node5 -->
<g id="node5" class="node"><title>Node5</title>
<g id="a_node5"><a xlink:title=" ">
<polygon fill="none" stroke="#bfbfbf" points="357,-56.5 357,-75.5 399,-75.5 399,-56.5 357,-56.5"/>
<text text-anchor="middle" x="378" y="-63.5" font-family="Helvetica,sans-Serif" font-size="10.00">vector</text>
</a>
</g>
</g>
<!-- Node1&#45;&gt;Node5 -->
<g id="edge4" class="edge"><title>Node1&#45;&gt;Node5</title>
<path fill="none" stroke="midnightblue" d="M348.071,-190.436C381.667,-185.318 421.449,-172.808 443,-143 451.072,-131.835 449.394,-124.204 443,-112 435.547,-97.7758 421.33,-87.1539 408.088,-79.8127"/>
<polygon fill="midnightblue" stroke="midnightblue" points="409.668,-76.6896 399.171,-75.2505 406.479,-82.9213 409.668,-76.6896"/>
</g>
<!-- Node6 -->
<g id="node6" class="node"><title>Node6</title>
<g id="a_node6"><a xlink:href="../../d3/d5a/base_8h.xhtml" target="_top" xlink:title=" ">
<polygon fill="none" stroke="black" points="318.5,-112.5 318.5,-142.5 433.5,-142.5 433.5,-112.5 318.5,-112.5"/>
<text text-anchor="start" x="326.5" y="-130.5" font-family="Helvetica,sans-Serif" font-size="10.00">instructions/instruction</text>
<text text-anchor="middle" x="376" y="-119.5" font-family="Helvetica,sans-Serif" font-size="10.00">_set/base.h</text>
</a>
</g>
</g>
<!-- Node1&#45;&gt;Node6 -->
<g id="edge5" class="edge"><title>Node1&#45;&gt;Node6</title>
<path fill="none" stroke="midnightblue" d="M308.661,-179.396C320.494,-170.452 335.994,-158.737 349.139,-148.802"/>
<polygon fill="midnightblue" stroke="midnightblue" points="351.508,-151.398 357.376,-142.577 347.288,-145.814 351.508,-151.398"/>
</g>
<!-- Node10 -->
<g id="node10" class="node"><title>Node10</title>
<g id="a_node10"><a xlink:href="../../d3/de6/opcodes_8h.xhtml" target="_top" xlink:title=" ">
<polygon fill="none" stroke="black" points="146.5,-118 146.5,-137 261.5,-137 261.5,-118 146.5,-118"/>
<text text-anchor="middle" x="204" y="-125" font-family="Helvetica,sans-Serif" font-size="10.00">instructions/opcodes.h</text>
</a>
</g>
</g>
<!-- Node1&#45;&gt;Node10 -->
<g id="edge11" class="edge"><title>Node1&#45;&gt;Node10</title>
<path fill="none" stroke="midnightblue" d="M271.339,-179.396C257.266,-168.759 238.007,-154.203 223.689,-143.381"/>
<polygon fill="midnightblue" stroke="midnightblue" points="225.592,-140.432 215.504,-137.195 221.371,-146.016 225.592,-140.432"/>
</g>
<!-- Node11 -->
<g id="node11" class="node"><title>Node11</title>
<g id="a_node11"><a xlink:href="../../da/d66/string_8h.xhtml" target="_top" xlink:title=" ">
<polygon fill="none" stroke="black" points="490,-118 490,-137 560,-137 560,-118 490,-118"/>
<text text-anchor="middle" x="525" y="-125" font-family="Helvetica,sans-Serif" font-size="10.00">utils/string.h</text>
</a>
</g>
</g>
<!-- Node1&#45;&gt;Node11 -->
<g id="edge15" class="edge"><title>Node1&#45;&gt;Node11</title>
<path fill="none" stroke="midnightblue" d="M343.003,-179.451C380.265,-169.49 431.255,-155.693 476,-143 479.537,-141.997 483.212,-140.938 486.889,-139.869"/>
<polygon fill="midnightblue" stroke="midnightblue" points="487.918,-143.215 496.53,-137.043 485.949,-136.497 487.918,-143.215"/>
</g>
<!-- Node6&#45;&gt;Node4 -->
<g id="edge7" class="edge"><title>Node6&#45;&gt;Node4</title>
<path fill="none" stroke="midnightblue" d="M358.7,-112.399C347.545,-103.308 333.046,-91.4899 321.638,-82.1909"/>
<polygon fill="midnightblue" stroke="midnightblue" points="323.585,-79.2627 313.622,-75.6578 319.162,-84.6887 323.585,-79.2627"/>
</g>
<!-- Node6&#45;&gt;Node5 -->
<g id="edge8" class="edge"><title>Node6&#45;&gt;Node5</title>
<path fill="none" stroke="midnightblue" d="M376.474,-112.399C376.741,-104.466 377.077,-94.458 377.366,-85.8583"/>
<polygon fill="midnightblue" stroke="midnightblue" points="380.871,-85.7697 377.709,-75.6578 373.875,-85.5345 380.871,-85.7697"/>
</g>
<!-- Node7 -->
<g id="node7" class="node"><title>Node7</title>
<g id="a_node7"><a xlink:title=" ">
<polygon fill="none" stroke="#bfbfbf" points="421,-56.5 421,-75.5 473,-75.5 473,-56.5 421,-56.5"/>
<text text-anchor="middle" x="447" y="-63.5" font-family="Helvetica,sans-Serif" font-size="10.00">sstream</text>
</a>
</g>
</g>
<!-- Node6&#45;&gt;Node7 -->
<g id="edge6" class="edge"><title>Node6&#45;&gt;Node7</title>
<path fill="none" stroke="midnightblue" d="M392.826,-112.399C403.675,-103.308 417.777,-91.4899 428.873,-82.1909"/>
<polygon fill="midnightblue" stroke="midnightblue" points="431.252,-84.7634 436.669,-75.6578 426.756,-79.3983 431.252,-84.7634"/>
</g>
<!-- Node8 -->
<g id="node8" class="node"><title>Node8</title>
<g id="a_node8"><a xlink:href="../../d9/d49/types_8h.xhtml" target="_top" xlink:title=" ">
<polygon fill="none" stroke="black" points="175,-56.5 175,-75.5 245,-75.5 245,-56.5 175,-56.5"/>
<text text-anchor="middle" x="210" y="-63.5" font-family="Helvetica,sans-Serif" font-size="10.00">utils/types.h</text>
</a>
</g>
</g>
<!-- Node6&#45;&gt;Node8 -->
<g id="edge9" class="edge"><title>Node6&#45;&gt;Node8</title>
<path fill="none" stroke="midnightblue" d="M336.66,-112.399C308.435,-102.283 270.794,-88.7905 243.895,-79.1493"/>
<polygon fill="midnightblue" stroke="midnightblue" points="244.749,-75.7372 234.154,-75.6578 242.387,-82.3267 244.749,-75.7372"/>
</g>
<!-- Node9 -->
<g id="node9" class="node"><title>Node9</title>
<g id="a_node9"><a xlink:title=" ">
<polygon fill="none" stroke="#bfbfbf" points="187,-0.5 187,-19.5 233,-19.5 233,-0.5 187,-0.5"/>
<text text-anchor="middle" x="210" y="-7.5" font-family="Helvetica,sans-Serif" font-size="10.00">cstdint</text>
</a>
</g>
</g>
<!-- Node8&#45;&gt;Node9 -->
<g id="edge10" class="edge"><title>Node8&#45;&gt;Node9</title>
<path fill="none" stroke="midnightblue" d="M210,-56.083C210,-49.0059 210,-38.8611 210,-29.9865"/>
<polygon fill="midnightblue" stroke="midnightblue" points="213.5,-29.751 210,-19.7511 206.5,-29.7511 213.5,-29.751"/>
</g>
<!-- Node10&#45;&gt;Node4 -->
<g id="edge12" class="edge"><title>Node10&#45;&gt;Node4</title>
<path fill="none" stroke="midnightblue" d="M218.184,-117.975C234.358,-108.255 261.026,-92.2266 280.143,-80.7372"/>
<polygon fill="midnightblue" stroke="midnightblue" points="282.074,-83.6603 288.842,-75.5091 278.468,-77.6606 282.074,-83.6603"/>
</g>
<!-- Node10&#45;&gt;Node5 -->
<g id="edge13" class="edge"><title>Node10&#45;&gt;Node5</title>
<path fill="none" stroke="midnightblue" d="M228.93,-117.975C260.099,-107.317 313.445,-89.0748 347.154,-77.548"/>
<polygon fill="midnightblue" stroke="midnightblue" points="348.609,-80.7495 356.938,-74.2021 346.344,-74.126 348.609,-80.7495"/>
</g>
<!-- Node10&#45;&gt;Node8 -->
<g id="edge14" class="edge"><title>Node10&#45;&gt;Node8</title>
<path fill="none" stroke="midnightblue" d="M204.86,-117.975C205.706,-109.58 207.027,-96.4806 208.118,-85.6631"/>
<polygon fill="midnightblue" stroke="midnightblue" points="211.621,-85.8098 209.142,-75.5091 204.656,-85.1074 211.621,-85.8098"/>
</g>
<!-- Node11&#45;&gt;Node4 -->
<g id="edge19" class="edge"><title>Node11&#45;&gt;Node4</title>
<path fill="none" stroke="midnightblue" d="M493.193,-117.975C450.64,-106.57 375.689,-86.4819 333.705,-75.2294"/>
<polygon fill="midnightblue" stroke="midnightblue" points="334.346,-71.7778 323.781,-72.5696 332.534,-78.5392 334.346,-71.7778"/>
</g>
<!-- Node11&#45;&gt;Node5 -->
<g id="edge20" class="edge"><title>Node11&#45;&gt;Node5</title>
<path fill="none" stroke="midnightblue" d="M503.938,-117.975C478.941,-107.857 437.058,-90.9046 408.513,-79.3507"/>
<polygon fill="midnightblue" stroke="midnightblue" points="409.605,-76.0168 399.022,-75.5091 406.979,-82.5054 409.605,-76.0168"/>
</g>
<!-- Node11&#45;&gt;Node7 -->
<g id="edge18" class="edge"><title>Node11&#45;&gt;Node7</title>
<path fill="none" stroke="midnightblue" d="M513.825,-117.975C501.429,-108.52 481.21,-93.0961 466.254,-81.6871"/>
<polygon fill="midnightblue" stroke="midnightblue" points="468.228,-78.7914 458.155,-75.5091 463.983,-84.357 468.228,-78.7914"/>
</g>
<!-- Node12 -->
<g id="node12" class="node"><title>Node12</title>
<g id="a_node12"><a xlink:title=" ">
<polygon fill="none" stroke="#bfbfbf" points="498,-56.5 498,-75.5 548,-75.5 548,-56.5 498,-56.5"/>
<text text-anchor="middle" x="523" y="-63.5" font-family="Helvetica,sans-Serif" font-size="10.00">codecvt</text>
</a>
</g>
</g>
<!-- Node11&#45;&gt;Node12 -->
<g id="edge16" class="edge"><title>Node11&#45;&gt;Node12</title>
<path fill="none" stroke="midnightblue" d="M524.713,-117.975C524.431,-109.58 523.991,-96.4806 523.627,-85.6631"/>
<polygon fill="midnightblue" stroke="midnightblue" points="527.12,-85.3858 523.286,-75.5091 520.124,-85.6211 527.12,-85.3858"/>
</g>
<!-- Node13 -->
<g id="node13" class="node"><title>Node13</title>
<g id="a_node13"><a xlink:title=" ">
<polygon fill="none" stroke="#bfbfbf" points="566,-56.5 566,-75.5 608,-75.5 608,-56.5 566,-56.5"/>
<text text-anchor="middle" x="587" y="-63.5" font-family="Helvetica,sans-Serif" font-size="10.00">locale</text>
</a>
</g>
</g>
<!-- Node11&#45;&gt;Node13 -->
<g id="edge17" class="edge"><title>Node11&#45;&gt;Node13</title>
<path fill="none" stroke="midnightblue" d="M533.883,-117.975C543.459,-108.785 558.911,-93.9563 570.686,-82.656"/>
<polygon fill="midnightblue" stroke="midnightblue" points="573.342,-84.9585 578.133,-75.5091 568.495,-79.908 573.342,-84.9585"/>
</g>
</g>
</svg>
        <g id="navigator" transform="translate(0 0)" fill="#404254">
                <rect fill="#f2f5e9" fill-opacity="0.5" stroke="#606060" stroke-width=".5" x="0" y="0" width="60" height="60"/>
                <use id="zoomplus" xlink:href="#zoomPlus" x="17" y="9" onmousedown="handleZoom(evt,'in')"/>
                <use id="zoomminus" xlink:href="#zoomMin" x="42" y="9" onmousedown="handleZoom(evt,'out')"/>
                <use id="reset" xlink:href="#resetDef" x="30" y="36" onmousedown="handleReset()"/>
                <g id="arrowUp" xlink:href="#dirArrow" transform="translate(30 24)" onmousedown="handlePan(0,-1)">
                  <use xlink:href="#rim" fill="#404040">
                        <set attributeName="fill" to="#808080" begin="arrowUp.mouseover" end="arrowUp.mouseout"/>
                  </use>
                  <path fill="none" stroke="white" stroke-width="1.5" d="M0,-3.0v7 M-2.5,-0.5L0,-3.0L2.5,-0.5"/>
                </g>
                <g id="arrowRight" xlink:href="#dirArrow" transform="rotate(90) translate(36 -43)" onmousedown="handlePan(1,0)">
                  <use xlink:href="#rim" fill="#404040">
                        <set attributeName="fill" to="#808080" begin="arrowRight.mouseover" end="arrowRight.mouseout"/>
                  </use>
                  <path fill="none" stroke="white" stroke-width="1.5" d="M0,-3.0v7 M-2.5,-0.5L0,-3.0L2.5,-0.5"/>
                </g>
                <g id="arrowDown" xlink:href="#dirArrow" transform="rotate(180) translate(-30 -48)" onmousedown="handlePan(0,1)">
                  <use xlink:href="#rim" fill="#404040">
                        <set attributeName="fill" to="#808080" begin="arrowDown.mouseover" end="arrowDown.mouseout"/>
                  </use>
                  <path fill="none" stroke="white" stroke-width="1.5" d="M0,-3.0v7 M-2.5,-0.5L0,-3.0L2.5,-0.5"/>
                </g>
                <g id="arrowLeft" xlink:href="#dirArrow" transform="rotate(270) translate(-36 17)" onmousedown="handlePan(-1,0)">
                  <use xlink:href="#rim" fill="#404040">
                        <set attributeName="fill" to="#808080" begin="arrowLeft.mouseover" end="arrowLeft.mouseout"/>
                  </use>
                  <path fill="none" stroke="white" stroke-width="1.5" d="M0,-3.0v7 M-2.5,-0.5L0,-3.0L2.5,-0.5"/>
                </g>
        </g>
        <svg viewBox="0 0 15 15" width="100%" height="30px" preserveAspectRatio="xMaxYMin meet">
         <g id="arrow_out" transform="scale(0.3 0.3)">
          <a xlink:href="misc_8h__incl_org.svg" target="_base">
           <rect id="button" ry="5" rx="5" y="6" x="6" height="38" width="38"
                fill="#f2f5e9" fill-opacity="0.5" stroke="#606060" stroke-width="1.0"/>
           <path id="arrow"
             d="M 11.500037,31.436501 C 11.940474,20.09759 22.043105,11.32322 32.158766,21.979434 L 37.068811,17.246167 C 37.068811,17.246167 37.088388,32 37.088388,32 L 22.160133,31.978069 C 22.160133,31.978069 26.997745,27.140456 26.997745,27.140456 C 18.528582,18.264221 13.291696,25.230495 11.500037,31.436501 z"
             style="fill:#404040;"/>
          </a>
         </g>
        </svg>
</svg>
