<?xml version="1.0" encoding="UTF-8" standalone="no"?>
<!DOCTYPE svg PUBLIC "-//W3C//DTD SVG 1.1//EN"
 "http://www.w3.org/Graphics/SVG/1.1/DTD/svg11.dtd">
<!-- Generated by graphviz version 2.38.0 (20140413.2041)
 -->
<!-- Title: include/instructions/printer.h Pages: 1 -->
<svg width="207pt" height="263pt"
 viewBox="0.00 0.00 207.00 263.00" xmlns="http://www.w3.org/2000/svg" xmlns:xlink="http://www.w3.org/1999/xlink">
<g id="graph0" class="graph" transform="scale(1 1) rotate(0) translate(4 259)">
<title>include/instructions/printer.h</title>
<!-- Node1 -->
<g id="node1" class="node"><title>Node1</title>
<g id="a_node1"><a xlink:title=" ">
<polygon fill="#bfbfbf" stroke="black" points="41.5,-224.5 41.5,-254.5 142.5,-254.5 142.5,-224.5 41.5,-224.5"/>
<text text-anchor="start" x="49.5" y="-242.5" font-family="Helvetica,sans-Serif" font-size="10.00">include/instructions</text>
<text text-anchor="middle" x="92" y="-231.5" font-family="Helvetica,sans-Serif" font-size="10.00">/printer.h</text>
</a>
</g>
</g>
<!-- Node2 -->
<g id="node2" class="node"><title>Node2</title>
<g id="a_node2"><a xlink:title=" ">
<polygon fill="none" stroke="#bfbfbf" points="0,-56.5 0,-75.5 42,-75.5 42,-56.5 0,-56.5"/>
<text text-anchor="middle" x="21" y="-63.5" font-family="Helvetica,sans-Serif" font-size="10.00">vector</text>
</a>
</g>
</g>
<!-- Node1&#45;&gt;Node2 -->
<g id="edge1" class="edge"><title>Node1&#45;&gt;Node2</title>
<path fill="none" stroke="midnightblue" d="M78.2373,-224.373C69.3503,-214.71 57.9965,-201.288 50,-188 36.1264,-164.946 33.4186,-158.13 27,-132 23.2363,-116.678 21.7917,-98.7978 21.2569,-85.6729"/>
<polygon fill="midnightblue" stroke="midnightblue" points="24.7523,-85.4497 20.9858,-75.547 17.7548,-85.6371 24.7523,-85.4497"/>
</g>
<!-- Node3 -->
<g id="node3" class="node"><title>Node3</title>
<g id="a_node3"><a xlink:href="../../d9/d70/infos_8h.xhtml" target="_top" xlink:title=" ">
<polygon fill="none" stroke="black" points="59,-168.5 59,-187.5 125,-187.5 125,-168.5 59,-168.5"/>
<text text-anchor="middle" x="92" y="-175.5" font-family="Helvetica,sans-Serif" font-size="10.00">utils/infos.h</text>
</a>
</g>
</g>
<!-- Node1&#45;&gt;Node3 -->
<g id="edge2" class="edge"><title>Node1&#45;&gt;Node3</title>
<path fill="none" stroke="midnightblue" d="M92,-224.399C92,-216.466 92,-206.458 92,-197.858"/>
<polygon fill="midnightblue" stroke="midnightblue" points="95.5001,-197.658 92,-187.658 88.5001,-197.658 95.5001,-197.658"/>
</g>
<!-- Node6 -->
<g id="node6" class="node"><title>Node6</title>
<g id="a_node6"><a xlink:href="../../d9/d49/types_8h.xhtml" target="_top" xlink:title=" ">
<polygon fill="none" stroke="black" points="129,-56.5 129,-75.5 199,-75.5 199,-56.5 129,-56.5"/>
<text text-anchor="middle" x="164" y="-63.5" font-family="Helvetica,sans-Serif" font-size="10.00">utils/types.h</text>
</a>
</g>
</g>
<!-- Node1&#45;&gt;Node6 -->
<g id="edge10" class="edge"><title>Node1&#45;&gt;Node6</title>
<path fill="none" stroke="midnightblue" d="M106.282,-224.261C124.153,-205.221 153.561,-169.496 163,-132 166.836,-116.763 166.795,-98.8752 165.96,-85.7259"/>
<polygon fill="midnightblue" stroke="midnightblue" points="169.432,-85.2443 165.099,-75.576 162.457,-85.8361 169.432,-85.2443"/>
</g>
<!-- Node3&#45;&gt;Node2 -->
<g id="edge3" class="edge"><title>Node3&#45;&gt;Node2</title>
<path fill="none" stroke="midnightblue" d="M78.0822,-168.314C66.2999,-160.27 49.8066,-147.269 40,-132 30.9662,-117.934 26.1062,-99.4414 23.5704,-85.7783"/>
<polygon fill="midnightblue" stroke="midnightblue" points="26.9842,-84.961 21.9464,-75.6406 20.0723,-86.0684 26.9842,-84.961"/>
</g>
<!-- Node4 -->
<g id="node4" class="node"><title>Node4</title>
<g id="a_node4"><a xlink:href="../../da/d6e/attributes_8h.xhtml" target="_top" xlink:title=" ">
<polygon fill="none" stroke="black" points="49,-112.5 49,-131.5 135,-131.5 135,-112.5 49,-112.5"/>
<text text-anchor="middle" x="92" y="-119.5" font-family="Helvetica,sans-Serif" font-size="10.00">utils/attributes.h</text>
</a>
</g>
</g>
<!-- Node3&#45;&gt;Node4 -->
<g id="edge4" class="edge"><title>Node3&#45;&gt;Node4</title>
<path fill="none" stroke="midnightblue" d="M92,-168.083C92,-161.006 92,-150.861 92,-141.986"/>
<polygon fill="midnightblue" stroke="midnightblue" points="95.5001,-141.751 92,-131.751 88.5001,-141.751 95.5001,-141.751"/>
</g>
<!-- Node3&#45;&gt;Node6 -->
<g id="edge9" class="edge"><title>Node3&#45;&gt;Node6</title>
<path fill="none" stroke="midnightblue" d="M105.865,-168.279C117.613,-160.214 134.086,-147.199 144,-132 153.172,-117.939 158.325,-99.4455 161.094,-85.7811"/>
<polygon fill="midnightblue" stroke="midnightblue" points="164.592,-86.1002 162.895,-75.6421 157.7,-84.8756 164.592,-86.1002"/>
</g>
<!-- Node4&#45;&gt;Node2 -->
<g id="edge6" class="edge"><title>Node4&#45;&gt;Node2</title>
<path fill="none" stroke="midnightblue" d="M80.5926,-112.324C69.8912,-104.185 53.6593,-91.8395 40.8372,-82.0874"/>
<polygon fill="midnightblue" stroke="midnightblue" points="42.6932,-79.1018 32.6149,-75.8339 38.4556,-84.6734 42.6932,-79.1018"/>
</g>
<!-- Node5 -->
<g id="node5" class="node"><title>Node5</title>
<g id="a_node5"><a xlink:title=" ">
<polygon fill="none" stroke="#bfbfbf" points="69.5,-56.5 69.5,-75.5 110.5,-75.5 110.5,-56.5 69.5,-56.5"/>
<text text-anchor="middle" x="90" y="-63.5" font-family="Helvetica,sans-Serif" font-size="10.00">string</text>
</a>
</g>
</g>
<!-- Node4&#45;&gt;Node5 -->
<g id="edge5" class="edge"><title>Node4&#45;&gt;Node5</title>
<path fill="none" stroke="midnightblue" d="M91.6697,-112.083C91.4076,-105.006 91.0319,-94.8611 90.7032,-85.9865"/>
<polygon fill="midnightblue" stroke="midnightblue" points="94.1919,-85.6147 90.3241,-75.7511 87.1967,-85.8738 94.1919,-85.6147"/>
</g>
<!-- Node4&#45;&gt;Node6 -->
<g id="edge7" class="edge"><title>Node4&#45;&gt;Node6</title>
<path fill="none" stroke="midnightblue" d="M103.568,-112.324C114.42,-104.185 130.881,-91.8395 143.883,-82.0874"/>
<polygon fill="midnightblue" stroke="midnightblue" points="146.321,-84.6339 152.221,-75.8339 142.121,-79.0339 146.321,-84.6339"/>
</g>
<!-- Node7 -->
<g id="node7" class="node"><title>Node7</title>
<g id="a_node7"><a xlink:title=" ">
<polygon fill="none" stroke="#bfbfbf" points="141,-0.5 141,-19.5 187,-19.5 187,-0.5 141,-0.5"/>
<text text-anchor="middle" x="164" y="-7.5" font-family="Helvetica,sans-Serif" font-size="10.00">cstdint</text>
</a>
</g>
</g>
<!-- Node6&#45;&gt;Node7 -->
<g id="edge8" class="edge"><title>Node6&#45;&gt;Node7</title>
<path fill="none" stroke="midnightblue" d="M164,-56.083C164,-49.0059 164,-38.8611 164,-29.9865"/>
<polygon fill="midnightblue" stroke="midnightblue" points="167.5,-29.751 164,-19.7511 160.5,-29.7511 167.5,-29.751"/>
</g>
</g>
</svg>
