<?xml version="1.0" encoding="UTF-8" standalone="no"?>
<!DOCTYPE svg PUBLIC "-//W3C//DTD SVG 1.1//EN"
 "http://www.w3.org/Graphics/SVG/1.1/DTD/svg11.dtd">
<!-- Generated by graphviz version 2.38.0 (20140413.2041)
 -->
<!-- Title: include/utils/memory_areas/thread.h Pages: 1 -->
<svg width="667pt" height="386pt"
 viewBox="0.00 0.00 667.00 386.00" xmlns="http://www.w3.org/2000/svg" xmlns:xlink="http://www.w3.org/1999/xlink">
<g id="graph0" class="graph" transform="scale(1 1) rotate(0) translate(4 382)">
<title>include/utils/memory_areas/thread.h</title>
<!-- Node1 -->
<g id="node1" class="node"><title>Node1</title>
<g id="a_node1"><a xlink:title=" ">
<polygon fill="#bfbfbf" stroke="black" points="300.5,-347.5 300.5,-377.5 407.5,-377.5 407.5,-347.5 300.5,-347.5"/>
<text text-anchor="start" x="308.5" y="-365.5" font-family="Helvetica,sans-Serif" font-size="10.00">include/utils/memory</text>
<text text-anchor="middle" x="354" y="-354.5" font-family="Helvetica,sans-Serif" font-size="10.00">_areas/thread.h</text>
</a>
</g>
</g>
<!-- Node2 -->
<g id="node2" class="node"><title>Node2</title>
<g id="a_node2"><a xlink:href="../../dd/d7e/java__stack_8h.xhtml" target="_top" xlink:title=" ">
<polygon fill="none" stroke="black" points="303,-280.5 303,-310.5 405,-310.5 405,-280.5 303,-280.5"/>
<text text-anchor="start" x="311" y="-298.5" font-family="Helvetica,sans-Serif" font-size="10.00">utils/memory_areas</text>
<text text-anchor="middle" x="354" y="-287.5" font-family="Helvetica,sans-Serif" font-size="10.00">/java_stack.h</text>
</a>
</g>
</g>
<!-- Node1&#45;&gt;Node2 -->
<g id="edge1" class="edge"><title>Node1&#45;&gt;Node2</title>
<path fill="none" stroke="midnightblue" d="M354,-347.396C354,-339.645 354,-329.812 354,-320.86"/>
<polygon fill="midnightblue" stroke="midnightblue" points="357.5,-320.576 354,-310.577 350.5,-320.577 357.5,-320.576"/>
</g>
<!-- Node3 -->
<g id="node3" class="node"><title>Node3</title>
<g id="a_node3"><a xlink:title=" ">
<polygon fill="none" stroke="#bfbfbf" points="305.5,-112.5 305.5,-131.5 346.5,-131.5 346.5,-112.5 305.5,-112.5"/>
<text text-anchor="middle" x="326" y="-119.5" font-family="Helvetica,sans-Serif" font-size="10.00">stack</text>
</a>
</g>
</g>
<!-- Node2&#45;&gt;Node3 -->
<g id="edge2" class="edge"><title>Node2&#45;&gt;Node3</title>
<path fill="none" stroke="midnightblue" d="M358.636,-280.332C365.684,-256.392 376.888,-206.759 363,-168 359.059,-157.003 351.143,-146.769 343.64,-138.848"/>
<polygon fill="midnightblue" stroke="midnightblue" points="346.019,-136.278 336.438,-131.755 341.108,-141.266 346.019,-136.278"/>
</g>
<!-- Node4 -->
<g id="node4" class="node"><title>Node4</title>
<g id="a_node4"><a xlink:href="../../df/d7d/frame_8h.xhtml" target="_top" xlink:title=" ">
<polygon fill="none" stroke="black" points="268,-224.5 268,-243.5 338,-243.5 338,-224.5 268,-224.5"/>
<text text-anchor="middle" x="303" y="-231.5" font-family="Helvetica,sans-Serif" font-size="10.00">utils/frame.h</text>
</a>
</g>
</g>
<!-- Node2&#45;&gt;Node4 -->
<g id="edge3" class="edge"><title>Node2&#45;&gt;Node4</title>
<path fill="none" stroke="midnightblue" d="M341.914,-280.399C334.426,-271.664 324.782,-260.413 316.968,-251.296"/>
<polygon fill="midnightblue" stroke="midnightblue" points="319.586,-248.973 310.421,-243.658 314.271,-253.528 319.586,-248.973"/>
</g>
<!-- Node4&#45;&gt;Node3 -->
<g id="edge4" class="edge"><title>Node4&#45;&gt;Node3</title>
<path fill="none" stroke="midnightblue" d="M315.781,-224.369C326.394,-216.36 340.731,-203.379 347,-188 353.484,-172.094 345.908,-153.379 338.107,-140.125"/>
<polygon fill="midnightblue" stroke="midnightblue" points="340.944,-138.067 332.584,-131.558 335.061,-141.86 340.944,-138.067"/>
</g>
<!-- Node5 -->
<g id="node5" class="node"><title>Node5</title>
<g id="a_node5"><a xlink:title=" ">
<polygon fill="none" stroke="#bfbfbf" points="0,-56.5 0,-75.5 42,-75.5 42,-56.5 0,-56.5"/>
<text text-anchor="middle" x="21" y="-63.5" font-family="Helvetica,sans-Serif" font-size="10.00">vector</text>
</a>
</g>
</g>
<!-- Node4&#45;&gt;Node5 -->
<g id="edge5" class="edge"><title>Node4&#45;&gt;Node5</title>
<path fill="none" stroke="midnightblue" d="M267.784,-229.978C225.716,-225.325 154.004,-214.04 98,-188 60.9208,-170.76 44.2064,-168.1 25,-132 17.4493,-117.808 17.0522,-99.3289 18.1916,-85.7034"/>
<polygon fill="midnightblue" stroke="midnightblue" points="21.6877,-85.942 19.3867,-75.6 14.7362,-85.1196 21.6877,-85.942"/>
</g>
<!-- Node6 -->
<g id="node6" class="node"><title>Node6</title>
<g id="a_node6"><a xlink:href="../../d0/d36/constant_pool_8h.xhtml" target="_top" xlink:title=" ">
<polygon fill="none" stroke="black" points="107.5,-168.5 107.5,-187.5 210.5,-187.5 210.5,-168.5 107.5,-168.5"/>
<text text-anchor="middle" x="159" y="-175.5" font-family="Helvetica,sans-Serif" font-size="10.00">utils/constantPool.h</text>
</a>
</g>
</g>
<!-- Node4&#45;&gt;Node6 -->
<g id="edge6" class="edge"><title>Node4&#45;&gt;Node6</title>
<path fill="none" stroke="midnightblue" d="M280.183,-224.444C256.168,-215.438 218.171,-201.189 191.131,-191.049"/>
<polygon fill="midnightblue" stroke="midnightblue" points="192.303,-187.751 181.71,-187.516 189.845,-194.305 192.303,-187.751"/>
</g>
<!-- Node9 -->
<g id="node9" class="node"><title>Node9</title>
<g id="a_node9"><a xlink:href="../../d9/d49/types_8h.xhtml" target="_top" xlink:title=" ">
<polygon fill="none" stroke="black" points="128,-56.5 128,-75.5 198,-75.5 198,-56.5 128,-56.5"/>
<text text-anchor="middle" x="163" y="-63.5" font-family="Helvetica,sans-Serif" font-size="10.00">utils/types.h</text>
</a>
</g>
</g>
<!-- Node4&#45;&gt;Node9 -->
<g id="edge24" class="edge"><title>Node4&#45;&gt;Node9</title>
<path fill="none" stroke="midnightblue" d="M293.71,-224.341C284.375,-215.498 269.729,-201.226 258,-188 226.555,-152.543 193.059,-108.105 175.463,-84.1719"/>
<polygon fill="midnightblue" stroke="midnightblue" points="178.066,-81.8011 169.338,-75.7938 172.415,-85.9323 178.066,-81.8011"/>
</g>
<!-- Node11 -->
<g id="node11" class="node"><title>Node11</title>
<g id="a_node11"><a xlink:href="../../de/d45/errors_8h.xhtml" target="_top" xlink:title=" ">
<polygon fill="none" stroke="black" points="267.5,-168.5 267.5,-187.5 338.5,-187.5 338.5,-168.5 267.5,-168.5"/>
<text text-anchor="middle" x="303" y="-175.5" font-family="Helvetica,sans-Serif" font-size="10.00">utils/errors.h</text>
</a>
</g>
</g>
<!-- Node4&#45;&gt;Node11 -->
<g id="edge15" class="edge"><title>Node4&#45;&gt;Node11</title>
<path fill="none" stroke="midnightblue" d="M303,-224.083C303,-217.006 303,-206.861 303,-197.986"/>
<polygon fill="midnightblue" stroke="midnightblue" points="306.5,-197.751 303,-187.751 299.5,-197.751 306.5,-197.751"/>
</g>
<!-- Node12 -->
<g id="node12" class="node"><title>Node12</title>
<g id="a_node12"><a xlink:href="../../df/d8d/any_8h.xhtml" target="_top" xlink:title=" ">
<polygon fill="none" stroke="black" points="437.5,-168.5 437.5,-187.5 536.5,-187.5 536.5,-168.5 437.5,-168.5"/>
<text text-anchor="middle" x="487" y="-175.5" font-family="Helvetica,sans-Serif" font-size="10.00">utils/external/any.h</text>
</a>
</g>
</g>
<!-- Node4&#45;&gt;Node12 -->
<g id="edge18" class="edge"><title>Node4&#45;&gt;Node12</title>
<path fill="none" stroke="midnightblue" d="M332.155,-224.444C363.513,-215.241 413.531,-200.562 448.197,-190.388"/>
<polygon fill="midnightblue" stroke="midnightblue" points="449.371,-193.691 457.981,-187.516 447.4,-186.974 449.371,-193.691"/>
</g>
<!-- Node6&#45;&gt;Node5 -->
<g id="edge8" class="edge"><title>Node6&#45;&gt;Node5</title>
<path fill="none" stroke="midnightblue" d="M107.676,-168.461C84.1456,-162.088 57.6301,-151.045 40,-132 28.4044,-119.473 23.8501,-100.248 22.0801,-85.9521"/>
<polygon fill="midnightblue" stroke="midnightblue" points="25.5464,-85.4168 21.1761,-75.7654 18.5738,-86.0357 25.5464,-85.4168"/>
</g>
<!-- Node7 -->
<g id="node7" class="node"><title>Node7</title>
<g id="a_node7"><a xlink:title=" ">
<polygon fill="none" stroke="#bfbfbf" points="236.5,-56.5 236.5,-75.5 277.5,-75.5 277.5,-56.5 236.5,-56.5"/>
<text text-anchor="middle" x="257" y="-63.5" font-family="Helvetica,sans-Serif" font-size="10.00">string</text>
</a>
</g>
</g>
<!-- Node6&#45;&gt;Node7 -->
<g id="edge7" class="edge"><title>Node6&#45;&gt;Node7</title>
<path fill="none" stroke="midnightblue" d="M166.69,-168.368C183.006,-150.055 221.32,-107.049 242.423,-83.3624"/>
<polygon fill="midnightblue" stroke="midnightblue" points="245.307,-85.3863 249.346,-75.5914 240.08,-80.7298 245.307,-85.3863"/>
</g>
<!-- Node8 -->
<g id="node8" class="node"><title>Node8</title>
<g id="a_node8"><a xlink:href="../../da/d6e/attributes_8h.xhtml" target="_top" xlink:title=" ">
<polygon fill="none" stroke="black" points="49,-112.5 49,-131.5 135,-131.5 135,-112.5 49,-112.5"/>
<text text-anchor="middle" x="92" y="-119.5" font-family="Helvetica,sans-Serif" font-size="10.00">utils/attributes.h</text>
</a>
</g>
</g>
<!-- Node6&#45;&gt;Node8 -->
<g id="edge9" class="edge"><title>Node6&#45;&gt;Node8</title>
<path fill="none" stroke="midnightblue" d="M148.235,-168.324C138.234,-160.263 123.113,-148.077 111.07,-138.369"/>
<polygon fill="midnightblue" stroke="midnightblue" points="112.943,-135.384 102.961,-131.834 108.55,-140.834 112.943,-135.384"/>
</g>
<!-- Node6&#45;&gt;Node9 -->
<g id="edge14" class="edge"><title>Node6&#45;&gt;Node9</title>
<path fill="none" stroke="midnightblue" d="M159.314,-168.368C159.959,-150.617 161.448,-109.666 162.324,-85.5974"/>
<polygon fill="midnightblue" stroke="midnightblue" points="165.822,-85.712 162.688,-75.5914 158.826,-85.4576 165.822,-85.712"/>
</g>
<!-- Node8&#45;&gt;Node5 -->
<g id="edge11" class="edge"><title>Node8&#45;&gt;Node5</title>
<path fill="none" stroke="midnightblue" d="M80.5926,-112.324C69.8912,-104.185 53.6593,-91.8395 40.8372,-82.0874"/>
<polygon fill="midnightblue" stroke="midnightblue" points="42.6932,-79.1018 32.6149,-75.8339 38.4556,-84.6734 42.6932,-79.1018"/>
</g>
<!-- Node8&#45;&gt;Node7 -->
<g id="edge10" class="edge"><title>Node8&#45;&gt;Node7</title>
<path fill="none" stroke="midnightblue" d="M118.145,-112.444C147.536,-102.825 195.205,-87.2238 226.331,-77.0372"/>
<polygon fill="midnightblue" stroke="midnightblue" points="227.787,-80.2435 236.202,-73.8067 225.609,-73.5907 227.787,-80.2435"/>
</g>
<!-- Node8&#45;&gt;Node9 -->
<g id="edge12" class="edge"><title>Node8&#45;&gt;Node9</title>
<path fill="none" stroke="midnightblue" d="M103.407,-112.324C114.109,-104.185 130.341,-91.8395 143.163,-82.0874"/>
<polygon fill="midnightblue" stroke="midnightblue" points="145.544,-84.6734 151.385,-75.8339 141.307,-79.1018 145.544,-84.6734"/>
</g>
<!-- Node10 -->
<g id="node10" class="node"><title>Node10</title>
<g id="a_node10"><a xlink:title=" ">
<polygon fill="none" stroke="#bfbfbf" points="140,-0.5 140,-19.5 186,-19.5 186,-0.5 140,-0.5"/>
<text text-anchor="middle" x="163" y="-7.5" font-family="Helvetica,sans-Serif" font-size="10.00">cstdint</text>
</a>
</g>
</g>
<!-- Node9&#45;&gt;Node10 -->
<g id="edge13" class="edge"><title>Node9&#45;&gt;Node10</title>
<path fill="none" stroke="midnightblue" d="M163,-56.083C163,-49.0059 163,-38.8611 163,-29.9865"/>
<polygon fill="midnightblue" stroke="midnightblue" points="166.5,-29.751 163,-19.7511 159.5,-29.7511 166.5,-29.751"/>
</g>
<!-- Node11&#45;&gt;Node3 -->
<g id="edge16" class="edge"><title>Node11&#45;&gt;Node3</title>
<path fill="none" stroke="midnightblue" d="M306.798,-168.083C309.913,-160.77 314.423,-150.181 318.289,-141.103"/>
<polygon fill="midnightblue" stroke="midnightblue" points="321.574,-142.323 322.273,-131.751 315.134,-139.58 321.574,-142.323"/>
</g>
<!-- Node11&#45;&gt;Node7 -->
<g id="edge17" class="edge"><title>Node11&#45;&gt;Node7</title>
<path fill="none" stroke="midnightblue" d="M299.39,-168.368C291.9,-150.456 274.532,-108.923 264.506,-84.9482"/>
<polygon fill="midnightblue" stroke="midnightblue" points="267.68,-83.4669 260.593,-75.5914 261.222,-86.1676 267.68,-83.4669"/>
</g>
<!-- Node12&#45;&gt;Node7 -->
<g id="edge20" class="edge"><title>Node12&#45;&gt;Node7</title>
<path fill="none" stroke="midnightblue" d="M469.111,-168.496C450.341,-159.537 420.008,-144.959 394,-132 376.565,-123.313 372.522,-120.511 355,-112 331.806,-100.734 305.202,-88.565 285.572,-79.7256"/>
<polygon fill="midnightblue" stroke="midnightblue" points="286.826,-76.4521 276.269,-75.5509 283.96,-82.8385 286.826,-76.4521"/>
</g>
<!-- Node13 -->
<g id="node13" class="node"><title>Node13</title>
<g id="a_node13"><a xlink:title=" ">
<polygon fill="none" stroke="#bfbfbf" points="529.5,-112.5 529.5,-131.5 578.5,-131.5 578.5,-112.5 529.5,-112.5"/>
<text text-anchor="middle" x="554" y="-119.5" font-family="Helvetica,sans-Serif" font-size="10.00">cassert</text>
</a>
</g>
</g>
<!-- Node12&#45;&gt;Node13 -->
<g id="edge19" class="edge"><title>Node12&#45;&gt;Node13</title>
<path fill="none" stroke="midnightblue" d="M497.765,-168.324C507.766,-160.263 522.887,-148.077 534.93,-138.369"/>
<polygon fill="midnightblue" stroke="midnightblue" points="537.45,-140.834 543.039,-131.834 533.057,-135.384 537.45,-140.834"/>
</g>
<!-- Node14 -->
<g id="node14" class="node"><title>Node14</title>
<g id="a_node14"><a xlink:title=" ">
<polygon fill="none" stroke="#bfbfbf" points="597,-112.5 597,-131.5 659,-131.5 659,-112.5 597,-112.5"/>
<text text-anchor="middle" x="628" y="-119.5" font-family="Helvetica,sans-Serif" font-size="10.00">type_traits</text>
</a>
</g>
</g>
<!-- Node12&#45;&gt;Node14 -->
<g id="edge21" class="edge"><title>Node12&#45;&gt;Node14</title>
<path fill="none" stroke="midnightblue" d="M509.342,-168.444C532.753,-159.478 569.736,-145.314 596.19,-135.183"/>
<polygon fill="midnightblue" stroke="midnightblue" points="597.676,-138.361 605.763,-131.516 595.172,-131.824 597.676,-138.361"/>
</g>
<!-- Node15 -->
<g id="node15" class="node"><title>Node15</title>
<g id="a_node15"><a xlink:title=" ">
<polygon fill="none" stroke="#bfbfbf" points="403,-112.5 403,-131.5 453,-131.5 453,-112.5 403,-112.5"/>
<text text-anchor="middle" x="428" y="-119.5" font-family="Helvetica,sans-Serif" font-size="10.00">typeinfo</text>
</a>
</g>
</g>
<!-- Node12&#45;&gt;Node15 -->
<g id="edge22" class="edge"><title>Node12&#45;&gt;Node15</title>
<path fill="none" stroke="midnightblue" d="M477.521,-168.324C468.799,-160.341 455.657,-148.313 445.102,-138.653"/>
<polygon fill="midnightblue" stroke="midnightblue" points="447.392,-136.004 437.652,-131.834 442.666,-141.167 447.392,-136.004"/>
</g>
<!-- Node16 -->
<g id="node16" class="node"><title>Node16</title>
<g id="a_node16"><a xlink:title=" ">
<polygon fill="none" stroke="#bfbfbf" points="471,-112.5 471,-131.5 511,-131.5 511,-112.5 471,-112.5"/>
<text text-anchor="middle" x="491" y="-119.5" font-family="Helvetica,sans-Serif" font-size="10.00">utility</text>
</a>
</g>
</g>
<!-- Node12&#45;&gt;Node16 -->
<g id="edge23" class="edge"><title>Node12&#45;&gt;Node16</title>
<path fill="none" stroke="midnightblue" d="M487.661,-168.083C488.185,-161.006 488.936,-150.861 489.594,-141.986"/>
<polygon fill="midnightblue" stroke="midnightblue" points="493.103,-141.982 490.352,-131.751 486.123,-141.465 493.103,-141.982"/>
</g>
</g>
</svg>
