<?xml version="1.0" encoding="UTF-8" standalone="no"?>
<!DOCTYPE svg PUBLIC "-//W3C//DTD SVG 1.1//EN"
 "http://www.w3.org/Graphics/SVG/1.1/DTD/svg11.dtd">
<!-- Generated by graphviz version 2.38.0 (20140413.2041)
 -->
<!-- Title: include/utils/attributes.h Pages: 1 -->
<svg width="198pt" height="140pt"
 viewBox="0.00 0.00 197.50 140.00" xmlns="http://www.w3.org/2000/svg" xmlns:xlink="http://www.w3.org/1999/xlink">
<g id="graph0" class="graph" transform="scale(1 1) rotate(0) translate(4 136)">
<title>include/utils/attributes.h</title>
<!-- Node1 -->
<g id="node1" class="node"><title>Node1</title>
<g id="a_node1"><a xlink:title=" ">
<polygon fill="#bfbfbf" stroke="black" points="20.5,-112.5 20.5,-131.5 140.5,-131.5 140.5,-112.5 20.5,-112.5"/>
<text text-anchor="middle" x="80.5" y="-119.5" font-family="Helvetica,sans-Serif" font-size="10.00">include/utils/attributes.h</text>
</a>
</g>
</g>
<!-- Node2 -->
<g id="node2" class="node"><title>Node2</title>
<g id="a_node2"><a xlink:title=" ">
<polygon fill="none" stroke="#bfbfbf" points="0,-56.5 0,-75.5 41,-75.5 41,-56.5 0,-56.5"/>
<text text-anchor="middle" x="20.5" y="-63.5" font-family="Helvetica,sans-Serif" font-size="10.00">string</text>
</a>
</g>
</g>
<!-- Node1&#45;&gt;Node2 -->
<g id="edge1" class="edge"><title>Node1&#45;&gt;Node2</title>
<path fill="none" stroke="midnightblue" d="M70.86,-112.324C61.9904,-104.341 48.6253,-92.3128 37.8921,-82.6529"/>
<polygon fill="midnightblue" stroke="midnightblue" points="40.0898,-79.922 30.3154,-75.8339 35.407,-85.1251 40.0898,-79.922"/>
</g>
<!-- Node3 -->
<g id="node3" class="node"><title>Node3</title>
<g id="a_node3"><a xlink:title=" ">
<polygon fill="none" stroke="#bfbfbf" points="59.5,-56.5 59.5,-75.5 101.5,-75.5 101.5,-56.5 59.5,-56.5"/>
<text text-anchor="middle" x="80.5" y="-63.5" font-family="Helvetica,sans-Serif" font-size="10.00">vector</text>
</a>
</g>
</g>
<!-- Node1&#45;&gt;Node3 -->
<g id="edge2" class="edge"><title>Node1&#45;&gt;Node3</title>
<path fill="none" stroke="midnightblue" d="M80.5,-112.083C80.5,-105.006 80.5,-94.8611 80.5,-85.9865"/>
<polygon fill="midnightblue" stroke="midnightblue" points="84.0001,-85.751 80.5,-75.7511 77.0001,-85.7511 84.0001,-85.751"/>
</g>
<!-- Node4 -->
<g id="node4" class="node"><title>Node4</title>
<g id="a_node4"><a xlink:href="../../d9/d49/types_8h.xhtml" target="_top" xlink:title=" ">
<polygon fill="none" stroke="black" points="119.5,-56.5 119.5,-75.5 189.5,-75.5 189.5,-56.5 119.5,-56.5"/>
<text text-anchor="middle" x="154.5" y="-63.5" font-family="Helvetica,sans-Serif" font-size="10.00">utils/types.h</text>
</a>
</g>
</g>
<!-- Node1&#45;&gt;Node4 -->
<g id="edge3" class="edge"><title>Node1&#45;&gt;Node4</title>
<path fill="none" stroke="midnightblue" d="M92.3894,-112.324C103.65,-104.107 120.787,-91.6017 134.209,-81.8069"/>
<polygon fill="midnightblue" stroke="midnightblue" points="136.38,-84.5559 142.394,-75.8339 132.253,-78.9014 136.38,-84.5559"/>
</g>
<!-- Node5 -->
<g id="node5" class="node"><title>Node5</title>
<g id="a_node5"><a xlink:title=" ">
<polygon fill="none" stroke="#bfbfbf" points="131.5,-0.5 131.5,-19.5 177.5,-19.5 177.5,-0.5 131.5,-0.5"/>
<text text-anchor="middle" x="154.5" y="-7.5" font-family="Helvetica,sans-Serif" font-size="10.00">cstdint</text>
</a>
</g>
</g>
<!-- Node4&#45;&gt;Node5 -->
<g id="edge4" class="edge"><title>Node4&#45;&gt;Node5</title>
<path fill="none" stroke="midnightblue" d="M154.5,-56.083C154.5,-49.0059 154.5,-38.8611 154.5,-29.9865"/>
<polygon fill="midnightblue" stroke="midnightblue" points="158,-29.751 154.5,-19.7511 151,-29.7511 158,-29.751"/>
</g>
</g>
</svg>
