<?xml version="1.0" encoding="UTF-8" standalone="no"?>
<!DOCTYPE svg PUBLIC "-//W3C//DTD SVG 1.1//EN"
 "http://www.w3.org/Graphics/SVG/1.1/DTD/svg11.dtd">
<!-- Generated by graphviz version 2.38.0 (20140413.2041)
 -->
<!-- Title: tableformatter::StreamReset Pages: 1 -->
<svg width="148pt" height="193pt"
 viewBox="0.00 0.00 148.00 193.00" xmlns="http://www.w3.org/2000/svg" xmlns:xlink="http://www.w3.org/1999/xlink">
<g id="graph0" class="graph" transform="scale(1 1) rotate(0) translate(4 189)">
<title>tableformatter::StreamReset</title>
<!-- Node1 -->
<g id="node1" class="node"><title>Node1</title>
<g id="a_node1"><a xlink:title=" ">
<polygon fill="#bfbfbf" stroke="black" points="0,-0.5 0,-68.5 139,-68.5 139,-0.5 0,-0.5"/>
<text text-anchor="middle" x="69.5" y="-56.5" font-family="Helvetica,sans-Serif" font-size="10.00">tableformatter::StreamReset</text>
<polyline fill="none" stroke="black" points="0,-49.5 139,-49.5 "/>
<text text-anchor="middle" x="69.5" y="-37.5" font-family="Helvetica,sans-Serif" font-size="10.00"> </text>
<polyline fill="none" stroke="black" points="0,-30.5 139,-30.5 "/>
<text text-anchor="start" x="8" y="-18.5" font-family="Helvetica,sans-Serif" font-size="10.00">+ getState()</text>
<text text-anchor="start" x="8" y="-7.5" font-family="Helvetica,sans-Serif" font-size="10.00">+ setState()</text>
</a>
</g>
</g>
<!-- Node2 -->
<g id="node2" class="node"><title>Node2</title>
<g id="a_node2"><a xlink:title=" ">
<polygon fill="none" stroke="#bfbfbf" points="6.5,-127.5 6.5,-184.5 56.5,-184.5 56.5,-127.5 6.5,-127.5"/>
<text text-anchor="middle" x="31.5" y="-172.5" font-family="Helvetica,sans-Serif" font-size="10.00">fmtflags</text>
<polyline fill="none" stroke="#bfbfbf" points="6.5,-165.5 56.5,-165.5 "/>
<text text-anchor="middle" x="31.5" y="-153.5" font-family="Helvetica,sans-Serif" font-size="10.00"> </text>
<polyline fill="none" stroke="#bfbfbf" points="6.5,-146.5 56.5,-146.5 "/>
<text text-anchor="middle" x="31.5" y="-134.5" font-family="Helvetica,sans-Serif" font-size="10.00"> </text>
</a>
</g>
</g>
<!-- Node2&#45;&gt;Node1 -->
<g id="edge1" class="edge"><title>Node2&#45;&gt;Node1</title>
<path fill="none" stroke="#404040" d="M30.471,-127.261C30.7761,-114.688 32.2341,-99.8027 36.5,-87 37.3455,-84.4625 38.3441,-81.9257 39.4574,-79.4142"/>
<polygon fill="none" stroke="#404040" points="39.501,-79.3288 38.6649,-72.1663 44.9549,-68.6398 45.7909,-75.8023 39.501,-79.3288"/>
<text text-anchor="middle" x="61" y="-95.5" font-family="Helvetica,sans-Serif" font-size="10.00"> +saveflags</text>
</g>
<!-- Node3 -->
<g id="node3" class="node"><title>Node3</title>
<g id="a_node3"><a xlink:title=" ">
<polygon fill="none" stroke="#bfbfbf" points="75,-127.5 75,-184.5 140,-184.5 140,-127.5 75,-127.5"/>
<text text-anchor="middle" x="107.5" y="-172.5" font-family="Helvetica,sans-Serif" font-size="10.00">streamsize</text>
<polyline fill="none" stroke="#bfbfbf" points="75,-165.5 140,-165.5 "/>
<text text-anchor="middle" x="107.5" y="-153.5" font-family="Helvetica,sans-Serif" font-size="10.00"> </text>
<polyline fill="none" stroke="#bfbfbf" points="75,-146.5 140,-146.5 "/>
<text text-anchor="middle" x="107.5" y="-134.5" font-family="Helvetica,sans-Serif" font-size="10.00"> </text>
</a>
</g>
</g>
<!-- Node3&#45;&gt;Node1 -->
<g id="edge2" class="edge"><title>Node3&#45;&gt;Node1</title>
<path fill="none" stroke="#404040" d="M98.6865,-127.284C94.2488,-113.328 88.7584,-96.0626 83.7412,-80.2849"/>
<polygon fill="none" stroke="#404040" points="83.6586,-80.0248 78.0284,-75.5191 80.022,-68.5891 85.6522,-73.0948 83.6586,-80.0248"/>
<text text-anchor="middle" x="108.5" y="-101" font-family="Helvetica,sans-Serif" font-size="10.00"> +width</text>
<text text-anchor="middle" x="108.5" y="-90" font-family="Helvetica,sans-Serif" font-size="10.00">+prec</text>
</g>
</g>
</svg>
