<?xml version="1.0" encoding="UTF-8" standalone="no"?>
<!DOCTYPE svg PUBLIC "-//W3C//DTD SVG 1.1//EN"
 "http://www.w3.org/Graphics/SVG/1.1/DTD/svg11.dtd">
<!-- Generated by graphviz version 2.38.0 (20140413.2041)
 -->
<!-- Title: Utils::Attributes::NotImplemented Pages: 1 -->
<svg width="127pt" height="237pt"
 viewBox="0.00 0.00 127.00 237.00" xmlns="http://www.w3.org/2000/svg" xmlns:xlink="http://www.w3.org/1999/xlink">
<g id="graph0" class="graph" transform="scale(1 1) rotate(0) translate(4 233)">
<title>Utils::Attributes::NotImplemented</title>
<!-- Node1 -->
<g id="node1" class="node"><title>Node1</title>
<g id="a_node1"><a xlink:title=" ">
<polygon fill="#bfbfbf" stroke="black" points="5.5,-0.5 5.5,-90.5 113.5,-90.5 113.5,-0.5 5.5,-0.5"/>
<text text-anchor="start" x="13.5" y="-78.5" font-family="Helvetica,sans-Serif" font-size="10.00">Utils::Attributes::</text>
<text text-anchor="middle" x="59.5" y="-67.5" font-family="Helvetica,sans-Serif" font-size="10.00">NotImplemented</text>
<polyline fill="none" stroke="black" points="5.5,-60.5 113.5,-60.5 "/>
<text text-anchor="middle" x="59.5" y="-48.5" font-family="Helvetica,sans-Serif" font-size="10.00"> </text>
<polyline fill="none" stroke="black" points="5.5,-41.5 113.5,-41.5 "/>
<text text-anchor="start" x="13.5" y="-29.5" font-family="Helvetica,sans-Serif" font-size="10.00">+ NotImplemented()</text>
<text text-anchor="start" x="13.5" y="-18.5" font-family="Helvetica,sans-Serif" font-size="10.00">+ ~NotImplemented()</text>
<text text-anchor="start" x="13.5" y="-7.5" font-family="Helvetica,sans-Serif" font-size="10.00">+ getSpecificInfo()</text>
</a>
</g>
</g>
<!-- Node2 -->
<g id="node2" class="node"><title>Node2</title>
<g id="a_node2"><a xlink:href="../../dc/dac/class_utils_1_1_attributes_1_1_base_attribute.xhtml" target="_top" xlink:title=" ">
<polygon fill="none" stroke="black" points="0,-127.5 0,-228.5 119,-228.5 119,-127.5 0,-127.5"/>
<text text-anchor="start" x="8" y="-216.5" font-family="Helvetica,sans-Serif" font-size="10.00">Utils::Attributes::</text>
<text text-anchor="middle" x="59.5" y="-205.5" font-family="Helvetica,sans-Serif" font-size="10.00">BaseAttribute</text>
<polyline fill="none" stroke="black" points="0,-198.5 119,-198.5 "/>
<text text-anchor="start" x="8" y="-186.5" font-family="Helvetica,sans-Serif" font-size="10.00">+ attribute_name_index</text>
<text text-anchor="start" x="8" y="-175.5" font-family="Helvetica,sans-Serif" font-size="10.00">+ attribute_length</text>
<polyline fill="none" stroke="black" points="0,-168.5 119,-168.5 "/>
<text text-anchor="start" x="8" y="-156.5" font-family="Helvetica,sans-Serif" font-size="10.00">+ BaseAttribute()</text>
<text text-anchor="start" x="8" y="-145.5" font-family="Helvetica,sans-Serif" font-size="10.00">+ BaseAttribute()</text>
<text text-anchor="start" x="8" y="-134.5" font-family="Helvetica,sans-Serif" font-size="10.00">+ ~BaseAttribute()</text>
</a>
</g>
</g>
<!-- Node2&#45;&gt;Node1 -->
<g id="edge1" class="edge"><title>Node2&#45;&gt;Node1</title>
<path fill="none" stroke="midnightblue" d="M59.5,-117.232C59.5,-108.236 59.5,-99.1012 59.5,-90.5165"/>
<polygon fill="none" stroke="midnightblue" points="56.0001,-117.291 59.5,-127.291 63.0001,-117.291 56.0001,-117.291"/>
</g>
</g>
</svg>
