<?xml version="1.0" encoding="UTF-8" standalone="no"?>
<!DOCTYPE svg PUBLIC "-//W3C//DTD SVG 1.1//EN"
 "http://www.w3.org/Graphics/SVG/1.1/DTD/svg11.dtd">
<!-- Generated by graphviz version 2.38.0 (20140413.2041)
 -->
<!-- Title: Utils::ConstantPool::CONSTANT_Methodref_info Pages: 1 -->
<svg width="262pt" height="492pt"
 viewBox="0.00 0.00 262.00 492.00" xmlns="http://www.w3.org/2000/svg" xmlns:xlink="http://www.w3.org/1999/xlink">
<g id="graph0" class="graph" transform="scale(1 1) rotate(0) translate(4 488)">
<title>Utils::ConstantPool::CONSTANT_Methodref_info</title>
<!-- Node1 -->
<g id="node1" class="node"><title>Node1</title>
<g id="a_node1"><a xlink:title=" ">
<polygon fill="#bfbfbf" stroke="black" points="53,-0.5 53,-101.5 211,-101.5 211,-0.5 53,-0.5"/>
<text text-anchor="start" x="61" y="-89.5" font-family="Helvetica,sans-Serif" font-size="10.00">Utils::ConstantPool</text>
<text text-anchor="middle" x="132" y="-78.5" font-family="Helvetica,sans-Serif" font-size="10.00">::CONSTANT_Methodref_info</text>
<polyline fill="none" stroke="black" points="53,-71.5 211,-71.5 "/>
<text text-anchor="middle" x="132" y="-59.5" font-family="Helvetica,sans-Serif" font-size="10.00"> </text>
<polyline fill="none" stroke="black" points="53,-52.5 211,-52.5 "/>
<text text-anchor="start" x="61" y="-40.5" font-family="Helvetica,sans-Serif" font-size="10.00">+ CONSTANT_Methodref_info()</text>
<text text-anchor="start" x="61" y="-29.5" font-family="Helvetica,sans-Serif" font-size="10.00">+ ~CONSTANT_Methodref_info()</text>
<text text-anchor="start" x="61" y="-18.5" font-family="Helvetica,sans-Serif" font-size="10.00">+ getValue()</text>
<text text-anchor="start" x="61" y="-7.5" font-family="Helvetica,sans-Serif" font-size="10.00">+ getGeneralInfo()</text>
</a>
</g>
</g>
<!-- Node2 -->
<g id="node2" class="node"><title>Node2</title>
<g id="a_node2"><a xlink:href="../../da/de3/class_utils_1_1_constant_pool_1_1_base_reference.xhtml" target="_top" xlink:title=" ">
<polygon fill="none" stroke="black" points="81.5,-139.5 81.5,-229.5 182.5,-229.5 182.5,-139.5 81.5,-139.5"/>
<text text-anchor="start" x="89.5" y="-217.5" font-family="Helvetica,sans-Serif" font-size="10.00">Utils::ConstantPool</text>
<text text-anchor="middle" x="132" y="-206.5" font-family="Helvetica,sans-Serif" font-size="10.00">::BaseReference</text>
<polyline fill="none" stroke="black" points="81.5,-199.5 182.5,-199.5 "/>
<text text-anchor="middle" x="132" y="-187.5" font-family="Helvetica,sans-Serif" font-size="10.00"> </text>
<polyline fill="none" stroke="black" points="81.5,-180.5 182.5,-180.5 "/>
<text text-anchor="start" x="89.5" y="-168.5" font-family="Helvetica,sans-Serif" font-size="10.00">+ BaseReference()</text>
<text text-anchor="start" x="89.5" y="-157.5" font-family="Helvetica,sans-Serif" font-size="10.00">+ getValue()</text>
<text text-anchor="start" x="89.5" y="-146.5" font-family="Helvetica,sans-Serif" font-size="10.00">+ getGeneralInfo()</text>
</a>
</g>
</g>
<!-- Node2&#45;&gt;Node1 -->
<g id="edge1" class="edge"><title>Node2&#45;&gt;Node1</title>
<path fill="none" stroke="midnightblue" d="M132,-129.224C132,-120.11 132,-110.693 132,-101.701"/>
<polygon fill="none" stroke="midnightblue" points="128.5,-129.347 132,-139.347 135.5,-129.347 128.5,-129.347"/>
</g>
<!-- Node3 -->
<g id="node3" class="node"><title>Node3</title>
<g id="a_node3"><a xlink:href="../../d7/d7d/class_utils_1_1_constant_pool_1_1_base_constant_info.xhtml" target="_top" xlink:title=" ">
<polygon fill="none" stroke="black" points="0,-288.5 0,-378.5 114,-378.5 114,-288.5 0,-288.5"/>
<text text-anchor="start" x="8" y="-366.5" font-family="Helvetica,sans-Serif" font-size="10.00">Utils::ConstantPool</text>
<text text-anchor="middle" x="57" y="-355.5" font-family="Helvetica,sans-Serif" font-size="10.00">::BaseConstantInfo</text>
<polyline fill="none" stroke="black" points="0,-348.5 114,-348.5 "/>
<text text-anchor="middle" x="57" y="-336.5" font-family="Helvetica,sans-Serif" font-size="10.00"> </text>
<polyline fill="none" stroke="black" points="0,-329.5 114,-329.5 "/>
<text text-anchor="start" x="8" y="-317.5" font-family="Helvetica,sans-Serif" font-size="10.00">+ BaseConstantInfo()</text>
<text text-anchor="start" x="8" y="-306.5" font-family="Helvetica,sans-Serif" font-size="10.00">+ BaseConstantInfo()</text>
<text text-anchor="start" x="8" y="-295.5" font-family="Helvetica,sans-Serif" font-size="10.00">+ ~BaseConstantInfo()</text>
</a>
</g>
</g>
<!-- Node3&#45;&gt;Node2 -->
<g id="edge2" class="edge"><title>Node3&#45;&gt;Node2</title>
<path fill="none" stroke="midnightblue" d="M84.0528,-279.476C92.4036,-263.109 101.506,-245.269 109.513,-229.574"/>
<polygon fill="none" stroke="midnightblue" points="80.9296,-277.897 79.5025,-288.395 87.1649,-281.078 80.9296,-277.897"/>
</g>
<!-- Node4 -->
<g id="node4" class="node"><title>Node4</title>
<g id="a_node4"><a xlink:title=" ">
<polygon fill="none" stroke="#bfbfbf" points="34,-426.5 34,-483.5 80,-483.5 80,-426.5 34,-426.5"/>
<text text-anchor="middle" x="57" y="-471.5" font-family="Helvetica,sans-Serif" font-size="10.00">uint8_t</text>
<polyline fill="none" stroke="#bfbfbf" points="34,-464.5 80,-464.5 "/>
<text text-anchor="middle" x="57" y="-452.5" font-family="Helvetica,sans-Serif" font-size="10.00"> </text>
<polyline fill="none" stroke="#bfbfbf" points="34,-445.5 80,-445.5 "/>
<text text-anchor="middle" x="57" y="-433.5" font-family="Helvetica,sans-Serif" font-size="10.00"> </text>
</a>
</g>
</g>
<!-- Node4&#45;&gt;Node3 -->
<g id="edge3" class="edge"><title>Node4&#45;&gt;Node3</title>
<path fill="none" stroke="#404040" d="M57,-426.284C57,-415.735 57,-403.294 57,-391.035"/>
<polygon fill="none" stroke="#404040" points="57.0001,-390.912 53,-384.912 57,-378.912 61,-384.912 57.0001,-390.912"/>
<text text-anchor="middle" x="68.5" y="-400" font-family="Helvetica,sans-Serif" font-size="10.00"> +tag</text>
</g>
<!-- Node5 -->
<g id="node5" class="node"><title>Node5</title>
<g id="a_node5"><a xlink:title=" ">
<polygon fill="none" stroke="#bfbfbf" points="132.5,-305 132.5,-362 183.5,-362 183.5,-305 132.5,-305"/>
<text text-anchor="middle" x="158" y="-350" font-family="Helvetica,sans-Serif" font-size="10.00">uint16_t</text>
<polyline fill="none" stroke="#bfbfbf" points="132.5,-343 183.5,-343 "/>
<text text-anchor="middle" x="158" y="-331" font-family="Helvetica,sans-Serif" font-size="10.00"> </text>
<polyline fill="none" stroke="#bfbfbf" points="132.5,-324 183.5,-324 "/>
<text text-anchor="middle" x="158" y="-312" font-family="Helvetica,sans-Serif" font-size="10.00"> </text>
</a>
</g>
</g>
<!-- Node5&#45;&gt;Node2 -->
<g id="edge4" class="edge"><title>Node5&#45;&gt;Node2</title>
<path fill="none" stroke="#404040" d="M153.11,-304.85C149.972,-287.109 145.784,-263.433 141.966,-241.848"/>
<polygon fill="none" stroke="#404040" points="141.922,-241.599 136.938,-236.387 139.832,-229.782 144.816,-234.994 141.922,-241.599"/>
<text text-anchor="middle" x="200.5" y="-262" font-family="Helvetica,sans-Serif" font-size="10.00"> +name_and_type_index</text>
<text text-anchor="middle" x="200.5" y="-251" font-family="Helvetica,sans-Serif" font-size="10.00">+class_index</text>
</g>
</g>
</svg>
