<?xml version="1.0" encoding="UTF-8" standalone="no"?>
<!DOCTYPE svg PUBLIC "-//W3C//DTD SVG 1.1//EN"
 "http://www.w3.org/Graphics/SVG/1.1/DTD/svg11.dtd">
<!-- Generated by graphviz version 2.38.0 (20140413.2041)
 -->
<!-- Title: Instructions::Char::BaseChar Pages: 1 -->
<svg width="218pt" height="353pt"
 viewBox="0.00 0.00 218.00 353.00" xmlns="http://www.w3.org/2000/svg" xmlns:xlink="http://www.w3.org/1999/xlink">
<g id="graph0" class="graph" transform="scale(1 1) rotate(0) translate(4 349)">
<title>Instructions::Char::BaseChar</title>
<!-- Node1 -->
<g id="node1" class="node"><title>Node1</title>
<g id="a_node1"><a xlink:title=" ">
<polygon fill="#bfbfbf" stroke="black" points="54,-116.5 54,-206.5 158,-206.5 158,-116.5 54,-116.5"/>
<text text-anchor="start" x="62" y="-194.5" font-family="Helvetica,sans-Serif" font-size="10.00">Instructions::Char</text>
<text text-anchor="middle" x="106" y="-183.5" font-family="Helvetica,sans-Serif" font-size="10.00">::BaseChar</text>
<polyline fill="none" stroke="black" points="54,-176.5 158,-176.5 "/>
<text text-anchor="middle" x="106" y="-164.5" font-family="Helvetica,sans-Serif" font-size="10.00"> </text>
<polyline fill="none" stroke="black" points="54,-157.5 158,-157.5 "/>
<text text-anchor="start" x="62" y="-145.5" font-family="Helvetica,sans-Serif" font-size="10.00">+ BaseChar()</text>
<text text-anchor="start" x="62" y="-134.5" font-family="Helvetica,sans-Serif" font-size="10.00">+ toBytecode()</text>
<text text-anchor="start" x="62" y="-123.5" font-family="Helvetica,sans-Serif" font-size="10.00">+ toBytecode_json()</text>
</a>
</g>
</g>
<!-- Node3 -->
<g id="node3" class="node"><title>Node3</title>
<g id="a_node3"><a xlink:href="../../de/dbd/class_instructions_1_1_char_1_1_load_from_array.xhtml" target="_top" xlink:title=" ">
<polygon fill="none" stroke="black" points="0,-0.5 0,-79.5 98,-79.5 98,-0.5 0,-0.5"/>
<text text-anchor="start" x="8" y="-67.5" font-family="Helvetica,sans-Serif" font-size="10.00">Instructions::Char</text>
<text text-anchor="middle" x="49" y="-56.5" font-family="Helvetica,sans-Serif" font-size="10.00">::LoadFromArray</text>
<polyline fill="none" stroke="black" points="0,-49.5 98,-49.5 "/>
<text text-anchor="middle" x="49" y="-37.5" font-family="Helvetica,sans-Serif" font-size="10.00"> </text>
<polyline fill="none" stroke="black" points="0,-30.5 98,-30.5 "/>
<text text-anchor="start" x="8" y="-18.5" font-family="Helvetica,sans-Serif" font-size="10.00">+ LoadFromArray()</text>
<text text-anchor="start" x="8" y="-7.5" font-family="Helvetica,sans-Serif" font-size="10.00">+ execute()</text>
</a>
</g>
</g>
<!-- Node1&#45;&gt;Node3 -->
<g id="edge2" class="edge"><title>Node1&#45;&gt;Node3</title>
<path fill="none" stroke="midnightblue" d="M80.5914,-107.231C76.1968,-98.0179 71.703,-88.5967 67.5346,-79.8576"/>
<polygon fill="none" stroke="midnightblue" points="77.473,-108.823 84.9372,-116.342 83.791,-105.809 77.473,-108.823"/>
</g>
<!-- Node4 -->
<g id="node4" class="node"><title>Node4</title>
<g id="a_node4"><a xlink:href="../../de/d04/class_instructions_1_1_char_1_1_store_into_array.xhtml" target="_top" xlink:title=" ">
<polygon fill="none" stroke="black" points="116,-0.5 116,-79.5 210,-79.5 210,-0.5 116,-0.5"/>
<text text-anchor="start" x="124" y="-67.5" font-family="Helvetica,sans-Serif" font-size="10.00">Instructions::Char</text>
<text text-anchor="middle" x="163" y="-56.5" font-family="Helvetica,sans-Serif" font-size="10.00">::StoreIntoArray</text>
<polyline fill="none" stroke="black" points="116,-49.5 210,-49.5 "/>
<text text-anchor="middle" x="163" y="-37.5" font-family="Helvetica,sans-Serif" font-size="10.00"> </text>
<polyline fill="none" stroke="black" points="116,-30.5 210,-30.5 "/>
<text text-anchor="start" x="124" y="-18.5" font-family="Helvetica,sans-Serif" font-size="10.00">+ StoreIntoArray()</text>
<text text-anchor="start" x="124" y="-7.5" font-family="Helvetica,sans-Serif" font-size="10.00">+ execute()</text>
</a>
</g>
</g>
<!-- Node1&#45;&gt;Node4 -->
<g id="edge3" class="edge"><title>Node1&#45;&gt;Node4</title>
<path fill="none" stroke="midnightblue" d="M131.409,-107.231C135.803,-98.0179 140.297,-88.5967 144.465,-79.8576"/>
<polygon fill="none" stroke="midnightblue" points="128.209,-105.809 127.063,-116.342 134.527,-108.823 128.209,-105.809"/>
</g>
<!-- Node2 -->
<g id="node2" class="node"><title>Node2</title>
<g id="a_node2"><a xlink:href="../../d4/da8/class_instructions_1_1_instruction.xhtml" target="_top" xlink:title=" ">
<polygon fill="none" stroke="black" points="47,-243.5 47,-344.5 165,-344.5 165,-243.5 47,-243.5"/>
<text text-anchor="middle" x="106" y="-332.5" font-family="Helvetica,sans-Serif" font-size="10.00">Instructions::Instruction</text>
<polyline fill="none" stroke="black" points="47,-325.5 165,-325.5 "/>
<text text-anchor="start" x="55" y="-313.5" font-family="Helvetica,sans-Serif" font-size="10.00">+ opcode</text>
<polyline fill="none" stroke="black" points="47,-306.5 165,-306.5 "/>
<text text-anchor="start" x="55" y="-294.5" font-family="Helvetica,sans-Serif" font-size="10.00">+ Instruction()</text>
<text text-anchor="start" x="55" y="-283.5" font-family="Helvetica,sans-Serif" font-size="10.00">+ ~Instruction()</text>
<text text-anchor="start" x="55" y="-272.5" font-family="Helvetica,sans-Serif" font-size="10.00">+ execute()</text>
<text text-anchor="start" x="55" y="-261.5" font-family="Helvetica,sans-Serif" font-size="10.00">+ toBytecode()</text>
<text text-anchor="start" x="55" y="-250.5" font-family="Helvetica,sans-Serif" font-size="10.00">+ toBytecode_json()</text>
</a>
</g>
</g>
<!-- Node2&#45;&gt;Node1 -->
<g id="edge1" class="edge"><title>Node2&#45;&gt;Node1</title>
<path fill="none" stroke="midnightblue" d="M106,-233.232C106,-224.236 106,-215.101 106,-206.516"/>
<polygon fill="none" stroke="midnightblue" points="102.5,-233.291 106,-243.291 109.5,-233.291 102.5,-233.291"/>
</g>
</g>
</svg>
