<?xml version="1.0" encoding="UTF-8" standalone="no"?>
<!DOCTYPE svg PUBLIC "-//W3C//DTD SVG 1.1//EN"
 "http://www.w3.org/Graphics/SVG/1.1/DTD/svg11.dtd">
<!-- Generated by graphviz version 2.38.0 (20140413.2041)
 -->
<!-- Title: Instructions::Long::Rem Pages: 1 -->
<svg width="128pt" height="449pt"
 viewBox="0.00 0.00 128.00 449.00" xmlns="http://www.w3.org/2000/svg" xmlns:xlink="http://www.w3.org/1999/xlink">
<g id="graph0" class="graph" transform="scale(1 1) rotate(0) translate(4 445)">
<title>Instructions::Long::Rem</title>
<!-- Node1 -->
<g id="node1" class="node"><title>Node1</title>
<g id="a_node1"><a xlink:title=" ">
<polygon fill="#bfbfbf" stroke="black" points="0,-0.5 0,-68.5 120,-68.5 120,-0.5 0,-0.5"/>
<text text-anchor="middle" x="60" y="-56.5" font-family="Helvetica,sans-Serif" font-size="10.00">Instructions::Long::Rem</text>
<polyline fill="none" stroke="black" points="0,-49.5 120,-49.5 "/>
<text text-anchor="middle" x="60" y="-37.5" font-family="Helvetica,sans-Serif" font-size="10.00"> </text>
<polyline fill="none" stroke="black" points="0,-30.5 120,-30.5 "/>
<text text-anchor="start" x="8" y="-18.5" font-family="Helvetica,sans-Serif" font-size="10.00">+ Rem()</text>
<text text-anchor="start" x="8" y="-7.5" font-family="Helvetica,sans-Serif" font-size="10.00">+ execute()</text>
</a>
</g>
</g>
<!-- Node2 -->
<g id="node2" class="node"><title>Node2</title>
<g id="a_node2"><a xlink:href="../../da/d32/class_instructions_1_1_long_1_1_base_long.xhtml" target="_top" xlink:title=" ">
<polygon fill="none" stroke="black" points="8,-106.5 8,-196.5 112,-196.5 112,-106.5 8,-106.5"/>
<text text-anchor="start" x="16" y="-184.5" font-family="Helvetica,sans-Serif" font-size="10.00">Instructions::Long</text>
<text text-anchor="middle" x="60" y="-173.5" font-family="Helvetica,sans-Serif" font-size="10.00">::BaseLong</text>
<polyline fill="none" stroke="black" points="8,-166.5 112,-166.5 "/>
<text text-anchor="middle" x="60" y="-154.5" font-family="Helvetica,sans-Serif" font-size="10.00"> </text>
<polyline fill="none" stroke="black" points="8,-147.5 112,-147.5 "/>
<text text-anchor="start" x="16" y="-135.5" font-family="Helvetica,sans-Serif" font-size="10.00">+ BaseLong()</text>
<text text-anchor="start" x="16" y="-124.5" font-family="Helvetica,sans-Serif" font-size="10.00">+ toBytecode()</text>
<text text-anchor="start" x="16" y="-113.5" font-family="Helvetica,sans-Serif" font-size="10.00">+ toBytecode_json()</text>
</a>
</g>
</g>
<!-- Node2&#45;&gt;Node1 -->
<g id="edge1" class="edge"><title>Node2&#45;&gt;Node1</title>
<path fill="none" stroke="midnightblue" d="M60,-96.2309C60,-86.8035 60,-77.2599 60,-68.6181"/>
<polygon fill="none" stroke="midnightblue" points="56.5001,-96.3669 60,-106.367 63.5001,-96.3669 56.5001,-96.3669"/>
</g>
<!-- Node3 -->
<g id="node3" class="node"><title>Node3</title>
<g id="a_node3"><a xlink:href="../../d4/da8/class_instructions_1_1_instruction.xhtml" target="_top" xlink:title=" ">
<polygon fill="none" stroke="black" points="1,-234.5 1,-335.5 119,-335.5 119,-234.5 1,-234.5"/>
<text text-anchor="middle" x="60" y="-323.5" font-family="Helvetica,sans-Serif" font-size="10.00">Instructions::Instruction</text>
<polyline fill="none" stroke="black" points="1,-316.5 119,-316.5 "/>
<text text-anchor="middle" x="60" y="-304.5" font-family="Helvetica,sans-Serif" font-size="10.00"> </text>
<polyline fill="none" stroke="black" points="1,-297.5 119,-297.5 "/>
<text text-anchor="start" x="9" y="-285.5" font-family="Helvetica,sans-Serif" font-size="10.00">+ Instruction()</text>
<text text-anchor="start" x="9" y="-274.5" font-family="Helvetica,sans-Serif" font-size="10.00">+ ~Instruction()</text>
<text text-anchor="start" x="9" y="-263.5" font-family="Helvetica,sans-Serif" font-size="10.00">+ execute()</text>
<text text-anchor="start" x="9" y="-252.5" font-family="Helvetica,sans-Serif" font-size="10.00">+ toBytecode()</text>
<text text-anchor="start" x="9" y="-241.5" font-family="Helvetica,sans-Serif" font-size="10.00">+ toBytecode_json()</text>
</a>
</g>
</g>
<!-- Node3&#45;&gt;Node2 -->
<g id="edge2" class="edge"><title>Node3&#45;&gt;Node2</title>
<path fill="none" stroke="midnightblue" d="M60,-224.001C60,-214.8 60,-205.449 60,-196.673"/>
<polygon fill="none" stroke="midnightblue" points="56.5001,-224.285 60,-234.285 63.5001,-224.286 56.5001,-224.285"/>
</g>
<!-- Node4 -->
<g id="node4" class="node"><title>Node4</title>
<g id="a_node4"><a xlink:title=" ">
<polygon fill="none" stroke="#bfbfbf" points="45.5,-383.5 45.5,-440.5 74.5,-440.5 74.5,-383.5 45.5,-383.5"/>
<text text-anchor="middle" x="60" y="-428.5" font-family="Helvetica,sans-Serif" font-size="10.00">u1</text>
<polyline fill="none" stroke="#bfbfbf" points="45.5,-421.5 74.5,-421.5 "/>
<text text-anchor="middle" x="60" y="-409.5" font-family="Helvetica,sans-Serif" font-size="10.00"> </text>
<polyline fill="none" stroke="#bfbfbf" points="45.5,-402.5 74.5,-402.5 "/>
<text text-anchor="middle" x="60" y="-390.5" font-family="Helvetica,sans-Serif" font-size="10.00"> </text>
</a>
</g>
</g>
<!-- Node4&#45;&gt;Node3 -->
<g id="edge3" class="edge"><title>Node4&#45;&gt;Node3</title>
<path fill="none" stroke="#404040" d="M60,-383.258C60,-372.793 60,-360.422 60,-348.072"/>
<polygon fill="none" stroke="#404040" points="60.0001,-347.802 56,-341.802 60,-335.802 64,-341.802 60.0001,-347.802"/>
<text text-anchor="middle" x="80.5" y="-357" font-family="Helvetica,sans-Serif" font-size="10.00"> +opcode</text>
</g>
</g>
</svg>
