<?xml version="1.0" encoding="UTF-8" standalone="no"?>
<!DOCTYPE svg PUBLIC "-//W3C//DTD SVG 1.1//EN"
 "http://www.w3.org/Graphics/SVG/1.1/DTD/svg11.dtd">
<!-- Generated by graphviz version 2.38.0 (20140413.2041)
 -->
<!-- Title: Instructions::Integer::Inc Pages: 1 -->
<svg width="129pt" height="237pt"
 viewBox="0.00 0.00 129.00 237.00" xmlns="http://www.w3.org/2000/svg" xmlns:xlink="http://www.w3.org/1999/xlink">
<g id="graph0" class="graph" transform="scale(1 1) rotate(0) translate(4 233)">
<title>Instructions::Integer::Inc</title>
<!-- Node1 -->
<g id="node1" class="node"><title>Node1</title>
<g id="a_node1"><a xlink:title=" ">
<polygon fill="#bfbfbf" stroke="black" points="0,-0.5 0,-90.5 121,-90.5 121,-0.5 0,-0.5"/>
<text text-anchor="middle" x="60.5" y="-78.5" font-family="Helvetica,sans-Serif" font-size="10.00">Instructions::Integer::Inc</text>
<polyline fill="none" stroke="black" points="0,-71.5 121,-71.5 "/>
<text text-anchor="middle" x="60.5" y="-59.5" font-family="Helvetica,sans-Serif" font-size="10.00"> </text>
<polyline fill="none" stroke="black" points="0,-52.5 121,-52.5 "/>
<text text-anchor="start" x="8" y="-40.5" font-family="Helvetica,sans-Serif" font-size="10.00">+ Inc()</text>
<text text-anchor="start" x="8" y="-29.5" font-family="Helvetica,sans-Serif" font-size="10.00">+ toBytecode()</text>
<text text-anchor="start" x="8" y="-18.5" font-family="Helvetica,sans-Serif" font-size="10.00">+ toBytecode_json()</text>
<text text-anchor="start" x="8" y="-7.5" font-family="Helvetica,sans-Serif" font-size="10.00">+ execute()</text>
</a>
</g>
</g>
<!-- Node2 -->
<g id="node2" class="node"><title>Node2</title>
<g id="a_node2"><a xlink:href="../../d4/da8/class_instructions_1_1_instruction.xhtml" target="_top" xlink:title=" ">
<polygon fill="none" stroke="black" points="1.5,-127.5 1.5,-228.5 119.5,-228.5 119.5,-127.5 1.5,-127.5"/>
<text text-anchor="middle" x="60.5" y="-216.5" font-family="Helvetica,sans-Serif" font-size="10.00">Instructions::Instruction</text>
<polyline fill="none" stroke="black" points="1.5,-209.5 119.5,-209.5 "/>
<text text-anchor="start" x="9.5" y="-197.5" font-family="Helvetica,sans-Serif" font-size="10.00">+ opcode</text>
<polyline fill="none" stroke="black" points="1.5,-190.5 119.5,-190.5 "/>
<text text-anchor="start" x="9.5" y="-178.5" font-family="Helvetica,sans-Serif" font-size="10.00">+ Instruction()</text>
<text text-anchor="start" x="9.5" y="-167.5" font-family="Helvetica,sans-Serif" font-size="10.00">+ ~Instruction()</text>
<text text-anchor="start" x="9.5" y="-156.5" font-family="Helvetica,sans-Serif" font-size="10.00">+ execute()</text>
<text text-anchor="start" x="9.5" y="-145.5" font-family="Helvetica,sans-Serif" font-size="10.00">+ toBytecode()</text>
<text text-anchor="start" x="9.5" y="-134.5" font-family="Helvetica,sans-Serif" font-size="10.00">+ toBytecode_json()</text>
</a>
</g>
</g>
<!-- Node2&#45;&gt;Node1 -->
<g id="edge1" class="edge"><title>Node2&#45;&gt;Node1</title>
<path fill="none" stroke="midnightblue" d="M60.5,-117.232C60.5,-108.236 60.5,-99.1012 60.5,-90.5165"/>
<polygon fill="none" stroke="midnightblue" points="57.0001,-117.291 60.5,-127.291 64.0001,-117.291 57.0001,-117.291"/>
</g>
</g>
</svg>
