<?xml version="1.0" encoding="UTF-8" standalone="no"?>
<!DOCTYPE svg PUBLIC "-//W3C//DTD SVG 1.1//EN"
 "http://www.w3.org/Graphics/SVG/1.1/DTD/svg11.dtd">
<!-- Generated by graphviz version 2.38.0 (20140413.2041)
 -->
<!-- Title: Utils::MultiArray_t Pages: 1 -->
<svg width="103pt" height="248pt"
 viewBox="0.00 0.00 103.00 248.00" xmlns="http://www.w3.org/2000/svg" xmlns:xlink="http://www.w3.org/1999/xlink">
<g id="graph0" class="graph" transform="scale(1 1) rotate(0) translate(4 244)">
<title>Utils::MultiArray_t</title>
<!-- Node1 -->
<g id="node1" class="node"><title>Node1</title>
<g id="a_node1"><a xlink:title=" ">
<polygon fill="#bfbfbf" stroke="black" points="0,-0.5 0,-68.5 95,-68.5 95,-0.5 0,-0.5"/>
<text text-anchor="middle" x="47.5" y="-56.5" font-family="Helvetica,sans-Serif" font-size="10.00">Utils::MultiArray_t</text>
<polyline fill="none" stroke="black" points="0,-49.5 95,-49.5 "/>
<text text-anchor="middle" x="47.5" y="-37.5" font-family="Helvetica,sans-Serif" font-size="10.00"> </text>
<polyline fill="none" stroke="black" points="0,-30.5 95,-30.5 "/>
<text text-anchor="start" x="8" y="-18.5" font-family="Helvetica,sans-Serif" font-size="10.00">+ MultiArray_t()</text>
<text text-anchor="start" x="8" y="-7.5" font-family="Helvetica,sans-Serif" font-size="10.00">+ ~MultiArray_t()</text>
</a>
</g>
</g>
<!-- Node2 -->
<g id="node2" class="node"><title>Node2</title>
<g id="a_node2"><a xlink:href="../../d5/d7c/class_utils_1_1_array__t.xhtml" target="_top" xlink:title=" ">
<polygon fill="none" stroke="black" points="3.5,-116.5 3.5,-239.5 91.5,-239.5 91.5,-116.5 3.5,-116.5"/>
<text text-anchor="middle" x="47.5" y="-227.5" font-family="Helvetica,sans-Serif" font-size="10.00">Utils::Array_t</text>
<polyline fill="none" stroke="black" points="3.5,-220.5 91.5,-220.5 "/>
<text text-anchor="middle" x="47.5" y="-208.5" font-family="Helvetica,sans-Serif" font-size="10.00"> </text>
<polyline fill="none" stroke="black" points="3.5,-201.5 91.5,-201.5 "/>
<text text-anchor="start" x="11.5" y="-189.5" font-family="Helvetica,sans-Serif" font-size="10.00">+ Array_t()</text>
<text text-anchor="start" x="11.5" y="-178.5" font-family="Helvetica,sans-Serif" font-size="10.00">+ Array_t()</text>
<text text-anchor="start" x="11.5" y="-167.5" font-family="Helvetica,sans-Serif" font-size="10.00">+ ~Array_t()</text>
<text text-anchor="start" x="11.5" y="-156.5" font-family="Helvetica,sans-Serif" font-size="10.00">+ insert()</text>
<text text-anchor="start" x="11.5" y="-145.5" font-family="Helvetica,sans-Serif" font-size="10.00">+ length()</text>
<text text-anchor="start" x="11.5" y="-134.5" font-family="Helvetica,sans-Serif" font-size="10.00">+ get()</text>
<text text-anchor="start" x="11.5" y="-123.5" font-family="Helvetica,sans-Serif" font-size="10.00">+ getCollection()</text>
</a>
</g>
</g>
<!-- Node2&#45;&gt;Node1 -->
<g id="edge1" class="edge"><title>Node2&#45;&gt;Node1</title>
<path fill="none" stroke="#404040" d="M47.5,-116.17C47.5,-104.306 47.5,-92.0619 47.5,-80.8086"/>
<polygon fill="none" stroke="#404040" points="47.5001,-80.5973 43.5,-74.5973 47.5,-68.5973 51.5,-74.5973 47.5001,-80.5973"/>
<text text-anchor="middle" x="66" y="-90" font-family="Helvetica,sans-Serif" font-size="10.00"> +arrays</text>
</g>
</g>
</svg>
