<?xml version="1.0" encoding="UTF-8" standalone="no"?>
<!DOCTYPE svg PUBLIC "-//W3C//DTD SVG 1.1//EN"
 "http://www.w3.org/Graphics/SVG/1.1/DTD/svg11.dtd">
<!-- Generated by graphviz version 2.38.0 (20140413.2041)
 -->
<!-- Title: Utils::Field_t::~Field_t Pages: 1 -->
<svg width="207pt" height="66pt"
 viewBox="0.00 0.00 207.00 66.00" xmlns="http://www.w3.org/2000/svg" xmlns:xlink="http://www.w3.org/1999/xlink">
<g id="graph0" class="graph" transform="scale(1 1) rotate(0) translate(4 62)">
<title>Utils::Field_t::~Field_t</title>
<!-- Node1 -->
<g id="node1" class="node"><title>Node1</title>
<g id="a_node1"><a xlink:title=" ">
<polygon fill="#bfbfbf" stroke="black" points="0,-19.5 0,-38.5 113,-38.5 113,-19.5 0,-19.5"/>
<text text-anchor="middle" x="56.5" y="-26.5" font-family="Helvetica,sans-Serif" font-size="10.00">Utils::Field_t::~Field_t</text>
</a>
</g>
</g>
<!-- Node2 -->
<g id="node2" class="node"><title>Node2</title>
<g id="a_node2"><a xlink:href="../../db/da7/struct_any.xhtml#a9f8f21b5fb83040297ecd19b40c471cd" target="_top" xlink:title=" ">
<polygon fill="none" stroke="black" points="149,-38.5 149,-57.5 199,-57.5 199,-38.5 149,-38.5"/>
<text text-anchor="middle" x="174" y="-45.5" font-family="Helvetica,sans-Serif" font-size="10.00">Any::as</text>
</a>
</g>
</g>
<!-- Node1&#45;&gt;Node2 -->
<g id="edge1" class="edge"><title>Node1&#45;&gt;Node2</title>
<path fill="none" stroke="midnightblue" d="M113.22,-38.1661C121.964,-39.6045 130.77,-41.0531 138.835,-42.3798"/>
<polygon fill="midnightblue" stroke="midnightblue" points="138.508,-45.8729 148.943,-44.0426 139.644,-38.9658 138.508,-45.8729"/>
</g>
<!-- Node3 -->
<g id="node3" class="node"><title>Node3</title>
<g id="a_node3"><a xlink:href="../../db/da7/struct_any.xhtml#a518bb467847983d8e5563460f64e44c6" target="_top" xlink:title=" ">
<polygon fill="none" stroke="black" points="150.5,-0.5 150.5,-19.5 197.5,-19.5 197.5,-0.5 150.5,-0.5"/>
<text text-anchor="middle" x="174" y="-7.5" font-family="Helvetica,sans-Serif" font-size="10.00">Any::is</text>
</a>
</g>
</g>
<!-- Node1&#45;&gt;Node3 -->
<g id="edge2" class="edge"><title>Node1&#45;&gt;Node3</title>
<path fill="none" stroke="midnightblue" d="M113.22,-19.8339C122.468,-18.3126 131.785,-16.7799 140.222,-15.392"/>
<polygon fill="midnightblue" stroke="midnightblue" points="141.067,-18.8002 150.366,-13.7233 139.93,-11.893 141.067,-18.8002"/>
</g>
</g>
</svg>
