<?xml version="1.0" encoding="UTF-8" standalone="no"?>
<!DOCTYPE svg PUBLIC "-//W3C//DTD SVG 1.1//EN"
 "http://www.w3.org/Graphics/SVG/1.1/DTD/svg11.dtd">
<!-- Generated by graphviz version 2.38.0 (20140413.2041)
 -->
<!-- Title: Instructions::Branch::IntegerCompareLessThan Pages: 1 -->
<svg width="150pt" height="460pt"
 viewBox="0.00 0.00 150.00 460.00" xmlns="http://www.w3.org/2000/svg" xmlns:xlink="http://www.w3.org/1999/xlink">
<g id="graph0" class="graph" transform="scale(1 1) rotate(0) translate(4 456)">
<title>Instructions::Branch::IntegerCompareLessThan</title>
<!-- Node1 -->
<g id="node1" class="node"><title>Node1</title>
<g id="a_node1"><a xlink:title=" ">
<polygon fill="#bfbfbf" stroke="black" points="0,-0.5 0,-79.5 142,-79.5 142,-0.5 0,-0.5"/>
<text text-anchor="start" x="8" y="-67.5" font-family="Helvetica,sans-Serif" font-size="10.00">Instructions::Branch</text>
<text text-anchor="middle" x="71" y="-56.5" font-family="Helvetica,sans-Serif" font-size="10.00">::IntegerCompareLessThan</text>
<polyline fill="none" stroke="black" points="0,-49.5 142,-49.5 "/>
<text text-anchor="middle" x="71" y="-37.5" font-family="Helvetica,sans-Serif" font-size="10.00"> </text>
<polyline fill="none" stroke="black" points="0,-30.5 142,-30.5 "/>
<text text-anchor="start" x="8" y="-18.5" font-family="Helvetica,sans-Serif" font-size="10.00">+ IntegerCompareLessThan()</text>
<text text-anchor="start" x="8" y="-7.5" font-family="Helvetica,sans-Serif" font-size="10.00">+ execute()</text>
</a>
</g>
</g>
<!-- Node2 -->
<g id="node2" class="node"><title>Node2</title>
<g id="a_node2"><a xlink:href="../../d7/d51/class_instructions_1_1_branch_1_1_base_branch.xhtml" target="_top" xlink:title=" ">
<polygon fill="none" stroke="black" points="19,-117.5 19,-207.5 123,-207.5 123,-117.5 19,-117.5"/>
<text text-anchor="start" x="27" y="-195.5" font-family="Helvetica,sans-Serif" font-size="10.00">Instructions::Branch</text>
<text text-anchor="middle" x="71" y="-184.5" font-family="Helvetica,sans-Serif" font-size="10.00">::BaseBranch</text>
<polyline fill="none" stroke="black" points="19,-177.5 123,-177.5 "/>
<text text-anchor="middle" x="71" y="-165.5" font-family="Helvetica,sans-Serif" font-size="10.00"> </text>
<polyline fill="none" stroke="black" points="19,-158.5 123,-158.5 "/>
<text text-anchor="start" x="27" y="-146.5" font-family="Helvetica,sans-Serif" font-size="10.00">+ BaseBranch()</text>
<text text-anchor="start" x="27" y="-135.5" font-family="Helvetica,sans-Serif" font-size="10.00">+ toBytecode()</text>
<text text-anchor="start" x="27" y="-124.5" font-family="Helvetica,sans-Serif" font-size="10.00">+ toBytecode_json()</text>
</a>
</g>
</g>
<!-- Node2&#45;&gt;Node1 -->
<g id="edge1" class="edge"><title>Node2&#45;&gt;Node1</title>
<path fill="none" stroke="midnightblue" d="M71,-107.303C71,-97.966 71,-88.4333 71,-79.6138"/>
<polygon fill="none" stroke="midnightblue" points="67.5001,-107.314 71,-117.314 74.5001,-107.315 67.5001,-107.314"/>
</g>
<!-- Node3 -->
<g id="node3" class="node"><title>Node3</title>
<g id="a_node3"><a xlink:href="../../d4/da8/class_instructions_1_1_instruction.xhtml" target="_top" xlink:title=" ">
<polygon fill="none" stroke="black" points="12,-245.5 12,-346.5 130,-346.5 130,-245.5 12,-245.5"/>
<text text-anchor="middle" x="71" y="-334.5" font-family="Helvetica,sans-Serif" font-size="10.00">Instructions::Instruction</text>
<polyline fill="none" stroke="black" points="12,-327.5 130,-327.5 "/>
<text text-anchor="middle" x="71" y="-315.5" font-family="Helvetica,sans-Serif" font-size="10.00"> </text>
<polyline fill="none" stroke="black" points="12,-308.5 130,-308.5 "/>
<text text-anchor="start" x="20" y="-296.5" font-family="Helvetica,sans-Serif" font-size="10.00">+ Instruction()</text>
<text text-anchor="start" x="20" y="-285.5" font-family="Helvetica,sans-Serif" font-size="10.00">+ ~Instruction()</text>
<text text-anchor="start" x="20" y="-274.5" font-family="Helvetica,sans-Serif" font-size="10.00">+ execute()</text>
<text text-anchor="start" x="20" y="-263.5" font-family="Helvetica,sans-Serif" font-size="10.00">+ toBytecode()</text>
<text text-anchor="start" x="20" y="-252.5" font-family="Helvetica,sans-Serif" font-size="10.00">+ toBytecode_json()</text>
</a>
</g>
</g>
<!-- Node3&#45;&gt;Node2 -->
<g id="edge2" class="edge"><title>Node3&#45;&gt;Node2</title>
<path fill="none" stroke="midnightblue" d="M71,-235.001C71,-225.8 71,-216.449 71,-207.673"/>
<polygon fill="none" stroke="midnightblue" points="67.5001,-235.285 71,-245.285 74.5001,-235.286 67.5001,-235.285"/>
</g>
<!-- Node4 -->
<g id="node4" class="node"><title>Node4</title>
<g id="a_node4"><a xlink:title=" ">
<polygon fill="none" stroke="#bfbfbf" points="56.5,-394.5 56.5,-451.5 85.5,-451.5 85.5,-394.5 56.5,-394.5"/>
<text text-anchor="middle" x="71" y="-439.5" font-family="Helvetica,sans-Serif" font-size="10.00">u1</text>
<polyline fill="none" stroke="#bfbfbf" points="56.5,-432.5 85.5,-432.5 "/>
<text text-anchor="middle" x="71" y="-420.5" font-family="Helvetica,sans-Serif" font-size="10.00"> </text>
<polyline fill="none" stroke="#bfbfbf" points="56.5,-413.5 85.5,-413.5 "/>
<text text-anchor="middle" x="71" y="-401.5" font-family="Helvetica,sans-Serif" font-size="10.00"> </text>
</a>
</g>
</g>
<!-- Node4&#45;&gt;Node3 -->
<g id="edge3" class="edge"><title>Node4&#45;&gt;Node3</title>
<path fill="none" stroke="#404040" d="M71,-394.258C71,-383.793 71,-371.422 71,-359.072"/>
<polygon fill="none" stroke="#404040" points="71.0001,-358.802 67,-352.802 71,-346.802 75,-352.802 71.0001,-358.802"/>
<text text-anchor="middle" x="91.5" y="-368" font-family="Helvetica,sans-Serif" font-size="10.00"> +opcode</text>
</g>
</g>
</svg>
