<?xml version="1.0" encoding="UTF-8" standalone="no"?>
<!DOCTYPE svg PUBLIC "-//W3C//DTD SVG 1.1//EN"
 "http://www.w3.org/Graphics/SVG/1.1/DTD/svg11.dtd">
<!-- Generated by graphviz version 2.38.0 (20140413.2041)
 -->
<!-- Title: Graphical Class Hierarchy Pages: 1 -->
<svg width="525pt" height="627pt"
 viewBox="0.00 0.00 525.00 627.00" xmlns="http://www.w3.org/2000/svg" xmlns:xlink="http://www.w3.org/1999/xlink">
<g id="graph0" class="graph" transform="scale(1 1) rotate(0) translate(4 623)">
<title>Graphical Class Hierarchy</title>
<!-- Node0 -->
<g id="node1" class="node"><title>Node0</title>
<g id="a_node1"><a xlink:href="d7/d7d/class_utils_1_1_constant_pool_1_1_base_constant_info.xhtml" target="_top" xlink:title=" ">
<polygon fill="none" stroke="black" points="0,-269.5 0,-299.5 101,-299.5 101,-269.5 0,-269.5"/>
<text text-anchor="start" x="8" y="-287.5" font-family="Helvetica,sans-Serif" font-size="10.00">Utils::ConstantPool</text>
<text text-anchor="middle" x="50.5" y="-276.5" font-family="Helvetica,sans-Serif" font-size="10.00">::BaseConstantInfo</text>
</a>
</g>
</g>
<!-- Node1 -->
<g id="node2" class="node"><title>Node1</title>
<g id="a_node2"><a xlink:href="da/de3/class_utils_1_1_constant_pool_1_1_base_reference.xhtml" target="_top" xlink:title=" ">
<polygon fill="none" stroke="black" points="169,-539.5 169,-569.5 270,-569.5 270,-539.5 169,-539.5"/>
<text text-anchor="start" x="177" y="-557.5" font-family="Helvetica,sans-Serif" font-size="10.00">Utils::ConstantPool</text>
<text text-anchor="middle" x="219.5" y="-546.5" font-family="Helvetica,sans-Serif" font-size="10.00">::BaseReference</text>
</a>
</g>
</g>
<!-- Node0&#45;&gt;Node1 -->
<g id="edge1" class="edge"><title>Node0&#45;&gt;Node1</title>
<path fill="none" stroke="midnightblue" d="M52.9226,-309.916C57.0907,-359.57 73.4017,-469.89 137,-530.5 145.756,-538.844 157.264,-544.305 168.864,-547.874"/>
<polygon fill="midnightblue" stroke="midnightblue" points="56.3981,-309.453 52.1701,-299.739 49.4171,-309.969 56.3981,-309.453"/>
</g>
<!-- Node5 -->
<g id="node6" class="node"><title>Node5</title>
<g id="a_node6"><a xlink:href="d3/de2/class_utils_1_1_constant_pool_1_1_c_o_n_s_t_a_n_t___class__info.xhtml" target="_top" xlink:title=" ">
<polygon fill="none" stroke="black" points="157,-490.5 157,-520.5 282,-520.5 282,-490.5 157,-490.5"/>
<text text-anchor="start" x="165" y="-508.5" font-family="Helvetica,sans-Serif" font-size="10.00">Utils::ConstantPool</text>
<text text-anchor="middle" x="219.5" y="-497.5" font-family="Helvetica,sans-Serif" font-size="10.00">::CONSTANT_Class_info</text>
</a>
</g>
</g>
<!-- Node0&#45;&gt;Node5 -->
<g id="edge5" class="edge"><title>Node0&#45;&gt;Node5</title>
<path fill="none" stroke="midnightblue" d="M55.3751,-309.52C63.1715,-351.31 84.7042,-435.275 137,-481.5 142.747,-486.58 149.522,-490.586 156.67,-493.745"/>
<polygon fill="midnightblue" stroke="midnightblue" points="58.8136,-308.863 53.6402,-299.618 51.9186,-310.072 58.8136,-308.863"/>
</g>
<!-- Node6 -->
<g id="node7" class="node"><title>Node6</title>
<g id="a_node7"><a xlink:href="db/de7/class_utils_1_1_constant_pool_1_1_c_o_n_s_t_a_n_t___double__info.xhtml" target="_top" xlink:title=" ">
<polygon fill="none" stroke="black" points="154.5,-441.5 154.5,-471.5 284.5,-471.5 284.5,-441.5 154.5,-441.5"/>
<text text-anchor="start" x="162.5" y="-459.5" font-family="Helvetica,sans-Serif" font-size="10.00">Utils::ConstantPool</text>
<text text-anchor="middle" x="219.5" y="-448.5" font-family="Helvetica,sans-Serif" font-size="10.00">::CONSTANT_Double_info</text>
</a>
</g>
</g>
<!-- Node0&#45;&gt;Node6 -->
<g id="edge6" class="edge"><title>Node0&#45;&gt;Node6</title>
<path fill="none" stroke="midnightblue" d="M59.3142,-309.389C70.9476,-342.391 95.9659,-400.213 137,-432.5 142.216,-436.604 148.117,-440.007 154.301,-442.829"/>
<polygon fill="midnightblue" stroke="midnightblue" points="62.5256,-307.96 56.0041,-299.61 55.8952,-310.204 62.5256,-307.96"/>
</g>
<!-- Node7 -->
<g id="node8" class="node"><title>Node7</title>
<g id="a_node8"><a xlink:href="d7/dab/class_utils_1_1_constant_pool_1_1_c_o_n_s_t_a_n_t___float__info.xhtml" target="_top" xlink:title=" ">
<polygon fill="none" stroke="black" points="158.5,-392.5 158.5,-422.5 280.5,-422.5 280.5,-392.5 158.5,-392.5"/>
<text text-anchor="start" x="166.5" y="-410.5" font-family="Helvetica,sans-Serif" font-size="10.00">Utils::ConstantPool</text>
<text text-anchor="middle" x="219.5" y="-399.5" font-family="Helvetica,sans-Serif" font-size="10.00">::CONSTANT_Float_info</text>
</a>
</g>
</g>
<!-- Node0&#45;&gt;Node7 -->
<g id="edge7" class="edge"><title>Node0&#45;&gt;Node7</title>
<path fill="none" stroke="midnightblue" d="M66.1773,-308.285C81.2728,-330.823 106.799,-364.039 137,-383.5 143.571,-387.734 150.915,-391.244 158.43,-394.148"/>
<polygon fill="midnightblue" stroke="midnightblue" points="68.9376,-306.11 60.5469,-299.641 63.0722,-309.93 68.9376,-306.11"/>
</g>
<!-- Node8 -->
<g id="node9" class="node"><title>Node8</title>
<g id="a_node9"><a xlink:href="dd/d38/class_utils_1_1_constant_pool_1_1_c_o_n_s_t_a_n_t___integer__info.xhtml" target="_top" xlink:title=" ">
<polygon fill="none" stroke="black" points="155,-343.5 155,-373.5 284,-373.5 284,-343.5 155,-343.5"/>
<text text-anchor="start" x="163" y="-361.5" font-family="Helvetica,sans-Serif" font-size="10.00">Utils::ConstantPool</text>
<text text-anchor="middle" x="219.5" y="-350.5" font-family="Helvetica,sans-Serif" font-size="10.00">::CONSTANT_Integer_info</text>
</a>
</g>
</g>
<!-- Node0&#45;&gt;Node8 -->
<g id="edge8" class="edge"><title>Node0&#45;&gt;Node8</title>
<path fill="none" stroke="midnightblue" d="M82.7302,-305.234C98.5182,-315.067 118.262,-326.405 137,-334.5 144.583,-337.776 152.748,-340.767 160.878,-343.441"/>
<polygon fill="midnightblue" stroke="midnightblue" points="84.2488,-302.053 73.929,-299.654 80.5006,-307.965 84.2488,-302.053"/>
</g>
<!-- Node9 -->
<g id="node10" class="node"><title>Node9</title>
<g id="a_node10"><a xlink:href="dc/d23/class_utils_1_1_constant_pool_1_1_c_o_n_s_t_a_n_t___invoke_dynamic__info.xhtml" target="_top" xlink:title=" ">
<polygon fill="none" stroke="black" points="137,-294.5 137,-324.5 302,-324.5 302,-294.5 137,-294.5"/>
<text text-anchor="start" x="145" y="-312.5" font-family="Helvetica,sans-Serif" font-size="10.00">Utils::ConstantPool</text>
<text text-anchor="middle" x="219.5" y="-301.5" font-family="Helvetica,sans-Serif" font-size="10.00">::CONSTANT_InvokeDynamic_info</text>
</a>
</g>
</g>
<!-- Node0&#45;&gt;Node9 -->
<g id="edge9" class="edge"><title>Node0&#45;&gt;Node9</title>
<path fill="none" stroke="midnightblue" d="M111.131,-293.427C119.472,-294.675 128.16,-295.976 136.822,-297.273"/>
<polygon fill="midnightblue" stroke="midnightblue" points="111.561,-289.952 101.153,-291.933 110.525,-296.875 111.561,-289.952"/>
</g>
<!-- Node10 -->
<g id="node11" class="node"><title>Node10</title>
<g id="a_node11"><a xlink:href="d5/dd3/class_utils_1_1_constant_pool_1_1_c_o_n_s_t_a_n_t___long__info.xhtml" target="_top" xlink:title=" ">
<polygon fill="none" stroke="black" points="159,-245.5 159,-275.5 280,-275.5 280,-245.5 159,-245.5"/>
<text text-anchor="start" x="167" y="-263.5" font-family="Helvetica,sans-Serif" font-size="10.00">Utils::ConstantPool</text>
<text text-anchor="middle" x="219.5" y="-252.5" font-family="Helvetica,sans-Serif" font-size="10.00">::CONSTANT_Long_info</text>
</a>
</g>
</g>
<!-- Node0&#45;&gt;Node10 -->
<g id="edge10" class="edge"><title>Node0&#45;&gt;Node10</title>
<path fill="none" stroke="midnightblue" d="M111.119,-275.932C126.583,-273.71 143.241,-271.316 158.714,-269.092"/>
<polygon fill="midnightblue" stroke="midnightblue" points="110.554,-272.477 101.153,-277.364 111.55,-279.406 110.554,-272.477"/>
</g>
<!-- Node11 -->
<g id="node12" class="node"><title>Node11</title>
<g id="a_node12"><a xlink:href="dd/d58/class_utils_1_1_constant_pool_1_1_c_o_n_s_t_a_n_t___method_handle__info.xhtml" target="_top" xlink:title=" ">
<polygon fill="none" stroke="black" points="138.5,-196.5 138.5,-226.5 300.5,-226.5 300.5,-196.5 138.5,-196.5"/>
<text text-anchor="start" x="146.5" y="-214.5" font-family="Helvetica,sans-Serif" font-size="10.00">Utils::ConstantPool</text>
<text text-anchor="middle" x="219.5" y="-203.5" font-family="Helvetica,sans-Serif" font-size="10.00">::CONSTANT_MethodHandle_info</text>
</a>
</g>
</g>
<!-- Node0&#45;&gt;Node11 -->
<g id="edge11" class="edge"><title>Node0&#45;&gt;Node11</title>
<path fill="none" stroke="midnightblue" d="M83.8786,-264.156C99.526,-254.893 118.817,-244.286 137,-236.5 145.435,-232.888 154.565,-229.559 163.558,-226.588"/>
<polygon fill="midnightblue" stroke="midnightblue" points="81.8876,-261.269 75.1226,-269.423 85.4959,-267.267 81.8876,-261.269"/>
</g>
<!-- Node12 -->
<g id="node13" class="node"><title>Node12</title>
<g id="a_node13"><a xlink:href="d8/dae/class_utils_1_1_constant_pool_1_1_c_o_n_s_t_a_n_t___method_type__info.xhtml" target="_top" xlink:title=" ">
<polygon fill="none" stroke="black" points="143,-147.5 143,-177.5 296,-177.5 296,-147.5 143,-147.5"/>
<text text-anchor="start" x="151" y="-165.5" font-family="Helvetica,sans-Serif" font-size="10.00">Utils::ConstantPool</text>
<text text-anchor="middle" x="219.5" y="-154.5" font-family="Helvetica,sans-Serif" font-size="10.00">::CONSTANT_MethodType_info</text>
</a>
</g>
</g>
<!-- Node0&#45;&gt;Node12 -->
<g id="edge12" class="edge"><title>Node0&#45;&gt;Node12</title>
<path fill="none" stroke="midnightblue" d="M66.5889,-260.909C81.8317,-238.894 107.324,-206.647 137,-187.5 142.969,-183.649 149.566,-180.363 156.343,-177.565"/>
<polygon fill="midnightblue" stroke="midnightblue" points="63.5762,-259.117 60.8881,-269.365 69.3803,-263.03 63.5762,-259.117"/>
</g>
<!-- Node13 -->
<g id="node14" class="node"><title>Node13</title>
<g id="a_node14"><a xlink:href="d2/d46/class_utils_1_1_constant_pool_1_1_c_o_n_s_t_a_n_t___name_and_type__info.xhtml" target="_top" xlink:title=" ">
<polygon fill="none" stroke="black" points="137.5,-98.5 137.5,-128.5 301.5,-128.5 301.5,-98.5 137.5,-98.5"/>
<text text-anchor="start" x="145.5" y="-116.5" font-family="Helvetica,sans-Serif" font-size="10.00">Utils::ConstantPool</text>
<text text-anchor="middle" x="219.5" y="-105.5" font-family="Helvetica,sans-Serif" font-size="10.00">::CONSTANT_NameAndType_info</text>
</a>
</g>
</g>
<!-- Node0&#45;&gt;Node13 -->
<g id="edge13" class="edge"><title>Node0&#45;&gt;Node13</title>
<path fill="none" stroke="midnightblue" d="M59.6436,-259.51C71.5195,-226.944 96.6743,-170.404 137,-138.5 141.875,-134.643 147.344,-131.379 153.081,-128.617"/>
<polygon fill="midnightblue" stroke="midnightblue" points="56.2593,-258.584 56.252,-269.179 62.8647,-260.901 56.2593,-258.584"/>
</g>
<!-- Node14 -->
<g id="node15" class="node"><title>Node14</title>
<g id="a_node15"><a xlink:href="d3/d4a/class_utils_1_1_constant_pool_1_1_c_o_n_s_t_a_n_t___string__info.xhtml" target="_top" xlink:title=" ">
<polygon fill="none" stroke="black" points="157,-49.5 157,-79.5 282,-79.5 282,-49.5 157,-49.5"/>
<text text-anchor="start" x="165" y="-67.5" font-family="Helvetica,sans-Serif" font-size="10.00">Utils::ConstantPool</text>
<text text-anchor="middle" x="219.5" y="-56.5" font-family="Helvetica,sans-Serif" font-size="10.00">::CONSTANT_String_info</text>
</a>
</g>
</g>
<!-- Node0&#45;&gt;Node14 -->
<g id="edge14" class="edge"><title>Node0&#45;&gt;Node14</title>
<path fill="none" stroke="midnightblue" d="M55.6198,-259.224C63.7045,-217.754 85.5595,-135.314 137,-89.5 142.747,-84.3815 149.522,-80.3109 156.67,-77.0737"/>
<polygon fill="midnightblue" stroke="midnightblue" points="52.1325,-258.837 53.7711,-269.304 59.0177,-260.099 52.1325,-258.837"/>
</g>
<!-- Node15 -->
<g id="node16" class="node"><title>Node15</title>
<g id="a_node16"><a xlink:href="d5/d71/class_utils_1_1_constant_pool_1_1_c_o_n_s_t_a_n_t___utf8__info.xhtml" target="_top" xlink:title=" ">
<polygon fill="none" stroke="black" points="161,-0.5 161,-30.5 278,-30.5 278,-0.5 161,-0.5"/>
<text text-anchor="start" x="169" y="-18.5" font-family="Helvetica,sans-Serif" font-size="10.00">Utils::ConstantPool</text>
<text text-anchor="middle" x="219.5" y="-7.5" font-family="Helvetica,sans-Serif" font-size="10.00">::CONSTANT_Utf8_info</text>
</a>
</g>
</g>
<!-- Node0&#45;&gt;Node15 -->
<g id="edge15" class="edge"><title>Node0&#45;&gt;Node15</title>
<path fill="none" stroke="midnightblue" d="M52.9562,-259.185C57.1834,-209.729 73.5941,-99.8496 137,-39.5 143.731,-33.0934 152.085,-28.3866 160.855,-24.9309"/>
<polygon fill="midnightblue" stroke="midnightblue" points="49.4537,-259.087 52.191,-269.322 56.4339,-259.614 49.4537,-259.087"/>
</g>
<!-- Node2 -->
<g id="node3" class="node"><title>Node2</title>
<g id="a_node3"><a xlink:href="d8/d68/class_utils_1_1_constant_pool_1_1_c_o_n_s_t_a_n_t___field_ref__info.xhtml" target="_top" xlink:title=" ">
<polygon fill="none" stroke="black" points="360,-588.5 360,-618.5 495,-618.5 495,-588.5 360,-588.5"/>
<text text-anchor="start" x="368" y="-606.5" font-family="Helvetica,sans-Serif" font-size="10.00">Utils::ConstantPool</text>
<text text-anchor="middle" x="427.5" y="-595.5" font-family="Helvetica,sans-Serif" font-size="10.00">::CONSTANT_FieldRef_info</text>
</a>
</g>
</g>
<!-- Node1&#45;&gt;Node2 -->
<g id="edge2" class="edge"><title>Node1&#45;&gt;Node2</title>
<path fill="none" stroke="midnightblue" d="M279.874,-568.623C305.998,-574.837 336.716,-582.144 363.269,-588.46"/>
<polygon fill="midnightblue" stroke="midnightblue" points="280.643,-565.208 270.104,-566.299 279.023,-572.018 280.643,-565.208"/>
</g>
<!-- Node3 -->
<g id="node4" class="node"><title>Node3</title>
<g id="a_node4"><a xlink:href="d4/d69/class_utils_1_1_constant_pool_1_1_c_o_n_s_t_a_n_t___interface_methodref__info.xhtml" target="_top" xlink:title=" ">
<polygon fill="none" stroke="black" points="338,-539.5 338,-569.5 517,-569.5 517,-539.5 338,-539.5"/>
<text text-anchor="start" x="346" y="-557.5" font-family="Helvetica,sans-Serif" font-size="10.00">Utils::ConstantPool</text>
<text text-anchor="middle" x="427.5" y="-546.5" font-family="Helvetica,sans-Serif" font-size="10.00">::CONSTANT_InterfaceMethodref_info</text>
</a>
</g>
</g>
<!-- Node1&#45;&gt;Node3 -->
<g id="edge3" class="edge"><title>Node1&#45;&gt;Node3</title>
<path fill="none" stroke="midnightblue" d="M280.162,-554.5C298.19,-554.5 318.385,-554.5 337.878,-554.5"/>
<polygon fill="midnightblue" stroke="midnightblue" points="280.104,-551 270.104,-554.5 280.104,-558 280.104,-551"/>
</g>
<!-- Node4 -->
<g id="node5" class="node"><title>Node4</title>
<g id="a_node5"><a xlink:href="d3/dbc/class_utils_1_1_constant_pool_1_1_c_o_n_s_t_a_n_t___methodref__info.xhtml" target="_top" xlink:title=" ">
<polygon fill="none" stroke="black" points="356,-490.5 356,-520.5 499,-520.5 499,-490.5 356,-490.5"/>
<text text-anchor="start" x="364" y="-508.5" font-family="Helvetica,sans-Serif" font-size="10.00">Utils::ConstantPool</text>
<text text-anchor="middle" x="427.5" y="-497.5" font-family="Helvetica,sans-Serif" font-size="10.00">::CONSTANT_Methodref_info</text>
</a>
</g>
</g>
<!-- Node1&#45;&gt;Node4 -->
<g id="edge4" class="edge"><title>Node1&#45;&gt;Node4</title>
<path fill="none" stroke="midnightblue" d="M279.874,-540.377C305.998,-534.163 336.716,-526.856 363.269,-520.54"/>
<polygon fill="midnightblue" stroke="midnightblue" points="279.023,-536.982 270.104,-542.701 280.643,-543.792 279.023,-536.982"/>
</g>
</g>
</svg>
