<?xml version="1.0" encoding="UTF-8" standalone="no"?>
<!DOCTYPE svg PUBLIC "-//W3C//DTD SVG 1.1//EN"
 "http://www.w3.org/Graphics/SVG/1.1/DTD/svg11.dtd">
<!-- Generated by graphviz version 2.38.0 (20140413.2041)
 -->
<!-- Title: Graphical Class Hierarchy Pages: 1 -->
<svg width="274pt" height="798pt"
 viewBox="0.00 0.00 274.00 798.00" xmlns="http://www.w3.org/2000/svg" xmlns:xlink="http://www.w3.org/1999/xlink">
<g id="graph0" class="graph" transform="scale(1 1) rotate(0) translate(4 794)">
<title>Graphical Class Hierarchy</title>
<!-- Node0 -->
<g id="node1" class="node"><title>Node0</title>
<g id="a_node1"><a xlink:href="dc/dac/class_utils_1_1_attributes_1_1_base_attribute.xhtml" target="_top" xlink:title=" ">
<polygon fill="none" stroke="black" points="0,-391.5 0,-421.5 90,-421.5 90,-391.5 0,-391.5"/>
<text text-anchor="start" x="8" y="-409.5" font-family="Helvetica,sans-Serif" font-size="10.00">Utils::Attributes::</text>
<text text-anchor="middle" x="45" y="-398.5" font-family="Helvetica,sans-Serif" font-size="10.00">BaseAttribute</text>
</a>
</g>
</g>
<!-- Node1 -->
<g id="node2" class="node"><title>Node1</title>
<g id="a_node2"><a xlink:href="d7/d78/class_utils_1_1_attributes_1_1_bootstrap_methods__attribute.xhtml" target="_top" xlink:title=" ">
<polygon fill="none" stroke="black" points="127.5,-759.5 127.5,-789.5 264.5,-789.5 264.5,-759.5 127.5,-759.5"/>
<text text-anchor="start" x="135.5" y="-777.5" font-family="Helvetica,sans-Serif" font-size="10.00">Utils::Attributes::</text>
<text text-anchor="middle" x="196" y="-766.5" font-family="Helvetica,sans-Serif" font-size="10.00">BootstrapMethods_attribute</text>
</a>
</g>
</g>
<!-- Node0&#45;&gt;Node1 -->
<g id="edge1" class="edge"><title>Node0&#45;&gt;Node1</title>
<path fill="none" stroke="midnightblue" d="M48.7322,-431.899C56.8728,-503.144 83.0995,-702.781 126,-750.5 129.053,-753.895 132.611,-756.811 136.473,-759.313"/>
<polygon fill="midnightblue" stroke="midnightblue" points="52.1713,-431.159 47.5812,-421.61 45.2147,-431.938 52.1713,-431.159"/>
</g>
<!-- Node2 -->
<g id="node3" class="node"><title>Node2</title>
<g id="a_node3"><a xlink:href="d1/da5/class_utils_1_1_attributes_1_1_code__attribute.xhtml" target="_top" xlink:title=" ">
<polygon fill="none" stroke="black" points="151,-710.5 151,-740.5 241,-740.5 241,-710.5 151,-710.5"/>
<text text-anchor="start" x="159" y="-728.5" font-family="Helvetica,sans-Serif" font-size="10.00">Utils::Attributes::</text>
<text text-anchor="middle" x="196" y="-717.5" font-family="Helvetica,sans-Serif" font-size="10.00">Code_attribute</text>
</a>
</g>
</g>
<!-- Node0&#45;&gt;Node2 -->
<g id="edge2" class="edge"><title>Node0&#45;&gt;Node2</title>
<path fill="none" stroke="midnightblue" d="M45.4201,-431.793C45.5327,-487.912 53.7366,-623.999 126,-701.5 132.66,-708.643 141.556,-713.66 150.74,-717.184"/>
<polygon fill="midnightblue" stroke="midnightblue" points="48.9207,-431.699 45.4888,-421.676 41.9208,-431.652 48.9207,-431.699"/>
</g>
<!-- Node3 -->
<g id="node4" class="node"><title>Node3</title>
<g id="a_node4"><a xlink:href="d2/d92/class_utils_1_1_attributes_1_1_constant_value__attribute.xhtml" target="_top" xlink:title=" ">
<polygon fill="none" stroke="black" points="135.5,-661.5 135.5,-691.5 256.5,-691.5 256.5,-661.5 135.5,-661.5"/>
<text text-anchor="start" x="143.5" y="-679.5" font-family="Helvetica,sans-Serif" font-size="10.00">Utils::Attributes::</text>
<text text-anchor="middle" x="196" y="-668.5" font-family="Helvetica,sans-Serif" font-size="10.00">ConstantValue_attribute</text>
</a>
</g>
</g>
<!-- Node0&#45;&gt;Node3 -->
<g id="edge3" class="edge"><title>Node0&#45;&gt;Node3</title>
<path fill="none" stroke="midnightblue" d="M47.0582,-431.616C50.4761,-480.742 64.9265,-590.173 126,-652.5 129.373,-655.942 133.265,-658.892 137.448,-661.418"/>
<polygon fill="midnightblue" stroke="midnightblue" points="50.5471,-431.325 46.4566,-421.552 43.5596,-431.743 50.5471,-431.325"/>
</g>
<!-- Node4 -->
<g id="node5" class="node"><title>Node4</title>
<g id="a_node5"><a xlink:href="df/da0/class_utils_1_1_attributes_1_1_deprecated__attribute.xhtml" target="_top" xlink:title=" ">
<polygon fill="none" stroke="black" points="142.5,-612.5 142.5,-642.5 249.5,-642.5 249.5,-612.5 142.5,-612.5"/>
<text text-anchor="start" x="150.5" y="-630.5" font-family="Helvetica,sans-Serif" font-size="10.00">Utils::Attributes::</text>
<text text-anchor="middle" x="196" y="-619.5" font-family="Helvetica,sans-Serif" font-size="10.00">Deprecated_attribute</text>
</a>
</g>
</g>
<!-- Node0&#45;&gt;Node4 -->
<g id="edge4" class="edge"><title>Node0&#45;&gt;Node4</title>
<path fill="none" stroke="midnightblue" d="M49.4698,-431.791C56.4759,-473.331 76.1348,-556.116 126,-603.5 130.781,-608.043 136.467,-611.731 142.492,-614.723"/>
<polygon fill="midnightblue" stroke="midnightblue" points="52.8935,-431.032 47.8821,-421.698 45.9786,-432.12 52.8935,-431.032"/>
</g>
<!-- Node5 -->
<g id="node6" class="node"><title>Node5</title>
<g id="a_node6"><a xlink:href="d0/d9b/class_utils_1_1_attributes_1_1_enclosing_method__attribute.xhtml" target="_top" xlink:title=" ">
<polygon fill="none" stroke="black" points="130,-563.5 130,-593.5 262,-593.5 262,-563.5 130,-563.5"/>
<text text-anchor="start" x="138" y="-581.5" font-family="Helvetica,sans-Serif" font-size="10.00">Utils::Attributes::</text>
<text text-anchor="middle" x="196" y="-570.5" font-family="Helvetica,sans-Serif" font-size="10.00">EnclosingMethod_attribute</text>
</a>
</g>
</g>
<!-- Node0&#45;&gt;Node5 -->
<g id="edge5" class="edge"><title>Node0&#45;&gt;Node5</title>
<path fill="none" stroke="midnightblue" d="M53.2569,-431.595C63.9666,-464.343 87.0586,-521.366 126,-554.5 130.057,-557.952 134.64,-560.917 139.467,-563.463"/>
<polygon fill="midnightblue" stroke="midnightblue" points="56.5414,-430.372 50.2104,-421.877 49.8619,-432.466 56.5414,-430.372"/>
</g>
<!-- Node6 -->
<g id="node7" class="node"><title>Node6</title>
<g id="a_node7"><a xlink:href="d7/d70/class_utils_1_1_attributes_1_1_exceptions__attribute.xhtml" target="_top" xlink:title=" ">
<polygon fill="none" stroke="black" points="143,-514.5 143,-544.5 249,-544.5 249,-514.5 143,-514.5"/>
<text text-anchor="start" x="151" y="-532.5" font-family="Helvetica,sans-Serif" font-size="10.00">Utils::Attributes::</text>
<text text-anchor="middle" x="196" y="-521.5" font-family="Helvetica,sans-Serif" font-size="10.00">Exceptions_attribute</text>
</a>
</g>
</g>
<!-- Node0&#45;&gt;Node6 -->
<g id="edge6" class="edge"><title>Node0&#45;&gt;Node6</title>
<path fill="none" stroke="midnightblue" d="M59.82,-430.373C73.8647,-452.693 97.5635,-485.5 126,-505.5 131.187,-509.148 136.98,-512.287 142.945,-514.976"/>
<polygon fill="midnightblue" stroke="midnightblue" points="62.7825,-428.509 54.5776,-421.806 56.8116,-432.162 62.7825,-428.509"/>
</g>
<!-- Node7 -->
<g id="node8" class="node"><title>Node7</title>
<g id="a_node8"><a xlink:href="d7/ddd/class_utils_1_1_attributes_1_1_inner_classes__attribute.xhtml" target="_top" xlink:title=" ">
<polygon fill="none" stroke="black" points="139.5,-465.5 139.5,-495.5 252.5,-495.5 252.5,-465.5 139.5,-465.5"/>
<text text-anchor="start" x="147.5" y="-483.5" font-family="Helvetica,sans-Serif" font-size="10.00">Utils::Attributes::</text>
<text text-anchor="middle" x="196" y="-472.5" font-family="Helvetica,sans-Serif" font-size="10.00">InnerClasses_attribute</text>
</a>
</g>
</g>
<!-- Node0&#45;&gt;Node7 -->
<g id="edge7" class="edge"><title>Node0&#45;&gt;Node7</title>
<path fill="none" stroke="midnightblue" d="M75.9461,-427.452C90.5947,-437.112 108.752,-448.239 126,-456.5 132.749,-459.732 140.052,-462.75 147.295,-465.479"/>
<polygon fill="midnightblue" stroke="midnightblue" points="77.5728,-424.329 67.3181,-421.665 73.6738,-430.142 77.5728,-424.329"/>
</g>
<!-- Node8 -->
<g id="node9" class="node"><title>Node8</title>
<g id="a_node9"><a xlink:href="d1/d45/class_utils_1_1_attributes_1_1_line_number_table__attribute.xhtml" target="_top" xlink:title=" ">
<polygon fill="none" stroke="black" points="130,-416.5 130,-446.5 262,-446.5 262,-416.5 130,-416.5"/>
<text text-anchor="start" x="138" y="-434.5" font-family="Helvetica,sans-Serif" font-size="10.00">Utils::Attributes::</text>
<text text-anchor="middle" x="196" y="-423.5" font-family="Helvetica,sans-Serif" font-size="10.00">LineNumberTable_attribute</text>
</a>
</g>
</g>
<!-- Node0&#45;&gt;Node8 -->
<g id="edge8" class="edge"><title>Node0&#45;&gt;Node8</title>
<path fill="none" stroke="midnightblue" d="M100.467,-415.639C110.037,-417.245 120.084,-418.93 129.91,-420.579"/>
<polygon fill="midnightblue" stroke="midnightblue" points="100.743,-412.136 90.3015,-413.933 99.5845,-419.04 100.743,-412.136"/>
</g>
<!-- Node9 -->
<g id="node10" class="node"><title>Node9</title>
<g id="a_node10"><a xlink:href="dc/d0d/class_utils_1_1_attributes_1_1_local_variable_table__attribute.xhtml" target="_top" xlink:title=" ">
<polygon fill="none" stroke="black" points="126.5,-367.5 126.5,-397.5 265.5,-397.5 265.5,-367.5 126.5,-367.5"/>
<text text-anchor="start" x="134.5" y="-385.5" font-family="Helvetica,sans-Serif" font-size="10.00">Utils::Attributes::</text>
<text text-anchor="middle" x="196" y="-374.5" font-family="Helvetica,sans-Serif" font-size="10.00">LocalVariableTable_attribute</text>
</a>
</g>
</g>
<!-- Node0&#45;&gt;Node9 -->
<g id="edge9" class="edge"><title>Node0&#45;&gt;Node9</title>
<path fill="none" stroke="midnightblue" d="M100.37,-397.742C108.801,-396.384 117.605,-394.966 126.303,-393.565"/>
<polygon fill="midnightblue" stroke="midnightblue" points="99.6176,-394.318 90.3015,-399.364 100.731,-401.229 99.6176,-394.318"/>
</g>
<!-- Node10 -->
<g id="node11" class="node"><title>Node10</title>
<g id="a_node11"><a xlink:href="dc/d0f/class_utils_1_1_attributes_1_1_local_variable_type_table__attribute.xhtml" target="_top" xlink:title=" ">
<polygon fill="none" stroke="black" points="136.5,-307 136.5,-348 255.5,-348 255.5,-307 136.5,-307"/>
<text text-anchor="start" x="144.5" y="-336" font-family="Helvetica,sans-Serif" font-size="10.00">Utils::Attributes::</text>
<text text-anchor="start" x="144.5" y="-325" font-family="Helvetica,sans-Serif" font-size="10.00">LocalVariableTypeTable</text>
<text text-anchor="middle" x="196" y="-314" font-family="Helvetica,sans-Serif" font-size="10.00">_attribute</text>
</a>
</g>
</g>
<!-- Node0&#45;&gt;Node10 -->
<g id="edge10" class="edge"><title>Node0&#45;&gt;Node10</title>
<path fill="none" stroke="midnightblue" d="M77.9571,-386.144C92.4046,-377.25 109.831,-366.945 126,-358.5 132.751,-354.974 139.985,-351.454 147.137,-348.119"/>
<polygon fill="midnightblue" stroke="midnightblue" points="76.0316,-383.219 69.3843,-391.469 79.7256,-389.165 76.0316,-383.219"/>
</g>
<!-- Node11 -->
<g id="node12" class="node"><title>Node11</title>
<g id="a_node12"><a xlink:href="d2/dc6/class_utils_1_1_attributes_1_1_method_parameters__attribute.xhtml" target="_top" xlink:title=" ">
<polygon fill="none" stroke="black" points="126,-257.5 126,-287.5 266,-287.5 266,-257.5 126,-257.5"/>
<text text-anchor="start" x="134" y="-275.5" font-family="Helvetica,sans-Serif" font-size="10.00">Utils::Attributes::</text>
<text text-anchor="middle" x="196" y="-264.5" font-family="Helvetica,sans-Serif" font-size="10.00">MethodParameters_attribute</text>
</a>
</g>
</g>
<!-- Node0&#45;&gt;Node11 -->
<g id="edge11" class="edge"><title>Node0&#45;&gt;Node11</title>
<path fill="none" stroke="midnightblue" d="M58.2358,-382.219C71.7401,-357.679 95.6421,-320.227 126,-297.5 131.1,-293.682 136.84,-290.402 142.775,-287.595"/>
<polygon fill="midnightblue" stroke="midnightblue" points="55.0393,-380.775 53.4168,-391.245 61.2143,-384.072 55.0393,-380.775"/>
</g>
<!-- Node12 -->
<g id="node13" class="node"><title>Node12</title>
<g id="a_node13"><a xlink:href="d8/daf/class_utils_1_1_attributes_1_1_not_implemented.xhtml" target="_top" xlink:title=" ">
<polygon fill="none" stroke="black" points="151,-208.5 151,-238.5 241,-238.5 241,-208.5 151,-208.5"/>
<text text-anchor="start" x="159" y="-226.5" font-family="Helvetica,sans-Serif" font-size="10.00">Utils::Attributes::</text>
<text text-anchor="middle" x="196" y="-215.5" font-family="Helvetica,sans-Serif" font-size="10.00">NotImplemented</text>
</a>
</g>
</g>
<!-- Node0&#45;&gt;Node12 -->
<g id="edge12" class="edge"><title>Node0&#45;&gt;Node12</title>
<path fill="none" stroke="midnightblue" d="M52.4079,-381.322C62.453,-346.737 85.1167,-284.71 126,-248.5 133.058,-242.249 141.801,-237.522 150.665,-233.962"/>
<polygon fill="midnightblue" stroke="midnightblue" points="48.9917,-380.543 49.6893,-391.115 55.7366,-382.416 48.9917,-380.543"/>
</g>
<!-- Node13 -->
<g id="node14" class="node"><title>Node13</title>
<g id="a_node14"><a xlink:href="db/dee/class_utils_1_1_attributes_1_1_signature__attribute.xhtml" target="_top" xlink:title=" ">
<polygon fill="none" stroke="black" points="147,-159.5 147,-189.5 245,-189.5 245,-159.5 147,-159.5"/>
<text text-anchor="start" x="155" y="-177.5" font-family="Helvetica,sans-Serif" font-size="10.00">Utils::Attributes::</text>
<text text-anchor="middle" x="196" y="-166.5" font-family="Helvetica,sans-Serif" font-size="10.00">Signature_attribute</text>
</a>
</g>
</g>
<!-- Node0&#45;&gt;Node13 -->
<g id="edge13" class="edge"><title>Node0&#45;&gt;Node13</title>
<path fill="none" stroke="midnightblue" d="M48.9669,-381.254C55.3346,-338.172 74.2086,-250.206 126,-199.5 131.918,-193.706 139.279,-189.243 146.969,-185.808"/>
<polygon fill="midnightblue" stroke="midnightblue" points="45.4625,-381.049 47.5748,-391.431 52.3979,-381.997 45.4625,-381.049"/>
</g>
<!-- Node14 -->
<g id="node15" class="node"><title>Node14</title>
<g id="a_node15"><a xlink:href="de/db2/class_utils_1_1_attributes_1_1_source_debug_extension__attribute.xhtml" target="_top" xlink:title=" ">
<polygon fill="none" stroke="black" points="136.5,-99 136.5,-140 255.5,-140 255.5,-99 136.5,-99"/>
<text text-anchor="start" x="144.5" y="-128" font-family="Helvetica,sans-Serif" font-size="10.00">Utils::Attributes::</text>
<text text-anchor="start" x="144.5" y="-117" font-family="Helvetica,sans-Serif" font-size="10.00">SourceDebugExtension</text>
<text text-anchor="middle" x="196" y="-106" font-family="Helvetica,sans-Serif" font-size="10.00">_attribute</text>
</a>
</g>
</g>
<!-- Node0&#45;&gt;Node14 -->
<g id="edge14" class="edge"><title>Node0&#45;&gt;Node14</title>
<path fill="none" stroke="midnightblue" d="M47.2106,-381.213C50.8998,-331.137 65.81,-218.34 126,-150.5 129.486,-146.571 133.568,-143.112 137.973,-140.074"/>
<polygon fill="midnightblue" stroke="midnightblue" points="43.7012,-381.248 46.5514,-391.452 50.6867,-381.698 43.7012,-381.248"/>
</g>
<!-- Node15 -->
<g id="node16" class="node"><title>Node15</title>
<g id="a_node16"><a xlink:href="d5/dcd/class_utils_1_1_attributes_1_1_source_file__attribute.xhtml" target="_top" xlink:title=" ">
<polygon fill="none" stroke="black" points="144,-49.5 144,-79.5 248,-79.5 248,-49.5 144,-49.5"/>
<text text-anchor="start" x="152" y="-67.5" font-family="Helvetica,sans-Serif" font-size="10.00">Utils::Attributes::</text>
<text text-anchor="middle" x="196" y="-56.5" font-family="Helvetica,sans-Serif" font-size="10.00">SourceFile_attribute</text>
</a>
</g>
</g>
<!-- Node0&#45;&gt;Node15 -->
<g id="edge15" class="edge"><title>Node0&#45;&gt;Node15</title>
<path fill="none" stroke="midnightblue" d="M49.2796,-381.333C58.488,-314.229 86.5107,-133.167 126,-89.5 130.957,-84.0189 137.209,-79.7382 143.916,-76.3952"/>
<polygon fill="midnightblue" stroke="midnightblue" points="45.7849,-381.059 47.9179,-391.437 52.7222,-381.994 45.7849,-381.059"/>
</g>
<!-- Node16 -->
<g id="node17" class="node"><title>Node16</title>
<g id="a_node17"><a xlink:href="dc/d24/class_utils_1_1_attributes_1_1_synthetic__attribute.xhtml" target="_top" xlink:title=" ">
<polygon fill="none" stroke="black" points="147,-0.5 147,-30.5 245,-30.5 245,-0.5 147,-0.5"/>
<text text-anchor="start" x="155" y="-18.5" font-family="Helvetica,sans-Serif" font-size="10.00">Utils::Attributes::</text>
<text text-anchor="middle" x="196" y="-7.5" font-family="Helvetica,sans-Serif" font-size="10.00">Synthetic_attribute</text>
</a>
</g>
</g>
<!-- Node0&#45;&gt;Node16 -->
<g id="edge16" class="edge"><title>Node0&#45;&gt;Node16</title>
<path fill="none" stroke="midnightblue" d="M48.3897,-381.001C55.8357,-306.644 80.8628,-92.0476 126,-40.5 131.624,-34.0776 139.03,-29.3045 146.901,-25.7573"/>
<polygon fill="midnightblue" stroke="midnightblue" points="44.8723,-381.009 47.3817,-391.303 51.839,-381.691 44.8723,-381.009"/>
</g>
</g>
</svg>
