<?xml version="1.0" encoding="UTF-8" standalone="no"?>
<!DOCTYPE svg PUBLIC "-//W3C//DTD SVG 1.1//EN"
 "http://www.w3.org/Graphics/SVG/1.1/DTD/svg11.dtd">
<!-- Generated by graphviz version 2.38.0 (20140413.2041)
 -->
<!-- Title: Graphical Class Hierarchy Pages: 1 -->
<svg width="237pt" height="66pt"
 viewBox="0.00 0.00 237.00 66.00" xmlns="http://www.w3.org/2000/svg" xmlns:xlink="http://www.w3.org/1999/xlink">
<g id="graph0" class="graph" transform="scale(1 1) rotate(0) translate(4 62)">
<title>Graphical Class Hierarchy</title>
<!-- Node286 -->
<g id="node1" class="node"><title>Node286</title>
<g id="a_node1"><a xlink:title=" ">
<polygon fill="none" stroke="#bfbfbf" points="0,-19.5 0,-38.5 59,-38.5 59,-19.5 0,-19.5"/>
<text text-anchor="middle" x="29.5" y="-26.5" font-family="Helvetica,sans-Serif" font-size="10.00">exception</text>
</a>
</g>
</g>
<!-- Node0 -->
<g id="node2" class="node"><title>Node0</title>
<g id="a_node2"><a xlink:href="d6/d12/class_utils_1_1_errors_1_1_exception.xhtml" target="_top" xlink:title=" ">
<polygon fill="none" stroke="black" points="103,-38.5 103,-57.5 221,-57.5 221,-38.5 103,-38.5"/>
<text text-anchor="middle" x="162" y="-45.5" font-family="Helvetica,sans-Serif" font-size="10.00">Utils::Errors::Exception</text>
</a>
</g>
</g>
<!-- Node286&#45;&gt;Node0 -->
<g id="edge1" class="edge"><title>Node286&#45;&gt;Node0</title>
<path fill="none" stroke="midnightblue" d="M69.2948,-34.6483C79.8756,-36.1888 91.5738,-37.892 102.974,-39.5518"/>
<polygon fill="midnightblue" stroke="midnightblue" points="69.5387,-31.147 59.1388,-33.1696 68.5302,-38.0739 69.5387,-31.147"/>
</g>
<!-- Node288 -->
<g id="node3" class="node"><title>Node288</title>
<g id="a_node3"><a xlink:href="d4/df7/class_utils_1_1_errors_1_1_jvm_exception.xhtml" target="_top" xlink:title=" ">
<polygon fill="none" stroke="black" points="95,-0.5 95,-19.5 229,-19.5 229,-0.5 95,-0.5"/>
<text text-anchor="middle" x="162" y="-7.5" font-family="Helvetica,sans-Serif" font-size="10.00">Utils::Errors::JvmException</text>
</a>
</g>
</g>
<!-- Node286&#45;&gt;Node288 -->
<g id="edge2" class="edge"><title>Node286&#45;&gt;Node288</title>
<path fill="none" stroke="midnightblue" d="M69.2333,-23.3607C77.5346,-22.1521 86.5259,-20.843 95.523,-19.5331"/>
<polygon fill="midnightblue" stroke="midnightblue" points="68.5302,-19.9261 59.1388,-24.8304 69.5387,-26.853 68.5302,-19.9261"/>
</g>
</g>
</svg>
