<?xml version="1.0" encoding="UTF-8" standalone="no"?>
<!DOCTYPE svg PUBLIC "-//W3C//DTD SVG 1.1//EN"
 "http://www.w3.org/Graphics/SVG/1.1/DTD/svg11.dtd">
<!-- Generated by graphviz version 2.38.0 (20140413.2041)
 -->
<!-- Title: Graphical Class Hierarchy Pages: 1 -->
<svg width="278pt" height="171pt"
 viewBox="0.00 0.00 278.00 170.50" xmlns="http://www.w3.org/2000/svg" xmlns:xlink="http://www.w3.org/1999/xlink">
<g id="graph0" class="graph" transform="scale(1 1) rotate(0) translate(4 166.5)">
<title>Graphical Class Hierarchy</title>
<!-- Node273 -->
<g id="node1" class="node"><title>Node273</title>
<g id="a_node1"><a xlink:title=" ">
<polygon fill="none" stroke="#bfbfbf" points="0,-66 0,-85 61,-85 61,-66 0,-66"/>
<text text-anchor="middle" x="30.5" y="-73" font-family="Helvetica,sans-Serif" font-size="10.00">false_type</text>
</a>
</g>
</g>
<!-- Node0 -->
<g id="node2" class="node"><title>Node0</title>
<g id="a_node2"><a xlink:href="dd/d13/structnlohmann_1_1detail_1_1is__compatible__integer__type__impl.xhtml" target="_top" xlink:title=" ">
<polygon fill="none" stroke="black" points="97,-121 97,-162 270,-162 270,-121 97,-121"/>
<text text-anchor="start" x="105" y="-150" font-family="Helvetica,sans-Serif" font-size="10.00">nlohmann::detail::is</text>
<text text-anchor="start" x="105" y="-139" font-family="Helvetica,sans-Serif" font-size="10.00">_compatible_integer_type</text>
<text text-anchor="middle" x="183.5" y="-128" font-family="Helvetica,sans-Serif" font-size="10.00">_impl&lt; bool, typename, typename &gt;</text>
</a>
</g>
</g>
<!-- Node273&#45;&gt;Node0 -->
<g id="edge1" class="edge"><title>Node273&#45;&gt;Node0</title>
<path fill="none" stroke="midnightblue" d="M56.2685,-90.3782C68.3205,-97.2879 83.1636,-105.321 97,-111.5 104.326,-114.771 112.126,-117.93 119.92,-120.891"/>
<polygon fill="midnightblue" stroke="midnightblue" points="57.6759,-87.1473 47.274,-85.1344 54.1503,-93.1947 57.6759,-87.1473"/>
</g>
<!-- Node275 -->
<g id="node3" class="node"><title>Node275</title>
<g id="a_node3"><a xlink:href="dc/da5/structnlohmann_1_1detail_1_1is__compatible__object__type__impl.xhtml" target="_top" xlink:title=" ">
<polygon fill="none" stroke="black" points="105,-49.5 105,-101.5 262,-101.5 262,-49.5 105,-49.5"/>
<text text-anchor="start" x="113" y="-89.5" font-family="Helvetica,sans-Serif" font-size="10.00">nlohmann::detail::is</text>
<text text-anchor="start" x="113" y="-78.5" font-family="Helvetica,sans-Serif" font-size="10.00">_compatible_object_type</text>
<text text-anchor="start" x="113" y="-67.5" font-family="Helvetica,sans-Serif" font-size="10.00">_impl&lt; B, RealType, Compatible</text>
<text text-anchor="middle" x="183.5" y="-56.5" font-family="Helvetica,sans-Serif" font-size="10.00">ObjectType &gt;</text>
</a>
</g>
</g>
<!-- Node273&#45;&gt;Node275 -->
<g id="edge2" class="edge"><title>Node273&#45;&gt;Node275</title>
<path fill="none" stroke="midnightblue" d="M71.605,-75.5C81.8993,-75.5 93.3283,-75.5 104.825,-75.5"/>
<polygon fill="midnightblue" stroke="midnightblue" points="71.3328,-72.0001 61.3327,-75.5 71.3327,-79.0001 71.3328,-72.0001"/>
</g>
<!-- Node276 -->
<g id="node4" class="node"><title>Node276</title>
<g id="a_node4"><a xlink:href="d5/d0f/structtableformatter_1_1is__any__of_3_01_t_00_01_u_01_4.xhtml" target="_top" xlink:title=" ">
<polygon fill="none" stroke="black" points="139,-0.5 139,-30.5 228,-30.5 228,-0.5 139,-0.5"/>
<text text-anchor="start" x="147" y="-18.5" font-family="Helvetica,sans-Serif" font-size="10.00">tableformatter::is</text>
<text text-anchor="middle" x="183.5" y="-7.5" font-family="Helvetica,sans-Serif" font-size="10.00">_any_of&lt; T, U &gt;</text>
</a>
</g>
</g>
<!-- Node273&#45;&gt;Node276 -->
<g id="edge3" class="edge"><title>Node273&#45;&gt;Node276</title>
<path fill="none" stroke="midnightblue" d="M56.1767,-60.7545C68.208,-53.9733 83.0602,-46.1911 97,-40.5 110.316,-35.0637 125.24,-30.2779 138.848,-26.3874"/>
<polygon fill="midnightblue" stroke="midnightblue" points="54.1248,-57.8971 47.204,-65.9192 57.6169,-63.9639 54.1248,-57.8971"/>
</g>
</g>
</svg>
