<?xml version="1.0" encoding="UTF-8" standalone="no"?>
<!DOCTYPE svg PUBLIC "-//W3C//DTD SVG 1.1//EN"
 "http://www.w3.org/Graphics/SVG/1.1/DTD/svg11.dtd">
<!-- Generated by graphviz version 2.38.0 (20140413.2041)
 -->
<!-- Title: Graphical Class Hierarchy Pages: 1 -->
<svg width="244pt" height="137pt"
 viewBox="0.00 0.00 244.00 137.00" xmlns="http://www.w3.org/2000/svg" xmlns:xlink="http://www.w3.org/1999/xlink">
<g id="graph0" class="graph" transform="scale(1 1) rotate(0) translate(4 133)">
<title>Graphical Class Hierarchy</title>
<!-- Node4 -->
<g id="node1" class="node"><title>Node4</title>
<g id="a_node1"><a xlink:title=" ">
<polygon fill="none" stroke="#bfbfbf" points="0,-55 0,-74 57,-74 57,-55 0,-55"/>
<text text-anchor="middle" x="28.5" y="-62" font-family="Helvetica,sans-Serif" font-size="10.00">true_type</text>
</a>
</g>
</g>
<!-- Node0 -->
<g id="node2" class="node"><title>Node0</title>
<g id="a_node2"><a xlink:href="dd/dde/structnlohmann_1_1detail_1_1conjunction.xhtml" target="_top" xlink:title=" ">
<polygon fill="none" stroke="black" points="93,-98.5 93,-128.5 236,-128.5 236,-98.5 93,-98.5"/>
<text text-anchor="start" x="101" y="-116.5" font-family="Helvetica,sans-Serif" font-size="10.00">nlohmann::detail::conjunction</text>
<text text-anchor="middle" x="164.5" y="-105.5" font-family="Helvetica,sans-Serif" font-size="10.00">&lt;... &gt;</text>
</a>
</g>
</g>
<!-- Node4&#45;&gt;Node0 -->
<g id="edge1" class="edge"><title>Node4&#45;&gt;Node0</title>
<path fill="none" stroke="midnightblue" d="M62.3455,-77.7706C72.1689,-81.6476 82.9892,-85.8277 93,-89.5 101.133,-92.4834 109.838,-95.549 118.258,-98.4496"/>
<polygon fill="midnightblue" stroke="midnightblue" points="63.5071,-74.466 52.9214,-74.0247 60.9214,-80.9709 63.5071,-74.466"/>
</g>
<!-- Node6 -->
<g id="node3" class="node"><title>Node6</title>
<g id="a_node3"><a xlink:href="d4/def/structtableformatter_1_1is__any__of_3_01_t_00_01_t_01_4.xhtml" target="_top" xlink:title=" ">
<polygon fill="none" stroke="black" points="120,-49.5 120,-79.5 209,-79.5 209,-49.5 120,-49.5"/>
<text text-anchor="start" x="128" y="-67.5" font-family="Helvetica,sans-Serif" font-size="10.00">tableformatter::is</text>
<text text-anchor="middle" x="164.5" y="-56.5" font-family="Helvetica,sans-Serif" font-size="10.00">_any_of&lt; T, T &gt;</text>
</a>
</g>
</g>
<!-- Node4&#45;&gt;Node6 -->
<g id="edge2" class="edge"><title>Node4&#45;&gt;Node6</title>
<path fill="none" stroke="midnightblue" d="M67.5343,-64.5C83.8666,-64.5 103.043,-64.5 119.942,-64.5"/>
<polygon fill="midnightblue" stroke="midnightblue" points="67.2649,-61.0001 57.2649,-64.5 67.2649,-68.0001 67.2649,-61.0001"/>
</g>
<!-- Node7 -->
<g id="node4" class="node"><title>Node7</title>
<g id="a_node4"><a xlink:href="d8/dc4/structtableformatter_1_1is__any__of_3_01_t_00_01_t_00_01_ts_8_8_8_01_4.xhtml" target="_top" xlink:title=" ">
<polygon fill="none" stroke="black" points="109.5,-0.5 109.5,-30.5 219.5,-30.5 219.5,-0.5 109.5,-0.5"/>
<text text-anchor="start" x="117.5" y="-18.5" font-family="Helvetica,sans-Serif" font-size="10.00">tableformatter::is</text>
<text text-anchor="middle" x="164.5" y="-7.5" font-family="Helvetica,sans-Serif" font-size="10.00">_any_of&lt; T, T, Ts... &gt;</text>
</a>
</g>
</g>
<!-- Node4&#45;&gt;Node7 -->
<g id="edge3" class="edge"><title>Node4&#45;&gt;Node7</title>
<path fill="none" stroke="midnightblue" d="M63.9397,-51.3359C73.3488,-47.7797 83.5545,-43.9593 93,-40.5 101.902,-37.2398 111.459,-33.8061 120.575,-30.5629"/>
<polygon fill="midnightblue" stroke="midnightblue" points="62.5974,-48.1017 54.4881,-54.92 65.0794,-54.6469 62.5974,-48.1017"/>
</g>
</g>
</svg>
