<?xml version="1.0" encoding="UTF-8" standalone="no"?>
<!DOCTYPE svg PUBLIC "-//W3C//DTD SVG 1.1//EN"
 "http://www.w3.org/Graphics/SVG/1.1/DTD/svg11.dtd">
<!-- Generated by graphviz version 2.38.0 (20140413.2041)
 -->
<!-- Title: Instructions::Misc::BaseMisc Pages: 1 -->
<svg width="1405pt" height="353pt"
 viewBox="0.00 0.00 1404.50 353.00" xmlns="http://www.w3.org/2000/svg" xmlns:xlink="http://www.w3.org/1999/xlink">
<g id="graph0" class="graph" transform="scale(1 1) rotate(0) translate(4 349)">
<title>Instructions::Misc::BaseMisc</title>
<!-- Node1 -->
<g id="node1" class="node"><title>Node1</title>
<g id="a_node1"><a xlink:title=" ">
<polygon fill="#bfbfbf" stroke="black" points="640.5,-116.5 640.5,-206.5 744.5,-206.5 744.5,-116.5 640.5,-116.5"/>
<text text-anchor="start" x="648.5" y="-194.5" font-family="Helvetica,sans-Serif" font-size="10.00">Instructions::Misc</text>
<text text-anchor="middle" x="692.5" y="-183.5" font-family="Helvetica,sans-Serif" font-size="10.00">::BaseMisc</text>
<polyline fill="none" stroke="black" points="640.5,-176.5 744.5,-176.5 "/>
<text text-anchor="middle" x="692.5" y="-164.5" font-family="Helvetica,sans-Serif" font-size="10.00"> </text>
<polyline fill="none" stroke="black" points="640.5,-157.5 744.5,-157.5 "/>
<text text-anchor="start" x="648.5" y="-145.5" font-family="Helvetica,sans-Serif" font-size="10.00">+ BaseMisc()</text>
<text text-anchor="start" x="648.5" y="-134.5" font-family="Helvetica,sans-Serif" font-size="10.00">+ toBytecode()</text>
<text text-anchor="start" x="648.5" y="-123.5" font-family="Helvetica,sans-Serif" font-size="10.00">+ toBytecode_json()</text>
</a>
</g>
</g>
<!-- Node3 -->
<g id="node3" class="node"><title>Node3</title>
<g id="a_node3"><a xlink:href="../../d6/df7/class_instructions_1_1_misc_1_1_dup.xhtml" target="_top" xlink:title=" ">
<polygon fill="none" stroke="black" points="0,-6 0,-74 117,-74 117,-6 0,-6"/>
<text text-anchor="middle" x="58.5" y="-62" font-family="Helvetica,sans-Serif" font-size="10.00">Instructions::Misc::Dup</text>
<polyline fill="none" stroke="black" points="0,-55 117,-55 "/>
<text text-anchor="middle" x="58.5" y="-43" font-family="Helvetica,sans-Serif" font-size="10.00"> </text>
<polyline fill="none" stroke="black" points="0,-36 117,-36 "/>
<text text-anchor="start" x="8" y="-24" font-family="Helvetica,sans-Serif" font-size="10.00">+ Dup()</text>
<text text-anchor="start" x="8" y="-13" font-family="Helvetica,sans-Serif" font-size="10.00">+ execute()</text>
</a>
</g>
</g>
<!-- Node1&#45;&gt;Node3 -->
<g id="edge2" class="edge"><title>Node1&#45;&gt;Node3</title>
<path fill="none" stroke="midnightblue" d="M630.016,-159.27C523.754,-155.512 302.276,-140.405 126.5,-80 121.609,-78.3193 116.672,-76.2782 111.81,-74.0208"/>
<polygon fill="none" stroke="midnightblue" points="630.131,-162.776 640.242,-159.609 630.363,-155.78 630.131,-162.776"/>
</g>
<!-- Node4 -->
<g id="node4" class="node"><title>Node4</title>
<g id="a_node4"><a xlink:href="../../d0/d1b/class_instructions_1_1_misc_1_1_dup2.xhtml" target="_top" xlink:title=" ">
<polygon fill="none" stroke="black" points="135.5,-0.5 135.5,-79.5 229.5,-79.5 229.5,-0.5 135.5,-0.5"/>
<text text-anchor="start" x="143.5" y="-67.5" font-family="Helvetica,sans-Serif" font-size="10.00">Instructions::Misc</text>
<text text-anchor="middle" x="182.5" y="-56.5" font-family="Helvetica,sans-Serif" font-size="10.00">::Dup2</text>
<polyline fill="none" stroke="black" points="135.5,-49.5 229.5,-49.5 "/>
<text text-anchor="middle" x="182.5" y="-37.5" font-family="Helvetica,sans-Serif" font-size="10.00"> </text>
<polyline fill="none" stroke="black" points="135.5,-30.5 229.5,-30.5 "/>
<text text-anchor="start" x="143.5" y="-18.5" font-family="Helvetica,sans-Serif" font-size="10.00">+ Dup2()</text>
<text text-anchor="start" x="143.5" y="-7.5" font-family="Helvetica,sans-Serif" font-size="10.00">+ execute()</text>
</a>
</g>
</g>
<!-- Node1&#45;&gt;Node4 -->
<g id="edge3" class="edge"><title>Node1&#45;&gt;Node4</title>
<path fill="none" stroke="midnightblue" d="M630.438,-157.918C540.765,-152.346 371.174,-134.832 238.5,-80 235.544,-78.7782 232.588,-77.3803 229.666,-75.857"/>
<polygon fill="none" stroke="midnightblue" points="630.254,-161.413 640.443,-158.511 630.668,-154.426 630.254,-161.413"/>
</g>
<!-- Node5 -->
<g id="node5" class="node"><title>Node5</title>
<g id="a_node5"><a xlink:href="../../d9/db9/class_instructions_1_1_misc_1_1_dup2_x1.xhtml" target="_top" xlink:title=" ">
<polygon fill="none" stroke="black" points="247.5,-0.5 247.5,-79.5 341.5,-79.5 341.5,-0.5 247.5,-0.5"/>
<text text-anchor="start" x="255.5" y="-67.5" font-family="Helvetica,sans-Serif" font-size="10.00">Instructions::Misc</text>
<text text-anchor="middle" x="294.5" y="-56.5" font-family="Helvetica,sans-Serif" font-size="10.00">::Dup2X1</text>
<polyline fill="none" stroke="black" points="247.5,-49.5 341.5,-49.5 "/>
<text text-anchor="middle" x="294.5" y="-37.5" font-family="Helvetica,sans-Serif" font-size="10.00"> </text>
<polyline fill="none" stroke="black" points="247.5,-30.5 341.5,-30.5 "/>
<text text-anchor="start" x="255.5" y="-18.5" font-family="Helvetica,sans-Serif" font-size="10.00">+ Dup2X1()</text>
<text text-anchor="start" x="255.5" y="-7.5" font-family="Helvetica,sans-Serif" font-size="10.00">+ execute()</text>
</a>
</g>
</g>
<!-- Node1&#45;&gt;Node5 -->
<g id="edge4" class="edge"><title>Node1&#45;&gt;Node5</title>
<path fill="none" stroke="midnightblue" d="M630.406,-153.049C560.1,-143.007 443.277,-121.404 350.5,-80 347.579,-78.6964 344.651,-77.2339 341.75,-75.6606"/>
<polygon fill="none" stroke="midnightblue" points="630.045,-156.533 640.433,-154.448 631.012,-149.6 630.045,-156.533"/>
</g>
<!-- Node6 -->
<g id="node6" class="node"><title>Node6</title>
<g id="a_node6"><a xlink:href="../../d7/d4f/class_instructions_1_1_misc_1_1_dup2_x2.xhtml" target="_top" xlink:title=" ">
<polygon fill="none" stroke="black" points="359.5,-0.5 359.5,-79.5 453.5,-79.5 453.5,-0.5 359.5,-0.5"/>
<text text-anchor="start" x="367.5" y="-67.5" font-family="Helvetica,sans-Serif" font-size="10.00">Instructions::Misc</text>
<text text-anchor="middle" x="406.5" y="-56.5" font-family="Helvetica,sans-Serif" font-size="10.00">::Dup2X2</text>
<polyline fill="none" stroke="black" points="359.5,-49.5 453.5,-49.5 "/>
<text text-anchor="middle" x="406.5" y="-37.5" font-family="Helvetica,sans-Serif" font-size="10.00"> </text>
<polyline fill="none" stroke="black" points="359.5,-30.5 453.5,-30.5 "/>
<text text-anchor="start" x="367.5" y="-18.5" font-family="Helvetica,sans-Serif" font-size="10.00">+ Dup2X2()</text>
<text text-anchor="start" x="367.5" y="-7.5" font-family="Helvetica,sans-Serif" font-size="10.00">+ execute()</text>
</a>
</g>
</g>
<!-- Node1&#45;&gt;Node6 -->
<g id="edge5" class="edge"><title>Node1&#45;&gt;Node6</title>
<path fill="none" stroke="midnightblue" d="M630.336,-143.748C582.958,-129.804 516.836,-107.772 462.5,-80 459.546,-78.4902 456.569,-76.8442 453.608,-75.1097"/>
<polygon fill="none" stroke="midnightblue" points="629.571,-147.17 640.15,-146.6 631.524,-140.448 629.571,-147.17"/>
</g>
<!-- Node7 -->
<g id="node7" class="node"><title>Node7</title>
<g id="a_node7"><a xlink:href="../../da/d11/class_instructions_1_1_misc_1_1_dup_x1.xhtml" target="_top" xlink:title=" ">
<polygon fill="none" stroke="black" points="471.5,-0.5 471.5,-79.5 565.5,-79.5 565.5,-0.5 471.5,-0.5"/>
<text text-anchor="start" x="479.5" y="-67.5" font-family="Helvetica,sans-Serif" font-size="10.00">Instructions::Misc</text>
<text text-anchor="middle" x="518.5" y="-56.5" font-family="Helvetica,sans-Serif" font-size="10.00">::DupX1</text>
<polyline fill="none" stroke="black" points="471.5,-49.5 565.5,-49.5 "/>
<text text-anchor="middle" x="518.5" y="-37.5" font-family="Helvetica,sans-Serif" font-size="10.00"> </text>
<polyline fill="none" stroke="black" points="471.5,-30.5 565.5,-30.5 "/>
<text text-anchor="start" x="479.5" y="-18.5" font-family="Helvetica,sans-Serif" font-size="10.00">+ DupX1()</text>
<text text-anchor="start" x="479.5" y="-7.5" font-family="Helvetica,sans-Serif" font-size="10.00">+ execute()</text>
</a>
</g>
</g>
<!-- Node1&#45;&gt;Node7 -->
<g id="edge6" class="edge"><title>Node1&#45;&gt;Node7</title>
<path fill="none" stroke="midnightblue" d="M632.083,-119.448C613.58,-106.831 593.181,-92.8763 574.5,-80 571.574,-77.9828 568.564,-75.9029 565.531,-73.8025"/>
<polygon fill="none" stroke="midnightblue" points="630.204,-122.403 640.439,-125.142 634.146,-116.618 630.204,-122.403"/>
</g>
<!-- Node8 -->
<g id="node8" class="node"><title>Node8</title>
<g id="a_node8"><a xlink:href="../../d1/d60/class_instructions_1_1_misc_1_1_dup_x2.xhtml" target="_top" xlink:title=" ">
<polygon fill="none" stroke="black" points="583.5,-0.5 583.5,-79.5 677.5,-79.5 677.5,-0.5 583.5,-0.5"/>
<text text-anchor="start" x="591.5" y="-67.5" font-family="Helvetica,sans-Serif" font-size="10.00">Instructions::Misc</text>
<text text-anchor="middle" x="630.5" y="-56.5" font-family="Helvetica,sans-Serif" font-size="10.00">::DupX2</text>
<polyline fill="none" stroke="black" points="583.5,-49.5 677.5,-49.5 "/>
<text text-anchor="middle" x="630.5" y="-37.5" font-family="Helvetica,sans-Serif" font-size="10.00"> </text>
<polyline fill="none" stroke="black" points="583.5,-30.5 677.5,-30.5 "/>
<text text-anchor="start" x="591.5" y="-18.5" font-family="Helvetica,sans-Serif" font-size="10.00">+ DupX2()</text>
<text text-anchor="start" x="591.5" y="-7.5" font-family="Helvetica,sans-Serif" font-size="10.00">+ execute()</text>
</a>
</g>
</g>
<!-- Node1&#45;&gt;Node8 -->
<g id="edge7" class="edge"><title>Node1&#45;&gt;Node8</title>
<path fill="none" stroke="midnightblue" d="M664.863,-107.231C660.083,-98.0179 655.194,-88.5967 650.66,-79.8576"/>
<polygon fill="none" stroke="midnightblue" points="661.877,-109.078 669.59,-116.342 668.091,-105.854 661.877,-109.078"/>
</g>
<!-- Node9 -->
<g id="node9" class="node"><title>Node9</title>
<g id="a_node9"><a xlink:href="../../d6/dc9/class_instructions_1_1_misc_1_1_nop.xhtml" target="_top" xlink:title=" ">
<polygon fill="none" stroke="black" points="696,-6 696,-74 813,-74 813,-6 696,-6"/>
<text text-anchor="middle" x="754.5" y="-62" font-family="Helvetica,sans-Serif" font-size="10.00">Instructions::Misc::Nop</text>
<polyline fill="none" stroke="black" points="696,-55 813,-55 "/>
<text text-anchor="middle" x="754.5" y="-43" font-family="Helvetica,sans-Serif" font-size="10.00"> </text>
<polyline fill="none" stroke="black" points="696,-36 813,-36 "/>
<text text-anchor="start" x="704" y="-24" font-family="Helvetica,sans-Serif" font-size="10.00">+ Nop()</text>
<text text-anchor="start" x="704" y="-13" font-family="Helvetica,sans-Serif" font-size="10.00">+ execute()</text>
</a>
</g>
</g>
<!-- Node1&#45;&gt;Node9 -->
<g id="edge8" class="edge"><title>Node1&#45;&gt;Node9</title>
<path fill="none" stroke="midnightblue" d="M720.063,-107.375C725.929,-96.0692 731.961,-84.4429 737.305,-74.1423"/>
<polygon fill="none" stroke="midnightblue" points="716.909,-105.854 715.41,-116.342 723.123,-109.078 716.909,-105.854"/>
</g>
<!-- Node10 -->
<g id="node10" class="node"><title>Node10</title>
<g id="a_node10"><a xlink:href="../../d1/dff/class_instructions_1_1_misc_1_1_pop.xhtml" target="_top" xlink:title=" ">
<polygon fill="none" stroke="black" points="831,-6 831,-74 948,-74 948,-6 831,-6"/>
<text text-anchor="middle" x="889.5" y="-62" font-family="Helvetica,sans-Serif" font-size="10.00">Instructions::Misc::Pop</text>
<polyline fill="none" stroke="black" points="831,-55 948,-55 "/>
<text text-anchor="middle" x="889.5" y="-43" font-family="Helvetica,sans-Serif" font-size="10.00"> </text>
<polyline fill="none" stroke="black" points="831,-36 948,-36 "/>
<text text-anchor="start" x="839" y="-24" font-family="Helvetica,sans-Serif" font-size="10.00">+ Pop()</text>
<text text-anchor="start" x="839" y="-13" font-family="Helvetica,sans-Serif" font-size="10.00">+ execute()</text>
</a>
</g>
</g>
<!-- Node1&#45;&gt;Node10 -->
<g id="edge9" class="edge"><title>Node1&#45;&gt;Node10</title>
<path fill="none" stroke="midnightblue" d="M753.177,-123.693C779.223,-107.894 809.429,-89.5713 834.778,-74.1944"/>
<polygon fill="none" stroke="midnightblue" points="751.252,-120.768 744.517,-128.946 754.882,-126.753 751.252,-120.768"/>
</g>
<!-- Node11 -->
<g id="node11" class="node"><title>Node11</title>
<g id="a_node11"><a xlink:href="../../df/d6d/class_instructions_1_1_misc_1_1_pop2.xhtml" target="_top" xlink:title=" ">
<polygon fill="none" stroke="black" points="966.5,-0.5 966.5,-79.5 1060.5,-79.5 1060.5,-0.5 966.5,-0.5"/>
<text text-anchor="start" x="974.5" y="-67.5" font-family="Helvetica,sans-Serif" font-size="10.00">Instructions::Misc</text>
<text text-anchor="middle" x="1013.5" y="-56.5" font-family="Helvetica,sans-Serif" font-size="10.00">::Pop2</text>
<polyline fill="none" stroke="black" points="966.5,-49.5 1060.5,-49.5 "/>
<text text-anchor="middle" x="1013.5" y="-37.5" font-family="Helvetica,sans-Serif" font-size="10.00"> </text>
<polyline fill="none" stroke="black" points="966.5,-30.5 1060.5,-30.5 "/>
<text text-anchor="start" x="974.5" y="-18.5" font-family="Helvetica,sans-Serif" font-size="10.00">+ Pop2()</text>
<text text-anchor="start" x="974.5" y="-7.5" font-family="Helvetica,sans-Serif" font-size="10.00">+ execute()</text>
</a>
</g>
</g>
<!-- Node1&#45;&gt;Node11 -->
<g id="edge10" class="edge"><title>Node1&#45;&gt;Node11</title>
<path fill="none" stroke="midnightblue" d="M754.553,-147.479C809.604,-134.583 891.318,-112.102 957.5,-80 960.485,-78.5522 963.486,-76.9546 966.466,-75.2573"/>
<polygon fill="none" stroke="midnightblue" points="753.552,-144.118 744.594,-149.775 755.125,-150.939 753.552,-144.118"/>
</g>
<!-- Node12 -->
<g id="node12" class="node"><title>Node12</title>
<g id="a_node12"><a xlink:href="../../d6/d05/class_instructions_1_1_misc_1_1_return.xhtml" target="_top" xlink:title=" ">
<polygon fill="none" stroke="black" points="1078.5,-0.5 1078.5,-79.5 1172.5,-79.5 1172.5,-0.5 1078.5,-0.5"/>
<text text-anchor="start" x="1086.5" y="-67.5" font-family="Helvetica,sans-Serif" font-size="10.00">Instructions::Misc</text>
<text text-anchor="middle" x="1125.5" y="-56.5" font-family="Helvetica,sans-Serif" font-size="10.00">::Return</text>
<polyline fill="none" stroke="black" points="1078.5,-49.5 1172.5,-49.5 "/>
<text text-anchor="middle" x="1125.5" y="-37.5" font-family="Helvetica,sans-Serif" font-size="10.00"> </text>
<polyline fill="none" stroke="black" points="1078.5,-30.5 1172.5,-30.5 "/>
<text text-anchor="start" x="1086.5" y="-18.5" font-family="Helvetica,sans-Serif" font-size="10.00">+ Return()</text>
<text text-anchor="start" x="1086.5" y="-7.5" font-family="Helvetica,sans-Serif" font-size="10.00">+ execute()</text>
</a>
</g>
</g>
<!-- Node1&#45;&gt;Node12 -->
<g id="edge11" class="edge"><title>Node1&#45;&gt;Node12</title>
<path fill="none" stroke="midnightblue" d="M754.77,-154.845C831.462,-146.183 964.468,-125.569 1069.5,-80 1072.43,-78.7268 1075.37,-77.2884 1078.28,-75.7337"/>
<polygon fill="none" stroke="midnightblue" points="754.347,-151.37 744.788,-155.94 755.11,-158.328 754.347,-151.37"/>
</g>
<!-- Node13 -->
<g id="node13" class="node"><title>Node13</title>
<g id="a_node13"><a xlink:href="../../da/df5/class_instructions_1_1_misc_1_1_swap.xhtml" target="_top" xlink:title=" ">
<polygon fill="none" stroke="black" points="1190.5,-0.5 1190.5,-79.5 1284.5,-79.5 1284.5,-0.5 1190.5,-0.5"/>
<text text-anchor="start" x="1198.5" y="-67.5" font-family="Helvetica,sans-Serif" font-size="10.00">Instructions::Misc</text>
<text text-anchor="middle" x="1237.5" y="-56.5" font-family="Helvetica,sans-Serif" font-size="10.00">::Swap</text>
<polyline fill="none" stroke="black" points="1190.5,-49.5 1284.5,-49.5 "/>
<text text-anchor="middle" x="1237.5" y="-37.5" font-family="Helvetica,sans-Serif" font-size="10.00"> </text>
<polyline fill="none" stroke="black" points="1190.5,-30.5 1284.5,-30.5 "/>
<text text-anchor="start" x="1198.5" y="-18.5" font-family="Helvetica,sans-Serif" font-size="10.00">+ Swap()</text>
<text text-anchor="start" x="1198.5" y="-7.5" font-family="Helvetica,sans-Serif" font-size="10.00">+ execute()</text>
</a>
</g>
</g>
<!-- Node1&#45;&gt;Node13 -->
<g id="edge12" class="edge"><title>Node1&#45;&gt;Node13</title>
<path fill="none" stroke="midnightblue" d="M754.909,-158.986C850.234,-154.768 1036.33,-138.953 1181.5,-80 1184.46,-78.7964 1187.43,-77.4129 1190.35,-75.9008"/>
<polygon fill="none" stroke="midnightblue" points="754.703,-155.492 744.856,-159.403 754.993,-162.486 754.703,-155.492"/>
</g>
<!-- Node14 -->
<g id="node14" class="node"><title>Node14</title>
<g id="a_node14"><a xlink:href="../../dd/d79/class_instructions_1_1_misc_1_1_wide.xhtml" target="_top" xlink:title=" ">
<polygon fill="none" stroke="black" points="1302.5,-0.5 1302.5,-79.5 1396.5,-79.5 1396.5,-0.5 1302.5,-0.5"/>
<text text-anchor="start" x="1310.5" y="-67.5" font-family="Helvetica,sans-Serif" font-size="10.00">Instructions::Misc</text>
<text text-anchor="middle" x="1349.5" y="-56.5" font-family="Helvetica,sans-Serif" font-size="10.00">::Wide</text>
<polyline fill="none" stroke="black" points="1302.5,-49.5 1396.5,-49.5 "/>
<text text-anchor="middle" x="1349.5" y="-37.5" font-family="Helvetica,sans-Serif" font-size="10.00"> </text>
<polyline fill="none" stroke="black" points="1302.5,-30.5 1396.5,-30.5 "/>
<text text-anchor="start" x="1310.5" y="-18.5" font-family="Helvetica,sans-Serif" font-size="10.00">+ Wide()</text>
<text text-anchor="start" x="1310.5" y="-7.5" font-family="Helvetica,sans-Serif" font-size="10.00">+ execute()</text>
</a>
</g>
</g>
<!-- Node1&#45;&gt;Node14 -->
<g id="edge13" class="edge"><title>Node1&#45;&gt;Node14</title>
<path fill="none" stroke="midnightblue" d="M754.947,-155.882C888.176,-145.425 1196.08,-117.869 1293.5,-80 1296.48,-78.841 1299.46,-77.4927 1302.39,-76.0079"/>
<polygon fill="none" stroke="midnightblue" points="754.595,-152.399 744.896,-156.664 755.138,-159.378 754.595,-152.399"/>
</g>
<!-- Node2 -->
<g id="node2" class="node"><title>Node2</title>
<g id="a_node2"><a xlink:href="../../d4/da8/class_instructions_1_1_instruction.xhtml" target="_top" xlink:title=" ">
<polygon fill="none" stroke="black" points="633.5,-243.5 633.5,-344.5 751.5,-344.5 751.5,-243.5 633.5,-243.5"/>
<text text-anchor="middle" x="692.5" y="-332.5" font-family="Helvetica,sans-Serif" font-size="10.00">Instructions::Instruction</text>
<polyline fill="none" stroke="black" points="633.5,-325.5 751.5,-325.5 "/>
<text text-anchor="start" x="641.5" y="-313.5" font-family="Helvetica,sans-Serif" font-size="10.00">+ opcode</text>
<polyline fill="none" stroke="black" points="633.5,-306.5 751.5,-306.5 "/>
<text text-anchor="start" x="641.5" y="-294.5" font-family="Helvetica,sans-Serif" font-size="10.00">+ Instruction()</text>
<text text-anchor="start" x="641.5" y="-283.5" font-family="Helvetica,sans-Serif" font-size="10.00">+ ~Instruction()</text>
<text text-anchor="start" x="641.5" y="-272.5" font-family="Helvetica,sans-Serif" font-size="10.00">+ execute()</text>
<text text-anchor="start" x="641.5" y="-261.5" font-family="Helvetica,sans-Serif" font-size="10.00">+ toBytecode()</text>
<text text-anchor="start" x="641.5" y="-250.5" font-family="Helvetica,sans-Serif" font-size="10.00">+ toBytecode_json()</text>
</a>
</g>
</g>
<!-- Node2&#45;&gt;Node1 -->
<g id="edge1" class="edge"><title>Node2&#45;&gt;Node1</title>
<path fill="none" stroke="midnightblue" d="M692.5,-233.232C692.5,-224.236 692.5,-215.101 692.5,-206.516"/>
<polygon fill="none" stroke="midnightblue" points="689,-233.291 692.5,-243.291 696,-233.291 689,-233.291"/>
</g>
</g>
</svg>
