<?xml version="1.0" encoding="UTF-8" standalone="no"?>
<!DOCTYPE svg PUBLIC "-//W3C//DTD SVG 1.1//EN"
 "http://www.w3.org/Graphics/SVG/1.1/DTD/svg11.dtd">
<!-- Generated by graphviz version 2.38.0 (20140413.2041)
 -->
<!-- Title: include/utils/string.h Pages: 1 -->
<svg width="1510pt" height="95pt"
 viewBox="0.00 0.00 1510.00 95.00" xmlns="http://www.w3.org/2000/svg" xmlns:xlink="http://www.w3.org/1999/xlink">
<g id="graph0" class="graph" transform="scale(1 1) rotate(0) translate(4 91)">
<title>include/utils/string.h</title>
<!-- Node1 -->
<g id="node1" class="node"><title>Node1</title>
<g id="a_node1"><a xlink:title=" ">
<polygon fill="#bfbfbf" stroke="black" points="700,-67.5 700,-86.5 804,-86.5 804,-67.5 700,-67.5"/>
<text text-anchor="middle" x="752" y="-74.5" font-family="Helvetica,sans-Serif" font-size="10.00">include/utils/string.h</text>
</a>
</g>
</g>
<!-- Node2 -->
<g id="node2" class="node"><title>Node2</title>
<g id="a_node2"><a xlink:href="../../db/d6e/branch_8h.xhtml" target="_top" xlink:title=" ">
<polygon fill="none" stroke="black" points="0,-0.5 0,-30.5 124,-30.5 124,-0.5 0,-0.5"/>
<text text-anchor="start" x="8" y="-18.5" font-family="Helvetica,sans-Serif" font-size="10.00">include/instructions</text>
<text text-anchor="middle" x="62" y="-7.5" font-family="Helvetica,sans-Serif" font-size="10.00">/instruction_set/branch.h</text>
</a>
</g>
</g>
<!-- Node1&#45;&gt;Node2 -->
<g id="edge1" class="edge"><title>Node1&#45;&gt;Node2</title>
<path fill="none" stroke="midnightblue" d="M689.914,-74.1339C578.093,-70.1849 335.616,-58.936 133,-31 130.134,-30.6048 127.209,-30.1635 124.26,-29.6877"/>
<polygon fill="midnightblue" stroke="midnightblue" points="689.884,-77.6348 699.999,-74.4826 690.126,-70.639 689.884,-77.6348"/>
</g>
<!-- Node3 -->
<g id="node3" class="node"><title>Node3</title>
<g id="a_node3"><a xlink:href="../../d6/d00/byte_8h.xhtml" target="_top" xlink:title=" ">
<polygon fill="none" stroke="black" points="142.5,-0.5 142.5,-30.5 255.5,-30.5 255.5,-0.5 142.5,-0.5"/>
<text text-anchor="start" x="150.5" y="-18.5" font-family="Helvetica,sans-Serif" font-size="10.00">include/instructions</text>
<text text-anchor="middle" x="199" y="-7.5" font-family="Helvetica,sans-Serif" font-size="10.00">/instruction_set/byte.h</text>
</a>
</g>
</g>
<!-- Node1&#45;&gt;Node3 -->
<g id="edge2" class="edge"><title>Node1&#45;&gt;Node3</title>
<path fill="none" stroke="midnightblue" d="M689.635,-72.8014C596.54,-67.4511 415.903,-54.8472 264,-31 261.259,-30.5696 258.46,-30.0925 255.639,-29.5812"/>
<polygon fill="midnightblue" stroke="midnightblue" points="689.548,-76.302 699.73,-73.3727 689.944,-69.3132 689.548,-76.302"/>
</g>
<!-- Node4 -->
<g id="node4" class="node"><title>Node4</title>
<g id="a_node4"><a xlink:href="../../d9/d6e/double_8h.xhtml" target="_top" xlink:title=" ">
<polygon fill="none" stroke="black" points="273.5,-0.5 273.5,-30.5 396.5,-30.5 396.5,-0.5 273.5,-0.5"/>
<text text-anchor="start" x="281.5" y="-18.5" font-family="Helvetica,sans-Serif" font-size="10.00">include/instructions</text>
<text text-anchor="middle" x="335" y="-7.5" font-family="Helvetica,sans-Serif" font-size="10.00">/instruction_set/double.h</text>
</a>
</g>
</g>
<!-- Node1&#45;&gt;Node4 -->
<g id="edge3" class="edge"><title>Node1&#45;&gt;Node4</title>
<path fill="none" stroke="midnightblue" d="M689.44,-69.3229C619.797,-61.5564 504.005,-47.6494 405,-31 402.307,-30.5472 399.561,-30.0651 396.789,-29.5622"/>
<polygon fill="midnightblue" stroke="midnightblue" points="689.467,-72.8473 699.792,-70.47 690.238,-65.8898 689.467,-72.8473"/>
</g>
<!-- Node5 -->
<g id="node5" class="node"><title>Node5</title>
<g id="a_node5"><a xlink:href="../../d7/dab/float_8h.xhtml" target="_top" xlink:title=" ">
<polygon fill="none" stroke="black" points="414.5,-0.5 414.5,-30.5 527.5,-30.5 527.5,-0.5 414.5,-0.5"/>
<text text-anchor="start" x="422.5" y="-18.5" font-family="Helvetica,sans-Serif" font-size="10.00">include/instructions</text>
<text text-anchor="middle" x="471" y="-7.5" font-family="Helvetica,sans-Serif" font-size="10.00">/instruction_set/float.h</text>
</a>
</g>
</g>
<!-- Node1&#45;&gt;Node5 -->
<g id="edge4" class="edge"><title>Node1&#45;&gt;Node5</title>
<path fill="none" stroke="midnightblue" d="M700.965,-65.467C657.383,-56.4367 593.04,-43.0202 537,-31 533.903,-30.3357 530.725,-29.6502 527.518,-28.9554"/>
<polygon fill="midnightblue" stroke="midnightblue" points="700.255,-68.8943 710.757,-67.4947 701.675,-62.0397 700.255,-68.8943"/>
</g>
<!-- Node6 -->
<g id="node6" class="node"><title>Node6</title>
<g id="a_node6"><a xlink:href="../../d6/d3d/integer_8h.xhtml" target="_top" xlink:title=" ">
<polygon fill="none" stroke="black" points="546,-0.5 546,-30.5 670,-30.5 670,-0.5 546,-0.5"/>
<text text-anchor="start" x="554" y="-18.5" font-family="Helvetica,sans-Serif" font-size="10.00">include/instructions</text>
<text text-anchor="middle" x="608" y="-7.5" font-family="Helvetica,sans-Serif" font-size="10.00">/instruction_set/integer.h</text>
</a>
</g>
</g>
<!-- Node1&#45;&gt;Node6 -->
<g id="edge5" class="edge"><title>Node1&#45;&gt;Node6</title>
<path fill="none" stroke="midnightblue" d="M721.966,-63.5899C698.617,-53.9425 666.223,-40.5575 641.938,-30.523"/>
<polygon fill="midnightblue" stroke="midnightblue" points="720.79,-66.891 731.368,-67.4751 723.463,-60.4215 720.79,-66.891"/>
</g>
<!-- Node7 -->
<g id="node7" class="node"><title>Node7</title>
<g id="a_node7"><a xlink:href="../../de/d3b/invokes_8h.xhtml" target="_top" xlink:title=" ">
<polygon fill="none" stroke="black" points="688.5,-0.5 688.5,-30.5 815.5,-30.5 815.5,-0.5 688.5,-0.5"/>
<text text-anchor="start" x="696.5" y="-18.5" font-family="Helvetica,sans-Serif" font-size="10.00">include/instructions</text>
<text text-anchor="middle" x="752" y="-7.5" font-family="Helvetica,sans-Serif" font-size="10.00">/instruction_set/invokes.h</text>
</a>
</g>
</g>
<!-- Node1&#45;&gt;Node7 -->
<g id="edge6" class="edge"><title>Node1&#45;&gt;Node7</title>
<path fill="none" stroke="midnightblue" d="M752,-57.2349C752,-48.5864 752,-38.4969 752,-30.523"/>
<polygon fill="midnightblue" stroke="midnightblue" points="748.5,-57.4751 752,-67.4751 755.5,-57.4751 748.5,-57.4751"/>
</g>
<!-- Node8 -->
<g id="node8" class="node"><title>Node8</title>
<g id="a_node8"><a xlink:href="../../dd/d28/jump_8h.xhtml" target="_top" xlink:title=" ">
<polygon fill="none" stroke="black" points="834,-0.5 834,-30.5 950,-30.5 950,-0.5 834,-0.5"/>
<text text-anchor="start" x="842" y="-18.5" font-family="Helvetica,sans-Serif" font-size="10.00">include/instructions</text>
<text text-anchor="middle" x="892" y="-7.5" font-family="Helvetica,sans-Serif" font-size="10.00">/instruction_set/jump.h</text>
</a>
</g>
</g>
<!-- Node1&#45;&gt;Node8 -->
<g id="edge7" class="edge"><title>Node1&#45;&gt;Node8</title>
<path fill="none" stroke="midnightblue" d="M781.505,-63.4605C804.181,-53.823 835.499,-40.5127 859.005,-30.523"/>
<polygon fill="midnightblue" stroke="midnightblue" points="779.893,-60.3425 772.059,-67.4751 782.631,-66.7848 779.893,-60.3425"/>
</g>
<!-- Node9 -->
<g id="node9" class="node"><title>Node9</title>
<g id="a_node9"><a xlink:href="../../dc/da6/long_8h.xhtml" target="_top" xlink:title=" ">
<polygon fill="none" stroke="black" points="968.5,-0.5 968.5,-30.5 1081.5,-30.5 1081.5,-0.5 968.5,-0.5"/>
<text text-anchor="start" x="976.5" y="-18.5" font-family="Helvetica,sans-Serif" font-size="10.00">include/instructions</text>
<text text-anchor="middle" x="1025" y="-7.5" font-family="Helvetica,sans-Serif" font-size="10.00">/instruction_set/long.h</text>
</a>
</g>
</g>
<!-- Node1&#45;&gt;Node9 -->
<g id="edge8" class="edge"><title>Node1&#45;&gt;Node9</title>
<path fill="none" stroke="midnightblue" d="M801.257,-65.3238C843.201,-56.2251 905.063,-42.7876 959,-31 962.094,-30.3237 965.27,-29.6288 968.476,-28.9267"/>
<polygon fill="midnightblue" stroke="midnightblue" points="800.335,-61.9424 791.304,-67.4826 801.818,-68.7834 800.335,-61.9424"/>
</g>
<!-- Node10 -->
<g id="node10" class="node"><title>Node10</title>
<g id="a_node10"><a xlink:href="../../d4/d08/misc_8h.xhtml" target="_top" xlink:title=" ">
<polygon fill="none" stroke="black" points="1100,-0.5 1100,-30.5 1216,-30.5 1216,-0.5 1100,-0.5"/>
<text text-anchor="start" x="1108" y="-18.5" font-family="Helvetica,sans-Serif" font-size="10.00">include/instructions</text>
<text text-anchor="middle" x="1158" y="-7.5" font-family="Helvetica,sans-Serif" font-size="10.00">/instruction_set/misc.h</text>
</a>
</g>
</g>
<!-- Node1&#45;&gt;Node10 -->
<g id="edge9" class="edge"><title>Node1&#45;&gt;Node10</title>
<path fill="none" stroke="midnightblue" d="M814.32,-69.2637C882.5,-61.5367 994.894,-47.7498 1091,-31 1093.93,-30.4892 1096.93,-29.9398 1099.95,-29.3643"/>
<polygon fill="midnightblue" stroke="midnightblue" points="813.724,-65.8086 804.178,-70.4053 814.507,-72.7647 813.724,-65.8086"/>
</g>
<!-- Node11 -->
<g id="node11" class="node"><title>Node11</title>
<g id="a_node11"><a xlink:href="../../d1/d70/reference_8h.xhtml" target="_top" xlink:title=" ">
<polygon fill="none" stroke="black" points="1234,-0.5 1234,-30.5 1368,-30.5 1368,-0.5 1234,-0.5"/>
<text text-anchor="start" x="1242" y="-18.5" font-family="Helvetica,sans-Serif" font-size="10.00">include/instructions</text>
<text text-anchor="middle" x="1301" y="-7.5" font-family="Helvetica,sans-Serif" font-size="10.00">/instruction_set/reference.h</text>
</a>
</g>
</g>
<!-- Node1&#45;&gt;Node11 -->
<g id="edge10" class="edge"><title>Node1&#45;&gt;Node11</title>
<path fill="none" stroke="midnightblue" d="M814.446,-71.9307C905.159,-65.5957 1078.55,-51.8904 1225,-31 1227.93,-30.5827 1230.91,-30.13 1233.92,-29.6512"/>
<polygon fill="midnightblue" stroke="midnightblue" points="814.068,-68.4485 804.333,-72.6303 814.551,-75.4318 814.068,-68.4485"/>
</g>
<!-- Node12 -->
<g id="node12" class="node"><title>Node12</title>
<g id="a_node12"><a xlink:href="../../de/d05/short_8h.xhtml" target="_top" xlink:title=" ">
<polygon fill="none" stroke="black" points="1386,-0.5 1386,-30.5 1502,-30.5 1502,-0.5 1386,-0.5"/>
<text text-anchor="start" x="1394" y="-18.5" font-family="Helvetica,sans-Serif" font-size="10.00">include/instructions</text>
<text text-anchor="middle" x="1444" y="-7.5" font-family="Helvetica,sans-Serif" font-size="10.00">/instruction_set/short.h</text>
</a>
</g>
</g>
<!-- Node1&#45;&gt;Node12 -->
<g id="edge11" class="edge"><title>Node1&#45;&gt;Node12</title>
<path fill="none" stroke="midnightblue" d="M814.29,-74.4264C927.054,-70.9317 1172.33,-60.3657 1377,-31 1379.95,-30.5774 1382.95,-30.0991 1385.99,-29.58"/>
<polygon fill="midnightblue" stroke="midnightblue" points="814.011,-70.9331 804.121,-74.7333 814.223,-77.9299 814.011,-70.9331"/>
</g>
</g>
</svg>
