<?xml version="1.0" encoding="UTF-8" standalone="no"?>
<!DOCTYPE svg PUBLIC "-//W3C//DTD SVG 1.1//EN"
 "http://www.w3.org/Graphics/SVG/1.1/DTD/svg11.dtd">
<!-- Generated by graphviz version 2.38.0 (20140413.2041)
 -->
<!-- Title: Utils::ConstantPool::CONSTANT_Double_info Pages: 1 -->
<svg width="213pt" height="364pt"
 viewBox="0.00 0.00 212.50 364.00" xmlns="http://www.w3.org/2000/svg" xmlns:xlink="http://www.w3.org/1999/xlink">
<g id="graph0" class="graph" transform="scale(1 1) rotate(0) translate(4 360)">
<title>Utils::ConstantPool::CONSTANT_Double_info</title>
<!-- Node1 -->
<g id="node1" class="node"><title>Node1</title>
<g id="a_node1"><a xlink:title=" ">
<polygon fill="#bfbfbf" stroke="black" points="59.5,-0.5 59.5,-101.5 204.5,-101.5 204.5,-0.5 59.5,-0.5"/>
<text text-anchor="start" x="67.5" y="-89.5" font-family="Helvetica,sans-Serif" font-size="10.00">Utils::ConstantPool</text>
<text text-anchor="middle" x="132" y="-78.5" font-family="Helvetica,sans-Serif" font-size="10.00">::CONSTANT_Double_info</text>
<polyline fill="none" stroke="black" points="59.5,-71.5 204.5,-71.5 "/>
<text text-anchor="middle" x="132" y="-59.5" font-family="Helvetica,sans-Serif" font-size="10.00"> </text>
<polyline fill="none" stroke="black" points="59.5,-52.5 204.5,-52.5 "/>
<text text-anchor="start" x="67.5" y="-40.5" font-family="Helvetica,sans-Serif" font-size="10.00">+ CONSTANT_Double_info()</text>
<text text-anchor="start" x="67.5" y="-29.5" font-family="Helvetica,sans-Serif" font-size="10.00">+ ~CONSTANT_Double_info()</text>
<text text-anchor="start" x="67.5" y="-18.5" font-family="Helvetica,sans-Serif" font-size="10.00">+ getValue()</text>
<text text-anchor="start" x="67.5" y="-7.5" font-family="Helvetica,sans-Serif" font-size="10.00">+ getGeneralInfo()</text>
</a>
</g>
</g>
<!-- Node2 -->
<g id="node2" class="node"><title>Node2</title>
<g id="a_node2"><a xlink:href="../../d7/d7d/class_utils_1_1_constant_pool_1_1_base_constant_info.xhtml" target="_top" xlink:title=" ">
<polygon fill="none" stroke="black" points="0,-160.5 0,-250.5 114,-250.5 114,-160.5 0,-160.5"/>
<text text-anchor="start" x="8" y="-238.5" font-family="Helvetica,sans-Serif" font-size="10.00">Utils::ConstantPool</text>
<text text-anchor="middle" x="57" y="-227.5" font-family="Helvetica,sans-Serif" font-size="10.00">::BaseConstantInfo</text>
<polyline fill="none" stroke="black" points="0,-220.5 114,-220.5 "/>
<text text-anchor="middle" x="57" y="-208.5" font-family="Helvetica,sans-Serif" font-size="10.00"> </text>
<polyline fill="none" stroke="black" points="0,-201.5 114,-201.5 "/>
<text text-anchor="start" x="8" y="-189.5" font-family="Helvetica,sans-Serif" font-size="10.00">+ BaseConstantInfo()</text>
<text text-anchor="start" x="8" y="-178.5" font-family="Helvetica,sans-Serif" font-size="10.00">+ BaseConstantInfo()</text>
<text text-anchor="start" x="8" y="-167.5" font-family="Helvetica,sans-Serif" font-size="10.00">+ ~BaseConstantInfo()</text>
</a>
</g>
</g>
<!-- Node2&#45;&gt;Node1 -->
<g id="edge1" class="edge"><title>Node2&#45;&gt;Node1</title>
<path fill="none" stroke="midnightblue" d="M83.2525,-151.12C91.1611,-135.039 99.8051,-117.463 107.589,-101.636"/>
<polygon fill="none" stroke="midnightblue" points="79.9656,-149.873 78.6931,-160.391 86.2471,-152.962 79.9656,-149.873"/>
</g>
<!-- Node3 -->
<g id="node3" class="node"><title>Node3</title>
<g id="a_node3"><a xlink:title=" ">
<polygon fill="none" stroke="#bfbfbf" points="34,-298.5 34,-355.5 80,-355.5 80,-298.5 34,-298.5"/>
<text text-anchor="middle" x="57" y="-343.5" font-family="Helvetica,sans-Serif" font-size="10.00">uint8_t</text>
<polyline fill="none" stroke="#bfbfbf" points="34,-336.5 80,-336.5 "/>
<text text-anchor="middle" x="57" y="-324.5" font-family="Helvetica,sans-Serif" font-size="10.00"> </text>
<polyline fill="none" stroke="#bfbfbf" points="34,-317.5 80,-317.5 "/>
<text text-anchor="middle" x="57" y="-305.5" font-family="Helvetica,sans-Serif" font-size="10.00"> </text>
</a>
</g>
</g>
<!-- Node3&#45;&gt;Node2 -->
<g id="edge2" class="edge"><title>Node3&#45;&gt;Node2</title>
<path fill="none" stroke="#404040" d="M57,-298.284C57,-287.735 57,-275.294 57,-263.035"/>
<polygon fill="none" stroke="#404040" points="57.0001,-262.912 53,-256.912 57,-250.912 61,-256.912 57.0001,-262.912"/>
<text text-anchor="middle" x="68.5" y="-272" font-family="Helvetica,sans-Serif" font-size="10.00"> +tag</text>
</g>
<!-- Node4 -->
<g id="node4" class="node"><title>Node4</title>
<g id="a_node4"><a xlink:title=" ">
<polygon fill="none" stroke="#bfbfbf" points="132.5,-177 132.5,-234 183.5,-234 183.5,-177 132.5,-177"/>
<text text-anchor="middle" x="158" y="-222" font-family="Helvetica,sans-Serif" font-size="10.00">uint32_t</text>
<polyline fill="none" stroke="#bfbfbf" points="132.5,-215 183.5,-215 "/>
<text text-anchor="middle" x="158" y="-203" font-family="Helvetica,sans-Serif" font-size="10.00"> </text>
<polyline fill="none" stroke="#bfbfbf" points="132.5,-196 183.5,-196 "/>
<text text-anchor="middle" x="158" y="-184" font-family="Helvetica,sans-Serif" font-size="10.00"> </text>
</a>
</g>
</g>
<!-- Node4&#45;&gt;Node1 -->
<g id="edge3" class="edge"><title>Node4&#45;&gt;Node1</title>
<path fill="none" stroke="#404040" d="M153.292,-176.883C150.279,-159.213 146.246,-135.561 142.502,-113.595"/>
<polygon fill="none" stroke="#404040" points="142.476,-113.444 137.524,-108.201 140.459,-101.614 145.41,-106.857 142.476,-113.444"/>
<text text-anchor="middle" x="175" y="-134" font-family="Helvetica,sans-Serif" font-size="10.00"> +low_bytes</text>
<text text-anchor="middle" x="175" y="-123" font-family="Helvetica,sans-Serif" font-size="10.00">+high_bytes</text>
</g>
</g>
</svg>
