<?xml version="1.0" encoding="UTF-8" standalone="no"?>
<!DOCTYPE svg PUBLIC "-//W3C//DTD SVG 1.1//EN"
 "http://www.w3.org/Graphics/SVG/1.1/DTD/svg11.dtd">
<!-- Generated by graphviz version 2.38.0 (20140413.2041)
 -->
<!-- Title: include/utils/memory_areas/java_stack.h Pages: 1 -->
<!--zoomable 319 -->
<svg id="main" version="1.1" xmlns="http://www.w3.org/2000/svg" xmlns:xlink="http://www.w3.org/1999/xlink" xml:space="preserve" onload="init(evt)">
<style type="text/css"><![CDATA[
.edge:hover path { stroke: red; }
.edge:hover polygon { stroke: red; fill: red; }
]]></style>
<script type="text/javascript"><![CDATA[
var edges = document.getElementsByTagName('g');
if (edges && edges.length) {
  for (var i=0;i<edges.length;i++) {
    if (edges[i].id.substr(0,4)=='edge') {
      edges[i].setAttribute('class','edge');
    }
  }
}
]]></script>
        <defs>
                <circle id="rim" cx="0" cy="0" r="7"/>
                <circle id="rim2" cx="0" cy="0" r="3.5"/>
                <g id="zoomPlus">
                        <use xlink:href="#rim" fill="#404040">
                                <set attributeName="fill" to="#808080" begin="zoomplus.mouseover" end="zoomplus.mouseout"/>
                        </use>
                        <path d="M-4,0h8M0,-4v8" fill="none" stroke="white" stroke-width="1.5" pointer-events="none"/>
                </g>
                <g id="zoomMin">
                        <use xlink:href="#rim" fill="#404040">
                                <set attributeName="fill" to="#808080" begin="zoomminus.mouseover" end="zoomminus.mouseout"/>
                        </use>
                        <path d="M-4,0h8" fill="none" stroke="white" stroke-width="1.5" pointer-events="none"/>
                </g>
                <g id="dirArrow">
                        <path fill="none" stroke="white" stroke-width="1.5" d="M0,-3.0v7 M-2.5,-0.5L0,-3.0L2.5,-0.5"/>
                </g>
               <g id="resetDef">
                       <use xlink:href="#rim2" fill="#404040">
                               <set attributeName="fill" to="#808080" begin="reset.mouseover" end="reset.mouseout"/>
                       </use>
               </g>
        </defs>

<script type="text/javascript">
var viewWidth = 667;
var viewHeight = 319;
var sectionId = 'dynsection-0';
</script>
<script xlink:href="../../svgpan.js"/>
<svg id="graph" class="graph">
<g id="viewport">
<title>include/utils/memory_areas/java_stack.h</title>
<!-- Node1 -->
<g id="node1" class="node"><title>Node1</title>
<g id="a_node1"><a xlink:title=" ">
<polygon fill="#bfbfbf" stroke="black" points="300.5,-280.5 300.5,-310.5 407.5,-310.5 407.5,-280.5 300.5,-280.5"/>
<text text-anchor="start" x="308.5" y="-298.5" font-family="Helvetica,sans-Serif" font-size="10.00">include/utils/memory</text>
<text text-anchor="middle" x="354" y="-287.5" font-family="Helvetica,sans-Serif" font-size="10.00">_areas/java_stack.h</text>
</a>
</g>
</g>
<!-- Node2 -->
<g id="node2" class="node"><title>Node2</title>
<g id="a_node2"><a xlink:title=" ">
<polygon fill="none" stroke="#bfbfbf" points="305.5,-112.5 305.5,-131.5 346.5,-131.5 346.5,-112.5 305.5,-112.5"/>
<text text-anchor="middle" x="326" y="-119.5" font-family="Helvetica,sans-Serif" font-size="10.00">stack</text>
</a>
</g>
</g>
<!-- Node1&#45;&gt;Node2 -->
<g id="edge1" class="edge"><title>Node1&#45;&gt;Node2</title>
<path fill="none" stroke="midnightblue" d="M358.636,-280.332C365.684,-256.392 376.888,-206.759 363,-168 359.059,-157.003 351.143,-146.769 343.64,-138.848"/>
<polygon fill="midnightblue" stroke="midnightblue" points="346.019,-136.278 336.438,-131.755 341.108,-141.266 346.019,-136.278"/>
</g>
<!-- Node3 -->
<g id="node3" class="node"><title>Node3</title>
<g id="a_node3"><a xlink:href="../../df/d7d/frame_8h.xhtml" target="_top" xlink:title=" ">
<polygon fill="none" stroke="black" points="268,-224.5 268,-243.5 338,-243.5 338,-224.5 268,-224.5"/>
<text text-anchor="middle" x="303" y="-231.5" font-family="Helvetica,sans-Serif" font-size="10.00">utils/frame.h</text>
</a>
</g>
</g>
<!-- Node1&#45;&gt;Node3 -->
<g id="edge2" class="edge"><title>Node1&#45;&gt;Node3</title>
<path fill="none" stroke="midnightblue" d="M341.914,-280.399C334.426,-271.664 324.782,-260.413 316.968,-251.296"/>
<polygon fill="midnightblue" stroke="midnightblue" points="319.586,-248.973 310.421,-243.658 314.271,-253.528 319.586,-248.973"/>
</g>
<!-- Node3&#45;&gt;Node2 -->
<g id="edge3" class="edge"><title>Node3&#45;&gt;Node2</title>
<path fill="none" stroke="midnightblue" d="M315.781,-224.369C326.394,-216.36 340.731,-203.379 347,-188 353.484,-172.094 345.908,-153.379 338.107,-140.125"/>
<polygon fill="midnightblue" stroke="midnightblue" points="340.944,-138.067 332.584,-131.558 335.061,-141.86 340.944,-138.067"/>
</g>
<!-- Node4 -->
<g id="node4" class="node"><title>Node4</title>
<g id="a_node4"><a xlink:title=" ">
<polygon fill="none" stroke="#bfbfbf" points="0,-56.5 0,-75.5 42,-75.5 42,-56.5 0,-56.5"/>
<text text-anchor="middle" x="21" y="-63.5" font-family="Helvetica,sans-Serif" font-size="10.00">vector</text>
</a>
</g>
</g>
<!-- Node3&#45;&gt;Node4 -->
<g id="edge4" class="edge"><title>Node3&#45;&gt;Node4</title>
<path fill="none" stroke="midnightblue" d="M267.784,-229.978C225.716,-225.325 154.004,-214.04 98,-188 60.9208,-170.76 44.2064,-168.1 25,-132 17.4493,-117.808 17.0522,-99.3289 18.1916,-85.7034"/>
<polygon fill="midnightblue" stroke="midnightblue" points="21.6877,-85.942 19.3867,-75.6 14.7362,-85.1196 21.6877,-85.942"/>
</g>
<!-- Node5 -->
<g id="node5" class="node"><title>Node5</title>
<g id="a_node5"><a xlink:href="../../d0/d36/constant_pool_8h.xhtml" target="_top" xlink:title=" ">
<polygon fill="none" stroke="black" points="107.5,-168.5 107.5,-187.5 210.5,-187.5 210.5,-168.5 107.5,-168.5"/>
<text text-anchor="middle" x="159" y="-175.5" font-family="Helvetica,sans-Serif" font-size="10.00">utils/constantPool.h</text>
</a>
</g>
</g>
<!-- Node3&#45;&gt;Node5 -->
<g id="edge5" class="edge"><title>Node3&#45;&gt;Node5</title>
<path fill="none" stroke="midnightblue" d="M280.183,-224.444C256.168,-215.438 218.171,-201.189 191.131,-191.049"/>
<polygon fill="midnightblue" stroke="midnightblue" points="192.303,-187.751 181.71,-187.516 189.845,-194.305 192.303,-187.751"/>
</g>
<!-- Node8 -->
<g id="node8" class="node"><title>Node8</title>
<g id="a_node8"><a xlink:href="../../d9/d49/types_8h.xhtml" target="_top" xlink:title=" ">
<polygon fill="none" stroke="black" points="128,-56.5 128,-75.5 198,-75.5 198,-56.5 128,-56.5"/>
<text text-anchor="middle" x="163" y="-63.5" font-family="Helvetica,sans-Serif" font-size="10.00">utils/types.h</text>
</a>
</g>
</g>
<!-- Node3&#45;&gt;Node8 -->
<g id="edge23" class="edge"><title>Node3&#45;&gt;Node8</title>
<path fill="none" stroke="midnightblue" d="M293.71,-224.341C284.375,-215.498 269.729,-201.226 258,-188 226.555,-152.543 193.059,-108.105 175.463,-84.1719"/>
<polygon fill="midnightblue" stroke="midnightblue" points="178.066,-81.8011 169.338,-75.7938 172.415,-85.9323 178.066,-81.8011"/>
</g>
<!-- Node10 -->
<g id="node10" class="node"><title>Node10</title>
<g id="a_node10"><a xlink:href="../../de/d45/errors_8h.xhtml" target="_top" xlink:title=" ">
<polygon fill="none" stroke="black" points="267.5,-168.5 267.5,-187.5 338.5,-187.5 338.5,-168.5 267.5,-168.5"/>
<text text-anchor="middle" x="303" y="-175.5" font-family="Helvetica,sans-Serif" font-size="10.00">utils/errors.h</text>
</a>
</g>
</g>
<!-- Node3&#45;&gt;Node10 -->
<g id="edge14" class="edge"><title>Node3&#45;&gt;Node10</title>
<path fill="none" stroke="midnightblue" d="M303,-224.083C303,-217.006 303,-206.861 303,-197.986"/>
<polygon fill="midnightblue" stroke="midnightblue" points="306.5,-197.751 303,-187.751 299.5,-197.751 306.5,-197.751"/>
</g>
<!-- Node11 -->
<g id="node11" class="node"><title>Node11</title>
<g id="a_node11"><a xlink:href="../../df/d8d/any_8h.xhtml" target="_top" xlink:title=" ">
<polygon fill="none" stroke="black" points="437.5,-168.5 437.5,-187.5 536.5,-187.5 536.5,-168.5 437.5,-168.5"/>
<text text-anchor="middle" x="487" y="-175.5" font-family="Helvetica,sans-Serif" font-size="10.00">utils/external/any.h</text>
</a>
</g>
</g>
<!-- Node3&#45;&gt;Node11 -->
<g id="edge17" class="edge"><title>Node3&#45;&gt;Node11</title>
<path fill="none" stroke="midnightblue" d="M332.155,-224.444C363.513,-215.241 413.531,-200.562 448.197,-190.388"/>
<polygon fill="midnightblue" stroke="midnightblue" points="449.371,-193.691 457.981,-187.516 447.4,-186.974 449.371,-193.691"/>
</g>
<!-- Node5&#45;&gt;Node4 -->
<g id="edge7" class="edge"><title>Node5&#45;&gt;Node4</title>
<path fill="none" stroke="midnightblue" d="M107.676,-168.461C84.1456,-162.088 57.6301,-151.045 40,-132 28.4044,-119.473 23.8501,-100.248 22.0801,-85.9521"/>
<polygon fill="midnightblue" stroke="midnightblue" points="25.5464,-85.4168 21.1761,-75.7654 18.5738,-86.0357 25.5464,-85.4168"/>
</g>
<!-- Node6 -->
<g id="node6" class="node"><title>Node6</title>
<g id="a_node6"><a xlink:title=" ">
<polygon fill="none" stroke="#bfbfbf" points="236.5,-56.5 236.5,-75.5 277.5,-75.5 277.5,-56.5 236.5,-56.5"/>
<text text-anchor="middle" x="257" y="-63.5" font-family="Helvetica,sans-Serif" font-size="10.00">string</text>
</a>
</g>
</g>
<!-- Node5&#45;&gt;Node6 -->
<g id="edge6" class="edge"><title>Node5&#45;&gt;Node6</title>
<path fill="none" stroke="midnightblue" d="M166.69,-168.368C183.006,-150.055 221.32,-107.049 242.423,-83.3624"/>
<polygon fill="midnightblue" stroke="midnightblue" points="245.307,-85.3863 249.346,-75.5914 240.08,-80.7298 245.307,-85.3863"/>
</g>
<!-- Node7 -->
<g id="node7" class="node"><title>Node7</title>
<g id="a_node7"><a xlink:href="../../da/d6e/attributes_8h.xhtml" target="_top" xlink:title=" ">
<polygon fill="none" stroke="black" points="49,-112.5 49,-131.5 135,-131.5 135,-112.5 49,-112.5"/>
<text text-anchor="middle" x="92" y="-119.5" font-family="Helvetica,sans-Serif" font-size="10.00">utils/attributes.h</text>
</a>
</g>
</g>
<!-- Node5&#45;&gt;Node7 -->
<g id="edge8" class="edge"><title>Node5&#45;&gt;Node7</title>
<path fill="none" stroke="midnightblue" d="M148.235,-168.324C138.234,-160.263 123.113,-148.077 111.07,-138.369"/>
<polygon fill="midnightblue" stroke="midnightblue" points="112.943,-135.384 102.961,-131.834 108.55,-140.834 112.943,-135.384"/>
</g>
<!-- Node5&#45;&gt;Node8 -->
<g id="edge13" class="edge"><title>Node5&#45;&gt;Node8</title>
<path fill="none" stroke="midnightblue" d="M159.314,-168.368C159.959,-150.617 161.448,-109.666 162.324,-85.5974"/>
<polygon fill="midnightblue" stroke="midnightblue" points="165.822,-85.712 162.688,-75.5914 158.826,-85.4576 165.822,-85.712"/>
</g>
<!-- Node7&#45;&gt;Node4 -->
<g id="edge10" class="edge"><title>Node7&#45;&gt;Node4</title>
<path fill="none" stroke="midnightblue" d="M80.5926,-112.324C69.8912,-104.185 53.6593,-91.8395 40.8372,-82.0874"/>
<polygon fill="midnightblue" stroke="midnightblue" points="42.6932,-79.1018 32.6149,-75.8339 38.4556,-84.6734 42.6932,-79.1018"/>
</g>
<!-- Node7&#45;&gt;Node6 -->
<g id="edge9" class="edge"><title>Node7&#45;&gt;Node6</title>
<path fill="none" stroke="midnightblue" d="M118.145,-112.444C147.536,-102.825 195.205,-87.2238 226.331,-77.0372"/>
<polygon fill="midnightblue" stroke="midnightblue" points="227.787,-80.2435 236.202,-73.8067 225.609,-73.5907 227.787,-80.2435"/>
</g>
<!-- Node7&#45;&gt;Node8 -->
<g id="edge11" class="edge"><title>Node7&#45;&gt;Node8</title>
<path fill="none" stroke="midnightblue" d="M103.407,-112.324C114.109,-104.185 130.341,-91.8395 143.163,-82.0874"/>
<polygon fill="midnightblue" stroke="midnightblue" points="145.544,-84.6734 151.385,-75.8339 141.307,-79.1018 145.544,-84.6734"/>
</g>
<!-- Node9 -->
<g id="node9" class="node"><title>Node9</title>
<g id="a_node9"><a xlink:title=" ">
<polygon fill="none" stroke="#bfbfbf" points="140,-0.5 140,-19.5 186,-19.5 186,-0.5 140,-0.5"/>
<text text-anchor="middle" x="163" y="-7.5" font-family="Helvetica,sans-Serif" font-size="10.00">cstdint</text>
</a>
</g>
</g>
<!-- Node8&#45;&gt;Node9 -->
<g id="edge12" class="edge"><title>Node8&#45;&gt;Node9</title>
<path fill="none" stroke="midnightblue" d="M163,-56.083C163,-49.0059 163,-38.8611 163,-29.9865"/>
<polygon fill="midnightblue" stroke="midnightblue" points="166.5,-29.751 163,-19.7511 159.5,-29.7511 166.5,-29.751"/>
</g>
<!-- Node10&#45;&gt;Node2 -->
<g id="edge15" class="edge"><title>Node10&#45;&gt;Node2</title>
<path fill="none" stroke="midnightblue" d="M306.798,-168.083C309.913,-160.77 314.423,-150.181 318.289,-141.103"/>
<polygon fill="midnightblue" stroke="midnightblue" points="321.574,-142.323 322.273,-131.751 315.134,-139.58 321.574,-142.323"/>
</g>
<!-- Node10&#45;&gt;Node6 -->
<g id="edge16" class="edge"><title>Node10&#45;&gt;Node6</title>
<path fill="none" stroke="midnightblue" d="M299.39,-168.368C291.9,-150.456 274.532,-108.923 264.506,-84.9482"/>
<polygon fill="midnightblue" stroke="midnightblue" points="267.68,-83.4669 260.593,-75.5914 261.222,-86.1676 267.68,-83.4669"/>
</g>
<!-- Node11&#45;&gt;Node6 -->
<g id="edge19" class="edge"><title>Node11&#45;&gt;Node6</title>
<path fill="none" stroke="midnightblue" d="M469.111,-168.496C450.341,-159.537 420.008,-144.959 394,-132 376.565,-123.313 372.522,-120.511 355,-112 331.806,-100.734 305.202,-88.565 285.572,-79.7256"/>
<polygon fill="midnightblue" stroke="midnightblue" points="286.826,-76.4521 276.269,-75.5509 283.96,-82.8385 286.826,-76.4521"/>
</g>
<!-- Node12 -->
<g id="node12" class="node"><title>Node12</title>
<g id="a_node12"><a xlink:title=" ">
<polygon fill="none" stroke="#bfbfbf" points="529.5,-112.5 529.5,-131.5 578.5,-131.5 578.5,-112.5 529.5,-112.5"/>
<text text-anchor="middle" x="554" y="-119.5" font-family="Helvetica,sans-Serif" font-size="10.00">cassert</text>
</a>
</g>
</g>
<!-- Node11&#45;&gt;Node12 -->
<g id="edge18" class="edge"><title>Node11&#45;&gt;Node12</title>
<path fill="none" stroke="midnightblue" d="M497.765,-168.324C507.766,-160.263 522.887,-148.077 534.93,-138.369"/>
<polygon fill="midnightblue" stroke="midnightblue" points="537.45,-140.834 543.039,-131.834 533.057,-135.384 537.45,-140.834"/>
</g>
<!-- Node13 -->
<g id="node13" class="node"><title>Node13</title>
<g id="a_node13"><a xlink:title=" ">
<polygon fill="none" stroke="#bfbfbf" points="597,-112.5 597,-131.5 659,-131.5 659,-112.5 597,-112.5"/>
<text text-anchor="middle" x="628" y="-119.5" font-family="Helvetica,sans-Serif" font-size="10.00">type_traits</text>
</a>
</g>
</g>
<!-- Node11&#45;&gt;Node13 -->
<g id="edge20" class="edge"><title>Node11&#45;&gt;Node13</title>
<path fill="none" stroke="midnightblue" d="M509.342,-168.444C532.753,-159.478 569.736,-145.314 596.19,-135.183"/>
<polygon fill="midnightblue" stroke="midnightblue" points="597.676,-138.361 605.763,-131.516 595.172,-131.824 597.676,-138.361"/>
</g>
<!-- Node14 -->
<g id="node14" class="node"><title>Node14</title>
<g id="a_node14"><a xlink:title=" ">
<polygon fill="none" stroke="#bfbfbf" points="403,-112.5 403,-131.5 453,-131.5 453,-112.5 403,-112.5"/>
<text text-anchor="middle" x="428" y="-119.5" font-family="Helvetica,sans-Serif" font-size="10.00">typeinfo</text>
</a>
</g>
</g>
<!-- Node11&#45;&gt;Node14 -->
<g id="edge21" class="edge"><title>Node11&#45;&gt;Node14</title>
<path fill="none" stroke="midnightblue" d="M477.521,-168.324C468.799,-160.341 455.657,-148.313 445.102,-138.653"/>
<polygon fill="midnightblue" stroke="midnightblue" points="447.392,-136.004 437.652,-131.834 442.666,-141.167 447.392,-136.004"/>
</g>
<!-- Node15 -->
<g id="node15" class="node"><title>Node15</title>
<g id="a_node15"><a xlink:title=" ">
<polygon fill="none" stroke="#bfbfbf" points="471,-112.5 471,-131.5 511,-131.5 511,-112.5 471,-112.5"/>
<text text-anchor="middle" x="491" y="-119.5" font-family="Helvetica,sans-Serif" font-size="10.00">utility</text>
</a>
</g>
</g>
<!-- Node11&#45;&gt;Node15 -->
<g id="edge22" class="edge"><title>Node11&#45;&gt;Node15</title>
<path fill="none" stroke="midnightblue" d="M487.661,-168.083C488.185,-161.006 488.936,-150.861 489.594,-141.986"/>
<polygon fill="midnightblue" stroke="midnightblue" points="493.103,-141.982 490.352,-131.751 486.123,-141.465 493.103,-141.982"/>
</g>
</g>
</svg>
        <g id="navigator" transform="translate(0 0)" fill="#404254">
                <rect fill="#f2f5e9" fill-opacity="0.5" stroke="#606060" stroke-width=".5" x="0" y="0" width="60" height="60"/>
                <use id="zoomplus" xlink:href="#zoomPlus" x="17" y="9" onmousedown="handleZoom(evt,'in')"/>
                <use id="zoomminus" xlink:href="#zoomMin" x="42" y="9" onmousedown="handleZoom(evt,'out')"/>
                <use id="reset" xlink:href="#resetDef" x="30" y="36" onmousedown="handleReset()"/>
                <g id="arrowUp" xlink:href="#dirArrow" transform="translate(30 24)" onmousedown="handlePan(0,-1)">
                  <use xlink:href="#rim" fill="#404040">
                        <set attributeName="fill" to="#808080" begin="arrowUp.mouseover" end="arrowUp.mouseout"/>
                  </use>
                  <path fill="none" stroke="white" stroke-width="1.5" d="M0,-3.0v7 M-2.5,-0.5L0,-3.0L2.5,-0.5"/>
                </g>
                <g id="arrowRight" xlink:href="#dirArrow" transform="rotate(90) translate(36 -43)" onmousedown="handlePan(1,0)">
                  <use xlink:href="#rim" fill="#404040">
                        <set attributeName="fill" to="#808080" begin="arrowRight.mouseover" end="arrowRight.mouseout"/>
                  </use>
                  <path fill="none" stroke="white" stroke-width="1.5" d="M0,-3.0v7 M-2.5,-0.5L0,-3.0L2.5,-0.5"/>
                </g>
                <g id="arrowDown" xlink:href="#dirArrow" transform="rotate(180) translate(-30 -48)" onmousedown="handlePan(0,1)">
                  <use xlink:href="#rim" fill="#404040">
                        <set attributeName="fill" to="#808080" begin="arrowDown.mouseover" end="arrowDown.mouseout"/>
                  </use>
                  <path fill="none" stroke="white" stroke-width="1.5" d="M0,-3.0v7 M-2.5,-0.5L0,-3.0L2.5,-0.5"/>
                </g>
                <g id="arrowLeft" xlink:href="#dirArrow" transform="rotate(270) translate(-36 17)" onmousedown="handlePan(-1,0)">
                  <use xlink:href="#rim" fill="#404040">
                        <set attributeName="fill" to="#808080" begin="arrowLeft.mouseover" end="arrowLeft.mouseout"/>
                  </use>
                  <path fill="none" stroke="white" stroke-width="1.5" d="M0,-3.0v7 M-2.5,-0.5L0,-3.0L2.5,-0.5"/>
                </g>
        </g>
        <svg viewBox="0 0 15 15" width="100%" height="30px" preserveAspectRatio="xMaxYMin meet">
         <g id="arrow_out" transform="scale(0.3 0.3)">
          <a xlink:href="java__stack_8h__incl_org.svg" target="_base">
           <rect id="button" ry="5" rx="5" y="6" x="6" height="38" width="38"
                fill="#f2f5e9" fill-opacity="0.5" stroke="#606060" stroke-width="1.0"/>
           <path id="arrow"
             d="M 11.500037,31.436501 C 11.940474,20.09759 22.043105,11.32322 32.158766,21.979434 L 37.068811,17.246167 C 37.068811,17.246167 37.088388,32 37.088388,32 L 22.160133,31.978069 C 22.160133,31.978069 26.997745,27.140456 26.997745,27.140456 C 18.528582,18.264221 13.291696,25.230495 11.500037,31.436501 z"
             style="fill:#404040;"/>
          </a>
         </g>
        </svg>
</svg>
