<?xml version="1.0" encoding="UTF-8" standalone="no"?>
<!DOCTYPE svg PUBLIC "-//W3C//DTD SVG 1.1//EN"
 "http://www.w3.org/Graphics/SVG/1.1/DTD/svg11.dtd">
<!-- Generated by graphviz version 2.38.0 (20140413.2041)
 -->
<!-- Title: Instructions::Integer::CompareGreaterThan Pages: 1 -->
<svg width="132pt" height="460pt"
 viewBox="0.00 0.00 132.00 460.00" xmlns="http://www.w3.org/2000/svg" xmlns:xlink="http://www.w3.org/1999/xlink">
<g id="graph0" class="graph" transform="scale(1 1) rotate(0) translate(4 456)">
<title>Instructions::Integer::CompareGreaterThan</title>
<!-- Node1 -->
<g id="node1" class="node"><title>Node1</title>
<g id="a_node1"><a xlink:title=" ">
<polygon fill="#bfbfbf" stroke="black" points="0,-0.5 0,-79.5 124,-79.5 124,-0.5 0,-0.5"/>
<text text-anchor="start" x="8" y="-67.5" font-family="Helvetica,sans-Serif" font-size="10.00">Instructions::Integer</text>
<text text-anchor="middle" x="62" y="-56.5" font-family="Helvetica,sans-Serif" font-size="10.00">::CompareGreaterThan</text>
<polyline fill="none" stroke="black" points="0,-49.5 124,-49.5 "/>
<text text-anchor="middle" x="62" y="-37.5" font-family="Helvetica,sans-Serif" font-size="10.00"> </text>
<polyline fill="none" stroke="black" points="0,-30.5 124,-30.5 "/>
<text text-anchor="start" x="8" y="-18.5" font-family="Helvetica,sans-Serif" font-size="10.00">+ CompareGreaterThan()</text>
<text text-anchor="start" x="8" y="-7.5" font-family="Helvetica,sans-Serif" font-size="10.00">+ execute()</text>
</a>
</g>
</g>
<!-- Node2 -->
<g id="node2" class="node"><title>Node2</title>
<g id="a_node2"><a xlink:href="../../dd/de2/class_instructions_1_1_integer_1_1_base_integer.xhtml" target="_top" xlink:title=" ">
<polygon fill="none" stroke="black" points="10,-117.5 10,-207.5 114,-207.5 114,-117.5 10,-117.5"/>
<text text-anchor="start" x="18" y="-195.5" font-family="Helvetica,sans-Serif" font-size="10.00">Instructions::Integer</text>
<text text-anchor="middle" x="62" y="-184.5" font-family="Helvetica,sans-Serif" font-size="10.00">::BaseInteger</text>
<polyline fill="none" stroke="black" points="10,-177.5 114,-177.5 "/>
<text text-anchor="middle" x="62" y="-165.5" font-family="Helvetica,sans-Serif" font-size="10.00"> </text>
<polyline fill="none" stroke="black" points="10,-158.5 114,-158.5 "/>
<text text-anchor="start" x="18" y="-146.5" font-family="Helvetica,sans-Serif" font-size="10.00">+ BaseInteger()</text>
<text text-anchor="start" x="18" y="-135.5" font-family="Helvetica,sans-Serif" font-size="10.00">+ toBytecode()</text>
<text text-anchor="start" x="18" y="-124.5" font-family="Helvetica,sans-Serif" font-size="10.00">+ toBytecode_json()</text>
</a>
</g>
</g>
<!-- Node2&#45;&gt;Node1 -->
<g id="edge1" class="edge"><title>Node2&#45;&gt;Node1</title>
<path fill="none" stroke="midnightblue" d="M62,-107.303C62,-97.966 62,-88.4333 62,-79.6138"/>
<polygon fill="none" stroke="midnightblue" points="58.5001,-107.314 62,-117.314 65.5001,-107.315 58.5001,-107.314"/>
</g>
<!-- Node3 -->
<g id="node3" class="node"><title>Node3</title>
<g id="a_node3"><a xlink:href="../../d4/da8/class_instructions_1_1_instruction.xhtml" target="_top" xlink:title=" ">
<polygon fill="none" stroke="black" points="3,-245.5 3,-346.5 121,-346.5 121,-245.5 3,-245.5"/>
<text text-anchor="middle" x="62" y="-334.5" font-family="Helvetica,sans-Serif" font-size="10.00">Instructions::Instruction</text>
<polyline fill="none" stroke="black" points="3,-327.5 121,-327.5 "/>
<text text-anchor="middle" x="62" y="-315.5" font-family="Helvetica,sans-Serif" font-size="10.00"> </text>
<polyline fill="none" stroke="black" points="3,-308.5 121,-308.5 "/>
<text text-anchor="start" x="11" y="-296.5" font-family="Helvetica,sans-Serif" font-size="10.00">+ Instruction()</text>
<text text-anchor="start" x="11" y="-285.5" font-family="Helvetica,sans-Serif" font-size="10.00">+ ~Instruction()</text>
<text text-anchor="start" x="11" y="-274.5" font-family="Helvetica,sans-Serif" font-size="10.00">+ execute()</text>
<text text-anchor="start" x="11" y="-263.5" font-family="Helvetica,sans-Serif" font-size="10.00">+ toBytecode()</text>
<text text-anchor="start" x="11" y="-252.5" font-family="Helvetica,sans-Serif" font-size="10.00">+ toBytecode_json()</text>
</a>
</g>
</g>
<!-- Node3&#45;&gt;Node2 -->
<g id="edge2" class="edge"><title>Node3&#45;&gt;Node2</title>
<path fill="none" stroke="midnightblue" d="M62,-235.001C62,-225.8 62,-216.449 62,-207.673"/>
<polygon fill="none" stroke="midnightblue" points="58.5001,-235.285 62,-245.285 65.5001,-235.286 58.5001,-235.285"/>
</g>
<!-- Node4 -->
<g id="node4" class="node"><title>Node4</title>
<g id="a_node4"><a xlink:title=" ">
<polygon fill="none" stroke="#bfbfbf" points="47.5,-394.5 47.5,-451.5 76.5,-451.5 76.5,-394.5 47.5,-394.5"/>
<text text-anchor="middle" x="62" y="-439.5" font-family="Helvetica,sans-Serif" font-size="10.00">u1</text>
<polyline fill="none" stroke="#bfbfbf" points="47.5,-432.5 76.5,-432.5 "/>
<text text-anchor="middle" x="62" y="-420.5" font-family="Helvetica,sans-Serif" font-size="10.00"> </text>
<polyline fill="none" stroke="#bfbfbf" points="47.5,-413.5 76.5,-413.5 "/>
<text text-anchor="middle" x="62" y="-401.5" font-family="Helvetica,sans-Serif" font-size="10.00"> </text>
</a>
</g>
</g>
<!-- Node4&#45;&gt;Node3 -->
<g id="edge3" class="edge"><title>Node4&#45;&gt;Node3</title>
<path fill="none" stroke="#404040" d="M62,-394.258C62,-383.793 62,-371.422 62,-359.072"/>
<polygon fill="none" stroke="#404040" points="62.0001,-358.802 58,-352.802 62,-346.802 66,-352.802 62.0001,-358.802"/>
<text text-anchor="middle" x="82.5" y="-368" font-family="Helvetica,sans-Serif" font-size="10.00"> +opcode</text>
</g>
</g>
</svg>
