<?xml version="1.0" encoding="UTF-8" standalone="no"?>
<!DOCTYPE svg PUBLIC "-//W3C//DTD SVG 1.1//EN"
 "http://www.w3.org/Graphics/SVG/1.1/DTD/svg11.dtd">
<!-- Generated by graphviz version 2.38.0 (20140413.2041)
 -->
<!-- Title: include/utils/external/any.h Pages: 1 -->
<svg width="323pt" height="95pt"
 viewBox="0.00 0.00 322.50 95.00" xmlns="http://www.w3.org/2000/svg" xmlns:xlink="http://www.w3.org/1999/xlink">
<g id="graph0" class="graph" transform="scale(1 1) rotate(0) translate(4 91)">
<title>include/utils/external/any.h</title>
<!-- Node1 -->
<g id="node1" class="node"><title>Node1</title>
<g id="a_node1"><a xlink:title=" ">
<polygon fill="#bfbfbf" stroke="black" points="104.5,-56.5 104.5,-86.5 210.5,-86.5 210.5,-56.5 104.5,-56.5"/>
<text text-anchor="start" x="112.5" y="-74.5" font-family="Helvetica,sans-Serif" font-size="10.00">include/utils/external</text>
<text text-anchor="middle" x="157.5" y="-63.5" font-family="Helvetica,sans-Serif" font-size="10.00">/any.h</text>
</a>
</g>
</g>
<!-- Node2 -->
<g id="node2" class="node"><title>Node2</title>
<g id="a_node2"><a xlink:title=" ">
<polygon fill="none" stroke="#bfbfbf" points="0,-0.5 0,-19.5 49,-19.5 49,-0.5 0,-0.5"/>
<text text-anchor="middle" x="24.5" y="-7.5" font-family="Helvetica,sans-Serif" font-size="10.00">cassert</text>
</a>
</g>
</g>
<!-- Node1&#45;&gt;Node2 -->
<g id="edge1" class="edge"><title>Node1&#45;&gt;Node2</title>
<path fill="none" stroke="midnightblue" d="M125.981,-56.3993C103.865,-46.5054 74.5331,-33.3832 53.0936,-23.7919"/>
<polygon fill="midnightblue" stroke="midnightblue" points="54.4102,-20.5466 43.8527,-19.6578 51.5516,-26.9364 54.4102,-20.5466"/>
</g>
<!-- Node3 -->
<g id="node3" class="node"><title>Node3</title>
<g id="a_node3"><a xlink:title=" ">
<polygon fill="none" stroke="#bfbfbf" points="67,-0.5 67,-19.5 108,-19.5 108,-0.5 67,-0.5"/>
<text text-anchor="middle" x="87.5" y="-7.5" font-family="Helvetica,sans-Serif" font-size="10.00">string</text>
</a>
</g>
</g>
<!-- Node1&#45;&gt;Node3 -->
<g id="edge2" class="edge"><title>Node1&#45;&gt;Node3</title>
<path fill="none" stroke="midnightblue" d="M140.911,-56.3993C130.215,-47.3076 116.312,-35.4899 105.372,-26.1909"/>
<polygon fill="midnightblue" stroke="midnightblue" points="107.572,-23.4675 97.6856,-19.6578 103.038,-28.8011 107.572,-23.4675"/>
</g>
<!-- Node4 -->
<g id="node4" class="node"><title>Node4</title>
<g id="a_node4"><a xlink:title=" ">
<polygon fill="none" stroke="#bfbfbf" points="126.5,-0.5 126.5,-19.5 188.5,-19.5 188.5,-0.5 126.5,-0.5"/>
<text text-anchor="middle" x="157.5" y="-7.5" font-family="Helvetica,sans-Serif" font-size="10.00">type_traits</text>
</a>
</g>
</g>
<!-- Node1&#45;&gt;Node4 -->
<g id="edge3" class="edge"><title>Node1&#45;&gt;Node4</title>
<path fill="none" stroke="midnightblue" d="M157.5,-56.3993C157.5,-48.4664 157.5,-38.458 157.5,-29.8583"/>
<polygon fill="midnightblue" stroke="midnightblue" points="161,-29.6577 157.5,-19.6578 154,-29.6578 161,-29.6577"/>
</g>
<!-- Node5 -->
<g id="node5" class="node"><title>Node5</title>
<g id="a_node5"><a xlink:title=" ">
<polygon fill="none" stroke="#bfbfbf" points="206.5,-0.5 206.5,-19.5 256.5,-19.5 256.5,-0.5 206.5,-0.5"/>
<text text-anchor="middle" x="231.5" y="-7.5" font-family="Helvetica,sans-Serif" font-size="10.00">typeinfo</text>
</a>
</g>
</g>
<!-- Node1&#45;&gt;Node5 -->
<g id="edge4" class="edge"><title>Node1&#45;&gt;Node5</title>
<path fill="none" stroke="midnightblue" d="M175.037,-56.3993C186.344,-47.3076 201.042,-35.4899 212.607,-26.1909"/>
<polygon fill="midnightblue" stroke="midnightblue" points="215.132,-28.6517 220.732,-19.6578 210.746,-23.1964 215.132,-28.6517"/>
</g>
<!-- Node6 -->
<g id="node6" class="node"><title>Node6</title>
<g id="a_node6"><a xlink:title=" ">
<polygon fill="none" stroke="#bfbfbf" points="274.5,-0.5 274.5,-19.5 314.5,-19.5 314.5,-0.5 274.5,-0.5"/>
<text text-anchor="middle" x="294.5" y="-7.5" font-family="Helvetica,sans-Serif" font-size="10.00">utility</text>
</a>
</g>
</g>
<!-- Node1&#45;&gt;Node6 -->
<g id="edge5" class="edge"><title>Node1&#45;&gt;Node6</title>
<path fill="none" stroke="midnightblue" d="M189.967,-56.3993C212.851,-46.4608 243.234,-33.2649 265.344,-23.6625"/>
<polygon fill="midnightblue" stroke="midnightblue" points="266.787,-26.8517 274.565,-19.6578 263.999,-20.4311 266.787,-26.8517"/>
</g>
</g>
</svg>
