<?xml version="1.0" encoding="UTF-8" standalone="no"?>
<!DOCTYPE svg PUBLIC "-//W3C//DTD SVG 1.1//EN"
 "http://www.w3.org/Graphics/SVG/1.1/DTD/svg11.dtd">
<!-- Generated by graphviz version 2.38.0 (20140413.2041)
 -->
<!-- Title: include/utils/serializers/methodSerializer.h Pages: 1 -->
<!--zoomable 330 -->
<svg id="main" version="1.1" xmlns="http://www.w3.org/2000/svg" xmlns:xlink="http://www.w3.org/1999/xlink" xml:space="preserve" onload="init(evt)">
<style type="text/css"><![CDATA[
.edge:hover path { stroke: red; }
.edge:hover polygon { stroke: red; fill: red; }
]]></style>
<script type="text/javascript"><![CDATA[
var edges = document.getElementsByTagName('g');
if (edges && edges.length) {
  for (var i=0;i<edges.length;i++) {
    if (edges[i].id.substr(0,4)=='edge') {
      edges[i].setAttribute('class','edge');
    }
  }
}
]]></script>
        <defs>
                <circle id="rim" cx="0" cy="0" r="7"/>
                <circle id="rim2" cx="0" cy="0" r="3.5"/>
                <g id="zoomPlus">
                        <use xlink:href="#rim" fill="#404040">
                                <set attributeName="fill" to="#808080" begin="zoomplus.mouseover" end="zoomplus.mouseout"/>
                        </use>
                        <path d="M-4,0h8M0,-4v8" fill="none" stroke="white" stroke-width="1.5" pointer-events="none"/>
                </g>
                <g id="zoomMin">
                        <use xlink:href="#rim" fill="#404040">
                                <set attributeName="fill" to="#808080" begin="zoomminus.mouseover" end="zoomminus.mouseout"/>
                        </use>
                        <path d="M-4,0h8" fill="none" stroke="white" stroke-width="1.5" pointer-events="none"/>
                </g>
                <g id="dirArrow">
                        <path fill="none" stroke="white" stroke-width="1.5" d="M0,-3.0v7 M-2.5,-0.5L0,-3.0L2.5,-0.5"/>
                </g>
               <g id="resetDef">
                       <use xlink:href="#rim2" fill="#404040">
                               <set attributeName="fill" to="#808080" begin="reset.mouseover" end="reset.mouseout"/>
                       </use>
               </g>
        </defs>

<script type="text/javascript">
var viewWidth = 1940;
var viewHeight = 330;
var sectionId = 'dynsection-0';
</script>
<script xlink:href="../../svgpan.js"/>
<svg id="graph" class="graph">
<g id="viewport">
<title>include/utils/serializers/methodSerializer.h</title>
<!-- Node1 -->
<g id="node1" class="node"><title>Node1</title>
<g id="a_node1"><a xlink:title=" ">
<polygon fill="#bfbfbf" stroke="black" points="475,-291.5 475,-321.5 591,-321.5 591,-291.5 475,-291.5"/>
<text text-anchor="start" x="483" y="-309.5" font-family="Helvetica,sans-Serif" font-size="10.00">include/utils/serializers</text>
<text text-anchor="middle" x="533" y="-298.5" font-family="Helvetica,sans-Serif" font-size="10.00">/methodSerializer.h</text>
</a>
</g>
</g>
<!-- Node2 -->
<g id="node2" class="node"><title>Node2</title>
<g id="a_node2"><a xlink:href="../../d4/db4/classfile_8h.xhtml" target="_top" xlink:title=" ">
<polygon fill="none" stroke="black" points="210,-235.5 210,-254.5 270,-254.5 270,-235.5 210,-235.5"/>
<text text-anchor="middle" x="240" y="-242.5" font-family="Helvetica,sans-Serif" font-size="10.00">classfile.h</text>
</a>
</g>
</g>
<!-- Node1&#45;&gt;Node2 -->
<g id="edge1" class="edge"><title>Node1&#45;&gt;Node2</title>
<path fill="none" stroke="midnightblue" d="M474.762,-293.674C417.149,-281.974 330.501,-264.378 280.163,-254.156"/>
<polygon fill="midnightblue" stroke="midnightblue" points="280.795,-250.713 270.298,-252.153 279.401,-257.573 280.795,-250.713"/>
</g>
<!-- Node9 -->
<g id="node9" class="node"><title>Node9</title>
<g id="a_node9"><a xlink:href="../../d3/dd1/nlohmann__json_8hpp.xhtml" target="_top" xlink:title=" ">
<polygon fill="none" stroke="black" points="888.5,-112.5 888.5,-142.5 1005.5,-142.5 1005.5,-112.5 888.5,-112.5"/>
<text text-anchor="start" x="896.5" y="-130.5" font-family="Helvetica,sans-Serif" font-size="10.00">utils/external/nlohmann</text>
<text text-anchor="middle" x="947" y="-119.5" font-family="Helvetica,sans-Serif" font-size="10.00">_json.hpp</text>
</a>
</g>
</g>
<!-- Node1&#45;&gt;Node9 -->
<g id="edge46" class="edge"><title>Node1&#45;&gt;Node9</title>
<path fill="none" stroke="midnightblue" d="M565.832,-291.463C640.338,-259.609 822.14,-181.882 904.823,-146.532"/>
<polygon fill="midnightblue" stroke="midnightblue" points="906.346,-149.688 914.165,-142.538 903.594,-143.251 906.346,-149.688"/>
</g>
<!-- Node3 -->
<g id="node3" class="node"><title>Node3</title>
<g id="a_node3"><a xlink:title=" ">
<polygon fill="none" stroke="#bfbfbf" points="0,-56.5 0,-75.5 42,-75.5 42,-56.5 0,-56.5"/>
<text text-anchor="middle" x="21" y="-63.5" font-family="Helvetica,sans-Serif" font-size="10.00">vector</text>
</a>
</g>
</g>
<!-- Node2&#45;&gt;Node3 -->
<g id="edge2" class="edge"><title>Node2&#45;&gt;Node3</title>
<path fill="none" stroke="midnightblue" d="M209.805,-240.993C161.086,-235.511 68.3286,-222.258 46,-199 16.612,-168.389 16.3682,-114.619 18.6872,-86.0674"/>
<polygon fill="midnightblue" stroke="midnightblue" points="22.1986,-86.1301 19.7221,-75.8288 15.2341,-85.4261 22.1986,-86.1301"/>
</g>
<!-- Node4 -->
<g id="node4" class="node"><title>Node4</title>
<g id="a_node4"><a xlink:href="../../d0/d36/constant_pool_8h.xhtml" target="_top" xlink:title=" ">
<polygon fill="none" stroke="black" points="55.5,-179.5 55.5,-198.5 158.5,-198.5 158.5,-179.5 55.5,-179.5"/>
<text text-anchor="middle" x="107" y="-186.5" font-family="Helvetica,sans-Serif" font-size="10.00">utils/constantPool.h</text>
</a>
</g>
</g>
<!-- Node2&#45;&gt;Node4 -->
<g id="edge3" class="edge"><title>Node2&#45;&gt;Node4</title>
<path fill="none" stroke="midnightblue" d="M218.926,-235.444C196.94,-226.517 162.266,-212.439 137.336,-202.317"/>
<polygon fill="midnightblue" stroke="midnightblue" points="138.558,-199.035 127.976,-198.516 135.924,-205.521 138.558,-199.035"/>
</g>
<!-- Node7 -->
<g id="node7" class="node"><title>Node7</title>
<g id="a_node7"><a xlink:href="../../d9/d49/types_8h.xhtml" target="_top" xlink:title=" ">
<polygon fill="none" stroke="black" points="120,-56.5 120,-75.5 190,-75.5 190,-56.5 120,-56.5"/>
<text text-anchor="middle" x="155" y="-63.5" font-family="Helvetica,sans-Serif" font-size="10.00">utils/types.h</text>
</a>
</g>
</g>
<!-- Node2&#45;&gt;Node7 -->
<g id="edge45" class="edge"><title>Node2&#45;&gt;Node7</title>
<path fill="none" stroke="midnightblue" d="M243.968,-235.488C249.263,-222.976 257.381,-198.942 252,-179 243.023,-145.735 235.695,-137.925 213,-112 202.698,-100.232 188.945,-89.4054 177.417,-81.3222"/>
<polygon fill="midnightblue" stroke="midnightblue" points="179.37,-78.4182 169.129,-75.7055 175.443,-84.2129 179.37,-78.4182"/>
</g>
<!-- Node2&#45;&gt;Node9 -->
<g id="edge12" class="edge"><title>Node2&#45;&gt;Node9</title>
<path fill="none" stroke="midnightblue" d="M270.379,-239.037C375.922,-221.795 728.416,-164.209 878.45,-139.699"/>
<polygon fill="midnightblue" stroke="midnightblue" points="879.162,-143.129 888.466,-138.062 878.033,-136.221 879.162,-143.129"/>
</g>
<!-- Node35 -->
<g id="node35" class="node"><title>Node35</title>
<g id="a_node35"><a xlink:href="../../d9/d70/infos_8h.xhtml" target="_top" xlink:title=" ">
<polygon fill="none" stroke="black" points="177,-179.5 177,-198.5 243,-198.5 243,-179.5 177,-179.5"/>
<text text-anchor="middle" x="210" y="-186.5" font-family="Helvetica,sans-Serif" font-size="10.00">utils/infos.h</text>
</a>
</g>
</g>
<!-- Node2&#45;&gt;Node35 -->
<g id="edge41" class="edge"><title>Node2&#45;&gt;Node35</title>
<path fill="none" stroke="midnightblue" d="M235.046,-235.083C230.896,-227.613 224.847,-216.724 219.733,-207.52"/>
<polygon fill="midnightblue" stroke="midnightblue" points="222.778,-205.793 214.862,-198.751 216.659,-209.192 222.778,-205.793"/>
</g>
<!-- Node4&#45;&gt;Node3 -->
<g id="edge5" class="edge"><title>Node4&#45;&gt;Node3</title>
<path fill="none" stroke="midnightblue" d="M97.668,-179.229C88.6967,-170.527 75.0546,-156.565 65,-143 51.1478,-124.312 38.1777,-100.903 29.9589,-85.0393"/>
<polygon fill="midnightblue" stroke="midnightblue" points="32.9307,-83.1613 25.2826,-75.8295 26.6892,-86.3305 32.9307,-83.1613"/>
</g>
<!-- Node5 -->
<g id="node5" class="node"><title>Node5</title>
<g id="a_node5"><a xlink:title=" ">
<polygon fill="none" stroke="#bfbfbf" points="60.5,-56.5 60.5,-75.5 101.5,-75.5 101.5,-56.5 60.5,-56.5"/>
<text text-anchor="middle" x="81" y="-63.5" font-family="Helvetica,sans-Serif" font-size="10.00">string</text>
</a>
</g>
</g>
<!-- Node4&#45;&gt;Node5 -->
<g id="edge4" class="edge"><title>Node4&#45;&gt;Node5</title>
<path fill="none" stroke="midnightblue" d="M97.4444,-179.45C88.9115,-171.12 77.0108,-157.604 72,-143 65.4835,-124.007 69.7972,-100.953 74.4253,-85.2517"/>
<polygon fill="midnightblue" stroke="midnightblue" points="77.7684,-86.2889 77.5503,-75.6963 71.1152,-84.113 77.7684,-86.2889"/>
</g>
<!-- Node6 -->
<g id="node6" class="node"><title>Node6</title>
<g id="a_node6"><a xlink:href="../../da/d6e/attributes_8h.xhtml" target="_top" xlink:title=" ">
<polygon fill="none" stroke="black" points="81,-118 81,-137 167,-137 167,-118 81,-118"/>
<text text-anchor="middle" x="124" y="-125" font-family="Helvetica,sans-Serif" font-size="10.00">utils/attributes.h</text>
</a>
</g>
</g>
<!-- Node4&#45;&gt;Node6 -->
<g id="edge6" class="edge"><title>Node4&#45;&gt;Node6</title>
<path fill="none" stroke="midnightblue" d="M109.436,-179.475C111.859,-170.992 115.656,-157.704 118.765,-146.822"/>
<polygon fill="midnightblue" stroke="midnightblue" points="122.187,-147.586 121.569,-137.009 115.456,-145.663 122.187,-147.586"/>
</g>
<!-- Node4&#45;&gt;Node7 -->
<g id="edge11" class="edge"><title>Node4&#45;&gt;Node7</title>
<path fill="none" stroke="midnightblue" d="M130.788,-179.499C146.721,-172.413 166.463,-160.605 176,-143 186.043,-124.46 176.398,-100.717 167.121,-84.7435"/>
<polygon fill="midnightblue" stroke="midnightblue" points="169.858,-82.5205 161.572,-75.9179 163.932,-86.2466 169.858,-82.5205"/>
</g>
<!-- Node6&#45;&gt;Node3 -->
<g id="edge8" class="edge"><title>Node6&#45;&gt;Node3</title>
<path fill="none" stroke="midnightblue" d="M109.243,-117.975C92.3393,-108.211 64.417,-92.0807 44.5096,-80.5808"/>
<polygon fill="midnightblue" stroke="midnightblue" points="46.1398,-77.4805 35.73,-75.5091 42.6383,-83.5419 46.1398,-77.4805"/>
</g>
<!-- Node6&#45;&gt;Node5 -->
<g id="edge7" class="edge"><title>Node6&#45;&gt;Node5</title>
<path fill="none" stroke="midnightblue" d="M117.839,-117.975C111.389,-109.05 101.096,-94.8071 93.0274,-83.6425"/>
<polygon fill="midnightblue" stroke="midnightblue" points="95.8436,-81.564 87.1494,-75.5091 90.1701,-85.6642 95.8436,-81.564"/>
</g>
<!-- Node6&#45;&gt;Node7 -->
<g id="edge9" class="edge"><title>Node6&#45;&gt;Node7</title>
<path fill="none" stroke="midnightblue" d="M128.442,-117.975C132.953,-109.315 140.074,-95.6486 145.807,-84.6453"/>
<polygon fill="midnightblue" stroke="midnightblue" points="149.05,-85.9948 150.567,-75.5091 142.842,-82.7604 149.05,-85.9948"/>
</g>
<!-- Node8 -->
<g id="node8" class="node"><title>Node8</title>
<g id="a_node8"><a xlink:title=" ">
<polygon fill="none" stroke="#bfbfbf" points="163,-0.5 163,-19.5 209,-19.5 209,-0.5 163,-0.5"/>
<text text-anchor="middle" x="186" y="-7.5" font-family="Helvetica,sans-Serif" font-size="10.00">cstdint</text>
</a>
</g>
</g>
<!-- Node7&#45;&gt;Node8 -->
<g id="edge10" class="edge"><title>Node7&#45;&gt;Node8</title>
<path fill="none" stroke="midnightblue" d="M160.119,-56.083C164.408,-48.6127 170.658,-37.7244 175.942,-28.5199"/>
<polygon fill="midnightblue" stroke="midnightblue" points="179.033,-30.1662 180.976,-19.7511 172.962,-26.6811 179.033,-30.1662"/>
</g>
<!-- Node9&#45;&gt;Node3 -->
<g id="edge39" class="edge"><title>Node9&#45;&gt;Node3</title>
<path fill="none" stroke="midnightblue" d="M888.377,-124.995C719.287,-120.375 231.842,-105.02 52.2624,-75.7397"/>
<polygon fill="midnightblue" stroke="midnightblue" points="52.6024,-72.2473 42.1567,-74.0187 51.4271,-79.148 52.6024,-72.2473"/>
</g>
<!-- Node9&#45;&gt;Node5 -->
<g id="edge36" class="edge"><title>Node9&#45;&gt;Node5</title>
<path fill="none" stroke="midnightblue" d="M888.234,-124.717C726.989,-119.548 279.11,-103.274 111.426,-75.5466"/>
<polygon fill="midnightblue" stroke="midnightblue" points="111.955,-72.0862 101.505,-73.833 110.764,-78.9841 111.955,-72.0862"/>
</g>
<!-- Node9&#45;&gt;Node8 -->
<g id="edge20" class="edge"><title>Node9&#45;&gt;Node8</title>
<path fill="none" stroke="midnightblue" d="M888.328,-125.042C728.556,-120.694 293.853,-106.197 237,-76 217.464,-65.6235 202.958,-44.16 194.51,-28.7333"/>
<polygon fill="midnightblue" stroke="midnightblue" points="197.525,-26.941 189.843,-19.6446 191.298,-30.139 197.525,-26.941"/>
</g>
<!-- Node10 -->
<g id="node10" class="node"><title>Node10</title>
<g id="a_node10"><a xlink:title=" ">
<polygon fill="none" stroke="#bfbfbf" points="1558,-56.5 1558,-75.5 1614,-75.5 1614,-56.5 1558,-56.5"/>
<text text-anchor="middle" x="1586" y="-63.5" font-family="Helvetica,sans-Serif" font-size="10.00">algorithm</text>
</a>
</g>
</g>
<!-- Node9&#45;&gt;Node10 -->
<g id="edge13" class="edge"><title>Node9&#45;&gt;Node10</title>
<path fill="none" stroke="midnightblue" d="M1005.91,-124.586C1112.36,-120.469 1343.91,-108.495 1547.82,-75.9492"/>
<polygon fill="midnightblue" stroke="midnightblue" points="1548.5,-79.3845 1557.81,-74.3336 1547.38,-72.4742 1548.5,-79.3845"/>
</g>
<!-- Node11 -->
<g id="node11" class="node"><title>Node11</title>
<g id="a_node11"><a xlink:title=" ">
<polygon fill="none" stroke="#bfbfbf" points="1632,-56.5 1632,-75.5 1670,-75.5 1670,-56.5 1632,-56.5"/>
<text text-anchor="middle" x="1651" y="-63.5" font-family="Helvetica,sans-Serif" font-size="10.00">array</text>
</a>
</g>
</g>
<!-- Node9&#45;&gt;Node11 -->
<g id="edge14" class="edge"><title>Node9&#45;&gt;Node11</title>
<path fill="none" stroke="midnightblue" d="M1005.94,-126.752C1122.46,-126.246 1390.32,-120.09 1621.92,-75.74"/>
<polygon fill="midnightblue" stroke="midnightblue" points="1622.73,-79.1485 1631.88,-73.8051 1621.39,-72.277 1622.73,-79.1485"/>
</g>
<!-- Node12 -->
<g id="node12" class="node"><title>Node12</title>
<g id="a_node12"><a xlink:title=" ">
<polygon fill="none" stroke="#bfbfbf" points="1688.5,-56.5 1688.5,-75.5 1737.5,-75.5 1737.5,-56.5 1688.5,-56.5"/>
<text text-anchor="middle" x="1713" y="-63.5" font-family="Helvetica,sans-Serif" font-size="10.00">cassert</text>
</a>
</g>
</g>
<!-- Node9&#45;&gt;Node12 -->
<g id="edge15" class="edge"><title>Node9&#45;&gt;Node12</title>
<path fill="none" stroke="midnightblue" d="M1005.79,-126.217C1128.99,-124.809 1423.2,-117.185 1678.04,-75.8132"/>
<polygon fill="midnightblue" stroke="midnightblue" points="1678.94,-79.2134 1688.24,-74.1369 1677.8,-72.3062 1678.94,-79.2134"/>
</g>
<!-- Node13 -->
<g id="node13" class="node"><title>Node13</title>
<g id="a_node13"><a xlink:title=" ">
<polygon fill="none" stroke="#bfbfbf" points="1756,-56.5 1756,-75.5 1802,-75.5 1802,-56.5 1756,-56.5"/>
<text text-anchor="middle" x="1779" y="-63.5" font-family="Helvetica,sans-Serif" font-size="10.00">cctype</text>
</a>
</g>
</g>
<!-- Node9&#45;&gt;Node13 -->
<g id="edge16" class="edge"><title>Node9&#45;&gt;Node13</title>
<path fill="none" stroke="midnightblue" d="M1005.71,-127.013C1137.12,-127.254 1464.82,-122.812 1745.74,-75.852"/>
<polygon fill="midnightblue" stroke="midnightblue" points="1746.44,-79.2838 1755.71,-74.1635 1745.27,-72.382 1746.44,-79.2838"/>
</g>
<!-- Node14 -->
<g id="node14" class="node"><title>Node14</title>
<g id="a_node14"><a xlink:title=" ">
<polygon fill="none" stroke="#bfbfbf" points="1820,-56.5 1820,-75.5 1870,-75.5 1870,-56.5 1820,-56.5"/>
<text text-anchor="middle" x="1845" y="-63.5" font-family="Helvetica,sans-Serif" font-size="10.00">ciso646</text>
</a>
</g>
</g>
<!-- Node9&#45;&gt;Node14 -->
<g id="edge17" class="edge"><title>Node9&#45;&gt;Node14</title>
<path fill="none" stroke="midnightblue" d="M1005.58,-127.103C1144.21,-127.666 1503.1,-124.067 1809.89,-75.8397"/>
<polygon fill="midnightblue" stroke="midnightblue" points="1810.54,-79.2805 1819.87,-74.2528 1809.44,-72.3674 1810.54,-79.2805"/>
</g>
<!-- Node15 -->
<g id="node15" class="node"><title>Node15</title>
<g id="a_node15"><a xlink:title=" ">
<polygon fill="none" stroke="#bfbfbf" points="1888,-56.5 1888,-75.5 1932,-75.5 1932,-56.5 1888,-56.5"/>
<text text-anchor="middle" x="1910" y="-63.5" font-family="Helvetica,sans-Serif" font-size="10.00">cmath</text>
</a>
</g>
</g>
<!-- Node9&#45;&gt;Node15 -->
<g id="edge18" class="edge"><title>Node9&#45;&gt;Node15</title>
<path fill="none" stroke="midnightblue" d="M1005.75,-125.072C1179.68,-120.571 1690.94,-105.31 1877.81,-75.7527"/>
<polygon fill="midnightblue" stroke="midnightblue" points="1878.49,-79.1873 1887.79,-74.1067 1877.35,-72.2805 1878.49,-79.1873"/>
</g>
<!-- Node16 -->
<g id="node16" class="node"><title>Node16</title>
<g id="a_node16"><a xlink:title=" ">
<polygon fill="none" stroke="#bfbfbf" points="246,-56.5 246,-75.5 294,-75.5 294,-56.5 246,-56.5"/>
<text text-anchor="middle" x="270" y="-63.5" font-family="Helvetica,sans-Serif" font-size="10.00">cstddef</text>
</a>
</g>
</g>
<!-- Node9&#45;&gt;Node16 -->
<g id="edge19" class="edge"><title>Node9&#45;&gt;Node16</title>
<path fill="none" stroke="midnightblue" d="M888.376,-125.581C776.378,-123.028 524.302,-113.444 304.16,-75.868"/>
<polygon fill="midnightblue" stroke="midnightblue" points="304.483,-72.372 294.033,-74.1155 303.289,-79.2695 304.483,-72.372"/>
</g>
<!-- Node17 -->
<g id="node17" class="node"><title>Node17</title>
<g id="a_node17"><a xlink:title=" ">
<polygon fill="none" stroke="#bfbfbf" points="312.5,-56.5 312.5,-75.5 357.5,-75.5 357.5,-56.5 312.5,-56.5"/>
<text text-anchor="middle" x="335" y="-63.5" font-family="Helvetica,sans-Serif" font-size="10.00">cstdlib</text>
</a>
</g>
</g>
<!-- Node9&#45;&gt;Node17 -->
<g id="edge21" class="edge"><title>Node9&#45;&gt;Node17</title>
<path fill="none" stroke="midnightblue" d="M888.481,-125.022C785.048,-121.623 563.199,-110.8 367.491,-75.72"/>
<polygon fill="midnightblue" stroke="midnightblue" points="368.068,-72.2674 357.603,-73.9225 366.816,-79.1546 368.068,-72.2674"/>
</g>
<!-- Node18 -->
<g id="node18" class="node"><title>Node18</title>
<g id="a_node18"><a xlink:title=" ">
<polygon fill="none" stroke="#bfbfbf" points="376,-56.5 376,-75.5 422,-75.5 422,-56.5 376,-56.5"/>
<text text-anchor="middle" x="399" y="-63.5" font-family="Helvetica,sans-Serif" font-size="10.00">cstring</text>
</a>
</g>
</g>
<!-- Node9&#45;&gt;Node18 -->
<g id="edge22" class="edge"><title>Node9&#45;&gt;Node18</title>
<path fill="none" stroke="midnightblue" d="M888.489,-124.14C794.142,-119.598 602.57,-107.334 432.203,-75.9196"/>
<polygon fill="midnightblue" stroke="midnightblue" points="432.779,-72.4667 422.306,-74.0683 431.492,-79.3474 432.779,-72.4667"/>
</g>
<!-- Node19 -->
<g id="node19" class="node"><title>Node19</title>
<g id="a_node19"><a xlink:title=" ">
<polygon fill="none" stroke="#bfbfbf" points="440.5,-56.5 440.5,-75.5 505.5,-75.5 505.5,-56.5 440.5,-56.5"/>
<text text-anchor="middle" x="473" y="-63.5" font-family="Helvetica,sans-Serif" font-size="10.00">forward_list</text>
</a>
</g>
</g>
<!-- Node9&#45;&gt;Node19 -->
<g id="edge23" class="edge"><title>Node9&#45;&gt;Node19</title>
<path fill="none" stroke="midnightblue" d="M888.409,-121.426C807.058,-113.988 655.131,-98.679 515.53,-75.933"/>
<polygon fill="midnightblue" stroke="midnightblue" points="515.937,-72.453 505.501,-74.2825 514.8,-79.3601 515.937,-72.453"/>
</g>
<!-- Node20 -->
<g id="node20" class="node"><title>Node20</title>
<g id="a_node20"><a xlink:title=" ">
<polygon fill="none" stroke="#bfbfbf" points="524,-56.5 524,-75.5 582,-75.5 582,-56.5 524,-56.5"/>
<text text-anchor="middle" x="553" y="-63.5" font-family="Helvetica,sans-Serif" font-size="10.00">functional</text>
</a>
</g>
</g>
<!-- Node9&#45;&gt;Node20 -->
<g id="edge24" class="edge"><title>Node9&#45;&gt;Node20</title>
<path fill="none" stroke="midnightblue" d="M888.329,-119.714C819.799,-111.439 702.84,-96.2353 592.319,-75.9063"/>
<polygon fill="midnightblue" stroke="midnightblue" points="592.802,-72.4363 582.331,-74.0517 591.524,-79.3186 592.802,-72.4363"/>
</g>
<!-- Node21 -->
<g id="node21" class="node"><title>Node21</title>
<g id="a_node21"><a xlink:title=" ">
<polygon fill="none" stroke="#bfbfbf" points="600.5,-56.5 600.5,-75.5 673.5,-75.5 673.5,-56.5 600.5,-56.5"/>
<text text-anchor="middle" x="637" y="-63.5" font-family="Helvetica,sans-Serif" font-size="10.00">initializer_list</text>
</a>
</g>
</g>
<!-- Node9&#45;&gt;Node21 -->
<g id="edge25" class="edge"><title>Node9&#45;&gt;Node21</title>
<path fill="none" stroke="midnightblue" d="M888.268,-115.339C836.954,-105.57 760.169,-90.9129 683.492,-76.0888"/>
<polygon fill="midnightblue" stroke="midnightblue" points="684.138,-72.6491 673.656,-74.1862 682.809,-79.5217 684.138,-72.6491"/>
</g>
<!-- Node22 -->
<g id="node22" class="node"><title>Node22</title>
<g id="a_node22"><a xlink:title=" ">
<polygon fill="none" stroke="#bfbfbf" points="692,-56.5 692,-75.5 742,-75.5 742,-56.5 692,-56.5"/>
<text text-anchor="middle" x="717" y="-63.5" font-family="Helvetica,sans-Serif" font-size="10.00">iomanip</text>
</a>
</g>
</g>
<!-- Node9&#45;&gt;Node22 -->
<g id="edge26" class="edge"><title>Node9&#45;&gt;Node22</title>
<path fill="none" stroke="midnightblue" d="M892.06,-112.448C855.057,-102.96 804.894,-90.0516 752.127,-76.2829"/>
<polygon fill="midnightblue" stroke="midnightblue" points="752.806,-72.843 742.246,-73.7026 751.037,-79.6159 752.806,-72.843"/>
</g>
<!-- Node23 -->
<g id="node23" class="node"><title>Node23</title>
<g id="a_node23"><a xlink:title=" ">
<polygon fill="none" stroke="#bfbfbf" points="760,-56.5 760,-75.5 814,-75.5 814,-56.5 760,-56.5"/>
<text text-anchor="middle" x="787" y="-63.5" font-family="Helvetica,sans-Serif" font-size="10.00">iostream</text>
</a>
</g>
</g>
<!-- Node9&#45;&gt;Node23 -->
<g id="edge27" class="edge"><title>Node9&#45;&gt;Node23</title>
<path fill="none" stroke="midnightblue" d="M909.082,-112.399C881.877,-102.283 845.596,-88.7905 819.67,-79.1493"/>
<polygon fill="midnightblue" stroke="midnightblue" points="820.874,-75.8629 810.281,-75.6578 818.434,-82.4239 820.874,-75.8629"/>
</g>
<!-- Node24 -->
<g id="node24" class="node"><title>Node24</title>
<g id="a_node24"><a xlink:title=" ">
<polygon fill="none" stroke="#bfbfbf" points="832.5,-56.5 832.5,-75.5 879.5,-75.5 879.5,-56.5 832.5,-56.5"/>
<text text-anchor="middle" x="856" y="-63.5" font-family="Helvetica,sans-Serif" font-size="10.00">iterator</text>
</a>
</g>
</g>
<!-- Node9&#45;&gt;Node24 -->
<g id="edge28" class="edge"><title>Node9&#45;&gt;Node24</title>
<path fill="none" stroke="midnightblue" d="M925.434,-112.399C911.12,-103.04 892.388,-90.7924 877.989,-81.3771"/>
<polygon fill="midnightblue" stroke="midnightblue" points="879.526,-78.2009 869.241,-75.6578 875.696,-84.0597 879.526,-78.2009"/>
</g>
<!-- Node25 -->
<g id="node25" class="node"><title>Node25</title>
<g id="a_node25"><a xlink:title=" ">
<polygon fill="none" stroke="#bfbfbf" points="898,-56.5 898,-75.5 938,-75.5 938,-56.5 898,-56.5"/>
<text text-anchor="middle" x="918" y="-63.5" font-family="Helvetica,sans-Serif" font-size="10.00">limits</text>
</a>
</g>
</g>
<!-- Node9&#45;&gt;Node25 -->
<g id="edge29" class="edge"><title>Node9&#45;&gt;Node25</title>
<path fill="none" stroke="midnightblue" d="M940.127,-112.399C936.087,-104.11 930.942,-93.5542 926.631,-84.7077"/>
<polygon fill="midnightblue" stroke="midnightblue" points="929.747,-83.1135 922.22,-75.6578 923.455,-86.1804 929.747,-83.1135"/>
</g>
<!-- Node26 -->
<g id="node26" class="node"><title>Node26</title>
<g id="a_node26"><a xlink:title=" ">
<polygon fill="none" stroke="#bfbfbf" points="956,-56.5 956,-75.5 998,-75.5 998,-56.5 956,-56.5"/>
<text text-anchor="middle" x="977" y="-63.5" font-family="Helvetica,sans-Serif" font-size="10.00">locale</text>
</a>
</g>
</g>
<!-- Node9&#45;&gt;Node26 -->
<g id="edge30" class="edge"><title>Node9&#45;&gt;Node26</title>
<path fill="none" stroke="midnightblue" d="M954.11,-112.399C958.289,-104.11 963.611,-93.5542 968.072,-84.7077"/>
<polygon fill="midnightblue" stroke="midnightblue" points="971.258,-86.1628 972.635,-75.6578 965.007,-83.0112 971.258,-86.1628"/>
</g>
<!-- Node27 -->
<g id="node27" class="node"><title>Node27</title>
<g id="a_node27"><a xlink:title=" ">
<polygon fill="none" stroke="#bfbfbf" points="1016.5,-56.5 1016.5,-75.5 1051.5,-75.5 1051.5,-56.5 1016.5,-56.5"/>
<text text-anchor="middle" x="1034" y="-63.5" font-family="Helvetica,sans-Serif" font-size="10.00">map</text>
</a>
</g>
</g>
<!-- Node9&#45;&gt;Node27 -->
<g id="edge31" class="edge"><title>Node9&#45;&gt;Node27</title>
<path fill="none" stroke="midnightblue" d="M967.618,-112.399C981.303,-103.04 999.211,-90.7924 1012.98,-81.3771"/>
<polygon fill="midnightblue" stroke="midnightblue" points="1015.06,-84.1919 1021.34,-75.6578 1011.11,-78.414 1015.06,-84.1919"/>
</g>
<!-- Node28 -->
<g id="node28" class="node"><title>Node28</title>
<g id="a_node28"><a xlink:title=" ">
<polygon fill="none" stroke="#bfbfbf" points="1070,-56.5 1070,-75.5 1122,-75.5 1122,-56.5 1070,-56.5"/>
<text text-anchor="middle" x="1096" y="-63.5" font-family="Helvetica,sans-Serif" font-size="10.00">memory</text>
</a>
</g>
</g>
<!-- Node9&#45;&gt;Node28 -->
<g id="edge32" class="edge"><title>Node9&#45;&gt;Node28</title>
<path fill="none" stroke="midnightblue" d="M982.311,-112.399C1007.42,-102.372 1040.84,-89.028 1064.94,-79.405"/>
<polygon fill="midnightblue" stroke="midnightblue" points="1066.33,-82.6168 1074.32,-75.6578 1063.73,-76.1159 1066.33,-82.6168"/>
</g>
<!-- Node29 -->
<g id="node29" class="node"><title>Node29</title>
<g id="a_node29"><a xlink:title=" ">
<polygon fill="none" stroke="#bfbfbf" points="1140.5,-56.5 1140.5,-75.5 1191.5,-75.5 1191.5,-56.5 1140.5,-56.5"/>
<text text-anchor="middle" x="1166" y="-63.5" font-family="Helvetica,sans-Serif" font-size="10.00">numeric</text>
</a>
</g>
</g>
<!-- Node9&#45;&gt;Node29 -->
<g id="edge33" class="edge"><title>Node9&#45;&gt;Node29</title>
<path fill="none" stroke="midnightblue" d="M998.623,-112.475C1039.14,-101.468 1094.48,-86.4302 1130.24,-76.7161"/>
<polygon fill="midnightblue" stroke="midnightblue" points="1131.49,-80.0035 1140.22,-74.004 1129.65,-73.2484 1131.49,-80.0035"/>
</g>
<!-- Node30 -->
<g id="node30" class="node"><title>Node30</title>
<g id="a_node30"><a xlink:title=" ">
<polygon fill="none" stroke="#bfbfbf" points="1210,-56.5 1210,-75.5 1262,-75.5 1262,-56.5 1210,-56.5"/>
<text text-anchor="middle" x="1236" y="-63.5" font-family="Helvetica,sans-Serif" font-size="10.00">sstream</text>
</a>
</g>
</g>
<!-- Node9&#45;&gt;Node30 -->
<g id="edge34" class="edge"><title>Node9&#45;&gt;Node30</title>
<path fill="none" stroke="midnightblue" d="M1005.71,-115.784C1055,-106.569 1127.5,-92.5118 1199.51,-76.2479"/>
<polygon fill="midnightblue" stroke="midnightblue" points="1200.69,-79.5689 1209.66,-73.9386 1199.14,-72.7431 1200.69,-79.5689"/>
</g>
<!-- Node31 -->
<g id="node31" class="node"><title>Node31</title>
<g id="a_node31"><a xlink:title=" ">
<polygon fill="none" stroke="#bfbfbf" points="1280.5,-56.5 1280.5,-75.5 1339.5,-75.5 1339.5,-56.5 1280.5,-56.5"/>
<text text-anchor="middle" x="1310" y="-63.5" font-family="Helvetica,sans-Serif" font-size="10.00">stdexcept</text>
</a>
</g>
</g>
<!-- Node9&#45;&gt;Node31 -->
<g id="edge35" class="edge"><title>Node9&#45;&gt;Node31</title>
<path fill="none" stroke="midnightblue" d="M1005.75,-118.643C1068.74,-109.928 1171.86,-94.8189 1270.41,-75.9942"/>
<polygon fill="midnightblue" stroke="midnightblue" points="1271.08,-79.4295 1280.24,-74.1014 1269.76,-72.5558 1271.08,-79.4295"/>
</g>
<!-- Node32 -->
<g id="node32" class="node"><title>Node32</title>
<g id="a_node32"><a xlink:title=" ">
<polygon fill="none" stroke="#bfbfbf" points="1358,-56.5 1358,-75.5 1420,-75.5 1420,-56.5 1358,-56.5"/>
<text text-anchor="middle" x="1389" y="-63.5" font-family="Helvetica,sans-Serif" font-size="10.00">type_traits</text>
</a>
</g>
</g>
<!-- Node9&#45;&gt;Node32 -->
<g id="edge37" class="edge"><title>Node9&#45;&gt;Node32</title>
<path fill="none" stroke="midnightblue" d="M1005.51,-120.935C1082.01,-113.263 1220.32,-98.0354 1347.68,-76.0907"/>
<polygon fill="midnightblue" stroke="midnightblue" points="1348.36,-79.5252 1357.61,-74.3619 1347.16,-72.6289 1348.36,-79.5252"/>
</g>
<!-- Node33 -->
<g id="node33" class="node"><title>Node33</title>
<g id="a_node33"><a xlink:title=" ">
<polygon fill="none" stroke="#bfbfbf" points="1438,-56.5 1438,-75.5 1478,-75.5 1478,-56.5 1438,-56.5"/>
<text text-anchor="middle" x="1458" y="-63.5" font-family="Helvetica,sans-Serif" font-size="10.00">utility</text>
</a>
</g>
</g>
<!-- Node9&#45;&gt;Node33 -->
<g id="edge38" class="edge"><title>Node9&#45;&gt;Node33</title>
<path fill="none" stroke="midnightblue" d="M1005.81,-124.064C1095.3,-119.54 1270.99,-107.457 1428.01,-75.8214"/>
<polygon fill="midnightblue" stroke="midnightblue" points="1428.76,-79.2422 1437.85,-73.8085 1427.35,-72.3842 1428.76,-79.2422"/>
</g>
<!-- Node34 -->
<g id="node34" class="node"><title>Node34</title>
<g id="a_node34"><a xlink:title=" ">
<polygon fill="none" stroke="#bfbfbf" points="1496.5,-56.5 1496.5,-75.5 1539.5,-75.5 1539.5,-56.5 1496.5,-56.5"/>
<text text-anchor="middle" x="1518" y="-63.5" font-family="Helvetica,sans-Serif" font-size="10.00">cstdio</text>
</a>
</g>
</g>
<!-- Node9&#45;&gt;Node34 -->
<g id="edge40" class="edge"><title>Node9&#45;&gt;Node34</title>
<path fill="none" stroke="midnightblue" d="M1005.84,-124.64C1103.82,-120.748 1306.53,-109.314 1486.53,-75.7009"/>
<polygon fill="midnightblue" stroke="midnightblue" points="1487.27,-79.1234 1496.45,-73.823 1485.97,-72.2458 1487.27,-79.1234"/>
</g>
<!-- Node35&#45;&gt;Node3 -->
<g id="edge42" class="edge"><title>Node35&#45;&gt;Node3</title>
<path fill="none" stroke="midnightblue" d="M176.691,-179.821C141.436,-170.701 88.6323,-155.578 72,-143 51.9536,-127.84 37.2097,-102.4 28.8685,-85.1714"/>
<polygon fill="midnightblue" stroke="midnightblue" points="31.8616,-83.3015 24.5123,-75.6701 25.4986,-86.219 31.8616,-83.3015"/>
</g>
<!-- Node35&#45;&gt;Node6 -->
<g id="edge43" class="edge"><title>Node35&#45;&gt;Node6</title>
<path fill="none" stroke="midnightblue" d="M197.678,-179.475C183.884,-169.931 161.301,-154.307 144.768,-142.868"/>
<polygon fill="midnightblue" stroke="midnightblue" points="146.514,-139.82 136.299,-137.009 142.531,-145.577 146.514,-139.82"/>
</g>
<!-- Node35&#45;&gt;Node7 -->
<g id="edge44" class="edge"><title>Node35&#45;&gt;Node7</title>
<path fill="none" stroke="midnightblue" d="M209.39,-179.113C208.088,-164.439 204.179,-134.527 193,-112 187.682,-101.283 179.287,-90.963 171.739,-82.915"/>
<polygon fill="midnightblue" stroke="midnightblue" points="174.133,-80.3571 164.619,-75.6941 169.148,-85.272 174.133,-80.3571"/>
</g>
</g>
</svg>
        <g id="navigator" transform="translate(0 0)" fill="#404254">
                <rect fill="#f2f5e9" fill-opacity="0.5" stroke="#606060" stroke-width=".5" x="0" y="0" width="60" height="60"/>
                <use id="zoomplus" xlink:href="#zoomPlus" x="17" y="9" onmousedown="handleZoom(evt,'in')"/>
                <use id="zoomminus" xlink:href="#zoomMin" x="42" y="9" onmousedown="handleZoom(evt,'out')"/>
                <use id="reset" xlink:href="#resetDef" x="30" y="36" onmousedown="handleReset()"/>
                <g id="arrowUp" xlink:href="#dirArrow" transform="translate(30 24)" onmousedown="handlePan(0,-1)">
                  <use xlink:href="#rim" fill="#404040">
                        <set attributeName="fill" to="#808080" begin="arrowUp.mouseover" end="arrowUp.mouseout"/>
                  </use>
                  <path fill="none" stroke="white" stroke-width="1.5" d="M0,-3.0v7 M-2.5,-0.5L0,-3.0L2.5,-0.5"/>
                </g>
                <g id="arrowRight" xlink:href="#dirArrow" transform="rotate(90) translate(36 -43)" onmousedown="handlePan(1,0)">
                  <use xlink:href="#rim" fill="#404040">
                        <set attributeName="fill" to="#808080" begin="arrowRight.mouseover" end="arrowRight.mouseout"/>
                  </use>
                  <path fill="none" stroke="white" stroke-width="1.5" d="M0,-3.0v7 M-2.5,-0.5L0,-3.0L2.5,-0.5"/>
                </g>
                <g id="arrowDown" xlink:href="#dirArrow" transform="rotate(180) translate(-30 -48)" onmousedown="handlePan(0,1)">
                  <use xlink:href="#rim" fill="#404040">
                        <set attributeName="fill" to="#808080" begin="arrowDown.mouseover" end="arrowDown.mouseout"/>
                  </use>
                  <path fill="none" stroke="white" stroke-width="1.5" d="M0,-3.0v7 M-2.5,-0.5L0,-3.0L2.5,-0.5"/>
                </g>
                <g id="arrowLeft" xlink:href="#dirArrow" transform="rotate(270) translate(-36 17)" onmousedown="handlePan(-1,0)">
                  <use xlink:href="#rim" fill="#404040">
                        <set attributeName="fill" to="#808080" begin="arrowLeft.mouseover" end="arrowLeft.mouseout"/>
                  </use>
                  <path fill="none" stroke="white" stroke-width="1.5" d="M0,-3.0v7 M-2.5,-0.5L0,-3.0L2.5,-0.5"/>
                </g>
        </g>
        <svg viewBox="0 0 15 15" width="100%" height="30px" preserveAspectRatio="xMaxYMin meet">
         <g id="arrow_out" transform="scale(0.3 0.3)">
          <a xlink:href="method_serializer_8h__incl_org.svg" target="_base">
           <rect id="button" ry="5" rx="5" y="6" x="6" height="38" width="38"
                fill="#f2f5e9" fill-opacity="0.5" stroke="#606060" stroke-width="1.0"/>
           <path id="arrow"
             d="M 11.500037,31.436501 C 11.940474,20.09759 22.043105,11.32322 32.158766,21.979434 L 37.068811,17.246167 C 37.068811,17.246167 37.088388,32 37.088388,32 L 22.160133,31.978069 C 22.160133,31.978069 26.997745,27.140456 26.997745,27.140456 C 18.528582,18.264221 13.291696,25.230495 11.500037,31.436501 z"
             style="fill:#404040;"/>
          </a>
         </g>
        </svg>
</svg>
