<?xml version="1.0" encoding="UTF-8" standalone="no"?>
<!DOCTYPE svg PUBLIC "-//W3C//DTD SVG 1.1//EN"
 "http://www.w3.org/Graphics/SVG/1.1/DTD/svg11.dtd">
<!-- Generated by graphviz version 2.38.0 (20140413.2041)
 -->
<!-- Title: Utils::Attributes::Signature_attribute Pages: 1 -->
<svg width="327pt" height="332pt"
 viewBox="0.00 0.00 326.50 332.00" xmlns="http://www.w3.org/2000/svg" xmlns:xlink="http://www.w3.org/1999/xlink">
<g id="graph0" class="graph" transform="scale(1 1) rotate(0) translate(4 328)">
<title>Utils::Attributes::Signature_attribute</title>
<!-- Node1 -->
<g id="node1" class="node"><title>Node1</title>
<g id="a_node1"><a xlink:title=" ">
<polygon fill="#bfbfbf" stroke="black" points="153,-0.5 153,-90.5 272,-90.5 272,-0.5 153,-0.5"/>
<text text-anchor="start" x="161" y="-78.5" font-family="Helvetica,sans-Serif" font-size="10.00">Utils::Attributes::</text>
<text text-anchor="middle" x="212.5" y="-67.5" font-family="Helvetica,sans-Serif" font-size="10.00">Signature_attribute</text>
<polyline fill="none" stroke="black" points="153,-60.5 272,-60.5 "/>
<text text-anchor="middle" x="212.5" y="-48.5" font-family="Helvetica,sans-Serif" font-size="10.00"> </text>
<polyline fill="none" stroke="black" points="153,-41.5 272,-41.5 "/>
<text text-anchor="start" x="161" y="-29.5" font-family="Helvetica,sans-Serif" font-size="10.00">+ Signature_attribute()</text>
<text text-anchor="start" x="161" y="-18.5" font-family="Helvetica,sans-Serif" font-size="10.00">+ ~Signature_attribute()</text>
<text text-anchor="start" x="161" y="-7.5" font-family="Helvetica,sans-Serif" font-size="10.00">+ getSpecificInfo()</text>
</a>
</g>
</g>
<!-- Node2 -->
<g id="node2" class="node"><title>Node2</title>
<g id="a_node2"><a xlink:href="../../dc/dac/class_utils_1_1_attributes_1_1_base_attribute.xhtml" target="_top" xlink:title=" ">
<polygon fill="none" stroke="black" points="76,-128.5 76,-218.5 173,-218.5 173,-128.5 76,-128.5"/>
<text text-anchor="start" x="84" y="-206.5" font-family="Helvetica,sans-Serif" font-size="10.00">Utils::Attributes::</text>
<text text-anchor="middle" x="124.5" y="-195.5" font-family="Helvetica,sans-Serif" font-size="10.00">BaseAttribute</text>
<polyline fill="none" stroke="black" points="76,-188.5 173,-188.5 "/>
<text text-anchor="middle" x="124.5" y="-176.5" font-family="Helvetica,sans-Serif" font-size="10.00"> </text>
<polyline fill="none" stroke="black" points="76,-169.5 173,-169.5 "/>
<text text-anchor="start" x="84" y="-157.5" font-family="Helvetica,sans-Serif" font-size="10.00">+ BaseAttribute()</text>
<text text-anchor="start" x="84" y="-146.5" font-family="Helvetica,sans-Serif" font-size="10.00">+ BaseAttribute()</text>
<text text-anchor="start" x="84" y="-135.5" font-family="Helvetica,sans-Serif" font-size="10.00">+ ~BaseAttribute()</text>
</a>
</g>
</g>
<!-- Node2&#45;&gt;Node1 -->
<g id="edge1" class="edge"><title>Node2&#45;&gt;Node1</title>
<path fill="none" stroke="midnightblue" d="M161.168,-119.998C167.96,-110.274 174.991,-100.206 181.591,-90.7568"/>
<polygon fill="none" stroke="midnightblue" points="158.135,-118.229 155.278,-128.431 163.874,-122.237 158.135,-118.229"/>
</g>
<!-- Node3 -->
<g id="node3" class="node"><title>Node3</title>
<g id="a_node3"><a xlink:title=" ">
<polygon fill="none" stroke="#bfbfbf" points="0,-266.5 0,-323.5 51,-323.5 51,-266.5 0,-266.5"/>
<text text-anchor="middle" x="25.5" y="-311.5" font-family="Helvetica,sans-Serif" font-size="10.00">uint32_t</text>
<polyline fill="none" stroke="#bfbfbf" points="0,-304.5 51,-304.5 "/>
<text text-anchor="middle" x="25.5" y="-292.5" font-family="Helvetica,sans-Serif" font-size="10.00"> </text>
<polyline fill="none" stroke="#bfbfbf" points="0,-285.5 51,-285.5 "/>
<text text-anchor="middle" x="25.5" y="-273.5" font-family="Helvetica,sans-Serif" font-size="10.00"> </text>
</a>
</g>
</g>
<!-- Node3&#45;&gt;Node2 -->
<g id="edge2" class="edge"><title>Node3&#45;&gt;Node2</title>
<path fill="none" stroke="#404040" d="M30.0533,-266.343C32.5967,-256.474 36.5118,-245.665 42.5,-237 48.9953,-227.601 57.3492,-219.003 66.231,-211.392"/>
<polygon fill="none" stroke="#404040" points="66.2781,-211.354 68.4405,-204.475 75.6223,-203.825 73.4599,-210.704 66.2781,-211.354"/>
<text text-anchor="middle" x="80.5" y="-240" font-family="Helvetica,sans-Serif" font-size="10.00"> +attribute_length</text>
</g>
<!-- Node4 -->
<g id="node4" class="node"><title>Node4</title>
<g id="a_node4"><a xlink:title=" ">
<polygon fill="none" stroke="#bfbfbf" points="158,-266.5 158,-323.5 209,-323.5 209,-266.5 158,-266.5"/>
<text text-anchor="middle" x="183.5" y="-311.5" font-family="Helvetica,sans-Serif" font-size="10.00">uint16_t</text>
<polyline fill="none" stroke="#bfbfbf" points="158,-304.5 209,-304.5 "/>
<text text-anchor="middle" x="183.5" y="-292.5" font-family="Helvetica,sans-Serif" font-size="10.00"> </text>
<polyline fill="none" stroke="#bfbfbf" points="158,-285.5 209,-285.5 "/>
<text text-anchor="middle" x="183.5" y="-273.5" font-family="Helvetica,sans-Serif" font-size="10.00"> </text>
</a>
</g>
</g>
<!-- Node4&#45;&gt;Node1 -->
<g id="edge4" class="edge"><title>Node4&#45;&gt;Node1</title>
<path fill="none" stroke="#404040" d="M209.041,-274.647C216.802,-267.255 224.366,-258.138 228.5,-248 247.435,-201.567 240.247,-144.189 230.199,-102.552"/>
<polygon fill="none" stroke="#404040" points="230.142,-102.332 224.777,-97.5132 227.162,-90.7077 232.527,-95.5262 230.142,-102.332"/>
<text text-anchor="middle" x="279.5" y="-171" font-family="Helvetica,sans-Serif" font-size="10.00"> +signature_index</text>
</g>
<!-- Node4&#45;&gt;Node2 -->
<g id="edge3" class="edge"><title>Node4&#45;&gt;Node2</title>
<path fill="none" stroke="#404040" d="M157.847,-280.758C145.694,-272.995 132.361,-261.955 125.5,-248 122.892,-242.696 121.196,-236.906 120.165,-230.979"/>
<polygon fill="none" stroke="#404040" points="120.134,-230.669 115.542,-225.109 118.908,-218.732 123.5,-224.292 120.134,-230.669"/>
<text text-anchor="middle" x="177" y="-240" font-family="Helvetica,sans-Serif" font-size="10.00"> +attribute_name_index</text>
</g>
</g>
</svg>
