<?xml version="1.0" encoding="UTF-8" standalone="no"?>
<!DOCTYPE svg PUBLIC "-//W3C//DTD SVG 1.1//EN"
 "http://www.w3.org/Graphics/SVG/1.1/DTD/svg11.dtd">
<!-- Generated by graphviz version 2.38.0 (20140413.2041)
 -->
<!-- Title: Utils::Infos::field_info Pages: 1 -->
<svg width="196pt" height="226pt"
 viewBox="0.00 0.00 196.00 226.00" xmlns="http://www.w3.org/2000/svg" xmlns:xlink="http://www.w3.org/1999/xlink">
<g id="graph0" class="graph" transform="scale(1 1) rotate(0) translate(4 222)">
<title>Utils::Infos::field_info</title>
<!-- Node1 -->
<g id="node1" class="node"><title>Node1</title>
<g id="a_node1"><a xlink:title=" ">
<polygon fill="#bfbfbf" stroke="black" points="23.5,-0.5 23.5,-68.5 129.5,-68.5 129.5,-0.5 23.5,-0.5"/>
<text text-anchor="middle" x="76.5" y="-56.5" font-family="Helvetica,sans-Serif" font-size="10.00">Utils::Infos::field_info</text>
<polyline fill="none" stroke="black" points="23.5,-49.5 129.5,-49.5 "/>
<text text-anchor="middle" x="76.5" y="-37.5" font-family="Helvetica,sans-Serif" font-size="10.00"> </text>
<polyline fill="none" stroke="black" points="23.5,-30.5 129.5,-30.5 "/>
<text text-anchor="start" x="31.5" y="-18.5" font-family="Helvetica,sans-Serif" font-size="10.00">+ field_info()</text>
<text text-anchor="start" x="31.5" y="-7.5" font-family="Helvetica,sans-Serif" font-size="10.00">+ ~field_info()</text>
</a>
</g>
</g>
<!-- Node2 -->
<g id="node2" class="node"><title>Node2</title>
<g id="a_node2"><a xlink:title=" ">
<polygon fill="none" stroke="#bfbfbf" points="0,-155 0,-212 51,-212 51,-155 0,-155"/>
<text text-anchor="middle" x="25.5" y="-200" font-family="Helvetica,sans-Serif" font-size="10.00">uint16_t</text>
<polyline fill="none" stroke="#bfbfbf" points="0,-193 51,-193 "/>
<text text-anchor="middle" x="25.5" y="-181" font-family="Helvetica,sans-Serif" font-size="10.00"> </text>
<polyline fill="none" stroke="#bfbfbf" points="0,-174 51,-174 "/>
<text text-anchor="middle" x="25.5" y="-162" font-family="Helvetica,sans-Serif" font-size="10.00"> </text>
</a>
</g>
</g>
<!-- Node2&#45;&gt;Node1 -->
<g id="edge1" class="edge"><title>Node2&#45;&gt;Node1</title>
<path fill="none" stroke="#404040" d="M20.9131,-154.668C18.8883,-135.016 18.6575,-108.467 27.5,-87 28.6722,-84.1543 30.0809,-81.3744 31.6691,-78.6743"/>
<polygon fill="none" stroke="#404040" points="31.7463,-78.5625 31.8625,-71.3523 38.5628,-68.6864 38.4465,-75.8966 31.7463,-78.5625"/>
<text text-anchor="middle" x="67" y="-123" font-family="Helvetica,sans-Serif" font-size="10.00"> +attributes_count</text>
<text text-anchor="middle" x="67" y="-112" font-family="Helvetica,sans-Serif" font-size="10.00">+access_flags</text>
<text text-anchor="middle" x="67" y="-101" font-family="Helvetica,sans-Serif" font-size="10.00">+descriptor_index</text>
<text text-anchor="middle" x="67" y="-90" font-family="Helvetica,sans-Serif" font-size="10.00">+name_index</text>
</g>
<!-- Node3 -->
<g id="node3" class="node"><title>Node3</title>
<g id="a_node3"><a xlink:title=" ">
<polygon fill="none" stroke="#bfbfbf" points="69,-149.5 69,-217.5 188,-217.5 188,-149.5 69,-149.5"/>
<text text-anchor="start" x="77" y="-205.5" font-family="Helvetica,sans-Serif" font-size="10.00">vector&lt; Utils::Attributes</text>
<text text-anchor="middle" x="128.5" y="-194.5" font-family="Helvetica,sans-Serif" font-size="10.00">::attribute_info &gt;</text>
<polyline fill="none" stroke="#bfbfbf" points="69,-187.5 188,-187.5 "/>
<text text-anchor="middle" x="128.5" y="-175.5" font-family="Helvetica,sans-Serif" font-size="10.00"> </text>
<polyline fill="none" stroke="#bfbfbf" points="69,-168.5 188,-168.5 "/>
<text text-anchor="middle" x="128.5" y="-156.5" font-family="Helvetica,sans-Serif" font-size="10.00"> </text>
</a>
</g>
</g>
<!-- Node3&#45;&gt;Node1 -->
<g id="edge2" class="edge"><title>Node3&#45;&gt;Node1</title>
<path fill="none" stroke="#404040" d="M123.43,-149.495C119.93,-130.751 114.453,-107.091 106.5,-87 105.51,-84.4986 104.411,-81.974 103.237,-79.4568"/>
<polygon fill="none" stroke="#404040" points="103.137,-79.26 96.852,-75.7237 97.6992,-68.5625 103.984,-72.0988 103.137,-79.26"/>
<text text-anchor="middle" x="144.5" y="-106.5" font-family="Helvetica,sans-Serif" font-size="10.00"> +attributes</text>
</g>
</g>
</svg>
