<?xml version="1.0" encoding="UTF-8" standalone="no"?>
<!DOCTYPE svg PUBLIC "-//W3C//DTD SVG 1.1//EN"
 "http://www.w3.org/Graphics/SVG/1.1/DTD/svg11.dtd">
<!-- Generated by graphviz version 2.38.0 (20140413.2041)
 -->
<!-- Title: include/viewer.h Pages: 1 -->
<svg width="2027pt" height="319pt"
 viewBox="0.00 0.00 2026.55 319.00" xmlns="http://www.w3.org/2000/svg" xmlns:xlink="http://www.w3.org/1999/xlink">
<g id="graph0" class="graph" transform="scale(1 1) rotate(0) translate(4 315)">
<title>include/viewer.h</title>
<!-- Node1 -->
<g id="node1" class="node"><title>Node1</title>
<g id="a_node1"><a xlink:title=" ">
<polygon fill="#bfbfbf" stroke="black" points="1757.5,-291.5 1757.5,-310.5 1842.5,-310.5 1842.5,-291.5 1757.5,-291.5"/>
<text text-anchor="middle" x="1800" y="-298.5" font-family="Helvetica,sans-Serif" font-size="10.00">include/viewer.h</text>
</a>
</g>
</g>
<!-- Node2 -->
<g id="node2" class="node"><title>Node2</title>
<g id="a_node2"><a xlink:title=" ">
<polygon fill="none" stroke="#bfbfbf" points="1742.5,-56.5 1742.5,-75.5 1783.5,-75.5 1783.5,-56.5 1742.5,-56.5"/>
<text text-anchor="middle" x="1763" y="-63.5" font-family="Helvetica,sans-Serif" font-size="10.00">string</text>
</a>
</g>
</g>
<!-- Node1&#45;&gt;Node2 -->
<g id="edge1" class="edge"><title>Node1&#45;&gt;Node2</title>
<path fill="none" stroke="midnightblue" d="M1794.49,-291.415C1789.12,-282.628 1781.19,-268.399 1777,-255 1758.41,-195.497 1759.73,-120.467 1761.63,-85.9531"/>
<polygon fill="midnightblue" stroke="midnightblue" points="1765.13,-86.0836 1762.26,-75.8826 1758.14,-85.6418 1765.13,-86.0836"/>
</g>
<!-- Node3 -->
<g id="node3" class="node"><title>Node3</title>
<g id="a_node3"><a xlink:title=" ">
<polygon fill="none" stroke="#bfbfbf" points="1926,-56.5 1926,-75.5 1968,-75.5 1968,-56.5 1926,-56.5"/>
<text text-anchor="middle" x="1947" y="-63.5" font-family="Helvetica,sans-Serif" font-size="10.00">vector</text>
</a>
</g>
</g>
<!-- Node1&#45;&gt;Node3 -->
<g id="edge2" class="edge"><title>Node1&#45;&gt;Node3</title>
<path fill="none" stroke="midnightblue" d="M1842.78,-293.176C1892.8,-282.658 1973.39,-257.224 2010,-199 2019.65,-183.655 2025.24,-152.804 2003,-112 1996.03,-99.2108 1983.77,-88.7255 1972.49,-81.1035"/>
<polygon fill="midnightblue" stroke="midnightblue" points="1974.1,-77.9834 1963.77,-75.6154 1970.37,-83.9065 1974.1,-77.9834"/>
</g>
<!-- Node4 -->
<g id="node4" class="node"><title>Node4</title>
<g id="a_node4"><a xlink:href="../../d4/db4/classfile_8h.xhtml" target="_top" xlink:title=" ">
<polygon fill="none" stroke="black" points="1805,-235.5 1805,-254.5 1865,-254.5 1865,-235.5 1805,-235.5"/>
<text text-anchor="middle" x="1835" y="-242.5" font-family="Helvetica,sans-Serif" font-size="10.00">classfile.h</text>
</a>
</g>
</g>
<!-- Node1&#45;&gt;Node4 -->
<g id="edge3" class="edge"><title>Node1&#45;&gt;Node4</title>
<path fill="none" stroke="midnightblue" d="M1805.78,-291.083C1810.67,-283.534 1817.83,-272.495 1823.83,-263.23"/>
<polygon fill="midnightblue" stroke="midnightblue" points="1826.83,-265.046 1829.33,-254.751 1820.95,-261.239 1826.83,-265.046"/>
</g>
<!-- Node6 -->
<g id="node6" class="node"><title>Node6</title>
<g id="a_node6"><a xlink:href="../../da/d6e/attributes_8h.xhtml" target="_top" xlink:title=" ">
<polygon fill="none" stroke="black" points="1794,-118 1794,-137 1880,-137 1880,-118 1794,-118"/>
<text text-anchor="middle" x="1837" y="-125" font-family="Helvetica,sans-Serif" font-size="10.00">utils/attributes.h</text>
</a>
</g>
</g>
<!-- Node1&#45;&gt;Node6 -->
<g id="edge48" class="edge"><title>Node1&#45;&gt;Node6</title>
<path fill="none" stroke="midnightblue" d="M1796.06,-291.377C1787.31,-270.952 1768.35,-218.383 1785,-179 1791.09,-164.591 1803.53,-152.268 1814.71,-143.402"/>
<polygon fill="midnightblue" stroke="midnightblue" points="1816.96,-146.095 1822.89,-137.32 1812.78,-140.477 1816.96,-146.095"/>
</g>
<!-- Node4&#45;&gt;Node3 -->
<g id="edge4" class="edge"><title>Node4&#45;&gt;Node3</title>
<path fill="none" stroke="midnightblue" d="M1865.08,-239.652C1906,-233.05 1975.88,-219.104 1991,-199 2017.88,-163.273 1982.89,-110.212 1961.45,-83.5536"/>
<polygon fill="midnightblue" stroke="midnightblue" points="1963.9,-81.025 1954.8,-75.5885 1958.52,-85.5093 1963.9,-81.025"/>
</g>
<!-- Node5 -->
<g id="node5" class="node"><title>Node5</title>
<g id="a_node5"><a xlink:href="../../d0/d36/constant_pool_8h.xhtml" target="_top" xlink:title=" ">
<polygon fill="none" stroke="black" points="1794.5,-179.5 1794.5,-198.5 1897.5,-198.5 1897.5,-179.5 1794.5,-179.5"/>
<text text-anchor="middle" x="1846" y="-186.5" font-family="Helvetica,sans-Serif" font-size="10.00">utils/constantPool.h</text>
</a>
</g>
</g>
<!-- Node4&#45;&gt;Node5 -->
<g id="edge5" class="edge"><title>Node4&#45;&gt;Node5</title>
<path fill="none" stroke="midnightblue" d="M1836.82,-235.083C1838.27,-227.927 1840.37,-217.635 1842.19,-208.691"/>
<polygon fill="midnightblue" stroke="midnightblue" points="1845.65,-209.248 1844.22,-198.751 1838.79,-207.851 1845.65,-209.248"/>
</g>
<!-- Node7 -->
<g id="node7" class="node"><title>Node7</title>
<g id="a_node7"><a xlink:href="../../d9/d49/types_8h.xhtml" target="_top" xlink:title=" ">
<polygon fill="none" stroke="black" points="1802,-56.5 1802,-75.5 1872,-75.5 1872,-56.5 1802,-56.5"/>
<text text-anchor="middle" x="1837" y="-63.5" font-family="Helvetica,sans-Serif" font-size="10.00">utils/types.h</text>
</a>
</g>
</g>
<!-- Node4&#45;&gt;Node7 -->
<g id="edge47" class="edge"><title>Node4&#45;&gt;Node7</title>
<path fill="none" stroke="midnightblue" d="M1820.62,-235.194C1808.99,-227.25 1793.24,-214.457 1785,-199 1766.73,-164.738 1759.63,-146.73 1777,-112 1783.73,-98.5432 1796.61,-88.0665 1808.71,-80.6212"/>
<polygon fill="midnightblue" stroke="midnightblue" points="1810.73,-83.4985 1817.7,-75.5195 1807.28,-77.4101 1810.73,-83.4985"/>
</g>
<!-- Node9 -->
<g id="node9" class="node"><title>Node9</title>
<g id="a_node9"><a xlink:href="../../d3/dd1/nlohmann__json_8hpp.xhtml" target="_top" xlink:title=" ">
<polygon fill="none" stroke="black" points="943.5,-112.5 943.5,-142.5 1060.5,-142.5 1060.5,-112.5 943.5,-112.5"/>
<text text-anchor="start" x="951.5" y="-130.5" font-family="Helvetica,sans-Serif" font-size="10.00">utils/external/nlohmann</text>
<text text-anchor="middle" x="1002" y="-119.5" font-family="Helvetica,sans-Serif" font-size="10.00">_json.hpp</text>
</a>
</g>
</g>
<!-- Node4&#45;&gt;Node9 -->
<g id="edge14" class="edge"><title>Node4&#45;&gt;Node9</title>
<path fill="none" stroke="midnightblue" d="M1804.86,-239.821C1685.25,-223.236 1242.2,-161.805 1070.56,-138.006"/>
<polygon fill="midnightblue" stroke="midnightblue" points="1071.01,-134.535 1060.63,-136.629 1070.05,-141.469 1071.01,-134.535"/>
</g>
<!-- Node35 -->
<g id="node35" class="node"><title>Node35</title>
<g id="a_node35"><a xlink:href="../../d9/d70/infos_8h.xhtml" target="_top" xlink:title=" ">
<polygon fill="none" stroke="black" points="1916,-179.5 1916,-198.5 1982,-198.5 1982,-179.5 1916,-179.5"/>
<text text-anchor="middle" x="1949" y="-186.5" font-family="Helvetica,sans-Serif" font-size="10.00">utils/infos.h</text>
</a>
</g>
</g>
<!-- Node4&#45;&gt;Node35 -->
<g id="edge43" class="edge"><title>Node4&#45;&gt;Node35</title>
<path fill="none" stroke="midnightblue" d="M1853.06,-235.444C1871.57,-226.675 1900.58,-212.935 1921.86,-202.858"/>
<polygon fill="midnightblue" stroke="midnightblue" points="1923.48,-205.96 1931.02,-198.516 1920.49,-199.634 1923.48,-205.96"/>
</g>
<!-- Node5&#45;&gt;Node2 -->
<g id="edge6" class="edge"><title>Node5&#45;&gt;Node2</title>
<path fill="none" stroke="midnightblue" d="M1824.16,-179.387C1808.54,-172.068 1788.34,-160.022 1777,-143 1765.75,-126.107 1762.91,-102.639 1762.46,-86.2668"/>
<polygon fill="midnightblue" stroke="midnightblue" points="1765.96,-85.7997 1762.48,-75.7945 1758.96,-85.7893 1765.96,-85.7997"/>
</g>
<!-- Node5&#45;&gt;Node3 -->
<g id="edge7" class="edge"><title>Node5&#45;&gt;Node3</title>
<path fill="none" stroke="midnightblue" d="M1854.87,-179.306C1863.78,-170.435 1877.77,-156.142 1889,-143 1905.77,-123.383 1923.56,-99.5599 1934.95,-83.8762"/>
<polygon fill="midnightblue" stroke="midnightblue" points="1937.85,-85.8351 1940.86,-75.6758 1932.18,-81.7427 1937.85,-85.8351"/>
</g>
<!-- Node5&#45;&gt;Node6 -->
<g id="edge8" class="edge"><title>Node5&#45;&gt;Node6</title>
<path fill="none" stroke="midnightblue" d="M1844.71,-179.475C1843.44,-171.08 1841.46,-157.981 1839.82,-147.163"/>
<polygon fill="midnightblue" stroke="midnightblue" points="1843.24,-146.373 1838.29,-137.009 1836.32,-147.42 1843.24,-146.373"/>
</g>
<!-- Node5&#45;&gt;Node7 -->
<g id="edge13" class="edge"><title>Node5&#45;&gt;Node7</title>
<path fill="none" stroke="midnightblue" d="M1826.09,-179.41C1811.78,-172.04 1793.54,-159.916 1785,-143 1778.79,-130.701 1779.27,-124.531 1785,-112 1790.78,-99.3602 1802.05,-88.911 1812.63,-81.2737"/>
<polygon fill="midnightblue" stroke="midnightblue" points="1814.85,-84.0009 1821.22,-75.5333 1810.96,-78.1817 1814.85,-84.0009"/>
</g>
<!-- Node6&#45;&gt;Node2 -->
<g id="edge9" class="edge"><title>Node6&#45;&gt;Node2</title>
<path fill="none" stroke="midnightblue" d="M1826.4,-117.975C1814.75,-108.608 1795.81,-93.3839 1781.67,-82.0081"/>
<polygon fill="midnightblue" stroke="midnightblue" points="1783.57,-79.0477 1773.58,-75.5091 1779.18,-84.503 1783.57,-79.0477"/>
</g>
<!-- Node6&#45;&gt;Node3 -->
<g id="edge10" class="edge"><title>Node6&#45;&gt;Node3</title>
<path fill="none" stroke="midnightblue" d="M1852.76,-117.975C1870.98,-108.122 1901.17,-91.7883 1922.47,-80.2697"/>
<polygon fill="midnightblue" stroke="midnightblue" points="1924.14,-83.3453 1931.27,-75.5091 1920.81,-77.1883 1924.14,-83.3453"/>
</g>
<!-- Node6&#45;&gt;Node7 -->
<g id="edge11" class="edge"><title>Node6&#45;&gt;Node7</title>
<path fill="none" stroke="midnightblue" d="M1837,-117.975C1837,-109.58 1837,-96.4806 1837,-85.6631"/>
<polygon fill="midnightblue" stroke="midnightblue" points="1840.5,-85.5091 1837,-75.5091 1833.5,-85.5091 1840.5,-85.5091"/>
</g>
<!-- Node8 -->
<g id="node8" class="node"><title>Node8</title>
<g id="a_node8"><a xlink:title=" ">
<polygon fill="none" stroke="#bfbfbf" points="1752,-0.5 1752,-19.5 1798,-19.5 1798,-0.5 1752,-0.5"/>
<text text-anchor="middle" x="1775" y="-7.5" font-family="Helvetica,sans-Serif" font-size="10.00">cstdint</text>
</a>
</g>
</g>
<!-- Node7&#45;&gt;Node8 -->
<g id="edge12" class="edge"><title>Node7&#45;&gt;Node8</title>
<path fill="none" stroke="midnightblue" d="M1827.04,-56.324C1817.87,-48.3414 1804.06,-36.3128 1792.97,-26.6529"/>
<polygon fill="midnightblue" stroke="midnightblue" points="1794.98,-23.7624 1785.14,-19.8339 1790.38,-29.041 1794.98,-23.7624"/>
</g>
<!-- Node9&#45;&gt;Node2 -->
<g id="edge38" class="edge"><title>Node9&#45;&gt;Node2</title>
<path fill="none" stroke="midnightblue" d="M1060.76,-126.03C1184.83,-124.248 1482.3,-115.794 1728,-76 1729.47,-75.7618 1730.97,-75.4903 1732.48,-75.1937"/>
<polygon fill="midnightblue" stroke="midnightblue" points="1733.42,-78.5707 1742.4,-72.9606 1731.88,-71.7414 1733.42,-78.5707"/>
</g>
<!-- Node9&#45;&gt;Node3 -->
<g id="edge41" class="edge"><title>Node9&#45;&gt;Node3</title>
<path fill="none" stroke="midnightblue" d="M1060.76,-124.711C1202.23,-120.058 1572.91,-105.811 1881,-76 1892.43,-74.8943 1904.92,-73.2928 1915.93,-71.7462"/>
<polygon fill="midnightblue" stroke="midnightblue" points="1916.55,-75.1927 1925.95,-70.2983 1915.55,-68.2647 1916.55,-75.1927"/>
</g>
<!-- Node9&#45;&gt;Node8 -->
<g id="edge22" class="edge"><title>Node9&#45;&gt;Node8</title>
<path fill="none" stroke="midnightblue" d="M1060.56,-126.663C1205.84,-126.362 1579.3,-121.089 1694,-76 1720.86,-65.4395 1745.81,-42.667 1760.72,-27.0864"/>
<polygon fill="midnightblue" stroke="midnightblue" points="1763.34,-29.412 1767.57,-19.6971 1758.21,-24.6552 1763.34,-29.412"/>
</g>
<!-- Node10 -->
<g id="node10" class="node"><title>Node10</title>
<g id="a_node10"><a xlink:title=" ">
<polygon fill="none" stroke="#bfbfbf" points="0,-56.5 0,-75.5 56,-75.5 56,-56.5 0,-56.5"/>
<text text-anchor="middle" x="28" y="-63.5" font-family="Helvetica,sans-Serif" font-size="10.00">algorithm</text>
</a>
</g>
</g>
<!-- Node9&#45;&gt;Node10 -->
<g id="edge15" class="edge"><title>Node9&#45;&gt;Node10</title>
<path fill="none" stroke="midnightblue" d="M943.24,-127.086C796.492,-127.745 402.195,-124.575 66.1023,-75.8759"/>
<polygon fill="midnightblue" stroke="midnightblue" points="66.5778,-72.4083 56.176,-74.4218 65.5631,-79.3344 66.5778,-72.4083"/>
</g>
<!-- Node11 -->
<g id="node11" class="node"><title>Node11</title>
<g id="a_node11"><a xlink:title=" ">
<polygon fill="none" stroke="#bfbfbf" points="74,-56.5 74,-75.5 112,-75.5 112,-56.5 74,-56.5"/>
<text text-anchor="middle" x="93" y="-63.5" font-family="Helvetica,sans-Serif" font-size="10.00">array</text>
</a>
</g>
</g>
<!-- Node9&#45;&gt;Node11 -->
<g id="edge16" class="edge"><title>Node9&#45;&gt;Node11</title>
<path fill="none" stroke="midnightblue" d="M943.424,-125.079C776.256,-120.723 298.198,-106.094 122.029,-75.6417"/>
<polygon fill="midnightblue" stroke="midnightblue" points="122.578,-72.1844 112.115,-73.8503 121.333,-79.0728 122.578,-72.1844"/>
</g>
<!-- Node12 -->
<g id="node12" class="node"><title>Node12</title>
<g id="a_node12"><a xlink:title=" ">
<polygon fill="none" stroke="#bfbfbf" points="130.5,-56.5 130.5,-75.5 179.5,-75.5 179.5,-56.5 130.5,-56.5"/>
<text text-anchor="middle" x="155" y="-63.5" font-family="Helvetica,sans-Serif" font-size="10.00">cassert</text>
</a>
</g>
</g>
<!-- Node9&#45;&gt;Node12 -->
<g id="edge17" class="edge"><title>Node9&#45;&gt;Node12</title>
<path fill="none" stroke="midnightblue" d="M943.4,-126.794C810.638,-126.615 476.847,-121.411 189.947,-75.7966"/>
<polygon fill="midnightblue" stroke="midnightblue" points="190.19,-72.2908 179.761,-74.1569 189.078,-79.2019 190.19,-72.2908"/>
</g>
<!-- Node13 -->
<g id="node13" class="node"><title>Node13</title>
<g id="a_node13"><a xlink:title=" ">
<polygon fill="none" stroke="#bfbfbf" points="198,-56.5 198,-75.5 244,-75.5 244,-56.5 198,-56.5"/>
<text text-anchor="middle" x="221" y="-63.5" font-family="Helvetica,sans-Serif" font-size="10.00">cctype</text>
</a>
</g>
</g>
<!-- Node9&#45;&gt;Node13 -->
<g id="edge18" class="edge"><title>Node9&#45;&gt;Node13</title>
<path fill="none" stroke="midnightblue" d="M943.242,-126.65C817.898,-126.085 515.117,-120.005 254.33,-75.873"/>
<polygon fill="midnightblue" stroke="midnightblue" points="254.739,-72.3922 244.291,-74.1517 253.555,-79.2915 254.739,-72.3922"/>
</g>
<!-- Node14 -->
<g id="node14" class="node"><title>Node14</title>
<g id="a_node14"><a xlink:title=" ">
<polygon fill="none" stroke="#bfbfbf" points="262,-56.5 262,-75.5 312,-75.5 312,-56.5 262,-56.5"/>
<text text-anchor="middle" x="287" y="-63.5" font-family="Helvetica,sans-Serif" font-size="10.00">ciso646</text>
</a>
</g>
</g>
<!-- Node9&#45;&gt;Node14 -->
<g id="edge19" class="edge"><title>Node9&#45;&gt;Node14</title>
<path fill="none" stroke="midnightblue" d="M943.263,-125.787C826.455,-123.58 556.766,-114.551 322.222,-75.8923"/>
<polygon fill="midnightblue" stroke="midnightblue" points="322.578,-72.4033 312.138,-74.208 321.425,-79.3076 322.578,-72.4033"/>
</g>
<!-- Node15 -->
<g id="node15" class="node"><title>Node15</title>
<g id="a_node15"><a xlink:title=" ">
<polygon fill="none" stroke="#bfbfbf" points="330,-56.5 330,-75.5 374,-75.5 374,-56.5 330,-56.5"/>
<text text-anchor="middle" x="352" y="-63.5" font-family="Helvetica,sans-Serif" font-size="10.00">cmath</text>
</a>
</g>
</g>
<!-- Node9&#45;&gt;Node15 -->
<g id="edge20" class="edge"><title>Node9&#45;&gt;Node15</title>
<path fill="none" stroke="midnightblue" d="M943.456,-125.634C834.714,-123.178 594.267,-113.766 384.202,-75.8589"/>
<polygon fill="midnightblue" stroke="midnightblue" points="384.689,-72.39 374.223,-74.0321 383.429,-79.2756 384.689,-72.39"/>
</g>
<!-- Node16 -->
<g id="node16" class="node"><title>Node16</title>
<g id="a_node16"><a xlink:title=" ">
<polygon fill="none" stroke="#bfbfbf" points="392,-56.5 392,-75.5 440,-75.5 440,-56.5 392,-56.5"/>
<text text-anchor="middle" x="416" y="-63.5" font-family="Helvetica,sans-Serif" font-size="10.00">cstddef</text>
</a>
</g>
</g>
<!-- Node9&#45;&gt;Node16 -->
<g id="edge21" class="edge"><title>Node9&#45;&gt;Node16</title>
<path fill="none" stroke="midnightblue" d="M943.428,-124.521C843.773,-120.419 634.87,-108.633 449.942,-75.8586"/>
<polygon fill="midnightblue" stroke="midnightblue" points="450.501,-72.403 440.039,-74.0791 449.262,-79.2927 450.501,-72.403"/>
</g>
<!-- Node17 -->
<g id="node17" class="node"><title>Node17</title>
<g id="a_node17"><a xlink:title=" ">
<polygon fill="none" stroke="#bfbfbf" points="458.5,-56.5 458.5,-75.5 503.5,-75.5 503.5,-56.5 458.5,-56.5"/>
<text text-anchor="middle" x="481" y="-63.5" font-family="Helvetica,sans-Serif" font-size="10.00">cstdlib</text>
</a>
</g>
</g>
<!-- Node9&#45;&gt;Node17 -->
<g id="edge23" class="edge"><title>Node9&#45;&gt;Node17</title>
<path fill="none" stroke="midnightblue" d="M943.193,-123.685C852.772,-118.642 674.146,-105.852 513.666,-75.7878"/>
<polygon fill="midnightblue" stroke="midnightblue" points="514.089,-72.3055 503.611,-73.8766 512.782,-79.1824 514.089,-72.3055"/>
</g>
<!-- Node18 -->
<g id="node18" class="node"><title>Node18</title>
<g id="a_node18"><a xlink:title=" ">
<polygon fill="none" stroke="#bfbfbf" points="522,-56.5 522,-75.5 568,-75.5 568,-56.5 522,-56.5"/>
<text text-anchor="middle" x="545" y="-63.5" font-family="Helvetica,sans-Serif" font-size="10.00">cstring</text>
</a>
</g>
</g>
<!-- Node9&#45;&gt;Node18 -->
<g id="edge24" class="edge"><title>Node9&#45;&gt;Node18</title>
<path fill="none" stroke="midnightblue" d="M943.46,-122.447C863.096,-116.243 714.044,-102.445 578.469,-76.019"/>
<polygon fill="midnightblue" stroke="midnightblue" points="578.806,-72.518 568.317,-74.0113 577.448,-79.385 578.806,-72.518"/>
</g>
<!-- Node19 -->
<g id="node19" class="node"><title>Node19</title>
<g id="a_node19"><a xlink:title=" ">
<polygon fill="none" stroke="#bfbfbf" points="586.5,-56.5 586.5,-75.5 651.5,-75.5 651.5,-56.5 586.5,-56.5"/>
<text text-anchor="middle" x="619" y="-63.5" font-family="Helvetica,sans-Serif" font-size="10.00">forward_list</text>
</a>
</g>
</g>
<!-- Node9&#45;&gt;Node19 -->
<g id="edge25" class="edge"><title>Node9&#45;&gt;Node19</title>
<path fill="none" stroke="midnightblue" d="M943.284,-118.968C877.313,-110.245 766.816,-94.8537 661.675,-76.0169"/>
<polygon fill="midnightblue" stroke="midnightblue" points="661.981,-72.5157 651.519,-74.1833 660.738,-79.4043 661.981,-72.5157"/>
</g>
<!-- Node20 -->
<g id="node20" class="node"><title>Node20</title>
<g id="a_node20"><a xlink:title=" ">
<polygon fill="none" stroke="#bfbfbf" points="670,-56.5 670,-75.5 728,-75.5 728,-56.5 670,-56.5"/>
<text text-anchor="middle" x="699" y="-63.5" font-family="Helvetica,sans-Serif" font-size="10.00">functional</text>
</a>
</g>
</g>
<!-- Node9&#45;&gt;Node20 -->
<g id="edge26" class="edge"><title>Node9&#45;&gt;Node20</title>
<path fill="none" stroke="midnightblue" d="M943.432,-116.107C891.841,-106.778 814.432,-92.3576 737.838,-76.1067"/>
<polygon fill="midnightblue" stroke="midnightblue" points="738.526,-72.675 728.016,-74.0118 737.066,-79.521 738.526,-72.675"/>
</g>
<!-- Node21 -->
<g id="node21" class="node"><title>Node21</title>
<g id="a_node21"><a xlink:title=" ">
<polygon fill="none" stroke="#bfbfbf" points="746.5,-56.5 746.5,-75.5 819.5,-75.5 819.5,-56.5 746.5,-56.5"/>
<text text-anchor="middle" x="783" y="-63.5" font-family="Helvetica,sans-Serif" font-size="10.00">initializer_list</text>
</a>
</g>
</g>
<!-- Node9&#45;&gt;Node21 -->
<g id="edge27" class="edge"><title>Node9&#45;&gt;Node21</title>
<path fill="none" stroke="midnightblue" d="M950.377,-112.475C911.935,-102.03 860.138,-87.9576 824.396,-78.2469"/>
<polygon fill="midnightblue" stroke="midnightblue" points="824.877,-74.7507 814.309,-75.5064 823.042,-81.5059 824.877,-74.7507"/>
</g>
<!-- Node22 -->
<g id="node22" class="node"><title>Node22</title>
<g id="a_node22"><a xlink:title=" ">
<polygon fill="none" stroke="#bfbfbf" points="838,-56.5 838,-75.5 888,-75.5 888,-56.5 838,-56.5"/>
<text text-anchor="middle" x="863" y="-63.5" font-family="Helvetica,sans-Serif" font-size="10.00">iomanip</text>
</a>
</g>
</g>
<!-- Node9&#45;&gt;Node22 -->
<g id="edge28" class="edge"><title>Node9&#45;&gt;Node22</title>
<path fill="none" stroke="midnightblue" d="M969.059,-112.399C945.841,-102.461 915.014,-89.2649 892.581,-79.6625"/>
<polygon fill="midnightblue" stroke="midnightblue" points="893.796,-76.3754 883.226,-75.6578 891.042,-82.8106 893.796,-76.3754"/>
</g>
<!-- Node23 -->
<g id="node23" class="node"><title>Node23</title>
<g id="a_node23"><a xlink:title=" ">
<polygon fill="none" stroke="#bfbfbf" points="906,-56.5 906,-75.5 960,-75.5 960,-56.5 906,-56.5"/>
<text text-anchor="middle" x="933" y="-63.5" font-family="Helvetica,sans-Serif" font-size="10.00">iostream</text>
</a>
</g>
</g>
<!-- Node9&#45;&gt;Node23 -->
<g id="edge29" class="edge"><title>Node9&#45;&gt;Node23</title>
<path fill="none" stroke="midnightblue" d="M985.648,-112.399C975.105,-103.308 961.4,-91.4899 950.616,-82.1909"/>
<polygon fill="midnightblue" stroke="midnightblue" points="952.899,-79.5377 943.04,-75.6578 948.328,-84.8389 952.899,-79.5377"/>
</g>
<!-- Node24 -->
<g id="node24" class="node"><title>Node24</title>
<g id="a_node24"><a xlink:title=" ">
<polygon fill="none" stroke="#bfbfbf" points="978.5,-56.5 978.5,-75.5 1025.5,-75.5 1025.5,-56.5 978.5,-56.5"/>
<text text-anchor="middle" x="1002" y="-63.5" font-family="Helvetica,sans-Serif" font-size="10.00">iterator</text>
</a>
</g>
</g>
<!-- Node9&#45;&gt;Node24 -->
<g id="edge30" class="edge"><title>Node9&#45;&gt;Node24</title>
<path fill="none" stroke="midnightblue" d="M1002,-112.399C1002,-104.466 1002,-94.458 1002,-85.8583"/>
<polygon fill="midnightblue" stroke="midnightblue" points="1005.5,-85.6577 1002,-75.6578 998.5,-85.6578 1005.5,-85.6577"/>
</g>
<!-- Node25 -->
<g id="node25" class="node"><title>Node25</title>
<g id="a_node25"><a xlink:title=" ">
<polygon fill="none" stroke="#bfbfbf" points="1044,-56.5 1044,-75.5 1084,-75.5 1084,-56.5 1044,-56.5"/>
<text text-anchor="middle" x="1064" y="-63.5" font-family="Helvetica,sans-Serif" font-size="10.00">limits</text>
</a>
</g>
</g>
<!-- Node9&#45;&gt;Node25 -->
<g id="edge31" class="edge"><title>Node9&#45;&gt;Node25</title>
<path fill="none" stroke="midnightblue" d="M1016.69,-112.399C1025.98,-103.486 1038,-91.9523 1047.6,-82.7408"/>
<polygon fill="midnightblue" stroke="midnightblue" points="1050.19,-85.1072 1054.98,-75.6578 1045.34,-80.0566 1050.19,-85.1072"/>
</g>
<!-- Node26 -->
<g id="node26" class="node"><title>Node26</title>
<g id="a_node26"><a xlink:title=" ">
<polygon fill="none" stroke="#bfbfbf" points="1102,-56.5 1102,-75.5 1144,-75.5 1144,-56.5 1102,-56.5"/>
<text text-anchor="middle" x="1123" y="-63.5" font-family="Helvetica,sans-Serif" font-size="10.00">locale</text>
</a>
</g>
</g>
<!-- Node9&#45;&gt;Node26 -->
<g id="edge32" class="edge"><title>Node9&#45;&gt;Node26</title>
<path fill="none" stroke="midnightblue" d="M1030.68,-112.399C1050.52,-102.639 1076.76,-89.7373 1096.19,-80.1826"/>
<polygon fill="midnightblue" stroke="midnightblue" points="1097.96,-83.2114 1105.39,-75.6578 1094.88,-76.9297 1097.96,-83.2114"/>
</g>
<!-- Node27 -->
<g id="node27" class="node"><title>Node27</title>
<g id="a_node27"><a xlink:title=" ">
<polygon fill="none" stroke="#bfbfbf" points="1162.5,-56.5 1162.5,-75.5 1197.5,-75.5 1197.5,-56.5 1162.5,-56.5"/>
<text text-anchor="middle" x="1180" y="-63.5" font-family="Helvetica,sans-Serif" font-size="10.00">map</text>
</a>
</g>
</g>
<!-- Node9&#45;&gt;Node27 -->
<g id="edge33" class="edge"><title>Node9&#45;&gt;Node27</title>
<path fill="none" stroke="midnightblue" d="M1044.18,-112.399C1077.7,-101.197 1123.59,-85.8572 1152.51,-76.1886"/>
<polygon fill="midnightblue" stroke="midnightblue" points="1153.97,-79.391 1162.35,-72.9012 1151.75,-72.7521 1153.97,-79.391"/>
</g>
<!-- Node28 -->
<g id="node28" class="node"><title>Node28</title>
<g id="a_node28"><a xlink:title=" ">
<polygon fill="none" stroke="#bfbfbf" points="1216,-56.5 1216,-75.5 1268,-75.5 1268,-56.5 1216,-56.5"/>
<text text-anchor="middle" x="1242" y="-63.5" font-family="Helvetica,sans-Serif" font-size="10.00">memory</text>
</a>
</g>
</g>
<!-- Node9&#45;&gt;Node28 -->
<g id="edge34" class="edge"><title>Node9&#45;&gt;Node28</title>
<path fill="none" stroke="midnightblue" d="M1058.73,-112.494C1097.43,-102.931 1150.11,-89.8955 1205.94,-76.0112"/>
<polygon fill="midnightblue" stroke="midnightblue" points="1206.8,-79.4042 1215.66,-73.5935 1205.11,-72.6113 1206.8,-79.4042"/>
</g>
<!-- Node29 -->
<g id="node29" class="node"><title>Node29</title>
<g id="a_node29"><a xlink:title=" ">
<polygon fill="none" stroke="#bfbfbf" points="1286.5,-56.5 1286.5,-75.5 1337.5,-75.5 1337.5,-56.5 1286.5,-56.5"/>
<text text-anchor="middle" x="1312" y="-63.5" font-family="Helvetica,sans-Serif" font-size="10.00">numeric</text>
</a>
</g>
</g>
<!-- Node9&#45;&gt;Node29 -->
<g id="edge35" class="edge"><title>Node9&#45;&gt;Node29</title>
<path fill="none" stroke="midnightblue" d="M1060.71,-116.944C1114.37,-107.933 1196.12,-93.5114 1276.63,-75.9511"/>
<polygon fill="midnightblue" stroke="midnightblue" points="1277.42,-79.36 1286.44,-73.7942 1275.92,-72.5233 1277.42,-79.36"/>
</g>
<!-- Node30 -->
<g id="node30" class="node"><title>Node30</title>
<g id="a_node30"><a xlink:title=" ">
<polygon fill="none" stroke="#bfbfbf" points="1356,-56.5 1356,-75.5 1408,-75.5 1408,-56.5 1356,-56.5"/>
<text text-anchor="middle" x="1382" y="-63.5" font-family="Helvetica,sans-Serif" font-size="10.00">sstream</text>
</a>
</g>
</g>
<!-- Node9&#45;&gt;Node30 -->
<g id="edge36" class="edge"><title>Node9&#45;&gt;Node30</title>
<path fill="none" stroke="midnightblue" d="M1060.73,-119.679C1127.38,-111.537 1239.48,-96.6241 1345.78,-75.8519"/>
<polygon fill="midnightblue" stroke="midnightblue" points="1346.59,-79.2606 1355.72,-73.8894 1345.23,-72.3932 1346.59,-79.2606"/>
</g>
<!-- Node31 -->
<g id="node31" class="node"><title>Node31</title>
<g id="a_node31"><a xlink:title=" ">
<polygon fill="none" stroke="#bfbfbf" points="1426.5,-56.5 1426.5,-75.5 1485.5,-75.5 1485.5,-56.5 1426.5,-56.5"/>
<text text-anchor="middle" x="1456" y="-63.5" font-family="Helvetica,sans-Serif" font-size="10.00">stdexcept</text>
</a>
</g>
</g>
<!-- Node9&#45;&gt;Node31 -->
<g id="edge37" class="edge"><title>Node9&#45;&gt;Node31</title>
<path fill="none" stroke="midnightblue" d="M1060.71,-121.329C1139.4,-113.96 1283.57,-98.928 1416.31,-75.9455"/>
<polygon fill="midnightblue" stroke="midnightblue" points="1417.01,-79.3769 1426.26,-74.2051 1415.8,-72.4818 1417.01,-79.3769"/>
</g>
<!-- Node32 -->
<g id="node32" class="node"><title>Node32</title>
<g id="a_node32"><a xlink:title=" ">
<polygon fill="none" stroke="#bfbfbf" points="1504,-56.5 1504,-75.5 1566,-75.5 1566,-56.5 1504,-56.5"/>
<text text-anchor="middle" x="1535" y="-63.5" font-family="Helvetica,sans-Serif" font-size="10.00">type_traits</text>
</a>
</g>
</g>
<!-- Node9&#45;&gt;Node32 -->
<g id="edge39" class="edge"><title>Node9&#45;&gt;Node32</title>
<path fill="none" stroke="midnightblue" d="M1060.6,-122.653C1151.2,-116.228 1330.87,-101.592 1493.54,-75.8778"/>
<polygon fill="midnightblue" stroke="midnightblue" points="1494.41,-79.2829 1503.73,-74.2481 1493.3,-72.3707 1494.41,-79.2829"/>
</g>
<!-- Node33 -->
<g id="node33" class="node"><title>Node33</title>
<g id="a_node33"><a xlink:title=" ">
<polygon fill="none" stroke="#bfbfbf" points="1584,-56.5 1584,-75.5 1624,-75.5 1624,-56.5 1584,-56.5"/>
<text text-anchor="middle" x="1604" y="-63.5" font-family="Helvetica,sans-Serif" font-size="10.00">utility</text>
</a>
</g>
</g>
<!-- Node9&#45;&gt;Node33 -->
<g id="edge40" class="edge"><title>Node9&#45;&gt;Node33</title>
<path fill="none" stroke="midnightblue" d="M1060.73,-125.437C1163.37,-122.687 1381.93,-112.856 1573.87,-75.8093"/>
<polygon fill="midnightblue" stroke="midnightblue" points="1574.72,-79.21 1583.86,-73.8521 1573.37,-72.3407 1574.72,-79.21"/>
</g>
<!-- Node34 -->
<g id="node34" class="node"><title>Node34</title>
<g id="a_node34"><a xlink:title=" ">
<polygon fill="none" stroke="#bfbfbf" points="1642.5,-56.5 1642.5,-75.5 1685.5,-75.5 1685.5,-56.5 1642.5,-56.5"/>
<text text-anchor="middle" x="1664" y="-63.5" font-family="Helvetica,sans-Serif" font-size="10.00">cstdio</text>
</a>
</g>
</g>
<!-- Node9&#45;&gt;Node34 -->
<g id="edge42" class="edge"><title>Node9&#45;&gt;Node34</title>
<path fill="none" stroke="midnightblue" d="M1060.8,-125.757C1171.28,-123.503 1417.31,-114.407 1632.55,-75.6681"/>
<polygon fill="midnightblue" stroke="midnightblue" points="1633.24,-79.0996 1642.45,-73.8608 1631.99,-72.2133 1633.24,-79.0996"/>
</g>
<!-- Node35&#45;&gt;Node3 -->
<g id="edge44" class="edge"><title>Node35&#45;&gt;Node3</title>
<path fill="none" stroke="midnightblue" d="M1951.73,-179.486C1954.45,-170.52 1958.44,-155.935 1960,-143 1961.65,-129.321 1961.93,-125.642 1960,-112 1958.73,-103.042 1956.11,-93.372 1953.55,-85.2998"/>
<polygon fill="midnightblue" stroke="midnightblue" points="1956.86,-84.1569 1950.34,-75.8034 1950.23,-86.3976 1956.86,-84.1569"/>
</g>
<!-- Node35&#45;&gt;Node6 -->
<g id="edge45" class="edge"><title>Node35&#45;&gt;Node6</title>
<path fill="none" stroke="midnightblue" d="M1932.95,-179.475C1914.41,-169.622 1883.66,-153.288 1861.98,-141.77"/>
<polygon fill="midnightblue" stroke="midnightblue" points="1863.49,-138.61 1853.02,-137.009 1860.21,-144.792 1863.49,-138.61"/>
</g>
<!-- Node35&#45;&gt;Node7 -->
<g id="edge46" class="edge"><title>Node35&#45;&gt;Node7</title>
<path fill="none" stroke="midnightblue" d="M1942.84,-179.13C1932.49,-164.481 1910.61,-134.602 1889,-112 1878.82,-101.347 1866.36,-90.5052 1856.2,-82.1332"/>
<polygon fill="midnightblue" stroke="midnightblue" points="1858.27,-79.309 1848.3,-75.74 1853.87,-84.7509 1858.27,-79.309"/>
</g>
</g>
</svg>
