<?xml version="1.0" encoding="UTF-8" standalone="no"?>
<!DOCTYPE svg PUBLIC "-//W3C//DTD SVG 1.1//EN"
 "http://www.w3.org/Graphics/SVG/1.1/DTD/svg11.dtd">
<!-- Generated by graphviz version 2.38.0 (20140413.2041)
 -->
<!-- Title: Utils::ConstantPool::CONSTANT_InterfaceMethodref_info Pages: 1 -->
<svg width="202pt" height="375pt"
 viewBox="0.00 0.00 202.00 375.00" xmlns="http://www.w3.org/2000/svg" xmlns:xlink="http://www.w3.org/1999/xlink">
<g id="graph0" class="graph" transform="scale(1 1) rotate(0) translate(4 371)">
<title>Utils::ConstantPool::CONSTANT_InterfaceMethodref_info</title>
<!-- Node1 -->
<g id="node1" class="node"><title>Node1</title>
<g id="a_node1"><a xlink:title=" ">
<polygon fill="#bfbfbf" stroke="black" points="0,-0.5 0,-101.5 194,-101.5 194,-0.5 0,-0.5"/>
<text text-anchor="start" x="8" y="-89.5" font-family="Helvetica,sans-Serif" font-size="10.00">Utils::ConstantPool</text>
<text text-anchor="middle" x="97" y="-78.5" font-family="Helvetica,sans-Serif" font-size="10.00">::CONSTANT_InterfaceMethodref_info</text>
<polyline fill="none" stroke="black" points="0,-71.5 194,-71.5 "/>
<text text-anchor="middle" x="97" y="-59.5" font-family="Helvetica,sans-Serif" font-size="10.00"> </text>
<polyline fill="none" stroke="black" points="0,-52.5 194,-52.5 "/>
<text text-anchor="start" x="8" y="-40.5" font-family="Helvetica,sans-Serif" font-size="10.00">+ CONSTANT_InterfaceMethodref_info()</text>
<text text-anchor="start" x="8" y="-29.5" font-family="Helvetica,sans-Serif" font-size="10.00">+ ~CONSTANT_InterfaceMethodref_info()</text>
<text text-anchor="start" x="8" y="-18.5" font-family="Helvetica,sans-Serif" font-size="10.00">+ getValue()</text>
<text text-anchor="start" x="8" y="-7.5" font-family="Helvetica,sans-Serif" font-size="10.00">+ getGeneralInfo()</text>
</a>
</g>
</g>
<!-- Node2 -->
<g id="node2" class="node"><title>Node2</title>
<g id="a_node2"><a xlink:href="../../da/de3/class_utils_1_1_constant_pool_1_1_base_reference.xhtml" target="_top" xlink:title=" ">
<polygon fill="none" stroke="black" points="35.5,-138.5 35.5,-239.5 158.5,-239.5 158.5,-138.5 35.5,-138.5"/>
<text text-anchor="start" x="43.5" y="-227.5" font-family="Helvetica,sans-Serif" font-size="10.00">Utils::ConstantPool</text>
<text text-anchor="middle" x="97" y="-216.5" font-family="Helvetica,sans-Serif" font-size="10.00">::BaseReference</text>
<polyline fill="none" stroke="black" points="35.5,-209.5 158.5,-209.5 "/>
<text text-anchor="start" x="43.5" y="-197.5" font-family="Helvetica,sans-Serif" font-size="10.00">+ class_index</text>
<text text-anchor="start" x="43.5" y="-186.5" font-family="Helvetica,sans-Serif" font-size="10.00">+ name_and_type_index</text>
<polyline fill="none" stroke="black" points="35.5,-179.5 158.5,-179.5 "/>
<text text-anchor="start" x="43.5" y="-167.5" font-family="Helvetica,sans-Serif" font-size="10.00">+ BaseReference()</text>
<text text-anchor="start" x="43.5" y="-156.5" font-family="Helvetica,sans-Serif" font-size="10.00">+ getValue()</text>
<text text-anchor="start" x="43.5" y="-145.5" font-family="Helvetica,sans-Serif" font-size="10.00">+ getGeneralInfo()</text>
</a>
</g>
</g>
<!-- Node2&#45;&gt;Node1 -->
<g id="edge1" class="edge"><title>Node2&#45;&gt;Node1</title>
<path fill="none" stroke="midnightblue" d="M97,-128C97,-119.271 97,-110.363 97,-101.863"/>
<polygon fill="none" stroke="midnightblue" points="93.5001,-128.131 97,-138.131 100.5,-128.131 93.5001,-128.131"/>
</g>
<!-- Node3 -->
<g id="node3" class="node"><title>Node3</title>
<g id="a_node3"><a xlink:href="../../d7/d7d/class_utils_1_1_constant_pool_1_1_base_constant_info.xhtml" target="_top" xlink:title=" ">
<polygon fill="none" stroke="black" points="40,-276.5 40,-366.5 154,-366.5 154,-276.5 40,-276.5"/>
<text text-anchor="start" x="48" y="-354.5" font-family="Helvetica,sans-Serif" font-size="10.00">Utils::ConstantPool</text>
<text text-anchor="middle" x="97" y="-343.5" font-family="Helvetica,sans-Serif" font-size="10.00">::BaseConstantInfo</text>
<polyline fill="none" stroke="black" points="40,-336.5 154,-336.5 "/>
<text text-anchor="start" x="48" y="-324.5" font-family="Helvetica,sans-Serif" font-size="10.00">+ tag</text>
<polyline fill="none" stroke="black" points="40,-317.5 154,-317.5 "/>
<text text-anchor="start" x="48" y="-305.5" font-family="Helvetica,sans-Serif" font-size="10.00">+ BaseConstantInfo()</text>
<text text-anchor="start" x="48" y="-294.5" font-family="Helvetica,sans-Serif" font-size="10.00">+ BaseConstantInfo()</text>
<text text-anchor="start" x="48" y="-283.5" font-family="Helvetica,sans-Serif" font-size="10.00">+ ~BaseConstantInfo()</text>
</a>
</g>
</g>
<!-- Node3&#45;&gt;Node2 -->
<g id="edge2" class="edge"><title>Node3&#45;&gt;Node2</title>
<path fill="none" stroke="midnightblue" d="M97,-266.131C97,-257.311 97,-248.219 97,-239.523"/>
<polygon fill="none" stroke="midnightblue" points="93.5001,-266.319 97,-276.319 100.5,-266.319 93.5001,-266.319"/>
</g>
</g>
</svg>
