<?xml version="1.0" encoding="UTF-8" standalone="no"?>
<!DOCTYPE svg PUBLIC "-//W3C//DTD SVG 1.1//EN"
 "http://www.w3.org/Graphics/SVG/1.1/DTD/svg11.dtd">
<!-- Generated by graphviz version 2.38.0 (20140413.2041)
 -->
<!-- Title: Utils::ConstantPool::CONSTANT_Utf8_info Pages: 1 -->
<svg width="313pt" height="353pt"
 viewBox="0.00 0.00 312.50 353.00" xmlns="http://www.w3.org/2000/svg" xmlns:xlink="http://www.w3.org/1999/xlink">
<g id="graph0" class="graph" transform="scale(1 1) rotate(0) translate(4 349)">
<title>Utils::ConstantPool::CONSTANT_Utf8_info</title>
<!-- Node1 -->
<g id="node1" class="node"><title>Node1</title>
<g id="a_node1"><a xlink:title=" ">
<polygon fill="#bfbfbf" stroke="black" points="92,-0.5 92,-101.5 224,-101.5 224,-0.5 92,-0.5"/>
<text text-anchor="start" x="100" y="-89.5" font-family="Helvetica,sans-Serif" font-size="10.00">Utils::ConstantPool</text>
<text text-anchor="middle" x="158" y="-78.5" font-family="Helvetica,sans-Serif" font-size="10.00">::CONSTANT_Utf8_info</text>
<polyline fill="none" stroke="black" points="92,-71.5 224,-71.5 "/>
<text text-anchor="middle" x="158" y="-59.5" font-family="Helvetica,sans-Serif" font-size="10.00"> </text>
<polyline fill="none" stroke="black" points="92,-52.5 224,-52.5 "/>
<text text-anchor="start" x="100" y="-40.5" font-family="Helvetica,sans-Serif" font-size="10.00">+ CONSTANT_Utf8_info()</text>
<text text-anchor="start" x="100" y="-29.5" font-family="Helvetica,sans-Serif" font-size="10.00">+ ~CONSTANT_Utf8_info()</text>
<text text-anchor="start" x="100" y="-18.5" font-family="Helvetica,sans-Serif" font-size="10.00">+ getValue()</text>
<text text-anchor="start" x="100" y="-7.5" font-family="Helvetica,sans-Serif" font-size="10.00">+ getGeneralInfo()</text>
</a>
</g>
</g>
<!-- Node2 -->
<g id="node2" class="node"><title>Node2</title>
<g id="a_node2"><a xlink:href="../../d7/d7d/class_utils_1_1_constant_pool_1_1_base_constant_info.xhtml" target="_top" xlink:title=" ">
<polygon fill="none" stroke="black" points="0,-149.5 0,-239.5 114,-239.5 114,-149.5 0,-149.5"/>
<text text-anchor="start" x="8" y="-227.5" font-family="Helvetica,sans-Serif" font-size="10.00">Utils::ConstantPool</text>
<text text-anchor="middle" x="57" y="-216.5" font-family="Helvetica,sans-Serif" font-size="10.00">::BaseConstantInfo</text>
<polyline fill="none" stroke="black" points="0,-209.5 114,-209.5 "/>
<text text-anchor="middle" x="57" y="-197.5" font-family="Helvetica,sans-Serif" font-size="10.00"> </text>
<polyline fill="none" stroke="black" points="0,-190.5 114,-190.5 "/>
<text text-anchor="start" x="8" y="-178.5" font-family="Helvetica,sans-Serif" font-size="10.00">+ BaseConstantInfo()</text>
<text text-anchor="start" x="8" y="-167.5" font-family="Helvetica,sans-Serif" font-size="10.00">+ BaseConstantInfo()</text>
<text text-anchor="start" x="8" y="-156.5" font-family="Helvetica,sans-Serif" font-size="10.00">+ ~BaseConstantInfo()</text>
</a>
</g>
</g>
<!-- Node2&#45;&gt;Node1 -->
<g id="edge1" class="edge"><title>Node2&#45;&gt;Node1</title>
<path fill="none" stroke="midnightblue" d="M94.5954,-140.829C103.751,-128.002 113.514,-114.325 122.565,-101.644"/>
<polygon fill="none" stroke="midnightblue" points="91.6409,-138.944 88.6799,-149.117 97.3384,-143.011 91.6409,-138.944"/>
</g>
<!-- Node3 -->
<g id="node3" class="node"><title>Node3</title>
<g id="a_node3"><a xlink:title=" ">
<polygon fill="none" stroke="#bfbfbf" points="34,-287.5 34,-344.5 80,-344.5 80,-287.5 34,-287.5"/>
<text text-anchor="middle" x="57" y="-332.5" font-family="Helvetica,sans-Serif" font-size="10.00">uint8_t</text>
<polyline fill="none" stroke="#bfbfbf" points="34,-325.5 80,-325.5 "/>
<text text-anchor="middle" x="57" y="-313.5" font-family="Helvetica,sans-Serif" font-size="10.00"> </text>
<polyline fill="none" stroke="#bfbfbf" points="34,-306.5 80,-306.5 "/>
<text text-anchor="middle" x="57" y="-294.5" font-family="Helvetica,sans-Serif" font-size="10.00"> </text>
</a>
</g>
</g>
<!-- Node3&#45;&gt;Node2 -->
<g id="edge2" class="edge"><title>Node3&#45;&gt;Node2</title>
<path fill="none" stroke="#404040" d="M57,-287.284C57,-276.735 57,-264.294 57,-252.035"/>
<polygon fill="none" stroke="#404040" points="57.0001,-251.912 53,-245.912 57,-239.912 61,-245.912 57.0001,-251.912"/>
<text text-anchor="middle" x="68.5" y="-261" font-family="Helvetica,sans-Serif" font-size="10.00"> +tag</text>
</g>
<!-- Node4 -->
<g id="node4" class="node"><title>Node4</title>
<g id="a_node4"><a xlink:title=" ">
<polygon fill="none" stroke="#bfbfbf" points="132.5,-166 132.5,-223 183.5,-223 183.5,-166 132.5,-166"/>
<text text-anchor="middle" x="158" y="-211" font-family="Helvetica,sans-Serif" font-size="10.00">uint16_t</text>
<polyline fill="none" stroke="#bfbfbf" points="132.5,-204 183.5,-204 "/>
<text text-anchor="middle" x="158" y="-192" font-family="Helvetica,sans-Serif" font-size="10.00"> </text>
<polyline fill="none" stroke="#bfbfbf" points="132.5,-185 183.5,-185 "/>
<text text-anchor="middle" x="158" y="-173" font-family="Helvetica,sans-Serif" font-size="10.00"> </text>
</a>
</g>
</g>
<!-- Node4&#45;&gt;Node1 -->
<g id="edge3" class="edge"><title>Node4&#45;&gt;Node1</title>
<path fill="none" stroke="#404040" d="M158,-165.881C158,-150.976 158,-131.941 158,-113.718"/>
<polygon fill="none" stroke="#404040" points="158,-113.604 154,-107.604 158,-101.604 162,-107.604 158,-113.604"/>
<text text-anchor="middle" x="176" y="-123" font-family="Helvetica,sans-Serif" font-size="10.00"> +length</text>
</g>
<!-- Node5 -->
<g id="node5" class="node"><title>Node5</title>
<g id="a_node5"><a xlink:title=" ">
<polygon fill="none" stroke="#bfbfbf" points="201.5,-166 201.5,-223 304.5,-223 304.5,-166 201.5,-166"/>
<text text-anchor="middle" x="253" y="-211" font-family="Helvetica,sans-Serif" font-size="10.00">vector&lt; Types::u1 &gt;</text>
<polyline fill="none" stroke="#bfbfbf" points="201.5,-204 304.5,-204 "/>
<text text-anchor="middle" x="253" y="-192" font-family="Helvetica,sans-Serif" font-size="10.00"> </text>
<polyline fill="none" stroke="#bfbfbf" points="201.5,-185 304.5,-185 "/>
<text text-anchor="middle" x="253" y="-173" font-family="Helvetica,sans-Serif" font-size="10.00"> </text>
</a>
</g>
</g>
<!-- Node5&#45;&gt;Node1 -->
<g id="edge4" class="edge"><title>Node5&#45;&gt;Node1</title>
<path fill="none" stroke="#404040" d="M234.458,-165.881C224.067,-150.406 210.688,-130.478 198.034,-111.63"/>
<polygon fill="none" stroke="#404040" points="197.992,-111.567 191.327,-108.815 191.303,-101.604 197.968,-104.356 197.992,-111.567"/>
<text text-anchor="middle" x="226" y="-123" font-family="Helvetica,sans-Serif" font-size="10.00"> +bytes</text>
</g>
</g>
</svg>
