<?xml version="1.0" encoding="UTF-8" standalone="no"?>
<!DOCTYPE svg PUBLIC "-//W3C//DTD SVG 1.1//EN"
 "http://www.w3.org/Graphics/SVG/1.1/DTD/svg11.dtd">
<!-- Generated by graphviz version 2.38.0 (20140413.2041)
 -->
<!-- Title: Reader Pages: 1 -->
<svg width="99pt" height="193pt"
 viewBox="0.00 0.00 99.00 193.00" xmlns="http://www.w3.org/2000/svg" xmlns:xlink="http://www.w3.org/1999/xlink">
<g id="graph0" class="graph" transform="scale(1 1) rotate(0) translate(4 189)">
<title>Reader</title>
<!-- Node1 -->
<g id="node1" class="node"><title>Node1</title>
<g id="a_node1"><a xlink:title=" ">
<polygon fill="#bfbfbf" stroke="black" points="0,-0.5 0,-79.5 91,-79.5 91,-0.5 0,-0.5"/>
<text text-anchor="middle" x="45.5" y="-67.5" font-family="Helvetica,sans-Serif" font-size="10.00">Reader</text>
<polyline fill="none" stroke="black" points="0,-60.5 91,-60.5 "/>
<text text-anchor="middle" x="45.5" y="-48.5" font-family="Helvetica,sans-Serif" font-size="10.00"> </text>
<polyline fill="none" stroke="black" points="0,-41.5 91,-41.5 "/>
<text text-anchor="start" x="8" y="-29.5" font-family="Helvetica,sans-Serif" font-size="10.00">+ Reader()</text>
<text text-anchor="start" x="8" y="-18.5" font-family="Helvetica,sans-Serif" font-size="10.00">+ ~Reader()</text>
<text text-anchor="start" x="8" y="-7.5" font-family="Helvetica,sans-Serif" font-size="10.00">+ readClassFile()</text>
</a>
</g>
</g>
<!-- Node2 -->
<g id="node2" class="node"><title>Node2</title>
<g id="a_node2"><a xlink:title=" ">
<polygon fill="none" stroke="#bfbfbf" points="25,-127.5 25,-184.5 66,-184.5 66,-127.5 25,-127.5"/>
<text text-anchor="middle" x="45.5" y="-172.5" font-family="Helvetica,sans-Serif" font-size="10.00">string</text>
<polyline fill="none" stroke="#bfbfbf" points="25,-165.5 66,-165.5 "/>
<text text-anchor="middle" x="45.5" y="-153.5" font-family="Helvetica,sans-Serif" font-size="10.00"> </text>
<polyline fill="none" stroke="#bfbfbf" points="25,-146.5 66,-146.5 "/>
<text text-anchor="middle" x="45.5" y="-134.5" font-family="Helvetica,sans-Serif" font-size="10.00"> </text>
</a>
</g>
</g>
<!-- Node2&#45;&gt;Node1 -->
<g id="edge1" class="edge"><title>Node2&#45;&gt;Node1</title>
<path fill="none" stroke="#404040" d="M45.5,-127.404C45.5,-116.63 45.5,-103.926 45.5,-91.6231"/>
<polygon fill="none" stroke="#404040" points="45.5001,-91.5406 41.5,-85.5406 45.5,-79.5406 49.5,-85.5405 45.5001,-91.5406"/>
<text text-anchor="middle" x="63.5" y="-101" font-family="Helvetica,sans-Serif" font-size="10.00"> +fname</text>
</g>
</g>
</svg>
