<?xml version="1.0" encoding="UTF-8" standalone="no"?>
<!DOCTYPE svg PUBLIC "-//W3C//DTD SVG 1.1//EN"
 "http://www.w3.org/Graphics/SVG/1.1/DTD/svg11.dtd">
<!-- Generated by graphviz version 2.38.0 (20140413.2041)
 -->
<!-- Title: std::swap Pages: 1 -->
<svg width="361pt" height="165pt"
 viewBox="0.00 0.00 361.00 164.50" xmlns="http://www.w3.org/2000/svg" xmlns:xlink="http://www.w3.org/1999/xlink">
<g id="graph0" class="graph" transform="scale(1 1) rotate(0) translate(4 160.5)">
<title>std::swap</title>
<!-- Node1 -->
<g id="node1" class="node"><title>Node1</title>
<g id="a_node1"><a xlink:title="exchanges the values of two JSON objects">
<polygon fill="#bfbfbf" stroke="black" points="294,-77 294,-96 353,-96 353,-77 294,-77"/>
<text text-anchor="middle" x="323.5" y="-84" font-family="Helvetica,sans-Serif" font-size="10.00">std::swap</text>
</a>
</g>
</g>
<!-- Node2 -->
<g id="node2" class="node"><title>Node2</title>
<g id="a_node2"><a xlink:href="../../db/da7/struct_any.xhtml#af7f4cdc90d94c0814c80bd163c81a337" target="_top" xlink:title=" ">
<polygon fill="none" stroke="black" points="162,-137 162,-156 243,-156 243,-137 162,-137"/>
<text text-anchor="middle" x="202.5" y="-144" font-family="Helvetica,sans-Serif" font-size="10.00">Any::operator=</text>
</a>
</g>
</g>
<!-- Node1&#45;&gt;Node2 -->
<g id="edge1" class="edge"><title>Node1&#45;&gt;Node2</title>
<path fill="none" stroke="midnightblue" d="M297.431,-101.215C285.609,-107.967 271.225,-115.916 258,-122.5 247.819,-127.569 236.325,-132.712 226.526,-136.931"/>
<polygon fill="midnightblue" stroke="midnightblue" points="299.377,-104.133 306.292,-96.1061 295.88,-98.0694 299.377,-104.133"/>
</g>
<!-- Node3 -->
<g id="node3" class="node"><title>Node3</title>
<g id="a_node3"><a xlink:href="../../d9/dcc/classnlohmann_1_1basic__json.xhtml#aab256df8c5594ec693035822fa1e2904" target="_top" xlink:title="copy assignment">
<polygon fill="none" stroke="black" points="0,-46.5 0,-76.5 111,-76.5 111,-46.5 0,-46.5"/>
<text text-anchor="start" x="8" y="-64.5" font-family="Helvetica,sans-Serif" font-size="10.00">nlohmann::basic_json</text>
<text text-anchor="middle" x="55.5" y="-53.5" font-family="Helvetica,sans-Serif" font-size="10.00">::operator=</text>
</a>
</g>
</g>
<!-- Node1&#45;&gt;Node3 -->
<g id="edge2" class="edge"><title>Node1&#45;&gt;Node3</title>
<path fill="none" stroke="midnightblue" d="M283.849,-88.5908C275.337,-88.9694 266.366,-89.3056 258,-89.5 208.68,-90.6464 195.779,-96.8735 147,-89.5 129.925,-86.9189 111.632,-81.7447 95.9931,-76.5388"/>
<polygon fill="midnightblue" stroke="midnightblue" points="284.11,-92.0825 293.933,-88.1145 283.779,-85.0903 284.11,-92.0825"/>
</g>
<!-- Node4 -->
<g id="node4" class="node"><title>Node4</title>
<g id="a_node4"><a xlink:href="../../de/d32/classnlohmann_1_1basic__json_1_1iter__impl.xhtml#a083d9d5465de7ddfb6108f404ce54be3" target="_top" xlink:title="copy assignment">
<polygon fill="none" stroke="black" points="147,-49.5 147,-79.5 258,-79.5 258,-49.5 147,-49.5"/>
<text text-anchor="start" x="155" y="-67.5" font-family="Helvetica,sans-Serif" font-size="10.00">nlohmann::basic_json</text>
<text text-anchor="middle" x="202.5" y="-56.5" font-family="Helvetica,sans-Serif" font-size="10.00">::iter_impl::operator=</text>
</a>
</g>
</g>
<!-- Node1&#45;&gt;Node4 -->
<g id="edge3" class="edge"><title>Node1&#45;&gt;Node4</title>
<path fill="none" stroke="midnightblue" d="M284.006,-79.3835C275.817,-77.8696 267.02,-76.2432 258.355,-74.6412"/>
<polygon fill="midnightblue" stroke="midnightblue" points="283.527,-82.8541 293.997,-81.2305 284.799,-75.9708 283.527,-82.8541"/>
</g>
<!-- Node5 -->
<g id="node5" class="node"><title>Node5</title>
<g id="a_node5"><a xlink:href="../../d9/dcc/classnlohmann_1_1basic__json.xhtml#a8c9d932353e1ab98a7dc2fc27e002031" target="_top" xlink:title="exchanges the values">
<polygon fill="none" stroke="black" points="147,-0.5 147,-30.5 258,-30.5 258,-0.5 147,-0.5"/>
<text text-anchor="start" x="155" y="-18.5" font-family="Helvetica,sans-Serif" font-size="10.00">nlohmann::basic_json</text>
<text text-anchor="middle" x="202.5" y="-7.5" font-family="Helvetica,sans-Serif" font-size="10.00">::swap</text>
</a>
</g>
</g>
<!-- Node1&#45;&gt;Node5 -->
<g id="edge4" class="edge"><title>Node1&#45;&gt;Node5</title>
<path fill="none" stroke="midnightblue" d="M302.354,-70.6273C289.956,-61.2457 273.517,-49.4834 258,-40.5 251.964,-37.0055 245.354,-33.6277 238.885,-30.5449"/>
<polygon fill="midnightblue" stroke="midnightblue" points="300.536,-73.6441 310.597,-76.9641 304.802,-68.0945 300.536,-73.6441"/>
</g>
<!-- Node5&#45;&gt;Node3 -->
<g id="edge5" class="edge"><title>Node5&#45;&gt;Node3</title>
<path fill="none" stroke="midnightblue" d="M144.448,-33.5993C131.084,-37.8389 116.985,-42.3115 104.085,-46.404"/>
<polygon fill="midnightblue" stroke="midnightblue" points="145.548,-36.9222 154.022,-30.5621 143.431,-30.2499 145.548,-36.9222"/>
</g>
</g>
</svg>
