<?xml version="1.0" encoding="UTF-8" standalone="no"?>
<!DOCTYPE svg PUBLIC "-//W3C//DTD SVG 1.1//EN"
 "http://www.w3.org/Graphics/SVG/1.1/DTD/svg11.dtd">
<!-- Generated by graphviz version 2.38.0 (20140413.2041)
 -->
<!-- Title: Utils::Attributes::BaseAttribute Pages: 1 -->
<!--zoomable 314 -->
<svg id="main" version="1.1" xmlns="http://www.w3.org/2000/svg" xmlns:xlink="http://www.w3.org/1999/xlink" xml:space="preserve" onload="init(evt)">
<style type="text/css"><![CDATA[
.edge:hover path { stroke: red; }
.edge:hover polygon { stroke: red; fill: red; }
]]></style>
<script type="text/javascript"><![CDATA[
var edges = document.getElementsByTagName('g');
if (edges && edges.length) {
  for (var i=0;i<edges.length;i++) {
    if (edges[i].id.substr(0,4)=='edge') {
      edges[i].setAttribute('class','edge');
    }
  }
}
]]></script>
        <defs>
                <circle id="rim" cx="0" cy="0" r="7"/>
                <circle id="rim2" cx="0" cy="0" r="3.5"/>
                <g id="zoomPlus">
                        <use xlink:href="#rim" fill="#404040">
                                <set attributeName="fill" to="#808080" begin="zoomplus.mouseover" end="zoomplus.mouseout"/>
                        </use>
                        <path d="M-4,0h8M0,-4v8" fill="none" stroke="white" stroke-width="1.5" pointer-events="none"/>
                </g>
                <g id="zoomMin">
                        <use xlink:href="#rim" fill="#404040">
                                <set attributeName="fill" to="#808080" begin="zoomminus.mouseover" end="zoomminus.mouseout"/>
                        </use>
                        <path d="M-4,0h8" fill="none" stroke="white" stroke-width="1.5" pointer-events="none"/>
                </g>
                <g id="dirArrow">
                        <path fill="none" stroke="white" stroke-width="1.5" d="M0,-3.0v7 M-2.5,-0.5L0,-3.0L2.5,-0.5"/>
                </g>
               <g id="resetDef">
                       <use xlink:href="#rim2" fill="#404040">
                               <set attributeName="fill" to="#808080" begin="reset.mouseover" end="reset.mouseout"/>
                       </use>
               </g>
        </defs>

<script type="text/javascript">
var viewWidth = 2443;
var viewHeight = 314;
var sectionId = 'dynsection-0';
</script>
<script xlink:href="../../svgpan.js"/>
<svg id="graph" class="graph">
<g id="viewport">
<title>Utils::Attributes::BaseAttribute</title>
<!-- Node1 -->
<g id="node1" class="node"><title>Node1</title>
<g id="a_node1"><a xlink:title=" ">
<polygon fill="#bfbfbf" stroke="black" points="1194.5,-204.5 1194.5,-305.5 1313.5,-305.5 1313.5,-204.5 1194.5,-204.5"/>
<text text-anchor="start" x="1202.5" y="-293.5" font-family="Helvetica,sans-Serif" font-size="10.00">Utils::Attributes::</text>
<text text-anchor="middle" x="1254" y="-282.5" font-family="Helvetica,sans-Serif" font-size="10.00">BaseAttribute</text>
<polyline fill="none" stroke="black" points="1194.5,-275.5 1313.5,-275.5 "/>
<text text-anchor="start" x="1202.5" y="-263.5" font-family="Helvetica,sans-Serif" font-size="10.00">+ attribute_name_index</text>
<text text-anchor="start" x="1202.5" y="-252.5" font-family="Helvetica,sans-Serif" font-size="10.00">+ attribute_length</text>
<polyline fill="none" stroke="black" points="1194.5,-245.5 1313.5,-245.5 "/>
<text text-anchor="start" x="1202.5" y="-233.5" font-family="Helvetica,sans-Serif" font-size="10.00">+ BaseAttribute()</text>
<text text-anchor="start" x="1202.5" y="-222.5" font-family="Helvetica,sans-Serif" font-size="10.00">+ BaseAttribute()</text>
<text text-anchor="start" x="1202.5" y="-211.5" font-family="Helvetica,sans-Serif" font-size="10.00">+ ~BaseAttribute()</text>
</a>
</g>
</g>
<!-- Node2 -->
<g id="node2" class="node"><title>Node2</title>
<g id="a_node2"><a xlink:href="../../d7/d78/class_utils_1_1_attributes_1_1_bootstrap_methods__attribute.xhtml" target="_top" xlink:title=" ">
<polygon fill="none" stroke="black" points="0,-33.5 0,-134.5 158,-134.5 158,-33.5 0,-33.5"/>
<text text-anchor="start" x="8" y="-122.5" font-family="Helvetica,sans-Serif" font-size="10.00">Utils::Attributes::</text>
<text text-anchor="middle" x="79" y="-111.5" font-family="Helvetica,sans-Serif" font-size="10.00">BootstrapMethods_attribute</text>
<polyline fill="none" stroke="black" points="0,-104.5 158,-104.5 "/>
<text text-anchor="start" x="8" y="-92.5" font-family="Helvetica,sans-Serif" font-size="10.00">+ num_bootstrap_methods</text>
<text text-anchor="start" x="8" y="-81.5" font-family="Helvetica,sans-Serif" font-size="10.00">+ bootstrap_methods</text>
<polyline fill="none" stroke="black" points="0,-74.5 158,-74.5 "/>
<text text-anchor="start" x="8" y="-62.5" font-family="Helvetica,sans-Serif" font-size="10.00">+ BootstrapMethods_attribute()</text>
<text text-anchor="start" x="8" y="-51.5" font-family="Helvetica,sans-Serif" font-size="10.00">+ ~BootstrapMethods_attribute()</text>
<text text-anchor="start" x="8" y="-40.5" font-family="Helvetica,sans-Serif" font-size="10.00">+ getSpecificInfo()</text>
</a>
</g>
</g>
<!-- Node1&#45;&gt;Node2 -->
<g id="edge1" class="edge"><title>Node1&#45;&gt;Node2</title>
<path fill="none" stroke="midnightblue" d="M1184,-254.466C973.6,-254.934 350.143,-249.251 167,-168 149.723,-160.335 133.717,-147.801 120.225,-134.769"/>
<polygon fill="none" stroke="midnightblue" points="1184.31,-257.965 1194.3,-254.437 1184.29,-250.965 1184.31,-257.965"/>
</g>
<!-- Node3 -->
<g id="node3" class="node"><title>Node3</title>
<g id="a_node3"><a xlink:href="../../d1/da5/class_utils_1_1_attributes_1_1_code__attribute.xhtml" target="_top" xlink:title=" ">
<polygon fill="none" stroke="black" points="176.5,-0.5 176.5,-167.5 301.5,-167.5 301.5,-0.5 176.5,-0.5"/>
<text text-anchor="start" x="184.5" y="-155.5" font-family="Helvetica,sans-Serif" font-size="10.00">Utils::Attributes::</text>
<text text-anchor="middle" x="239" y="-144.5" font-family="Helvetica,sans-Serif" font-size="10.00">Code_attribute</text>
<polyline fill="none" stroke="black" points="176.5,-137.5 301.5,-137.5 "/>
<text text-anchor="start" x="184.5" y="-125.5" font-family="Helvetica,sans-Serif" font-size="10.00">+ max_stack</text>
<text text-anchor="start" x="184.5" y="-114.5" font-family="Helvetica,sans-Serif" font-size="10.00">+ max_locals</text>
<text text-anchor="start" x="184.5" y="-103.5" font-family="Helvetica,sans-Serif" font-size="10.00">+ code_length</text>
<text text-anchor="start" x="184.5" y="-92.5" font-family="Helvetica,sans-Serif" font-size="10.00">+ code</text>
<text text-anchor="start" x="184.5" y="-81.5" font-family="Helvetica,sans-Serif" font-size="10.00">+ exception_table_length</text>
<text text-anchor="start" x="184.5" y="-70.5" font-family="Helvetica,sans-Serif" font-size="10.00">+ attributes_count</text>
<text text-anchor="start" x="184.5" y="-59.5" font-family="Helvetica,sans-Serif" font-size="10.00">+ attributes</text>
<text text-anchor="start" x="184.5" y="-48.5" font-family="Helvetica,sans-Serif" font-size="10.00">+ exception_table</text>
<polyline fill="none" stroke="black" points="176.5,-41.5 301.5,-41.5 "/>
<text text-anchor="start" x="184.5" y="-29.5" font-family="Helvetica,sans-Serif" font-size="10.00">+ Code_attribute()</text>
<text text-anchor="start" x="184.5" y="-18.5" font-family="Helvetica,sans-Serif" font-size="10.00">+ ~Code_attribute()</text>
<text text-anchor="start" x="184.5" y="-7.5" font-family="Helvetica,sans-Serif" font-size="10.00">+ getSpecificInfo()</text>
</a>
</g>
</g>
<!-- Node1&#45;&gt;Node3 -->
<g id="edge2" class="edge"><title>Node1&#45;&gt;Node3</title>
<path fill="none" stroke="midnightblue" d="M1184.17,-254.289C992.693,-254.047 463.456,-246.134 311,-168 307.775,-166.347 304.631,-164.482 301.576,-162.446"/>
<polygon fill="none" stroke="midnightblue" points="1184.39,-257.789 1194.39,-254.295 1184.39,-250.789 1184.39,-257.789"/>
</g>
<!-- Node4 -->
<g id="node4" class="node"><title>Node4</title>
<g id="a_node4"><a xlink:href="../../d2/d92/class_utils_1_1_attributes_1_1_constant_value__attribute.xhtml" target="_top" xlink:title=" ">
<polygon fill="none" stroke="black" points="320,-39 320,-129 462,-129 462,-39 320,-39"/>
<text text-anchor="start" x="328" y="-117" font-family="Helvetica,sans-Serif" font-size="10.00">Utils::Attributes::</text>
<text text-anchor="middle" x="391" y="-106" font-family="Helvetica,sans-Serif" font-size="10.00">ConstantValue_attribute</text>
<polyline fill="none" stroke="black" points="320,-99 462,-99 "/>
<text text-anchor="start" x="328" y="-87" font-family="Helvetica,sans-Serif" font-size="10.00">+ constantvalue_index</text>
<polyline fill="none" stroke="black" points="320,-80 462,-80 "/>
<text text-anchor="start" x="328" y="-68" font-family="Helvetica,sans-Serif" font-size="10.00">+ ConstantValue_attribute()</text>
<text text-anchor="start" x="328" y="-57" font-family="Helvetica,sans-Serif" font-size="10.00">+ ~ConstantValue_attribute()</text>
<text text-anchor="start" x="328" y="-46" font-family="Helvetica,sans-Serif" font-size="10.00">+ getSpecificInfo()</text>
</a>
</g>
</g>
<!-- Node1&#45;&gt;Node4 -->
<g id="edge3" class="edge"><title>Node1&#45;&gt;Node4</title>
<path fill="none" stroke="midnightblue" d="M1184.14,-252.364C1016.45,-247.483 595.812,-229.31 471,-168 452.677,-159 436.255,-143.995 423.128,-129.2"/>
<polygon fill="none" stroke="midnightblue" points="1184.24,-255.868 1194.34,-252.653 1184.44,-248.871 1184.24,-255.868"/>
</g>
<!-- Node5 -->
<g id="node5" class="node"><title>Node5</title>
<g id="a_node5"><a xlink:href="../../df/da0/class_utils_1_1_attributes_1_1_deprecated__attribute.xhtml" target="_top" xlink:title=" ">
<polygon fill="none" stroke="black" points="480,-44.5 480,-123.5 608,-123.5 608,-44.5 480,-44.5"/>
<text text-anchor="start" x="488" y="-111.5" font-family="Helvetica,sans-Serif" font-size="10.00">Utils::Attributes::</text>
<text text-anchor="middle" x="544" y="-100.5" font-family="Helvetica,sans-Serif" font-size="10.00">Deprecated_attribute</text>
<polyline fill="none" stroke="black" points="480,-93.5 608,-93.5 "/>
<text text-anchor="middle" x="544" y="-81.5" font-family="Helvetica,sans-Serif" font-size="10.00"> </text>
<polyline fill="none" stroke="black" points="480,-74.5 608,-74.5 "/>
<text text-anchor="start" x="488" y="-62.5" font-family="Helvetica,sans-Serif" font-size="10.00">+ Deprecated_attribute()</text>
<text text-anchor="start" x="488" y="-51.5" font-family="Helvetica,sans-Serif" font-size="10.00">+ ~Deprecated_attribute()</text>
</a>
</g>
</g>
<!-- Node1&#45;&gt;Node5 -->
<g id="edge4" class="edge"><title>Node1&#45;&gt;Node5</title>
<path fill="none" stroke="midnightblue" d="M1184.38,-250.719C1040.16,-242.943 714.083,-220.008 617,-168 597.716,-157.669 581.131,-140.08 568.665,-123.746"/>
<polygon fill="none" stroke="midnightblue" points="1184.28,-254.218 1194.45,-251.253 1184.65,-247.228 1184.28,-254.218"/>
</g>
<!-- Node6 -->
<g id="node6" class="node"><title>Node6</title>
<g id="a_node6"><a xlink:href="../../d0/d9b/class_utils_1_1_attributes_1_1_enclosing_method__attribute.xhtml" target="_top" xlink:title=" ">
<polygon fill="none" stroke="black" points="626.5,-33.5 626.5,-134.5 779.5,-134.5 779.5,-33.5 626.5,-33.5"/>
<text text-anchor="start" x="634.5" y="-122.5" font-family="Helvetica,sans-Serif" font-size="10.00">Utils::Attributes::</text>
<text text-anchor="middle" x="703" y="-111.5" font-family="Helvetica,sans-Serif" font-size="10.00">EnclosingMethod_attribute</text>
<polyline fill="none" stroke="black" points="626.5,-104.5 779.5,-104.5 "/>
<text text-anchor="start" x="634.5" y="-92.5" font-family="Helvetica,sans-Serif" font-size="10.00">+ class_index</text>
<text text-anchor="start" x="634.5" y="-81.5" font-family="Helvetica,sans-Serif" font-size="10.00">+ method_index</text>
<polyline fill="none" stroke="black" points="626.5,-74.5 779.5,-74.5 "/>
<text text-anchor="start" x="634.5" y="-62.5" font-family="Helvetica,sans-Serif" font-size="10.00">+ EnclosingMethod_attribute()</text>
<text text-anchor="start" x="634.5" y="-51.5" font-family="Helvetica,sans-Serif" font-size="10.00">+ ~EnclosingMethod_attribute()</text>
<text text-anchor="start" x="634.5" y="-40.5" font-family="Helvetica,sans-Serif" font-size="10.00">+ getSpecificInfo()</text>
</a>
</g>
</g>
<!-- Node1&#45;&gt;Node6 -->
<g id="edge5" class="edge"><title>Node1&#45;&gt;Node6</title>
<path fill="none" stroke="midnightblue" d="M1184.11,-253.585C1089.25,-250.334 916.802,-234.728 788,-168 771.884,-159.651 756.804,-147.234 743.952,-134.533"/>
<polygon fill="none" stroke="midnightblue" points="1184.06,-257.085 1194.16,-253.893 1184.28,-250.088 1184.06,-257.085"/>
</g>
<!-- Node7 -->
<g id="node7" class="node"><title>Node7</title>
<g id="a_node7"><a xlink:href="../../d7/d70/class_utils_1_1_attributes_1_1_exceptions__attribute.xhtml" target="_top" xlink:title=" ">
<polygon fill="none" stroke="black" points="797.5,-33.5 797.5,-134.5 924.5,-134.5 924.5,-33.5 797.5,-33.5"/>
<text text-anchor="start" x="805.5" y="-122.5" font-family="Helvetica,sans-Serif" font-size="10.00">Utils::Attributes::</text>
<text text-anchor="middle" x="861" y="-111.5" font-family="Helvetica,sans-Serif" font-size="10.00">Exceptions_attribute</text>
<polyline fill="none" stroke="black" points="797.5,-104.5 924.5,-104.5 "/>
<text text-anchor="start" x="805.5" y="-92.5" font-family="Helvetica,sans-Serif" font-size="10.00">+ number_of_exceptions</text>
<text text-anchor="start" x="805.5" y="-81.5" font-family="Helvetica,sans-Serif" font-size="10.00">+ exception_index_table</text>
<polyline fill="none" stroke="black" points="797.5,-74.5 924.5,-74.5 "/>
<text text-anchor="start" x="805.5" y="-62.5" font-family="Helvetica,sans-Serif" font-size="10.00">+ Exceptions_attribute()</text>
<text text-anchor="start" x="805.5" y="-51.5" font-family="Helvetica,sans-Serif" font-size="10.00">+ ~Exceptions_attribute()</text>
<text text-anchor="start" x="805.5" y="-40.5" font-family="Helvetica,sans-Serif" font-size="10.00">+ getSpecificInfo()</text>
</a>
</g>
</g>
<!-- Node1&#45;&gt;Node7 -->
<g id="edge6" class="edge"><title>Node1&#45;&gt;Node7</title>
<path fill="none" stroke="midnightblue" d="M1184.25,-247.081C1116.11,-237.716 1011.62,-216.228 934,-168 919.982,-159.29 907.144,-147.065 896.275,-134.67"/>
<polygon fill="none" stroke="midnightblue" points="1184.08,-250.588 1194.45,-248.429 1185,-243.648 1184.08,-250.588"/>
</g>
<!-- Node8 -->
<g id="node8" class="node"><title>Node8</title>
<g id="a_node8"><a xlink:href="../../d7/ddd/class_utils_1_1_attributes_1_1_inner_classes__attribute.xhtml" target="_top" xlink:title=" ">
<polygon fill="none" stroke="black" points="943,-33.5 943,-134.5 1077,-134.5 1077,-33.5 943,-33.5"/>
<text text-anchor="start" x="951" y="-122.5" font-family="Helvetica,sans-Serif" font-size="10.00">Utils::Attributes::</text>
<text text-anchor="middle" x="1010" y="-111.5" font-family="Helvetica,sans-Serif" font-size="10.00">InnerClasses_attribute</text>
<polyline fill="none" stroke="black" points="943,-104.5 1077,-104.5 "/>
<text text-anchor="start" x="951" y="-92.5" font-family="Helvetica,sans-Serif" font-size="10.00">+ number_of_classes</text>
<text text-anchor="start" x="951" y="-81.5" font-family="Helvetica,sans-Serif" font-size="10.00">+ classes</text>
<polyline fill="none" stroke="black" points="943,-74.5 1077,-74.5 "/>
<text text-anchor="start" x="951" y="-62.5" font-family="Helvetica,sans-Serif" font-size="10.00">+ InnerClasses_attribute()</text>
<text text-anchor="start" x="951" y="-51.5" font-family="Helvetica,sans-Serif" font-size="10.00">+ ~InnerClasses_attribute()</text>
<text text-anchor="start" x="951" y="-40.5" font-family="Helvetica,sans-Serif" font-size="10.00">+ getSpecificInfo()</text>
</a>
</g>
</g>
<!-- Node1&#45;&gt;Node8 -->
<g id="edge7" class="edge"><title>Node1&#45;&gt;Node8</title>
<path fill="none" stroke="midnightblue" d="M1185.01,-225.486C1153.29,-210.718 1116.12,-190.959 1086,-168 1073.41,-158.407 1061.18,-146.575 1050.34,-134.881"/>
<polygon fill="none" stroke="midnightblue" points="1183.68,-228.727 1194.23,-229.712 1186.59,-222.364 1183.68,-228.727"/>
</g>
<!-- Node9 -->
<g id="node9" class="node"><title>Node9</title>
<g id="a_node9"><a xlink:href="../../d1/d45/class_utils_1_1_attributes_1_1_line_number_table__attribute.xhtml" target="_top" xlink:title=" ">
<polygon fill="none" stroke="black" points="1095.5,-33.5 1095.5,-134.5 1248.5,-134.5 1248.5,-33.5 1095.5,-33.5"/>
<text text-anchor="start" x="1103.5" y="-122.5" font-family="Helvetica,sans-Serif" font-size="10.00">Utils::Attributes::</text>
<text text-anchor="middle" x="1172" y="-111.5" font-family="Helvetica,sans-Serif" font-size="10.00">LineNumberTable_attribute</text>
<polyline fill="none" stroke="black" points="1095.5,-104.5 1248.5,-104.5 "/>
<text text-anchor="start" x="1103.5" y="-92.5" font-family="Helvetica,sans-Serif" font-size="10.00">+ line_number_table_length</text>
<text text-anchor="start" x="1103.5" y="-81.5" font-family="Helvetica,sans-Serif" font-size="10.00">+ line_number_table</text>
<polyline fill="none" stroke="black" points="1095.5,-74.5 1248.5,-74.5 "/>
<text text-anchor="start" x="1103.5" y="-62.5" font-family="Helvetica,sans-Serif" font-size="10.00">+ LineNumberTable_attribute()</text>
<text text-anchor="start" x="1103.5" y="-51.5" font-family="Helvetica,sans-Serif" font-size="10.00">+ ~LineNumberTable_attribute()</text>
<text text-anchor="start" x="1103.5" y="-40.5" font-family="Helvetica,sans-Serif" font-size="10.00">+ getSpecificInfo()</text>
</a>
</g>
</g>
<!-- Node1&#45;&gt;Node9 -->
<g id="edge8" class="edge"><title>Node1&#45;&gt;Node9</title>
<path fill="none" stroke="midnightblue" d="M1225.39,-195.031C1215.84,-175.352 1205.3,-153.633 1196.13,-134.727"/>
<polygon fill="none" stroke="midnightblue" points="1222.33,-196.739 1229.84,-204.208 1228.62,-193.684 1222.33,-196.739"/>
</g>
<!-- Node10 -->
<g id="node10" class="node"><title>Node10</title>
<g id="a_node10"><a xlink:href="../../dc/d0d/class_utils_1_1_attributes_1_1_local_variable_table__attribute.xhtml" target="_top" xlink:title=" ">
<polygon fill="none" stroke="black" points="1266.5,-17 1266.5,-151 1405.5,-151 1405.5,-17 1266.5,-17"/>
<text text-anchor="start" x="1274.5" y="-139" font-family="Helvetica,sans-Serif" font-size="10.00">Utils::Attributes::</text>
<text text-anchor="middle" x="1336" y="-128" font-family="Helvetica,sans-Serif" font-size="10.00">LocalVariableTable_attribute</text>
<polyline fill="none" stroke="black" points="1266.5,-121 1405.5,-121 "/>
<text text-anchor="start" x="1274.5" y="-109" font-family="Helvetica,sans-Serif" font-size="10.00">+ local_variable_table</text>
<text text-anchor="start" x="1274.5" y="-98" font-family="Helvetica,sans-Serif" font-size="10.00">_length</text>
<text text-anchor="start" x="1274.5" y="-87" font-family="Helvetica,sans-Serif" font-size="10.00">+ local_variable_table</text>
<polyline fill="none" stroke="black" points="1266.5,-80 1405.5,-80 "/>
<text text-anchor="start" x="1274.5" y="-68" font-family="Helvetica,sans-Serif" font-size="10.00">+ LocalVariableTable</text>
<text text-anchor="start" x="1274.5" y="-57" font-family="Helvetica,sans-Serif" font-size="10.00">_attribute()</text>
<text text-anchor="start" x="1274.5" y="-46" font-family="Helvetica,sans-Serif" font-size="10.00">+ ~LocalVariableTable</text>
<text text-anchor="start" x="1274.5" y="-35" font-family="Helvetica,sans-Serif" font-size="10.00">_attribute()</text>
<text text-anchor="start" x="1274.5" y="-24" font-family="Helvetica,sans-Serif" font-size="10.00">+ getSpecificInfo()</text>
</a>
</g>
</g>
<!-- Node1&#45;&gt;Node10 -->
<g id="edge9" class="edge"><title>Node1&#45;&gt;Node10</title>
<path fill="none" stroke="midnightblue" d="M1282.61,-195.042C1289.5,-180.83 1296.91,-165.555 1303.96,-151.043"/>
<polygon fill="none" stroke="midnightblue" points="1279.38,-193.684 1278.16,-204.208 1285.67,-196.739 1279.38,-193.684"/>
</g>
<!-- Node11 -->
<g id="node11" class="node"><title>Node11</title>
<g id="a_node11"><a xlink:href="../../dc/d0f/class_utils_1_1_attributes_1_1_local_variable_type_table__attribute.xhtml" target="_top" xlink:title=" ">
<polygon fill="none" stroke="black" points="1424,-6 1424,-162 1558,-162 1558,-6 1424,-6"/>
<text text-anchor="start" x="1432" y="-150" font-family="Helvetica,sans-Serif" font-size="10.00">Utils::Attributes::</text>
<text text-anchor="start" x="1432" y="-139" font-family="Helvetica,sans-Serif" font-size="10.00">LocalVariableTypeTable</text>
<text text-anchor="middle" x="1491" y="-128" font-family="Helvetica,sans-Serif" font-size="10.00">_attribute</text>
<polyline fill="none" stroke="black" points="1424,-121 1558,-121 "/>
<text text-anchor="start" x="1432" y="-109" font-family="Helvetica,sans-Serif" font-size="10.00">+ local_variable_type</text>
<text text-anchor="start" x="1432" y="-98" font-family="Helvetica,sans-Serif" font-size="10.00">_table_length</text>
<text text-anchor="start" x="1432" y="-87" font-family="Helvetica,sans-Serif" font-size="10.00">+ local_variable_type</text>
<text text-anchor="start" x="1432" y="-76" font-family="Helvetica,sans-Serif" font-size="10.00">_table</text>
<polyline fill="none" stroke="black" points="1424,-69 1558,-69 "/>
<text text-anchor="start" x="1432" y="-57" font-family="Helvetica,sans-Serif" font-size="10.00">+ LocalVariableTypeTable</text>
<text text-anchor="start" x="1432" y="-46" font-family="Helvetica,sans-Serif" font-size="10.00">_attribute()</text>
<text text-anchor="start" x="1432" y="-35" font-family="Helvetica,sans-Serif" font-size="10.00">+ ~LocalVariableTypeTable</text>
<text text-anchor="start" x="1432" y="-24" font-family="Helvetica,sans-Serif" font-size="10.00">_attribute()</text>
<text text-anchor="start" x="1432" y="-13" font-family="Helvetica,sans-Serif" font-size="10.00">+ getSpecificInfo()</text>
</a>
</g>
</g>
<!-- Node1&#45;&gt;Node11 -->
<g id="edge10" class="edge"><title>Node1&#45;&gt;Node11</title>
<path fill="none" stroke="midnightblue" d="M1322.6,-223.782C1352.41,-209.07 1386.87,-189.833 1415,-168 1417.93,-165.724 1420.85,-163.329 1423.73,-160.844"/>
<polygon fill="none" stroke="midnightblue" points="1320.98,-220.681 1313.51,-228.201 1324.04,-226.977 1320.98,-220.681"/>
</g>
<!-- Node12 -->
<g id="node12" class="node"><title>Node12</title>
<g id="a_node12"><a xlink:href="../../d2/dc6/class_utils_1_1_attributes_1_1_method_parameters__attribute.xhtml" target="_top" xlink:title=" ">
<polygon fill="none" stroke="black" points="1576.5,-33.5 1576.5,-134.5 1737.5,-134.5 1737.5,-33.5 1576.5,-33.5"/>
<text text-anchor="start" x="1584.5" y="-122.5" font-family="Helvetica,sans-Serif" font-size="10.00">Utils::Attributes::</text>
<text text-anchor="middle" x="1657" y="-111.5" font-family="Helvetica,sans-Serif" font-size="10.00">MethodParameters_attribute</text>
<polyline fill="none" stroke="black" points="1576.5,-104.5 1737.5,-104.5 "/>
<text text-anchor="start" x="1584.5" y="-92.5" font-family="Helvetica,sans-Serif" font-size="10.00">+ parameters_count</text>
<text text-anchor="start" x="1584.5" y="-81.5" font-family="Helvetica,sans-Serif" font-size="10.00">+ parameters</text>
<polyline fill="none" stroke="black" points="1576.5,-74.5 1737.5,-74.5 "/>
<text text-anchor="start" x="1584.5" y="-62.5" font-family="Helvetica,sans-Serif" font-size="10.00">+ MethodParameters_attribute()</text>
<text text-anchor="start" x="1584.5" y="-51.5" font-family="Helvetica,sans-Serif" font-size="10.00">+ ~MethodParameters_attribute()</text>
<text text-anchor="start" x="1584.5" y="-40.5" font-family="Helvetica,sans-Serif" font-size="10.00">+ getSpecificInfo()</text>
</a>
</g>
</g>
<!-- Node1&#45;&gt;Node12 -->
<g id="edge11" class="edge"><title>Node1&#45;&gt;Node12</title>
<path fill="none" stroke="midnightblue" d="M1323.59,-244.61C1389.51,-233.53 1489.66,-210.91 1567,-168 1582.8,-159.235 1598.03,-147.14 1611.32,-134.893"/>
<polygon fill="none" stroke="midnightblue" points="1323.01,-241.157 1313.71,-246.226 1324.15,-248.065 1323.01,-241.157"/>
</g>
<!-- Node13 -->
<g id="node13" class="node"><title>Node13</title>
<g id="a_node13"><a xlink:href="../../d8/daf/class_utils_1_1_attributes_1_1_not_implemented.xhtml" target="_top" xlink:title=" ">
<polygon fill="none" stroke="black" points="1756,-39 1756,-129 1864,-129 1864,-39 1756,-39"/>
<text text-anchor="start" x="1764" y="-117" font-family="Helvetica,sans-Serif" font-size="10.00">Utils::Attributes::</text>
<text text-anchor="middle" x="1810" y="-106" font-family="Helvetica,sans-Serif" font-size="10.00">NotImplemented</text>
<polyline fill="none" stroke="black" points="1756,-99 1864,-99 "/>
<text text-anchor="middle" x="1810" y="-87" font-family="Helvetica,sans-Serif" font-size="10.00"> </text>
<polyline fill="none" stroke="black" points="1756,-80 1864,-80 "/>
<text text-anchor="start" x="1764" y="-68" font-family="Helvetica,sans-Serif" font-size="10.00">+ NotImplemented()</text>
<text text-anchor="start" x="1764" y="-57" font-family="Helvetica,sans-Serif" font-size="10.00">+ ~NotImplemented()</text>
<text text-anchor="start" x="1764" y="-46" font-family="Helvetica,sans-Serif" font-size="10.00">+ getSpecificInfo()</text>
</a>
</g>
</g>
<!-- Node1&#45;&gt;Node13 -->
<g id="edge12" class="edge"><title>Node1&#45;&gt;Node13</title>
<path fill="none" stroke="midnightblue" d="M1323.69,-248.145C1442.21,-237.162 1676.97,-210.656 1747,-168 1762.45,-158.589 1775.44,-143.865 1785.54,-129.416"/>
<polygon fill="none" stroke="midnightblue" points="1323.27,-244.668 1313.64,-249.065 1323.91,-251.639 1323.27,-244.668"/>
</g>
<!-- Node14 -->
<g id="node14" class="node"><title>Node14</title>
<g id="a_node14"><a xlink:href="../../db/dee/class_utils_1_1_attributes_1_1_signature__attribute.xhtml" target="_top" xlink:title=" ">
<polygon fill="none" stroke="black" points="1882.5,-39 1882.5,-129 2001.5,-129 2001.5,-39 1882.5,-39"/>
<text text-anchor="start" x="1890.5" y="-117" font-family="Helvetica,sans-Serif" font-size="10.00">Utils::Attributes::</text>
<text text-anchor="middle" x="1942" y="-106" font-family="Helvetica,sans-Serif" font-size="10.00">Signature_attribute</text>
<polyline fill="none" stroke="black" points="1882.5,-99 2001.5,-99 "/>
<text text-anchor="start" x="1890.5" y="-87" font-family="Helvetica,sans-Serif" font-size="10.00">+ signature_index</text>
<polyline fill="none" stroke="black" points="1882.5,-80 2001.5,-80 "/>
<text text-anchor="start" x="1890.5" y="-68" font-family="Helvetica,sans-Serif" font-size="10.00">+ Signature_attribute()</text>
<text text-anchor="start" x="1890.5" y="-57" font-family="Helvetica,sans-Serif" font-size="10.00">+ ~Signature_attribute()</text>
<text text-anchor="start" x="1890.5" y="-46" font-family="Helvetica,sans-Serif" font-size="10.00">+ getSpecificInfo()</text>
</a>
</g>
</g>
<!-- Node1&#45;&gt;Node14 -->
<g id="edge13" class="edge"><title>Node1&#45;&gt;Node14</title>
<path fill="none" stroke="midnightblue" d="M1324.03,-250.601C1465.52,-242.719 1779.92,-219.777 1873,-168 1889.54,-158.8 1903.77,-143.94 1914.94,-129.318"/>
<polygon fill="none" stroke="midnightblue" points="1323.53,-247.123 1313.74,-251.164 1323.91,-254.112 1323.53,-247.123"/>
</g>
<!-- Node15 -->
<g id="node15" class="node"><title>Node15</title>
<g id="a_node15"><a xlink:href="../../de/db2/class_utils_1_1_attributes_1_1_source_debug_extension__attribute.xhtml" target="_top" xlink:title=" ">
<polygon fill="none" stroke="black" points="2020,-22.5 2020,-145.5 2154,-145.5 2154,-22.5 2020,-22.5"/>
<text text-anchor="start" x="2028" y="-133.5" font-family="Helvetica,sans-Serif" font-size="10.00">Utils::Attributes::</text>
<text text-anchor="start" x="2028" y="-122.5" font-family="Helvetica,sans-Serif" font-size="10.00">SourceDebugExtension</text>
<text text-anchor="middle" x="2087" y="-111.5" font-family="Helvetica,sans-Serif" font-size="10.00">_attribute</text>
<polyline fill="none" stroke="black" points="2020,-104.5 2154,-104.5 "/>
<text text-anchor="start" x="2028" y="-92.5" font-family="Helvetica,sans-Serif" font-size="10.00">+ debug_extension</text>
<polyline fill="none" stroke="black" points="2020,-85.5 2154,-85.5 "/>
<text text-anchor="start" x="2028" y="-73.5" font-family="Helvetica,sans-Serif" font-size="10.00">+ SourceDebugExtension</text>
<text text-anchor="start" x="2028" y="-62.5" font-family="Helvetica,sans-Serif" font-size="10.00">_attribute()</text>
<text text-anchor="start" x="2028" y="-51.5" font-family="Helvetica,sans-Serif" font-size="10.00">+ ~SourceDebugExtension</text>
<text text-anchor="start" x="2028" y="-40.5" font-family="Helvetica,sans-Serif" font-size="10.00">_attribute()</text>
<text text-anchor="start" x="2028" y="-29.5" font-family="Helvetica,sans-Serif" font-size="10.00">+ getSpecificInfo()</text>
</a>
</g>
</g>
<!-- Node1&#45;&gt;Node15 -->
<g id="edge14" class="edge"><title>Node1&#45;&gt;Node15</title>
<path fill="none" stroke="midnightblue" d="M1324.2,-252.254C1488.23,-247.189 1891.79,-228.744 2011,-168 2021.97,-162.412 2032.14,-154.547 2041.24,-145.865"/>
<polygon fill="none" stroke="midnightblue" points="1323.64,-248.769 1313.75,-252.569 1323.85,-255.766 1323.64,-248.769"/>
</g>
<!-- Node16 -->
<g id="node16" class="node"><title>Node16</title>
<g id="a_node16"><a xlink:href="../../d5/dcd/class_utils_1_1_attributes_1_1_source_file__attribute.xhtml" target="_top" xlink:title=" ">
<polygon fill="none" stroke="black" points="2172.5,-39 2172.5,-129 2297.5,-129 2297.5,-39 2172.5,-39"/>
<text text-anchor="start" x="2180.5" y="-117" font-family="Helvetica,sans-Serif" font-size="10.00">Utils::Attributes::</text>
<text text-anchor="middle" x="2235" y="-106" font-family="Helvetica,sans-Serif" font-size="10.00">SourceFile_attribute</text>
<polyline fill="none" stroke="black" points="2172.5,-99 2297.5,-99 "/>
<text text-anchor="start" x="2180.5" y="-87" font-family="Helvetica,sans-Serif" font-size="10.00">+ sourcefile_index</text>
<polyline fill="none" stroke="black" points="2172.5,-80 2297.5,-80 "/>
<text text-anchor="start" x="2180.5" y="-68" font-family="Helvetica,sans-Serif" font-size="10.00">+ SourceFile_attribute()</text>
<text text-anchor="start" x="2180.5" y="-57" font-family="Helvetica,sans-Serif" font-size="10.00">+ ~SourceFile_attribute()</text>
<text text-anchor="start" x="2180.5" y="-46" font-family="Helvetica,sans-Serif" font-size="10.00">+ getSpecificInfo()</text>
</a>
</g>
</g>
<!-- Node1&#45;&gt;Node16 -->
<g id="edge15" class="edge"><title>Node1&#45;&gt;Node16</title>
<path fill="none" stroke="midnightblue" d="M1323.9,-254.012C1510.62,-253.012 2016.8,-243.24 2163,-168 2180.3,-159.096 2195.25,-144.111 2206.96,-129.305"/>
<polygon fill="none" stroke="midnightblue" points="1323.64,-250.513 1313.65,-254.06 1323.67,-257.513 1323.64,-250.513"/>
</g>
<!-- Node17 -->
<g id="node17" class="node"><title>Node17</title>
<g id="a_node17"><a xlink:href="../../dc/d24/class_utils_1_1_attributes_1_1_synthetic__attribute.xhtml" target="_top" xlink:title=" ">
<polygon fill="none" stroke="black" points="2315.5,-44.5 2315.5,-123.5 2434.5,-123.5 2434.5,-44.5 2315.5,-44.5"/>
<text text-anchor="start" x="2323.5" y="-111.5" font-family="Helvetica,sans-Serif" font-size="10.00">Utils::Attributes::</text>
<text text-anchor="middle" x="2375" y="-100.5" font-family="Helvetica,sans-Serif" font-size="10.00">Synthetic_attribute</text>
<polyline fill="none" stroke="black" points="2315.5,-93.5 2434.5,-93.5 "/>
<text text-anchor="middle" x="2375" y="-81.5" font-family="Helvetica,sans-Serif" font-size="10.00"> </text>
<polyline fill="none" stroke="black" points="2315.5,-74.5 2434.5,-74.5 "/>
<text text-anchor="start" x="2323.5" y="-62.5" font-family="Helvetica,sans-Serif" font-size="10.00">+ Synthetic_attribute()</text>
<text text-anchor="start" x="2323.5" y="-51.5" font-family="Helvetica,sans-Serif" font-size="10.00">+ ~Synthetic_attribute()</text>
</a>
</g>
</g>
<!-- Node1&#45;&gt;Node17 -->
<g id="edge16" class="edge"><title>Node1&#45;&gt;Node17</title>
<path fill="none" stroke="midnightblue" d="M1323.92,-251.448C1545.13,-242.941 2220.25,-213.488 2307,-168 2325.97,-158.052 2341.62,-140.292 2353.1,-123.747"/>
<polygon fill="none" stroke="midnightblue" points="1323.59,-247.958 1313.73,-251.838 1323.86,-254.953 1323.59,-247.958"/>
</g>
</g>
</svg>
        <g id="navigator" transform="translate(0 0)" fill="#404254">
                <rect fill="#f2f5e9" fill-opacity="0.5" stroke="#606060" stroke-width=".5" x="0" y="0" width="60" height="60"/>
                <use id="zoomplus" xlink:href="#zoomPlus" x="17" y="9" onmousedown="handleZoom(evt,'in')"/>
                <use id="zoomminus" xlink:href="#zoomMin" x="42" y="9" onmousedown="handleZoom(evt,'out')"/>
                <use id="reset" xlink:href="#resetDef" x="30" y="36" onmousedown="handleReset()"/>
                <g id="arrowUp" xlink:href="#dirArrow" transform="translate(30 24)" onmousedown="handlePan(0,-1)">
                  <use xlink:href="#rim" fill="#404040">
                        <set attributeName="fill" to="#808080" begin="arrowUp.mouseover" end="arrowUp.mouseout"/>
                  </use>
                  <path fill="none" stroke="white" stroke-width="1.5" d="M0,-3.0v7 M-2.5,-0.5L0,-3.0L2.5,-0.5"/>
                </g>
                <g id="arrowRight" xlink:href="#dirArrow" transform="rotate(90) translate(36 -43)" onmousedown="handlePan(1,0)">
                  <use xlink:href="#rim" fill="#404040">
                        <set attributeName="fill" to="#808080" begin="arrowRight.mouseover" end="arrowRight.mouseout"/>
                  </use>
                  <path fill="none" stroke="white" stroke-width="1.5" d="M0,-3.0v7 M-2.5,-0.5L0,-3.0L2.5,-0.5"/>
                </g>
                <g id="arrowDown" xlink:href="#dirArrow" transform="rotate(180) translate(-30 -48)" onmousedown="handlePan(0,1)">
                  <use xlink:href="#rim" fill="#404040">
                        <set attributeName="fill" to="#808080" begin="arrowDown.mouseover" end="arrowDown.mouseout"/>
                  </use>
                  <path fill="none" stroke="white" stroke-width="1.5" d="M0,-3.0v7 M-2.5,-0.5L0,-3.0L2.5,-0.5"/>
                </g>
                <g id="arrowLeft" xlink:href="#dirArrow" transform="rotate(270) translate(-36 17)" onmousedown="handlePan(-1,0)">
                  <use xlink:href="#rim" fill="#404040">
                        <set attributeName="fill" to="#808080" begin="arrowLeft.mouseover" end="arrowLeft.mouseout"/>
                  </use>
                  <path fill="none" stroke="white" stroke-width="1.5" d="M0,-3.0v7 M-2.5,-0.5L0,-3.0L2.5,-0.5"/>
                </g>
        </g>
        <svg viewBox="0 0 15 15" width="100%" height="30px" preserveAspectRatio="xMaxYMin meet">
         <g id="arrow_out" transform="scale(0.3 0.3)">
          <a xlink:href="class_utils_1_1_attributes_1_1_base_attribute__inherit__graph_org.svg" target="_base">
           <rect id="button" ry="5" rx="5" y="6" x="6" height="38" width="38"
                fill="#f2f5e9" fill-opacity="0.5" stroke="#606060" stroke-width="1.0"/>
           <path id="arrow"
             d="M 11.500037,31.436501 C 11.940474,20.09759 22.043105,11.32322 32.158766,21.979434 L 37.068811,17.246167 C 37.068811,17.246167 37.088388,32 37.088388,32 L 22.160133,31.978069 C 22.160133,31.978069 26.997745,27.140456 26.997745,27.140456 C 18.528582,18.264221 13.291696,25.230495 11.500037,31.436501 z"
             style="fill:#404040;"/>
          </a>
         </g>
        </svg>
</svg>
