<?xml version="1.0" encoding="UTF-8" standalone="no"?>
<!DOCTYPE svg PUBLIC "-//W3C//DTD SVG 1.1//EN"
 "http://www.w3.org/Graphics/SVG/1.1/DTD/svg11.dtd">
<!-- Generated by graphviz version 2.38.0 (20140413.2041)
 -->
<!-- Title: include/utils/constantPool.h Pages: 1 -->
<svg width="230pt" height="196pt"
 viewBox="0.00 0.00 229.50 196.00" xmlns="http://www.w3.org/2000/svg" xmlns:xlink="http://www.w3.org/1999/xlink">
<g id="graph0" class="graph" transform="scale(1 1) rotate(0) translate(4 192)">
<title>include/utils/constantPool.h</title>
<!-- Node1 -->
<g id="node1" class="node"><title>Node1</title>
<g id="a_node1"><a xlink:title=" ">
<polygon fill="#bfbfbf" stroke="black" points="53,-168.5 53,-187.5 190,-187.5 190,-168.5 53,-168.5"/>
<text text-anchor="middle" x="121.5" y="-175.5" font-family="Helvetica,sans-Serif" font-size="10.00">include/utils/constantPool.h</text>
</a>
</g>
</g>
<!-- Node2 -->
<g id="node2" class="node"><title>Node2</title>
<g id="a_node2"><a xlink:title=" ">
<polygon fill="none" stroke="#bfbfbf" points="0,-56.5 0,-75.5 41,-75.5 41,-56.5 0,-56.5"/>
<text text-anchor="middle" x="20.5" y="-63.5" font-family="Helvetica,sans-Serif" font-size="10.00">string</text>
</a>
</g>
</g>
<!-- Node1&#45;&gt;Node2 -->
<g id="edge1" class="edge"><title>Node1&#45;&gt;Node2</title>
<path fill="none" stroke="midnightblue" d="M90.4867,-168.414C71.529,-161.582 48.3409,-150.102 34.5,-132 24.4207,-118.818 21.2466,-99.945 20.401,-85.9286"/>
<polygon fill="midnightblue" stroke="midnightblue" points="23.8897,-85.4369 20.1378,-75.5287 16.892,-85.614 23.8897,-85.4369"/>
</g>
<!-- Node3 -->
<g id="node3" class="node"><title>Node3</title>
<g id="a_node3"><a xlink:title=" ">
<polygon fill="none" stroke="#bfbfbf" points="74.5,-56.5 74.5,-75.5 116.5,-75.5 116.5,-56.5 74.5,-56.5"/>
<text text-anchor="middle" x="95.5" y="-63.5" font-family="Helvetica,sans-Serif" font-size="10.00">vector</text>
</a>
</g>
</g>
<!-- Node1&#45;&gt;Node3 -->
<g id="edge2" class="edge"><title>Node1&#45;&gt;Node3</title>
<path fill="none" stroke="midnightblue" d="M127.171,-168.368C134.735,-155.706 146.314,-131.488 138.5,-112 133.82,-100.328 124.509,-89.9687 115.744,-82.1405"/>
<polygon fill="midnightblue" stroke="midnightblue" points="117.924,-79.4011 107.997,-75.698 113.448,-84.7832 117.924,-79.4011"/>
</g>
<!-- Node4 -->
<g id="node4" class="node"><title>Node4</title>
<g id="a_node4"><a xlink:href="../../da/d6e/attributes_8h.xhtml" target="_top" xlink:title=" ">
<polygon fill="none" stroke="black" points="43.5,-112.5 43.5,-131.5 129.5,-131.5 129.5,-112.5 43.5,-112.5"/>
<text text-anchor="middle" x="86.5" y="-119.5" font-family="Helvetica,sans-Serif" font-size="10.00">utils/attributes.h</text>
</a>
</g>
</g>
<!-- Node1&#45;&gt;Node4 -->
<g id="edge3" class="edge"><title>Node1&#45;&gt;Node4</title>
<path fill="none" stroke="midnightblue" d="M115.72,-168.083C110.828,-160.534 103.673,-149.495 97.6674,-140.23"/>
<polygon fill="midnightblue" stroke="midnightblue" points="100.548,-138.239 92.172,-131.751 94.674,-142.046 100.548,-138.239"/>
</g>
<!-- Node5 -->
<g id="node5" class="node"><title>Node5</title>
<g id="a_node5"><a xlink:href="../../d9/d49/types_8h.xhtml" target="_top" xlink:title=" ">
<polygon fill="none" stroke="black" points="151.5,-56.5 151.5,-75.5 221.5,-75.5 221.5,-56.5 151.5,-56.5"/>
<text text-anchor="middle" x="186.5" y="-63.5" font-family="Helvetica,sans-Serif" font-size="10.00">utils/types.h</text>
</a>
</g>
</g>
<!-- Node1&#45;&gt;Node5 -->
<g id="edge8" class="edge"><title>Node1&#45;&gt;Node5</title>
<path fill="none" stroke="midnightblue" d="M128.551,-168.353C135.581,-159.519 146.463,-145.254 154.5,-132 163.763,-116.724 172.598,-98.3909 178.628,-85.0948"/>
<polygon fill="midnightblue" stroke="midnightblue" points="181.955,-86.2258 182.818,-75.6661 175.558,-83.3834 181.955,-86.2258"/>
</g>
<!-- Node4&#45;&gt;Node2 -->
<g id="edge4" class="edge"><title>Node4&#45;&gt;Node2</title>
<path fill="none" stroke="midnightblue" d="M75.896,-112.324C66.0438,-104.263 51.1491,-92.0765 39.2849,-82.3695"/>
<polygon fill="midnightblue" stroke="midnightblue" points="41.2529,-79.4575 31.297,-75.8339 36.8202,-84.8752 41.2529,-79.4575"/>
</g>
<!-- Node4&#45;&gt;Node3 -->
<g id="edge5" class="edge"><title>Node4&#45;&gt;Node3</title>
<path fill="none" stroke="midnightblue" d="M87.9862,-112.083C89.1788,-104.927 90.8941,-94.6353 92.3848,-85.6911"/>
<polygon fill="midnightblue" stroke="midnightblue" points="95.8498,-86.1904 94.0415,-75.7511 88.945,-85.0396 95.8498,-86.1904"/>
</g>
<!-- Node4&#45;&gt;Node5 -->
<g id="edge6" class="edge"><title>Node4&#45;&gt;Node5</title>
<path fill="none" stroke="midnightblue" d="M102.567,-112.324C118.458,-103.743 143.007,-90.486 161.458,-80.5224"/>
<polygon fill="midnightblue" stroke="midnightblue" points="163.337,-83.4857 170.473,-75.6545 160.011,-77.3264 163.337,-83.4857"/>
</g>
<!-- Node6 -->
<g id="node6" class="node"><title>Node6</title>
<g id="a_node6"><a xlink:title=" ">
<polygon fill="none" stroke="#bfbfbf" points="163.5,-0.5 163.5,-19.5 209.5,-19.5 209.5,-0.5 163.5,-0.5"/>
<text text-anchor="middle" x="186.5" y="-7.5" font-family="Helvetica,sans-Serif" font-size="10.00">cstdint</text>
</a>
</g>
</g>
<!-- Node5&#45;&gt;Node6 -->
<g id="edge7" class="edge"><title>Node5&#45;&gt;Node6</title>
<path fill="none" stroke="midnightblue" d="M186.5,-56.083C186.5,-49.0059 186.5,-38.8611 186.5,-29.9865"/>
<polygon fill="midnightblue" stroke="midnightblue" points="190,-29.751 186.5,-19.7511 183,-29.7511 190,-29.751"/>
</g>
</g>
</svg>
