<?xml version="1.0" encoding="UTF-8" standalone="no"?>
<!DOCTYPE svg PUBLIC "-//W3C//DTD SVG 1.1//EN"
 "http://www.w3.org/Graphics/SVG/1.1/DTD/svg11.dtd">
<!-- Generated by graphviz version 2.38.0 (20140413.2041)
 -->
<!-- Title: MemoryAreas::Heap Pages: 1 -->
<svg width="150pt" height="237pt"
 viewBox="0.00 0.00 150.00 237.00" xmlns="http://www.w3.org/2000/svg" xmlns:xlink="http://www.w3.org/1999/xlink">
<g id="graph0" class="graph" transform="scale(1 1) rotate(0) translate(4 233)">
<title>MemoryAreas::Heap</title>
<!-- Node1 -->
<g id="node1" class="node"><title>Node1</title>
<g id="a_node1"><a xlink:title=" ">
<polygon fill="#bfbfbf" stroke="black" points="0,-0.5 0,-112.5 106,-112.5 106,-0.5 0,-0.5"/>
<text text-anchor="middle" x="53" y="-100.5" font-family="Helvetica,sans-Serif" font-size="10.00">MemoryAreas::Heap</text>
<polyline fill="none" stroke="black" points="0,-93.5 106,-93.5 "/>
<text text-anchor="middle" x="53" y="-81.5" font-family="Helvetica,sans-Serif" font-size="10.00"> </text>
<polyline fill="none" stroke="black" points="0,-74.5 106,-74.5 "/>
<text text-anchor="start" x="8" y="-62.5" font-family="Helvetica,sans-Serif" font-size="10.00">+ Heap()</text>
<text text-anchor="start" x="8" y="-51.5" font-family="Helvetica,sans-Serif" font-size="10.00">+ ~Heap()</text>
<text text-anchor="start" x="8" y="-40.5" font-family="Helvetica,sans-Serif" font-size="10.00">+ addClass()</text>
<text text-anchor="start" x="8" y="-29.5" font-family="Helvetica,sans-Serif" font-size="10.00">+ getClass()</text>
<text text-anchor="start" x="8" y="-18.5" font-family="Helvetica,sans-Serif" font-size="10.00">+ isInitialized()</text>
<text text-anchor="start" x="8" y="-7.5" font-family="Helvetica,sans-Serif" font-size="10.00">+ pushReference()</text>
</a>
</g>
</g>
<!-- Node2 -->
<g id="node2" class="node"><title>Node2</title>
<g id="a_node2"><a xlink:title=" ">
<polygon fill="none" stroke="#bfbfbf" points="8.5,-160.5 8.5,-228.5 97.5,-228.5 97.5,-160.5 8.5,-160.5"/>
<text text-anchor="start" x="16.5" y="-216.5" font-family="Helvetica,sans-Serif" font-size="10.00">list&lt; Utils::Class</text>
<text text-anchor="middle" x="53" y="-205.5" font-family="Helvetica,sans-Serif" font-size="10.00">_t * &gt;</text>
<polyline fill="none" stroke="#bfbfbf" points="8.5,-198.5 97.5,-198.5 "/>
<text text-anchor="middle" x="53" y="-186.5" font-family="Helvetica,sans-Serif" font-size="10.00"> </text>
<polyline fill="none" stroke="#bfbfbf" points="8.5,-179.5 97.5,-179.5 "/>
<text text-anchor="middle" x="53" y="-167.5" font-family="Helvetica,sans-Serif" font-size="10.00"> </text>
</a>
</g>
</g>
<!-- Node2&#45;&gt;Node1 -->
<g id="edge1" class="edge"><title>Node2&#45;&gt;Node1</title>
<path fill="none" stroke="#404040" d="M53,-160.231C53,-149.497 53,-137.184 53,-124.898"/>
<polygon fill="none" stroke="#404040" points="53.0001,-124.68 49,-118.68 53,-112.68 57,-118.68 53.0001,-124.68"/>
<text text-anchor="middle" x="97.5" y="-134" font-family="Helvetica,sans-Serif" font-size="10.00"> +initialized_classes</text>
</g>
</g>
</svg>
