<?xml version="1.0" encoding="UTF-8" standalone="no"?>
<!DOCTYPE svg PUBLIC "-//W3C//DTD SVG 1.1//EN"
 "http://www.w3.org/Graphics/SVG/1.1/DTD/svg11.dtd">
<!-- Generated by graphviz version 2.38.0 (20140413.2041)
 -->
<!-- Title: tableformatter::CellFormatter Pages: 1 -->
<svg width="376pt" height="182pt"
 viewBox="0.00 0.00 375.50 182.00" xmlns="http://www.w3.org/2000/svg" xmlns:xlink="http://www.w3.org/1999/xlink">
<g id="graph0" class="graph" transform="scale(1 1) rotate(0) translate(4 178)">
<title>tableformatter::CellFormatter</title>
<!-- Node1 -->
<g id="node1" class="node"><title>Node1</title>
<g id="a_node1"><a xlink:title=" ">
<polygon fill="#bfbfbf" stroke="black" points="86.5,-0.5 86.5,-68.5 226.5,-68.5 226.5,-0.5 86.5,-0.5"/>
<text text-anchor="middle" x="156.5" y="-56.5" font-family="Helvetica,sans-Serif" font-size="10.00">tableformatter::CellFormatter</text>
<polyline fill="none" stroke="black" points="86.5,-49.5 226.5,-49.5 "/>
<text text-anchor="middle" x="156.5" y="-37.5" font-family="Helvetica,sans-Serif" font-size="10.00"> </text>
<polyline fill="none" stroke="black" points="86.5,-30.5 226.5,-30.5 "/>
<text text-anchor="start" x="94.5" y="-18.5" font-family="Helvetica,sans-Serif" font-size="10.00">+ CellFormatter()</text>
<text text-anchor="start" x="94.5" y="-7.5" font-family="Helvetica,sans-Serif" font-size="10.00">+ formatCellContent()</text>
</a>
</g>
</g>
<!-- Node2 -->
<g id="node2" class="node"><title>Node2</title>
<g id="a_node2"><a xlink:title=" ">
<polygon fill="none" stroke="#bfbfbf" points="0,-116.5 0,-173.5 35,-173.5 35,-116.5 0,-116.5"/>
<text text-anchor="middle" x="17.5" y="-161.5" font-family="Helvetica,sans-Serif" font-size="10.00">char</text>
<polyline fill="none" stroke="#bfbfbf" points="0,-154.5 35,-154.5 "/>
<text text-anchor="middle" x="17.5" y="-142.5" font-family="Helvetica,sans-Serif" font-size="10.00"> </text>
<polyline fill="none" stroke="#bfbfbf" points="0,-135.5 35,-135.5 "/>
<text text-anchor="middle" x="17.5" y="-123.5" font-family="Helvetica,sans-Serif" font-size="10.00"> </text>
</a>
</g>
</g>
<!-- Node2&#45;&gt;Node1 -->
<g id="edge1" class="edge"><title>Node2&#45;&gt;Node1</title>
<path fill="none" stroke="#404040" d="M24.473,-116.315C28.1645,-106.099 33.6183,-95.0613 41.5,-87 51.1402,-77.1402 63.0054,-69.0135 75.4154,-62.3643"/>
<polygon fill="none" stroke="#404040" points="75.6733,-62.2361 79.2658,-55.9836 86.4191,-56.8949 82.8266,-63.1475 75.6733,-62.2361"/>
<text text-anchor="middle" x="84" y="-90" font-family="Helvetica,sans-Serif" font-size="10.00"> +paddingCharacter</text>
</g>
<!-- Node3 -->
<g id="node3" class="node"><title>Node3</title>
<g id="a_node3"><a xlink:title=" ">
<polygon fill="none" stroke="#bfbfbf" points="100,-116.5 100,-173.5 143,-173.5 143,-116.5 100,-116.5"/>
<text text-anchor="middle" x="121.5" y="-161.5" font-family="Helvetica,sans-Serif" font-size="10.00">size_t</text>
<polyline fill="none" stroke="#bfbfbf" points="100,-154.5 143,-154.5 "/>
<text text-anchor="middle" x="121.5" y="-142.5" font-family="Helvetica,sans-Serif" font-size="10.00"> </text>
<polyline fill="none" stroke="#bfbfbf" points="100,-135.5 143,-135.5 "/>
<text text-anchor="middle" x="121.5" y="-123.5" font-family="Helvetica,sans-Serif" font-size="10.00"> </text>
</a>
</g>
</g>
<!-- Node3&#45;&gt;Node1 -->
<g id="edge2" class="edge"><title>Node3&#45;&gt;Node1</title>
<path fill="none" stroke="#404040" d="M126.733,-116.475C128.803,-107.031 131.428,-96.4607 134.5,-87 135.232,-84.746 136.024,-82.4543 136.858,-80.1525"/>
<polygon fill="none" stroke="#404040" points="136.964,-79.8793 135.398,-72.8401 141.294,-68.6879 142.859,-75.7271 136.964,-79.8793"/>
<text text-anchor="middle" x="150.5" y="-90" font-family="Helvetica,sans-Serif" font-size="10.00"> +width</text>
</g>
<!-- Node4 -->
<g id="node4" class="node"><title>Node4</title>
<g id="a_node4"><a xlink:title=" ">
<polygon fill="none" stroke="#bfbfbf" points="161,-116.5 161,-173.5 224,-173.5 224,-116.5 161,-116.5"/>
<text text-anchor="middle" x="192.5" y="-161.5" font-family="Helvetica,sans-Serif" font-size="10.00">VERTICAL</text>
<polyline fill="none" stroke="#bfbfbf" points="161,-154.5 224,-154.5 "/>
<text text-anchor="middle" x="192.5" y="-142.5" font-family="Helvetica,sans-Serif" font-size="10.00"> </text>
<polyline fill="none" stroke="#bfbfbf" points="161,-135.5 224,-135.5 "/>
<text text-anchor="middle" x="192.5" y="-123.5" font-family="Helvetica,sans-Serif" font-size="10.00"> </text>
</a>
</g>
</g>
<!-- Node4&#45;&gt;Node1 -->
<g id="edge3" class="edge"><title>Node4&#45;&gt;Node1</title>
<path fill="none" stroke="#404040" d="M183.323,-116.34C179.66,-105.302 175.35,-92.3121 171.269,-80.0129"/>
<polygon fill="none" stroke="#404040" points="171.235,-79.908 165.549,-75.473 167.455,-68.5186 173.141,-72.9536 171.235,-79.908"/>
<text text-anchor="middle" x="218" y="-90" font-family="Helvetica,sans-Serif" font-size="10.00"> +verticalAlignment</text>
</g>
<!-- Node5 -->
<g id="node5" class="node"><title>Node5</title>
<g id="a_node5"><a xlink:title=" ">
<polygon fill="none" stroke="#bfbfbf" points="256,-116.5 256,-173.5 333,-173.5 333,-116.5 256,-116.5"/>
<text text-anchor="middle" x="294.5" y="-161.5" font-family="Helvetica,sans-Serif" font-size="10.00">HORIZONTAL</text>
<polyline fill="none" stroke="#bfbfbf" points="256,-154.5 333,-154.5 "/>
<text text-anchor="middle" x="294.5" y="-142.5" font-family="Helvetica,sans-Serif" font-size="10.00"> </text>
<polyline fill="none" stroke="#bfbfbf" points="256,-135.5 333,-135.5 "/>
<text text-anchor="middle" x="294.5" y="-123.5" font-family="Helvetica,sans-Serif" font-size="10.00"> </text>
</a>
</g>
</g>
<!-- Node5&#45;&gt;Node1 -->
<g id="edge4" class="edge"><title>Node5&#45;&gt;Node1</title>
<path fill="none" stroke="#404040" d="M283.81,-116.412C278.823,-106.208 272.068,-95.1539 263.5,-87 255.796,-79.6685 246.852,-73.2005 237.481,-67.5457"/>
<polygon fill="none" stroke="#404040" points="237.216,-67.3964 230.025,-67.9349 226.762,-61.5041 233.953,-60.9656 237.216,-67.3964"/>
<text text-anchor="middle" x="320" y="-90" font-family="Helvetica,sans-Serif" font-size="10.00"> +horizontalAlignment</text>
</g>
</g>
</svg>
