<?xml version="1.0" encoding="UTF-8" standalone="no"?>
<!DOCTYPE svg PUBLIC "-//W3C//DTD SVG 1.1//EN"
 "http://www.w3.org/Graphics/SVG/1.1/DTD/svg11.dtd">
<!-- Generated by graphviz version 2.38.0 (20140413.2041)
 -->
<!-- Title: Instructions::Branch::IntegerCompareGreaterEqual Pages: 1 -->
<svg width="165pt" height="460pt"
 viewBox="0.00 0.00 165.00 460.00" xmlns="http://www.w3.org/2000/svg" xmlns:xlink="http://www.w3.org/1999/xlink">
<g id="graph0" class="graph" transform="scale(1 1) rotate(0) translate(4 456)">
<title>Instructions::Branch::IntegerCompareGreaterEqual</title>
<!-- Node1 -->
<g id="node1" class="node"><title>Node1</title>
<g id="a_node1"><a xlink:title=" ">
<polygon fill="#bfbfbf" stroke="black" points="0,-0.5 0,-79.5 157,-79.5 157,-0.5 0,-0.5"/>
<text text-anchor="start" x="8" y="-67.5" font-family="Helvetica,sans-Serif" font-size="10.00">Instructions::Branch</text>
<text text-anchor="middle" x="78.5" y="-56.5" font-family="Helvetica,sans-Serif" font-size="10.00">::IntegerCompareGreaterEqual</text>
<polyline fill="none" stroke="black" points="0,-49.5 157,-49.5 "/>
<text text-anchor="middle" x="78.5" y="-37.5" font-family="Helvetica,sans-Serif" font-size="10.00"> </text>
<polyline fill="none" stroke="black" points="0,-30.5 157,-30.5 "/>
<text text-anchor="start" x="8" y="-18.5" font-family="Helvetica,sans-Serif" font-size="10.00">+ IntegerCompareGreaterEqual()</text>
<text text-anchor="start" x="8" y="-7.5" font-family="Helvetica,sans-Serif" font-size="10.00">+ execute()</text>
</a>
</g>
</g>
<!-- Node2 -->
<g id="node2" class="node"><title>Node2</title>
<g id="a_node2"><a xlink:href="../../d7/d51/class_instructions_1_1_branch_1_1_base_branch.xhtml" target="_top" xlink:title=" ">
<polygon fill="none" stroke="black" points="26.5,-117.5 26.5,-207.5 130.5,-207.5 130.5,-117.5 26.5,-117.5"/>
<text text-anchor="start" x="34.5" y="-195.5" font-family="Helvetica,sans-Serif" font-size="10.00">Instructions::Branch</text>
<text text-anchor="middle" x="78.5" y="-184.5" font-family="Helvetica,sans-Serif" font-size="10.00">::BaseBranch</text>
<polyline fill="none" stroke="black" points="26.5,-177.5 130.5,-177.5 "/>
<text text-anchor="middle" x="78.5" y="-165.5" font-family="Helvetica,sans-Serif" font-size="10.00"> </text>
<polyline fill="none" stroke="black" points="26.5,-158.5 130.5,-158.5 "/>
<text text-anchor="start" x="34.5" y="-146.5" font-family="Helvetica,sans-Serif" font-size="10.00">+ BaseBranch()</text>
<text text-anchor="start" x="34.5" y="-135.5" font-family="Helvetica,sans-Serif" font-size="10.00">+ toBytecode()</text>
<text text-anchor="start" x="34.5" y="-124.5" font-family="Helvetica,sans-Serif" font-size="10.00">+ toBytecode_json()</text>
</a>
</g>
</g>
<!-- Node2&#45;&gt;Node1 -->
<g id="edge1" class="edge"><title>Node2&#45;&gt;Node1</title>
<path fill="none" stroke="midnightblue" d="M78.5,-107.303C78.5,-97.966 78.5,-88.4333 78.5,-79.6138"/>
<polygon fill="none" stroke="midnightblue" points="75.0001,-107.314 78.5,-117.314 82.0001,-107.315 75.0001,-107.314"/>
</g>
<!-- Node3 -->
<g id="node3" class="node"><title>Node3</title>
<g id="a_node3"><a xlink:href="../../d4/da8/class_instructions_1_1_instruction.xhtml" target="_top" xlink:title=" ">
<polygon fill="none" stroke="black" points="19.5,-245.5 19.5,-346.5 137.5,-346.5 137.5,-245.5 19.5,-245.5"/>
<text text-anchor="middle" x="78.5" y="-334.5" font-family="Helvetica,sans-Serif" font-size="10.00">Instructions::Instruction</text>
<polyline fill="none" stroke="black" points="19.5,-327.5 137.5,-327.5 "/>
<text text-anchor="middle" x="78.5" y="-315.5" font-family="Helvetica,sans-Serif" font-size="10.00"> </text>
<polyline fill="none" stroke="black" points="19.5,-308.5 137.5,-308.5 "/>
<text text-anchor="start" x="27.5" y="-296.5" font-family="Helvetica,sans-Serif" font-size="10.00">+ Instruction()</text>
<text text-anchor="start" x="27.5" y="-285.5" font-family="Helvetica,sans-Serif" font-size="10.00">+ ~Instruction()</text>
<text text-anchor="start" x="27.5" y="-274.5" font-family="Helvetica,sans-Serif" font-size="10.00">+ execute()</text>
<text text-anchor="start" x="27.5" y="-263.5" font-family="Helvetica,sans-Serif" font-size="10.00">+ toBytecode()</text>
<text text-anchor="start" x="27.5" y="-252.5" font-family="Helvetica,sans-Serif" font-size="10.00">+ toBytecode_json()</text>
</a>
</g>
</g>
<!-- Node3&#45;&gt;Node2 -->
<g id="edge2" class="edge"><title>Node3&#45;&gt;Node2</title>
<path fill="none" stroke="midnightblue" d="M78.5,-235.001C78.5,-225.8 78.5,-216.449 78.5,-207.673"/>
<polygon fill="none" stroke="midnightblue" points="75.0001,-235.285 78.5,-245.285 82.0001,-235.286 75.0001,-235.285"/>
</g>
<!-- Node4 -->
<g id="node4" class="node"><title>Node4</title>
<g id="a_node4"><a xlink:title=" ">
<polygon fill="none" stroke="#bfbfbf" points="64,-394.5 64,-451.5 93,-451.5 93,-394.5 64,-394.5"/>
<text text-anchor="middle" x="78.5" y="-439.5" font-family="Helvetica,sans-Serif" font-size="10.00">u1</text>
<polyline fill="none" stroke="#bfbfbf" points="64,-432.5 93,-432.5 "/>
<text text-anchor="middle" x="78.5" y="-420.5" font-family="Helvetica,sans-Serif" font-size="10.00"> </text>
<polyline fill="none" stroke="#bfbfbf" points="64,-413.5 93,-413.5 "/>
<text text-anchor="middle" x="78.5" y="-401.5" font-family="Helvetica,sans-Serif" font-size="10.00"> </text>
</a>
</g>
</g>
<!-- Node4&#45;&gt;Node3 -->
<g id="edge3" class="edge"><title>Node4&#45;&gt;Node3</title>
<path fill="none" stroke="#404040" d="M78.5,-394.258C78.5,-383.793 78.5,-371.422 78.5,-359.072"/>
<polygon fill="none" stroke="#404040" points="78.5001,-358.802 74.5,-352.802 78.5,-346.802 82.5,-352.802 78.5001,-358.802"/>
<text text-anchor="middle" x="99" y="-368" font-family="Helvetica,sans-Serif" font-size="10.00"> +opcode</text>
</g>
</g>
</svg>
