<?xml version="1.0" encoding="UTF-8" standalone="no"?>
<!DOCTYPE svg PUBLIC "-//W3C//DTD SVG 1.1//EN"
 "http://www.w3.org/Graphics/SVG/1.1/DTD/svg11.dtd">
<!-- Generated by graphviz version 2.38.0 (20140413.2041)
 -->
<!-- Title: include/utils/memory_areas/java_stack.h Pages: 1 -->
<svg width="195pt" height="229pt"
 viewBox="0.00 0.00 194.50 229.00" xmlns="http://www.w3.org/2000/svg" xmlns:xlink="http://www.w3.org/1999/xlink">
<g id="graph0" class="graph" transform="scale(1 1) rotate(0) translate(4 225)">
<title>include/utils/memory_areas/java_stack.h</title>
<!-- Node1 -->
<g id="node1" class="node"><title>Node1</title>
<g id="a_node1"><a xlink:title=" ">
<polygon fill="#bfbfbf" stroke="black" points="0.5,-190.5 0.5,-220.5 107.5,-220.5 107.5,-190.5 0.5,-190.5"/>
<text text-anchor="start" x="8.5" y="-208.5" font-family="Helvetica,sans-Serif" font-size="10.00">include/utils/memory</text>
<text text-anchor="middle" x="54" y="-197.5" font-family="Helvetica,sans-Serif" font-size="10.00">_areas/java_stack.h</text>
</a>
</g>
</g>
<!-- Node2 -->
<g id="node2" class="node"><title>Node2</title>
<g id="a_node2"><a xlink:href="../../d3/d97/interpreter_8h.xhtml" target="_top" xlink:title=" ">
<polygon fill="none" stroke="black" points="0,-0.5 0,-19.5 102,-19.5 102,-0.5 0,-0.5"/>
<text text-anchor="middle" x="51" y="-7.5" font-family="Helvetica,sans-Serif" font-size="10.00">include/interpreter.h</text>
</a>
</g>
</g>
<!-- Node1&#45;&gt;Node2 -->
<g id="edge1" class="edge"><title>Node1&#45;&gt;Node2</title>
<path fill="none" stroke="midnightblue" d="M41.5266,-181.321C37.673,-172.957 33.9349,-163.286 32,-154 21.5272,-103.738 40.011,-42.2749 47.7913,-19.7805"/>
<polygon fill="midnightblue" stroke="midnightblue" points="38.4535,-183.004 46.0023,-190.438 44.7371,-179.919 38.4535,-183.004"/>
</g>
<!-- Node3 -->
<g id="node3" class="node"><title>Node3</title>
<g id="a_node3"><a xlink:href="../../db/dd5/thread_8h.xhtml" target="_top" xlink:title=" ">
<polygon fill="none" stroke="black" points="41.5,-123.5 41.5,-153.5 148.5,-153.5 148.5,-123.5 41.5,-123.5"/>
<text text-anchor="start" x="49.5" y="-141.5" font-family="Helvetica,sans-Serif" font-size="10.00">include/utils/memory</text>
<text text-anchor="middle" x="95" y="-130.5" font-family="Helvetica,sans-Serif" font-size="10.00">_areas/thread.h</text>
</a>
</g>
</g>
<!-- Node1&#45;&gt;Node3 -->
<g id="edge2" class="edge"><title>Node1&#45;&gt;Node3</title>
<path fill="none" stroke="midnightblue" d="M68.2763,-181.867C74.2102,-172.459 80.9128,-161.833 86.121,-153.577"/>
<polygon fill="midnightblue" stroke="midnightblue" points="65.2712,-180.071 62.8964,-190.396 71.1918,-183.805 65.2712,-180.071"/>
</g>
<!-- Node3&#45;&gt;Node2 -->
<g id="edge5" class="edge"><title>Node3&#45;&gt;Node2</title>
<path fill="none" stroke="midnightblue" d="M82.2589,-114.393C77.9533,-105.948 73.3849,-96.2063 70,-87 61.2704,-63.257 55.196,-33.8957 52.5268,-19.6139"/>
<polygon fill="midnightblue" stroke="midnightblue" points="79.1795,-116.057 86.9313,-123.279 85.3753,-112.799 79.1795,-116.057"/>
</g>
<!-- Node4 -->
<g id="node4" class="node"><title>Node4</title>
<g id="a_node4"><a xlink:href="../../da/ddb/heap_8h.xhtml" target="_top" xlink:title=" ">
<polygon fill="none" stroke="black" points="79.5,-56.5 79.5,-86.5 186.5,-86.5 186.5,-56.5 79.5,-56.5"/>
<text text-anchor="start" x="87.5" y="-74.5" font-family="Helvetica,sans-Serif" font-size="10.00">include/utils/memory</text>
<text text-anchor="middle" x="133" y="-63.5" font-family="Helvetica,sans-Serif" font-size="10.00">_areas/heap.h</text>
</a>
</g>
</g>
<!-- Node3&#45;&gt;Node4 -->
<g id="edge3" class="edge"><title>Node3&#45;&gt;Node4</title>
<path fill="none" stroke="midnightblue" d="M108.402,-114.576C113.859,-105.241 119.993,-94.7483 124.771,-86.5765"/>
<polygon fill="midnightblue" stroke="midnightblue" points="105.271,-112.997 103.245,-123.396 111.314,-116.529 105.271,-112.997"/>
</g>
<!-- Node4&#45;&gt;Node2 -->
<g id="edge4" class="edge"><title>Node4&#45;&gt;Node2</title>
<path fill="none" stroke="midnightblue" d="M105.414,-50.483C90.9682,-40.0013 74.0263,-27.7081 62.9317,-19.6578"/>
<polygon fill="midnightblue" stroke="midnightblue" points="103.418,-53.3592 113.567,-56.3993 107.529,-47.6936 103.418,-53.3592"/>
</g>
</g>
</svg>
