<?xml version="1.0" encoding="UTF-8" standalone="no"?>
<!DOCTYPE svg PUBLIC "-//W3C//DTD SVG 1.1//EN"
 "http://www.w3.org/Graphics/SVG/1.1/DTD/svg11.dtd">
<!-- Generated by graphviz version 2.38.0 (20140413.2041)
 -->
<!-- Title: include/utils/fileSystem.h Pages: 1 -->
<svg width="245pt" height="140pt"
 viewBox="0.00 0.00 245.00 140.00" xmlns="http://www.w3.org/2000/svg" xmlns:xlink="http://www.w3.org/1999/xlink">
<g id="graph0" class="graph" transform="scale(1 1) rotate(0) translate(4 136)">
<title>include/utils/fileSystem.h</title>
<!-- Node1 -->
<g id="node1" class="node"><title>Node1</title>
<g id="a_node1"><a xlink:title=" ">
<polygon fill="#bfbfbf" stroke="black" points="39,-112.5 39,-131.5 164,-131.5 164,-112.5 39,-112.5"/>
<text text-anchor="middle" x="101.5" y="-119.5" font-family="Helvetica,sans-Serif" font-size="10.00">include/utils/fileSystem.h</text>
</a>
</g>
</g>
<!-- Node2 -->
<g id="node2" class="node"><title>Node2</title>
<g id="a_node2"><a xlink:title=" ">
<polygon fill="none" stroke="#bfbfbf" points="0,-56.5 0,-75.5 49,-75.5 49,-56.5 0,-56.5"/>
<text text-anchor="middle" x="24.5" y="-63.5" font-family="Helvetica,sans-Serif" font-size="10.00">dirent.h</text>
</a>
</g>
</g>
<!-- Node1&#45;&gt;Node2 -->
<g id="edge1" class="edge"><title>Node1&#45;&gt;Node2</title>
<path fill="none" stroke="midnightblue" d="M89.1286,-112.324C77.3415,-104.058 59.3677,-91.4527 45.3645,-81.6322"/>
<polygon fill="midnightblue" stroke="midnightblue" points="47.0376,-78.5307 36.8407,-75.6545 43.0184,-84.2619 47.0376,-78.5307"/>
</g>
<!-- Node3 -->
<g id="node3" class="node"><title>Node3</title>
<g id="a_node3"><a xlink:title=" ">
<polygon fill="none" stroke="#bfbfbf" points="89,-0.5 89,-19.5 130,-19.5 130,-0.5 89,-0.5"/>
<text text-anchor="middle" x="109.5" y="-7.5" font-family="Helvetica,sans-Serif" font-size="10.00">string</text>
</a>
</g>
</g>
<!-- Node1&#45;&gt;Node3 -->
<g id="edge2" class="edge"><title>Node1&#45;&gt;Node3</title>
<path fill="none" stroke="midnightblue" d="M99.604,-112.13C97.1967,-99.5803 93.6765,-75.9473 96.5,-56 97.7679,-47.0425 100.389,-37.372 102.948,-29.2998"/>
<polygon fill="midnightblue" stroke="midnightblue" points="106.271,-30.3976 106.156,-19.8034 99.6392,-28.1569 106.271,-30.3976"/>
</g>
<!-- Node4 -->
<g id="node4" class="node"><title>Node4</title>
<g id="a_node4"><a xlink:title=" ">
<polygon fill="none" stroke="#bfbfbf" points="105.5,-56.5 105.5,-75.5 147.5,-75.5 147.5,-56.5 105.5,-56.5"/>
<text text-anchor="middle" x="126.5" y="-63.5" font-family="Helvetica,sans-Serif" font-size="10.00">vector</text>
</a>
</g>
</g>
<!-- Node1&#45;&gt;Node4 -->
<g id="edge3" class="edge"><title>Node1&#45;&gt;Node4</title>
<path fill="none" stroke="midnightblue" d="M105.628,-112.083C109.014,-104.77 113.916,-94.1814 118.119,-85.1034"/>
<polygon fill="midnightblue" stroke="midnightblue" points="121.423,-86.2962 122.449,-75.7511 115.071,-83.3553 121.423,-86.2962"/>
</g>
<!-- Node5 -->
<g id="node5" class="node"><title>Node5</title>
<g id="a_node5"><a xlink:href="../../de/d45/errors_8h.xhtml" target="_top" xlink:title=" ">
<polygon fill="none" stroke="black" points="166,-56.5 166,-75.5 237,-75.5 237,-56.5 166,-56.5"/>
<text text-anchor="middle" x="201.5" y="-63.5" font-family="Helvetica,sans-Serif" font-size="10.00">utils/errors.h</text>
</a>
</g>
</g>
<!-- Node1&#45;&gt;Node5 -->
<g id="edge4" class="edge"><title>Node1&#45;&gt;Node5</title>
<path fill="none" stroke="midnightblue" d="M117.567,-112.324C133.458,-103.743 158.007,-90.486 176.458,-80.5224"/>
<polygon fill="midnightblue" stroke="midnightblue" points="178.337,-83.4857 185.473,-75.6545 175.011,-77.3264 178.337,-83.4857"/>
</g>
<!-- Node5&#45;&gt;Node3 -->
<g id="edge6" class="edge"><title>Node5&#45;&gt;Node3</title>
<path fill="none" stroke="midnightblue" d="M186.719,-56.324C172.233,-47.8215 149.927,-34.7288 133.007,-24.7975"/>
<polygon fill="midnightblue" stroke="midnightblue" points="134.641,-21.6981 124.245,-19.6545 131.097,-27.735 134.641,-21.6981"/>
</g>
<!-- Node6 -->
<g id="node6" class="node"><title>Node6</title>
<g id="a_node6"><a xlink:title=" ">
<polygon fill="none" stroke="#bfbfbf" points="181,-0.5 181,-19.5 222,-19.5 222,-0.5 181,-0.5"/>
<text text-anchor="middle" x="201.5" y="-7.5" font-family="Helvetica,sans-Serif" font-size="10.00">stack</text>
</a>
</g>
</g>
<!-- Node5&#45;&gt;Node6 -->
<g id="edge5" class="edge"><title>Node5&#45;&gt;Node6</title>
<path fill="none" stroke="midnightblue" d="M201.5,-56.083C201.5,-49.0059 201.5,-38.8611 201.5,-29.9865"/>
<polygon fill="midnightblue" stroke="midnightblue" points="205,-29.751 201.5,-19.7511 198,-29.7511 205,-29.751"/>
</g>
</g>
</svg>
