<?xml version="1.0" encoding="UTF-8" standalone="no"?>
<!DOCTYPE svg PUBLIC "-//W3C//DTD SVG 1.1//EN"
 "http://www.w3.org/Graphics/SVG/1.1/DTD/svg11.dtd">
<!-- Generated by graphviz version 2.38.0 (20140413.2041)
 -->
<!-- Title: include/utils/memory_areas/thread.h Pages: 1 -->
<svg width="156pt" height="162pt"
 viewBox="0.00 0.00 156.00 162.00" xmlns="http://www.w3.org/2000/svg" xmlns:xlink="http://www.w3.org/1999/xlink">
<g id="graph0" class="graph" transform="scale(1 1) rotate(0) translate(4 158)">
<title>include/utils/memory_areas/thread.h</title>
<!-- Node1 -->
<g id="node1" class="node"><title>Node1</title>
<g id="a_node1"><a xlink:title=" ">
<polygon fill="#bfbfbf" stroke="black" points="41,-123.5 41,-153.5 148,-153.5 148,-123.5 41,-123.5"/>
<text text-anchor="start" x="49" y="-141.5" font-family="Helvetica,sans-Serif" font-size="10.00">include/utils/memory</text>
<text text-anchor="middle" x="94.5" y="-130.5" font-family="Helvetica,sans-Serif" font-size="10.00">_areas/thread.h</text>
</a>
</g>
</g>
<!-- Node2 -->
<g id="node2" class="node"><title>Node2</title>
<g id="a_node2"><a xlink:href="../../da/ddb/heap_8h.xhtml" target="_top" xlink:title=" ">
<polygon fill="none" stroke="black" points="0,-56.5 0,-86.5 107,-86.5 107,-56.5 0,-56.5"/>
<text text-anchor="start" x="8" y="-74.5" font-family="Helvetica,sans-Serif" font-size="10.00">include/utils/memory</text>
<text text-anchor="middle" x="53.5" y="-63.5" font-family="Helvetica,sans-Serif" font-size="10.00">_areas/heap.h</text>
</a>
</g>
</g>
<!-- Node1&#45;&gt;Node2 -->
<g id="edge1" class="edge"><title>Node1&#45;&gt;Node2</title>
<path fill="none" stroke="midnightblue" d="M80.2237,-114.867C74.2898,-105.459 67.5872,-94.8334 62.379,-86.5765"/>
<polygon fill="midnightblue" stroke="midnightblue" points="77.3082,-116.805 85.6036,-123.396 83.2288,-113.071 77.3082,-116.805"/>
</g>
<!-- Node3 -->
<g id="node3" class="node"><title>Node3</title>
<g id="a_node3"><a xlink:href="../../d3/d97/interpreter_8h.xhtml" target="_top" xlink:title=" ">
<polygon fill="none" stroke="black" points="43.5,-0.5 43.5,-19.5 145.5,-19.5 145.5,-0.5 43.5,-0.5"/>
<text text-anchor="middle" x="94.5" y="-7.5" font-family="Helvetica,sans-Serif" font-size="10.00">include/interpreter.h</text>
</a>
</g>
</g>
<!-- Node1&#45;&gt;Node3 -->
<g id="edge3" class="edge"><title>Node1&#45;&gt;Node3</title>
<path fill="none" stroke="midnightblue" d="M106.973,-114.321C110.827,-105.957 114.565,-96.2861 116.5,-87 119.31,-73.5119 119.606,-69.4232 116.5,-56 113.364,-42.4442 105.554,-28.255 100.138,-19.5194"/>
<polygon fill="midnightblue" stroke="midnightblue" points="103.763,-112.919 102.498,-123.438 110.046,-116.004 103.763,-112.919"/>
</g>
<!-- Node2&#45;&gt;Node3 -->
<g id="edge2" class="edge"><title>Node2&#45;&gt;Node3</title>
<path fill="none" stroke="midnightblue" d="M68.9325,-48.1041C75.7662,-38.1868 83.4016,-27.1062 88.5341,-19.6578"/>
<polygon fill="midnightblue" stroke="midnightblue" points="66.0085,-46.179 63.2164,-56.3993 71.7726,-50.1509 66.0085,-46.179"/>
</g>
</g>
</svg>
