<?xml version="1.0" encoding="UTF-8" standalone="no"?>
<!DOCTYPE svg PUBLIC "-//W3C//DTD SVG 1.1//EN"
 "http://www.w3.org/Graphics/SVG/1.1/DTD/svg11.dtd">
<!-- Generated by graphviz version 2.38.0 (20140413.2041)
 -->
<!-- Title: include/instructions/opcodes.h Pages: 1 -->
<svg width="1930pt" height="117pt"
 viewBox="0.00 0.00 1930.00 117.00" xmlns="http://www.w3.org/2000/svg" xmlns:xlink="http://www.w3.org/1999/xlink">
<g id="graph0" class="graph" transform="scale(1 1) rotate(0) translate(4 113)">
<title>include/instructions/opcodes.h</title>
<!-- Node1 -->
<g id="node1" class="node"><title>Node1</title>
<g id="a_node1"><a xlink:title=" ">
<polygon fill="#bfbfbf" stroke="black" points="903.5,-78.5 903.5,-108.5 1004.5,-108.5 1004.5,-78.5 903.5,-78.5"/>
<text text-anchor="start" x="911.5" y="-96.5" font-family="Helvetica,sans-Serif" font-size="10.00">include/instructions</text>
<text text-anchor="middle" x="954" y="-85.5" font-family="Helvetica,sans-Serif" font-size="10.00">/opcodes.h</text>
</a>
</g>
</g>
<!-- Node2 -->
<g id="node2" class="node"><title>Node2</title>
<g id="a_node2"><a xlink:href="../../db/d6e/branch_8h.xhtml" target="_top" xlink:title=" ">
<polygon fill="none" stroke="black" points="0,-6 0,-36 124,-36 124,-6 0,-6"/>
<text text-anchor="start" x="8" y="-24" font-family="Helvetica,sans-Serif" font-size="10.00">include/instructions</text>
<text text-anchor="middle" x="62" y="-13" font-family="Helvetica,sans-Serif" font-size="10.00">/instruction_set/branch.h</text>
</a>
</g>
</g>
<!-- Node1&#45;&gt;Node2 -->
<g id="edge1" class="edge"><title>Node1&#45;&gt;Node2</title>
<path fill="none" stroke="midnightblue" d="M892.831,-93.1672C755.755,-93.6989 413.955,-89.6508 133,-42 124.288,-40.5225 115.115,-38.3885 106.361,-36.0592"/>
<polygon fill="midnightblue" stroke="midnightblue" points="893.14,-96.6659 903.123,-93.1171 893.106,-89.666 893.14,-96.6659"/>
</g>
<!-- Node3 -->
<g id="node3" class="node"><title>Node3</title>
<g id="a_node3"><a xlink:href="../../d6/d00/byte_8h.xhtml" target="_top" xlink:title=" ">
<polygon fill="none" stroke="black" points="142.5,-6 142.5,-36 255.5,-36 255.5,-6 142.5,-6"/>
<text text-anchor="start" x="150.5" y="-24" font-family="Helvetica,sans-Serif" font-size="10.00">include/instructions</text>
<text text-anchor="middle" x="199" y="-13" font-family="Helvetica,sans-Serif" font-size="10.00">/instruction_set/byte.h</text>
</a>
</g>
</g>
<!-- Node1&#45;&gt;Node3 -->
<g id="edge2" class="edge"><title>Node1&#45;&gt;Node3</title>
<path fill="none" stroke="midnightblue" d="M893.114,-92.6262C772.142,-91.8726 493.404,-85.1156 264,-42 255.993,-40.4952 247.581,-38.3486 239.563,-36.0156"/>
<polygon fill="midnightblue" stroke="midnightblue" points="893.267,-96.1269 903.284,-92.6775 893.302,-89.127 893.267,-96.1269"/>
</g>
<!-- Node4 -->
<g id="node4" class="node"><title>Node4</title>
<g id="a_node4"><a xlink:href="../../d3/df3/char_8h.xhtml" target="_top" xlink:title=" ">
<polygon fill="none" stroke="black" points="273.5,-6 273.5,-36 386.5,-36 386.5,-6 273.5,-6"/>
<text text-anchor="start" x="281.5" y="-24" font-family="Helvetica,sans-Serif" font-size="10.00">include/instructions</text>
<text text-anchor="middle" x="330" y="-13" font-family="Helvetica,sans-Serif" font-size="10.00">/instruction_set/char.h</text>
</a>
</g>
</g>
<!-- Node1&#45;&gt;Node4 -->
<g id="edge3" class="edge"><title>Node1&#45;&gt;Node4</title>
<path fill="none" stroke="midnightblue" d="M893.278,-91.0499C790.161,-87.6893 574.617,-76.7677 396,-42 388.126,-40.4673 379.853,-38.367 371.929,-36.1011"/>
<polygon fill="midnightblue" stroke="midnightblue" points="893.393,-94.5552 903.498,-91.3701 893.612,-87.5586 893.393,-94.5552"/>
</g>
<!-- Node5 -->
<g id="node5" class="node"><title>Node5</title>
<g id="a_node5"><a xlink:href="../../d1/dac/constant__pool_8h.xhtml" target="_top" xlink:title=" ">
<polygon fill="none" stroke="black" points="405,-0.5 405,-41.5 529,-41.5 529,-0.5 405,-0.5"/>
<text text-anchor="start" x="413" y="-29.5" font-family="Helvetica,sans-Serif" font-size="10.00">include/instructions</text>
<text text-anchor="start" x="413" y="-18.5" font-family="Helvetica,sans-Serif" font-size="10.00">/instruction_set/constant</text>
<text text-anchor="middle" x="467" y="-7.5" font-family="Helvetica,sans-Serif" font-size="10.00">_pool.h</text>
</a>
</g>
</g>
<!-- Node1&#45;&gt;Node5 -->
<g id="edge4" class="edge"><title>Node1&#45;&gt;Node5</title>
<path fill="none" stroke="midnightblue" d="M893.262,-88.0712C811.827,-81.4644 663.018,-67.0419 538,-42 535.112,-41.4215 532.17,-40.7855 529.206,-40.1071"/>
<polygon fill="midnightblue" stroke="midnightblue" points="893.087,-91.5682 903.334,-88.8762 893.645,-84.5905 893.087,-91.5682"/>
</g>
<!-- Node6 -->
<g id="node6" class="node"><title>Node6</title>
<g id="a_node6"><a xlink:href="../../d9/d6e/double_8h.xhtml" target="_top" xlink:title=" ">
<polygon fill="none" stroke="black" points="547.5,-6 547.5,-36 670.5,-36 670.5,-6 547.5,-6"/>
<text text-anchor="start" x="555.5" y="-24" font-family="Helvetica,sans-Serif" font-size="10.00">include/instructions</text>
<text text-anchor="middle" x="609" y="-13" font-family="Helvetica,sans-Serif" font-size="10.00">/instruction_set/double.h</text>
</a>
</g>
</g>
<!-- Node1&#45;&gt;Node6 -->
<g id="edge5" class="edge"><title>Node1&#45;&gt;Node6</title>
<path fill="none" stroke="midnightblue" d="M893.164,-83.0632C837.207,-73.9731 752.082,-59.1082 679,-42 671.493,-40.2427 663.589,-38.1872 655.904,-36.0756"/>
<polygon fill="midnightblue" stroke="midnightblue" points="892.834,-86.5551 903.264,-84.6925 893.949,-79.6444 892.834,-86.5551"/>
</g>
<!-- Node7 -->
<g id="node7" class="node"><title>Node7</title>
<g id="a_node7"><a xlink:href="../../d7/dab/float_8h.xhtml" target="_top" xlink:title=" ">
<polygon fill="none" stroke="black" points="688.5,-6 688.5,-36 801.5,-36 801.5,-6 688.5,-6"/>
<text text-anchor="start" x="696.5" y="-24" font-family="Helvetica,sans-Serif" font-size="10.00">include/instructions</text>
<text text-anchor="middle" x="745" y="-13" font-family="Helvetica,sans-Serif" font-size="10.00">/instruction_set/float.h</text>
</a>
</g>
</g>
<!-- Node1&#45;&gt;Node7 -->
<g id="edge6" class="edge"><title>Node1&#45;&gt;Node7</title>
<path fill="none" stroke="midnightblue" d="M902.727,-75.2046C867.093,-63.1843 820.193,-47.3642 786.82,-36.1069"/>
<polygon fill="midnightblue" stroke="midnightblue" points="901.864,-78.6073 912.458,-78.4872 904.102,-71.9744 901.864,-78.6073"/>
</g>
<!-- Node8 -->
<g id="node8" class="node"><title>Node8</title>
<g id="a_node8"><a xlink:href="../../d6/d3d/integer_8h.xhtml" target="_top" xlink:title=" ">
<polygon fill="none" stroke="black" points="820,-6 820,-36 944,-36 944,-6 820,-6"/>
<text text-anchor="start" x="828" y="-24" font-family="Helvetica,sans-Serif" font-size="10.00">include/instructions</text>
<text text-anchor="middle" x="882" y="-13" font-family="Helvetica,sans-Serif" font-size="10.00">/instruction_set/integer.h</text>
</a>
</g>
</g>
<!-- Node1&#45;&gt;Node8 -->
<g id="edge7" class="edge"><title>Node1&#45;&gt;Node8</title>
<path fill="none" stroke="midnightblue" d="M932.235,-71.188C920.679,-59.8729 906.791,-46.2741 896.549,-36.2455"/>
<polygon fill="midnightblue" stroke="midnightblue" points="929.836,-73.7378 939.43,-78.2333 934.733,-68.7362 929.836,-73.7378"/>
</g>
<!-- Node9 -->
<g id="node9" class="node"><title>Node9</title>
<g id="a_node9"><a xlink:href="../../de/d3b/invokes_8h.xhtml" target="_top" xlink:title=" ">
<polygon fill="none" stroke="black" points="962.5,-6 962.5,-36 1089.5,-36 1089.5,-6 962.5,-6"/>
<text text-anchor="start" x="970.5" y="-24" font-family="Helvetica,sans-Serif" font-size="10.00">include/instructions</text>
<text text-anchor="middle" x="1026" y="-13" font-family="Helvetica,sans-Serif" font-size="10.00">/instruction_set/invokes.h</text>
</a>
</g>
</g>
<!-- Node1&#45;&gt;Node9 -->
<g id="edge8" class="edge"><title>Node1&#45;&gt;Node9</title>
<path fill="none" stroke="midnightblue" d="M975.765,-71.188C987.321,-59.8729 1001.21,-46.2741 1011.45,-36.2455"/>
<polygon fill="midnightblue" stroke="midnightblue" points="973.267,-68.7362 968.57,-78.2333 978.164,-73.7378 973.267,-68.7362"/>
</g>
<!-- Node10 -->
<g id="node10" class="node"><title>Node10</title>
<g id="a_node10"><a xlink:href="../../dd/d28/jump_8h.xhtml" target="_top" xlink:title=" ">
<polygon fill="none" stroke="black" points="1108,-6 1108,-36 1224,-36 1224,-6 1108,-6"/>
<text text-anchor="start" x="1116" y="-24" font-family="Helvetica,sans-Serif" font-size="10.00">include/instructions</text>
<text text-anchor="middle" x="1166" y="-13" font-family="Helvetica,sans-Serif" font-size="10.00">/instruction_set/jump.h</text>
</a>
</g>
</g>
<!-- Node1&#45;&gt;Node10 -->
<g id="edge9" class="edge"><title>Node1&#45;&gt;Node10</title>
<path fill="none" stroke="midnightblue" d="M1006.01,-75.2046C1042.15,-63.1843 1089.73,-47.3642 1123.58,-36.1069"/>
<polygon fill="midnightblue" stroke="midnightblue" points="1004.52,-72.0104 996.138,-78.4872 1006.73,-78.6527 1004.52,-72.0104"/>
</g>
<!-- Node11 -->
<g id="node11" class="node"><title>Node11</title>
<g id="a_node11"><a xlink:href="../../dc/da6/long_8h.xhtml" target="_top" xlink:title=" ">
<polygon fill="none" stroke="black" points="1242.5,-6 1242.5,-36 1355.5,-36 1355.5,-6 1242.5,-6"/>
<text text-anchor="start" x="1250.5" y="-24" font-family="Helvetica,sans-Serif" font-size="10.00">include/instructions</text>
<text text-anchor="middle" x="1299" y="-13" font-family="Helvetica,sans-Serif" font-size="10.00">/instruction_set/long.h</text>
</a>
</g>
</g>
<!-- Node1&#45;&gt;Node11 -->
<g id="edge10" class="edge"><title>Node1&#45;&gt;Node11</title>
<path fill="none" stroke="midnightblue" d="M1014.4,-83.6256C1071.2,-74.7967 1158.4,-59.9906 1233,-42 1240.22,-40.2597 1247.81,-38.1892 1255.17,-36.0506"/>
<polygon fill="midnightblue" stroke="midnightblue" points="1013.86,-80.1677 1004.51,-85.1506 1014.93,-87.086 1013.86,-80.1677"/>
</g>
<!-- Node12 -->
<g id="node12" class="node"><title>Node12</title>
<g id="a_node12"><a xlink:href="../../d4/d08/misc_8h.xhtml" target="_top" xlink:title=" ">
<polygon fill="none" stroke="black" points="1374,-6 1374,-36 1490,-36 1490,-6 1374,-6"/>
<text text-anchor="start" x="1382" y="-24" font-family="Helvetica,sans-Serif" font-size="10.00">include/instructions</text>
<text text-anchor="middle" x="1432" y="-13" font-family="Helvetica,sans-Serif" font-size="10.00">/instruction_set/misc.h</text>
</a>
</g>
</g>
<!-- Node1&#45;&gt;Node12 -->
<g id="edge11" class="edge"><title>Node1&#45;&gt;Node12</title>
<path fill="none" stroke="midnightblue" d="M1014.73,-88.2428C1095.39,-81.8603 1242.01,-67.7218 1365,-42 1372.72,-40.3847 1380.84,-38.3003 1388.66,-36.0892"/>
<polygon fill="midnightblue" stroke="midnightblue" points="1014.45,-84.7541 1004.75,-89.0195 1014.99,-91.733 1014.45,-84.7541"/>
</g>
<!-- Node13 -->
<g id="node13" class="node"><title>Node13</title>
<g id="a_node13"><a xlink:href="../../d5/d60/monitor_8h.xhtml" target="_top" xlink:title=" ">
<polygon fill="none" stroke="black" points="1508.5,-6 1508.5,-36 1635.5,-36 1635.5,-6 1508.5,-6"/>
<text text-anchor="start" x="1516.5" y="-24" font-family="Helvetica,sans-Serif" font-size="10.00">include/instructions</text>
<text text-anchor="middle" x="1572" y="-13" font-family="Helvetica,sans-Serif" font-size="10.00">/instruction_set/monitor.h</text>
</a>
</g>
</g>
<!-- Node1&#45;&gt;Node13 -->
<g id="edge12" class="edge"><title>Node1&#45;&gt;Node13</title>
<path fill="none" stroke="midnightblue" d="M1014.78,-90.3389C1115.96,-85.9682 1325.01,-73.644 1499,-42 1507.66,-40.4246 1516.79,-38.3039 1525.55,-36.0312"/>
<polygon fill="midnightblue" stroke="midnightblue" points="1014.59,-86.8438 1004.74,-90.7616 1014.88,-93.8377 1014.59,-86.8438"/>
</g>
<!-- Node14 -->
<g id="node14" class="node"><title>Node14</title>
<g id="a_node14"><a xlink:href="../../d1/d70/reference_8h.xhtml" target="_top" xlink:title=" ">
<polygon fill="none" stroke="black" points="1654,-6 1654,-36 1788,-36 1788,-6 1654,-6"/>
<text text-anchor="start" x="1662" y="-24" font-family="Helvetica,sans-Serif" font-size="10.00">include/instructions</text>
<text text-anchor="middle" x="1721" y="-13" font-family="Helvetica,sans-Serif" font-size="10.00">/instruction_set/reference.h</text>
</a>
</g>
</g>
<!-- Node1&#45;&gt;Node14 -->
<g id="edge13" class="edge"><title>Node1&#45;&gt;Node14</title>
<path fill="none" stroke="midnightblue" d="M1014.83,-91.8101C1135.72,-89.6139 1414.42,-80.4271 1645,-42 1654.15,-40.4749 1663.8,-38.3488 1673.04,-36.0487"/>
<polygon fill="midnightblue" stroke="midnightblue" points="1014.6,-88.3134 1004.66,-91.9849 1014.72,-95.3123 1014.6,-88.3134"/>
</g>
<!-- Node15 -->
<g id="node15" class="node"><title>Node15</title>
<g id="a_node15"><a xlink:href="../../de/d05/short_8h.xhtml" target="_top" xlink:title=" ">
<polygon fill="none" stroke="black" points="1806,-6 1806,-36 1922,-36 1922,-6 1806,-6"/>
<text text-anchor="start" x="1814" y="-24" font-family="Helvetica,sans-Serif" font-size="10.00">include/instructions</text>
<text text-anchor="middle" x="1864" y="-13" font-family="Helvetica,sans-Serif" font-size="10.00">/instruction_set/short.h</text>
</a>
</g>
</g>
<!-- Node1&#45;&gt;Node15 -->
<g id="edge14" class="edge"><title>Node1&#45;&gt;Node15</title>
<path fill="none" stroke="midnightblue" d="M1014.73,-90.6781C1181.91,-85.3732 1646.48,-68.6073 1797,-42 1805.25,-40.542 1813.92,-38.417 1822.18,-36.0905"/>
<polygon fill="midnightblue" stroke="midnightblue" points="1014.51,-87.1831 1004.62,-90.9962 1014.73,-94.1797 1014.51,-87.1831"/>
</g>
</g>
</svg>
