<?xml version="1.0" encoding="UTF-8" standalone="no"?>
<!DOCTYPE svg PUBLIC "-//W3C//DTD SVG 1.1//EN"
 "http://www.w3.org/Graphics/SVG/1.1/DTD/svg11.dtd">
<!-- Generated by graphviz version 2.38.0 (20140413.2041)
 -->
<!-- Title: include/utils/external/nlohmann_json.hpp Pages: 1 -->
<svg width="1060pt" height="285pt"
 viewBox="0.00 0.00 1060.00 285.00" xmlns="http://www.w3.org/2000/svg" xmlns:xlink="http://www.w3.org/1999/xlink">
<g id="graph0" class="graph" transform="scale(1 1) rotate(0) translate(4 281)">
<title>include/utils/external/nlohmann_json.hpp</title>
<!-- Node1 -->
<g id="node1" class="node"><title>Node1</title>
<g id="a_node1"><a xlink:title=" ">
<polygon fill="#bfbfbf" stroke="black" points="673,-246.5 673,-276.5 779,-276.5 779,-246.5 673,-246.5"/>
<text text-anchor="start" x="681" y="-264.5" font-family="Helvetica,sans-Serif" font-size="10.00">include/utils/external</text>
<text text-anchor="middle" x="726" y="-253.5" font-family="Helvetica,sans-Serif" font-size="10.00">/nlohmann_json.hpp</text>
</a>
</g>
</g>
<!-- Node2 -->
<g id="node2" class="node"><title>Node2</title>
<g id="a_node2"><a xlink:href="../../d4/db4/classfile_8h.xhtml" target="_top" xlink:title=" ">
<polygon fill="none" stroke="black" points="489,-190.5 489,-209.5 583,-209.5 583,-190.5 489,-190.5"/>
<text text-anchor="middle" x="536" y="-197.5" font-family="Helvetica,sans-Serif" font-size="10.00">include/classfile.h</text>
</a>
</g>
</g>
<!-- Node1&#45;&gt;Node2 -->
<g id="edge1" class="edge"><title>Node1&#45;&gt;Node2</title>
<path fill="none" stroke="midnightblue" d="M671.267,-243.36C635.924,-232.292 591.456,-218.367 563.369,-209.571"/>
<polygon fill="midnightblue" stroke="midnightblue" points="670.384,-246.751 680.973,-246.399 672.476,-240.071 670.384,-246.751"/>
</g>
<!-- Node7 -->
<g id="node7" class="node"><title>Node7</title>
<g id="a_node7"><a xlink:href="../../d8/d07/attribute_serializer_8h.xhtml" target="_top" xlink:title=" ">
<polygon fill="none" stroke="black" points="0,-123.5 0,-153.5 116,-153.5 116,-123.5 0,-123.5"/>
<text text-anchor="start" x="8" y="-141.5" font-family="Helvetica,sans-Serif" font-size="10.00">include/utils/serializers</text>
<text text-anchor="middle" x="58" y="-130.5" font-family="Helvetica,sans-Serif" font-size="10.00">/attributeSerializer.h</text>
</a>
</g>
</g>
<!-- Node1&#45;&gt;Node7 -->
<g id="edge15" class="edge"><title>Node1&#45;&gt;Node7</title>
<path fill="none" stroke="midnightblue" d="M662.911,-250.126C553.28,-231.919 320.601,-192.482 125,-154 122.081,-153.426 119.093,-152.825 116.077,-152.209"/>
<polygon fill="midnightblue" stroke="midnightblue" points="662.376,-253.585 672.814,-251.768 663.521,-246.679 662.376,-253.585"/>
</g>
<!-- Node9 -->
<g id="node9" class="node"><title>Node9</title>
<g id="a_node9"><a xlink:href="../../d2/dbc/constpool_serializer_8h.xhtml" target="_top" xlink:title=" ">
<polygon fill="none" stroke="black" points="668,-123.5 668,-153.5 784,-153.5 784,-123.5 668,-123.5"/>
<text text-anchor="start" x="676" y="-141.5" font-family="Helvetica,sans-Serif" font-size="10.00">include/utils/serializers</text>
<text text-anchor="middle" x="726" y="-130.5" font-family="Helvetica,sans-Serif" font-size="10.00">/constpoolSerializer.h</text>
</a>
</g>
</g>
<!-- Node1&#45;&gt;Node9 -->
<g id="edge16" class="edge"><title>Node1&#45;&gt;Node9</title>
<path fill="none" stroke="midnightblue" d="M726,-236.116C726,-211.437 726,-174.112 726,-153.837"/>
<polygon fill="midnightblue" stroke="midnightblue" points="722.5,-236.145 726,-246.145 729.5,-236.145 722.5,-236.145"/>
</g>
<!-- Node11 -->
<g id="node11" class="node"><title>Node11</title>
<g id="a_node11"><a xlink:href="../../d0/dfa/field_serializer_8h.xhtml" target="_top" xlink:title=" ">
<polygon fill="none" stroke="black" points="802,-123.5 802,-153.5 918,-153.5 918,-123.5 802,-123.5"/>
<text text-anchor="start" x="810" y="-141.5" font-family="Helvetica,sans-Serif" font-size="10.00">include/utils/serializers</text>
<text text-anchor="middle" x="860" y="-130.5" font-family="Helvetica,sans-Serif" font-size="10.00">/fieldSerializer.h</text>
</a>
</g>
</g>
<!-- Node1&#45;&gt;Node11 -->
<g id="edge17" class="edge"><title>Node1&#45;&gt;Node11</title>
<path fill="none" stroke="midnightblue" d="M749.172,-239.576C776.459,-214.937 821.025,-174.694 844.466,-153.527"/>
<polygon fill="midnightblue" stroke="midnightblue" points="746.71,-237.083 741.634,-246.383 751.401,-242.279 746.71,-237.083"/>
</g>
<!-- Node12 -->
<g id="node12" class="node"><title>Node12</title>
<g id="a_node12"><a xlink:href="../../de/df9/method_serializer_8h.xhtml" target="_top" xlink:title=" ">
<polygon fill="none" stroke="black" points="936,-123.5 936,-153.5 1052,-153.5 1052,-123.5 936,-123.5"/>
<text text-anchor="start" x="944" y="-141.5" font-family="Helvetica,sans-Serif" font-size="10.00">include/utils/serializers</text>
<text text-anchor="middle" x="994" y="-130.5" font-family="Helvetica,sans-Serif" font-size="10.00">/methodSerializer.h</text>
</a>
</g>
</g>
<!-- Node1&#45;&gt;Node12 -->
<g id="edge18" class="edge"><title>Node1&#45;&gt;Node12</title>
<path fill="none" stroke="midnightblue" d="M766.514,-242.208C820.358,-217.898 914.339,-175.466 962.932,-153.527"/>
<polygon fill="midnightblue" stroke="midnightblue" points="764.941,-239.078 757.268,-246.383 767.822,-245.458 764.941,-239.078"/>
</g>
<!-- Node3 -->
<g id="node3" class="node"><title>Node3</title>
<g id="a_node3"><a xlink:href="../../df/d50/method__area_8h.xhtml" target="_top" xlink:title=" ">
<polygon fill="none" stroke="black" points="165.5,-56.5 165.5,-86.5 278.5,-86.5 278.5,-56.5 165.5,-56.5"/>
<text text-anchor="start" x="173.5" y="-74.5" font-family="Helvetica,sans-Serif" font-size="10.00">include/utils/memory</text>
<text text-anchor="middle" x="222" y="-63.5" font-family="Helvetica,sans-Serif" font-size="10.00">_areas/method_area.h</text>
</a>
</g>
</g>
<!-- Node2&#45;&gt;Node3 -->
<g id="edge2" class="edge"><title>Node2&#45;&gt;Node3</title>
<path fill="none" stroke="midnightblue" d="M478.821,-194.113C413.473,-187.65 311.371,-174.608 279,-154 253.365,-137.68 236.037,-105.279 227.71,-86.6214"/>
<polygon fill="midnightblue" stroke="midnightblue" points="478.687,-197.616 488.977,-195.094 479.36,-190.648 478.687,-197.616"/>
</g>
<!-- Node5 -->
<g id="node5" class="node"><title>Node5</title>
<g id="a_node5"><a xlink:href="../../d6/dda/reader_8h.xhtml" target="_top" xlink:title=" ">
<polygon fill="none" stroke="black" points="288,-129 288,-148 374,-148 374,-129 288,-129"/>
<text text-anchor="middle" x="331" y="-136" font-family="Helvetica,sans-Serif" font-size="10.00">include/reader.h</text>
</a>
</g>
</g>
<!-- Node2&#45;&gt;Node5 -->
<g id="edge4" class="edge"><title>Node2&#45;&gt;Node5</title>
<path fill="none" stroke="midnightblue" d="M496.984,-187.676C457.151,-176.114 396.218,-158.429 360.317,-148.009"/>
<polygon fill="midnightblue" stroke="midnightblue" points="496.049,-191.049 506.628,-190.475 498,-184.326 496.049,-191.049"/>
</g>
<!-- Node6 -->
<g id="node6" class="node"><title>Node6</title>
<g id="a_node6"><a xlink:href="../../d8/df4/helper__functions_8h.xhtml" target="_top" xlink:title=" ">
<polygon fill="none" stroke="black" points="134,-123.5 134,-153.5 232,-153.5 232,-123.5 134,-123.5"/>
<text text-anchor="start" x="142" y="-141.5" font-family="Helvetica,sans-Serif" font-size="10.00">include/utils/helper</text>
<text text-anchor="middle" x="183" y="-130.5" font-family="Helvetica,sans-Serif" font-size="10.00">_functions.h</text>
</a>
</g>
</g>
<!-- Node2&#45;&gt;Node6 -->
<g id="edge5" class="edge"><title>Node2&#45;&gt;Node6</title>
<path fill="none" stroke="midnightblue" d="M478.68,-191.352C420.028,-183.234 326.355,-169.461 246,-154 241.481,-153.131 236.794,-152.168 232.108,-151.164"/>
<polygon fill="midnightblue" stroke="midnightblue" points="478.472,-194.856 488.856,-192.752 479.426,-187.921 478.472,-194.856"/>
</g>
<!-- Node2&#45;&gt;Node7 -->
<g id="edge7" class="edge"><title>Node2&#45;&gt;Node7</title>
<path fill="none" stroke="midnightblue" d="M478.634,-194.616C398.96,-188.097 250.443,-174.385 125,-154 122.063,-153.523 119.061,-153 116.034,-152.446"/>
<polygon fill="midnightblue" stroke="midnightblue" points="478.691,-198.132 488.941,-195.451 479.256,-191.155 478.691,-198.132"/>
</g>
<!-- Node8 -->
<g id="node8" class="node"><title>Node8</title>
<g id="a_node8"><a xlink:href="../../da/d13/classfile_serializer_8h.xhtml" target="_top" xlink:title=" ">
<polygon fill="none" stroke="black" points="392,-123.5 392,-153.5 508,-153.5 508,-123.5 392,-123.5"/>
<text text-anchor="start" x="400" y="-141.5" font-family="Helvetica,sans-Serif" font-size="10.00">include/utils/serializers</text>
<text text-anchor="middle" x="450" y="-130.5" font-family="Helvetica,sans-Serif" font-size="10.00">/classfileSerializer.h</text>
</a>
</g>
</g>
<!-- Node2&#45;&gt;Node8 -->
<g id="edge8" class="edge"><title>Node2&#45;&gt;Node8</title>
<path fill="none" stroke="midnightblue" d="M515.387,-184.739C501.719,-175.282 483.866,-162.93 470.268,-153.523"/>
<polygon fill="midnightblue" stroke="midnightblue" points="513.463,-187.664 523.678,-190.475 517.446,-181.907 513.463,-187.664"/>
</g>
<!-- Node2&#45;&gt;Node9 -->
<g id="edge9" class="edge"><title>Node2&#45;&gt;Node9</title>
<path fill="none" stroke="midnightblue" d="M572.776,-187.483C603.754,-177.782 648.176,-163.871 681.221,-153.523"/>
<polygon fill="midnightblue" stroke="midnightblue" points="571.719,-184.147 563.222,-190.475 573.811,-190.827 571.719,-184.147"/>
</g>
<!-- Node10 -->
<g id="node10" class="node"><title>Node10</title>
<g id="a_node10"><a xlink:href="../../d8/d6c/instruction_serializer_8h.xhtml" target="_top" xlink:title=" ">
<polygon fill="none" stroke="black" points="573,-56.5 573,-86.5 689,-86.5 689,-56.5 573,-56.5"/>
<text text-anchor="start" x="581" y="-74.5" font-family="Helvetica,sans-Serif" font-size="10.00">include/utils/serializers</text>
<text text-anchor="middle" x="631" y="-63.5" font-family="Helvetica,sans-Serif" font-size="10.00">/instructionSerializer.h</text>
</a>
</g>
</g>
<!-- Node2&#45;&gt;Node10 -->
<g id="edge12" class="edge"><title>Node2&#45;&gt;Node10</title>
<path fill="none" stroke="midnightblue" d="M536.933,-180.167C538.572,-163.749 543.02,-139.973 555,-123 566.145,-107.21 583.928,-95.0011 599.491,-86.5456"/>
<polygon fill="midnightblue" stroke="midnightblue" points="533.439,-179.952 536.189,-190.183 540.42,-180.47 533.439,-179.952"/>
</g>
<!-- Node2&#45;&gt;Node11 -->
<g id="edge11" class="edge"><title>Node2&#45;&gt;Node11</title>
<path fill="none" stroke="midnightblue" d="M593.06,-189.678C645.22,-180.998 724.444,-167.415 793,-154 795.92,-153.429 798.909,-152.831 801.925,-152.217"/>
<polygon fill="midnightblue" stroke="midnightblue" points="592.292,-186.257 583,-191.347 593.438,-193.163 592.292,-186.257"/>
</g>
<!-- Node2&#45;&gt;Node12 -->
<g id="edge13" class="edge"><title>Node2&#45;&gt;Node12</title>
<path fill="none" stroke="midnightblue" d="M593.518,-194.168C669.981,-187.337 809.173,-173.482 927,-154 929.935,-153.515 932.937,-152.986 935.962,-152.427"/>
<polygon fill="midnightblue" stroke="midnightblue" points="592.807,-190.717 583.154,-195.085 593.424,-197.69 592.807,-190.717"/>
</g>
<!-- Node13 -->
<g id="node13" class="node"><title>Node13</title>
<g id="a_node13"><a xlink:href="../../dc/dba/viewer_8h.xhtml" target="_top" xlink:title=" ">
<polygon fill="none" stroke="black" points="564.5,-129 564.5,-148 649.5,-148 649.5,-129 564.5,-129"/>
<text text-anchor="middle" x="607" y="-136" font-family="Helvetica,sans-Serif" font-size="10.00">include/viewer.h</text>
</a>
</g>
</g>
<!-- Node2&#45;&gt;Node13 -->
<g id="edge14" class="edge"><title>Node2&#45;&gt;Node13</title>
<path fill="none" stroke="midnightblue" d="M553.932,-183.973C567.511,-172.593 585.677,-157.369 596.846,-148.009"/>
<polygon fill="midnightblue" stroke="midnightblue" points="551.589,-181.369 546.173,-190.475 556.085,-186.735 551.589,-181.369"/>
</g>
<!-- Node4 -->
<g id="node4" class="node"><title>Node4</title>
<g id="a_node4"><a xlink:href="../../d3/d97/interpreter_8h.xhtml" target="_top" xlink:title=" ">
<polygon fill="none" stroke="black" points="171,-0.5 171,-19.5 273,-19.5 273,-0.5 171,-0.5"/>
<text text-anchor="middle" x="222" y="-7.5" font-family="Helvetica,sans-Serif" font-size="10.00">include/interpreter.h</text>
</a>
</g>
</g>
<!-- Node3&#45;&gt;Node4 -->
<g id="edge3" class="edge"><title>Node3&#45;&gt;Node4</title>
<path fill="none" stroke="midnightblue" d="M222,-46.2892C222,-36.857 222,-26.6548 222,-19.6578"/>
<polygon fill="midnightblue" stroke="midnightblue" points="218.5,-46.3993 222,-56.3993 225.5,-46.3994 218.5,-46.3993"/>
</g>
<!-- Node6&#45;&gt;Node3 -->
<g id="edge6" class="edge"><title>Node6&#45;&gt;Node3</title>
<path fill="none" stroke="midnightblue" d="M196.755,-114.576C202.356,-105.241 208.651,-94.7483 213.554,-86.5765"/>
<polygon fill="midnightblue" stroke="midnightblue" points="193.606,-113.02 191.462,-123.396 199.609,-116.622 193.606,-113.02"/>
</g>
<!-- Node9&#45;&gt;Node10 -->
<g id="edge10" class="edge"><title>Node9&#45;&gt;Node10</title>
<path fill="none" stroke="midnightblue" d="M697.111,-117.734C682.41,-107.676 664.885,-95.6847 651.573,-86.5765"/>
<polygon fill="midnightblue" stroke="midnightblue" points="695.157,-120.638 705.386,-123.396 699.11,-114.861 695.157,-120.638"/>
</g>
</g>
</svg>
