<?xml version="1.0" encoding="UTF-8" standalone="no"?>
<!DOCTYPE svg PUBLIC "-//W3C//DTD SVG 1.1//EN"
 "http://www.w3.org/Graphics/SVG/1.1/DTD/svg11.dtd">
<!-- Generated by graphviz version 2.38.0 (20140413.2041)
 -->
<!-- Title: Utils::ConstantPool::CONSTANT_FieldRef_info Pages: 1 -->
<svg width="158pt" height="375pt"
 viewBox="0.00 0.00 158.00 375.00" xmlns="http://www.w3.org/2000/svg" xmlns:xlink="http://www.w3.org/1999/xlink">
<g id="graph0" class="graph" transform="scale(1 1) rotate(0) translate(4 371)">
<title>Utils::ConstantPool::CONSTANT_FieldRef_info</title>
<!-- Node1 -->
<g id="node1" class="node"><title>Node1</title>
<g id="a_node1"><a xlink:title=" ">
<polygon fill="#bfbfbf" stroke="black" points="0,-0.5 0,-101.5 150,-101.5 150,-0.5 0,-0.5"/>
<text text-anchor="start" x="8" y="-89.5" font-family="Helvetica,sans-Serif" font-size="10.00">Utils::ConstantPool</text>
<text text-anchor="middle" x="75" y="-78.5" font-family="Helvetica,sans-Serif" font-size="10.00">::CONSTANT_FieldRef_info</text>
<polyline fill="none" stroke="black" points="0,-71.5 150,-71.5 "/>
<text text-anchor="middle" x="75" y="-59.5" font-family="Helvetica,sans-Serif" font-size="10.00"> </text>
<polyline fill="none" stroke="black" points="0,-52.5 150,-52.5 "/>
<text text-anchor="start" x="8" y="-40.5" font-family="Helvetica,sans-Serif" font-size="10.00">+ CONSTANT_FieldRef_info()</text>
<text text-anchor="start" x="8" y="-29.5" font-family="Helvetica,sans-Serif" font-size="10.00">+ ~CONSTANT_FieldRef_info()</text>
<text text-anchor="start" x="8" y="-18.5" font-family="Helvetica,sans-Serif" font-size="10.00">+ getValue()</text>
<text text-anchor="start" x="8" y="-7.5" font-family="Helvetica,sans-Serif" font-size="10.00">+ getGeneralInfo()</text>
</a>
</g>
</g>
<!-- Node2 -->
<g id="node2" class="node"><title>Node2</title>
<g id="a_node2"><a xlink:href="../../da/de3/class_utils_1_1_constant_pool_1_1_base_reference.xhtml" target="_top" xlink:title=" ">
<polygon fill="none" stroke="black" points="13.5,-138.5 13.5,-239.5 136.5,-239.5 136.5,-138.5 13.5,-138.5"/>
<text text-anchor="start" x="21.5" y="-227.5" font-family="Helvetica,sans-Serif" font-size="10.00">Utils::ConstantPool</text>
<text text-anchor="middle" x="75" y="-216.5" font-family="Helvetica,sans-Serif" font-size="10.00">::BaseReference</text>
<polyline fill="none" stroke="black" points="13.5,-209.5 136.5,-209.5 "/>
<text text-anchor="start" x="21.5" y="-197.5" font-family="Helvetica,sans-Serif" font-size="10.00">+ class_index</text>
<text text-anchor="start" x="21.5" y="-186.5" font-family="Helvetica,sans-Serif" font-size="10.00">+ name_and_type_index</text>
<polyline fill="none" stroke="black" points="13.5,-179.5 136.5,-179.5 "/>
<text text-anchor="start" x="21.5" y="-167.5" font-family="Helvetica,sans-Serif" font-size="10.00">+ BaseReference()</text>
<text text-anchor="start" x="21.5" y="-156.5" font-family="Helvetica,sans-Serif" font-size="10.00">+ getValue()</text>
<text text-anchor="start" x="21.5" y="-145.5" font-family="Helvetica,sans-Serif" font-size="10.00">+ getGeneralInfo()</text>
</a>
</g>
</g>
<!-- Node2&#45;&gt;Node1 -->
<g id="edge1" class="edge"><title>Node2&#45;&gt;Node1</title>
<path fill="none" stroke="midnightblue" d="M75,-128C75,-119.271 75,-110.363 75,-101.863"/>
<polygon fill="none" stroke="midnightblue" points="71.5001,-128.131 75,-138.131 78.5001,-128.131 71.5001,-128.131"/>
</g>
<!-- Node3 -->
<g id="node3" class="node"><title>Node3</title>
<g id="a_node3"><a xlink:href="../../d7/d7d/class_utils_1_1_constant_pool_1_1_base_constant_info.xhtml" target="_top" xlink:title=" ">
<polygon fill="none" stroke="black" points="18,-276.5 18,-366.5 132,-366.5 132,-276.5 18,-276.5"/>
<text text-anchor="start" x="26" y="-354.5" font-family="Helvetica,sans-Serif" font-size="10.00">Utils::ConstantPool</text>
<text text-anchor="middle" x="75" y="-343.5" font-family="Helvetica,sans-Serif" font-size="10.00">::BaseConstantInfo</text>
<polyline fill="none" stroke="black" points="18,-336.5 132,-336.5 "/>
<text text-anchor="start" x="26" y="-324.5" font-family="Helvetica,sans-Serif" font-size="10.00">+ tag</text>
<polyline fill="none" stroke="black" points="18,-317.5 132,-317.5 "/>
<text text-anchor="start" x="26" y="-305.5" font-family="Helvetica,sans-Serif" font-size="10.00">+ BaseConstantInfo()</text>
<text text-anchor="start" x="26" y="-294.5" font-family="Helvetica,sans-Serif" font-size="10.00">+ BaseConstantInfo()</text>
<text text-anchor="start" x="26" y="-283.5" font-family="Helvetica,sans-Serif" font-size="10.00">+ ~BaseConstantInfo()</text>
</a>
</g>
</g>
<!-- Node3&#45;&gt;Node2 -->
<g id="edge2" class="edge"><title>Node3&#45;&gt;Node2</title>
<path fill="none" stroke="midnightblue" d="M75,-266.131C75,-257.311 75,-248.219 75,-239.523"/>
<polygon fill="none" stroke="midnightblue" points="71.5001,-266.319 75,-276.319 78.5001,-266.319 71.5001,-266.319"/>
</g>
</g>
</svg>
