<?xml version="1.0" encoding="UTF-8" standalone="no"?>
<!DOCTYPE svg PUBLIC "-//W3C//DTD SVG 1.1//EN"
 "http://www.w3.org/Graphics/SVG/1.1/DTD/svg11.dtd">
<!-- Generated by graphviz version 2.38.0 (20140413.2041)
 -->
<!-- Title: include/utils/memory.h Pages: 1 -->
<svg width="228pt" height="140pt"
 viewBox="0.00 0.00 227.50 140.00" xmlns="http://www.w3.org/2000/svg" xmlns:xlink="http://www.w3.org/1999/xlink">
<g id="graph0" class="graph" transform="scale(1 1) rotate(0) translate(4 136)">
<title>include/utils/memory.h</title>
<!-- Node1 -->
<g id="node1" class="node"><title>Node1</title>
<g id="a_node1"><a xlink:title=" ">
<polygon fill="#bfbfbf" stroke="black" points="32.5,-112.5 32.5,-131.5 147.5,-131.5 147.5,-112.5 32.5,-112.5"/>
<text text-anchor="middle" x="90" y="-119.5" font-family="Helvetica,sans-Serif" font-size="10.00">include/utils/memory.h</text>
</a>
</g>
</g>
<!-- Node2 -->
<g id="node2" class="node"><title>Node2</title>
<g id="a_node2"><a xlink:title=" ">
<polygon fill="none" stroke="#bfbfbf" points="0,-56.5 0,-75.5 46,-75.5 46,-56.5 0,-56.5"/>
<text text-anchor="middle" x="23" y="-63.5" font-family="Helvetica,sans-Serif" font-size="10.00">cstring</text>
</a>
</g>
</g>
<!-- Node1&#45;&gt;Node2 -->
<g id="edge1" class="edge"><title>Node1&#45;&gt;Node2</title>
<path fill="none" stroke="midnightblue" d="M79.2353,-112.324C69.2339,-104.263 54.1135,-92.0765 42.0695,-82.3695"/>
<polygon fill="midnightblue" stroke="midnightblue" points="43.9429,-79.3841 33.9606,-75.8339 39.5502,-84.8343 43.9429,-79.3841"/>
</g>
<!-- Node3 -->
<g id="node3" class="node"><title>Node3</title>
<g id="a_node3"><a xlink:title=" ">
<polygon fill="none" stroke="#bfbfbf" points="64,-56.5 64,-75.5 116,-75.5 116,-56.5 64,-56.5"/>
<text text-anchor="middle" x="90" y="-63.5" font-family="Helvetica,sans-Serif" font-size="10.00">memory</text>
</a>
</g>
</g>
<!-- Node1&#45;&gt;Node3 -->
<g id="edge2" class="edge"><title>Node1&#45;&gt;Node3</title>
<path fill="none" stroke="midnightblue" d="M90,-112.083C90,-105.006 90,-94.8611 90,-85.9865"/>
<polygon fill="midnightblue" stroke="midnightblue" points="93.5001,-85.751 90,-75.7511 86.5001,-85.7511 93.5001,-85.751"/>
</g>
<!-- Node4 -->
<g id="node4" class="node"><title>Node4</title>
<g id="a_node4"><a xlink:href="../../de/d45/errors_8h.xhtml" target="_top" xlink:title=" ">
<polygon fill="none" stroke="black" points="134.5,-56.5 134.5,-75.5 205.5,-75.5 205.5,-56.5 134.5,-56.5"/>
<text text-anchor="middle" x="170" y="-63.5" font-family="Helvetica,sans-Serif" font-size="10.00">utils/errors.h</text>
</a>
</g>
</g>
<!-- Node1&#45;&gt;Node4 -->
<g id="edge3" class="edge"><title>Node1&#45;&gt;Node4</title>
<path fill="none" stroke="midnightblue" d="M102.853,-112.324C115.216,-103.979 134.13,-91.2122 148.737,-81.3524"/>
<polygon fill="midnightblue" stroke="midnightblue" points="150.848,-84.1503 157.179,-75.6545 146.932,-78.3483 150.848,-84.1503"/>
</g>
<!-- Node5 -->
<g id="node5" class="node"><title>Node5</title>
<g id="a_node5"><a xlink:title=" ">
<polygon fill="none" stroke="#bfbfbf" points="119.5,-0.5 119.5,-19.5 160.5,-19.5 160.5,-0.5 119.5,-0.5"/>
<text text-anchor="middle" x="140" y="-7.5" font-family="Helvetica,sans-Serif" font-size="10.00">stack</text>
</a>
</g>
</g>
<!-- Node4&#45;&gt;Node5 -->
<g id="edge4" class="edge"><title>Node4&#45;&gt;Node5</title>
<path fill="none" stroke="midnightblue" d="M165.046,-56.083C160.896,-48.6127 154.847,-37.7244 149.733,-28.5199"/>
<polygon fill="midnightblue" stroke="midnightblue" points="152.778,-26.7929 144.862,-19.7511 146.659,-30.1924 152.778,-26.7929"/>
</g>
<!-- Node6 -->
<g id="node6" class="node"><title>Node6</title>
<g id="a_node6"><a xlink:title=" ">
<polygon fill="none" stroke="#bfbfbf" points="178.5,-0.5 178.5,-19.5 219.5,-19.5 219.5,-0.5 178.5,-0.5"/>
<text text-anchor="middle" x="199" y="-7.5" font-family="Helvetica,sans-Serif" font-size="10.00">string</text>
</a>
</g>
</g>
<!-- Node4&#45;&gt;Node6 -->
<g id="edge5" class="edge"><title>Node4&#45;&gt;Node6</title>
<path fill="none" stroke="midnightblue" d="M174.789,-56.083C178.758,-48.6913 184.525,-37.9533 189.435,-28.8111"/>
<polygon fill="midnightblue" stroke="midnightblue" points="192.653,-30.217 194.3,-19.7511 186.486,-26.9051 192.653,-30.217"/>
</g>
</g>
</svg>
