<?xml version="1.0" encoding="UTF-8" standalone="no"?>
<!DOCTYPE svg PUBLIC "-//W3C//DTD SVG 1.1//EN"
 "http://www.w3.org/Graphics/SVG/1.1/DTD/svg11.dtd">
<!-- Generated by graphviz version 2.38.0 (20140413.2041)
 -->
<!-- Title: Utils::ConstantPool::CONSTANT_Long_info Pages: 1 -->
<svg width="144pt" height="248pt"
 viewBox="0.00 0.00 144.00 248.00" xmlns="http://www.w3.org/2000/svg" xmlns:xlink="http://www.w3.org/1999/xlink">
<g id="graph0" class="graph" transform="scale(1 1) rotate(0) translate(4 244)">
<title>Utils::ConstantPool::CONSTANT_Long_info</title>
<!-- Node1 -->
<g id="node1" class="node"><title>Node1</title>
<g id="a_node1"><a xlink:title=" ">
<polygon fill="#bfbfbf" stroke="black" points="0,-0.5 0,-112.5 136,-112.5 136,-0.5 0,-0.5"/>
<text text-anchor="start" x="8" y="-100.5" font-family="Helvetica,sans-Serif" font-size="10.00">Utils::ConstantPool</text>
<text text-anchor="middle" x="68" y="-89.5" font-family="Helvetica,sans-Serif" font-size="10.00">::CONSTANT_Long_info</text>
<polyline fill="none" stroke="black" points="0,-82.5 136,-82.5 "/>
<text text-anchor="start" x="8" y="-70.5" font-family="Helvetica,sans-Serif" font-size="10.00">+ high_bytes</text>
<text text-anchor="start" x="8" y="-59.5" font-family="Helvetica,sans-Serif" font-size="10.00">+ low_bytes</text>
<polyline fill="none" stroke="black" points="0,-52.5 136,-52.5 "/>
<text text-anchor="start" x="8" y="-40.5" font-family="Helvetica,sans-Serif" font-size="10.00">+ CONSTANT_Long_info()</text>
<text text-anchor="start" x="8" y="-29.5" font-family="Helvetica,sans-Serif" font-size="10.00">+ ~CONSTANT_Long_info()</text>
<text text-anchor="start" x="8" y="-18.5" font-family="Helvetica,sans-Serif" font-size="10.00">+ getValue()</text>
<text text-anchor="start" x="8" y="-7.5" font-family="Helvetica,sans-Serif" font-size="10.00">+ getGeneralInfo()</text>
</a>
</g>
</g>
<!-- Node2 -->
<g id="node2" class="node"><title>Node2</title>
<g id="a_node2"><a xlink:href="../../d7/d7d/class_utils_1_1_constant_pool_1_1_base_constant_info.xhtml" target="_top" xlink:title=" ">
<polygon fill="none" stroke="black" points="11,-149.5 11,-239.5 125,-239.5 125,-149.5 11,-149.5"/>
<text text-anchor="start" x="19" y="-227.5" font-family="Helvetica,sans-Serif" font-size="10.00">Utils::ConstantPool</text>
<text text-anchor="middle" x="68" y="-216.5" font-family="Helvetica,sans-Serif" font-size="10.00">::BaseConstantInfo</text>
<polyline fill="none" stroke="black" points="11,-209.5 125,-209.5 "/>
<text text-anchor="start" x="19" y="-197.5" font-family="Helvetica,sans-Serif" font-size="10.00">+ tag</text>
<polyline fill="none" stroke="black" points="11,-190.5 125,-190.5 "/>
<text text-anchor="start" x="19" y="-178.5" font-family="Helvetica,sans-Serif" font-size="10.00">+ BaseConstantInfo()</text>
<text text-anchor="start" x="19" y="-167.5" font-family="Helvetica,sans-Serif" font-size="10.00">+ BaseConstantInfo()</text>
<text text-anchor="start" x="19" y="-156.5" font-family="Helvetica,sans-Serif" font-size="10.00">+ ~BaseConstantInfo()</text>
</a>
</g>
</g>
<!-- Node2&#45;&gt;Node1 -->
<g id="edge1" class="edge"><title>Node2&#45;&gt;Node1</title>
<path fill="none" stroke="midnightblue" d="M68,-139.312C68,-130.611 68,-121.595 68,-112.867"/>
<polygon fill="none" stroke="midnightblue" points="64.5001,-139.345 68,-149.345 71.5001,-139.345 64.5001,-139.345"/>
</g>
</g>
</svg>
