<?xml version="1.0" encoding="UTF-8" standalone="no"?>
<!DOCTYPE svg PUBLIC "-//W3C//DTD SVG 1.1//EN"
 "http://www.w3.org/Graphics/SVG/1.1/DTD/svg11.dtd">
<!-- Generated by graphviz version 2.38.0 (20140413.2041)
 -->
<!-- Title: include/utils/memory_areas/heap.h Pages: 1 -->
<!--zoomable 453 -->
<svg id="main" version="1.1" xmlns="http://www.w3.org/2000/svg" xmlns:xlink="http://www.w3.org/1999/xlink" xml:space="preserve" onload="init(evt)">
<style type="text/css"><![CDATA[
.edge:hover path { stroke: red; }
.edge:hover polygon { stroke: red; fill: red; }
]]></style>
<script type="text/javascript"><![CDATA[
var edges = document.getElementsByTagName('g');
if (edges && edges.length) {
  for (var i=0;i<edges.length;i++) {
    if (edges[i].id.substr(0,4)=='edge') {
      edges[i].setAttribute('class','edge');
    }
  }
}
]]></script>
        <defs>
                <circle id="rim" cx="0" cy="0" r="7"/>
                <circle id="rim2" cx="0" cy="0" r="3.5"/>
                <g id="zoomPlus">
                        <use xlink:href="#rim" fill="#404040">
                                <set attributeName="fill" to="#808080" begin="zoomplus.mouseover" end="zoomplus.mouseout"/>
                        </use>
                        <path d="M-4,0h8M0,-4v8" fill="none" stroke="white" stroke-width="1.5" pointer-events="none"/>
                </g>
                <g id="zoomMin">
                        <use xlink:href="#rim" fill="#404040">
                                <set attributeName="fill" to="#808080" begin="zoomminus.mouseover" end="zoomminus.mouseout"/>
                        </use>
                        <path d="M-4,0h8" fill="none" stroke="white" stroke-width="1.5" pointer-events="none"/>
                </g>
                <g id="dirArrow">
                        <path fill="none" stroke="white" stroke-width="1.5" d="M0,-3.0v7 M-2.5,-0.5L0,-3.0L2.5,-0.5"/>
                </g>
               <g id="resetDef">
                       <use xlink:href="#rim2" fill="#404040">
                               <set attributeName="fill" to="#808080" begin="reset.mouseover" end="reset.mouseout"/>
                       </use>
               </g>
        </defs>

<script type="text/javascript">
var viewWidth = 911;
var viewHeight = 453;
var sectionId = 'dynsection-0';
</script>
<script xlink:href="../../svgpan.js"/>
<svg id="graph" class="graph">
<g id="viewport">
<title>include/utils/memory_areas/heap.h</title>
<!-- Node1 -->
<g id="node1" class="node"><title>Node1</title>
<g id="a_node1"><a xlink:title=" ">
<polygon fill="#bfbfbf" stroke="black" points="78.5,-414.5 78.5,-444.5 185.5,-444.5 185.5,-414.5 78.5,-414.5"/>
<text text-anchor="start" x="86.5" y="-432.5" font-family="Helvetica,sans-Serif" font-size="10.00">include/utils/memory</text>
<text text-anchor="middle" x="132" y="-421.5" font-family="Helvetica,sans-Serif" font-size="10.00">_areas/heap.h</text>
</a>
</g>
</g>
<!-- Node2 -->
<g id="node2" class="node"><title>Node2</title>
<g id="a_node2"><a xlink:title=" ">
<polygon fill="none" stroke="#bfbfbf" points="0,-353 0,-372 56,-372 56,-353 0,-353"/>
<text text-anchor="middle" x="28" y="-360" font-family="Helvetica,sans-Serif" font-size="10.00">algorithm</text>
</a>
</g>
</g>
<!-- Node1&#45;&gt;Node2 -->
<g id="edge1" class="edge"><title>Node1&#45;&gt;Node2</title>
<path fill="none" stroke="midnightblue" d="M109.434,-414.396C91.993,-403.496 67.9659,-388.479 50.5336,-377.584"/>
<polygon fill="midnightblue" stroke="midnightblue" points="51.9462,-374.339 41.6112,-372.007 48.2362,-380.275 51.9462,-374.339"/>
</g>
<!-- Node3 -->
<g id="node3" class="node"><title>Node3</title>
<g id="a_node3"><a xlink:title=" ">
<polygon fill="none" stroke="#bfbfbf" points="74.5,-353 74.5,-372 103.5,-372 103.5,-353 74.5,-353"/>
<text text-anchor="middle" x="89" y="-360" font-family="Helvetica,sans-Serif" font-size="10.00">list</text>
</a>
</g>
</g>
<!-- Node1&#45;&gt;Node3 -->
<g id="edge2" class="edge"><title>Node1&#45;&gt;Node3</title>
<path fill="none" stroke="midnightblue" d="M122.67,-414.396C116.098,-404.462 107.264,-391.108 100.294,-380.572"/>
<polygon fill="midnightblue" stroke="midnightblue" points="103.188,-378.604 94.7518,-372.195 97.3501,-382.466 103.188,-378.604"/>
</g>
<!-- Node4 -->
<g id="node4" class="node"><title>Node4</title>
<g id="a_node4"><a xlink:title=" ">
<polygon fill="none" stroke="#bfbfbf" points="187,-56.5 187,-75.5 229,-75.5 229,-56.5 187,-56.5"/>
<text text-anchor="middle" x="208" y="-63.5" font-family="Helvetica,sans-Serif" font-size="10.00">vector</text>
</a>
</g>
</g>
<!-- Node1&#45;&gt;Node4 -->
<g id="edge3" class="edge"><title>Node1&#45;&gt;Node4</title>
<path fill="none" stroke="midnightblue" d="M132,-414.241C132,-390.034 132,-339.354 132,-296.5 132,-296.5 132,-296.5 132,-177 132,-137.276 165.964,-101.504 188.482,-82.1536"/>
<polygon fill="midnightblue" stroke="midnightblue" points="190.976,-84.6337 196.457,-75.5672 186.518,-79.2364 190.976,-84.6337"/>
</g>
<!-- Node5 -->
<g id="node5" class="node"><title>Node5</title>
<g id="a_node5"><a xlink:href="../../db/dd5/thread_8h.xhtml" target="_top" xlink:title=" ">
<polygon fill="none" stroke="black" points="270,-347.5 270,-377.5 372,-377.5 372,-347.5 270,-347.5"/>
<text text-anchor="start" x="278" y="-365.5" font-family="Helvetica,sans-Serif" font-size="10.00">utils/memory_areas</text>
<text text-anchor="middle" x="321" y="-354.5" font-family="Helvetica,sans-Serif" font-size="10.00">/thread.h</text>
</a>
</g>
</g>
<!-- Node1&#45;&gt;Node5 -->
<g id="edge4" class="edge"><title>Node1&#45;&gt;Node5</title>
<path fill="none" stroke="midnightblue" d="M173.01,-414.396C201.616,-404.558 239.972,-391.367 270.467,-380.879"/>
<polygon fill="midnightblue" stroke="midnightblue" points="271.752,-384.139 280.07,-377.577 269.475,-377.519 271.752,-384.139"/>
</g>
<!-- Node20 -->
<g id="node20" class="node"><title>Node20</title>
<g id="a_node20"><a xlink:href="../../de/d10/object_8h.xhtml" target="_top" xlink:title=" ">
<polygon fill="none" stroke="black" points="629,-224.5 629,-243.5 701,-243.5 701,-224.5 629,-224.5"/>
<text text-anchor="middle" x="665" y="-231.5" font-family="Helvetica,sans-Serif" font-size="10.00">utils/object.h</text>
</a>
</g>
</g>
<!-- Node1&#45;&gt;Node20 -->
<g id="edge29" class="edge"><title>Node1&#45;&gt;Node20</title>
<path fill="none" stroke="midnightblue" d="M185.553,-421.849C236.733,-414.516 315.559,-400.655 381,-378 483.487,-342.52 595.935,-277.275 642.693,-248.848"/>
<polygon fill="midnightblue" stroke="midnightblue" points="644.697,-251.725 651.397,-243.519 641.041,-245.756 644.697,-251.725"/>
</g>
<!-- Node6 -->
<g id="node6" class="node"><title>Node6</title>
<g id="a_node6"><a xlink:href="../../dd/d7e/java__stack_8h.xhtml" target="_top" xlink:title=" ">
<polygon fill="none" stroke="black" points="327,-280.5 327,-310.5 429,-310.5 429,-280.5 327,-280.5"/>
<text text-anchor="start" x="335" y="-298.5" font-family="Helvetica,sans-Serif" font-size="10.00">utils/memory_areas</text>
<text text-anchor="middle" x="378" y="-287.5" font-family="Helvetica,sans-Serif" font-size="10.00">/java_stack.h</text>
</a>
</g>
</g>
<!-- Node5&#45;&gt;Node6 -->
<g id="edge5" class="edge"><title>Node5&#45;&gt;Node6</title>
<path fill="none" stroke="midnightblue" d="M333.368,-347.396C340.838,-338.878 350.511,-327.847 358.942,-318.233"/>
<polygon fill="midnightblue" stroke="midnightblue" points="361.694,-320.403 365.656,-310.577 356.431,-315.787 361.694,-320.403"/>
</g>
<!-- Node7 -->
<g id="node7" class="node"><title>Node7</title>
<g id="a_node7"><a xlink:title=" ">
<polygon fill="none" stroke="#bfbfbf" points="492.5,-112.5 492.5,-131.5 533.5,-131.5 533.5,-112.5 492.5,-112.5"/>
<text text-anchor="middle" x="513" y="-119.5" font-family="Helvetica,sans-Serif" font-size="10.00">stack</text>
</a>
</g>
</g>
<!-- Node6&#45;&gt;Node7 -->
<g id="edge6" class="edge"><title>Node6&#45;&gt;Node7</title>
<path fill="none" stroke="midnightblue" d="M401.047,-280.196C428.213,-262.108 472.724,-228.4 497,-188 505.511,-173.836 509.503,-155.354 511.371,-141.72"/>
<polygon fill="midnightblue" stroke="midnightblue" points="514.869,-141.934 512.493,-131.609 507.912,-141.162 514.869,-141.934"/>
</g>
<!-- Node8 -->
<g id="node8" class="node"><title>Node8</title>
<g id="a_node8"><a xlink:href="../../df/d7d/frame_8h.xhtml" target="_top" xlink:title=" ">
<polygon fill="none" stroke="black" points="343,-224.5 343,-243.5 413,-243.5 413,-224.5 343,-224.5"/>
<text text-anchor="middle" x="378" y="-231.5" font-family="Helvetica,sans-Serif" font-size="10.00">utils/frame.h</text>
</a>
</g>
</g>
<!-- Node6&#45;&gt;Node8 -->
<g id="edge7" class="edge"><title>Node6&#45;&gt;Node8</title>
<path fill="none" stroke="midnightblue" d="M378,-280.399C378,-272.466 378,-262.458 378,-253.858"/>
<polygon fill="midnightblue" stroke="midnightblue" points="381.5,-253.658 378,-243.658 374.5,-253.658 381.5,-253.658"/>
</g>
<!-- Node8&#45;&gt;Node4 -->
<g id="edge9" class="edge"><title>Node8&#45;&gt;Node4</title>
<path fill="none" stroke="midnightblue" d="M342.748,-228.321C315.311,-222.955 277.985,-211.624 254,-188 225.408,-159.838 214.322,-112.089 210.232,-85.7814"/>
<polygon fill="midnightblue" stroke="midnightblue" points="213.668,-85.0758 208.841,-75.6441 206.733,-86.027 213.668,-85.0758"/>
</g>
<!-- Node8&#45;&gt;Node7 -->
<g id="edge8" class="edge"><title>Node8&#45;&gt;Node7</title>
<path fill="none" stroke="midnightblue" d="M408.678,-224.412C429.572,-217.339 456.816,-205.583 476,-188 490.036,-175.136 500.131,-155.684 506.195,-141.412"/>
<polygon fill="midnightblue" stroke="midnightblue" points="509.613,-142.288 510.046,-131.702 503.106,-139.707 509.613,-142.288"/>
</g>
<!-- Node9 -->
<g id="node9" class="node"><title>Node9</title>
<g id="a_node9"><a xlink:href="../../d0/d36/constant_pool_8h.xhtml" target="_top" xlink:title=" ">
<polygon fill="none" stroke="black" points="274.5,-168.5 274.5,-187.5 377.5,-187.5 377.5,-168.5 274.5,-168.5"/>
<text text-anchor="middle" x="326" y="-175.5" font-family="Helvetica,sans-Serif" font-size="10.00">utils/constantPool.h</text>
</a>
</g>
</g>
<!-- Node8&#45;&gt;Node9 -->
<g id="edge10" class="edge"><title>Node8&#45;&gt;Node9</title>
<path fill="none" stroke="midnightblue" d="M369.413,-224.083C361.841,-216.22 350.622,-204.569 341.486,-195.081"/>
<polygon fill="midnightblue" stroke="midnightblue" points="343.885,-192.527 334.427,-187.751 338.842,-197.382 343.885,-192.527"/>
</g>
<!-- Node12 -->
<g id="node12" class="node"><title>Node12</title>
<g id="a_node12"><a xlink:href="../../d9/d49/types_8h.xhtml" target="_top" xlink:title=" ">
<polygon fill="none" stroke="black" points="284,-56.5 284,-75.5 354,-75.5 354,-56.5 284,-56.5"/>
<text text-anchor="middle" x="319" y="-63.5" font-family="Helvetica,sans-Serif" font-size="10.00">utils/types.h</text>
</a>
</g>
</g>
<!-- Node8&#45;&gt;Node12 -->
<g id="edge28" class="edge"><title>Node8&#45;&gt;Node12</title>
<path fill="none" stroke="midnightblue" d="M342.924,-229.348C316.624,-224.564 282.304,-213.516 265,-188 241.568,-153.447 278.498,-107.074 301.982,-83.0048"/>
<polygon fill="midnightblue" stroke="midnightblue" points="304.673,-85.266 309.324,-75.7466 299.752,-80.2879 304.673,-85.266"/>
</g>
<!-- Node14 -->
<g id="node14" class="node"><title>Node14</title>
<g id="a_node14"><a xlink:href="../../de/d45/errors_8h.xhtml" target="_top" xlink:title=" ">
<polygon fill="none" stroke="black" points="395.5,-168.5 395.5,-187.5 466.5,-187.5 466.5,-168.5 395.5,-168.5"/>
<text text-anchor="middle" x="431" y="-175.5" font-family="Helvetica,sans-Serif" font-size="10.00">utils/errors.h</text>
</a>
</g>
</g>
<!-- Node8&#45;&gt;Node14 -->
<g id="edge19" class="edge"><title>Node8&#45;&gt;Node14</title>
<path fill="none" stroke="midnightblue" d="M386.752,-224.083C394.47,-216.22 405.905,-204.569 415.217,-195.081"/>
<polygon fill="midnightblue" stroke="midnightblue" points="417.904,-197.34 422.411,-187.751 412.908,-192.436 417.904,-197.34"/>
</g>
<!-- Node15 -->
<g id="node15" class="node"><title>Node15</title>
<g id="a_node15"><a xlink:href="../../df/d8d/any_8h.xhtml" target="_top" xlink:title=" ">
<polygon fill="none" stroke="black" points="717.5,-112.5 717.5,-131.5 816.5,-131.5 816.5,-112.5 717.5,-112.5"/>
<text text-anchor="middle" x="767" y="-119.5" font-family="Helvetica,sans-Serif" font-size="10.00">utils/external/any.h</text>
</a>
</g>
</g>
<!-- Node8&#45;&gt;Node15 -->
<g id="edge22" class="edge"><title>Node8&#45;&gt;Node15</title>
<path fill="none" stroke="midnightblue" d="M413.157,-230.76C465.242,-226.631 565.427,-215.567 646,-188 683.048,-175.324 722.351,-152.167 745.774,-137.19"/>
<polygon fill="midnightblue" stroke="midnightblue" points="747.742,-140.085 754.22,-131.701 743.928,-134.216 747.742,-140.085"/>
</g>
<!-- Node9&#45;&gt;Node4 -->
<g id="edge12" class="edge"><title>Node9&#45;&gt;Node4</title>
<path fill="none" stroke="midnightblue" d="M316.741,-168.368C296.837,-149.814 249.743,-105.913 224.56,-82.4376"/>
<polygon fill="midnightblue" stroke="midnightblue" points="226.918,-79.8501 217.216,-75.5914 222.144,-84.9704 226.918,-79.8501"/>
</g>
<!-- Node10 -->
<g id="node10" class="node"><title>Node10</title>
<g id="a_node10"><a xlink:title=" ">
<polygon fill="none" stroke="#bfbfbf" points="443.5,-56.5 443.5,-75.5 484.5,-75.5 484.5,-56.5 443.5,-56.5"/>
<text text-anchor="middle" x="464" y="-63.5" font-family="Helvetica,sans-Serif" font-size="10.00">string</text>
</a>
</g>
</g>
<!-- Node9&#45;&gt;Node10 -->
<g id="edge11" class="edge"><title>Node9&#45;&gt;Node10</title>
<path fill="none" stroke="midnightblue" d="M345.821,-168.357C362.983,-160.341 387.971,-147.356 407,-132 424.438,-117.928 440.923,-98.1617 451.636,-84.1293"/>
<polygon fill="midnightblue" stroke="midnightblue" points="454.632,-85.9655 457.794,-75.8535 449.016,-81.7867 454.632,-85.9655"/>
</g>
<!-- Node11 -->
<g id="node11" class="node"><title>Node11</title>
<g id="a_node11"><a xlink:href="../../da/d6e/attributes_8h.xhtml" target="_top" xlink:title=" ">
<polygon fill="none" stroke="black" points="312,-112.5 312,-131.5 398,-131.5 398,-112.5 312,-112.5"/>
<text text-anchor="middle" x="355" y="-119.5" font-family="Helvetica,sans-Serif" font-size="10.00">utils/attributes.h</text>
</a>
</g>
</g>
<!-- Node9&#45;&gt;Node11 -->
<g id="edge13" class="edge"><title>Node9&#45;&gt;Node11</title>
<path fill="none" stroke="midnightblue" d="M330.789,-168.083C334.758,-160.691 340.525,-149.953 345.435,-140.811"/>
<polygon fill="midnightblue" stroke="midnightblue" points="348.653,-142.217 350.3,-131.751 342.486,-138.905 348.653,-142.217"/>
</g>
<!-- Node9&#45;&gt;Node12 -->
<g id="edge18" class="edge"><title>Node9&#45;&gt;Node12</title>
<path fill="none" stroke="midnightblue" d="M319.895,-168.191C314.245,-159.46 306.245,-145.478 303,-132 299.18,-116.131 304.367,-98.1087 309.829,-85.0732"/>
<polygon fill="midnightblue" stroke="midnightblue" points="313.085,-86.3705 314.101,-75.8244 306.73,-83.4353 313.085,-86.3705"/>
</g>
<!-- Node11&#45;&gt;Node4 -->
<g id="edge15" class="edge"><title>Node11&#45;&gt;Node4</title>
<path fill="none" stroke="midnightblue" d="M331.707,-112.444C306.616,-103.226 266.571,-88.5157 238.871,-78.3402"/>
<polygon fill="midnightblue" stroke="midnightblue" points="239.868,-74.978 229.274,-74.8151 237.454,-81.5487 239.868,-74.978"/>
</g>
<!-- Node11&#45;&gt;Node10 -->
<g id="edge14" class="edge"><title>Node11&#45;&gt;Node10</title>
<path fill="none" stroke="midnightblue" d="M372.513,-112.324C390.072,-103.625 417.331,-90.1202 437.531,-80.113"/>
<polygon fill="midnightblue" stroke="midnightblue" points="439.124,-83.23 446.531,-75.6545 436.016,-76.9575 439.124,-83.23"/>
</g>
<!-- Node11&#45;&gt;Node12 -->
<g id="edge16" class="edge"><title>Node11&#45;&gt;Node12</title>
<path fill="none" stroke="midnightblue" d="M349.055,-112.083C344.023,-104.534 336.663,-93.4948 330.487,-84.2298"/>
<polygon fill="midnightblue" stroke="midnightblue" points="333.293,-82.1301 324.834,-75.7511 327.469,-86.0131 333.293,-82.1301"/>
</g>
<!-- Node13 -->
<g id="node13" class="node"><title>Node13</title>
<g id="a_node13"><a xlink:title=" ">
<polygon fill="none" stroke="#bfbfbf" points="296,-0.5 296,-19.5 342,-19.5 342,-0.5 296,-0.5"/>
<text text-anchor="middle" x="319" y="-7.5" font-family="Helvetica,sans-Serif" font-size="10.00">cstdint</text>
</a>
</g>
</g>
<!-- Node12&#45;&gt;Node13 -->
<g id="edge17" class="edge"><title>Node12&#45;&gt;Node13</title>
<path fill="none" stroke="midnightblue" d="M319,-56.083C319,-49.0059 319,-38.8611 319,-29.9865"/>
<polygon fill="midnightblue" stroke="midnightblue" points="322.5,-29.751 319,-19.7511 315.5,-29.7511 322.5,-29.751"/>
</g>
<!-- Node14&#45;&gt;Node7 -->
<g id="edge20" class="edge"><title>Node14&#45;&gt;Node7</title>
<path fill="none" stroke="midnightblue" d="M444.175,-168.324C456.847,-159.979 476.233,-147.212 491.206,-137.352"/>
<polygon fill="midnightblue" stroke="midnightblue" points="493.431,-140.078 499.858,-131.655 489.581,-134.231 493.431,-140.078"/>
</g>
<!-- Node14&#45;&gt;Node10 -->
<g id="edge21" class="edge"><title>Node14&#45;&gt;Node10</title>
<path fill="none" stroke="midnightblue" d="M433.589,-168.368C438.939,-150.537 451.311,-109.295 458.518,-85.2717"/>
<polygon fill="midnightblue" stroke="midnightblue" points="461.901,-86.1754 461.423,-75.5914 455.197,-84.1639 461.901,-86.1754"/>
</g>
<!-- Node15&#45;&gt;Node10 -->
<g id="edge24" class="edge"><title>Node15&#45;&gt;Node10</title>
<path fill="none" stroke="midnightblue" d="M718.989,-112.444C656.074,-101.231 547.549,-81.89 494.702,-72.4717"/>
<polygon fill="midnightblue" stroke="midnightblue" points="495.065,-68.9812 484.606,-70.6723 493.837,-75.8726 495.065,-68.9812"/>
</g>
<!-- Node16 -->
<g id="node16" class="node"><title>Node16</title>
<g id="a_node16"><a xlink:title=" ">
<polygon fill="none" stroke="#bfbfbf" points="773.5,-56.5 773.5,-75.5 822.5,-75.5 822.5,-56.5 773.5,-56.5"/>
<text text-anchor="middle" x="798" y="-63.5" font-family="Helvetica,sans-Serif" font-size="10.00">cassert</text>
</a>
</g>
</g>
<!-- Node15&#45;&gt;Node16 -->
<g id="edge23" class="edge"><title>Node15&#45;&gt;Node16</title>
<path fill="none" stroke="midnightblue" d="M772.119,-112.083C776.408,-104.613 782.658,-93.7244 787.942,-84.5199"/>
<polygon fill="midnightblue" stroke="midnightblue" points="791.033,-86.1662 792.976,-75.7511 784.962,-82.6811 791.033,-86.1662"/>
</g>
<!-- Node17 -->
<g id="node17" class="node"><title>Node17</title>
<g id="a_node17"><a xlink:title=" ">
<polygon fill="none" stroke="#bfbfbf" points="841,-56.5 841,-75.5 903,-75.5 903,-56.5 841,-56.5"/>
<text text-anchor="middle" x="872" y="-63.5" font-family="Helvetica,sans-Serif" font-size="10.00">type_traits</text>
</a>
</g>
</g>
<!-- Node15&#45;&gt;Node17 -->
<g id="edge25" class="edge"><title>Node15&#45;&gt;Node17</title>
<path fill="none" stroke="midnightblue" d="M783.87,-112.324C800.709,-103.664 826.807,-90.2424 846.238,-80.249"/>
<polygon fill="midnightblue" stroke="midnightblue" points="847.88,-83.3405 855.172,-75.6545 844.678,-77.1155 847.88,-83.3405"/>
</g>
<!-- Node18 -->
<g id="node18" class="node"><title>Node18</title>
<g id="a_node18"><a xlink:title=" ">
<polygon fill="none" stroke="#bfbfbf" points="647,-56.5 647,-75.5 697,-75.5 697,-56.5 647,-56.5"/>
<text text-anchor="middle" x="672" y="-63.5" font-family="Helvetica,sans-Serif" font-size="10.00">typeinfo</text>
</a>
</g>
</g>
<!-- Node15&#45;&gt;Node18 -->
<g id="edge26" class="edge"><title>Node15&#45;&gt;Node18</title>
<path fill="none" stroke="midnightblue" d="M751.737,-112.324C736.779,-103.822 713.745,-90.7288 696.273,-80.7975"/>
<polygon fill="midnightblue" stroke="midnightblue" points="697.649,-77.5534 687.226,-75.6545 694.19,-83.639 697.649,-77.5534"/>
</g>
<!-- Node19 -->
<g id="node19" class="node"><title>Node19</title>
<g id="a_node19"><a xlink:title=" ">
<polygon fill="none" stroke="#bfbfbf" points="715,-56.5 715,-75.5 755,-75.5 755,-56.5 715,-56.5"/>
<text text-anchor="middle" x="735" y="-63.5" font-family="Helvetica,sans-Serif" font-size="10.00">utility</text>
</a>
</g>
</g>
<!-- Node15&#45;&gt;Node19 -->
<g id="edge27" class="edge"><title>Node15&#45;&gt;Node19</title>
<path fill="none" stroke="midnightblue" d="M761.716,-112.083C757.289,-104.613 750.837,-93.7244 745.382,-84.5199"/>
<polygon fill="midnightblue" stroke="midnightblue" points="748.295,-82.5697 740.186,-75.7511 742.273,-86.1383 748.295,-82.5697"/>
</g>
<!-- Node20&#45;&gt;Node15 -->
<g id="edge38" class="edge"><title>Node20&#45;&gt;Node15</title>
<path fill="none" stroke="midnightblue" d="M676.334,-224.296C687.279,-215.644 704.052,-201.717 717,-188 731.293,-172.858 745.573,-153.803 755.191,-140.248"/>
<polygon fill="midnightblue" stroke="midnightblue" points="758.194,-142.061 761.047,-131.857 752.454,-138.054 758.194,-142.061"/>
</g>
<!-- Node21 -->
<g id="node21" class="node"><title>Node21</title>
<g id="a_node21"><a xlink:title=" ">
<polygon fill="none" stroke="#bfbfbf" points="769,-168.5 769,-187.5 821,-187.5 821,-168.5 769,-168.5"/>
<text text-anchor="middle" x="795" y="-175.5" font-family="Helvetica,sans-Serif" font-size="10.00">ostream</text>
</a>
</g>
</g>
<!-- Node20&#45;&gt;Node21 -->
<g id="edge30" class="edge"><title>Node20&#45;&gt;Node21</title>
<path fill="none" stroke="midnightblue" d="M685.599,-224.444C706.993,-215.557 740.681,-201.563 765.024,-191.451"/>
<polygon fill="midnightblue" stroke="midnightblue" points="766.605,-194.585 774.497,-187.516 763.92,-188.12 766.605,-194.585"/>
</g>
<!-- Node22 -->
<g id="node22" class="node"><title>Node22</title>
<g id="a_node22"><a xlink:href="../../d4/df7/array__t_8h.xhtml" target="_top" xlink:title=" ">
<polygon fill="none" stroke="black" points="561,-168.5 561,-187.5 637,-187.5 637,-168.5 561,-168.5"/>
<text text-anchor="middle" x="599" y="-175.5" font-family="Helvetica,sans-Serif" font-size="10.00">utils/array_t.h</text>
</a>
</g>
</g>
<!-- Node20&#45;&gt;Node22 -->
<g id="edge31" class="edge"><title>Node20&#45;&gt;Node22</title>
<path fill="none" stroke="midnightblue" d="M654.396,-224.324C644.544,-216.263 629.649,-204.077 617.785,-194.369"/>
<polygon fill="midnightblue" stroke="midnightblue" points="619.753,-191.457 609.797,-187.834 615.32,-196.875 619.753,-191.457"/>
</g>
<!-- Node23 -->
<g id="node23" class="node"><title>Node23</title>
<g id="a_node23"><a xlink:href="../../d3/d47/reference__kind_8h.xhtml" target="_top" xlink:title=" ">
<polygon fill="none" stroke="black" points="590.5,-112.5 590.5,-131.5 699.5,-131.5 699.5,-112.5 590.5,-112.5"/>
<text text-anchor="middle" x="645" y="-119.5" font-family="Helvetica,sans-Serif" font-size="10.00">utils/reference_kind.h</text>
</a>
</g>
</g>
<!-- Node20&#45;&gt;Node23 -->
<g id="edge39" class="edge"><title>Node20&#45;&gt;Node23</title>
<path fill="none" stroke="midnightblue" d="M663.431,-224.368C660.203,-206.617 652.758,-165.666 648.381,-141.597"/>
<polygon fill="midnightblue" stroke="midnightblue" points="651.795,-140.804 646.562,-131.591 644.907,-142.056 651.795,-140.804"/>
</g>
<!-- Node22&#45;&gt;Node4 -->
<g id="edge33" class="edge"><title>Node22&#45;&gt;Node4</title>
<path fill="none" stroke="midnightblue" d="M594.192,-168.039C585.883,-153.531 567.359,-125.199 543,-112 543,-112 322.595,-82.3934 239.338,-71.2095"/>
<polygon fill="midnightblue" stroke="midnightblue" points="239.587,-67.7117 229.21,-69.8491 238.655,-74.6493 239.587,-67.7117"/>
</g>
<!-- Node22&#45;&gt;Node7 -->
<g id="edge32" class="edge"><title>Node22&#45;&gt;Node7</title>
<path fill="none" stroke="midnightblue" d="M585.183,-168.324C571.767,-159.9 551.176,-146.971 535.414,-137.074"/>
<polygon fill="midnightblue" stroke="midnightblue" points="537.113,-134.008 526.783,-131.655 533.391,-139.936 537.113,-134.008"/>
</g>
<!-- Node22&#45;&gt;Node15 -->
<g id="edge34" class="edge"><title>Node22&#45;&gt;Node15</title>
<path fill="none" stroke="midnightblue" d="M625.62,-168.444C654.006,-159.32 699.137,-144.813 730.753,-134.651"/>
<polygon fill="midnightblue" stroke="midnightblue" points="732.055,-137.909 740.504,-131.516 729.913,-131.244 732.055,-137.909"/>
</g>
<!-- Node22&#45;&gt;Node23 -->
<g id="edge35" class="edge"><title>Node22&#45;&gt;Node23</title>
<path fill="none" stroke="midnightblue" d="M606.596,-168.083C613.227,-160.298 623.021,-148.801 631.058,-139.367"/>
<polygon fill="midnightblue" stroke="midnightblue" points="633.725,-141.633 637.545,-131.751 628.396,-137.094 633.725,-141.633"/>
</g>
<!-- Node23&#45;&gt;Node10 -->
<g id="edge36" class="edge"><title>Node23&#45;&gt;Node10</title>
<path fill="none" stroke="midnightblue" d="M616.32,-112.444C583.076,-102.525 528.514,-86.2473 494.51,-76.1025"/>
<polygon fill="midnightblue" stroke="midnightblue" points="495.247,-72.6699 484.664,-73.1649 493.246,-79.3778 495.247,-72.6699"/>
</g>
<!-- Node23&#45;&gt;Node12 -->
<g id="edge37" class="edge"><title>Node23&#45;&gt;Node12</title>
<path fill="none" stroke="midnightblue" d="M593.344,-112.444C530.209,-101.986 424.382,-84.456 364.291,-74.5022"/>
<polygon fill="midnightblue" stroke="midnightblue" points="364.776,-71.0349 354.338,-72.8536 363.632,-77.9408 364.776,-71.0349"/>
</g>
</g>
</svg>
        <g id="navigator" transform="translate(0 0)" fill="#404254">
                <rect fill="#f2f5e9" fill-opacity="0.5" stroke="#606060" stroke-width=".5" x="0" y="0" width="60" height="60"/>
                <use id="zoomplus" xlink:href="#zoomPlus" x="17" y="9" onmousedown="handleZoom(evt,'in')"/>
                <use id="zoomminus" xlink:href="#zoomMin" x="42" y="9" onmousedown="handleZoom(evt,'out')"/>
                <use id="reset" xlink:href="#resetDef" x="30" y="36" onmousedown="handleReset()"/>
                <g id="arrowUp" xlink:href="#dirArrow" transform="translate(30 24)" onmousedown="handlePan(0,-1)">
                  <use xlink:href="#rim" fill="#404040">
                        <set attributeName="fill" to="#808080" begin="arrowUp.mouseover" end="arrowUp.mouseout"/>
                  </use>
                  <path fill="none" stroke="white" stroke-width="1.5" d="M0,-3.0v7 M-2.5,-0.5L0,-3.0L2.5,-0.5"/>
                </g>
                <g id="arrowRight" xlink:href="#dirArrow" transform="rotate(90) translate(36 -43)" onmousedown="handlePan(1,0)">
                  <use xlink:href="#rim" fill="#404040">
                        <set attributeName="fill" to="#808080" begin="arrowRight.mouseover" end="arrowRight.mouseout"/>
                  </use>
                  <path fill="none" stroke="white" stroke-width="1.5" d="M0,-3.0v7 M-2.5,-0.5L0,-3.0L2.5,-0.5"/>
                </g>
                <g id="arrowDown" xlink:href="#dirArrow" transform="rotate(180) translate(-30 -48)" onmousedown="handlePan(0,1)">
                  <use xlink:href="#rim" fill="#404040">
                        <set attributeName="fill" to="#808080" begin="arrowDown.mouseover" end="arrowDown.mouseout"/>
                  </use>
                  <path fill="none" stroke="white" stroke-width="1.5" d="M0,-3.0v7 M-2.5,-0.5L0,-3.0L2.5,-0.5"/>
                </g>
                <g id="arrowLeft" xlink:href="#dirArrow" transform="rotate(270) translate(-36 17)" onmousedown="handlePan(-1,0)">
                  <use xlink:href="#rim" fill="#404040">
                        <set attributeName="fill" to="#808080" begin="arrowLeft.mouseover" end="arrowLeft.mouseout"/>
                  </use>
                  <path fill="none" stroke="white" stroke-width="1.5" d="M0,-3.0v7 M-2.5,-0.5L0,-3.0L2.5,-0.5"/>
                </g>
        </g>
        <svg viewBox="0 0 15 15" width="100%" height="30px" preserveAspectRatio="xMaxYMin meet">
         <g id="arrow_out" transform="scale(0.3 0.3)">
          <a xlink:href="heap_8h__incl_org.svg" target="_base">
           <rect id="button" ry="5" rx="5" y="6" x="6" height="38" width="38"
                fill="#f2f5e9" fill-opacity="0.5" stroke="#606060" stroke-width="1.0"/>
           <path id="arrow"
             d="M 11.500037,31.436501 C 11.940474,20.09759 22.043105,11.32322 32.158766,21.979434 L 37.068811,17.246167 C 37.068811,17.246167 37.088388,32 37.088388,32 L 22.160133,31.978069 C 22.160133,31.978069 26.997745,27.140456 26.997745,27.140456 C 18.528582,18.264221 13.291696,25.230495 11.500037,31.436501 z"
             style="fill:#404040;"/>
          </a>
         </g>
        </svg>
</svg>
