<?xml version="1.0" encoding="UTF-8" standalone="no"?>
<!DOCTYPE svg PUBLIC "-//W3C//DTD SVG 1.1//EN"
 "http://www.w3.org/Graphics/SVG/1.1/DTD/svg11.dtd">
<!-- Generated by graphviz version 2.38.0 (20140413.2041)
 -->
<!-- Title: include/instructions/instruction_set/constant_pool.h Pages: 1 -->
<svg width="395pt" height="229pt"
 viewBox="0.00 0.00 395.00 229.00" xmlns="http://www.w3.org/2000/svg" xmlns:xlink="http://www.w3.org/1999/xlink">
<g id="graph0" class="graph" transform="scale(1 1) rotate(0) translate(4 225)">
<title>include/instructions/instruction_set/constant_pool.h</title>
<!-- Node1 -->
<g id="node1" class="node"><title>Node1</title>
<g id="a_node1"><a xlink:title=" ">
<polygon fill="#bfbfbf" stroke="black" points="106,-179.5 106,-220.5 230,-220.5 230,-179.5 106,-179.5"/>
<text text-anchor="start" x="114" y="-208.5" font-family="Helvetica,sans-Serif" font-size="10.00">include/instructions</text>
<text text-anchor="start" x="114" y="-197.5" font-family="Helvetica,sans-Serif" font-size="10.00">/instruction_set/constant</text>
<text text-anchor="middle" x="168" y="-186.5" font-family="Helvetica,sans-Serif" font-size="10.00">_pool.h</text>
</a>
</g>
</g>
<!-- Node2 -->
<g id="node2" class="node"><title>Node2</title>
<g id="a_node2"><a xlink:title=" ">
<polygon fill="none" stroke="#bfbfbf" points="0,-118 0,-137 54,-137 54,-118 0,-118"/>
<text text-anchor="middle" x="27" y="-125" font-family="Helvetica,sans-Serif" font-size="10.00">iostream</text>
</a>
</g>
</g>
<!-- Node1&#45;&gt;Node2 -->
<g id="edge1" class="edge"><title>Node1&#45;&gt;Node2</title>
<path fill="none" stroke="midnightblue" d="M128.724,-179.362C104.698,-167.349 74.6097,-152.305 53.4087,-141.704"/>
<polygon fill="midnightblue" stroke="midnightblue" points="54.8563,-138.515 44.3468,-137.173 51.7258,-144.776 54.8563,-138.515"/>
</g>
<!-- Node3 -->
<g id="node3" class="node"><title>Node3</title>
<g id="a_node3"><a xlink:title=" ">
<polygon fill="none" stroke="#bfbfbf" points="127.5,-56.5 127.5,-75.5 168.5,-75.5 168.5,-56.5 127.5,-56.5"/>
<text text-anchor="middle" x="148" y="-63.5" font-family="Helvetica,sans-Serif" font-size="10.00">string</text>
</a>
</g>
</g>
<!-- Node1&#45;&gt;Node3 -->
<g id="edge2" class="edge"><title>Node1&#45;&gt;Node3</title>
<path fill="none" stroke="midnightblue" d="M133.665,-179.363C120.942,-170.116 107.934,-157.832 101,-143 95.1652,-130.519 95.5894,-124.671 101,-112 106.147,-99.9469 116.281,-89.5764 125.826,-81.8389"/>
<polygon fill="midnightblue" stroke="midnightblue" points="128.04,-84.5532 133.922,-75.7409 123.828,-78.9619 128.04,-84.5532"/>
</g>
<!-- Node4 -->
<g id="node4" class="node"><title>Node4</title>
<g id="a_node4"><a xlink:title=" ">
<polygon fill="none" stroke="#bfbfbf" points="345,-56.5 345,-75.5 387,-75.5 387,-56.5 345,-56.5"/>
<text text-anchor="middle" x="366" y="-63.5" font-family="Helvetica,sans-Serif" font-size="10.00">vector</text>
</a>
</g>
</g>
<!-- Node1&#45;&gt;Node4 -->
<g id="edge3" class="edge"><title>Node1&#45;&gt;Node4</title>
<path fill="none" stroke="midnightblue" d="M230.214,-189.905C282.478,-180.842 351.249,-165.085 368,-143 380.432,-126.609 376.985,-102.006 372.385,-85.2656"/>
<polygon fill="midnightblue" stroke="midnightblue" points="375.677,-84.0652 369.352,-75.5656 368.996,-86.1545 375.677,-84.0652"/>
</g>
<!-- Node5 -->
<g id="node5" class="node"><title>Node5</title>
<g id="a_node5"><a xlink:href="../../d3/d5a/base_8h.xhtml" target="_top" xlink:title=" ">
<polygon fill="none" stroke="black" points="243.5,-112.5 243.5,-142.5 358.5,-142.5 358.5,-112.5 243.5,-112.5"/>
<text text-anchor="start" x="251.5" y="-130.5" font-family="Helvetica,sans-Serif" font-size="10.00">instructions/instruction</text>
<text text-anchor="middle" x="301" y="-119.5" font-family="Helvetica,sans-Serif" font-size="10.00">_set/base.h</text>
</a>
</g>
</g>
<!-- Node1&#45;&gt;Node5 -->
<g id="edge4" class="edge"><title>Node1&#45;&gt;Node5</title>
<path fill="none" stroke="midnightblue" d="M205.048,-179.362C223.853,-169.393 246.597,-157.338 265.22,-147.466"/>
<polygon fill="midnightblue" stroke="midnightblue" points="267.072,-150.446 274.268,-142.67 263.793,-144.261 267.072,-150.446"/>
</g>
<!-- Node9 -->
<g id="node9" class="node"><title>Node9</title>
<g id="a_node9"><a xlink:href="../../d3/de6/opcodes_8h.xhtml" target="_top" xlink:title=" ">
<polygon fill="none" stroke="black" points="110.5,-118 110.5,-137 225.5,-137 225.5,-118 110.5,-118"/>
<text text-anchor="middle" x="168" y="-125" font-family="Helvetica,sans-Serif" font-size="10.00">instructions/opcodes.h</text>
</a>
</g>
</g>
<!-- Node1&#45;&gt;Node9 -->
<g id="edge10" class="edge"><title>Node1&#45;&gt;Node9</title>
<path fill="none" stroke="midnightblue" d="M168,-179.362C168,-169.297 168,-157.104 168,-147.18"/>
<polygon fill="midnightblue" stroke="midnightblue" points="171.5,-147.173 168,-137.173 164.5,-147.173 171.5,-147.173"/>
</g>
<!-- Node5&#45;&gt;Node3 -->
<g id="edge6" class="edge"><title>Node5&#45;&gt;Node3</title>
<path fill="none" stroke="midnightblue" d="M264.741,-112.399C238.334,-102.13 202.985,-88.383 178.127,-78.7159"/>
<polygon fill="midnightblue" stroke="midnightblue" points="179.089,-75.3348 168.5,-74.9723 176.552,-81.8589 179.089,-75.3348"/>
</g>
<!-- Node5&#45;&gt;Node4 -->
<g id="edge7" class="edge"><title>Node5&#45;&gt;Node4</title>
<path fill="none" stroke="midnightblue" d="M316.404,-112.399C326.239,-103.397 338.993,-91.7214 349.105,-82.4652"/>
<polygon fill="midnightblue" stroke="midnightblue" points="351.529,-84.9916 356.542,-75.6578 346.802,-79.8282 351.529,-84.9916"/>
</g>
<!-- Node6 -->
<g id="node6" class="node"><title>Node6</title>
<g id="a_node6"><a xlink:title=" ">
<polygon fill="none" stroke="#bfbfbf" points="275,-56.5 275,-75.5 327,-75.5 327,-56.5 275,-56.5"/>
<text text-anchor="middle" x="301" y="-63.5" font-family="Helvetica,sans-Serif" font-size="10.00">sstream</text>
</a>
</g>
</g>
<!-- Node5&#45;&gt;Node6 -->
<g id="edge5" class="edge"><title>Node5&#45;&gt;Node6</title>
<path fill="none" stroke="midnightblue" d="M301,-112.399C301,-104.466 301,-94.458 301,-85.8583"/>
<polygon fill="midnightblue" stroke="midnightblue" points="304.5,-85.6577 301,-75.6578 297.5,-85.6578 304.5,-85.6577"/>
</g>
<!-- Node7 -->
<g id="node7" class="node"><title>Node7</title>
<g id="a_node7"><a xlink:href="../../d9/d49/types_8h.xhtml" target="_top" xlink:title=" ">
<polygon fill="none" stroke="black" points="187,-56.5 187,-75.5 257,-75.5 257,-56.5 187,-56.5"/>
<text text-anchor="middle" x="222" y="-63.5" font-family="Helvetica,sans-Serif" font-size="10.00">utils/types.h</text>
</a>
</g>
</g>
<!-- Node5&#45;&gt;Node7 -->
<g id="edge8" class="edge"><title>Node5&#45;&gt;Node7</title>
<path fill="none" stroke="midnightblue" d="M282.278,-112.399C270.088,-103.218 254.208,-91.2579 241.807,-81.9182"/>
<polygon fill="midnightblue" stroke="midnightblue" points="243.589,-78.8782 233.495,-75.6578 239.377,-84.4697 243.589,-78.8782"/>
</g>
<!-- Node8 -->
<g id="node8" class="node"><title>Node8</title>
<g id="a_node8"><a xlink:title=" ">
<polygon fill="none" stroke="#bfbfbf" points="199,-0.5 199,-19.5 245,-19.5 245,-0.5 199,-0.5"/>
<text text-anchor="middle" x="222" y="-7.5" font-family="Helvetica,sans-Serif" font-size="10.00">cstdint</text>
</a>
</g>
</g>
<!-- Node7&#45;&gt;Node8 -->
<g id="edge9" class="edge"><title>Node7&#45;&gt;Node8</title>
<path fill="none" stroke="midnightblue" d="M222,-56.083C222,-49.0059 222,-38.8611 222,-29.9865"/>
<polygon fill="midnightblue" stroke="midnightblue" points="225.5,-29.751 222,-19.7511 218.5,-29.7511 225.5,-29.751"/>
</g>
<!-- Node9&#45;&gt;Node3 -->
<g id="edge11" class="edge"><title>Node9&#45;&gt;Node3</title>
<path fill="none" stroke="midnightblue" d="M165.134,-117.975C162.283,-109.492 157.817,-96.2043 154.159,-85.3222"/>
<polygon fill="midnightblue" stroke="midnightblue" points="157.364,-83.8727 150.86,-75.5091 150.729,-86.1031 157.364,-83.8727"/>
</g>
<!-- Node9&#45;&gt;Node4 -->
<g id="edge12" class="edge"><title>Node9&#45;&gt;Node4</title>
<path fill="none" stroke="midnightblue" d="M196.369,-117.975C233.119,-106.931 296.967,-87.7449 334.972,-76.3239"/>
<polygon fill="midnightblue" stroke="midnightblue" points="336.393,-79.5517 344.963,-73.3218 334.379,-72.8478 336.393,-79.5517"/>
</g>
<!-- Node9&#45;&gt;Node7 -->
<g id="edge13" class="edge"><title>Node9&#45;&gt;Node7</title>
<path fill="none" stroke="midnightblue" d="M175.737,-117.975C183.997,-108.873 197.277,-94.241 207.494,-82.983"/>
<polygon fill="midnightblue" stroke="midnightblue" points="210.149,-85.2663 214.277,-75.5091 204.965,-80.5619 210.149,-85.2663"/>
</g>
</g>
</svg>
