<?xml version="1.0" encoding="UTF-8" standalone="no"?>
<!DOCTYPE svg PUBLIC "-//W3C//DTD SVG 1.1//EN"
 "http://www.w3.org/Graphics/SVG/1.1/DTD/svg11.dtd">
<!-- Generated by graphviz version 2.38.0 (20140413.2041)
 -->
<!-- Title: Utils::ConstantPool::BaseReference Pages: 1 -->
<svg width="262pt" height="353pt"
 viewBox="0.00 0.00 262.00 353.00" xmlns="http://www.w3.org/2000/svg" xmlns:xlink="http://www.w3.org/1999/xlink">
<g id="graph0" class="graph" transform="scale(1 1) rotate(0) translate(4 349)">
<title>Utils::ConstantPool::BaseReference</title>
<!-- Node1 -->
<g id="node1" class="node"><title>Node1</title>
<g id="a_node1"><a xlink:title=" ">
<polygon fill="#bfbfbf" stroke="black" points="81.5,-0.5 81.5,-90.5 182.5,-90.5 182.5,-0.5 81.5,-0.5"/>
<text text-anchor="start" x="89.5" y="-78.5" font-family="Helvetica,sans-Serif" font-size="10.00">Utils::ConstantPool</text>
<text text-anchor="middle" x="132" y="-67.5" font-family="Helvetica,sans-Serif" font-size="10.00">::BaseReference</text>
<polyline fill="none" stroke="black" points="81.5,-60.5 182.5,-60.5 "/>
<text text-anchor="middle" x="132" y="-48.5" font-family="Helvetica,sans-Serif" font-size="10.00"> </text>
<polyline fill="none" stroke="black" points="81.5,-41.5 182.5,-41.5 "/>
<text text-anchor="start" x="89.5" y="-29.5" font-family="Helvetica,sans-Serif" font-size="10.00">+ BaseReference()</text>
<text text-anchor="start" x="89.5" y="-18.5" font-family="Helvetica,sans-Serif" font-size="10.00">+ getValue()</text>
<text text-anchor="start" x="89.5" y="-7.5" font-family="Helvetica,sans-Serif" font-size="10.00">+ getGeneralInfo()</text>
</a>
</g>
</g>
<!-- Node2 -->
<g id="node2" class="node"><title>Node2</title>
<g id="a_node2"><a xlink:href="../../d7/d7d/class_utils_1_1_constant_pool_1_1_base_constant_info.xhtml" target="_top" xlink:title=" ">
<polygon fill="none" stroke="black" points="0,-149.5 0,-239.5 114,-239.5 114,-149.5 0,-149.5"/>
<text text-anchor="start" x="8" y="-227.5" font-family="Helvetica,sans-Serif" font-size="10.00">Utils::ConstantPool</text>
<text text-anchor="middle" x="57" y="-216.5" font-family="Helvetica,sans-Serif" font-size="10.00">::BaseConstantInfo</text>
<polyline fill="none" stroke="black" points="0,-209.5 114,-209.5 "/>
<text text-anchor="middle" x="57" y="-197.5" font-family="Helvetica,sans-Serif" font-size="10.00"> </text>
<polyline fill="none" stroke="black" points="0,-190.5 114,-190.5 "/>
<text text-anchor="start" x="8" y="-178.5" font-family="Helvetica,sans-Serif" font-size="10.00">+ BaseConstantInfo()</text>
<text text-anchor="start" x="8" y="-167.5" font-family="Helvetica,sans-Serif" font-size="10.00">+ BaseConstantInfo()</text>
<text text-anchor="start" x="8" y="-156.5" font-family="Helvetica,sans-Serif" font-size="10.00">+ ~BaseConstantInfo()</text>
</a>
</g>
</g>
<!-- Node2&#45;&gt;Node1 -->
<g id="edge1" class="edge"><title>Node2&#45;&gt;Node1</title>
<path fill="none" stroke="midnightblue" d="M84.0528,-140.476C92.4036,-124.109 101.506,-106.269 109.513,-90.5737"/>
<polygon fill="none" stroke="midnightblue" points="80.9296,-138.897 79.5025,-149.395 87.1649,-142.078 80.9296,-138.897"/>
</g>
<!-- Node3 -->
<g id="node3" class="node"><title>Node3</title>
<g id="a_node3"><a xlink:title=" ">
<polygon fill="none" stroke="#bfbfbf" points="34,-287.5 34,-344.5 80,-344.5 80,-287.5 34,-287.5"/>
<text text-anchor="middle" x="57" y="-332.5" font-family="Helvetica,sans-Serif" font-size="10.00">uint8_t</text>
<polyline fill="none" stroke="#bfbfbf" points="34,-325.5 80,-325.5 "/>
<text text-anchor="middle" x="57" y="-313.5" font-family="Helvetica,sans-Serif" font-size="10.00"> </text>
<polyline fill="none" stroke="#bfbfbf" points="34,-306.5 80,-306.5 "/>
<text text-anchor="middle" x="57" y="-294.5" font-family="Helvetica,sans-Serif" font-size="10.00"> </text>
</a>
</g>
</g>
<!-- Node3&#45;&gt;Node2 -->
<g id="edge2" class="edge"><title>Node3&#45;&gt;Node2</title>
<path fill="none" stroke="#404040" d="M57,-287.284C57,-276.735 57,-264.294 57,-252.035"/>
<polygon fill="none" stroke="#404040" points="57.0001,-251.912 53,-245.912 57,-239.912 61,-245.912 57.0001,-251.912"/>
<text text-anchor="middle" x="68.5" y="-261" font-family="Helvetica,sans-Serif" font-size="10.00"> +tag</text>
</g>
<!-- Node4 -->
<g id="node4" class="node"><title>Node4</title>
<g id="a_node4"><a xlink:title=" ">
<polygon fill="none" stroke="#bfbfbf" points="132.5,-166 132.5,-223 183.5,-223 183.5,-166 132.5,-166"/>
<text text-anchor="middle" x="158" y="-211" font-family="Helvetica,sans-Serif" font-size="10.00">uint16_t</text>
<polyline fill="none" stroke="#bfbfbf" points="132.5,-204 183.5,-204 "/>
<text text-anchor="middle" x="158" y="-192" font-family="Helvetica,sans-Serif" font-size="10.00"> </text>
<polyline fill="none" stroke="#bfbfbf" points="132.5,-185 183.5,-185 "/>
<text text-anchor="middle" x="158" y="-173" font-family="Helvetica,sans-Serif" font-size="10.00"> </text>
</a>
</g>
</g>
<!-- Node4&#45;&gt;Node1 -->
<g id="edge3" class="edge"><title>Node4&#45;&gt;Node1</title>
<path fill="none" stroke="#404040" d="M153.11,-165.85C149.972,-148.109 145.784,-124.433 141.966,-102.848"/>
<polygon fill="none" stroke="#404040" points="141.922,-102.599 136.938,-97.3874 139.832,-90.7824 144.816,-95.994 141.922,-102.599"/>
<text text-anchor="middle" x="200.5" y="-123" font-family="Helvetica,sans-Serif" font-size="10.00"> +name_and_type_index</text>
<text text-anchor="middle" x="200.5" y="-112" font-family="Helvetica,sans-Serif" font-size="10.00">+class_index</text>
</g>
</g>
</svg>
