<?xml version="1.0" encoding="UTF-8" standalone="no"?>
<!DOCTYPE svg PUBLIC "-//W3C//DTD SVG 1.1//EN"
 "http://www.w3.org/Graphics/SVG/1.1/DTD/svg11.dtd">
<!-- Generated by graphviz version 2.38.0 (20140413.2041)
 -->
<!-- Title: Utils::Attributes::MethodParameters_attribute Pages: 1 -->
<svg width="375pt" height="342pt"
 viewBox="0.00 0.00 374.50 342.00" xmlns="http://www.w3.org/2000/svg" xmlns:xlink="http://www.w3.org/1999/xlink">
<g id="graph0" class="graph" transform="scale(1 1) rotate(0) translate(4 338)">
<title>Utils::Attributes::MethodParameters_attribute</title>
<!-- Node1 -->
<g id="node1" class="node"><title>Node1</title>
<g id="a_node1"><a xlink:title=" ">
<polygon fill="#bfbfbf" stroke="black" points="128,-0.5 128,-90.5 289,-90.5 289,-0.5 128,-0.5"/>
<text text-anchor="start" x="136" y="-78.5" font-family="Helvetica,sans-Serif" font-size="10.00">Utils::Attributes::</text>
<text text-anchor="middle" x="208.5" y="-67.5" font-family="Helvetica,sans-Serif" font-size="10.00">MethodParameters_attribute</text>
<polyline fill="none" stroke="black" points="128,-60.5 289,-60.5 "/>
<text text-anchor="middle" x="208.5" y="-48.5" font-family="Helvetica,sans-Serif" font-size="10.00"> </text>
<polyline fill="none" stroke="black" points="128,-41.5 289,-41.5 "/>
<text text-anchor="start" x="136" y="-29.5" font-family="Helvetica,sans-Serif" font-size="10.00">+ MethodParameters_attribute()</text>
<text text-anchor="start" x="136" y="-18.5" font-family="Helvetica,sans-Serif" font-size="10.00">+ ~MethodParameters_attribute()</text>
<text text-anchor="start" x="136" y="-7.5" font-family="Helvetica,sans-Serif" font-size="10.00">+ getSpecificInfo()</text>
</a>
</g>
</g>
<!-- Node2 -->
<g id="node2" class="node"><title>Node2</title>
<g id="a_node2"><a xlink:href="../../dc/dac/class_utils_1_1_attributes_1_1_base_attribute.xhtml" target="_top" xlink:title=" ">
<polygon fill="none" stroke="black" points="26,-138.5 26,-228.5 123,-228.5 123,-138.5 26,-138.5"/>
<text text-anchor="start" x="34" y="-216.5" font-family="Helvetica,sans-Serif" font-size="10.00">Utils::Attributes::</text>
<text text-anchor="middle" x="74.5" y="-205.5" font-family="Helvetica,sans-Serif" font-size="10.00">BaseAttribute</text>
<polyline fill="none" stroke="black" points="26,-198.5 123,-198.5 "/>
<text text-anchor="middle" x="74.5" y="-186.5" font-family="Helvetica,sans-Serif" font-size="10.00"> </text>
<polyline fill="none" stroke="black" points="26,-179.5 123,-179.5 "/>
<text text-anchor="start" x="34" y="-167.5" font-family="Helvetica,sans-Serif" font-size="10.00">+ BaseAttribute()</text>
<text text-anchor="start" x="34" y="-156.5" font-family="Helvetica,sans-Serif" font-size="10.00">+ BaseAttribute()</text>
<text text-anchor="start" x="34" y="-145.5" font-family="Helvetica,sans-Serif" font-size="10.00">+ ~BaseAttribute()</text>
</a>
</g>
</g>
<!-- Node2&#45;&gt;Node1 -->
<g id="edge1" class="edge"><title>Node2&#45;&gt;Node1</title>
<path fill="none" stroke="midnightblue" d="M125.145,-131.099C138.182,-117.867 152.1,-103.742 164.754,-90.8992"/>
<polygon fill="none" stroke="midnightblue" points="122.531,-128.765 118.006,-138.345 127.518,-133.678 122.531,-128.765"/>
</g>
<!-- Node3 -->
<g id="node3" class="node"><title>Node3</title>
<g id="a_node3"><a xlink:title=" ">
<polygon fill="none" stroke="#bfbfbf" points="0,-276.5 0,-333.5 51,-333.5 51,-276.5 0,-276.5"/>
<text text-anchor="middle" x="25.5" y="-321.5" font-family="Helvetica,sans-Serif" font-size="10.00">uint32_t</text>
<polyline fill="none" stroke="#bfbfbf" points="0,-314.5 51,-314.5 "/>
<text text-anchor="middle" x="25.5" y="-302.5" font-family="Helvetica,sans-Serif" font-size="10.00"> </text>
<polyline fill="none" stroke="#bfbfbf" points="0,-295.5 51,-295.5 "/>
<text text-anchor="middle" x="25.5" y="-283.5" font-family="Helvetica,sans-Serif" font-size="10.00"> </text>
</a>
</g>
</g>
<!-- Node3&#45;&gt;Node2 -->
<g id="edge2" class="edge"><title>Node3&#45;&gt;Node2</title>
<path fill="none" stroke="#404040" d="M22.5193,-276.417C22.3852,-266.87 23.2672,-256.25 26.5,-247 27.3986,-244.429 28.4476,-241.88 29.6183,-239.365"/>
<polygon fill="none" stroke="#404040" points="29.7343,-239.15 29.0688,-231.97 35.4409,-228.594 36.1064,-235.774 29.7343,-239.15"/>
<text text-anchor="middle" x="64.5" y="-250" font-family="Helvetica,sans-Serif" font-size="10.00"> +attribute_length</text>
</g>
<!-- Node4 -->
<g id="node4" class="node"><title>Node4</title>
<g id="a_node4"><a xlink:title=" ">
<polygon fill="none" stroke="#bfbfbf" points="99,-276.5 99,-333.5 150,-333.5 150,-276.5 99,-276.5"/>
<text text-anchor="middle" x="124.5" y="-321.5" font-family="Helvetica,sans-Serif" font-size="10.00">uint16_t</text>
<polyline fill="none" stroke="#bfbfbf" points="99,-314.5 150,-314.5 "/>
<text text-anchor="middle" x="124.5" y="-302.5" font-family="Helvetica,sans-Serif" font-size="10.00"> </text>
<polyline fill="none" stroke="#bfbfbf" points="99,-295.5 150,-295.5 "/>
<text text-anchor="middle" x="124.5" y="-283.5" font-family="Helvetica,sans-Serif" font-size="10.00"> </text>
</a>
</g>
</g>
<!-- Node4&#45;&gt;Node2 -->
<g id="edge3" class="edge"><title>Node4&#45;&gt;Node2</title>
<path fill="none" stroke="#404040" d="M114.162,-276.34C110.574,-266.981 106.457,-256.498 102.5,-247 101.535,-244.685 100.54,-242.327 99.5245,-239.949"/>
<polygon fill="none" stroke="#404040" points="99.4474,-239.771 93.3914,-235.856 94.6757,-228.76 100.732,-232.675 99.4474,-239.771"/>
<text text-anchor="middle" x="159" y="-250" font-family="Helvetica,sans-Serif" font-size="10.00"> +attribute_name_index</text>
</g>
<!-- Node5 -->
<g id="node5" class="node"><title>Node5</title>
<g id="a_node5"><a xlink:title=" ">
<polygon fill="none" stroke="#bfbfbf" points="141.5,-149.5 141.5,-217.5 275.5,-217.5 275.5,-149.5 141.5,-149.5"/>
<text text-anchor="start" x="149.5" y="-205.5" font-family="Helvetica,sans-Serif" font-size="10.00">vector&lt; MethodParameters</text>
<text text-anchor="middle" x="208.5" y="-194.5" font-family="Helvetica,sans-Serif" font-size="10.00">_info &gt;</text>
<polyline fill="none" stroke="#bfbfbf" points="141.5,-187.5 275.5,-187.5 "/>
<text text-anchor="middle" x="208.5" y="-175.5" font-family="Helvetica,sans-Serif" font-size="10.00"> </text>
<polyline fill="none" stroke="#bfbfbf" points="141.5,-168.5 275.5,-168.5 "/>
<text text-anchor="middle" x="208.5" y="-156.5" font-family="Helvetica,sans-Serif" font-size="10.00"> </text>
</a>
</g>
</g>
<!-- Node5&#45;&gt;Node1 -->
<g id="edge4" class="edge"><title>Node5&#45;&gt;Node1</title>
<path fill="none" stroke="#404040" d="M208.5,-149.231C208.5,-135.331 208.5,-118.786 208.5,-103.078"/>
<polygon fill="none" stroke="#404040" points="208.5,-102.726 204.5,-96.7258 208.5,-90.7258 212.5,-96.7257 208.5,-102.726"/>
<text text-anchor="middle" x="237.5" y="-112" font-family="Helvetica,sans-Serif" font-size="10.00"> +parameters</text>
</g>
<!-- Node6 -->
<g id="node6" class="node"><title>Node6</title>
<g id="a_node6"><a xlink:title=" ">
<polygon fill="none" stroke="#bfbfbf" points="293.5,-155 293.5,-212 339.5,-212 339.5,-155 293.5,-155"/>
<text text-anchor="middle" x="316.5" y="-200" font-family="Helvetica,sans-Serif" font-size="10.00">uint8_t</text>
<polyline fill="none" stroke="#bfbfbf" points="293.5,-193 339.5,-193 "/>
<text text-anchor="middle" x="316.5" y="-181" font-family="Helvetica,sans-Serif" font-size="10.00"> </text>
<polyline fill="none" stroke="#bfbfbf" points="293.5,-174 339.5,-174 "/>
<text text-anchor="middle" x="316.5" y="-162" font-family="Helvetica,sans-Serif" font-size="10.00"> </text>
</a>
</g>
</g>
<!-- Node6&#45;&gt;Node1 -->
<g id="edge5" class="edge"><title>Node6&#45;&gt;Node1</title>
<path fill="none" stroke="#404040" d="M301.262,-154.997C292.891,-140.759 281.909,-123.392 270.5,-109 268.079,-105.946 265.525,-102.88 262.889,-99.8351"/>
<polygon fill="none" stroke="#404040" points="262.794,-99.7301 255.811,-97.9335 254.783,-90.7959 261.767,-92.5926 262.794,-99.7301"/>
<text text-anchor="middle" x="322.5" y="-112" font-family="Helvetica,sans-Serif" font-size="10.00"> +parameters_count</text>
</g>
</g>
</svg>
