<?xml version="1.0" encoding="UTF-8" standalone="no"?>
<!DOCTYPE svg PUBLIC "-//W3C//DTD SVG 1.1//EN"
 "http://www.w3.org/Graphics/SVG/1.1/DTD/svg11.dtd">
<!-- Generated by graphviz version 2.38.0 (20140413.2041)
 -->
<!-- Title: Utils::Attributes::BaseAttribute Pages: 1 -->
<svg width="218pt" height="204pt"
 viewBox="0.00 0.00 217.50 204.00" xmlns="http://www.w3.org/2000/svg" xmlns:xlink="http://www.w3.org/1999/xlink">
<g id="graph0" class="graph" transform="scale(1 1) rotate(0) translate(4 200)">
<title>Utils::Attributes::BaseAttribute</title>
<!-- Node1 -->
<g id="node1" class="node"><title>Node1</title>
<g id="a_node1"><a xlink:title=" ">
<polygon fill="#bfbfbf" stroke="black" points="26,-0.5 26,-90.5 123,-90.5 123,-0.5 26,-0.5"/>
<text text-anchor="start" x="34" y="-78.5" font-family="Helvetica,sans-Serif" font-size="10.00">Utils::Attributes::</text>
<text text-anchor="middle" x="74.5" y="-67.5" font-family="Helvetica,sans-Serif" font-size="10.00">BaseAttribute</text>
<polyline fill="none" stroke="black" points="26,-60.5 123,-60.5 "/>
<text text-anchor="middle" x="74.5" y="-48.5" font-family="Helvetica,sans-Serif" font-size="10.00"> </text>
<polyline fill="none" stroke="black" points="26,-41.5 123,-41.5 "/>
<text text-anchor="start" x="34" y="-29.5" font-family="Helvetica,sans-Serif" font-size="10.00">+ BaseAttribute()</text>
<text text-anchor="start" x="34" y="-18.5" font-family="Helvetica,sans-Serif" font-size="10.00">+ BaseAttribute()</text>
<text text-anchor="start" x="34" y="-7.5" font-family="Helvetica,sans-Serif" font-size="10.00">+ ~BaseAttribute()</text>
</a>
</g>
</g>
<!-- Node2 -->
<g id="node2" class="node"><title>Node2</title>
<g id="a_node2"><a xlink:title=" ">
<polygon fill="none" stroke="#bfbfbf" points="0,-138.5 0,-195.5 51,-195.5 51,-138.5 0,-138.5"/>
<text text-anchor="middle" x="25.5" y="-183.5" font-family="Helvetica,sans-Serif" font-size="10.00">uint32_t</text>
<polyline fill="none" stroke="#bfbfbf" points="0,-176.5 51,-176.5 "/>
<text text-anchor="middle" x="25.5" y="-164.5" font-family="Helvetica,sans-Serif" font-size="10.00"> </text>
<polyline fill="none" stroke="#bfbfbf" points="0,-157.5 51,-157.5 "/>
<text text-anchor="middle" x="25.5" y="-145.5" font-family="Helvetica,sans-Serif" font-size="10.00"> </text>
</a>
</g>
</g>
<!-- Node2&#45;&gt;Node1 -->
<g id="edge1" class="edge"><title>Node2&#45;&gt;Node1</title>
<path fill="none" stroke="#404040" d="M22.5193,-138.417C22.3852,-128.87 23.2672,-118.25 26.5,-109 27.3986,-106.429 28.4476,-103.88 29.6183,-101.365"/>
<polygon fill="none" stroke="#404040" points="29.7343,-101.15 29.0688,-93.97 35.4409,-90.594 36.1064,-97.7744 29.7343,-101.15"/>
<text text-anchor="middle" x="64.5" y="-112" font-family="Helvetica,sans-Serif" font-size="10.00"> +attribute_length</text>
</g>
<!-- Node3 -->
<g id="node3" class="node"><title>Node3</title>
<g id="a_node3"><a xlink:title=" ">
<polygon fill="none" stroke="#bfbfbf" points="99,-138.5 99,-195.5 150,-195.5 150,-138.5 99,-138.5"/>
<text text-anchor="middle" x="124.5" y="-183.5" font-family="Helvetica,sans-Serif" font-size="10.00">uint16_t</text>
<polyline fill="none" stroke="#bfbfbf" points="99,-176.5 150,-176.5 "/>
<text text-anchor="middle" x="124.5" y="-164.5" font-family="Helvetica,sans-Serif" font-size="10.00"> </text>
<polyline fill="none" stroke="#bfbfbf" points="99,-157.5 150,-157.5 "/>
<text text-anchor="middle" x="124.5" y="-145.5" font-family="Helvetica,sans-Serif" font-size="10.00"> </text>
</a>
</g>
</g>
<!-- Node3&#45;&gt;Node1 -->
<g id="edge2" class="edge"><title>Node3&#45;&gt;Node1</title>
<path fill="none" stroke="#404040" d="M114.162,-138.34C110.574,-128.981 106.457,-118.498 102.5,-109 101.535,-106.685 100.54,-104.327 99.5245,-101.949"/>
<polygon fill="none" stroke="#404040" points="99.4474,-101.771 93.3914,-97.8561 94.6757,-90.7603 100.732,-94.675 99.4474,-101.771"/>
<text text-anchor="middle" x="158" y="-112" font-family="Helvetica,sans-Serif" font-size="10.00"> +attribute_name_index</text>
</g>
</g>
</svg>
