<?xml version="1.0" encoding="UTF-8" standalone="no"?>
<!DOCTYPE svg PUBLIC "-//W3C//DTD SVG 1.1//EN"
 "http://www.w3.org/Graphics/SVG/1.1/DTD/svg11.dtd">
<!-- Generated by graphviz version 2.38.0 (20140413.2041)
 -->
<!-- Title: Utils::Object Pages: 1 -->
<svg width="327pt" height="358pt"
 viewBox="0.00 0.00 326.50 358.00" xmlns="http://www.w3.org/2000/svg" xmlns:xlink="http://www.w3.org/1999/xlink">
<g id="graph0" class="graph" transform="scale(1 1) rotate(0) translate(4 354)">
<title>Utils::Object</title>
<!-- Node1 -->
<g id="node1" class="node"><title>Node1</title>
<g id="a_node1"><a xlink:title=" ">
<polygon fill="#bfbfbf" stroke="black" points="169,-0.5 169,-101.5 240,-101.5 240,-0.5 169,-0.5"/>
<text text-anchor="middle" x="204.5" y="-89.5" font-family="Helvetica,sans-Serif" font-size="10.00">Utils::Object</text>
<polyline fill="none" stroke="black" points="169,-82.5 240,-82.5 "/>
<text text-anchor="middle" x="204.5" y="-70.5" font-family="Helvetica,sans-Serif" font-size="10.00"> </text>
<polyline fill="none" stroke="black" points="169,-63.5 240,-63.5 "/>
<text text-anchor="start" x="177" y="-51.5" font-family="Helvetica,sans-Serif" font-size="10.00">+ Object()</text>
<text text-anchor="start" x="177" y="-40.5" font-family="Helvetica,sans-Serif" font-size="10.00">+ Object()</text>
<text text-anchor="start" x="177" y="-29.5" font-family="Helvetica,sans-Serif" font-size="10.00">+ Object()</text>
<text text-anchor="start" x="177" y="-18.5" font-family="Helvetica,sans-Serif" font-size="10.00">+ ~Object()</text>
<text text-anchor="start" x="177" y="-7.5" font-family="Helvetica,sans-Serif" font-size="10.00">+ addField()</text>
</a>
</g>
</g>
<!-- Node2 -->
<g id="node2" class="node"><title>Node2</title>
<g id="a_node2"><a xlink:title=" ">
<polygon fill="none" stroke="#bfbfbf" points="0,-215.5 0,-283.5 113,-283.5 113,-215.5 0,-215.5"/>
<text text-anchor="start" x="8" y="-271.5" font-family="Helvetica,sans-Serif" font-size="10.00">map&lt; std::string, Utils</text>
<text text-anchor="middle" x="56.5" y="-260.5" font-family="Helvetica,sans-Serif" font-size="10.00">::Field_t * &gt;</text>
<polyline fill="none" stroke="#bfbfbf" points="0,-253.5 113,-253.5 "/>
<text text-anchor="middle" x="56.5" y="-241.5" font-family="Helvetica,sans-Serif" font-size="10.00"> </text>
<polyline fill="none" stroke="#bfbfbf" points="0,-234.5 113,-234.5 "/>
<text text-anchor="middle" x="56.5" y="-222.5" font-family="Helvetica,sans-Serif" font-size="10.00"> </text>
</a>
</g>
</g>
<!-- Node2&#45;&gt;Node1 -->
<g id="edge1" class="edge"><title>Node2&#45;&gt;Node1</title>
<path fill="none" stroke="#404040" d="M76.8321,-215.058C89.1553,-195.397 105.536,-170.298 121.5,-149 133.719,-132.698 147.865,-115.597 160.978,-100.372"/>
<polygon fill="none" stroke="#404040" points="161.112,-100.217 162.028,-93.0647 168.983,-91.1589 168.067,-98.3117 161.112,-100.217"/>
<text text-anchor="middle" x="158.5" y="-123" font-family="Helvetica,sans-Serif" font-size="10.00"> +fields</text>
</g>
<!-- Node3 -->
<g id="node3" class="node"><title>Node3</title>
<g id="a_node3"><a xlink:href="../../db/da7/struct_any.xhtml" target="_top" xlink:title=" ">
<polygon fill="none" stroke="black" points="131,-149.5 131,-349.5 208,-349.5 208,-149.5 131,-149.5"/>
<text text-anchor="middle" x="169.5" y="-337.5" font-family="Helvetica,sans-Serif" font-size="10.00">Any</text>
<polyline fill="none" stroke="black" points="131,-330.5 208,-330.5 "/>
<text text-anchor="middle" x="169.5" y="-318.5" font-family="Helvetica,sans-Serif" font-size="10.00"> </text>
<polyline fill="none" stroke="black" points="131,-311.5 208,-311.5 "/>
<text text-anchor="start" x="139" y="-299.5" font-family="Helvetica,sans-Serif" font-size="10.00">+ is_null()</text>
<text text-anchor="start" x="139" y="-288.5" font-family="Helvetica,sans-Serif" font-size="10.00">+ not_null()</text>
<text text-anchor="start" x="139" y="-277.5" font-family="Helvetica,sans-Serif" font-size="10.00">+ Any()</text>
<text text-anchor="start" x="139" y="-266.5" font-family="Helvetica,sans-Serif" font-size="10.00">+ is()</text>
<text text-anchor="start" x="139" y="-255.5" font-family="Helvetica,sans-Serif" font-size="10.00">+ as()</text>
<text text-anchor="start" x="139" y="-244.5" font-family="Helvetica,sans-Serif" font-size="10.00">+ operator U()</text>
<text text-anchor="start" x="139" y="-233.5" font-family="Helvetica,sans-Serif" font-size="10.00">+ Any()</text>
<text text-anchor="start" x="139" y="-222.5" font-family="Helvetica,sans-Serif" font-size="10.00">+ Any()</text>
<text text-anchor="start" x="139" y="-211.5" font-family="Helvetica,sans-Serif" font-size="10.00">+ Any()</text>
<text text-anchor="start" x="139" y="-200.5" font-family="Helvetica,sans-Serif" font-size="10.00">+ Any()</text>
<text text-anchor="start" x="139" y="-189.5" font-family="Helvetica,sans-Serif" font-size="10.00">+ Any()</text>
<text text-anchor="start" x="139" y="-178.5" font-family="Helvetica,sans-Serif" font-size="10.00">+ operator=()</text>
<text text-anchor="start" x="139" y="-167.5" font-family="Helvetica,sans-Serif" font-size="10.00">+ operator=()</text>
<text text-anchor="start" x="139" y="-156.5" font-family="Helvetica,sans-Serif" font-size="10.00">+ ~Any()</text>
</a>
</g>
</g>
<!-- Node3&#45;&gt;Node1 -->
<g id="edge2" class="edge"><title>Node3&#45;&gt;Node1</title>
<path fill="none" stroke="#404040" d="M185.317,-149.162C187.013,-139.3 188.756,-129.448 190.5,-120 190.893,-117.87 191.3,-115.704 191.717,-113.518"/>
<polygon fill="none" stroke="#404040" points="191.721,-113.497 188.944,-106.842 194.018,-101.719 196.796,-108.374 191.721,-113.497"/>
<text text-anchor="middle" x="204.5" y="-123" font-family="Helvetica,sans-Serif" font-size="10.00"> +data</text>
</g>
<!-- Node4 -->
<g id="node4" class="node"><title>Node4</title>
<g id="a_node4"><a xlink:title=" ">
<polygon fill="none" stroke="#bfbfbf" points="226,-221 226,-278 255,-278 255,-221 226,-221"/>
<text text-anchor="middle" x="240.5" y="-266" font-family="Helvetica,sans-Serif" font-size="10.00">int</text>
<polyline fill="none" stroke="#bfbfbf" points="226,-259 255,-259 "/>
<text text-anchor="middle" x="240.5" y="-247" font-family="Helvetica,sans-Serif" font-size="10.00"> </text>
<polyline fill="none" stroke="#bfbfbf" points="226,-240 255,-240 "/>
<text text-anchor="middle" x="240.5" y="-228" font-family="Helvetica,sans-Serif" font-size="10.00"> </text>
</a>
</g>
</g>
<!-- Node4&#45;&gt;Node1 -->
<g id="edge3" class="edge"><title>Node4&#45;&gt;Node1</title>
<path fill="none" stroke="#404040" d="M236.046,-220.879C231.779,-194.824 225.04,-154.697 218.5,-120 218.099,-117.872 217.685,-115.707 217.262,-113.522"/>
<polygon fill="none" stroke="#404040" points="217.258,-113.5 212.174,-108.387 214.938,-101.727 220.023,-106.84 217.258,-113.5"/>
<text text-anchor="middle" x="233.5" y="-123" font-family="Helvetica,sans-Serif" font-size="10.00"> +type</text>
</g>
<!-- Node5 -->
<g id="node5" class="node"><title>Node5</title>
<g id="a_node5"><a xlink:title=" ">
<polygon fill="none" stroke="#bfbfbf" points="273,-221 273,-278 314,-278 314,-221 273,-221"/>
<text text-anchor="middle" x="293.5" y="-266" font-family="Helvetica,sans-Serif" font-size="10.00">string</text>
<polyline fill="none" stroke="#bfbfbf" points="273,-259 314,-259 "/>
<text text-anchor="middle" x="293.5" y="-247" font-family="Helvetica,sans-Serif" font-size="10.00"> </text>
<polyline fill="none" stroke="#bfbfbf" points="273,-240 314,-240 "/>
<text text-anchor="middle" x="293.5" y="-228" font-family="Helvetica,sans-Serif" font-size="10.00"> </text>
</a>
</g>
</g>
<!-- Node5&#45;&gt;Node1 -->
<g id="edge4" class="edge"><title>Node5&#45;&gt;Node1</title>
<path fill="none" stroke="#404040" d="M287.81,-220.883C281.51,-193.946 269.761,-152.41 251.5,-120 249.99,-117.32 248.403,-114.611 246.763,-111.899"/>
<polygon fill="none" stroke="#404040" points="246.595,-111.631 240.02,-108.671 240.223,-101.463 246.798,-104.423 246.595,-111.631"/>
<text text-anchor="middle" x="287.5" y="-123" font-family="Helvetica,sans-Serif" font-size="10.00"> +class_name</text>
</g>
</g>
</svg>
