<?xml version="1.0" encoding="UTF-8" standalone="no"?>
<!DOCTYPE svg PUBLIC "-//W3C//DTD SVG 1.1//EN"
 "http://www.w3.org/Graphics/SVG/1.1/DTD/svg11.dtd">
<!-- Generated by graphviz version 2.38.0 (20140413.2041)
 -->
<!-- Title: include/utils/field_t.h Pages: 1 -->
<svg width="198pt" height="263pt"
 viewBox="0.00 0.00 197.50 263.00" xmlns="http://www.w3.org/2000/svg" xmlns:xlink="http://www.w3.org/1999/xlink">
<g id="graph0" class="graph" transform="scale(1 1) rotate(0) translate(4 259)">
<title>include/utils/field_t.h</title>
<!-- Node1 -->
<g id="node1" class="node"><title>Node1</title>
<g id="a_node1"><a xlink:title=" ">
<polygon fill="#bfbfbf" stroke="black" points="43,-235.5 43,-254.5 148,-254.5 148,-235.5 43,-235.5"/>
<text text-anchor="middle" x="95.5" y="-242.5" font-family="Helvetica,sans-Serif" font-size="10.00">include/utils/field_t.h</text>
</a>
</g>
</g>
<!-- Node2 -->
<g id="node2" class="node"><title>Node2</title>
<g id="a_node2"><a xlink:href="../../d8/dd9/class__t_8h.xhtml" target="_top" xlink:title=" ">
<polygon fill="none" stroke="black" points="0,-123.5 0,-142.5 111,-142.5 111,-123.5 0,-123.5"/>
<text text-anchor="middle" x="55.5" y="-130.5" font-family="Helvetica,sans-Serif" font-size="10.00">include/utils/class_t.h</text>
</a>
</g>
</g>
<!-- Node1&#45;&gt;Node2 -->
<g id="edge1" class="edge"><title>Node1&#45;&gt;Node2</title>
<path fill="none" stroke="midnightblue" d="M86.3271,-225.988C82.3911,-217.865 77.9213,-208.076 74.5,-199 67.035,-179.198 60.6743,-155.107 57.5556,-142.549"/>
<polygon fill="midnightblue" stroke="midnightblue" points="83.3238,-227.809 90.9082,-235.207 89.5925,-224.694 83.3238,-227.809"/>
</g>
<!-- Node5 -->
<g id="node5" class="node"><title>Node5</title>
<g id="a_node5"><a xlink:href="../../de/d10/object_8h.xhtml" target="_top" xlink:title=" ">
<polygon fill="none" stroke="black" points="83.5,-179.5 83.5,-198.5 189.5,-198.5 189.5,-179.5 83.5,-179.5"/>
<text text-anchor="middle" x="136.5" y="-186.5" font-family="Helvetica,sans-Serif" font-size="10.00">include/utils/object.h</text>
</a>
</g>
</g>
<!-- Node1&#45;&gt;Node5 -->
<g id="edge4" class="edge"><title>Node1&#45;&gt;Node5</title>
<path fill="none" stroke="midnightblue" d="M108.517,-226.855C115.617,-217.505 124.104,-206.327 129.856,-198.751"/>
<polygon fill="midnightblue" stroke="midnightblue" points="105.53,-225.002 102.27,-235.083 111.105,-229.235 105.53,-225.002"/>
</g>
<!-- Node3 -->
<g id="node3" class="node"><title>Node3</title>
<g id="a_node3"><a xlink:href="../../da/ddb/heap_8h.xhtml" target="_top" xlink:title=" ">
<polygon fill="none" stroke="black" points="44,-56.5 44,-86.5 151,-86.5 151,-56.5 44,-56.5"/>
<text text-anchor="start" x="52" y="-74.5" font-family="Helvetica,sans-Serif" font-size="10.00">include/utils/memory</text>
<text text-anchor="middle" x="97.5" y="-63.5" font-family="Helvetica,sans-Serif" font-size="10.00">_areas/heap.h</text>
</a>
</g>
</g>
<!-- Node2&#45;&gt;Node3 -->
<g id="edge2" class="edge"><title>Node2&#45;&gt;Node3</title>
<path fill="none" stroke="midnightblue" d="M67.3255,-115.247C73.7212,-106.187 81.5301,-95.124 87.6014,-86.523"/>
<polygon fill="midnightblue" stroke="midnightblue" points="64.4251,-113.287 61.5176,-123.475 70.1438,-117.324 64.4251,-113.287"/>
</g>
<!-- Node4 -->
<g id="node4" class="node"><title>Node4</title>
<g id="a_node4"><a xlink:href="../../d3/d97/interpreter_8h.xhtml" target="_top" xlink:title=" ">
<polygon fill="none" stroke="black" points="46.5,-0.5 46.5,-19.5 148.5,-19.5 148.5,-0.5 46.5,-0.5"/>
<text text-anchor="middle" x="97.5" y="-7.5" font-family="Helvetica,sans-Serif" font-size="10.00">include/interpreter.h</text>
</a>
</g>
</g>
<!-- Node3&#45;&gt;Node4 -->
<g id="edge3" class="edge"><title>Node3&#45;&gt;Node4</title>
<path fill="none" stroke="midnightblue" d="M97.5,-46.2892C97.5,-36.857 97.5,-26.6548 97.5,-19.6578"/>
<polygon fill="midnightblue" stroke="midnightblue" points="94.0001,-46.3993 97.5,-56.3993 101,-46.3994 94.0001,-46.3993"/>
</g>
<!-- Node5&#45;&gt;Node2 -->
<g id="edge6" class="edge"><title>Node5&#45;&gt;Node2</title>
<path fill="none" stroke="midnightblue" d="M114.933,-173.622C100.136,-163.757 80.9878,-150.992 68.4818,-142.655"/>
<polygon fill="midnightblue" stroke="midnightblue" points="113.224,-176.689 123.486,-179.324 117.107,-170.865 113.224,-176.689"/>
</g>
<!-- Node5&#45;&gt;Node3 -->
<g id="edge5" class="edge"><title>Node5&#45;&gt;Node3</title>
<path fill="none" stroke="midnightblue" d="M132.432,-169.342C129.375,-156.223 124.813,-138.345 119.5,-123 115.182,-110.529 109.126,-96.8288 104.461,-86.8483"/>
<polygon fill="midnightblue" stroke="midnightblue" points="129.099,-170.475 134.711,-179.461 135.928,-168.936 129.099,-170.475"/>
</g>
</g>
</svg>
