<?xml version="1.0" encoding="UTF-8" standalone="no"?>
<!DOCTYPE svg PUBLIC "-//W3C//DTD SVG 1.1//EN"
 "http://www.w3.org/Graphics/SVG/1.1/DTD/svg11.dtd">
<!-- Generated by graphviz version 2.38.0 (20140413.2041)
 -->
<!-- Title: Instructions::Float::BaseFloat Pages: 1 -->
<svg width="2963pt" height="353pt"
 viewBox="0.00 0.00 2962.50 353.00" xmlns="http://www.w3.org/2000/svg" xmlns:xlink="http://www.w3.org/1999/xlink">
<g id="graph0" class="graph" transform="scale(1 1) rotate(0) translate(4 349)">
<title>Instructions::Float::BaseFloat</title>
<!-- Node1 -->
<g id="node1" class="node"><title>Node1</title>
<g id="a_node1"><a xlink:title=" ">
<polygon fill="#bfbfbf" stroke="black" points="1415,-116.5 1415,-206.5 1519,-206.5 1519,-116.5 1415,-116.5"/>
<text text-anchor="start" x="1423" y="-194.5" font-family="Helvetica,sans-Serif" font-size="10.00">Instructions::Float</text>
<text text-anchor="middle" x="1467" y="-183.5" font-family="Helvetica,sans-Serif" font-size="10.00">::BaseFloat</text>
<polyline fill="none" stroke="black" points="1415,-176.5 1519,-176.5 "/>
<text text-anchor="middle" x="1467" y="-164.5" font-family="Helvetica,sans-Serif" font-size="10.00"> </text>
<polyline fill="none" stroke="black" points="1415,-157.5 1519,-157.5 "/>
<text text-anchor="start" x="1423" y="-145.5" font-family="Helvetica,sans-Serif" font-size="10.00">+ BaseFloat()</text>
<text text-anchor="start" x="1423" y="-134.5" font-family="Helvetica,sans-Serif" font-size="10.00">+ toBytecode()</text>
<text text-anchor="start" x="1423" y="-123.5" font-family="Helvetica,sans-Serif" font-size="10.00">+ toBytecode_json()</text>
</a>
</g>
</g>
<!-- Node3 -->
<g id="node3" class="node"><title>Node3</title>
<g id="a_node3"><a xlink:href="../../d3/d67/class_instructions_1_1_float_1_1_add.xhtml" target="_top" xlink:title=" ">
<polygon fill="none" stroke="black" points="0,-6 0,-74 118,-74 118,-6 0,-6"/>
<text text-anchor="middle" x="59" y="-62" font-family="Helvetica,sans-Serif" font-size="10.00">Instructions::Float::Add</text>
<polyline fill="none" stroke="black" points="0,-55 118,-55 "/>
<text text-anchor="middle" x="59" y="-43" font-family="Helvetica,sans-Serif" font-size="10.00"> </text>
<polyline fill="none" stroke="black" points="0,-36 118,-36 "/>
<text text-anchor="start" x="8" y="-24" font-family="Helvetica,sans-Serif" font-size="10.00">+ Add()</text>
<text text-anchor="start" x="8" y="-13" font-family="Helvetica,sans-Serif" font-size="10.00">+ execute()</text>
</a>
</g>
</g>
<!-- Node1&#45;&gt;Node3 -->
<g id="edge2" class="edge"><title>Node1&#45;&gt;Node3</title>
<path fill="none" stroke="midnightblue" d="M1404.53,-160.516C1173.86,-159.993 370.839,-152.862 127,-80 121.784,-78.4414 116.538,-76.4178 111.399,-74.1124"/>
<polygon fill="none" stroke="midnightblue" points="1404.75,-164.016 1414.76,-160.536 1404.76,-157.016 1404.75,-164.016"/>
</g>
<!-- Node4 -->
<g id="node4" class="node"><title>Node4</title>
<g id="a_node4"><a xlink:href="../../d6/db6/class_instructions_1_1_float_1_1_compare_greater.xhtml" target="_top" xlink:title=" ">
<polygon fill="none" stroke="black" points="136.5,-0.5 136.5,-79.5 239.5,-79.5 239.5,-0.5 136.5,-0.5"/>
<text text-anchor="start" x="144.5" y="-67.5" font-family="Helvetica,sans-Serif" font-size="10.00">Instructions::Float</text>
<text text-anchor="middle" x="188" y="-56.5" font-family="Helvetica,sans-Serif" font-size="10.00">::CompareGreater</text>
<polyline fill="none" stroke="black" points="136.5,-49.5 239.5,-49.5 "/>
<text text-anchor="middle" x="188" y="-37.5" font-family="Helvetica,sans-Serif" font-size="10.00"> </text>
<polyline fill="none" stroke="black" points="136.5,-30.5 239.5,-30.5 "/>
<text text-anchor="start" x="144.5" y="-18.5" font-family="Helvetica,sans-Serif" font-size="10.00">+ CompareGreater()</text>
<text text-anchor="start" x="144.5" y="-7.5" font-family="Helvetica,sans-Serif" font-size="10.00">+ execute()</text>
</a>
</g>
</g>
<!-- Node1&#45;&gt;Node4 -->
<g id="edge3" class="edge"><title>Node1&#45;&gt;Node4</title>
<path fill="none" stroke="midnightblue" d="M1404.69,-160.519C1187.59,-159.945 465.93,-152.5 248,-80 245.171,-79.0588 242.345,-77.9513 239.546,-76.7169"/>
<polygon fill="none" stroke="midnightblue" points="1404.93,-164.019 1414.94,-160.542 1404.95,-157.019 1404.93,-164.019"/>
</g>
<!-- Node5 -->
<g id="node5" class="node"><title>Node5</title>
<g id="a_node5"><a xlink:href="../../d1/db3/class_instructions_1_1_float_1_1_compare_less.xhtml" target="_top" xlink:title=" ">
<polygon fill="none" stroke="black" points="257.5,-0.5 257.5,-79.5 352.5,-79.5 352.5,-0.5 257.5,-0.5"/>
<text text-anchor="start" x="265.5" y="-67.5" font-family="Helvetica,sans-Serif" font-size="10.00">Instructions::Float</text>
<text text-anchor="middle" x="305" y="-56.5" font-family="Helvetica,sans-Serif" font-size="10.00">::CompareLess</text>
<polyline fill="none" stroke="black" points="257.5,-49.5 352.5,-49.5 "/>
<text text-anchor="middle" x="305" y="-37.5" font-family="Helvetica,sans-Serif" font-size="10.00"> </text>
<polyline fill="none" stroke="black" points="257.5,-30.5 352.5,-30.5 "/>
<text text-anchor="start" x="265.5" y="-18.5" font-family="Helvetica,sans-Serif" font-size="10.00">+ CompareLess()</text>
<text text-anchor="start" x="265.5" y="-7.5" font-family="Helvetica,sans-Serif" font-size="10.00">+ execute()</text>
</a>
</g>
</g>
<!-- Node1&#45;&gt;Node5 -->
<g id="edge4" class="edge"><title>Node1&#45;&gt;Node5</title>
<path fill="none" stroke="midnightblue" d="M1404.63,-160.276C1200.7,-158.874 555.644,-148.96 361,-80 358.208,-79.0109 355.428,-77.843 352.683,-76.5407"/>
<polygon fill="none" stroke="midnightblue" points="1404.84,-163.777 1414.86,-160.342 1404.88,-156.777 1404.84,-163.777"/>
</g>
<!-- Node6 -->
<g id="node6" class="node"><title>Node6</title>
<g id="a_node6"><a xlink:href="../../d0/d2d/class_instructions_1_1_float_1_1_const__0.xhtml" target="_top" xlink:title=" ">
<polygon fill="none" stroke="black" points="370.5,-0.5 370.5,-79.5 465.5,-79.5 465.5,-0.5 370.5,-0.5"/>
<text text-anchor="start" x="378.5" y="-67.5" font-family="Helvetica,sans-Serif" font-size="10.00">Instructions::Float</text>
<text text-anchor="middle" x="418" y="-56.5" font-family="Helvetica,sans-Serif" font-size="10.00">::Const_0</text>
<polyline fill="none" stroke="black" points="370.5,-49.5 465.5,-49.5 "/>
<text text-anchor="middle" x="418" y="-37.5" font-family="Helvetica,sans-Serif" font-size="10.00"> </text>
<polyline fill="none" stroke="black" points="370.5,-30.5 465.5,-30.5 "/>
<text text-anchor="start" x="378.5" y="-18.5" font-family="Helvetica,sans-Serif" font-size="10.00">+ Const_0()</text>
<text text-anchor="start" x="378.5" y="-7.5" font-family="Helvetica,sans-Serif" font-size="10.00">+ execute()</text>
</a>
</g>
</g>
<!-- Node1&#45;&gt;Node6 -->
<g id="edge5" class="edge"><title>Node1&#45;&gt;Node6</title>
<path fill="none" stroke="midnightblue" d="M1404.64,-159.677C1214.83,-156.51 646.64,-141.966 474,-80 471.212,-78.9994 468.435,-77.8223 465.693,-76.5127"/>
<polygon fill="none" stroke="midnightblue" points="1404.67,-163.178 1414.72,-159.84 1404.78,-156.179 1404.67,-163.178"/>
</g>
<!-- Node7 -->
<g id="node7" class="node"><title>Node7</title>
<g id="a_node7"><a xlink:href="../../dc/df9/class_instructions_1_1_float_1_1_const__1.xhtml" target="_top" xlink:title=" ">
<polygon fill="none" stroke="black" points="483.5,-0.5 483.5,-79.5 578.5,-79.5 578.5,-0.5 483.5,-0.5"/>
<text text-anchor="start" x="491.5" y="-67.5" font-family="Helvetica,sans-Serif" font-size="10.00">Instructions::Float</text>
<text text-anchor="middle" x="531" y="-56.5" font-family="Helvetica,sans-Serif" font-size="10.00">::Const_1</text>
<polyline fill="none" stroke="black" points="483.5,-49.5 578.5,-49.5 "/>
<text text-anchor="middle" x="531" y="-37.5" font-family="Helvetica,sans-Serif" font-size="10.00"> </text>
<polyline fill="none" stroke="black" points="483.5,-30.5 578.5,-30.5 "/>
<text text-anchor="start" x="491.5" y="-18.5" font-family="Helvetica,sans-Serif" font-size="10.00">+ Const_1()</text>
<text text-anchor="start" x="491.5" y="-7.5" font-family="Helvetica,sans-Serif" font-size="10.00">+ execute()</text>
</a>
</g>
</g>
<!-- Node1&#45;&gt;Node7 -->
<g id="edge6" class="edge"><title>Node1&#45;&gt;Node7</title>
<path fill="none" stroke="midnightblue" d="M1404.66,-158.927C1229.82,-153.865 737.762,-134.994 587,-80 584.217,-78.985 581.444,-77.7963 578.705,-76.4775"/>
<polygon fill="none" stroke="midnightblue" points="1404.63,-162.427 1414.72,-159.213 1404.83,-155.43 1404.63,-162.427"/>
</g>
<!-- Node8 -->
<g id="node8" class="node"><title>Node8</title>
<g id="a_node8"><a xlink:href="../../d5/d13/class_instructions_1_1_float_1_1_const__2.xhtml" target="_top" xlink:title=" ">
<polygon fill="none" stroke="black" points="596.5,-0.5 596.5,-79.5 691.5,-79.5 691.5,-0.5 596.5,-0.5"/>
<text text-anchor="start" x="604.5" y="-67.5" font-family="Helvetica,sans-Serif" font-size="10.00">Instructions::Float</text>
<text text-anchor="middle" x="644" y="-56.5" font-family="Helvetica,sans-Serif" font-size="10.00">::Const_2</text>
<polyline fill="none" stroke="black" points="596.5,-49.5 691.5,-49.5 "/>
<text text-anchor="middle" x="644" y="-37.5" font-family="Helvetica,sans-Serif" font-size="10.00"> </text>
<polyline fill="none" stroke="black" points="596.5,-30.5 691.5,-30.5 "/>
<text text-anchor="start" x="604.5" y="-18.5" font-family="Helvetica,sans-Serif" font-size="10.00">+ Const_2()</text>
<text text-anchor="start" x="604.5" y="-7.5" font-family="Helvetica,sans-Serif" font-size="10.00">+ execute()</text>
</a>
</g>
</g>
<!-- Node1&#45;&gt;Node8 -->
<g id="edge7" class="edge"><title>Node1&#45;&gt;Node8</title>
<path fill="none" stroke="midnightblue" d="M1404.83,-157.967C1246.05,-150.864 829.072,-128.06 700,-80 697.224,-78.9665 694.457,-77.7628 691.722,-76.4322"/>
<polygon fill="none" stroke="midnightblue" points="1404.76,-161.467 1414.91,-158.412 1405.07,-154.474 1404.76,-161.467"/>
</g>
<!-- Node9 -->
<g id="node9" class="node"><title>Node9</title>
<g id="a_node9"><a xlink:href="../../db/d72/class_instructions_1_1_float_1_1_div.xhtml" target="_top" xlink:title=" ">
<polygon fill="none" stroke="black" points="709.5,-6 709.5,-74 822.5,-74 822.5,-6 709.5,-6"/>
<text text-anchor="middle" x="766" y="-62" font-family="Helvetica,sans-Serif" font-size="10.00">Instructions::Float::Div</text>
<polyline fill="none" stroke="black" points="709.5,-55 822.5,-55 "/>
<text text-anchor="middle" x="766" y="-43" font-family="Helvetica,sans-Serif" font-size="10.00"> </text>
<polyline fill="none" stroke="black" points="709.5,-36 822.5,-36 "/>
<text text-anchor="start" x="717.5" y="-24" font-family="Helvetica,sans-Serif" font-size="10.00">+ Div()</text>
<text text-anchor="start" x="717.5" y="-13" font-family="Helvetica,sans-Serif" font-size="10.00">+ execute()</text>
</a>
</g>
</g>
<!-- Node1&#45;&gt;Node9 -->
<g id="edge8" class="edge"><title>Node1&#45;&gt;Node9</title>
<path fill="none" stroke="midnightblue" d="M1404.53,-161.018C1288.31,-160.166 1032.39,-149.691 831,-80 826.274,-78.3646 821.519,-76.3553 816.848,-74.1193"/>
<polygon fill="none" stroke="midnightblue" points="1404.65,-164.519 1414.67,-161.071 1404.68,-157.519 1404.65,-164.519"/>
</g>
<!-- Node10 -->
<g id="node10" class="node"><title>Node10</title>
<g id="a_node10"><a xlink:href="../../d9/d00/class_instructions_1_1_float_1_1_load__0.xhtml" target="_top" xlink:title=" ">
<polygon fill="none" stroke="black" points="840.5,-0.5 840.5,-79.5 935.5,-79.5 935.5,-0.5 840.5,-0.5"/>
<text text-anchor="start" x="848.5" y="-67.5" font-family="Helvetica,sans-Serif" font-size="10.00">Instructions::Float</text>
<text text-anchor="middle" x="888" y="-56.5" font-family="Helvetica,sans-Serif" font-size="10.00">::Load_0</text>
<polyline fill="none" stroke="black" points="840.5,-49.5 935.5,-49.5 "/>
<text text-anchor="middle" x="888" y="-37.5" font-family="Helvetica,sans-Serif" font-size="10.00"> </text>
<polyline fill="none" stroke="black" points="840.5,-30.5 935.5,-30.5 "/>
<text text-anchor="start" x="848.5" y="-18.5" font-family="Helvetica,sans-Serif" font-size="10.00">+ Load_0()</text>
<text text-anchor="start" x="848.5" y="-7.5" font-family="Helvetica,sans-Serif" font-size="10.00">+ execute()</text>
</a>
</g>
</g>
<!-- Node1&#45;&gt;Node10 -->
<g id="edge9" class="edge"><title>Node1&#45;&gt;Node10</title>
<path fill="none" stroke="midnightblue" d="M1404.57,-159.911C1304.03,-157.01 1101.55,-143.025 944,-80 941.25,-78.8999 938.503,-77.6428 935.785,-76.2697"/>
<polygon fill="none" stroke="midnightblue" points="1404.77,-163.417 1414.86,-160.179 1404.95,-156.42 1404.77,-163.417"/>
</g>
<!-- Node11 -->
<g id="node11" class="node"><title>Node11</title>
<g id="a_node11"><a xlink:href="../../de/d09/class_instructions_1_1_float_1_1_load__1.xhtml" target="_top" xlink:title=" ">
<polygon fill="none" stroke="black" points="953.5,-0.5 953.5,-79.5 1048.5,-79.5 1048.5,-0.5 953.5,-0.5"/>
<text text-anchor="start" x="961.5" y="-67.5" font-family="Helvetica,sans-Serif" font-size="10.00">Instructions::Float</text>
<text text-anchor="middle" x="1001" y="-56.5" font-family="Helvetica,sans-Serif" font-size="10.00">::Load_1</text>
<polyline fill="none" stroke="black" points="953.5,-49.5 1048.5,-49.5 "/>
<text text-anchor="middle" x="1001" y="-37.5" font-family="Helvetica,sans-Serif" font-size="10.00"> </text>
<polyline fill="none" stroke="black" points="953.5,-30.5 1048.5,-30.5 "/>
<text text-anchor="start" x="961.5" y="-18.5" font-family="Helvetica,sans-Serif" font-size="10.00">+ Load_1()</text>
<text text-anchor="start" x="961.5" y="-7.5" font-family="Helvetica,sans-Serif" font-size="10.00">+ execute()</text>
</a>
</g>
</g>
<!-- Node1&#45;&gt;Node11 -->
<g id="edge10" class="edge"><title>Node1&#45;&gt;Node11</title>
<path fill="none" stroke="midnightblue" d="M1404.62,-156.28C1322.17,-148.932 1173.72,-129.499 1057,-80 1054.16,-78.7973 1051.33,-77.4367 1048.52,-75.9625"/>
<polygon fill="none" stroke="midnightblue" points="1404.56,-159.788 1414.83,-157.158 1405.16,-152.814 1404.56,-159.788"/>
</g>
<!-- Node12 -->
<g id="node12" class="node"><title>Node12</title>
<g id="a_node12"><a xlink:href="../../d1/d50/class_instructions_1_1_float_1_1_load__2.xhtml" target="_top" xlink:title=" ">
<polygon fill="none" stroke="black" points="1066.5,-0.5 1066.5,-79.5 1161.5,-79.5 1161.5,-0.5 1066.5,-0.5"/>
<text text-anchor="start" x="1074.5" y="-67.5" font-family="Helvetica,sans-Serif" font-size="10.00">Instructions::Float</text>
<text text-anchor="middle" x="1114" y="-56.5" font-family="Helvetica,sans-Serif" font-size="10.00">::Load_2</text>
<polyline fill="none" stroke="black" points="1066.5,-49.5 1161.5,-49.5 "/>
<text text-anchor="middle" x="1114" y="-37.5" font-family="Helvetica,sans-Serif" font-size="10.00"> </text>
<polyline fill="none" stroke="black" points="1066.5,-30.5 1161.5,-30.5 "/>
<text text-anchor="start" x="1074.5" y="-18.5" font-family="Helvetica,sans-Serif" font-size="10.00">+ Load_2()</text>
<text text-anchor="start" x="1074.5" y="-7.5" font-family="Helvetica,sans-Serif" font-size="10.00">+ execute()</text>
</a>
</g>
</g>
<!-- Node1&#45;&gt;Node12 -->
<g id="edge11" class="edge"><title>Node1&#45;&gt;Node12</title>
<path fill="none" stroke="midnightblue" d="M1404.99,-150.137C1343.36,-138.374 1247.16,-115.997 1170,-80 1167.21,-78.6977 1164.41,-77.2576 1161.62,-75.7212"/>
<polygon fill="none" stroke="midnightblue" points="1404.47,-153.602 1414.95,-152.004 1405.76,-146.722 1404.47,-153.602"/>
</g>
<!-- Node13 -->
<g id="node13" class="node"><title>Node13</title>
<g id="a_node13"><a xlink:href="../../dc/d5d/class_instructions_1_1_float_1_1_load__3.xhtml" target="_top" xlink:title=" ">
<polygon fill="none" stroke="black" points="1179.5,-0.5 1179.5,-79.5 1274.5,-79.5 1274.5,-0.5 1179.5,-0.5"/>
<text text-anchor="start" x="1187.5" y="-67.5" font-family="Helvetica,sans-Serif" font-size="10.00">Instructions::Float</text>
<text text-anchor="middle" x="1227" y="-56.5" font-family="Helvetica,sans-Serif" font-size="10.00">::Load_3</text>
<polyline fill="none" stroke="black" points="1179.5,-49.5 1274.5,-49.5 "/>
<text text-anchor="middle" x="1227" y="-37.5" font-family="Helvetica,sans-Serif" font-size="10.00"> </text>
<polyline fill="none" stroke="black" points="1179.5,-30.5 1274.5,-30.5 "/>
<text text-anchor="start" x="1187.5" y="-18.5" font-family="Helvetica,sans-Serif" font-size="10.00">+ Load_3()</text>
<text text-anchor="start" x="1187.5" y="-7.5" font-family="Helvetica,sans-Serif" font-size="10.00">+ execute()</text>
</a>
</g>
</g>
<!-- Node1&#45;&gt;Node13 -->
<g id="edge12" class="edge"><title>Node1&#45;&gt;Node13</title>
<path fill="none" stroke="midnightblue" d="M1405.45,-136.771C1369.28,-122.012 1323.13,-101.745 1284,-80 1280.96,-78.3109 1277.88,-76.504 1274.8,-74.6277"/>
<polygon fill="none" stroke="midnightblue" points="1404.31,-140.086 1414.89,-140.593 1406.93,-133.597 1404.31,-140.086"/>
</g>
<!-- Node14 -->
<g id="node14" class="node"><title>Node14</title>
<g id="a_node14"><a xlink:href="../../d0/df0/class_instructions_1_1_float_1_1_load_from_array.xhtml" target="_top" xlink:title=" ">
<polygon fill="none" stroke="black" points="1293,-0.5 1293,-79.5 1391,-79.5 1391,-0.5 1293,-0.5"/>
<text text-anchor="start" x="1301" y="-67.5" font-family="Helvetica,sans-Serif" font-size="10.00">Instructions::Float</text>
<text text-anchor="middle" x="1342" y="-56.5" font-family="Helvetica,sans-Serif" font-size="10.00">::LoadFromArray</text>
<polyline fill="none" stroke="black" points="1293,-49.5 1391,-49.5 "/>
<text text-anchor="middle" x="1342" y="-37.5" font-family="Helvetica,sans-Serif" font-size="10.00"> </text>
<polyline fill="none" stroke="black" points="1293,-30.5 1391,-30.5 "/>
<text text-anchor="start" x="1301" y="-18.5" font-family="Helvetica,sans-Serif" font-size="10.00">+ LoadFromArray()</text>
<text text-anchor="start" x="1301" y="-7.5" font-family="Helvetica,sans-Serif" font-size="10.00">+ execute()</text>
</a>
</g>
</g>
<!-- Node1&#45;&gt;Node14 -->
<g id="edge13" class="edge"><title>Node1&#45;&gt;Node14</title>
<path fill="none" stroke="midnightblue" d="M1413.38,-109.243C1403.08,-99.3955 1392.45,-89.2339 1382.65,-79.8576"/>
<polygon fill="none" stroke="midnightblue" points="1411.16,-111.962 1420.81,-116.342 1416,-106.902 1411.16,-111.962"/>
</g>
<!-- Node15 -->
<g id="node15" class="node"><title>Node15</title>
<g id="a_node15"><a xlink:href="../../dd/d96/class_instructions_1_1_float_1_1_mul.xhtml" target="_top" xlink:title=" ">
<polygon fill="none" stroke="black" points="1409,-6 1409,-74 1525,-74 1525,-6 1409,-6"/>
<text text-anchor="middle" x="1467" y="-62" font-family="Helvetica,sans-Serif" font-size="10.00">Instructions::Float::Mul</text>
<polyline fill="none" stroke="black" points="1409,-55 1525,-55 "/>
<text text-anchor="middle" x="1467" y="-43" font-family="Helvetica,sans-Serif" font-size="10.00"> </text>
<polyline fill="none" stroke="black" points="1409,-36 1525,-36 "/>
<text text-anchor="start" x="1417" y="-24" font-family="Helvetica,sans-Serif" font-size="10.00">+ Mul()</text>
<text text-anchor="start" x="1417" y="-13" font-family="Helvetica,sans-Serif" font-size="10.00">+ execute()</text>
</a>
</g>
</g>
<!-- Node1&#45;&gt;Node15 -->
<g id="edge14" class="edge"><title>Node1&#45;&gt;Node15</title>
<path fill="none" stroke="midnightblue" d="M1467,-106.03C1467,-95.1504 1467,-84.0349 1467,-74.1423"/>
<polygon fill="none" stroke="midnightblue" points="1463.5,-106.342 1467,-116.342 1470.5,-106.342 1463.5,-106.342"/>
</g>
<!-- Node16 -->
<g id="node16" class="node"><title>Node16</title>
<g id="a_node16"><a xlink:href="../../de/dc2/class_instructions_1_1_float_1_1_neg.xhtml" target="_top" xlink:title=" ">
<polygon fill="none" stroke="black" points="1543,-6 1543,-74 1661,-74 1661,-6 1543,-6"/>
<text text-anchor="middle" x="1602" y="-62" font-family="Helvetica,sans-Serif" font-size="10.00">Instructions::Float::Neg</text>
<polyline fill="none" stroke="black" points="1543,-55 1661,-55 "/>
<text text-anchor="middle" x="1602" y="-43" font-family="Helvetica,sans-Serif" font-size="10.00"> </text>
<polyline fill="none" stroke="black" points="1543,-36 1661,-36 "/>
<text text-anchor="start" x="1551" y="-24" font-family="Helvetica,sans-Serif" font-size="10.00">+ Neg()</text>
<text text-anchor="start" x="1551" y="-13" font-family="Helvetica,sans-Serif" font-size="10.00">+ execute()</text>
</a>
</g>
</g>
<!-- Node1&#45;&gt;Node16 -->
<g id="edge15" class="edge"><title>Node1&#45;&gt;Node16</title>
<path fill="none" stroke="midnightblue" d="M1524.74,-109.386C1538.22,-97.4552 1552.23,-85.0548 1564.56,-74.1423"/>
<polygon fill="none" stroke="midnightblue" points="1522.05,-107.093 1516.89,-116.342 1526.69,-112.335 1522.05,-107.093"/>
</g>
<!-- Node17 -->
<g id="node17" class="node"><title>Node17</title>
<g id="a_node17"><a xlink:href="../../d6/df3/class_instructions_1_1_float_1_1_rem.xhtml" target="_top" xlink:title=" ">
<polygon fill="none" stroke="black" points="1679.5,-6 1679.5,-74 1800.5,-74 1800.5,-6 1679.5,-6"/>
<text text-anchor="middle" x="1740" y="-62" font-family="Helvetica,sans-Serif" font-size="10.00">Instructions::Float::Rem</text>
<polyline fill="none" stroke="black" points="1679.5,-55 1800.5,-55 "/>
<text text-anchor="middle" x="1740" y="-43" font-family="Helvetica,sans-Serif" font-size="10.00"> </text>
<polyline fill="none" stroke="black" points="1679.5,-36 1800.5,-36 "/>
<text text-anchor="start" x="1687.5" y="-24" font-family="Helvetica,sans-Serif" font-size="10.00">+ Rem()</text>
<text text-anchor="start" x="1687.5" y="-13" font-family="Helvetica,sans-Serif" font-size="10.00">+ execute()</text>
</a>
</g>
</g>
<!-- Node1&#45;&gt;Node17 -->
<g id="edge16" class="edge"><title>Node1&#45;&gt;Node17</title>
<path fill="none" stroke="midnightblue" d="M1528.62,-138.46C1569.33,-123.319 1623.54,-102.038 1670,-80 1673.9,-78.1517 1677.88,-76.1792 1681.86,-74.1395"/>
<polygon fill="none" stroke="midnightblue" points="1527.27,-135.229 1519.1,-141.981 1529.7,-141.795 1527.27,-135.229"/>
</g>
<!-- Node18 -->
<g id="node18" class="node"><title>Node18</title>
<g id="a_node18"><a xlink:href="../../d5/d12/class_instructions_1_1_float_1_1_return.xhtml" target="_top" xlink:title=" ">
<polygon fill="none" stroke="black" points="1818.5,-0.5 1818.5,-79.5 1913.5,-79.5 1913.5,-0.5 1818.5,-0.5"/>
<text text-anchor="start" x="1826.5" y="-67.5" font-family="Helvetica,sans-Serif" font-size="10.00">Instructions::Float</text>
<text text-anchor="middle" x="1866" y="-56.5" font-family="Helvetica,sans-Serif" font-size="10.00">::Return</text>
<polyline fill="none" stroke="black" points="1818.5,-49.5 1913.5,-49.5 "/>
<text text-anchor="middle" x="1866" y="-37.5" font-family="Helvetica,sans-Serif" font-size="10.00"> </text>
<polyline fill="none" stroke="black" points="1818.5,-30.5 1913.5,-30.5 "/>
<text text-anchor="start" x="1826.5" y="-18.5" font-family="Helvetica,sans-Serif" font-size="10.00">+ Return()</text>
<text text-anchor="start" x="1826.5" y="-7.5" font-family="Helvetica,sans-Serif" font-size="10.00">+ execute()</text>
</a>
</g>
</g>
<!-- Node1&#45;&gt;Node18 -->
<g id="edge17" class="edge"><title>Node1&#45;&gt;Node18</title>
<path fill="none" stroke="midnightblue" d="M1529.28,-153.08C1599.79,-143.067 1716.95,-121.488 1810,-80 1812.81,-78.7456 1815.63,-77.3437 1818.43,-75.8372"/>
<polygon fill="none" stroke="midnightblue" points="1528.64,-149.634 1519.22,-154.475 1529.61,-156.568 1528.64,-149.634"/>
</g>
<!-- Node19 -->
<g id="node19" class="node"><title>Node19</title>
<g id="a_node19"><a xlink:href="../../d0/d1f/class_instructions_1_1_float_1_1_store__0.xhtml" target="_top" xlink:title=" ">
<polygon fill="none" stroke="black" points="1931.5,-0.5 1931.5,-79.5 2026.5,-79.5 2026.5,-0.5 1931.5,-0.5"/>
<text text-anchor="start" x="1939.5" y="-67.5" font-family="Helvetica,sans-Serif" font-size="10.00">Instructions::Float</text>
<text text-anchor="middle" x="1979" y="-56.5" font-family="Helvetica,sans-Serif" font-size="10.00">::Store_0</text>
<polyline fill="none" stroke="black" points="1931.5,-49.5 2026.5,-49.5 "/>
<text text-anchor="middle" x="1979" y="-37.5" font-family="Helvetica,sans-Serif" font-size="10.00"> </text>
<polyline fill="none" stroke="black" points="1931.5,-30.5 2026.5,-30.5 "/>
<text text-anchor="start" x="1939.5" y="-18.5" font-family="Helvetica,sans-Serif" font-size="10.00">+ Store_0()</text>
<text text-anchor="start" x="1939.5" y="-7.5" font-family="Helvetica,sans-Serif" font-size="10.00">+ execute()</text>
</a>
</g>
</g>
<!-- Node1&#45;&gt;Node19 -->
<g id="edge18" class="edge"><title>Node1&#45;&gt;Node19</title>
<path fill="none" stroke="midnightblue" d="M1529.33,-157.968C1619.4,-152.456 1789.74,-135.016 1923,-80 1925.74,-78.8697 1928.47,-77.5883 1931.19,-76.196"/>
<polygon fill="none" stroke="midnightblue" points="1529.06,-154.477 1519.29,-158.553 1529.47,-161.466 1529.06,-154.477"/>
</g>
<!-- Node20 -->
<g id="node20" class="node"><title>Node20</title>
<g id="a_node20"><a xlink:href="../../d0/de3/class_instructions_1_1_float_1_1_store__1.xhtml" target="_top" xlink:title=" ">
<polygon fill="none" stroke="black" points="2044.5,-0.5 2044.5,-79.5 2139.5,-79.5 2139.5,-0.5 2044.5,-0.5"/>
<text text-anchor="start" x="2052.5" y="-67.5" font-family="Helvetica,sans-Serif" font-size="10.00">Instructions::Float</text>
<text text-anchor="middle" x="2092" y="-56.5" font-family="Helvetica,sans-Serif" font-size="10.00">::Store_1</text>
<polyline fill="none" stroke="black" points="2044.5,-49.5 2139.5,-49.5 "/>
<text text-anchor="middle" x="2092" y="-37.5" font-family="Helvetica,sans-Serif" font-size="10.00"> </text>
<polyline fill="none" stroke="black" points="2044.5,-30.5 2139.5,-30.5 "/>
<text text-anchor="start" x="2052.5" y="-18.5" font-family="Helvetica,sans-Serif" font-size="10.00">+ Store_1()</text>
<text text-anchor="start" x="2052.5" y="-7.5" font-family="Helvetica,sans-Serif" font-size="10.00">+ execute()</text>
</a>
</g>
</g>
<!-- Node1&#45;&gt;Node20 -->
<g id="edge19" class="edge"><title>Node1&#45;&gt;Node20</title>
<path fill="none" stroke="midnightblue" d="M1529.27,-160.998C1636.54,-159.851 1861.49,-148.578 2036,-80 2038.76,-78.9167 2041.51,-77.673 2044.23,-76.3107"/>
<polygon fill="none" stroke="midnightblue" points="1529.23,-157.498 1519.26,-161.079 1529.29,-164.497 1529.23,-157.498"/>
</g>
<!-- Node21 -->
<g id="node21" class="node"><title>Node21</title>
<g id="a_node21"><a xlink:href="../../d3/dc0/class_instructions_1_1_float_1_1_store__2.xhtml" target="_top" xlink:title=" ">
<polygon fill="none" stroke="black" points="2157.5,-0.5 2157.5,-79.5 2252.5,-79.5 2252.5,-0.5 2157.5,-0.5"/>
<text text-anchor="start" x="2165.5" y="-67.5" font-family="Helvetica,sans-Serif" font-size="10.00">Instructions::Float</text>
<text text-anchor="middle" x="2205" y="-56.5" font-family="Helvetica,sans-Serif" font-size="10.00">::Store_2</text>
<polyline fill="none" stroke="black" points="2157.5,-49.5 2252.5,-49.5 "/>
<text text-anchor="middle" x="2205" y="-37.5" font-family="Helvetica,sans-Serif" font-size="10.00"> </text>
<polyline fill="none" stroke="black" points="2157.5,-30.5 2252.5,-30.5 "/>
<text text-anchor="start" x="2165.5" y="-18.5" font-family="Helvetica,sans-Serif" font-size="10.00">+ Store_2()</text>
<text text-anchor="start" x="2165.5" y="-7.5" font-family="Helvetica,sans-Serif" font-size="10.00">+ execute()</text>
</a>
</g>
</g>
<!-- Node1&#45;&gt;Node21 -->
<g id="edge20" class="edge"><title>Node1&#45;&gt;Node21</title>
<path fill="none" stroke="midnightblue" d="M1529.35,-157.023C1675.48,-148.254 2036.21,-122.83 2149,-80 2151.77,-78.9485 2154.53,-77.7305 2157.26,-76.3885"/>
<polygon fill="none" stroke="midnightblue" points="1528.99,-153.539 1519.21,-157.626 1529.4,-160.526 1528.99,-153.539"/>
</g>
<!-- Node22 -->
<g id="node22" class="node"><title>Node22</title>
<g id="a_node22"><a xlink:href="../../d7/d58/class_instructions_1_1_float_1_1_store__3.xhtml" target="_top" xlink:title=" ">
<polygon fill="none" stroke="black" points="2270.5,-0.5 2270.5,-79.5 2365.5,-79.5 2365.5,-0.5 2270.5,-0.5"/>
<text text-anchor="start" x="2278.5" y="-67.5" font-family="Helvetica,sans-Serif" font-size="10.00">Instructions::Float</text>
<text text-anchor="middle" x="2318" y="-56.5" font-family="Helvetica,sans-Serif" font-size="10.00">::Store_3</text>
<polyline fill="none" stroke="black" points="2270.5,-49.5 2365.5,-49.5 "/>
<text text-anchor="middle" x="2318" y="-37.5" font-family="Helvetica,sans-Serif" font-size="10.00"> </text>
<polyline fill="none" stroke="black" points="2270.5,-30.5 2365.5,-30.5 "/>
<text text-anchor="start" x="2278.5" y="-18.5" font-family="Helvetica,sans-Serif" font-size="10.00">+ Store_3()</text>
<text text-anchor="start" x="2278.5" y="-7.5" font-family="Helvetica,sans-Serif" font-size="10.00">+ execute()</text>
</a>
</g>
</g>
<!-- Node1&#45;&gt;Node22 -->
<g id="edge21" class="edge"><title>Node1&#45;&gt;Node22</title>
<path fill="none" stroke="midnightblue" d="M1529.4,-158.222C1692.4,-151.632 2127.62,-129.758 2262,-80 2264.78,-78.9715 2267.55,-77.772 2270.28,-76.4446"/>
<polygon fill="none" stroke="midnightblue" points="1528.91,-154.738 1519.06,-158.634 1529.19,-161.733 1528.91,-154.738"/>
</g>
<!-- Node23 -->
<g id="node23" class="node"><title>Node23</title>
<g id="a_node23"><a xlink:href="../../df/d87/class_instructions_1_1_float_1_1_store_into_array.xhtml" target="_top" xlink:title=" ">
<polygon fill="none" stroke="black" points="2383.5,-0.5 2383.5,-79.5 2478.5,-79.5 2478.5,-0.5 2383.5,-0.5"/>
<text text-anchor="start" x="2391.5" y="-67.5" font-family="Helvetica,sans-Serif" font-size="10.00">Instructions::Float</text>
<text text-anchor="middle" x="2431" y="-56.5" font-family="Helvetica,sans-Serif" font-size="10.00">::StoreIntoArray</text>
<polyline fill="none" stroke="black" points="2383.5,-49.5 2478.5,-49.5 "/>
<text text-anchor="middle" x="2431" y="-37.5" font-family="Helvetica,sans-Serif" font-size="10.00"> </text>
<polyline fill="none" stroke="black" points="2383.5,-30.5 2478.5,-30.5 "/>
<text text-anchor="start" x="2391.5" y="-18.5" font-family="Helvetica,sans-Serif" font-size="10.00">+ StoreIntoArray()</text>
<text text-anchor="start" x="2391.5" y="-7.5" font-family="Helvetica,sans-Serif" font-size="10.00">+ execute()</text>
</a>
</g>
</g>
<!-- Node1&#45;&gt;Node23 -->
<g id="edge22" class="edge"><title>Node1&#45;&gt;Node23</title>
<path fill="none" stroke="midnightblue" d="M1529.17,-159.134C1707.63,-154.563 2218.78,-136.738 2375,-80 2377.78,-78.9889 2380.56,-77.8033 2383.3,-76.487"/>
<polygon fill="none" stroke="midnightblue" points="1529.06,-155.636 1519.15,-159.386 1529.24,-162.634 1529.06,-155.636"/>
</g>
<!-- Node24 -->
<g id="node24" class="node"><title>Node24</title>
<g id="a_node24"><a xlink:href="../../db/d68/class_instructions_1_1_float_1_1_sub.xhtml" target="_top" xlink:title=" ">
<polygon fill="none" stroke="black" points="2497,-6 2497,-74 2615,-74 2615,-6 2497,-6"/>
<text text-anchor="middle" x="2556" y="-62" font-family="Helvetica,sans-Serif" font-size="10.00">Instructions::Float::Sub</text>
<polyline fill="none" stroke="black" points="2497,-55 2615,-55 "/>
<text text-anchor="middle" x="2556" y="-43" font-family="Helvetica,sans-Serif" font-size="10.00"> </text>
<polyline fill="none" stroke="black" points="2497,-36 2615,-36 "/>
<text text-anchor="start" x="2505" y="-24" font-family="Helvetica,sans-Serif" font-size="10.00">+ Sub()</text>
<text text-anchor="start" x="2505" y="-13" font-family="Helvetica,sans-Serif" font-size="10.00">+ execute()</text>
</a>
</g>
</g>
<!-- Node1&#45;&gt;Node24 -->
<g id="edge23" class="edge"><title>Node1&#45;&gt;Node24</title>
<path fill="none" stroke="midnightblue" d="M1529.54,-159.154C1722.67,-154.438 2307.43,-135.8 2488,-80 2493.2,-78.3928 2498.44,-76.3357 2503.57,-74.0085"/>
<polygon fill="none" stroke="midnightblue" points="1529.2,-155.661 1519.29,-159.401 1529.37,-162.659 1529.2,-155.661"/>
</g>
<!-- Node25 -->
<g id="node25" class="node"><title>Node25</title>
<g id="a_node25"><a xlink:href="../../d5/d05/class_instructions_1_1_float_1_1_to_double.xhtml" target="_top" xlink:title=" ">
<polygon fill="none" stroke="black" points="2633.5,-0.5 2633.5,-79.5 2728.5,-79.5 2728.5,-0.5 2633.5,-0.5"/>
<text text-anchor="start" x="2641.5" y="-67.5" font-family="Helvetica,sans-Serif" font-size="10.00">Instructions::Float</text>
<text text-anchor="middle" x="2681" y="-56.5" font-family="Helvetica,sans-Serif" font-size="10.00">::ToDouble</text>
<polyline fill="none" stroke="black" points="2633.5,-49.5 2728.5,-49.5 "/>
<text text-anchor="middle" x="2681" y="-37.5" font-family="Helvetica,sans-Serif" font-size="10.00"> </text>
<polyline fill="none" stroke="black" points="2633.5,-30.5 2728.5,-30.5 "/>
<text text-anchor="start" x="2641.5" y="-18.5" font-family="Helvetica,sans-Serif" font-size="10.00">+ ToDouble()</text>
<text text-anchor="start" x="2641.5" y="-7.5" font-family="Helvetica,sans-Serif" font-size="10.00">+ execute()</text>
</a>
</g>
</g>
<!-- Node1&#45;&gt;Node25 -->
<g id="edge24" class="edge"><title>Node1&#45;&gt;Node25</title>
<path fill="none" stroke="midnightblue" d="M1529.36,-160.445C1739.37,-159.596 2419.1,-151.275 2624,-80 2627.17,-78.897 2630.33,-77.5687 2633.44,-76.0776"/>
<polygon fill="none" stroke="midnightblue" points="1529.12,-156.946 1519.13,-160.482 1529.14,-163.946 1529.12,-156.946"/>
</g>
<!-- Node26 -->
<g id="node26" class="node"><title>Node26</title>
<g id="a_node26"><a xlink:href="../../db/d3f/class_instructions_1_1_float_1_1_to_integer.xhtml" target="_top" xlink:title=" ">
<polygon fill="none" stroke="black" points="2746.5,-0.5 2746.5,-79.5 2841.5,-79.5 2841.5,-0.5 2746.5,-0.5"/>
<text text-anchor="start" x="2754.5" y="-67.5" font-family="Helvetica,sans-Serif" font-size="10.00">Instructions::Float</text>
<text text-anchor="middle" x="2794" y="-56.5" font-family="Helvetica,sans-Serif" font-size="10.00">::ToInteger</text>
<polyline fill="none" stroke="black" points="2746.5,-49.5 2841.5,-49.5 "/>
<text text-anchor="middle" x="2794" y="-37.5" font-family="Helvetica,sans-Serif" font-size="10.00"> </text>
<polyline fill="none" stroke="black" points="2746.5,-30.5 2841.5,-30.5 "/>
<text text-anchor="start" x="2754.5" y="-18.5" font-family="Helvetica,sans-Serif" font-size="10.00">+ ToInteger()</text>
<text text-anchor="start" x="2754.5" y="-7.5" font-family="Helvetica,sans-Serif" font-size="10.00">+ execute()</text>
</a>
</g>
</g>
<!-- Node1&#45;&gt;Node26 -->
<g id="edge25" class="edge"><title>Node1&#45;&gt;Node26</title>
<path fill="none" stroke="midnightblue" d="M1529.42,-160.963C1752.79,-161.937 2511.06,-159.203 2738,-80 2740.8,-79.024 2743.58,-77.8667 2746.33,-76.5728"/>
<polygon fill="none" stroke="midnightblue" points="1529.21,-157.462 1519.2,-160.914 1529.18,-164.462 1529.21,-157.462"/>
</g>
<!-- Node27 -->
<g id="node27" class="node"><title>Node27</title>
<g id="a_node27"><a xlink:href="../../d0/dd2/class_instructions_1_1_float_1_1_to_long.xhtml" target="_top" xlink:title=" ">
<polygon fill="none" stroke="black" points="2859.5,-0.5 2859.5,-79.5 2954.5,-79.5 2954.5,-0.5 2859.5,-0.5"/>
<text text-anchor="start" x="2867.5" y="-67.5" font-family="Helvetica,sans-Serif" font-size="10.00">Instructions::Float</text>
<text text-anchor="middle" x="2907" y="-56.5" font-family="Helvetica,sans-Serif" font-size="10.00">::ToLong</text>
<polyline fill="none" stroke="black" points="2859.5,-49.5 2954.5,-49.5 "/>
<text text-anchor="middle" x="2907" y="-37.5" font-family="Helvetica,sans-Serif" font-size="10.00"> </text>
<polyline fill="none" stroke="black" points="2859.5,-30.5 2954.5,-30.5 "/>
<text text-anchor="start" x="2867.5" y="-18.5" font-family="Helvetica,sans-Serif" font-size="10.00">+ ToLong()</text>
<text text-anchor="start" x="2867.5" y="-7.5" font-family="Helvetica,sans-Serif" font-size="10.00">+ execute()</text>
</a>
</g>
</g>
<!-- Node1&#45;&gt;Node27 -->
<g id="edge26" class="edge"><title>Node1&#45;&gt;Node27</title>
<path fill="none" stroke="midnightblue" d="M1529.43,-158.865C1782.59,-151.965 2725.16,-123.555 2851,-80 2853.8,-79.0312 2856.59,-77.8797 2859.33,-76.5904"/>
<polygon fill="none" stroke="midnightblue" points="1529.21,-155.37 1519.3,-159.14 1529.4,-162.367 1529.21,-155.37"/>
</g>
<!-- Node2 -->
<g id="node2" class="node"><title>Node2</title>
<g id="a_node2"><a xlink:href="../../d4/da8/class_instructions_1_1_instruction.xhtml" target="_top" xlink:title=" ">
<polygon fill="none" stroke="black" points="1408,-243.5 1408,-344.5 1526,-344.5 1526,-243.5 1408,-243.5"/>
<text text-anchor="middle" x="1467" y="-332.5" font-family="Helvetica,sans-Serif" font-size="10.00">Instructions::Instruction</text>
<polyline fill="none" stroke="black" points="1408,-325.5 1526,-325.5 "/>
<text text-anchor="start" x="1416" y="-313.5" font-family="Helvetica,sans-Serif" font-size="10.00">+ opcode</text>
<polyline fill="none" stroke="black" points="1408,-306.5 1526,-306.5 "/>
<text text-anchor="start" x="1416" y="-294.5" font-family="Helvetica,sans-Serif" font-size="10.00">+ Instruction()</text>
<text text-anchor="start" x="1416" y="-283.5" font-family="Helvetica,sans-Serif" font-size="10.00">+ ~Instruction()</text>
<text text-anchor="start" x="1416" y="-272.5" font-family="Helvetica,sans-Serif" font-size="10.00">+ execute()</text>
<text text-anchor="start" x="1416" y="-261.5" font-family="Helvetica,sans-Serif" font-size="10.00">+ toBytecode()</text>
<text text-anchor="start" x="1416" y="-250.5" font-family="Helvetica,sans-Serif" font-size="10.00">+ toBytecode_json()</text>
</a>
</g>
</g>
<!-- Node2&#45;&gt;Node1 -->
<g id="edge1" class="edge"><title>Node2&#45;&gt;Node1</title>
<path fill="none" stroke="midnightblue" d="M1467,-233.232C1467,-224.236 1467,-215.101 1467,-206.516"/>
<polygon fill="none" stroke="midnightblue" points="1463.5,-233.291 1467,-243.291 1470.5,-233.291 1463.5,-233.291"/>
</g>
</g>
</svg>
