<?xml version="1.0" encoding="UTF-8" standalone="no"?>
<!DOCTYPE svg PUBLIC "-//W3C//DTD SVG 1.1//EN"
 "http://www.w3.org/Graphics/SVG/1.1/DTD/svg11.dtd">
<!-- Generated by graphviz version 2.38.0 (20140413.2041)
 -->
<!-- Title: Utils::Errors::JvmException Pages: 1 -->
<svg width="142pt" height="193pt"
 viewBox="0.00 0.00 142.00 193.00" xmlns="http://www.w3.org/2000/svg" xmlns:xlink="http://www.w3.org/1999/xlink">
<g id="graph0" class="graph" transform="scale(1 1) rotate(0) translate(4 189)">
<title>Utils::Errors::JvmException</title>
<!-- Node1 -->
<g id="node1" class="node"><title>Node1</title>
<g id="a_node1"><a xlink:title=" ">
<polygon fill="#bfbfbf" stroke="black" points="0,-0.5 0,-90.5 134,-90.5 134,-0.5 0,-0.5"/>
<text text-anchor="middle" x="67" y="-78.5" font-family="Helvetica,sans-Serif" font-size="10.00">Utils::Errors::JvmException</text>
<polyline fill="none" stroke="black" points="0,-71.5 134,-71.5 "/>
<text text-anchor="middle" x="67" y="-59.5" font-family="Helvetica,sans-Serif" font-size="10.00"> </text>
<polyline fill="none" stroke="black" points="0,-52.5 134,-52.5 "/>
<text text-anchor="start" x="8" y="-40.5" font-family="Helvetica,sans-Serif" font-size="10.00">+ JvmException()</text>
<text text-anchor="start" x="8" y="-29.5" font-family="Helvetica,sans-Serif" font-size="10.00">+ what()</text>
<text text-anchor="start" x="8" y="-18.5" font-family="Helvetica,sans-Serif" font-size="10.00">+ errorCode()</text>
<text text-anchor="start" x="8" y="-7.5" font-family="Helvetica,sans-Serif" font-size="10.00">+ printStrackTrace()</text>
</a>
</g>
</g>
<!-- Node2 -->
<g id="node2" class="node"><title>Node2</title>
<g id="a_node2"><a xlink:title=" ">
<polygon fill="none" stroke="#bfbfbf" points="37.5,-127.5 37.5,-184.5 96.5,-184.5 96.5,-127.5 37.5,-127.5"/>
<text text-anchor="middle" x="67" y="-172.5" font-family="Helvetica,sans-Serif" font-size="10.00">exception</text>
<polyline fill="none" stroke="#bfbfbf" points="37.5,-165.5 96.5,-165.5 "/>
<text text-anchor="middle" x="67" y="-153.5" font-family="Helvetica,sans-Serif" font-size="10.00"> </text>
<polyline fill="none" stroke="#bfbfbf" points="37.5,-146.5 96.5,-146.5 "/>
<text text-anchor="middle" x="67" y="-134.5" font-family="Helvetica,sans-Serif" font-size="10.00"> </text>
</a>
</g>
</g>
<!-- Node2&#45;&gt;Node1 -->
<g id="edge1" class="edge"><title>Node2&#45;&gt;Node1</title>
<path fill="none" stroke="midnightblue" d="M67,-117.214C67,-108.609 67,-99.3943 67,-90.5541"/>
<polygon fill="none" stroke="midnightblue" points="63.5001,-117.34 67,-127.34 70.5001,-117.34 63.5001,-117.34"/>
</g>
</g>
</svg>
