<?xml version="1.0" encoding="UTF-8" standalone="no"?>
<!DOCTYPE svg PUBLIC "-//W3C//DTD SVG 1.1//EN"
 "http://www.w3.org/Graphics/SVG/1.1/DTD/svg11.dtd">
<!-- Generated by graphviz version 2.38.0 (20140413.2041)
 -->
<!-- Title: include/utils/reference_kind.h Pages: 1 -->
<svg width="198pt" height="386pt"
 viewBox="0.00 0.00 197.50 386.00" xmlns="http://www.w3.org/2000/svg" xmlns:xlink="http://www.w3.org/1999/xlink">
<g id="graph0" class="graph" transform="scale(1 1) rotate(0) translate(4 382)">
<title>include/utils/reference_kind.h</title>
<!-- Node1 -->
<g id="node1" class="node"><title>Node1</title>
<g id="a_node1"><a xlink:title=" ">
<polygon fill="#bfbfbf" stroke="black" points="77,-347.5 77,-377.5 188,-377.5 188,-347.5 77,-347.5"/>
<text text-anchor="start" x="85" y="-365.5" font-family="Helvetica,sans-Serif" font-size="10.00">include/utils/reference</text>
<text text-anchor="middle" x="132.5" y="-354.5" font-family="Helvetica,sans-Serif" font-size="10.00">_kind.h</text>
</a>
</g>
</g>
<!-- Node2 -->
<g id="node2" class="node"><title>Node2</title>
<g id="a_node2"><a xlink:href="../../d4/df7/array__t_8h.xhtml" target="_top" xlink:title=" ">
<polygon fill="none" stroke="black" points="36.5,-291.5 36.5,-310.5 146.5,-310.5 146.5,-291.5 36.5,-291.5"/>
<text text-anchor="middle" x="91.5" y="-298.5" font-family="Helvetica,sans-Serif" font-size="10.00">include/utils/array_t.h</text>
</a>
</g>
</g>
<!-- Node1&#45;&gt;Node2 -->
<g id="edge1" class="edge"><title>Node1&#45;&gt;Node2</title>
<path fill="none" stroke="midnightblue" d="M117.068,-339.104C110.234,-329.187 102.598,-318.106 97.4659,-310.658"/>
<polygon fill="midnightblue" stroke="midnightblue" points="114.227,-341.151 122.784,-347.399 119.991,-337.179 114.227,-341.151"/>
</g>
<!-- Node7 -->
<g id="node7" class="node"><title>Node7</title>
<g id="a_node7"><a xlink:href="../../de/d10/object_8h.xhtml" target="_top" xlink:title=" ">
<polygon fill="none" stroke="black" points="83.5,-179.5 83.5,-198.5 189.5,-198.5 189.5,-179.5 83.5,-179.5"/>
<text text-anchor="middle" x="136.5" y="-186.5" font-family="Helvetica,sans-Serif" font-size="10.00">include/utils/object.h</text>
</a>
</g>
</g>
<!-- Node1&#45;&gt;Node7 -->
<g id="edge10" class="edge"><title>Node1&#45;&gt;Node7</title>
<path fill="none" stroke="midnightblue" d="M145.536,-338.38C149.565,-330.021 153.474,-320.338 155.5,-311 164.564,-269.231 147.682,-218.459 140.009,-198.572"/>
<polygon fill="midnightblue" stroke="midnightblue" points="142.316,-336.99 140.858,-347.484 148.542,-340.189 142.316,-336.99"/>
</g>
<!-- Node3 -->
<g id="node3" class="node"><title>Node3</title>
<g id="a_node3"><a xlink:href="../../d1/d4d/field__t_8h.xhtml" target="_top" xlink:title=" ">
<polygon fill="none" stroke="black" points="3,-235.5 3,-254.5 108,-254.5 108,-235.5 3,-235.5"/>
<text text-anchor="middle" x="55.5" y="-242.5" font-family="Helvetica,sans-Serif" font-size="10.00">include/utils/field_t.h</text>
</a>
</g>
</g>
<!-- Node2&#45;&gt;Node3 -->
<g id="edge2" class="edge"><title>Node2&#45;&gt;Node3</title>
<path fill="none" stroke="midnightblue" d="M79.8771,-282.566C73.6832,-273.275 66.3323,-262.248 61.3341,-254.751"/>
<polygon fill="midnightblue" stroke="midnightblue" points="77.0961,-284.704 85.5553,-291.083 82.9205,-280.821 77.0961,-284.704"/>
</g>
<!-- Node2&#45;&gt;Node7 -->
<g id="edge9" class="edge"><title>Node2&#45;&gt;Node7</title>
<path fill="none" stroke="midnightblue" d="M102.231,-282.689C107.017,-274.496 112.471,-264.455 116.5,-255 124.831,-235.449 131.334,-211.256 134.461,-198.615"/>
<polygon fill="midnightblue" stroke="midnightblue" points="99.2001,-280.938 97.0454,-291.312 105.199,-284.546 99.2001,-280.938"/>
</g>
<!-- Node4 -->
<g id="node4" class="node"><title>Node4</title>
<g id="a_node4"><a xlink:href="../../d8/dd9/class__t_8h.xhtml" target="_top" xlink:title=" ">
<polygon fill="none" stroke="black" points="0,-123.5 0,-142.5 111,-142.5 111,-123.5 0,-123.5"/>
<text text-anchor="middle" x="55.5" y="-130.5" font-family="Helvetica,sans-Serif" font-size="10.00">include/utils/class_t.h</text>
</a>
</g>
</g>
<!-- Node3&#45;&gt;Node4 -->
<g id="edge3" class="edge"><title>Node3&#45;&gt;Node4</title>
<path fill="none" stroke="midnightblue" d="M55.5,-225.348C55.5,-201.254 55.5,-160.308 55.5,-142.591"/>
<polygon fill="midnightblue" stroke="midnightblue" points="52.0001,-225.368 55.5,-235.368 59.0001,-225.369 52.0001,-225.368"/>
</g>
<!-- Node3&#45;&gt;Node7 -->
<g id="edge6" class="edge"><title>Node3&#45;&gt;Node7</title>
<path fill="none" stroke="midnightblue" d="M77.0668,-229.622C91.864,-219.757 111.012,-206.992 123.518,-198.655"/>
<polygon fill="midnightblue" stroke="midnightblue" points="74.8931,-226.865 68.5141,-235.324 78.776,-232.689 74.8931,-226.865"/>
</g>
<!-- Node5 -->
<g id="node5" class="node"><title>Node5</title>
<g id="a_node5"><a xlink:href="../../da/ddb/heap_8h.xhtml" target="_top" xlink:title=" ">
<polygon fill="none" stroke="black" points="44,-56.5 44,-86.5 151,-86.5 151,-56.5 44,-56.5"/>
<text text-anchor="start" x="52" y="-74.5" font-family="Helvetica,sans-Serif" font-size="10.00">include/utils/memory</text>
<text text-anchor="middle" x="97.5" y="-63.5" font-family="Helvetica,sans-Serif" font-size="10.00">_areas/heap.h</text>
</a>
</g>
</g>
<!-- Node4&#45;&gt;Node5 -->
<g id="edge4" class="edge"><title>Node4&#45;&gt;Node5</title>
<path fill="none" stroke="midnightblue" d="M67.3255,-115.247C73.7212,-106.187 81.5301,-95.124 87.6014,-86.523"/>
<polygon fill="midnightblue" stroke="midnightblue" points="64.4251,-113.287 61.5176,-123.475 70.1438,-117.324 64.4251,-113.287"/>
</g>
<!-- Node6 -->
<g id="node6" class="node"><title>Node6</title>
<g id="a_node6"><a xlink:href="../../d3/d97/interpreter_8h.xhtml" target="_top" xlink:title=" ">
<polygon fill="none" stroke="black" points="46.5,-0.5 46.5,-19.5 148.5,-19.5 148.5,-0.5 46.5,-0.5"/>
<text text-anchor="middle" x="97.5" y="-7.5" font-family="Helvetica,sans-Serif" font-size="10.00">include/interpreter.h</text>
</a>
</g>
</g>
<!-- Node5&#45;&gt;Node6 -->
<g id="edge5" class="edge"><title>Node5&#45;&gt;Node6</title>
<path fill="none" stroke="midnightblue" d="M97.5,-46.2892C97.5,-36.857 97.5,-26.6548 97.5,-19.6578"/>
<polygon fill="midnightblue" stroke="midnightblue" points="94.0001,-46.3993 97.5,-56.3993 101,-46.3994 94.0001,-46.3993"/>
</g>
<!-- Node7&#45;&gt;Node4 -->
<g id="edge8" class="edge"><title>Node7&#45;&gt;Node4</title>
<path fill="none" stroke="midnightblue" d="M114.933,-173.622C100.136,-163.757 80.9878,-150.992 68.4818,-142.655"/>
<polygon fill="midnightblue" stroke="midnightblue" points="113.224,-176.689 123.486,-179.324 117.107,-170.865 113.224,-176.689"/>
</g>
<!-- Node7&#45;&gt;Node5 -->
<g id="edge7" class="edge"><title>Node7&#45;&gt;Node5</title>
<path fill="none" stroke="midnightblue" d="M132.432,-169.342C129.375,-156.223 124.813,-138.345 119.5,-123 115.182,-110.529 109.126,-96.8288 104.461,-86.8483"/>
<polygon fill="midnightblue" stroke="midnightblue" points="129.099,-170.475 134.711,-179.461 135.928,-168.936 129.099,-170.475"/>
</g>
</g>
</svg>
