<?xml version="1.0" encoding="UTF-8" standalone="no"?>
<!DOCTYPE svg PUBLIC "-//W3C//DTD SVG 1.1//EN"
 "http://www.w3.org/Graphics/SVG/1.1/DTD/svg11.dtd">
<!-- Generated by graphviz version 2.38.0 (20140413.2041)
 -->
<!-- Title: include/utils/reference_kind.h Pages: 1 -->
<svg width="160pt" height="274pt"
 viewBox="0.00 0.00 159.50 274.00" xmlns="http://www.w3.org/2000/svg" xmlns:xlink="http://www.w3.org/1999/xlink">
<g id="graph0" class="graph" transform="scale(1 1) rotate(0) translate(4 270)">
<title>include/utils/reference_kind.h</title>
<!-- Node1 -->
<g id="node1" class="node"><title>Node1</title>
<g id="a_node1"><a xlink:title=" ">
<polygon fill="#bfbfbf" stroke="black" points="40.5,-235.5 40.5,-265.5 151.5,-265.5 151.5,-235.5 40.5,-235.5"/>
<text text-anchor="start" x="48.5" y="-253.5" font-family="Helvetica,sans-Serif" font-size="10.00">include/utils/reference</text>
<text text-anchor="middle" x="96" y="-242.5" font-family="Helvetica,sans-Serif" font-size="10.00">_kind.h</text>
</a>
</g>
</g>
<!-- Node2 -->
<g id="node2" class="node"><title>Node2</title>
<g id="a_node2"><a xlink:href="../../d4/df7/array__t_8h.xhtml" target="_top" xlink:title=" ">
<polygon fill="none" stroke="black" points="0,-179.5 0,-198.5 110,-198.5 110,-179.5 0,-179.5"/>
<text text-anchor="middle" x="55" y="-186.5" font-family="Helvetica,sans-Serif" font-size="10.00">include/utils/array_t.h</text>
</a>
</g>
</g>
<!-- Node1&#45;&gt;Node2 -->
<g id="edge1" class="edge"><title>Node1&#45;&gt;Node2</title>
<path fill="none" stroke="midnightblue" d="M80.5675,-227.104C73.7338,-217.187 66.0984,-206.106 60.9659,-198.658"/>
<polygon fill="midnightblue" stroke="midnightblue" points="77.7274,-229.151 86.2836,-235.399 83.4915,-225.179 77.7274,-229.151"/>
</g>
<!-- Node3 -->
<g id="node3" class="node"><title>Node3</title>
<g id="a_node3"><a xlink:href="../../de/d10/object_8h.xhtml" target="_top" xlink:title=" ">
<polygon fill="none" stroke="black" points="43,-123.5 43,-142.5 149,-142.5 149,-123.5 43,-123.5"/>
<text text-anchor="middle" x="96" y="-130.5" font-family="Helvetica,sans-Serif" font-size="10.00">include/utils/object.h</text>
</a>
</g>
</g>
<!-- Node1&#45;&gt;Node3 -->
<g id="edge5" class="edge"><title>Node1&#45;&gt;Node3</title>
<path fill="none" stroke="midnightblue" d="M110.401,-226.249C117.112,-212.632 122.855,-195.015 119,-179 115.755,-165.522 107.755,-151.54 102.105,-142.809"/>
<polygon fill="midnightblue" stroke="midnightblue" points="107.143,-224.916 105.468,-235.377 113.301,-228.244 107.143,-224.916"/>
</g>
<!-- Node2&#45;&gt;Node3 -->
<g id="edge2" class="edge"><title>Node2&#45;&gt;Node3</title>
<path fill="none" stroke="midnightblue" d="M68.0172,-170.855C75.1167,-161.505 83.604,-150.327 89.3557,-142.751"/>
<polygon fill="midnightblue" stroke="midnightblue" points="65.0299,-169.002 61.7703,-179.083 70.605,-173.235 65.0299,-169.002"/>
</g>
<!-- Node4 -->
<g id="node4" class="node"><title>Node4</title>
<g id="a_node4"><a xlink:href="../../da/ddb/heap_8h.xhtml" target="_top" xlink:title=" ">
<polygon fill="none" stroke="black" points="42.5,-56.5 42.5,-86.5 149.5,-86.5 149.5,-56.5 42.5,-56.5"/>
<text text-anchor="start" x="50.5" y="-74.5" font-family="Helvetica,sans-Serif" font-size="10.00">include/utils/memory</text>
<text text-anchor="middle" x="96" y="-63.5" font-family="Helvetica,sans-Serif" font-size="10.00">_areas/heap.h</text>
</a>
</g>
</g>
<!-- Node3&#45;&gt;Node4 -->
<g id="edge3" class="edge"><title>Node3&#45;&gt;Node4</title>
<path fill="none" stroke="midnightblue" d="M96,-113.235C96,-104.586 96,-94.4969 96,-86.523"/>
<polygon fill="midnightblue" stroke="midnightblue" points="92.5001,-113.475 96,-123.475 99.5001,-113.475 92.5001,-113.475"/>
</g>
<!-- Node5 -->
<g id="node5" class="node"><title>Node5</title>
<g id="a_node5"><a xlink:href="../../d3/d97/interpreter_8h.xhtml" target="_top" xlink:title=" ">
<polygon fill="none" stroke="black" points="45,-0.5 45,-19.5 147,-19.5 147,-0.5 45,-0.5"/>
<text text-anchor="middle" x="96" y="-7.5" font-family="Helvetica,sans-Serif" font-size="10.00">include/interpreter.h</text>
</a>
</g>
</g>
<!-- Node4&#45;&gt;Node5 -->
<g id="edge4" class="edge"><title>Node4&#45;&gt;Node5</title>
<path fill="none" stroke="midnightblue" d="M96,-46.2892C96,-36.857 96,-26.6548 96,-19.6578"/>
<polygon fill="midnightblue" stroke="midnightblue" points="92.5001,-46.3993 96,-56.3993 99.5001,-46.3994 92.5001,-46.3993"/>
</g>
</g>
</svg>
