<?xml version="1.0" encoding="UTF-8" standalone="no"?>
<!DOCTYPE svg PUBLIC "-//W3C//DTD SVG 1.1//EN"
 "http://www.w3.org/Graphics/SVG/1.1/DTD/svg11.dtd">
<!-- Generated by graphviz version 2.38.0 (20140413.2041)
 -->
<!-- Title: Instructions::Long::Rem Pages: 1 -->
<svg width="128pt" height="342pt"
 viewBox="0.00 0.00 128.00 342.00" xmlns="http://www.w3.org/2000/svg" xmlns:xlink="http://www.w3.org/1999/xlink">
<g id="graph0" class="graph" transform="scale(1 1) rotate(0) translate(4 338)">
<title>Instructions::Long::Rem</title>
<!-- Node1 -->
<g id="node1" class="node"><title>Node1</title>
<g id="a_node1"><a xlink:title=" ">
<polygon fill="#bfbfbf" stroke="black" points="0,-0.5 0,-68.5 120,-68.5 120,-0.5 0,-0.5"/>
<text text-anchor="middle" x="60" y="-56.5" font-family="Helvetica,sans-Serif" font-size="10.00">Instructions::Long::Rem</text>
<polyline fill="none" stroke="black" points="0,-49.5 120,-49.5 "/>
<text text-anchor="middle" x="60" y="-37.5" font-family="Helvetica,sans-Serif" font-size="10.00"> </text>
<polyline fill="none" stroke="black" points="0,-30.5 120,-30.5 "/>
<text text-anchor="start" x="8" y="-18.5" font-family="Helvetica,sans-Serif" font-size="10.00">+ Rem()</text>
<text text-anchor="start" x="8" y="-7.5" font-family="Helvetica,sans-Serif" font-size="10.00">+ execute()</text>
</a>
</g>
</g>
<!-- Node2 -->
<g id="node2" class="node"><title>Node2</title>
<g id="a_node2"><a xlink:href="../../da/d32/class_instructions_1_1_long_1_1_base_long.xhtml" target="_top" xlink:title=" ">
<polygon fill="none" stroke="black" points="8,-105.5 8,-195.5 112,-195.5 112,-105.5 8,-105.5"/>
<text text-anchor="start" x="16" y="-183.5" font-family="Helvetica,sans-Serif" font-size="10.00">Instructions::Long</text>
<text text-anchor="middle" x="60" y="-172.5" font-family="Helvetica,sans-Serif" font-size="10.00">::BaseLong</text>
<polyline fill="none" stroke="black" points="8,-165.5 112,-165.5 "/>
<text text-anchor="middle" x="60" y="-153.5" font-family="Helvetica,sans-Serif" font-size="10.00"> </text>
<polyline fill="none" stroke="black" points="8,-146.5 112,-146.5 "/>
<text text-anchor="start" x="16" y="-134.5" font-family="Helvetica,sans-Serif" font-size="10.00">+ BaseLong()</text>
<text text-anchor="start" x="16" y="-123.5" font-family="Helvetica,sans-Serif" font-size="10.00">+ toBytecode()</text>
<text text-anchor="start" x="16" y="-112.5" font-family="Helvetica,sans-Serif" font-size="10.00">+ toBytecode_json()</text>
</a>
</g>
</g>
<!-- Node2&#45;&gt;Node1 -->
<g id="edge1" class="edge"><title>Node2&#45;&gt;Node1</title>
<path fill="none" stroke="midnightblue" d="M60,-95.3164C60,-86.2849 60,-77.1589 60,-68.8483"/>
<polygon fill="none" stroke="midnightblue" points="56.5001,-95.4246 60,-105.425 63.5001,-95.4247 56.5001,-95.4246"/>
</g>
<!-- Node3 -->
<g id="node3" class="node"><title>Node3</title>
<g id="a_node3"><a xlink:href="../../d4/da8/class_instructions_1_1_instruction.xhtml" target="_top" xlink:title=" ">
<polygon fill="none" stroke="black" points="1,-232.5 1,-333.5 119,-333.5 119,-232.5 1,-232.5"/>
<text text-anchor="middle" x="60" y="-321.5" font-family="Helvetica,sans-Serif" font-size="10.00">Instructions::Instruction</text>
<polyline fill="none" stroke="black" points="1,-314.5 119,-314.5 "/>
<text text-anchor="start" x="9" y="-302.5" font-family="Helvetica,sans-Serif" font-size="10.00">+ opcode</text>
<polyline fill="none" stroke="black" points="1,-295.5 119,-295.5 "/>
<text text-anchor="start" x="9" y="-283.5" font-family="Helvetica,sans-Serif" font-size="10.00">+ Instruction()</text>
<text text-anchor="start" x="9" y="-272.5" font-family="Helvetica,sans-Serif" font-size="10.00">+ ~Instruction()</text>
<text text-anchor="start" x="9" y="-261.5" font-family="Helvetica,sans-Serif" font-size="10.00">+ execute()</text>
<text text-anchor="start" x="9" y="-250.5" font-family="Helvetica,sans-Serif" font-size="10.00">+ toBytecode()</text>
<text text-anchor="start" x="9" y="-239.5" font-family="Helvetica,sans-Serif" font-size="10.00">+ toBytecode_json()</text>
</a>
</g>
</g>
<!-- Node3&#45;&gt;Node2 -->
<g id="edge2" class="edge"><title>Node3&#45;&gt;Node2</title>
<path fill="none" stroke="midnightblue" d="M60,-222.232C60,-213.236 60,-204.101 60,-195.516"/>
<polygon fill="none" stroke="midnightblue" points="56.5001,-222.291 60,-232.291 63.5001,-222.291 56.5001,-222.291"/>
</g>
</g>
</svg>
