<?xml version="1.0" encoding="UTF-8" standalone="no"?>
<!DOCTYPE svg PUBLIC "-//W3C//DTD SVG 1.1//EN"
 "http://www.w3.org/Graphics/SVG/1.1/DTD/svg11.dtd">
<!-- Generated by graphviz version 2.38.0 (20140413.2041)
 -->
<!-- Title: Utils::Attributes::InnerClasses_attribute Pages: 1 -->
<svg width="470pt" height="342pt"
 viewBox="0.00 0.00 470.00 342.00" xmlns="http://www.w3.org/2000/svg" xmlns:xlink="http://www.w3.org/1999/xlink">
<g id="graph0" class="graph" transform="scale(1 1) rotate(0) translate(4 338)">
<title>Utils::Attributes::InnerClasses_attribute</title>
<!-- Node1 -->
<g id="node1" class="node"><title>Node1</title>
<g id="a_node1"><a xlink:title=" ">
<polygon fill="#bfbfbf" stroke="black" points="175.5,-0.5 175.5,-90.5 309.5,-90.5 309.5,-0.5 175.5,-0.5"/>
<text text-anchor="start" x="183.5" y="-78.5" font-family="Helvetica,sans-Serif" font-size="10.00">Utils::Attributes::</text>
<text text-anchor="middle" x="242.5" y="-67.5" font-family="Helvetica,sans-Serif" font-size="10.00">InnerClasses_attribute</text>
<polyline fill="none" stroke="black" points="175.5,-60.5 309.5,-60.5 "/>
<text text-anchor="middle" x="242.5" y="-48.5" font-family="Helvetica,sans-Serif" font-size="10.00"> </text>
<polyline fill="none" stroke="black" points="175.5,-41.5 309.5,-41.5 "/>
<text text-anchor="start" x="183.5" y="-29.5" font-family="Helvetica,sans-Serif" font-size="10.00">+ InnerClasses_attribute()</text>
<text text-anchor="start" x="183.5" y="-18.5" font-family="Helvetica,sans-Serif" font-size="10.00">+ ~InnerClasses_attribute()</text>
<text text-anchor="start" x="183.5" y="-7.5" font-family="Helvetica,sans-Serif" font-size="10.00">+ getSpecificInfo()</text>
</a>
</g>
</g>
<!-- Node2 -->
<g id="node2" class="node"><title>Node2</title>
<g id="a_node2"><a xlink:href="../../dc/dac/class_utils_1_1_attributes_1_1_base_attribute.xhtml" target="_top" xlink:title=" ">
<polygon fill="none" stroke="black" points="76,-138.5 76,-228.5 173,-228.5 173,-138.5 76,-138.5"/>
<text text-anchor="start" x="84" y="-216.5" font-family="Helvetica,sans-Serif" font-size="10.00">Utils::Attributes::</text>
<text text-anchor="middle" x="124.5" y="-205.5" font-family="Helvetica,sans-Serif" font-size="10.00">BaseAttribute</text>
<polyline fill="none" stroke="black" points="76,-198.5 173,-198.5 "/>
<text text-anchor="middle" x="124.5" y="-186.5" font-family="Helvetica,sans-Serif" font-size="10.00"> </text>
<polyline fill="none" stroke="black" points="76,-179.5 173,-179.5 "/>
<text text-anchor="start" x="84" y="-167.5" font-family="Helvetica,sans-Serif" font-size="10.00">+ BaseAttribute()</text>
<text text-anchor="start" x="84" y="-156.5" font-family="Helvetica,sans-Serif" font-size="10.00">+ BaseAttribute()</text>
<text text-anchor="start" x="84" y="-145.5" font-family="Helvetica,sans-Serif" font-size="10.00">+ ~BaseAttribute()</text>
</a>
</g>
</g>
<!-- Node2&#45;&gt;Node1 -->
<g id="edge1" class="edge"><title>Node2&#45;&gt;Node1</title>
<path fill="none" stroke="midnightblue" d="M169.417,-130.731C180.805,-117.606 192.937,-103.623 203.977,-90.8992"/>
<polygon fill="none" stroke="midnightblue" points="166.721,-128.498 162.811,-138.345 172.008,-133.085 166.721,-128.498"/>
</g>
<!-- Node3 -->
<g id="node3" class="node"><title>Node3</title>
<g id="a_node3"><a xlink:title=" ">
<polygon fill="none" stroke="#bfbfbf" points="0,-276.5 0,-333.5 51,-333.5 51,-276.5 0,-276.5"/>
<text text-anchor="middle" x="25.5" y="-321.5" font-family="Helvetica,sans-Serif" font-size="10.00">uint32_t</text>
<polyline fill="none" stroke="#bfbfbf" points="0,-314.5 51,-314.5 "/>
<text text-anchor="middle" x="25.5" y="-302.5" font-family="Helvetica,sans-Serif" font-size="10.00"> </text>
<polyline fill="none" stroke="#bfbfbf" points="0,-295.5 51,-295.5 "/>
<text text-anchor="middle" x="25.5" y="-283.5" font-family="Helvetica,sans-Serif" font-size="10.00"> </text>
</a>
</g>
</g>
<!-- Node3&#45;&gt;Node2 -->
<g id="edge2" class="edge"><title>Node3&#45;&gt;Node2</title>
<path fill="none" stroke="#404040" d="M30.0533,-276.343C32.5967,-266.474 36.5118,-255.665 42.5,-247 48.9953,-237.601 57.3492,-229.003 66.231,-221.392"/>
<polygon fill="none" stroke="#404040" points="66.2781,-221.354 68.4405,-214.475 75.6223,-213.825 73.4599,-220.704 66.2781,-221.354"/>
<text text-anchor="middle" x="80.5" y="-250" font-family="Helvetica,sans-Serif" font-size="10.00"> +attribute_length</text>
</g>
<!-- Node4 -->
<g id="node4" class="node"><title>Node4</title>
<g id="a_node4"><a xlink:title=" ">
<polygon fill="none" stroke="#bfbfbf" points="158,-276.5 158,-333.5 209,-333.5 209,-276.5 158,-276.5"/>
<text text-anchor="middle" x="183.5" y="-321.5" font-family="Helvetica,sans-Serif" font-size="10.00">uint16_t</text>
<polyline fill="none" stroke="#bfbfbf" points="158,-314.5 209,-314.5 "/>
<text text-anchor="middle" x="183.5" y="-302.5" font-family="Helvetica,sans-Serif" font-size="10.00"> </text>
<polyline fill="none" stroke="#bfbfbf" points="158,-295.5 209,-295.5 "/>
<text text-anchor="middle" x="183.5" y="-283.5" font-family="Helvetica,sans-Serif" font-size="10.00"> </text>
</a>
</g>
</g>
<!-- Node4&#45;&gt;Node1 -->
<g id="edge5" class="edge"><title>Node4&#45;&gt;Node1</title>
<path fill="none" stroke="#404040" d="M209.134,-284.03C216.702,-276.709 224.124,-267.792 228.5,-258 250.411,-208.969 251.89,-147.107 249.112,-102.978"/>
<polygon fill="none" stroke="#404040" points="249.092,-102.709 244.659,-97.0213 248.205,-90.7419 252.637,-96.4297 249.092,-102.709"/>
<text text-anchor="middle" x="297.5" y="-181" font-family="Helvetica,sans-Serif" font-size="10.00"> +number_of_classes</text>
</g>
<!-- Node4&#45;&gt;Node2 -->
<g id="edge3" class="edge"><title>Node4&#45;&gt;Node2</title>
<path fill="none" stroke="#404040" d="M157.847,-290.758C145.694,-282.995 132.361,-271.955 125.5,-258 122.892,-252.696 121.196,-246.906 120.165,-240.979"/>
<polygon fill="none" stroke="#404040" points="120.134,-240.669 115.542,-235.109 118.908,-228.732 123.5,-234.292 120.134,-240.669"/>
<text text-anchor="middle" x="177" y="-250" font-family="Helvetica,sans-Serif" font-size="10.00"> +attribute_name_index</text>
</g>
<!-- Node5 -->
<g id="node5" class="node"><title>Node5</title>
<g id="a_node5"><a xlink:title=" ">
<polygon fill="none" stroke="#bfbfbf" points="355,-149.5 355,-217.5 462,-217.5 462,-149.5 355,-149.5"/>
<text text-anchor="start" x="363" y="-205.5" font-family="Helvetica,sans-Serif" font-size="10.00">vector&lt; innerClasses</text>
<text text-anchor="middle" x="408.5" y="-194.5" font-family="Helvetica,sans-Serif" font-size="10.00">_info &gt;</text>
<polyline fill="none" stroke="#bfbfbf" points="355,-187.5 462,-187.5 "/>
<text text-anchor="middle" x="408.5" y="-175.5" font-family="Helvetica,sans-Serif" font-size="10.00"> </text>
<polyline fill="none" stroke="#bfbfbf" points="355,-168.5 462,-168.5 "/>
<text text-anchor="middle" x="408.5" y="-156.5" font-family="Helvetica,sans-Serif" font-size="10.00"> </text>
</a>
</g>
</g>
<!-- Node5&#45;&gt;Node1 -->
<g id="edge4" class="edge"><title>Node5&#45;&gt;Node1</title>
<path fill="none" stroke="#404040" d="M367.892,-149.231C349.247,-133.955 326.701,-115.484 305.897,-98.4397"/>
<polygon fill="none" stroke="#404040" points="305.764,-98.3308 298.588,-97.6224 296.481,-90.7258 303.658,-91.4341 305.764,-98.3308"/>
<text text-anchor="middle" x="352" y="-112" font-family="Helvetica,sans-Serif" font-size="10.00"> +classes</text>
</g>
</g>
</svg>
