<?xml version="1.0" encoding="UTF-8" standalone="no"?>
<!DOCTYPE svg PUBLIC "-//W3C//DTD SVG 1.1//EN"
 "http://www.w3.org/Graphics/SVG/1.1/DTD/svg11.dtd">
<!-- Generated by graphviz version 2.38.0 (20140413.2041)
 -->
<!-- Title: BootstrapMethods_info Pages: 1 -->
<svg width="271pt" height="193pt"
 viewBox="0.00 0.00 270.50 193.00" xmlns="http://www.w3.org/2000/svg" xmlns:xlink="http://www.w3.org/1999/xlink">
<g id="graph0" class="graph" transform="scale(1 1) rotate(0) translate(4 189)">
<title>BootstrapMethods_info</title>
<!-- Node1 -->
<g id="node1" class="node"><title>Node1</title>
<g id="a_node1"><a xlink:title=" ">
<polygon fill="#bfbfbf" stroke="black" points="41.5,-0.5 41.5,-57.5 157.5,-57.5 157.5,-0.5 41.5,-0.5"/>
<text text-anchor="middle" x="99.5" y="-45.5" font-family="Helvetica,sans-Serif" font-size="10.00">BootstrapMethods_info</text>
<polyline fill="none" stroke="black" points="41.5,-38.5 157.5,-38.5 "/>
<text text-anchor="middle" x="99.5" y="-26.5" font-family="Helvetica,sans-Serif" font-size="10.00"> </text>
<polyline fill="none" stroke="black" points="41.5,-19.5 157.5,-19.5 "/>
<text text-anchor="middle" x="99.5" y="-7.5" font-family="Helvetica,sans-Serif" font-size="10.00"> </text>
</a>
</g>
</g>
<!-- Node2 -->
<g id="node2" class="node"><title>Node2</title>
<g id="a_node2"><a xlink:title=" ">
<polygon fill="none" stroke="#bfbfbf" points="0,-122 0,-179 51,-179 51,-122 0,-122"/>
<text text-anchor="middle" x="25.5" y="-167" font-family="Helvetica,sans-Serif" font-size="10.00">uint16_t</text>
<polyline fill="none" stroke="#bfbfbf" points="0,-160 51,-160 "/>
<text text-anchor="middle" x="25.5" y="-148" font-family="Helvetica,sans-Serif" font-size="10.00"> </text>
<polyline fill="none" stroke="#bfbfbf" points="0,-141 51,-141 "/>
<text text-anchor="middle" x="25.5" y="-129" font-family="Helvetica,sans-Serif" font-size="10.00"> </text>
</a>
</g>
</g>
<!-- Node2&#45;&gt;Node1 -->
<g id="edge1" class="edge"><title>Node2&#45;&gt;Node1</title>
<path fill="none" stroke="#404040" d="M19.8127,-121.684C18.292,-107.193 18.8227,-89.6912 26.5,-76 28.4782,-72.4722 30.8512,-69.1769 33.5136,-66.1042"/>
<polygon fill="none" stroke="#404040" points="33.6858,-65.9357 35.1778,-58.8806 42.264,-57.5444 40.7721,-64.5995 33.6858,-65.9357"/>
<text text-anchor="middle" x="89" y="-90" font-family="Helvetica,sans-Serif" font-size="10.00"> +num_bootstrap_arguments</text>
<text text-anchor="middle" x="89" y="-79" font-family="Helvetica,sans-Serif" font-size="10.00">+bootstrap_method_ref</text>
</g>
<!-- Node3 -->
<g id="node3" class="node"><title>Node3</title>
<g id="a_node3"><a xlink:title=" ">
<polygon fill="none" stroke="#bfbfbf" points="122,-116.5 122,-184.5 225,-184.5 225,-116.5 122,-116.5"/>
<text text-anchor="start" x="130" y="-172.5" font-family="Helvetica,sans-Serif" font-size="10.00">vector&lt; Utils::Types</text>
<text text-anchor="middle" x="173.5" y="-161.5" font-family="Helvetica,sans-Serif" font-size="10.00">::u2 &gt;</text>
<polyline fill="none" stroke="#bfbfbf" points="122,-154.5 225,-154.5 "/>
<text text-anchor="middle" x="173.5" y="-142.5" font-family="Helvetica,sans-Serif" font-size="10.00"> </text>
<polyline fill="none" stroke="#bfbfbf" points="122,-135.5 225,-135.5 "/>
<text text-anchor="middle" x="173.5" y="-123.5" font-family="Helvetica,sans-Serif" font-size="10.00"> </text>
</a>
</g>
</g>
<!-- Node3&#45;&gt;Node1 -->
<g id="edge2" class="edge"><title>Node3&#45;&gt;Node1</title>
<path fill="none" stroke="#404040" d="M167.711,-116.361C164.373,-103.097 159.247,-88.1212 151.5,-76 149.39,-72.6993 146.978,-69.4952 144.375,-66.4165"/>
<polygon fill="none" stroke="#404040" points="144.305,-66.3417 137.283,-64.6984 136.099,-57.5851 143.121,-59.2283 144.305,-66.3417"/>
<text text-anchor="middle" x="212" y="-84.5" font-family="Helvetica,sans-Serif" font-size="10.00"> +bootstrap_arguments</text>
</g>
</g>
</svg>
