<?xml version="1.0" encoding="UTF-8" standalone="no"?>
<!DOCTYPE svg PUBLIC "-//W3C//DTD SVG 1.1//EN"
 "http://www.w3.org/Graphics/SVG/1.1/DTD/svg11.dtd">
<!-- Generated by graphviz version 2.38.0 (20140413.2041)
 -->
<!-- Title: Instructions::Long::Div Pages: 1 -->
<svg width="126pt" height="449pt"
 viewBox="0.00 0.00 126.00 449.00" xmlns="http://www.w3.org/2000/svg" xmlns:xlink="http://www.w3.org/1999/xlink">
<g id="graph0" class="graph" transform="scale(1 1) rotate(0) translate(4 445)">
<title>Instructions::Long::Div</title>
<!-- Node1 -->
<g id="node1" class="node"><title>Node1</title>
<g id="a_node1"><a xlink:title=" ">
<polygon fill="#bfbfbf" stroke="black" points="2.5,-0.5 2.5,-68.5 115.5,-68.5 115.5,-0.5 2.5,-0.5"/>
<text text-anchor="middle" x="59" y="-56.5" font-family="Helvetica,sans-Serif" font-size="10.00">Instructions::Long::Div</text>
<polyline fill="none" stroke="black" points="2.5,-49.5 115.5,-49.5 "/>
<text text-anchor="middle" x="59" y="-37.5" font-family="Helvetica,sans-Serif" font-size="10.00"> </text>
<polyline fill="none" stroke="black" points="2.5,-30.5 115.5,-30.5 "/>
<text text-anchor="start" x="10.5" y="-18.5" font-family="Helvetica,sans-Serif" font-size="10.00">+ Div()</text>
<text text-anchor="start" x="10.5" y="-7.5" font-family="Helvetica,sans-Serif" font-size="10.00">+ execute()</text>
</a>
</g>
</g>
<!-- Node2 -->
<g id="node2" class="node"><title>Node2</title>
<g id="a_node2"><a xlink:href="../../da/d32/class_instructions_1_1_long_1_1_base_long.xhtml" target="_top" xlink:title=" ">
<polygon fill="none" stroke="black" points="7,-106.5 7,-196.5 111,-196.5 111,-106.5 7,-106.5"/>
<text text-anchor="start" x="15" y="-184.5" font-family="Helvetica,sans-Serif" font-size="10.00">Instructions::Long</text>
<text text-anchor="middle" x="59" y="-173.5" font-family="Helvetica,sans-Serif" font-size="10.00">::BaseLong</text>
<polyline fill="none" stroke="black" points="7,-166.5 111,-166.5 "/>
<text text-anchor="middle" x="59" y="-154.5" font-family="Helvetica,sans-Serif" font-size="10.00"> </text>
<polyline fill="none" stroke="black" points="7,-147.5 111,-147.5 "/>
<text text-anchor="start" x="15" y="-135.5" font-family="Helvetica,sans-Serif" font-size="10.00">+ BaseLong()</text>
<text text-anchor="start" x="15" y="-124.5" font-family="Helvetica,sans-Serif" font-size="10.00">+ toBytecode()</text>
<text text-anchor="start" x="15" y="-113.5" font-family="Helvetica,sans-Serif" font-size="10.00">+ toBytecode_json()</text>
</a>
</g>
</g>
<!-- Node2&#45;&gt;Node1 -->
<g id="edge1" class="edge"><title>Node2&#45;&gt;Node1</title>
<path fill="none" stroke="midnightblue" d="M59,-96.2309C59,-86.8035 59,-77.2599 59,-68.6181"/>
<polygon fill="none" stroke="midnightblue" points="55.5001,-96.3669 59,-106.367 62.5001,-96.3669 55.5001,-96.3669"/>
</g>
<!-- Node3 -->
<g id="node3" class="node"><title>Node3</title>
<g id="a_node3"><a xlink:href="../../d4/da8/class_instructions_1_1_instruction.xhtml" target="_top" xlink:title=" ">
<polygon fill="none" stroke="black" points="0,-234.5 0,-335.5 118,-335.5 118,-234.5 0,-234.5"/>
<text text-anchor="middle" x="59" y="-323.5" font-family="Helvetica,sans-Serif" font-size="10.00">Instructions::Instruction</text>
<polyline fill="none" stroke="black" points="0,-316.5 118,-316.5 "/>
<text text-anchor="middle" x="59" y="-304.5" font-family="Helvetica,sans-Serif" font-size="10.00"> </text>
<polyline fill="none" stroke="black" points="0,-297.5 118,-297.5 "/>
<text text-anchor="start" x="8" y="-285.5" font-family="Helvetica,sans-Serif" font-size="10.00">+ Instruction()</text>
<text text-anchor="start" x="8" y="-274.5" font-family="Helvetica,sans-Serif" font-size="10.00">+ ~Instruction()</text>
<text text-anchor="start" x="8" y="-263.5" font-family="Helvetica,sans-Serif" font-size="10.00">+ execute()</text>
<text text-anchor="start" x="8" y="-252.5" font-family="Helvetica,sans-Serif" font-size="10.00">+ toBytecode()</text>
<text text-anchor="start" x="8" y="-241.5" font-family="Helvetica,sans-Serif" font-size="10.00">+ toBytecode_json()</text>
</a>
</g>
</g>
<!-- Node3&#45;&gt;Node2 -->
<g id="edge2" class="edge"><title>Node3&#45;&gt;Node2</title>
<path fill="none" stroke="midnightblue" d="M59,-224.001C59,-214.8 59,-205.449 59,-196.673"/>
<polygon fill="none" stroke="midnightblue" points="55.5001,-224.285 59,-234.285 62.5001,-224.286 55.5001,-224.285"/>
</g>
<!-- Node4 -->
<g id="node4" class="node"><title>Node4</title>
<g id="a_node4"><a xlink:title=" ">
<polygon fill="none" stroke="#bfbfbf" points="44.5,-383.5 44.5,-440.5 73.5,-440.5 73.5,-383.5 44.5,-383.5"/>
<text text-anchor="middle" x="59" y="-428.5" font-family="Helvetica,sans-Serif" font-size="10.00">u1</text>
<polyline fill="none" stroke="#bfbfbf" points="44.5,-421.5 73.5,-421.5 "/>
<text text-anchor="middle" x="59" y="-409.5" font-family="Helvetica,sans-Serif" font-size="10.00"> </text>
<polyline fill="none" stroke="#bfbfbf" points="44.5,-402.5 73.5,-402.5 "/>
<text text-anchor="middle" x="59" y="-390.5" font-family="Helvetica,sans-Serif" font-size="10.00"> </text>
</a>
</g>
</g>
<!-- Node4&#45;&gt;Node3 -->
<g id="edge3" class="edge"><title>Node4&#45;&gt;Node3</title>
<path fill="none" stroke="#404040" d="M59,-383.258C59,-372.793 59,-360.422 59,-348.072"/>
<polygon fill="none" stroke="#404040" points="59.0001,-347.802 55,-341.802 59,-335.802 63,-341.802 59.0001,-347.802"/>
<text text-anchor="middle" x="79.5" y="-357" font-family="Helvetica,sans-Serif" font-size="10.00"> +opcode</text>
</g>
</g>
</svg>
