<?xml version="1.0" encoding="UTF-8" standalone="no"?>
<!DOCTYPE svg PUBLIC "-//W3C//DTD SVG 1.1//EN"
 "http://www.w3.org/Graphics/SVG/1.1/DTD/svg11.dtd">
<!-- Generated by graphviz version 2.38.0 (20140413.2041)
 -->
<!-- Title: include/utils/constantPool.h Pages: 1 -->
<svg width="1207pt" height="341pt"
 viewBox="0.00 0.00 1206.56 341.00" xmlns="http://www.w3.org/2000/svg" xmlns:xlink="http://www.w3.org/1999/xlink">
<g id="graph0" class="graph" transform="scale(1 1) rotate(0) translate(4 337)">
<title>include/utils/constantPool.h</title>
<!-- Node1 -->
<g id="node1" class="node"><title>Node1</title>
<g id="a_node1"><a xlink:title=" ">
<polygon fill="#bfbfbf" stroke="black" points="421.063,-313.5 421.063,-332.5 558.063,-332.5 558.063,-313.5 421.063,-313.5"/>
<text text-anchor="middle" x="489.563" y="-320.5" font-family="Helvetica,sans-Serif" font-size="10.00">include/utils/constantPool.h</text>
</a>
</g>
</g>
<!-- Node2 -->
<g id="node2" class="node"><title>Node2</title>
<g id="a_node2"><a xlink:href="../../d4/db4/classfile_8h.xhtml" target="_top" xlink:title=" ">
<polygon fill="none" stroke="black" points="567.563,-257.5 567.563,-276.5 661.563,-276.5 661.563,-257.5 567.563,-257.5"/>
<text text-anchor="middle" x="614.563" y="-264.5" font-family="Helvetica,sans-Serif" font-size="10.00">include/classfile.h</text>
</a>
</g>
</g>
<!-- Node1&#45;&gt;Node2 -->
<g id="edge1" class="edge"><title>Node1&#45;&gt;Node2</title>
<path fill="none" stroke="midnightblue" d="M518.805,-309.368C542.213,-299.255 574.405,-285.349 594.849,-276.516"/>
<polygon fill="midnightblue" stroke="midnightblue" points="517.162,-306.265 509.37,-313.444 519.938,-312.691 517.162,-306.265"/>
</g>
<!-- Node5 -->
<g id="node5" class="node"><title>Node5</title>
<g id="a_node5"><a xlink:href="../../d6/dda/reader_8h.xhtml" target="_top" xlink:title=" ">
<polygon fill="none" stroke="black" points="146.563,-196 146.563,-215 232.563,-215 232.563,-196 146.563,-196"/>
<text text-anchor="middle" x="189.563" y="-203" font-family="Helvetica,sans-Serif" font-size="10.00">include/reader.h</text>
</a>
</g>
</g>
<!-- Node1&#45;&gt;Node5 -->
<g id="edge23" class="edge"><title>Node1&#45;&gt;Node5</title>
<path fill="none" stroke="midnightblue" d="M457.489,-309.651C396.367,-286.119 264.611,-235.393 211.965,-215.124"/>
<polygon fill="midnightblue" stroke="midnightblue" points="456.425,-312.992 467.015,-313.319 458.94,-306.459 456.425,-312.992"/>
</g>
<!-- Node6 -->
<g id="node6" class="node"><title>Node6</title>
<g id="a_node6"><a xlink:href="../../d8/df4/helper__functions_8h.xhtml" target="_top" xlink:title=" ">
<polygon fill="none" stroke="black" points="1100.56,-190.5 1100.56,-220.5 1198.56,-220.5 1198.56,-190.5 1100.56,-190.5"/>
<text text-anchor="start" x="1108.56" y="-208.5" font-family="Helvetica,sans-Serif" font-size="10.00">include/utils/helper</text>
<text text-anchor="middle" x="1149.56" y="-197.5" font-family="Helvetica,sans-Serif" font-size="10.00">_functions.h</text>
</a>
</g>
</g>
<!-- Node1&#45;&gt;Node6 -->
<g id="edge24" class="edge"><title>Node1&#45;&gt;Node6</title>
<path fill="none" stroke="midnightblue" d="M560.327,-311.975C673.182,-295.572 900.671,-260.81 1091.56,-221 1094.41,-220.407 1097.32,-219.77 1100.26,-219.106"/>
<polygon fill="midnightblue" stroke="midnightblue" points="559.492,-308.559 550.097,-313.457 560.495,-315.487 559.492,-308.559"/>
</g>
<!-- Node14 -->
<g id="node14" class="node"><title>Node14</title>
<g id="a_node14"><a xlink:href="../../df/d7d/frame_8h.xhtml" target="_top" xlink:title=" ">
<polygon fill="none" stroke="black" points="22.5634,-257.5 22.5634,-276.5 126.563,-276.5 126.563,-257.5 22.5634,-257.5"/>
<text text-anchor="middle" x="74.5634" y="-264.5" font-family="Helvetica,sans-Serif" font-size="10.00">include/utils/frame.h</text>
</a>
</g>
</g>
<!-- Node1&#45;&gt;Node14 -->
<g id="edge15" class="edge"><title>Node1&#45;&gt;Node14</title>
<path fill="none" stroke="midnightblue" d="M413.656,-312.123C330.479,-301.3 199.273,-284.227 126.874,-274.807"/>
<polygon fill="midnightblue" stroke="midnightblue" points="413.437,-315.624 423.805,-313.444 414.341,-308.682 413.437,-315.624"/>
</g>
<!-- Node3 -->
<g id="node3" class="node"><title>Node3</title>
<g id="a_node3"><a xlink:href="../../df/d50/method__area_8h.xhtml" target="_top" xlink:title=" ">
<polygon fill="none" stroke="black" points="644.063,-123.5 644.063,-153.5 757.063,-153.5 757.063,-123.5 644.063,-123.5"/>
<text text-anchor="start" x="652.063" y="-141.5" font-family="Helvetica,sans-Serif" font-size="10.00">include/utils/memory</text>
<text text-anchor="middle" x="700.563" y="-130.5" font-family="Helvetica,sans-Serif" font-size="10.00">_areas/method_area.h</text>
</a>
</g>
</g>
<!-- Node2&#45;&gt;Node3 -->
<g id="edge2" class="edge"><title>Node2&#45;&gt;Node3</title>
<path fill="none" stroke="midnightblue" d="M643.857,-252.695C657.249,-245.197 672.185,-234.585 681.563,-221 695.677,-200.554 699.413,-171.059 700.338,-153.726"/>
<polygon fill="midnightblue" stroke="midnightblue" points="642.146,-249.64 634.919,-257.387 645.4,-255.838 642.146,-249.64"/>
</g>
<!-- Node2&#45;&gt;Node5 -->
<g id="edge4" class="edge"><title>Node2&#45;&gt;Node5</title>
<path fill="none" stroke="midnightblue" d="M557.199,-261.267C484.506,-254.749 355.549,-241.44 246.563,-221 237.932,-219.381 228.668,-217.214 220.169,-215.049"/>
<polygon fill="midnightblue" stroke="midnightblue" points="557.237,-264.784 567.506,-262.18 557.854,-257.812 557.237,-264.784"/>
</g>
<!-- Node2&#45;&gt;Node6 -->
<g id="edge5" class="edge"><title>Node2&#45;&gt;Node6</title>
<path fill="none" stroke="midnightblue" d="M671.842,-263.393C761.768,-258.673 941.325,-246.715 1091.56,-221 1094.43,-220.51 1097.36,-219.953 1100.31,-219.351"/>
<polygon fill="midnightblue" stroke="midnightblue" points="671.397,-259.911 661.589,-263.92 671.756,-266.902 671.397,-259.911"/>
</g>
<!-- Node7 -->
<g id="node7" class="node"><title>Node7</title>
<g id="a_node7"><a xlink:href="../../d8/d07/attribute_serializer_8h.xhtml" target="_top" xlink:title=" ">
<polygon fill="none" stroke="black" points="422.563,-190.5 422.563,-220.5 538.563,-220.5 538.563,-190.5 422.563,-190.5"/>
<text text-anchor="start" x="430.563" y="-208.5" font-family="Helvetica,sans-Serif" font-size="10.00">include/utils/serializers</text>
<text text-anchor="middle" x="480.563" y="-197.5" font-family="Helvetica,sans-Serif" font-size="10.00">/attributeSerializer.h</text>
</a>
</g>
</g>
<!-- Node2&#45;&gt;Node7 -->
<g id="edge7" class="edge"><title>Node2&#45;&gt;Node7</title>
<path fill="none" stroke="midnightblue" d="M586.031,-253.331C564.35,-243.704 534.542,-230.468 512.145,-220.523"/>
<polygon fill="midnightblue" stroke="midnightblue" points="584.805,-256.616 595.365,-257.475 587.645,-250.218 584.805,-256.616"/>
</g>
<!-- Node8 -->
<g id="node8" class="node"><title>Node8</title>
<g id="a_node8"><a xlink:href="../../da/d13/classfile_serializer_8h.xhtml" target="_top" xlink:title=" ">
<polygon fill="none" stroke="black" points="556.563,-190.5 556.563,-220.5 672.563,-220.5 672.563,-190.5 556.563,-190.5"/>
<text text-anchor="start" x="564.563" y="-208.5" font-family="Helvetica,sans-Serif" font-size="10.00">include/utils/serializers</text>
<text text-anchor="middle" x="614.563" y="-197.5" font-family="Helvetica,sans-Serif" font-size="10.00">/classfileSerializer.h</text>
</a>
</g>
</g>
<!-- Node2&#45;&gt;Node8 -->
<g id="edge8" class="edge"><title>Node2&#45;&gt;Node8</title>
<path fill="none" stroke="midnightblue" d="M614.563,-247.235C614.563,-238.586 614.563,-228.497 614.563,-220.523"/>
<polygon fill="midnightblue" stroke="midnightblue" points="611.064,-247.475 614.563,-257.475 618.064,-247.475 611.064,-247.475"/>
</g>
<!-- Node9 -->
<g id="node9" class="node"><title>Node9</title>
<g id="a_node9"><a xlink:href="../../d2/dbc/constpool_serializer_8h.xhtml" target="_top" xlink:title=" ">
<polygon fill="none" stroke="black" points="288.563,-190.5 288.563,-220.5 404.563,-220.5 404.563,-190.5 288.563,-190.5"/>
<text text-anchor="start" x="296.563" y="-208.5" font-family="Helvetica,sans-Serif" font-size="10.00">include/utils/serializers</text>
<text text-anchor="middle" x="346.563" y="-197.5" font-family="Helvetica,sans-Serif" font-size="10.00">/constpoolSerializer.h</text>
</a>
</g>
</g>
<!-- Node2&#45;&gt;Node9 -->
<g id="edge9" class="edge"><title>Node2&#45;&gt;Node9</title>
<path fill="none" stroke="midnightblue" d="M566.277,-255.28C520.905,-245.206 452.938,-230.117 404.628,-219.391"/>
<polygon fill="midnightblue" stroke="midnightblue" points="565.645,-258.724 576.166,-257.475 567.162,-251.891 565.645,-258.724"/>
</g>
<!-- Node10 -->
<g id="node10" class="node"><title>Node10</title>
<g id="a_node10"><a xlink:href="../../d8/d6c/instruction_serializer_8h.xhtml" target="_top" xlink:title=" ">
<polygon fill="none" stroke="black" points="255.563,-123.5 255.563,-153.5 371.563,-153.5 371.563,-123.5 255.563,-123.5"/>
<text text-anchor="start" x="263.563" y="-141.5" font-family="Helvetica,sans-Serif" font-size="10.00">include/utils/serializers</text>
<text text-anchor="middle" x="313.563" y="-130.5" font-family="Helvetica,sans-Serif" font-size="10.00">/instructionSerializer.h</text>
</a>
</g>
</g>
<!-- Node2&#45;&gt;Node10 -->
<g id="edge12" class="edge"><title>Node2&#45;&gt;Node10</title>
<path fill="none" stroke="midnightblue" d="M557.423,-266.968C471.419,-267.063 314.971,-261.482 279.563,-221 262.203,-201.151 283.519,-171.184 299.376,-153.655"/>
<polygon fill="midnightblue" stroke="midnightblue" points="557.562,-270.468 567.549,-266.93 557.536,-263.468 557.562,-270.468"/>
</g>
<!-- Node11 -->
<g id="node11" class="node"><title>Node11</title>
<g id="a_node11"><a xlink:href="../../d0/dfa/field_serializer_8h.xhtml" target="_top" xlink:title=" ">
<polygon fill="none" stroke="black" points="728.563,-190.5 728.563,-220.5 844.563,-220.5 844.563,-190.5 728.563,-190.5"/>
<text text-anchor="start" x="736.563" y="-208.5" font-family="Helvetica,sans-Serif" font-size="10.00">include/utils/serializers</text>
<text text-anchor="middle" x="786.563" y="-197.5" font-family="Helvetica,sans-Serif" font-size="10.00">/fieldSerializer.h</text>
</a>
</g>
</g>
<!-- Node2&#45;&gt;Node11 -->
<g id="edge11" class="edge"><title>Node2&#45;&gt;Node11</title>
<path fill="none" stroke="midnightblue" d="M648.954,-254.103C676.941,-244.422 716.501,-230.737 746.026,-220.523"/>
<polygon fill="midnightblue" stroke="midnightblue" points="647.513,-250.898 639.207,-257.475 649.802,-257.513 647.513,-250.898"/>
</g>
<!-- Node12 -->
<g id="node12" class="node"><title>Node12</title>
<g id="a_node12"><a xlink:href="../../de/df9/method_serializer_8h.xhtml" target="_top" xlink:title=" ">
<polygon fill="none" stroke="black" points="862.563,-190.5 862.563,-220.5 978.563,-220.5 978.563,-190.5 862.563,-190.5"/>
<text text-anchor="start" x="870.563" y="-208.5" font-family="Helvetica,sans-Serif" font-size="10.00">include/utils/serializers</text>
<text text-anchor="middle" x="920.563" y="-197.5" font-family="Helvetica,sans-Serif" font-size="10.00">/methodSerializer.h</text>
</a>
</g>
</g>
<!-- Node2&#45;&gt;Node12 -->
<g id="edge13" class="edge"><title>Node2&#45;&gt;Node12</title>
<path fill="none" stroke="midnightblue" d="M671.784,-255.675C720.254,-246.822 791.553,-233.545 853.563,-221 856.48,-220.41 859.465,-219.797 862.479,-219.171"/>
<polygon fill="midnightblue" stroke="midnightblue" points="671.009,-252.259 661.799,-257.495 672.264,-259.145 671.009,-252.259"/>
</g>
<!-- Node13 -->
<g id="node13" class="node"><title>Node13</title>
<g id="a_node13"><a xlink:href="../../dc/dba/viewer_8h.xhtml" target="_top" xlink:title=" ">
<polygon fill="none" stroke="black" points="997.063,-196 997.063,-215 1082.06,-215 1082.06,-196 997.063,-196"/>
<text text-anchor="middle" x="1039.56" y="-203" font-family="Helvetica,sans-Serif" font-size="10.00">include/viewer.h</text>
</a>
</g>
</g>
<!-- Node2&#45;&gt;Node13 -->
<g id="edge14" class="edge"><title>Node2&#45;&gt;Node13</title>
<path fill="none" stroke="midnightblue" d="M671.724,-261.818C745.288,-255.817 876.813,-242.989 987.563,-221 995.561,-219.412 1004.13,-217.229 1011.95,-215.038"/>
<polygon fill="midnightblue" stroke="midnightblue" points="671.425,-258.33 661.737,-262.62 671.985,-265.308 671.425,-258.33"/>
</g>
<!-- Node4 -->
<g id="node4" class="node"><title>Node4</title>
<g id="a_node4"><a xlink:href="../../d3/d97/interpreter_8h.xhtml" target="_top" xlink:title=" ">
<polygon fill="none" stroke="black" points="61.5634,-0.5 61.5634,-19.5 163.563,-19.5 163.563,-0.5 61.5634,-0.5"/>
<text text-anchor="middle" x="112.563" y="-7.5" font-family="Helvetica,sans-Serif" font-size="10.00">include/interpreter.h</text>
</a>
</g>
</g>
<!-- Node3&#45;&gt;Node4 -->
<g id="edge3" class="edge"><title>Node3&#45;&gt;Node4</title>
<path fill="none" stroke="midnightblue" d="M633.864,-123.151C510.765,-96.6676 251.403,-40.8695 152.254,-19.5389"/>
<polygon fill="midnightblue" stroke="midnightblue" points="633.404,-126.632 643.917,-125.313 634.876,-119.788 633.404,-126.632"/>
</g>
<!-- Node6&#45;&gt;Node3 -->
<g id="edge6" class="edge"><title>Node6&#45;&gt;Node3</title>
<path fill="none" stroke="midnightblue" d="M1090.24,-189.881C966.192,-166.892 831.558,-152.045 757.222,-144.725"/>
<polygon fill="midnightblue" stroke="midnightblue" points="1089.81,-193.363 1100.29,-191.766 1091.11,-186.483 1089.81,-193.363"/>
</g>
<!-- Node9&#45;&gt;Node10 -->
<g id="edge10" class="edge"><title>Node9&#45;&gt;Node10</title>
<path fill="none" stroke="midnightblue" d="M334.777,-181.283C330.075,-172.022 324.816,-161.663 320.71,-153.577"/>
<polygon fill="midnightblue" stroke="midnightblue" points="331.755,-183.064 339.403,-190.396 337.997,-179.895 331.755,-183.064"/>
</g>
<!-- Node14&#45;&gt;Node4 -->
<g id="edge16" class="edge"><title>Node14&#45;&gt;Node4</title>
<path fill="none" stroke="midnightblue" d="M44.7413,-252.606C32.0844,-245.234 18.6407,-234.753 11.5634,-221 -8.36678,-182.272 2.46275,-165.594 11.5634,-123 18.3806,-91.0936 20.2113,-80.6694 41.5634,-56 55.6984,-39.669 77.2201,-27.1804 92.8632,-19.5498"/>
<polygon fill="midnightblue" stroke="midnightblue" points="43.2503,-255.778 53.7161,-257.427 46.5628,-249.611 43.2503,-255.778"/>
</g>
<!-- Node15 -->
<g id="node15" class="node"><title>Node15</title>
<g id="a_node15"><a xlink:href="../../dd/d7e/java__stack_8h.xhtml" target="_top" xlink:title=" ">
<polygon fill="none" stroke="black" points="21.0634,-190.5 21.0634,-220.5 128.063,-220.5 128.063,-190.5 21.0634,-190.5"/>
<text text-anchor="start" x="29.0634" y="-208.5" font-family="Helvetica,sans-Serif" font-size="10.00">include/utils/memory</text>
<text text-anchor="middle" x="74.5634" y="-197.5" font-family="Helvetica,sans-Serif" font-size="10.00">_areas/java_stack.h</text>
</a>
</g>
</g>
<!-- Node14&#45;&gt;Node15 -->
<g id="edge17" class="edge"><title>Node14&#45;&gt;Node15</title>
<path fill="none" stroke="midnightblue" d="M74.5634,-247.235C74.5634,-238.586 74.5634,-228.497 74.5634,-220.523"/>
<polygon fill="midnightblue" stroke="midnightblue" points="71.0635,-247.475 74.5634,-257.475 78.0635,-247.475 71.0635,-247.475"/>
</g>
<!-- Node15&#45;&gt;Node4 -->
<g id="edge18" class="edge"><title>Node15&#45;&gt;Node4</title>
<path fill="none" stroke="midnightblue" d="M103.699,-184.377C114.807,-175.827 127.067,-165.238 136.563,-154 158.659,-127.852 165.83,-120.101 174.563,-87 178.078,-73.6781 180.821,-68.2746 174.563,-56 165.864,-38.9372 147.335,-26.8318 132.786,-19.5055"/>
<polygon fill="midnightblue" stroke="midnightblue" points="101.419,-181.712 95.4946,-190.496 105.603,-187.323 101.419,-181.712"/>
</g>
<!-- Node16 -->
<g id="node16" class="node"><title>Node16</title>
<g id="a_node16"><a xlink:href="../../db/dd5/thread_8h.xhtml" target="_top" xlink:title=" ">
<polygon fill="none" stroke="black" points="21.0634,-123.5 21.0634,-153.5 128.063,-153.5 128.063,-123.5 21.0634,-123.5"/>
<text text-anchor="start" x="29.0634" y="-141.5" font-family="Helvetica,sans-Serif" font-size="10.00">include/utils/memory</text>
<text text-anchor="middle" x="74.5634" y="-130.5" font-family="Helvetica,sans-Serif" font-size="10.00">_areas/thread.h</text>
</a>
</g>
</g>
<!-- Node15&#45;&gt;Node16 -->
<g id="edge19" class="edge"><title>Node15&#45;&gt;Node16</title>
<path fill="none" stroke="midnightblue" d="M74.5634,-180.108C74.5634,-171.154 74.5634,-161.323 74.5634,-153.577"/>
<polygon fill="midnightblue" stroke="midnightblue" points="71.0635,-180.396 74.5634,-190.396 78.0635,-180.396 71.0635,-180.396"/>
</g>
<!-- Node16&#45;&gt;Node4 -->
<g id="edge22" class="edge"><title>Node16&#45;&gt;Node4</title>
<path fill="none" stroke="midnightblue" d="M58.5067,-114.736C48.7641,-97.9114 39.9067,-74.7649 49.5634,-56 58.3585,-38.9095 76.9856,-26.8711 91.7161,-19.5733"/>
<polygon fill="midnightblue" stroke="midnightblue" points="55.6311,-116.739 63.8984,-123.365 61.5675,-113.03 55.6311,-116.739"/>
</g>
<!-- Node17 -->
<g id="node17" class="node"><title>Node17</title>
<g id="a_node17"><a xlink:href="../../da/ddb/heap_8h.xhtml" target="_top" xlink:title=" ">
<polygon fill="none" stroke="black" points="59.0634,-56.5 59.0634,-86.5 166.063,-86.5 166.063,-56.5 59.0634,-56.5"/>
<text text-anchor="start" x="67.0634" y="-74.5" font-family="Helvetica,sans-Serif" font-size="10.00">include/utils/memory</text>
<text text-anchor="middle" x="112.563" y="-63.5" font-family="Helvetica,sans-Serif" font-size="10.00">_areas/heap.h</text>
</a>
</g>
</g>
<!-- Node16&#45;&gt;Node17 -->
<g id="edge20" class="edge"><title>Node16&#45;&gt;Node17</title>
<path fill="none" stroke="midnightblue" d="M87.9654,-114.576C93.4228,-105.241 99.5567,-94.7483 104.334,-86.5765"/>
<polygon fill="midnightblue" stroke="midnightblue" points="84.8343,-112.997 82.8089,-123.396 90.8774,-116.529 84.8343,-112.997"/>
</g>
<!-- Node17&#45;&gt;Node4 -->
<g id="edge21" class="edge"><title>Node17&#45;&gt;Node4</title>
<path fill="none" stroke="midnightblue" d="M112.563,-46.2892C112.563,-36.857 112.563,-26.6548 112.563,-19.6578"/>
<polygon fill="midnightblue" stroke="midnightblue" points="109.064,-46.3993 112.563,-56.3993 116.064,-46.3994 109.064,-46.3993"/>
</g>
</g>
</svg>
