<?xml version="1.0" encoding="UTF-8" standalone="no"?>
<!DOCTYPE svg PUBLIC "-//W3C//DTD SVG 1.1//EN"
 "http://www.w3.org/Graphics/SVG/1.1/DTD/svg11.dtd">
<!-- Generated by graphviz version 2.38.0 (20140413.2041)
 -->
<!-- Title: include/utils/constantPool.h Pages: 1 -->
<!--zoomable 341 -->
<svg id="main" version="1.1" xmlns="http://www.w3.org/2000/svg" xmlns:xlink="http://www.w3.org/1999/xlink" xml:space="preserve" onload="init(evt)">
<style type="text/css"><![CDATA[
.edge:hover path { stroke: red; }
.edge:hover polygon { stroke: red; fill: red; }
]]></style>
<script type="text/javascript"><![CDATA[
var edges = document.getElementsByTagName('g');
if (edges && edges.length) {
  for (var i=0;i<edges.length;i++) {
    if (edges[i].id.substr(0,4)=='edge') {
      edges[i].setAttribute('class','edge');
    }
  }
}
]]></script>
        <defs>
                <circle id="rim" cx="0" cy="0" r="7"/>
                <circle id="rim2" cx="0" cy="0" r="3.5"/>
                <g id="zoomPlus">
                        <use xlink:href="#rim" fill="#404040">
                                <set attributeName="fill" to="#808080" begin="zoomplus.mouseover" end="zoomplus.mouseout"/>
                        </use>
                        <path d="M-4,0h8M0,-4v8" fill="none" stroke="white" stroke-width="1.5" pointer-events="none"/>
                </g>
                <g id="zoomMin">
                        <use xlink:href="#rim" fill="#404040">
                                <set attributeName="fill" to="#808080" begin="zoomminus.mouseover" end="zoomminus.mouseout"/>
                        </use>
                        <path d="M-4,0h8" fill="none" stroke="white" stroke-width="1.5" pointer-events="none"/>
                </g>
                <g id="dirArrow">
                        <path fill="none" stroke="white" stroke-width="1.5" d="M0,-3.0v7 M-2.5,-0.5L0,-3.0L2.5,-0.5"/>
                </g>
               <g id="resetDef">
                       <use xlink:href="#rim2" fill="#404040">
                               <set attributeName="fill" to="#808080" begin="reset.mouseover" end="reset.mouseout"/>
                       </use>
               </g>
        </defs>

<script type="text/javascript">
var viewWidth = 1238;
var viewHeight = 341;
var sectionId = 'dynsection-1';
</script>
<script xlink:href="../../svgpan.js"/>
<svg id="graph" class="graph">
<g id="viewport">
<title>include/utils/constantPool.h</title>
<!-- Node1 -->
<g id="node1" class="node"><title>Node1</title>
<g id="a_node1"><a xlink:title=" ">
<polygon fill="#bfbfbf" stroke="black" points="223.017,-313.5 223.017,-332.5 360.017,-332.5 360.017,-313.5 223.017,-313.5"/>
<text text-anchor="middle" x="291.517" y="-320.5" font-family="Helvetica,sans-Serif" font-size="10.00">include/utils/constantPool.h</text>
</a>
</g>
</g>
<!-- Node2 -->
<g id="node2" class="node"><title>Node2</title>
<g id="a_node2"><a xlink:href="../../d4/db4/classfile_8h.xhtml" target="_top" xlink:title=" ">
<polygon fill="none" stroke="black" points="580.517,-257.5 580.517,-276.5 674.517,-276.5 674.517,-257.5 580.517,-257.5"/>
<text text-anchor="middle" x="627.517" y="-264.5" font-family="Helvetica,sans-Serif" font-size="10.00">include/classfile.h</text>
</a>
</g>
</g>
<!-- Node1&#45;&gt;Node2 -->
<g id="edge1" class="edge"><title>Node1&#45;&gt;Node2</title>
<path fill="none" stroke="midnightblue" d="M354.98,-311.801C420.636,-301.249 521.643,-285.015 580.49,-275.558"/>
<polygon fill="midnightblue" stroke="midnightblue" points="354.075,-308.401 344.757,-313.444 355.186,-315.312 354.075,-308.401"/>
</g>
<!-- Node5 -->
<g id="node5" class="node"><title>Node5</title>
<g id="a_node5"><a xlink:href="../../d6/dda/reader_8h.xhtml" target="_top" xlink:title=" ">
<polygon fill="none" stroke="black" points="293.517,-196 293.517,-215 379.517,-215 379.517,-196 293.517,-196"/>
<text text-anchor="middle" x="336.517" y="-203" font-family="Helvetica,sans-Serif" font-size="10.00">include/reader.h</text>
</a>
</g>
</g>
<!-- Node1&#45;&gt;Node5 -->
<g id="edge24" class="edge"><title>Node1&#45;&gt;Node5</title>
<path fill="none" stroke="midnightblue" d="M298.591,-303.843C308.403,-278.659 325.763,-234.103 333.096,-215.282"/>
<polygon fill="midnightblue" stroke="midnightblue" points="295.269,-302.73 294.9,-313.319 301.791,-305.272 295.269,-302.73"/>
</g>
<!-- Node6 -->
<g id="node6" class="node"><title>Node6</title>
<g id="a_node6"><a xlink:href="../../d8/df4/helper__functions_8h.xhtml" target="_top" xlink:title=" ">
<polygon fill="none" stroke="black" points="177.517,-190.5 177.517,-220.5 275.517,-220.5 275.517,-190.5 177.517,-190.5"/>
<text text-anchor="start" x="185.517" y="-208.5" font-family="Helvetica,sans-Serif" font-size="10.00">include/utils/helper</text>
<text text-anchor="middle" x="226.517" y="-197.5" font-family="Helvetica,sans-Serif" font-size="10.00">_functions.h</text>
</a>
</g>
</g>
<!-- Node1&#45;&gt;Node6 -->
<g id="edge25" class="edge"><title>Node1&#45;&gt;Node6</title>
<path fill="none" stroke="midnightblue" d="M281.568,-304.322C268.625,-281.323 246.271,-241.6 234.422,-220.545"/>
<polygon fill="midnightblue" stroke="midnightblue" points="278.677,-306.321 286.632,-313.319 284.777,-302.887 278.677,-306.321"/>
</g>
<!-- Node15 -->
<g id="node15" class="node"><title>Node15</title>
<g id="a_node15"><a xlink:href="../../df/d7d/frame_8h.xhtml" target="_top" xlink:title=" ">
<polygon fill="none" stroke="black" points="97.5172,-257.5 97.5172,-276.5 201.517,-276.5 201.517,-257.5 97.5172,-257.5"/>
<text text-anchor="middle" x="149.517" y="-264.5" font-family="Helvetica,sans-Serif" font-size="10.00">include/utils/frame.h</text>
</a>
</g>
</g>
<!-- Node1&#45;&gt;Node15 -->
<g id="edge17" class="edge"><title>Node1&#45;&gt;Node15</title>
<path fill="none" stroke="midnightblue" d="M259.362,-309.772C232.689,-299.629 195.449,-285.467 171.912,-276.516"/>
<polygon fill="midnightblue" stroke="midnightblue" points="258.426,-313.16 269.017,-313.444 260.914,-306.618 258.426,-313.16"/>
</g>
<!-- Node3 -->
<g id="node3" class="node"><title>Node3</title>
<g id="a_node3"><a xlink:href="../../df/d50/method__area_8h.xhtml" target="_top" xlink:title=" ">
<polygon fill="none" stroke="black" points="256.017,-123.5 256.017,-153.5 369.017,-153.5 369.017,-123.5 256.017,-123.5"/>
<text text-anchor="start" x="264.017" y="-141.5" font-family="Helvetica,sans-Serif" font-size="10.00">include/utils/memory</text>
<text text-anchor="middle" x="312.517" y="-130.5" font-family="Helvetica,sans-Serif" font-size="10.00">_areas/method_area.h</text>
</a>
</g>
</g>
<!-- Node2&#45;&gt;Node3 -->
<g id="edge2" class="edge"><title>Node2&#45;&gt;Node3</title>
<path fill="none" stroke="midnightblue" d="M570.442,-260.355C528.884,-254.578 472.129,-243.161 426.517,-221 406.913,-211.475 406.059,-202.936 388.517,-190 370.922,-177.025 350.212,-163.364 334.858,-153.527"/>
<polygon fill="midnightblue" stroke="midnightblue" points="570.024,-263.83 580.397,-261.671 570.942,-256.89 570.024,-263.83"/>
</g>
<!-- Node2&#45;&gt;Node5 -->
<g id="edge4" class="edge"><title>Node2&#45;&gt;Node5</title>
<path fill="none" stroke="midnightblue" d="M570.196,-255.953C522.702,-247.396 453.515,-234.388 393.517,-221 385.445,-219.199 376.774,-217.086 368.692,-215.038"/>
<polygon fill="midnightblue" stroke="midnightblue" points="569.827,-259.443 580.287,-257.764 571.063,-252.553 569.827,-259.443"/>
</g>
<!-- Node2&#45;&gt;Node6 -->
<g id="edge5" class="edge"><title>Node2&#45;&gt;Node6</title>
<path fill="none" stroke="midnightblue" d="M570.235,-260.512C501.873,-253.497 384.276,-239.949 284.517,-221 281.662,-220.458 278.738,-219.86 275.793,-219.227"/>
<polygon fill="midnightblue" stroke="midnightblue" points="570.063,-264.013 580.365,-261.541 570.77,-257.049 570.063,-264.013"/>
</g>
<!-- Node8 -->
<g id="node8" class="node"><title>Node8</title>
<g id="a_node8"><a xlink:href="../../d8/d07/attribute_serializer_8h.xhtml" target="_top" xlink:title=" ">
<polygon fill="none" stroke="black" points="845.517,-190.5 845.517,-220.5 961.517,-220.5 961.517,-190.5 845.517,-190.5"/>
<text text-anchor="start" x="853.517" y="-208.5" font-family="Helvetica,sans-Serif" font-size="10.00">include/utils/serializers</text>
<text text-anchor="middle" x="903.517" y="-197.5" font-family="Helvetica,sans-Serif" font-size="10.00">/attributeSerializer.h</text>
</a>
</g>
</g>
<!-- Node2&#45;&gt;Node8 -->
<g id="edge9" class="edge"><title>Node2&#45;&gt;Node8</title>
<path fill="none" stroke="midnightblue" d="M677.05,-255.322C724.263,-245.144 795.359,-229.817 845.267,-219.058"/>
<polygon fill="midnightblue" stroke="midnightblue" points="676.099,-251.946 667.061,-257.475 677.574,-258.789 676.099,-251.946"/>
</g>
<!-- Node9 -->
<g id="node9" class="node"><title>Node9</title>
<g id="a_node9"><a xlink:href="../../da/d13/classfile_serializer_8h.xhtml" target="_top" xlink:title=" ">
<polygon fill="none" stroke="black" points="979.517,-190.5 979.517,-220.5 1095.52,-220.5 1095.52,-190.5 979.517,-190.5"/>
<text text-anchor="start" x="987.517" y="-208.5" font-family="Helvetica,sans-Serif" font-size="10.00">include/utils/serializers</text>
<text text-anchor="middle" x="1037.52" y="-197.5" font-family="Helvetica,sans-Serif" font-size="10.00">/classfileSerializer.h</text>
</a>
</g>
</g>
<!-- Node2&#45;&gt;Node9 -->
<g id="edge10" class="edge"><title>Node2&#45;&gt;Node9</title>
<path fill="none" stroke="midnightblue" d="M684.699,-259.962C752.965,-252.416 870.47,-238.358 970.517,-221 973.449,-220.491 976.447,-219.944 979.47,-219.37"/>
<polygon fill="midnightblue" stroke="midnightblue" points="684.143,-256.502 674.584,-261.072 684.906,-263.46 684.143,-256.502"/>
</g>
<!-- Node10 -->
<g id="node10" class="node"><title>Node10</title>
<g id="a_node10"><a xlink:href="../../d2/dbc/constpool_serializer_8h.xhtml" target="_top" xlink:title=" ">
<polygon fill="none" stroke="black" points="1113.52,-190.5 1113.52,-220.5 1229.52,-220.5 1229.52,-190.5 1113.52,-190.5"/>
<text text-anchor="start" x="1121.52" y="-208.5" font-family="Helvetica,sans-Serif" font-size="10.00">include/utils/serializers</text>
<text text-anchor="middle" x="1171.52" y="-197.5" font-family="Helvetica,sans-Serif" font-size="10.00">/constpoolSerializer.h</text>
</a>
</g>
</g>
<!-- Node2&#45;&gt;Node10 -->
<g id="edge11" class="edge"><title>Node2&#45;&gt;Node10</title>
<path fill="none" stroke="midnightblue" d="M685.055,-262.791C774.971,-257.277 954.086,-244.289 1104.52,-221 1107.46,-220.545 1110.46,-220.04 1113.49,-219.5"/>
<polygon fill="midnightblue" stroke="midnightblue" points="684.572,-259.314 674.802,-263.411 684.995,-266.301 684.572,-259.314"/>
</g>
<!-- Node11 -->
<g id="node11" class="node"><title>Node11</title>
<g id="a_node11"><a xlink:href="../../d8/d6c/instruction_serializer_8h.xhtml" target="_top" xlink:title=" ">
<polygon fill="none" stroke="black" points="936.517,-123.5 936.517,-153.5 1052.52,-153.5 1052.52,-123.5 936.517,-123.5"/>
<text text-anchor="start" x="944.517" y="-141.5" font-family="Helvetica,sans-Serif" font-size="10.00">include/utils/serializers</text>
<text text-anchor="middle" x="994.517" y="-130.5" font-family="Helvetica,sans-Serif" font-size="10.00">/instructionSerializer.h</text>
</a>
</g>
</g>
<!-- Node2&#45;&gt;Node11 -->
<g id="edge14" class="edge"><title>Node2&#45;&gt;Node11</title>
<path fill="none" stroke="midnightblue" d="M685.065,-256.902C719.031,-250.06 762.156,-238.749 797.517,-221 817.306,-211.067 816.986,-200.43 836.517,-190 867.762,-173.315 905.457,-161.005 936.191,-152.718"/>
<polygon fill="midnightblue" stroke="midnightblue" points="683.988,-253.546 674.837,-258.885 685.32,-260.418 683.988,-253.546"/>
</g>
<!-- Node12 -->
<g id="node12" class="node"><title>Node12</title>
<g id="a_node12"><a xlink:href="../../d0/dfa/field_serializer_8h.xhtml" target="_top" xlink:title=" ">
<polygon fill="none" stroke="black" points="435.517,-190.5 435.517,-220.5 551.517,-220.5 551.517,-190.5 435.517,-190.5"/>
<text text-anchor="start" x="443.517" y="-208.5" font-family="Helvetica,sans-Serif" font-size="10.00">include/utils/serializers</text>
<text text-anchor="middle" x="493.517" y="-197.5" font-family="Helvetica,sans-Serif" font-size="10.00">/fieldSerializer.h</text>
</a>
</g>
</g>
<!-- Node2&#45;&gt;Node12 -->
<g id="edge13" class="edge"><title>Node2&#45;&gt;Node12</title>
<path fill="none" stroke="midnightblue" d="M598.985,-253.331C577.304,-243.704 547.495,-230.468 525.098,-220.523"/>
<polygon fill="midnightblue" stroke="midnightblue" points="597.758,-256.616 608.318,-257.475 600.599,-250.218 597.758,-256.616"/>
</g>
<!-- Node13 -->
<g id="node13" class="node"><title>Node13</title>
<g id="a_node13"><a xlink:href="../../de/df9/method_serializer_8h.xhtml" target="_top" xlink:title=" ">
<polygon fill="none" stroke="black" points="569.517,-190.5 569.517,-220.5 685.517,-220.5 685.517,-190.5 569.517,-190.5"/>
<text text-anchor="start" x="577.517" y="-208.5" font-family="Helvetica,sans-Serif" font-size="10.00">include/utils/serializers</text>
<text text-anchor="middle" x="627.517" y="-197.5" font-family="Helvetica,sans-Serif" font-size="10.00">/methodSerializer.h</text>
</a>
</g>
</g>
<!-- Node2&#45;&gt;Node13 -->
<g id="edge15" class="edge"><title>Node2&#45;&gt;Node13</title>
<path fill="none" stroke="midnightblue" d="M627.517,-247.235C627.517,-238.586 627.517,-228.497 627.517,-220.523"/>
<polygon fill="midnightblue" stroke="midnightblue" points="624.017,-247.475 627.517,-257.475 631.017,-247.475 624.017,-247.475"/>
</g>
<!-- Node14 -->
<g id="node14" class="node"><title>Node14</title>
<g id="a_node14"><a xlink:href="../../dc/dba/viewer_8h.xhtml" target="_top" xlink:title=" ">
<polygon fill="none" stroke="black" points="704.017,-196 704.017,-215 789.017,-215 789.017,-196 704.017,-196"/>
<text text-anchor="middle" x="746.517" y="-203" font-family="Helvetica,sans-Serif" font-size="10.00">include/viewer.h</text>
</a>
</g>
</g>
<!-- Node2&#45;&gt;Node14 -->
<g id="edge16" class="edge"><title>Node2&#45;&gt;Node14</title>
<path fill="none" stroke="midnightblue" d="M653.784,-252.867C676.848,-241.335 709.719,-224.899 729.499,-215.009"/>
<polygon fill="midnightblue" stroke="midnightblue" points="651.946,-249.872 644.567,-257.475 655.077,-256.133 651.946,-249.872"/>
</g>
<!-- Node4 -->
<g id="node4" class="node"><title>Node4</title>
<g id="a_node4"><a xlink:href="../../d3/d97/interpreter_8h.xhtml" target="_top" xlink:title=" ">
<polygon fill="none" stroke="black" points="97.5172,-0.5 97.5172,-19.5 199.517,-19.5 199.517,-0.5 97.5172,-0.5"/>
<text text-anchor="middle" x="148.517" y="-7.5" font-family="Helvetica,sans-Serif" font-size="10.00">include/interpreter.h</text>
</a>
</g>
</g>
<!-- Node3&#45;&gt;Node4 -->
<g id="edge3" class="edge"><title>Node3&#45;&gt;Node4</title>
<path fill="none" stroke="midnightblue" d="M312.651,-113.419C311.464,-95.4219 306.96,-71.3713 292.517,-56 268.663,-30.6129 230.727,-19.4585 199.78,-14.6005"/>
<polygon fill="midnightblue" stroke="midnightblue" points="309.155,-113.592 313.019,-123.458 316.15,-113.336 309.155,-113.592"/>
</g>
<!-- Node6&#45;&gt;Node3 -->
<g id="edge8" class="edge"><title>Node6&#45;&gt;Node3</title>
<path fill="none" stroke="midnightblue" d="M253.418,-184.168C266.569,-174.228 282.067,-162.514 293.893,-153.577"/>
<polygon fill="midnightblue" stroke="midnightblue" points="251.045,-181.574 245.178,-190.396 255.266,-187.158 251.045,-181.574"/>
</g>
<!-- Node7 -->
<g id="node7" class="node"><title>Node7</title>
<g id="a_node7"><a xlink:href="../../da/ddb/heap_8h.xhtml" target="_top" xlink:title=" ">
<polygon fill="none" stroke="black" points="177.017,-56.5 177.017,-86.5 284.017,-86.5 284.017,-56.5 177.017,-56.5"/>
<text text-anchor="start" x="185.017" y="-74.5" font-family="Helvetica,sans-Serif" font-size="10.00">include/utils/memory</text>
<text text-anchor="middle" x="230.517" y="-63.5" font-family="Helvetica,sans-Serif" font-size="10.00">_areas/heap.h</text>
</a>
</g>
</g>
<!-- Node6&#45;&gt;Node7 -->
<g id="edge6" class="edge"><title>Node6&#45;&gt;Node7</title>
<path fill="none" stroke="midnightblue" d="M227.259,-180.024C228.093,-152.512 229.418,-108.789 230.092,-86.5247"/>
<polygon fill="midnightblue" stroke="midnightblue" points="223.75,-180.272 226.945,-190.374 230.747,-180.484 223.75,-180.272"/>
</g>
<!-- Node7&#45;&gt;Node4 -->
<g id="edge7" class="edge"><title>Node7&#45;&gt;Node4</title>
<path fill="none" stroke="midnightblue" d="M202.931,-50.483C188.485,-40.0013 171.544,-27.7081 160.449,-19.6578"/>
<polygon fill="midnightblue" stroke="midnightblue" points="200.935,-53.3592 211.084,-56.3993 205.046,-47.6936 200.935,-53.3592"/>
</g>
<!-- Node10&#45;&gt;Node11 -->
<g id="edge12" class="edge"><title>Node10&#45;&gt;Node11</title>
<path fill="none" stroke="midnightblue" d="M1123.37,-186.819C1094.92,-176.371 1059.39,-163.323 1032.85,-153.577"/>
<polygon fill="midnightblue" stroke="midnightblue" points="1122.52,-190.234 1133.11,-190.396 1124.93,-183.663 1122.52,-190.234"/>
</g>
<!-- Node15&#45;&gt;Node4 -->
<g id="edge18" class="edge"><title>Node15&#45;&gt;Node4</title>
<path fill="none" stroke="midnightblue" d="M149.442,-246.929C149.241,-195.621 148.694,-56.0699 148.552,-19.7408"/>
<polygon fill="midnightblue" stroke="midnightblue" points="145.944,-247.236 149.483,-257.222 152.943,-247.209 145.944,-247.236"/>
</g>
<!-- Node16 -->
<g id="node16" class="node"><title>Node16</title>
<g id="a_node16"><a xlink:href="../../dd/d7e/java__stack_8h.xhtml" target="_top" xlink:title=" ">
<polygon fill="none" stroke="black" points="14.0172,-190.5 14.0172,-220.5 121.017,-220.5 121.017,-190.5 14.0172,-190.5"/>
<text text-anchor="start" x="22.0172" y="-208.5" font-family="Helvetica,sans-Serif" font-size="10.00">include/utils/memory</text>
<text text-anchor="middle" x="67.5172" y="-197.5" font-family="Helvetica,sans-Serif" font-size="10.00">_areas/java_stack.h</text>
</a>
</g>
</g>
<!-- Node15&#45;&gt;Node16 -->
<g id="edge19" class="edge"><title>Node15&#45;&gt;Node16</title>
<path fill="none" stroke="midnightblue" d="M129.49,-251.468C116.507,-242.047 99.6844,-229.841 86.843,-220.523"/>
<polygon fill="midnightblue" stroke="midnightblue" points="127.619,-254.435 137.769,-257.475 131.73,-248.769 127.619,-254.435"/>
</g>
<!-- Node16&#45;&gt;Node4 -->
<g id="edge20" class="edge"><title>Node16&#45;&gt;Node4</title>
<path fill="none" stroke="midnightblue" d="M31.9445,-184.692C21.0912,-176.691 10.4631,-166.386 4.51724,-154 -1.44514,-141.579 -1.53605,-135.377 4.51724,-123 30.4686,-69.9388 95.0339,-34.7471 128.178,-19.5499"/>
<polygon fill="midnightblue" stroke="midnightblue" points="29.9865,-187.593 40.2143,-190.358 33.9429,-181.818 29.9865,-187.593"/>
</g>
<!-- Node17 -->
<g id="node17" class="node"><title>Node17</title>
<g id="a_node17"><a xlink:href="../../db/dd5/thread_8h.xhtml" target="_top" xlink:title=" ">
<polygon fill="none" stroke="black" points="14.0172,-123.5 14.0172,-153.5 121.017,-153.5 121.017,-123.5 14.0172,-123.5"/>
<text text-anchor="start" x="22.0172" y="-141.5" font-family="Helvetica,sans-Serif" font-size="10.00">include/utils/memory</text>
<text text-anchor="middle" x="67.5172" y="-130.5" font-family="Helvetica,sans-Serif" font-size="10.00">_areas/thread.h</text>
</a>
</g>
</g>
<!-- Node16&#45;&gt;Node17 -->
<g id="edge21" class="edge"><title>Node16&#45;&gt;Node17</title>
<path fill="none" stroke="midnightblue" d="M67.5172,-180.108C67.5172,-171.154 67.5172,-161.323 67.5172,-153.577"/>
<polygon fill="midnightblue" stroke="midnightblue" points="64.0173,-180.396 67.5172,-190.396 71.0173,-180.396 64.0173,-180.396"/>
</g>
<!-- Node17&#45;&gt;Node4 -->
<g id="edge23" class="edge"><title>Node17&#45;&gt;Node4</title>
<path fill="none" stroke="midnightblue" d="M81.9228,-115.002C100.075,-86.6531 130.408,-39.2817 142.89,-19.7885"/>
<polygon fill="midnightblue" stroke="midnightblue" points="78.9401,-113.17 76.4951,-123.479 84.8351,-116.945 78.9401,-113.17"/>
</g>
<!-- Node17&#45;&gt;Node7 -->
<g id="edge22" class="edge"><title>Node17&#45;&gt;Node7</title>
<path fill="none" stroke="midnightblue" d="M112.201,-119.682C138.343,-109.257 170.883,-96.2805 195.218,-86.5765"/>
<polygon fill="midnightblue" stroke="midnightblue" points="110.878,-116.441 102.886,-123.396 113.471,-122.943 110.878,-116.441"/>
</g>
</g>
</svg>
        <g id="navigator" transform="translate(0 0)" fill="#404254">
                <rect fill="#f2f5e9" fill-opacity="0.5" stroke="#606060" stroke-width=".5" x="0" y="0" width="60" height="60"/>
                <use id="zoomplus" xlink:href="#zoomPlus" x="17" y="9" onmousedown="handleZoom(evt,'in')"/>
                <use id="zoomminus" xlink:href="#zoomMin" x="42" y="9" onmousedown="handleZoom(evt,'out')"/>
                <use id="reset" xlink:href="#resetDef" x="30" y="36" onmousedown="handleReset()"/>
                <g id="arrowUp" xlink:href="#dirArrow" transform="translate(30 24)" onmousedown="handlePan(0,-1)">
                  <use xlink:href="#rim" fill="#404040">
                        <set attributeName="fill" to="#808080" begin="arrowUp.mouseover" end="arrowUp.mouseout"/>
                  </use>
                  <path fill="none" stroke="white" stroke-width="1.5" d="M0,-3.0v7 M-2.5,-0.5L0,-3.0L2.5,-0.5"/>
                </g>
                <g id="arrowRight" xlink:href="#dirArrow" transform="rotate(90) translate(36 -43)" onmousedown="handlePan(1,0)">
                  <use xlink:href="#rim" fill="#404040">
                        <set attributeName="fill" to="#808080" begin="arrowRight.mouseover" end="arrowRight.mouseout"/>
                  </use>
                  <path fill="none" stroke="white" stroke-width="1.5" d="M0,-3.0v7 M-2.5,-0.5L0,-3.0L2.5,-0.5"/>
                </g>
                <g id="arrowDown" xlink:href="#dirArrow" transform="rotate(180) translate(-30 -48)" onmousedown="handlePan(0,1)">
                  <use xlink:href="#rim" fill="#404040">
                        <set attributeName="fill" to="#808080" begin="arrowDown.mouseover" end="arrowDown.mouseout"/>
                  </use>
                  <path fill="none" stroke="white" stroke-width="1.5" d="M0,-3.0v7 M-2.5,-0.5L0,-3.0L2.5,-0.5"/>
                </g>
                <g id="arrowLeft" xlink:href="#dirArrow" transform="rotate(270) translate(-36 17)" onmousedown="handlePan(-1,0)">
                  <use xlink:href="#rim" fill="#404040">
                        <set attributeName="fill" to="#808080" begin="arrowLeft.mouseover" end="arrowLeft.mouseout"/>
                  </use>
                  <path fill="none" stroke="white" stroke-width="1.5" d="M0,-3.0v7 M-2.5,-0.5L0,-3.0L2.5,-0.5"/>
                </g>
        </g>
        <svg viewBox="0 0 15 15" width="100%" height="30px" preserveAspectRatio="xMaxYMin meet">
         <g id="arrow_out" transform="scale(0.3 0.3)">
          <a xlink:href="constant_pool_8h__dep__incl_org.svg" target="_base">
           <rect id="button" ry="5" rx="5" y="6" x="6" height="38" width="38"
                fill="#f2f5e9" fill-opacity="0.5" stroke="#606060" stroke-width="1.0"/>
           <path id="arrow"
             d="M 11.500037,31.436501 C 11.940474,20.09759 22.043105,11.32322 32.158766,21.979434 L 37.068811,17.246167 C 37.068811,17.246167 37.088388,32 37.088388,32 L 22.160133,31.978069 C 22.160133,31.978069 26.997745,27.140456 26.997745,27.140456 C 18.528582,18.264221 13.291696,25.230495 11.500037,31.436501 z"
             style="fill:#404040;"/>
          </a>
         </g>
        </svg>
</svg>
