<?xml version="1.0" encoding="UTF-8" standalone="no"?>
<!DOCTYPE svg PUBLIC "-//W3C//DTD SVG 1.1//EN"
 "http://www.w3.org/Graphics/SVG/1.1/DTD/svg11.dtd">
<!-- Generated by graphviz version 2.38.0 (20140413.2041)
 -->
<!-- Title: nlohmann::detail::conjunction&lt; B1, Bn... &gt; Pages: 1 -->
<svg width="151pt" height="193pt"
 viewBox="0.00 0.00 151.00 193.00" xmlns="http://www.w3.org/2000/svg" xmlns:xlink="http://www.w3.org/1999/xlink">
<g id="graph0" class="graph" transform="scale(1 1) rotate(0) translate(4 189)">
<title>nlohmann::detail::conjunction&lt; B1, Bn... &gt;</title>
<!-- Node1 -->
<g id="node1" class="node"><title>Node1</title>
<g id="a_node1"><a xlink:title=" ">
<polygon fill="#bfbfbf" stroke="black" points="0,-0.5 0,-68.5 143,-68.5 143,-0.5 0,-0.5"/>
<text text-anchor="start" x="8" y="-56.5" font-family="Helvetica,sans-Serif" font-size="10.00">nlohmann::detail::conjunction</text>
<text text-anchor="middle" x="71.5" y="-45.5" font-family="Helvetica,sans-Serif" font-size="10.00">&lt; B1, Bn... &gt;</text>
<polyline fill="none" stroke="black" points="0,-38.5 143,-38.5 "/>
<text text-anchor="middle" x="71.5" y="-26.5" font-family="Helvetica,sans-Serif" font-size="10.00"> </text>
<polyline fill="none" stroke="black" points="0,-19.5 143,-19.5 "/>
<text text-anchor="middle" x="71.5" y="-7.5" font-family="Helvetica,sans-Serif" font-size="10.00"> </text>
</a>
</g>
</g>
<!-- Node2 -->
<g id="node2" class="node"><title>Node2</title>
<g id="a_node2"><a xlink:href="../../db/d0a/classstd_1_1conditional_1_1type.xhtml" target="_top" xlink:title=" ">
<polygon fill="none" stroke="black" points="12.5,-105.5 12.5,-184.5 130.5,-184.5 130.5,-105.5 12.5,-105.5"/>
<text text-anchor="start" x="20.5" y="-172.5" font-family="Helvetica,sans-Serif" font-size="10.00">std::conditional&lt; bool</text>
<text text-anchor="start" x="20.5" y="-161.5" font-family="Helvetica,sans-Serif" font-size="10.00">(B1::value), conjunction</text>
<text text-anchor="middle" x="71.5" y="-150.5" font-family="Helvetica,sans-Serif" font-size="10.00">&lt; Bn... &gt;, B1 &gt;::type</text>
<polyline fill="none" stroke="black" points="12.5,-143.5 130.5,-143.5 "/>
<text text-anchor="middle" x="71.5" y="-131.5" font-family="Helvetica,sans-Serif" font-size="10.00"> </text>
<polyline fill="none" stroke="black" points="12.5,-124.5 130.5,-124.5 "/>
<text text-anchor="middle" x="71.5" y="-112.5" font-family="Helvetica,sans-Serif" font-size="10.00"> </text>
</a>
</g>
</g>
<!-- Node2&#45;&gt;Node1 -->
<g id="edge1" class="edge"><title>Node2&#45;&gt;Node1</title>
<path fill="none" stroke="midnightblue" d="M71.5,-95.3492C71.5,-86.2824 71.5,-77.0048 71.5,-68.5439"/>
<polygon fill="none" stroke="midnightblue" points="68.0001,-95.4414 71.5,-105.441 75.0001,-95.4415 68.0001,-95.4414"/>
</g>
</g>
</svg>
