<?xml version="1.0" encoding="UTF-8" standalone="no"?>
<!DOCTYPE svg PUBLIC "-//W3C//DTD SVG 1.1//EN"
 "http://www.w3.org/Graphics/SVG/1.1/DTD/svg11.dtd">
<!-- Generated by graphviz version 2.38.0 (20140413.2041)
 -->
<!-- Title: nlohmann::std_support::to_string Pages: 1 -->
<svg width="432pt" height="214pt"
 viewBox="0.00 0.00 432.00 213.50" xmlns="http://www.w3.org/2000/svg" xmlns:xlink="http://www.w3.org/1999/xlink">
<g id="graph0" class="graph" transform="scale(1 1) rotate(0) translate(4 209.5)">
<title>nlohmann::std_support::to_string</title>
<!-- Node1 -->
<g id="node1" class="node"><title>Node1</title>
<g id="a_node1"><a xlink:title=" ">
<polygon fill="#bfbfbf" stroke="black" points="308,-98.5 308,-128.5 424,-128.5 424,-98.5 308,-98.5"/>
<text text-anchor="start" x="316" y="-116.5" font-family="Helvetica,sans-Serif" font-size="10.00">nlohmann::std_support</text>
<text text-anchor="middle" x="366" y="-105.5" font-family="Helvetica,sans-Serif" font-size="10.00">::to_string</text>
</a>
</g>
</g>
<!-- Node2 -->
<g id="node2" class="node"><title>Node2</title>
<g id="a_node2"><a xlink:href="../../d9/dcc/classnlohmann_1_1basic__json.xhtml#a73ae333487310e3302135189ce8ff5d8" target="_top" xlink:title="access specified array element with bounds checking">
<polygon fill="none" stroke="black" points="147,-186 147,-205 272,-205 272,-186 147,-186"/>
<text text-anchor="middle" x="209.5" y="-193" font-family="Helvetica,sans-Serif" font-size="10.00">nlohmann::basic_json::at</text>
</a>
</g>
</g>
<!-- Node1&#45;&gt;Node2 -->
<g id="edge1" class="edge"><title>Node1&#45;&gt;Node2</title>
<path fill="none" stroke="midnightblue" d="M334.718,-134.384C316.925,-146.141 293.727,-160.604 272,-171.5 261.243,-176.895 248.964,-181.902 238.221,-185.931"/>
<polygon fill="midnightblue" stroke="midnightblue" points="337.126,-136.984 343.493,-128.516 333.235,-131.166 337.126,-136.984"/>
</g>
<!-- Node3 -->
<g id="node3" class="node"><title>Node3</title>
<g id="a_node3"><a xlink:href="../../d9/dcc/classnlohmann_1_1basic__json.xhtml#a81e0c41a4a9dff4df2f6973f7f8b2a83" target="_top" xlink:title="applies a JSON patch">
<polygon fill="none" stroke="black" points="0,-161.5 0,-191.5 111,-191.5 111,-161.5 0,-161.5"/>
<text text-anchor="start" x="8" y="-179.5" font-family="Helvetica,sans-Serif" font-size="10.00">nlohmann::basic_json</text>
<text text-anchor="middle" x="55.5" y="-168.5" font-family="Helvetica,sans-Serif" font-size="10.00">::patch</text>
</a>
</g>
</g>
<!-- Node1&#45;&gt;Node3 -->
<g id="edge6" class="edge"><title>Node1&#45;&gt;Node3</title>
<path fill="none" stroke="midnightblue" d="M302.152,-131.199C292.104,-133.796 281.793,-136.325 272,-138.5 217.668,-150.568 154.947,-161.269 111.232,-168.214"/>
<polygon fill="midnightblue" stroke="midnightblue" points="303.302,-134.515 312.084,-128.589 301.523,-127.745 303.302,-134.515"/>
</g>
<!-- Node4 -->
<g id="node4" class="node"><title>Node4</title>
<g id="a_node4"><a xlink:href="../../d9/dcc/classnlohmann_1_1basic__json.xhtml#a543bd5f7490de54c875b2c0912dc9a49" target="_top" xlink:title="creates a diff as a JSON patch">
<polygon fill="none" stroke="black" points="154,-98.5 154,-128.5 265,-128.5 265,-98.5 154,-98.5"/>
<text text-anchor="start" x="162" y="-116.5" font-family="Helvetica,sans-Serif" font-size="10.00">nlohmann::basic_json</text>
<text text-anchor="middle" x="209.5" y="-105.5" font-family="Helvetica,sans-Serif" font-size="10.00">::diff</text>
</a>
</g>
</g>
<!-- Node1&#45;&gt;Node4 -->
<g id="edge3" class="edge"><title>Node1&#45;&gt;Node4</title>
<path fill="none" stroke="midnightblue" d="M297.59,-113.5C286.713,-113.5 275.571,-113.5 265.046,-113.5"/>
<polygon fill="midnightblue" stroke="midnightblue" points="297.909,-117 307.909,-113.5 297.909,-110 297.909,-117"/>
</g>
<!-- Node5 -->
<g id="node5" class="node"><title>Node5</title>
<g id="a_node5"><a xlink:href="../../d9/dcc/classnlohmann_1_1basic__json.xhtml#a88cbcefe9a3f4d294bed0653550a5cb9" target="_top" xlink:title="remove element from a JSON array given an index">
<polygon fill="none" stroke="black" points="154,-49.5 154,-79.5 265,-79.5 265,-49.5 154,-49.5"/>
<text text-anchor="start" x="162" y="-67.5" font-family="Helvetica,sans-Serif" font-size="10.00">nlohmann::basic_json</text>
<text text-anchor="middle" x="209.5" y="-56.5" font-family="Helvetica,sans-Serif" font-size="10.00">::erase</text>
</a>
</g>
</g>
<!-- Node1&#45;&gt;Node5 -->
<g id="edge4" class="edge"><title>Node1&#45;&gt;Node5</title>
<path fill="none" stroke="midnightblue" d="M307.428,-95.2409C291.132,-90.0727 273.585,-84.5076 257.959,-79.5516"/>
<polygon fill="midnightblue" stroke="midnightblue" points="306.794,-98.7116 317.384,-98.3986 308.91,-92.0391 306.794,-98.7116"/>
</g>
<!-- Node6 -->
<g id="node6" class="node"><title>Node6</title>
<g id="a_node6"><a xlink:href="../../d9/dcc/classnlohmann_1_1basic__json.xhtml#aef6d0eeccee7c5c7e1317c2ea1607fab" target="_top" xlink:title="returns version information on the library">
<polygon fill="none" stroke="black" points="154,-0.5 154,-30.5 265,-30.5 265,-0.5 154,-0.5"/>
<text text-anchor="start" x="162" y="-18.5" font-family="Helvetica,sans-Serif" font-size="10.00">nlohmann::basic_json</text>
<text text-anchor="middle" x="209.5" y="-7.5" font-family="Helvetica,sans-Serif" font-size="10.00">::meta</text>
</a>
</g>
</g>
<!-- Node1&#45;&gt;Node6 -->
<g id="edge5" class="edge"><title>Node1&#45;&gt;Node6</title>
<path fill="none" stroke="midnightblue" d="M340.848,-91.4521C322.83,-75.7989 297.095,-55.062 272,-40.5 265.819,-36.9135 259.025,-33.5978 252.277,-30.6322"/>
<polygon fill="midnightblue" stroke="midnightblue" points="338.738,-94.2578 348.554,-98.246 343.368,-89.0072 338.738,-94.2578"/>
</g>
<!-- Node2&#45;&gt;Node3 -->
<g id="edge2" class="edge"><title>Node2&#45;&gt;Node3</title>
<path fill="none" stroke="midnightblue" d="M136.744,-186.531C128.234,-185.467 119.653,-184.394 111.429,-183.366"/>
<polygon fill="midnightblue" stroke="midnightblue" points="136.319,-190.005 146.676,-187.772 137.187,-183.059 136.319,-190.005"/>
</g>
</g>
</svg>
