<?xml version="1.0" encoding="UTF-8" standalone="no"?>
<!DOCTYPE svg PUBLIC "-//W3C//DTD SVG 1.1//EN"
 "http://www.w3.org/Graphics/SVG/1.1/DTD/svg11.dtd">
<!-- Generated by graphviz version 2.38.0 (20140413.2041)
 -->
<!-- Title: nlohmann::detail::is_basic_json_nested_type&lt; BasicJsonType, T &gt; Pages: 1 -->
<svg width="135pt" height="193pt"
 viewBox="0.00 0.00 135.00 193.00" xmlns="http://www.w3.org/2000/svg" xmlns:xlink="http://www.w3.org/1999/xlink">
<g id="graph0" class="graph" transform="scale(1 1) rotate(0) translate(4 189)">
<title>nlohmann::detail::is_basic_json_nested_type&lt; BasicJsonType, T &gt;</title>
<!-- Node1 -->
<g id="node1" class="node"><title>Node1</title>
<g id="a_node1"><a xlink:title=" ">
<polygon fill="#bfbfbf" stroke="black" points="0,-0.5 0,-79.5 127,-79.5 127,-0.5 0,-0.5"/>
<text text-anchor="start" x="8" y="-67.5" font-family="Helvetica,sans-Serif" font-size="10.00">nlohmann::detail::is</text>
<text text-anchor="start" x="8" y="-56.5" font-family="Helvetica,sans-Serif" font-size="10.00">_basic_json_nested_type</text>
<text text-anchor="middle" x="63.5" y="-45.5" font-family="Helvetica,sans-Serif" font-size="10.00">&lt; BasicJsonType, T &gt;</text>
<polyline fill="none" stroke="black" points="0,-38.5 127,-38.5 "/>
<text text-anchor="middle" x="63.5" y="-26.5" font-family="Helvetica,sans-Serif" font-size="10.00"> </text>
<polyline fill="none" stroke="black" points="0,-19.5 127,-19.5 "/>
<text text-anchor="middle" x="63.5" y="-7.5" font-family="Helvetica,sans-Serif" font-size="10.00"> </text>
</a>
</g>
</g>
<!-- Node2 -->
<g id="node2" class="node"><title>Node2</title>
<g id="a_node2"><a xlink:title=" ">
<polygon fill="none" stroke="#bfbfbf" points="9.5,-127.5 9.5,-184.5 117.5,-184.5 117.5,-127.5 9.5,-127.5"/>
<text text-anchor="middle" x="63.5" y="-172.5" font-family="Helvetica,sans-Serif" font-size="10.00">static constexpr auto</text>
<polyline fill="none" stroke="#bfbfbf" points="9.5,-165.5 117.5,-165.5 "/>
<text text-anchor="middle" x="63.5" y="-153.5" font-family="Helvetica,sans-Serif" font-size="10.00"> </text>
<polyline fill="none" stroke="#bfbfbf" points="9.5,-146.5 117.5,-146.5 "/>
<text text-anchor="middle" x="63.5" y="-134.5" font-family="Helvetica,sans-Serif" font-size="10.00"> </text>
</a>
</g>
</g>
<!-- Node2&#45;&gt;Node1 -->
<g id="edge1" class="edge"><title>Node2&#45;&gt;Node1</title>
<path fill="none" stroke="#404040" d="M63.5,-127.404C63.5,-116.63 63.5,-103.926 63.5,-91.6231"/>
<polygon fill="none" stroke="#404040" points="63.5001,-91.5406 59.5,-85.5406 63.5,-79.5406 67.5,-85.5405 63.5001,-91.5406"/>
<text text-anchor="middle" x="79" y="-101" font-family="Helvetica,sans-Serif" font-size="10.00"> +value</text>
</g>
</g>
</svg>
