<?xml version="1.0" encoding="UTF-8" standalone="no"?>
<!DOCTYPE svg PUBLIC "-//W3C//DTD SVG 1.1//EN"
 "http://www.w3.org/Graphics/SVG/1.1/DTD/svg11.dtd">
<!-- Generated by graphviz version 2.38.0 (20140413.2041)
 -->
<!-- Title: include/reader.h Pages: 1 -->
<!--zoomable 319 -->
<svg id="main" version="1.1" xmlns="http://www.w3.org/2000/svg" xmlns:xlink="http://www.w3.org/1999/xlink" xml:space="preserve" onload="init(evt)">
<style type="text/css"><![CDATA[
.edge:hover path { stroke: red; }
.edge:hover polygon { stroke: red; fill: red; }
]]></style>
<script type="text/javascript"><![CDATA[
var edges = document.getElementsByTagName('g');
if (edges && edges.length) {
  for (var i=0;i<edges.length;i++) {
    if (edges[i].id.substr(0,4)=='edge') {
      edges[i].setAttribute('class','edge');
    }
  }
}
]]></script>
        <defs>
                <circle id="rim" cx="0" cy="0" r="7"/>
                <circle id="rim2" cx="0" cy="0" r="3.5"/>
                <g id="zoomPlus">
                        <use xlink:href="#rim" fill="#404040">
                                <set attributeName="fill" to="#808080" begin="zoomplus.mouseover" end="zoomplus.mouseout"/>
                        </use>
                        <path d="M-4,0h8M0,-4v8" fill="none" stroke="white" stroke-width="1.5" pointer-events="none"/>
                </g>
                <g id="zoomMin">
                        <use xlink:href="#rim" fill="#404040">
                                <set attributeName="fill" to="#808080" begin="zoomminus.mouseover" end="zoomminus.mouseout"/>
                        </use>
                        <path d="M-4,0h8" fill="none" stroke="white" stroke-width="1.5" pointer-events="none"/>
                </g>
                <g id="dirArrow">
                        <path fill="none" stroke="white" stroke-width="1.5" d="M0,-3.0v7 M-2.5,-0.5L0,-3.0L2.5,-0.5"/>
                </g>
               <g id="resetDef">
                       <use xlink:href="#rim2" fill="#404040">
                               <set attributeName="fill" to="#808080" begin="reset.mouseover" end="reset.mouseout"/>
                       </use>
               </g>
        </defs>

<script type="text/javascript">
var viewWidth = 2060;
var viewHeight = 319;
var sectionId = 'dynsection-0';
</script>
<script xlink:href="../../svgpan.js"/>
<svg id="graph" class="graph">
<g id="viewport">
<title>include/reader.h</title>
<!-- Node1 -->
<g id="node1" class="node"><title>Node1</title>
<g id="a_node1"><a xlink:title=" ">
<polygon fill="#bfbfbf" stroke="black" points="189.638,-291.5 189.638,-310.5 275.638,-310.5 275.638,-291.5 189.638,-291.5"/>
<text text-anchor="middle" x="232.638" y="-298.5" font-family="Helvetica,sans-Serif" font-size="10.00">include/reader.h</text>
</a>
</g>
</g>
<!-- Node2 -->
<g id="node2" class="node"><title>Node2</title>
<g id="a_node2"><a xlink:title=" ">
<polygon fill="none" stroke="#bfbfbf" points="267.638,-56.5 267.638,-75.5 323.638,-75.5 323.638,-56.5 267.638,-56.5"/>
<text text-anchor="middle" x="295.638" y="-63.5" font-family="Helvetica,sans-Serif" font-size="10.00">algorithm</text>
</a>
</g>
</g>
<!-- Node1&#45;&gt;Node2 -->
<g id="edge1" class="edge"><title>Node1&#45;&gt;Node2</title>
<path fill="none" stroke="midnightblue" d="M225.086,-291.323C211.227,-274.757 182.192,-236.888 171.638,-199 164.926,-174.904 171.135,-124.103 180.638,-112 190.571,-99.3501 228.364,-86.0706 257.947,-77.2447"/>
<polygon fill="midnightblue" stroke="midnightblue" points="258.991,-80.5863 267.613,-74.4297 257.033,-73.8656 258.991,-80.5863"/>
</g>
<!-- Node3 -->
<g id="node3" class="node"><title>Node3</title>
<g id="a_node3"><a xlink:title=" ">
<polygon fill="none" stroke="#bfbfbf" points="560.138,-235.5 560.138,-254.5 609.138,-254.5 609.138,-235.5 560.138,-235.5"/>
<text text-anchor="middle" x="584.638" y="-242.5" font-family="Helvetica,sans-Serif" font-size="10.00">fstream</text>
</a>
</g>
</g>
<!-- Node1&#45;&gt;Node3 -->
<g id="edge2" class="edge"><title>Node1&#45;&gt;Node3</title>
<path fill="none" stroke="midnightblue" d="M275.861,-294.952C336.42,-287.615 449.851,-272.905 545.638,-255 547.09,-254.729 548.569,-254.44 550.061,-254.14"/>
<polygon fill="midnightblue" stroke="midnightblue" points="550.898,-257.54 559.946,-252.028 549.435,-250.695 550.898,-257.54"/>
</g>
<!-- Node4 -->
<g id="node4" class="node"><title>Node4</title>
<g id="a_node4"><a xlink:title=" ">
<polygon fill="none" stroke="#bfbfbf" points="103.138,-56.5 103.138,-75.5 144.138,-75.5 144.138,-56.5 103.138,-56.5"/>
<text text-anchor="middle" x="123.638" y="-63.5" font-family="Helvetica,sans-Serif" font-size="10.00">string</text>
</a>
</g>
</g>
<!-- Node1&#45;&gt;Node4 -->
<g id="edge3" class="edge"><title>Node1&#45;&gt;Node4</title>
<path fill="none" stroke="midnightblue" d="M189.221,-296.231C137.391,-290.727 55.3434,-278.487 36.638,-255 13.8268,-226.358 -44.2461,-278.109 62.638,-112 71.0365,-98.9479 84.6433,-88.3711 96.877,-80.759"/>
<polygon fill="midnightblue" stroke="midnightblue" points="98.9797,-83.5846 105.856,-75.5241 95.4538,-77.5374 98.9797,-83.5846"/>
</g>
<!-- Node5 -->
<g id="node5" class="node"><title>Node5</title>
<g id="a_node5"><a xlink:title=" ">
<polygon fill="none" stroke="#bfbfbf" points="341.638,-56.5 341.638,-75.5 383.638,-75.5 383.638,-56.5 341.638,-56.5"/>
<text text-anchor="middle" x="362.638" y="-63.5" font-family="Helvetica,sans-Serif" font-size="10.00">vector</text>
</a>
</g>
</g>
<!-- Node1&#45;&gt;Node5 -->
<g id="edge4" class="edge"><title>Node1&#45;&gt;Node5</title>
<path fill="none" stroke="midnightblue" d="M275.904,-300.678C318.603,-299.096 383.445,-290.358 425.638,-255 475.149,-213.509 485.476,-167.026 451.638,-112 444.932,-101.095 416.277,-87.7735 393.268,-78.4657"/>
<polygon fill="midnightblue" stroke="midnightblue" points="394.42,-75.1575 383.833,-74.7411 391.849,-81.6685 394.42,-75.1575"/>
</g>
<!-- Node6 -->
<g id="node6" class="node"><title>Node6</title>
<g id="a_node6"><a xlink:href="../../d4/db4/classfile_8h.xhtml" target="_top" xlink:title=" ">
<polygon fill="none" stroke="black" points="356.638,-235.5 356.638,-254.5 416.638,-254.5 416.638,-235.5 356.638,-235.5"/>
<text text-anchor="middle" x="386.638" y="-242.5" font-family="Helvetica,sans-Serif" font-size="10.00">classfile.h</text>
</a>
</g>
</g>
<!-- Node1&#45;&gt;Node6 -->
<g id="edge5" class="edge"><title>Node1&#45;&gt;Node6</title>
<path fill="none" stroke="midnightblue" d="M257.04,-291.444C282.835,-282.399 323.715,-268.064 352.656,-257.916"/>
<polygon fill="midnightblue" stroke="midnightblue" points="354.072,-261.128 362.35,-254.516 351.756,-254.523 354.072,-261.128"/>
</g>
<!-- Node7 -->
<g id="node7" class="node"><title>Node7</title>
<g id="a_node7"><a xlink:href="../../d0/d36/constant_pool_8h.xhtml" target="_top" xlink:title=" ">
<polygon fill="none" stroke="black" points="181.138,-179.5 181.138,-198.5 284.138,-198.5 284.138,-179.5 181.138,-179.5"/>
<text text-anchor="middle" x="232.638" y="-186.5" font-family="Helvetica,sans-Serif" font-size="10.00">utils/constantPool.h</text>
</a>
</g>
</g>
<!-- Node1&#45;&gt;Node7 -->
<g id="edge50" class="edge"><title>Node1&#45;&gt;Node7</title>
<path fill="none" stroke="midnightblue" d="M232.638,-291.368C232.638,-273.617 232.638,-232.666 232.638,-208.597"/>
<polygon fill="midnightblue" stroke="midnightblue" points="236.138,-208.591 232.638,-198.591 229.138,-208.591 236.138,-208.591"/>
</g>
<!-- Node37 -->
<g id="node37" class="node"><title>Node37</title>
<g id="a_node37"><a xlink:href="../../de/d45/errors_8h.xhtml" target="_top" xlink:title=" ">
<polygon fill="none" stroke="black" points="46.138,-235.5 46.138,-254.5 117.138,-254.5 117.138,-235.5 46.138,-235.5"/>
<text text-anchor="middle" x="81.638" y="-242.5" font-family="Helvetica,sans-Serif" font-size="10.00">utils/errors.h</text>
</a>
</g>
</g>
<!-- Node1&#45;&gt;Node37 -->
<g id="edge51" class="edge"><title>Node1&#45;&gt;Node37</title>
<path fill="none" stroke="midnightblue" d="M208.712,-291.444C183.419,-282.399 143.336,-268.064 114.958,-257.916"/>
<polygon fill="midnightblue" stroke="midnightblue" points="116.047,-254.588 105.452,-254.516 113.69,-261.179 116.047,-254.588"/>
</g>
<!-- Node6&#45;&gt;Node5 -->
<g id="edge6" class="edge"><title>Node6&#45;&gt;Node5</title>
<path fill="none" stroke="midnightblue" d="M399.702,-235.436C410.552,-227.471 425.211,-214.515 431.638,-199 446.435,-163.277 450.055,-145.999 431.638,-112 423.368,-96.733 407.423,-85.8258 392.943,-78.5767"/>
<polygon fill="midnightblue" stroke="midnightblue" points="394.282,-75.3398 383.735,-74.3323 391.352,-81.697 394.282,-75.3398"/>
</g>
<!-- Node6&#45;&gt;Node7 -->
<g id="edge7" class="edge"><title>Node6&#45;&gt;Node7</title>
<path fill="none" stroke="midnightblue" d="M362.236,-235.444C336.441,-226.399 295.561,-212.064 266.62,-201.916"/>
<polygon fill="midnightblue" stroke="midnightblue" points="267.52,-198.523 256.926,-198.516 265.204,-205.128 267.52,-198.523"/>
</g>
<!-- Node9 -->
<g id="node9" class="node"><title>Node9</title>
<g id="a_node9"><a xlink:href="../../d9/d49/types_8h.xhtml" target="_top" xlink:title=" ">
<polygon fill="none" stroke="black" points="179.638,-56.5 179.638,-75.5 249.638,-75.5 249.638,-56.5 179.638,-56.5"/>
<text text-anchor="middle" x="214.638" y="-63.5" font-family="Helvetica,sans-Serif" font-size="10.00">utils/types.h</text>
</a>
</g>
</g>
<!-- Node6&#45;&gt;Node9 -->
<g id="edge49" class="edge"><title>Node6&#45;&gt;Node9</title>
<path fill="none" stroke="midnightblue" d="M389.044,-235.118C392.071,-222.145 395.937,-197.542 387.638,-179 363.432,-124.919 298.151,-93.939 255.065,-78.8033"/>
<polygon fill="midnightblue" stroke="midnightblue" points="256.024,-75.4332 245.43,-75.5513 253.786,-82.0656 256.024,-75.4332"/>
</g>
<!-- Node11 -->
<g id="node11" class="node"><title>Node11</title>
<g id="a_node11"><a xlink:href="../../d3/dd1/nlohmann__json_8hpp.xhtml" target="_top" xlink:title=" ">
<polygon fill="none" stroke="black" points="1052.14,-112.5 1052.14,-142.5 1169.14,-142.5 1169.14,-112.5 1052.14,-112.5"/>
<text text-anchor="start" x="1060.14" y="-130.5" font-family="Helvetica,sans-Serif" font-size="10.00">utils/external/nlohmann</text>
<text text-anchor="middle" x="1110.64" y="-119.5" font-family="Helvetica,sans-Serif" font-size="10.00">_json.hpp</text>
</a>
</g>
</g>
<!-- Node6&#45;&gt;Node11 -->
<g id="edge16" class="edge"><title>Node6&#45;&gt;Node11</title>
<path fill="none" stroke="midnightblue" d="M416.826,-239.184C524.086,-222.073 888.567,-163.927 1041.84,-139.475"/>
<polygon fill="midnightblue" stroke="midnightblue" points="1042.74,-142.876 1052.07,-137.844 1041.64,-135.963 1042.74,-142.876"/>
</g>
<!-- Node36 -->
<g id="node36" class="node"><title>Node36</title>
<g id="a_node36"><a xlink:href="../../d9/d70/infos_8h.xhtml" target="_top" xlink:title=" ">
<polygon fill="none" stroke="black" points="312.638,-179.5 312.638,-198.5 378.638,-198.5 378.638,-179.5 312.638,-179.5"/>
<text text-anchor="middle" x="345.638" y="-186.5" font-family="Helvetica,sans-Serif" font-size="10.00">utils/infos.h</text>
</a>
</g>
</g>
<!-- Node6&#45;&gt;Node36 -->
<g id="edge45" class="edge"><title>Node6&#45;&gt;Node36</title>
<path fill="none" stroke="midnightblue" d="M379.868,-235.083C374.076,-227.455 365.58,-216.264 358.5,-206.941"/>
<polygon fill="midnightblue" stroke="midnightblue" points="361.117,-204.599 352.282,-198.751 355.542,-208.832 361.117,-204.599"/>
</g>
<!-- Node7&#45;&gt;Node4 -->
<g id="edge8" class="edge"><title>Node7&#45;&gt;Node4</title>
<path fill="none" stroke="midnightblue" d="M218.938,-179.493C206.255,-171.192 187.345,-157.697 173.638,-143 156.867,-125.018 142.002,-100.799 132.928,-84.5796"/>
<polygon fill="midnightblue" stroke="midnightblue" points="135.917,-82.7503 128.061,-75.6419 129.769,-86.0981 135.917,-82.7503"/>
</g>
<!-- Node7&#45;&gt;Node5 -->
<g id="edge9" class="edge"><title>Node7&#45;&gt;Node5</title>
<path fill="none" stroke="midnightblue" d="M243.156,-179.213C253.774,-170.269 270.569,-155.921 284.638,-143 306.694,-122.744 331.317,-98.4597 346.886,-82.8864"/>
<polygon fill="midnightblue" stroke="midnightblue" points="349.563,-85.1585 354.141,-75.604 344.604,-80.218 349.563,-85.1585"/>
</g>
<!-- Node8 -->
<g id="node8" class="node"><title>Node8</title>
<g id="a_node8"><a xlink:href="../../da/d6e/attributes_8h.xhtml" target="_top" xlink:title=" ">
<polygon fill="none" stroke="black" points="189.638,-118 189.638,-137 275.638,-137 275.638,-118 189.638,-118"/>
<text text-anchor="middle" x="232.638" y="-125" font-family="Helvetica,sans-Serif" font-size="10.00">utils/attributes.h</text>
</a>
</g>
</g>
<!-- Node7&#45;&gt;Node8 -->
<g id="edge10" class="edge"><title>Node7&#45;&gt;Node8</title>
<path fill="none" stroke="midnightblue" d="M232.638,-179.475C232.638,-171.08 232.638,-157.981 232.638,-147.163"/>
<polygon fill="midnightblue" stroke="midnightblue" points="236.138,-147.009 232.638,-137.009 229.138,-147.009 236.138,-147.009"/>
</g>
<!-- Node7&#45;&gt;Node9 -->
<g id="edge15" class="edge"><title>Node7&#45;&gt;Node9</title>
<path fill="none" stroke="midnightblue" d="M216.855,-179.467C204.435,-171.769 188.033,-159.179 180.638,-143 174.911,-130.469 176.258,-125.063 180.638,-112 184.242,-101.251 191.541,-91.0204 198.455,-83.0378"/>
<polygon fill="midnightblue" stroke="midnightblue" points="201.115,-85.3168 205.35,-75.6053 195.983,-80.5561 201.115,-85.3168"/>
</g>
<!-- Node8&#45;&gt;Node4 -->
<g id="edge11" class="edge"><title>Node8&#45;&gt;Node4</title>
<path fill="none" stroke="midnightblue" d="M217.021,-117.975C199.052,-108.166 169.317,-91.9346 148.232,-80.425"/>
<polygon fill="midnightblue" stroke="midnightblue" points="149.681,-77.2284 139.226,-75.5091 146.327,-83.3726 149.681,-77.2284"/>
</g>
<!-- Node8&#45;&gt;Node5 -->
<g id="edge12" class="edge"><title>Node8&#45;&gt;Node5</title>
<path fill="none" stroke="midnightblue" d="M251.264,-117.975C273.081,-107.99 309.442,-91.3476 334.655,-79.8075"/>
<polygon fill="midnightblue" stroke="midnightblue" points="336.411,-82.8534 344.047,-75.5091 333.497,-76.4884 336.411,-82.8534"/>
</g>
<!-- Node8&#45;&gt;Node9 -->
<g id="edge13" class="edge"><title>Node8&#45;&gt;Node9</title>
<path fill="none" stroke="midnightblue" d="M230.059,-117.975C227.493,-109.492 223.473,-96.2043 220.181,-85.3222"/>
<polygon fill="midnightblue" stroke="midnightblue" points="223.458,-84.0672 217.212,-75.5091 216.758,-86.0942 223.458,-84.0672"/>
</g>
<!-- Node10 -->
<g id="node10" class="node"><title>Node10</title>
<g id="a_node10"><a xlink:title=" ">
<polygon fill="none" stroke="#bfbfbf" points="289.638,-0.5 289.638,-19.5 335.638,-19.5 335.638,-0.5 289.638,-0.5"/>
<text text-anchor="middle" x="312.638" y="-7.5" font-family="Helvetica,sans-Serif" font-size="10.00">cstdint</text>
</a>
</g>
</g>
<!-- Node9&#45;&gt;Node10 -->
<g id="edge14" class="edge"><title>Node9&#45;&gt;Node10</title>
<path fill="none" stroke="midnightblue" d="M230.383,-56.324C245.957,-47.7428 270.015,-34.486 288.097,-24.5224"/>
<polygon fill="midnightblue" stroke="midnightblue" points="289.862,-27.546 296.932,-19.6545 286.484,-21.4152 289.862,-27.546"/>
</g>
<!-- Node11&#45;&gt;Node2 -->
<g id="edge17" class="edge"><title>Node11&#45;&gt;Node2</title>
<path fill="none" stroke="midnightblue" d="M1051.7,-126.159C922.915,-124.662 606.741,-116.901 333.913,-75.9238"/>
<polygon fill="midnightblue" stroke="midnightblue" points="334.231,-72.432 323.819,-74.3893 333.179,-79.3525 334.231,-72.432"/>
</g>
<!-- Node11&#45;&gt;Node4 -->
<g id="edge40" class="edge"><title>Node11&#45;&gt;Node4</title>
<path fill="none" stroke="midnightblue" d="M1052.1,-126.106C903.955,-124.515 502.391,-116.486 170.638,-76 165.412,-75.3622 159.892,-74.4886 154.546,-73.5351"/>
<polygon fill="midnightblue" stroke="midnightblue" points="155.077,-70.0734 144.599,-71.6438 153.769,-76.9502 155.077,-70.0734"/>
</g>
<!-- Node11&#45;&gt;Node5 -->
<g id="edge43" class="edge"><title>Node11&#45;&gt;Node5</title>
<path fill="none" stroke="midnightblue" d="M1052,-125.927C929.602,-123.946 638.323,-115.138 397.638,-76 396.384,-75.7961 395.109,-75.5681 393.825,-75.3212"/>
<polygon fill="midnightblue" stroke="midnightblue" points="394.5,-71.8858 383.979,-73.141 392.986,-78.7203 394.5,-71.8858"/>
</g>
<!-- Node11&#45;&gt;Node10 -->
<g id="edge24" class="edge"><title>Node11&#45;&gt;Node10</title>
<path fill="none" stroke="midnightblue" d="M1051.93,-125.346C909.022,-122.025 546.314,-110.37 430.638,-76 425.613,-74.507 369.742,-43.2195 336.714,-24.6057"/>
<polygon fill="midnightblue" stroke="midnightblue" points="338.102,-21.3699 327.672,-19.5048 334.662,-27.4666 338.102,-21.3699"/>
</g>
<!-- Node12 -->
<g id="node12" class="node"><title>Node12</title>
<g id="a_node12"><a xlink:title=" ">
<polygon fill="none" stroke="#bfbfbf" points="1881.64,-56.5 1881.64,-75.5 1919.64,-75.5 1919.64,-56.5 1881.64,-56.5"/>
<text text-anchor="middle" x="1900.64" y="-63.5" font-family="Helvetica,sans-Serif" font-size="10.00">array</text>
</a>
</g>
</g>
<!-- Node11&#45;&gt;Node12 -->
<g id="edge18" class="edge"><title>Node11&#45;&gt;Node12</title>
<path fill="none" stroke="midnightblue" d="M1169.17,-124.475C1319.86,-118.972 1719.44,-102.474 1871.44,-75.6896"/>
<polygon fill="midnightblue" stroke="midnightblue" points="1872.32,-79.0859 1881.52,-73.827 1871.05,-72.2025 1872.32,-79.0859"/>
</g>
<!-- Node13 -->
<g id="node13" class="node"><title>Node13</title>
<g id="a_node13"><a xlink:title=" ">
<polygon fill="none" stroke="#bfbfbf" points="1938.14,-56.5 1938.14,-75.5 1987.14,-75.5 1987.14,-56.5 1938.14,-56.5"/>
<text text-anchor="middle" x="1962.64" y="-63.5" font-family="Helvetica,sans-Serif" font-size="10.00">cassert</text>
</a>
</g>
</g>
<!-- Node11&#45;&gt;Node13 -->
<g id="edge19" class="edge"><title>Node11&#45;&gt;Node13</title>
<path fill="none" stroke="midnightblue" d="M1169.35,-126.826C1302.75,-126.718 1638.84,-121.66 1927.62,-75.8064"/>
<polygon fill="midnightblue" stroke="midnightblue" points="1928.56,-79.2011 1937.88,-74.158 1927.45,-72.2899 1928.56,-79.2011"/>
</g>
<!-- Node14 -->
<g id="node14" class="node"><title>Node14</title>
<g id="a_node14"><a xlink:title=" ">
<polygon fill="none" stroke="#bfbfbf" points="2005.64,-56.5 2005.64,-75.5 2051.64,-75.5 2051.64,-56.5 2005.64,-56.5"/>
<text text-anchor="middle" x="2028.64" y="-63.5" font-family="Helvetica,sans-Serif" font-size="10.00">cctype</text>
</a>
</g>
</g>
<!-- Node11&#45;&gt;Node14 -->
<g id="edge20" class="edge"><title>Node11&#45;&gt;Node14</title>
<path fill="none" stroke="midnightblue" d="M1169.19,-124.823C1336.9,-119.762 1817.81,-103.379 1995.36,-75.7993"/>
<polygon fill="midnightblue" stroke="midnightblue" points="1996.04,-79.2347 2005.35,-74.1804 1994.92,-72.3248 1996.04,-79.2347"/>
</g>
<!-- Node15 -->
<g id="node15" class="node"><title>Node15</title>
<g id="a_node15"><a xlink:title=" ">
<polygon fill="none" stroke="#bfbfbf" points="439.638,-56.5 439.638,-75.5 489.638,-75.5 489.638,-56.5 439.638,-56.5"/>
<text text-anchor="middle" x="464.638" y="-63.5" font-family="Helvetica,sans-Serif" font-size="10.00">ciso646</text>
</a>
</g>
</g>
<!-- Node11&#45;&gt;Node15 -->
<g id="edge21" class="edge"><title>Node11&#45;&gt;Node15</title>
<path fill="none" stroke="midnightblue" d="M1051.98,-125.097C944.193,-121.772 707.386,-110.995 499.65,-75.8751"/>
<polygon fill="midnightblue" stroke="midnightblue" points="500.227,-72.4232 489.78,-74.1843 499.045,-79.3227 500.227,-72.4232"/>
</g>
<!-- Node16 -->
<g id="node16" class="node"><title>Node16</title>
<g id="a_node16"><a xlink:title=" ">
<polygon fill="none" stroke="#bfbfbf" points="507.638,-56.5 507.638,-75.5 551.638,-75.5 551.638,-56.5 507.638,-56.5"/>
<text text-anchor="middle" x="529.638" y="-63.5" font-family="Helvetica,sans-Serif" font-size="10.00">cmath</text>
</a>
</g>
</g>
<!-- Node11&#45;&gt;Node16 -->
<g id="edge22" class="edge"><title>Node11&#45;&gt;Node16</title>
<path fill="none" stroke="midnightblue" d="M1051.92,-124.785C952.613,-121.082 745.196,-109.894 561.955,-75.9038"/>
<polygon fill="midnightblue" stroke="midnightblue" points="562.341,-72.4151 551.866,-74.0044 561.046,-79.2942 562.341,-72.4151"/>
</g>
<!-- Node17 -->
<g id="node17" class="node"><title>Node17</title>
<g id="a_node17"><a xlink:title=" ">
<polygon fill="none" stroke="#bfbfbf" points="569.638,-56.5 569.638,-75.5 617.638,-75.5 617.638,-56.5 569.638,-56.5"/>
<text text-anchor="middle" x="593.638" y="-63.5" font-family="Helvetica,sans-Serif" font-size="10.00">cstddef</text>
</a>
</g>
</g>
<!-- Node11&#45;&gt;Node17 -->
<g id="edge23" class="edge"><title>Node11&#45;&gt;Node17</title>
<path fill="none" stroke="midnightblue" d="M1051.86,-123.293C960.504,-117.649 779.187,-103.808 627.638,-76 627.537,-75.9814 627.435,-75.9627 627.334,-75.9438"/>
<polygon fill="midnightblue" stroke="midnightblue" points="628.194,-72.549 617.68,-73.856 626.714,-79.3908 628.194,-72.549"/>
</g>
<!-- Node18 -->
<g id="node18" class="node"><title>Node18</title>
<g id="a_node18"><a xlink:title=" ">
<polygon fill="none" stroke="#bfbfbf" points="636.138,-56.5 636.138,-75.5 681.138,-75.5 681.138,-56.5 636.138,-56.5"/>
<text text-anchor="middle" x="658.638" y="-63.5" font-family="Helvetica,sans-Serif" font-size="10.00">cstdlib</text>
</a>
</g>
</g>
<!-- Node11&#45;&gt;Node18 -->
<g id="edge25" class="edge"><title>Node11&#45;&gt;Node18</title>
<path fill="none" stroke="midnightblue" d="M1052.1,-122.334C972.516,-116.036 825.689,-102.167 691.322,-75.8295"/>
<polygon fill="midnightblue" stroke="midnightblue" points="691.749,-72.3461 681.259,-73.8287 690.384,-79.2117 691.749,-72.3461"/>
</g>
<!-- Node19 -->
<g id="node19" class="node"><title>Node19</title>
<g id="a_node19"><a xlink:title=" ">
<polygon fill="none" stroke="#bfbfbf" points="699.638,-56.5 699.638,-75.5 745.638,-75.5 745.638,-56.5 699.638,-56.5"/>
<text text-anchor="middle" x="722.638" y="-63.5" font-family="Helvetica,sans-Serif" font-size="10.00">cstring</text>
</a>
</g>
</g>
<!-- Node11&#45;&gt;Node19 -->
<g id="edge26" class="edge"><title>Node11&#45;&gt;Node19</title>
<path fill="none" stroke="midnightblue" d="M1051.83,-120.413C983.17,-112.799 866.084,-98.239 755.939,-75.8079"/>
<polygon fill="midnightblue" stroke="midnightblue" points="756.488,-72.3475 745.987,-73.7554 755.074,-79.2032 756.488,-72.3475"/>
</g>
<!-- Node20 -->
<g id="node20" class="node"><title>Node20</title>
<g id="a_node20"><a xlink:title=" ">
<polygon fill="none" stroke="#bfbfbf" points="764.138,-56.5 764.138,-75.5 829.138,-75.5 829.138,-56.5 764.138,-56.5"/>
<text text-anchor="middle" x="796.638" y="-63.5" font-family="Helvetica,sans-Serif" font-size="10.00">forward_list</text>
</a>
</g>
</g>
<!-- Node11&#45;&gt;Node20 -->
<g id="edge27" class="edge"><title>Node11&#45;&gt;Node20</title>
<path fill="none" stroke="midnightblue" d="M1051.92,-116.08C999.031,-106.585 918.896,-91.929 839.377,-76.1023"/>
<polygon fill="midnightblue" stroke="midnightblue" points="839.671,-72.592 829.179,-74.0655 838.3,-79.4564 839.671,-72.592"/>
</g>
<!-- Node21 -->
<g id="node21" class="node"><title>Node21</title>
<g id="a_node21"><a xlink:title=" ">
<polygon fill="none" stroke="#bfbfbf" points="847.638,-56.5 847.638,-75.5 905.638,-75.5 905.638,-56.5 847.638,-56.5"/>
<text text-anchor="middle" x="876.638" y="-63.5" font-family="Helvetica,sans-Serif" font-size="10.00">functional</text>
</a>
</g>
</g>
<!-- Node11&#45;&gt;Node21 -->
<g id="edge28" class="edge"><title>Node11&#45;&gt;Node21</title>
<path fill="none" stroke="midnightblue" d="M1055.48,-112.475C1012.44,-101.531 953.731,-86.6028 915.51,-76.884"/>
<polygon fill="midnightblue" stroke="midnightblue" points="916.334,-73.4822 905.78,-74.4099 914.609,-80.2664 916.334,-73.4822"/>
</g>
<!-- Node22 -->
<g id="node22" class="node"><title>Node22</title>
<g id="a_node22"><a xlink:title=" ">
<polygon fill="none" stroke="#bfbfbf" points="924.138,-56.5 924.138,-75.5 997.138,-75.5 997.138,-56.5 924.138,-56.5"/>
<text text-anchor="middle" x="960.638" y="-63.5" font-family="Helvetica,sans-Serif" font-size="10.00">initializer_list</text>
</a>
</g>
</g>
<!-- Node11&#45;&gt;Node22 -->
<g id="edge29" class="edge"><title>Node11&#45;&gt;Node22</title>
<path fill="none" stroke="midnightblue" d="M1075.09,-112.399C1049.81,-102.372 1016.17,-89.028 991.911,-79.405"/>
<polygon fill="midnightblue" stroke="midnightblue" points="993.05,-76.0916 982.464,-75.6578 990.469,-82.5984 993.05,-76.0916"/>
</g>
<!-- Node23 -->
<g id="node23" class="node"><title>Node23</title>
<g id="a_node23"><a xlink:title=" ">
<polygon fill="none" stroke="#bfbfbf" points="1015.64,-56.5 1015.64,-75.5 1065.64,-75.5 1065.64,-56.5 1015.64,-56.5"/>
<text text-anchor="middle" x="1040.64" y="-63.5" font-family="Helvetica,sans-Serif" font-size="10.00">iomanip</text>
</a>
</g>
</g>
<!-- Node11&#45;&gt;Node23 -->
<g id="edge30" class="edge"><title>Node11&#45;&gt;Node23</title>
<path fill="none" stroke="midnightblue" d="M1094.05,-112.399C1083.35,-103.308 1069.45,-91.4899 1058.51,-82.1909"/>
<polygon fill="midnightblue" stroke="midnightblue" points="1060.71,-79.4675 1050.82,-75.6578 1056.18,-84.8011 1060.71,-79.4675"/>
</g>
<!-- Node24 -->
<g id="node24" class="node"><title>Node24</title>
<g id="a_node24"><a xlink:title=" ">
<polygon fill="none" stroke="#bfbfbf" points="1083.64,-56.5 1083.64,-75.5 1137.64,-75.5 1137.64,-56.5 1083.64,-56.5"/>
<text text-anchor="middle" x="1110.64" y="-63.5" font-family="Helvetica,sans-Serif" font-size="10.00">iostream</text>
</a>
</g>
</g>
<!-- Node11&#45;&gt;Node24 -->
<g id="edge31" class="edge"><title>Node11&#45;&gt;Node24</title>
<path fill="none" stroke="midnightblue" d="M1110.64,-112.399C1110.64,-104.466 1110.64,-94.458 1110.64,-85.8583"/>
<polygon fill="midnightblue" stroke="midnightblue" points="1114.14,-85.6577 1110.64,-75.6578 1107.14,-85.6578 1114.14,-85.6577"/>
</g>
<!-- Node25 -->
<g id="node25" class="node"><title>Node25</title>
<g id="a_node25"><a xlink:title=" ">
<polygon fill="none" stroke="#bfbfbf" points="1156.14,-56.5 1156.14,-75.5 1203.14,-75.5 1203.14,-56.5 1156.14,-56.5"/>
<text text-anchor="middle" x="1179.64" y="-63.5" font-family="Helvetica,sans-Serif" font-size="10.00">iterator</text>
</a>
</g>
</g>
<!-- Node11&#45;&gt;Node25 -->
<g id="edge32" class="edge"><title>Node11&#45;&gt;Node25</title>
<path fill="none" stroke="midnightblue" d="M1126.99,-112.399C1137.53,-103.308 1151.24,-91.4899 1162.02,-82.1909"/>
<polygon fill="midnightblue" stroke="midnightblue" points="1164.31,-84.8389 1169.6,-75.6578 1159.74,-79.5377 1164.31,-84.8389"/>
</g>
<!-- Node26 -->
<g id="node26" class="node"><title>Node26</title>
<g id="a_node26"><a xlink:title=" ">
<polygon fill="none" stroke="#bfbfbf" points="1221.64,-56.5 1221.64,-75.5 1261.64,-75.5 1261.64,-56.5 1221.64,-56.5"/>
<text text-anchor="middle" x="1241.64" y="-63.5" font-family="Helvetica,sans-Serif" font-size="10.00">limits</text>
</a>
</g>
</g>
<!-- Node11&#45;&gt;Node26 -->
<g id="edge33" class="edge"><title>Node11&#45;&gt;Node26</title>
<path fill="none" stroke="midnightblue" d="M1141.68,-112.399C1163.37,-102.55 1192.1,-89.5014 1213.19,-79.9217"/>
<polygon fill="midnightblue" stroke="midnightblue" points="1214.92,-82.9799 1222.58,-75.6578 1212.02,-76.6065 1214.92,-82.9799"/>
</g>
<!-- Node27 -->
<g id="node27" class="node"><title>Node27</title>
<g id="a_node27"><a xlink:title=" ">
<polygon fill="none" stroke="#bfbfbf" points="1279.64,-56.5 1279.64,-75.5 1321.64,-75.5 1321.64,-56.5 1279.64,-56.5"/>
<text text-anchor="middle" x="1300.64" y="-63.5" font-family="Helvetica,sans-Serif" font-size="10.00">locale</text>
</a>
</g>
</g>
<!-- Node11&#45;&gt;Node27 -->
<g id="edge34" class="edge"><title>Node11&#45;&gt;Node27</title>
<path fill="none" stroke="midnightblue" d="M1155.67,-112.399C1190.76,-101.408 1238.59,-86.4322 1269.54,-76.7395"/>
<polygon fill="midnightblue" stroke="midnightblue" points="1270.85,-79.997 1279.34,-73.6684 1268.76,-73.3169 1270.85,-79.997"/>
</g>
<!-- Node28 -->
<g id="node28" class="node"><title>Node28</title>
<g id="a_node28"><a xlink:title=" ">
<polygon fill="none" stroke="#bfbfbf" points="1340.14,-56.5 1340.14,-75.5 1375.14,-75.5 1375.14,-56.5 1340.14,-56.5"/>
<text text-anchor="middle" x="1357.64" y="-63.5" font-family="Helvetica,sans-Serif" font-size="10.00">map</text>
</a>
</g>
</g>
<!-- Node11&#45;&gt;Node28 -->
<g id="edge35" class="edge"><title>Node11&#45;&gt;Node28</title>
<path fill="none" stroke="midnightblue" d="M1169.39,-114.62C1211.66,-105.704 1270.19,-92.6123 1330.33,-75.8697"/>
<polygon fill="midnightblue" stroke="midnightblue" points="1331.32,-79.2285 1339.99,-73.1514 1329.42,-72.49 1331.32,-79.2285"/>
</g>
<!-- Node29 -->
<g id="node29" class="node"><title>Node29</title>
<g id="a_node29"><a xlink:title=" ">
<polygon fill="none" stroke="#bfbfbf" points="1393.64,-56.5 1393.64,-75.5 1445.64,-75.5 1445.64,-56.5 1393.64,-56.5"/>
<text text-anchor="middle" x="1419.64" y="-63.5" font-family="Helvetica,sans-Serif" font-size="10.00">memory</text>
</a>
</g>
</g>
<!-- Node11&#45;&gt;Node29 -->
<g id="edge36" class="edge"><title>Node11&#45;&gt;Node29</title>
<path fill="none" stroke="midnightblue" d="M1169.4,-116.884C1222.77,-107.877 1303.84,-93.5093 1383.15,-76.2135"/>
<polygon fill="midnightblue" stroke="midnightblue" points="1384.3,-79.5446 1393.31,-73.9784 1382.79,-72.708 1384.3,-79.5446"/>
</g>
<!-- Node30 -->
<g id="node30" class="node"><title>Node30</title>
<g id="a_node30"><a xlink:title=" ">
<polygon fill="none" stroke="#bfbfbf" points="1464.14,-56.5 1464.14,-75.5 1515.14,-75.5 1515.14,-56.5 1464.14,-56.5"/>
<text text-anchor="middle" x="1489.64" y="-63.5" font-family="Helvetica,sans-Serif" font-size="10.00">numeric</text>
</a>
</g>
</g>
<!-- Node11&#45;&gt;Node30 -->
<g id="edge37" class="edge"><title>Node11&#45;&gt;Node30</title>
<path fill="none" stroke="midnightblue" d="M1169.4,-119.798C1236.06,-111.763 1348.18,-96.9515 1454.19,-75.8917"/>
<polygon fill="midnightblue" stroke="midnightblue" points="1454.98,-79.3022 1464.1,-73.9011 1453.6,-72.4393 1454.98,-79.3022"/>
</g>
<!-- Node31 -->
<g id="node31" class="node"><title>Node31</title>
<g id="a_node31"><a xlink:title=" ">
<polygon fill="none" stroke="#bfbfbf" points="1533.64,-56.5 1533.64,-75.5 1585.64,-75.5 1585.64,-56.5 1533.64,-56.5"/>
<text text-anchor="middle" x="1559.64" y="-63.5" font-family="Helvetica,sans-Serif" font-size="10.00">sstream</text>
</a>
</g>
</g>
<!-- Node11&#45;&gt;Node31 -->
<g id="edge38" class="edge"><title>Node11&#45;&gt;Node31</title>
<path fill="none" stroke="midnightblue" d="M1169.28,-121.771C1247.88,-114.898 1391.81,-100.43 1523.49,-76.0046"/>
<polygon fill="midnightblue" stroke="midnightblue" points="1524.17,-79.4383 1533.35,-74.1522 1522.87,-72.5587 1524.17,-79.4383"/>
</g>
<!-- Node32 -->
<g id="node32" class="node"><title>Node32</title>
<g id="a_node32"><a xlink:title=" ">
<polygon fill="none" stroke="#bfbfbf" points="1604.14,-56.5 1604.14,-75.5 1663.14,-75.5 1663.14,-56.5 1604.14,-56.5"/>
<text text-anchor="middle" x="1633.64" y="-63.5" font-family="Helvetica,sans-Serif" font-size="10.00">stdexcept</text>
</a>
</g>
</g>
<!-- Node11&#45;&gt;Node32 -->
<g id="edge39" class="edge"><title>Node11&#45;&gt;Node32</title>
<path fill="none" stroke="midnightblue" d="M1169.44,-122.705C1258.96,-116.413 1434.94,-102.024 1593.94,-75.9137"/>
<polygon fill="midnightblue" stroke="midnightblue" points="1594.61,-79.35 1603.9,-74.2582 1593.46,-72.4447 1594.61,-79.35"/>
</g>
<!-- Node33 -->
<g id="node33" class="node"><title>Node33</title>
<g id="a_node33"><a xlink:title=" ">
<polygon fill="none" stroke="#bfbfbf" points="1681.64,-56.5 1681.64,-75.5 1743.64,-75.5 1743.64,-56.5 1681.64,-56.5"/>
<text text-anchor="middle" x="1712.64" y="-63.5" font-family="Helvetica,sans-Serif" font-size="10.00">type_traits</text>
</a>
</g>
</g>
<!-- Node11&#45;&gt;Node33 -->
<g id="edge41" class="edge"><title>Node11&#45;&gt;Node33</title>
<path fill="none" stroke="midnightblue" d="M1169.2,-123.782C1269.93,-118.552 1482.56,-105.078 1671.17,-76.0415"/>
<polygon fill="midnightblue" stroke="midnightblue" points="1671.93,-79.4657 1681.27,-74.4679 1670.85,-72.5491 1671.93,-79.4657"/>
</g>
<!-- Node34 -->
<g id="node34" class="node"><title>Node34</title>
<g id="a_node34"><a xlink:title=" ">
<polygon fill="none" stroke="#bfbfbf" points="1761.64,-56.5 1761.64,-75.5 1801.64,-75.5 1801.64,-56.5 1761.64,-56.5"/>
<text text-anchor="middle" x="1781.64" y="-63.5" font-family="Helvetica,sans-Serif" font-size="10.00">utility</text>
</a>
</g>
</g>
<!-- Node11&#45;&gt;Node34 -->
<g id="edge42" class="edge"><title>Node11&#45;&gt;Node34</title>
<path fill="none" stroke="midnightblue" d="M1169.2,-126.229C1281.06,-124.773 1532.69,-116.984 1751.44,-75.7998"/>
<polygon fill="midnightblue" stroke="midnightblue" points="1752.34,-79.1918 1761.5,-73.8771 1751.02,-72.3162 1752.34,-79.1918"/>
</g>
<!-- Node35 -->
<g id="node35" class="node"><title>Node35</title>
<g id="a_node35"><a xlink:title=" ">
<polygon fill="none" stroke="#bfbfbf" points="1820.14,-56.5 1820.14,-75.5 1863.14,-75.5 1863.14,-56.5 1820.14,-56.5"/>
<text text-anchor="middle" x="1841.64" y="-63.5" font-family="Helvetica,sans-Serif" font-size="10.00">cstdio</text>
</a>
</g>
</g>
<!-- Node11&#45;&gt;Node35 -->
<g id="edge44" class="edge"><title>Node11&#45;&gt;Node35</title>
<path fill="none" stroke="midnightblue" d="M1169.23,-126.419C1288.47,-125.359 1567.79,-118.313 1810.04,-75.6766"/>
<polygon fill="midnightblue" stroke="midnightblue" points="1810.87,-79.0852 1820.1,-73.883 1809.64,-72.1941 1810.87,-79.0852"/>
</g>
<!-- Node36&#45;&gt;Node5 -->
<g id="edge46" class="edge"><title>Node36&#45;&gt;Node5</title>
<path fill="none" stroke="midnightblue" d="M347.882,-179.435C350.161,-170.427 353.633,-155.809 355.638,-143 358.642,-123.805 360.501,-101.667 361.542,-86.2533"/>
<polygon fill="midnightblue" stroke="midnightblue" points="365.056,-86.1355 362.183,-75.9375 358.069,-85.7011 365.056,-86.1355"/>
</g>
<!-- Node36&#45;&gt;Node8 -->
<g id="edge47" class="edge"><title>Node36&#45;&gt;Node8</title>
<path fill="none" stroke="midnightblue" d="M329.448,-179.475C310.736,-169.622 279.715,-153.288 257.839,-141.77"/>
<polygon fill="midnightblue" stroke="midnightblue" points="259.277,-138.571 248.798,-137.009 256.016,-144.765 259.277,-138.571"/>
</g>
<!-- Node36&#45;&gt;Node9 -->
<g id="edge48" class="edge"><title>Node36&#45;&gt;Node9</title>
<path fill="none" stroke="midnightblue" d="M340.017,-179.266C330.095,-164.292 308.279,-133.28 284.638,-112 271.202,-99.9059 254.178,-88.884 240.282,-80.7753"/>
<polygon fill="midnightblue" stroke="midnightblue" points="241.67,-77.5387 231.245,-75.6497 238.217,-83.6275 241.67,-77.5387"/>
</g>
<!-- Node37&#45;&gt;Node4 -->
<g id="edge53" class="edge"><title>Node37&#45;&gt;Node4</title>
<path fill="none" stroke="midnightblue" d="M77.7823,-235.249C74.0803,-226.333 68.7486,-212.006 66.638,-199 62.757,-175.084 65.9285,-123.353 71.638,-112 77.9239,-99.5007 89.3513,-89.0153 99.8959,-81.3191"/>
<polygon fill="midnightblue" stroke="midnightblue" points="102.112,-84.0446 108.414,-75.5273 98.1761,-78.2561 102.112,-84.0446"/>
</g>
<!-- Node38 -->
<g id="node38" class="node"><title>Node38</title>
<g id="a_node38"><a xlink:title=" ">
<polygon fill="none" stroke="#bfbfbf" points="76.138,-179.5 76.138,-198.5 117.138,-198.5 117.138,-179.5 76.138,-179.5"/>
<text text-anchor="middle" x="96.638" y="-186.5" font-family="Helvetica,sans-Serif" font-size="10.00">stack</text>
</a>
</g>
</g>
<!-- Node37&#45;&gt;Node38 -->
<g id="edge52" class="edge"><title>Node37&#45;&gt;Node38</title>
<path fill="none" stroke="midnightblue" d="M84.115,-235.083C86.1245,-227.849 89.0245,-217.409 91.5278,-208.397"/>
<polygon fill="midnightblue" stroke="midnightblue" points="94.903,-209.323 94.2072,-198.751 88.1583,-207.449 94.903,-209.323"/>
</g>
</g>
</svg>
        <g id="navigator" transform="translate(0 0)" fill="#404254">
                <rect fill="#f2f5e9" fill-opacity="0.5" stroke="#606060" stroke-width=".5" x="0" y="0" width="60" height="60"/>
                <use id="zoomplus" xlink:href="#zoomPlus" x="17" y="9" onmousedown="handleZoom(evt,'in')"/>
                <use id="zoomminus" xlink:href="#zoomMin" x="42" y="9" onmousedown="handleZoom(evt,'out')"/>
                <use id="reset" xlink:href="#resetDef" x="30" y="36" onmousedown="handleReset()"/>
                <g id="arrowUp" xlink:href="#dirArrow" transform="translate(30 24)" onmousedown="handlePan(0,-1)">
                  <use xlink:href="#rim" fill="#404040">
                        <set attributeName="fill" to="#808080" begin="arrowUp.mouseover" end="arrowUp.mouseout"/>
                  </use>
                  <path fill="none" stroke="white" stroke-width="1.5" d="M0,-3.0v7 M-2.5,-0.5L0,-3.0L2.5,-0.5"/>
                </g>
                <g id="arrowRight" xlink:href="#dirArrow" transform="rotate(90) translate(36 -43)" onmousedown="handlePan(1,0)">
                  <use xlink:href="#rim" fill="#404040">
                        <set attributeName="fill" to="#808080" begin="arrowRight.mouseover" end="arrowRight.mouseout"/>
                  </use>
                  <path fill="none" stroke="white" stroke-width="1.5" d="M0,-3.0v7 M-2.5,-0.5L0,-3.0L2.5,-0.5"/>
                </g>
                <g id="arrowDown" xlink:href="#dirArrow" transform="rotate(180) translate(-30 -48)" onmousedown="handlePan(0,1)">
                  <use xlink:href="#rim" fill="#404040">
                        <set attributeName="fill" to="#808080" begin="arrowDown.mouseover" end="arrowDown.mouseout"/>
                  </use>
                  <path fill="none" stroke="white" stroke-width="1.5" d="M0,-3.0v7 M-2.5,-0.5L0,-3.0L2.5,-0.5"/>
                </g>
                <g id="arrowLeft" xlink:href="#dirArrow" transform="rotate(270) translate(-36 17)" onmousedown="handlePan(-1,0)">
                  <use xlink:href="#rim" fill="#404040">
                        <set attributeName="fill" to="#808080" begin="arrowLeft.mouseover" end="arrowLeft.mouseout"/>
                  </use>
                  <path fill="none" stroke="white" stroke-width="1.5" d="M0,-3.0v7 M-2.5,-0.5L0,-3.0L2.5,-0.5"/>
                </g>
        </g>
        <svg viewBox="0 0 15 15" width="100%" height="30px" preserveAspectRatio="xMaxYMin meet">
         <g id="arrow_out" transform="scale(0.3 0.3)">
          <a xlink:href="reader_8h__incl_org.svg" target="_base">
           <rect id="button" ry="5" rx="5" y="6" x="6" height="38" width="38"
                fill="#f2f5e9" fill-opacity="0.5" stroke="#606060" stroke-width="1.0"/>
           <path id="arrow"
             d="M 11.500037,31.436501 C 11.940474,20.09759 22.043105,11.32322 32.158766,21.979434 L 37.068811,17.246167 C 37.068811,17.246167 37.088388,32 37.088388,32 L 22.160133,31.978069 C 22.160133,31.978069 26.997745,27.140456 26.997745,27.140456 C 18.528582,18.264221 13.291696,25.230495 11.500037,31.436501 z"
             style="fill:#404040;"/>
          </a>
         </g>
        </svg>
</svg>
