<?xml version="1.0" encoding="UTF-8" standalone="no"?>
<!DOCTYPE svg PUBLIC "-//W3C//DTD SVG 1.1//EN"
 "http://www.w3.org/Graphics/SVG/1.1/DTD/svg11.dtd">
<!-- Generated by graphviz version 2.38.0 (20140413.2041)
 -->
<!-- Title: Any::as Pages: 1 -->
<svg width="207pt" height="66pt"
 viewBox="0.00 0.00 207.00 66.00" xmlns="http://www.w3.org/2000/svg" xmlns:xlink="http://www.w3.org/1999/xlink">
<g id="graph0" class="graph" transform="scale(1 1) rotate(0) translate(4 62)">
<title>Any::as</title>
<!-- Node1 -->
<g id="node1" class="node"><title>Node1</title>
<g id="a_node1"><a xlink:title=" ">
<polygon fill="#bfbfbf" stroke="black" points="149,-19.5 149,-38.5 199,-38.5 199,-19.5 149,-19.5"/>
<text text-anchor="middle" x="174" y="-26.5" font-family="Helvetica,sans-Serif" font-size="10.00">Any::as</text>
</a>
</g>
</g>
<!-- Node2 -->
<g id="node2" class="node"><title>Node2</title>
<g id="a_node2"><a xlink:href="../../df/dec/struct_utils_1_1_field__t.xhtml#a7114c4e2732ed30420e16d87d0b3f8d9" target="_top" xlink:title=" ">
<polygon fill="none" stroke="black" points="0,-38.5 0,-57.5 113,-57.5 113,-38.5 0,-38.5"/>
<text text-anchor="middle" x="56.5" y="-45.5" font-family="Helvetica,sans-Serif" font-size="10.00">Utils::Field_t::~Field_t</text>
</a>
</g>
</g>
<!-- Node1&#45;&gt;Node2 -->
<g id="edge1" class="edge"><title>Node1&#45;&gt;Node2</title>
<path fill="none" stroke="midnightblue" d="M138.677,-34.6463C130.613,-35.9728 121.815,-37.42 113.084,-38.8563"/>
<polygon fill="midnightblue" stroke="midnightblue" points="139.488,-38.0599 148.787,-32.983 138.352,-31.1527 139.488,-38.0599"/>
</g>
<!-- Node3 -->
<g id="node3" class="node"><title>Node3</title>
<g id="a_node3"><a xlink:href="../../d4/dfd/struct_utils_1_1_object.xhtml#a9937825aa13fb1155df9d7ab8cff5576" target="_top" xlink:title=" ">
<polygon fill="none" stroke="black" points="1,-0.5 1,-19.5 112,-19.5 112,-0.5 1,-0.5"/>
<text text-anchor="middle" x="56.5" y="-7.5" font-family="Helvetica,sans-Serif" font-size="10.00">Utils::Object::~Object</text>
</a>
</g>
</g>
<!-- Node1&#45;&gt;Node3 -->
<g id="edge2" class="edge"><title>Node1&#45;&gt;Node3</title>
<path fill="none" stroke="midnightblue" d="M138.687,-23.3554C130.327,-21.9802 121.178,-20.4751 112.131,-18.9869"/>
<polygon fill="midnightblue" stroke="midnightblue" points="138.352,-26.8473 148.787,-25.017 139.488,-19.9401 138.352,-26.8473"/>
</g>
</g>
</svg>
