<?xml version="1.0" encoding="UTF-8" standalone="no"?>
<!DOCTYPE svg PUBLIC "-//W3C//DTD SVG 1.1//EN"
 "http://www.w3.org/Graphics/SVG/1.1/DTD/svg11.dtd">
<!-- Generated by graphviz version 2.38.0 (20140413.2041)
 -->
<!-- Title: MemoryAreas::MethodArea Pages: 1 -->
<!--zoomable 485 -->
<svg id="main" version="1.1" xmlns="http://www.w3.org/2000/svg" xmlns:xlink="http://www.w3.org/1999/xlink" xml:space="preserve" onload="init(evt)">
<style type="text/css"><![CDATA[
.edge:hover path { stroke: red; }
.edge:hover polygon { stroke: red; fill: red; }
]]></style>
<script type="text/javascript"><![CDATA[
var edges = document.getElementsByTagName('g');
if (edges && edges.length) {
  for (var i=0;i<edges.length;i++) {
    if (edges[i].id.substr(0,4)=='edge') {
      edges[i].setAttribute('class','edge');
    }
  }
}
]]></script>
        <defs>
                <circle id="rim" cx="0" cy="0" r="7"/>
                <circle id="rim2" cx="0" cy="0" r="3.5"/>
                <g id="zoomPlus">
                        <use xlink:href="#rim" fill="#404040">
                                <set attributeName="fill" to="#808080" begin="zoomplus.mouseover" end="zoomplus.mouseout"/>
                        </use>
                        <path d="M-4,0h8M0,-4v8" fill="none" stroke="white" stroke-width="1.5" pointer-events="none"/>
                </g>
                <g id="zoomMin">
                        <use xlink:href="#rim" fill="#404040">
                                <set attributeName="fill" to="#808080" begin="zoomminus.mouseover" end="zoomminus.mouseout"/>
                        </use>
                        <path d="M-4,0h8" fill="none" stroke="white" stroke-width="1.5" pointer-events="none"/>
                </g>
                <g id="dirArrow">
                        <path fill="none" stroke="white" stroke-width="1.5" d="M0,-3.0v7 M-2.5,-0.5L0,-3.0L2.5,-0.5"/>
                </g>
               <g id="resetDef">
                       <use xlink:href="#rim2" fill="#404040">
                               <set attributeName="fill" to="#808080" begin="reset.mouseover" end="reset.mouseout"/>
                       </use>
               </g>
        </defs>

<script type="text/javascript">
var viewWidth = 771;
var viewHeight = 485;
var sectionId = 'dynsection-0';
</script>
<script xlink:href="../../svgpan.js"/>
<svg id="graph" class="graph">
<g id="viewport">
<title>MemoryAreas::MethodArea</title>
<!-- Node1 -->
<g id="node1" class="node"><title>Node1</title>
<g id="a_node1"><a xlink:title=" ">
<polygon fill="#bfbfbf" stroke="black" points="65.5,-0.5 65.5,-134.5 201.5,-134.5 201.5,-0.5 65.5,-0.5"/>
<text text-anchor="middle" x="133.5" y="-122.5" font-family="Helvetica,sans-Serif" font-size="10.00">MemoryAreas::MethodArea</text>
<polyline fill="none" stroke="black" points="65.5,-115.5 201.5,-115.5 "/>
<text text-anchor="middle" x="133.5" y="-103.5" font-family="Helvetica,sans-Serif" font-size="10.00"> </text>
<polyline fill="none" stroke="black" points="65.5,-96.5 201.5,-96.5 "/>
<text text-anchor="start" x="73.5" y="-84.5" font-family="Helvetica,sans-Serif" font-size="10.00">+ MethodArea()</text>
<text text-anchor="start" x="73.5" y="-73.5" font-family="Helvetica,sans-Serif" font-size="10.00">+ ~MethodArea()</text>
<text text-anchor="start" x="73.5" y="-62.5" font-family="Helvetica,sans-Serif" font-size="10.00">+ update()</text>
<text text-anchor="start" x="73.5" y="-51.5" font-family="Helvetica,sans-Serif" font-size="10.00">+ isLoaded()</text>
<text text-anchor="start" x="73.5" y="-40.5" font-family="Helvetica,sans-Serif" font-size="10.00">+ getClass()</text>
<text text-anchor="start" x="73.5" y="-29.5" font-family="Helvetica,sans-Serif" font-size="10.00">+ loadClass()</text>
<text text-anchor="start" x="73.5" y="-18.5" font-family="Helvetica,sans-Serif" font-size="10.00">+ getMethod()</text>
<text text-anchor="start" x="73.5" y="-7.5" font-family="Helvetica,sans-Serif" font-size="10.00">+ getField()</text>
</a>
</g>
</g>
<!-- Node2 -->
<g id="node2" class="node"><title>Node2</title>
<g id="a_node2"><a xlink:title=" ">
<polygon fill="none" stroke="#bfbfbf" points="0,-408.5 0,-476.5 135,-476.5 135,-408.5 0,-408.5"/>
<text text-anchor="start" x="8" y="-464.5" font-family="Helvetica,sans-Serif" font-size="10.00">vector&lt; Utils::ConstantPool</text>
<text text-anchor="middle" x="67.5" y="-453.5" font-family="Helvetica,sans-Serif" font-size="10.00">::cp_info &gt;</text>
<polyline fill="none" stroke="#bfbfbf" points="0,-446.5 135,-446.5 "/>
<text text-anchor="middle" x="67.5" y="-434.5" font-family="Helvetica,sans-Serif" font-size="10.00"> </text>
<polyline fill="none" stroke="#bfbfbf" points="0,-427.5 135,-427.5 "/>
<text text-anchor="middle" x="67.5" y="-415.5" font-family="Helvetica,sans-Serif" font-size="10.00"> </text>
</a>
</g>
</g>
<!-- Node2&#45;&gt;Node1 -->
<g id="edge1" class="edge"><title>Node2&#45;&gt;Node1</title>
<path fill="none" stroke="#404040" d="M67.6167,-408.201C68.2062,-373.29 70.4812,-316.948 78.5,-269 85.3766,-227.881 97.2437,-183.053 108.198,-146.232"/>
<polygon fill="none" stroke="#404040" points="108.25,-146.062 106.153,-139.162 111.716,-134.574 113.812,-141.473 108.25,-146.062"/>
<text text-anchor="middle" x="152.5" y="-214" font-family="Helvetica,sans-Serif" font-size="10.00"> +runtime_constant_pool</text>
</g>
<!-- Node3 -->
<g id="node3" class="node"><title>Node3</title>
<g id="a_node3"><a xlink:href="../../da/d41/class_class_file.xhtml" target="_top" xlink:title=" ">
<polygon fill="none" stroke="black" points="270.5,-182.5 270.5,-250.5 348.5,-250.5 348.5,-182.5 270.5,-182.5"/>
<text text-anchor="middle" x="309.5" y="-238.5" font-family="Helvetica,sans-Serif" font-size="10.00">ClassFile</text>
<polyline fill="none" stroke="black" points="270.5,-231.5 348.5,-231.5 "/>
<text text-anchor="middle" x="309.5" y="-219.5" font-family="Helvetica,sans-Serif" font-size="10.00"> </text>
<polyline fill="none" stroke="black" points="270.5,-212.5 348.5,-212.5 "/>
<text text-anchor="start" x="278.5" y="-200.5" font-family="Helvetica,sans-Serif" font-size="10.00">+ ClassFile()</text>
<text text-anchor="start" x="278.5" y="-189.5" font-family="Helvetica,sans-Serif" font-size="10.00">+ ~ClassFile()</text>
</a>
</g>
</g>
<!-- Node2&#45;&gt;Node3 -->
<g id="edge6" class="edge"><title>Node2&#45;&gt;Node3</title>
<path fill="none" stroke="#404040" d="M72.6778,-408.135C80.4373,-358.347 94.3058,-270.265 95.5,-269 120.813,-242.181 140.616,-259.505 176.5,-251 203.679,-244.559 233.876,-236.986 258.618,-230.672"/>
<polygon fill="none" stroke="#404040" points="258.663,-230.661 263.484,-225.297 270.289,-227.684 265.468,-233.047 258.663,-230.661"/>
<text text-anchor="middle" x="130.5" y="-327" font-family="Helvetica,sans-Serif" font-size="10.00"> +constant_pool</text>
</g>
<!-- Node3&#45;&gt;Node1 -->
<g id="edge2" class="edge"><title>Node3&#45;&gt;Node1</title>
<path fill="none" stroke="#404040" d="M270.44,-182.876C252.876,-168.206 231.497,-150.35 210.905,-133.15"/>
<polygon fill="none" stroke="#404040" points="210.725,-133 203.556,-132.224 201.515,-125.308 208.684,-126.084 210.725,-133"/>
<text text-anchor="middle" x="288.5" y="-156" font-family="Helvetica,sans-Serif" font-size="10.00"> +runtime_classfile</text>
</g>
<!-- Node4 -->
<g id="node4" class="node"><title>Node4</title>
<g id="a_node4"><a xlink:title=" ">
<polygon fill="none" stroke="#bfbfbf" points="155,-414 155,-471 206,-471 206,-414 155,-414"/>
<text text-anchor="middle" x="180.5" y="-459" font-family="Helvetica,sans-Serif" font-size="10.00">uint32_t</text>
<polyline fill="none" stroke="#bfbfbf" points="155,-452 206,-452 "/>
<text text-anchor="middle" x="180.5" y="-440" font-family="Helvetica,sans-Serif" font-size="10.00"> </text>
<polyline fill="none" stroke="#bfbfbf" points="155,-433 206,-433 "/>
<text text-anchor="middle" x="180.5" y="-421" font-family="Helvetica,sans-Serif" font-size="10.00"> </text>
</a>
</g>
</g>
<!-- Node4&#45;&gt;Node3 -->
<g id="edge3" class="edge"><title>Node4&#45;&gt;Node3</title>
<path fill="none" stroke="#404040" d="M174.324,-413.841C167.803,-377.176 162.197,-312.099 192.5,-269 207.842,-247.179 234.569,-234.496 258.608,-227.18"/>
<polygon fill="none" stroke="#404040" points="258.923,-227.093 263.649,-221.646 270.494,-223.913 265.769,-229.36 258.923,-227.093"/>
<text text-anchor="middle" x="210.5" y="-327" font-family="Helvetica,sans-Serif" font-size="10.00"> +magic</text>
</g>
<!-- Node5 -->
<g id="node5" class="node"><title>Node5</title>
<g id="a_node5"><a xlink:title=" ">
<polygon fill="none" stroke="#bfbfbf" points="224,-414 224,-471 275,-471 275,-414 224,-414"/>
<text text-anchor="middle" x="249.5" y="-459" font-family="Helvetica,sans-Serif" font-size="10.00">uint16_t</text>
<polyline fill="none" stroke="#bfbfbf" points="224,-452 275,-452 "/>
<text text-anchor="middle" x="249.5" y="-440" font-family="Helvetica,sans-Serif" font-size="10.00"> </text>
<polyline fill="none" stroke="#bfbfbf" points="224,-433 275,-433 "/>
<text text-anchor="middle" x="249.5" y="-421" font-family="Helvetica,sans-Serif" font-size="10.00"> </text>
</a>
</g>
</g>
<!-- Node5&#45;&gt;Node3 -->
<g id="edge4" class="edge"><title>Node5&#45;&gt;Node3</title>
<path fill="none" stroke="#404040" d="M241.829,-413.932C233.528,-378.498 224.236,-315.957 246.5,-269 250.038,-261.539 255.245,-254.8 261.174,-248.842"/>
<polygon fill="none" stroke="#404040" points="261.337,-248.695 263.13,-241.711 270.267,-240.68 268.474,-247.664 261.337,-248.695"/>
<text text-anchor="middle" x="295" y="-382" font-family="Helvetica,sans-Serif" font-size="10.00"> +minor_version</text>
<text text-anchor="middle" x="295" y="-371" font-family="Helvetica,sans-Serif" font-size="10.00">+methods_count</text>
<text text-anchor="middle" x="295" y="-360" font-family="Helvetica,sans-Serif" font-size="10.00">+attributes_count</text>
<text text-anchor="middle" x="295" y="-349" font-family="Helvetica,sans-Serif" font-size="10.00">+interfaces_count</text>
<text text-anchor="middle" x="295" y="-338" font-family="Helvetica,sans-Serif" font-size="10.00">+this_class</text>
<text text-anchor="middle" x="295" y="-327" font-family="Helvetica,sans-Serif" font-size="10.00">+access_flags</text>
<text text-anchor="middle" x="295" y="-316" font-family="Helvetica,sans-Serif" font-size="10.00">+major_version</text>
<text text-anchor="middle" x="295" y="-305" font-family="Helvetica,sans-Serif" font-size="10.00">+constant_pool_count</text>
<text text-anchor="middle" x="295" y="-294" font-family="Helvetica,sans-Serif" font-size="10.00">+fields_count</text>
<text text-anchor="middle" x="295" y="-283" font-family="Helvetica,sans-Serif" font-size="10.00">+super_class</text>
<text text-anchor="middle" x="295" y="-272" font-family="Helvetica,sans-Serif" font-size="10.00">...</text>
</g>
<!-- Node6 -->
<g id="node6" class="node"><title>Node6</title>
<g id="a_node6"><a xlink:title=" ">
<polygon fill="none" stroke="#bfbfbf" points="293,-408.5 293,-476.5 390,-476.5 390,-408.5 293,-408.5"/>
<text text-anchor="start" x="301" y="-464.5" font-family="Helvetica,sans-Serif" font-size="10.00">vector&lt; Utils::Infos</text>
<text text-anchor="middle" x="341.5" y="-453.5" font-family="Helvetica,sans-Serif" font-size="10.00">::field_info &gt;</text>
<polyline fill="none" stroke="#bfbfbf" points="293,-446.5 390,-446.5 "/>
<text text-anchor="middle" x="341.5" y="-434.5" font-family="Helvetica,sans-Serif" font-size="10.00"> </text>
<polyline fill="none" stroke="#bfbfbf" points="293,-427.5 390,-427.5 "/>
<text text-anchor="middle" x="341.5" y="-415.5" font-family="Helvetica,sans-Serif" font-size="10.00"> </text>
</a>
</g>
</g>
<!-- Node6&#45;&gt;Node3 -->
<g id="edge5" class="edge"><title>Node6&#45;&gt;Node3</title>
<path fill="none" stroke="#404040" d="M349.281,-408.44C356.118,-372.996 362.812,-315.54 347.5,-269 346.654,-266.427 345.624,-263.878 344.453,-261.37"/>
<polygon fill="none" stroke="#404040" points="344.361,-261.203 337.957,-257.889 338.552,-250.702 344.957,-254.016 344.361,-261.203"/>
<text text-anchor="middle" x="372.5" y="-327" font-family="Helvetica,sans-Serif" font-size="10.00"> +fields</text>
</g>
<!-- Node7 -->
<g id="node7" class="node"><title>Node7</title>
<g id="a_node7"><a xlink:title=" ">
<polygon fill="none" stroke="#bfbfbf" points="408,-408.5 408,-476.5 527,-476.5 527,-408.5 408,-408.5"/>
<text text-anchor="start" x="416" y="-464.5" font-family="Helvetica,sans-Serif" font-size="10.00">vector&lt; Utils::Attributes</text>
<text text-anchor="middle" x="467.5" y="-453.5" font-family="Helvetica,sans-Serif" font-size="10.00">::attribute_info &gt;</text>
<polyline fill="none" stroke="#bfbfbf" points="408,-446.5 527,-446.5 "/>
<text text-anchor="middle" x="467.5" y="-434.5" font-family="Helvetica,sans-Serif" font-size="10.00"> </text>
<polyline fill="none" stroke="#bfbfbf" points="408,-427.5 527,-427.5 "/>
<text text-anchor="middle" x="467.5" y="-415.5" font-family="Helvetica,sans-Serif" font-size="10.00"> </text>
</a>
</g>
</g>
<!-- Node7&#45;&gt;Node3 -->
<g id="edge7" class="edge"><title>Node7&#45;&gt;Node3</title>
<path fill="none" stroke="#404040" d="M459.54,-408.409C449.214,-371.095 428.163,-310.258 392.5,-269 383.237,-258.283 371.182,-249.077 359.143,-241.537"/>
<polygon fill="none" stroke="#404040" points="358.975,-241.438 351.775,-241.836 348.638,-235.343 355.838,-234.945 358.975,-241.438"/>
<text text-anchor="middle" x="477.5" y="-327" font-family="Helvetica,sans-Serif" font-size="10.00"> +attributes</text>
</g>
<!-- Node8 -->
<g id="node8" class="node"><title>Node8</title>
<g id="a_node8"><a xlink:title=" ">
<polygon fill="none" stroke="#bfbfbf" points="545,-408.5 545,-476.5 642,-476.5 642,-408.5 545,-408.5"/>
<text text-anchor="start" x="553" y="-464.5" font-family="Helvetica,sans-Serif" font-size="10.00">vector&lt; Utils::Infos</text>
<text text-anchor="middle" x="593.5" y="-453.5" font-family="Helvetica,sans-Serif" font-size="10.00">::method_info &gt;</text>
<polyline fill="none" stroke="#bfbfbf" points="545,-446.5 642,-446.5 "/>
<text text-anchor="middle" x="593.5" y="-434.5" font-family="Helvetica,sans-Serif" font-size="10.00"> </text>
<polyline fill="none" stroke="#bfbfbf" points="545,-427.5 642,-427.5 "/>
<text text-anchor="middle" x="593.5" y="-415.5" font-family="Helvetica,sans-Serif" font-size="10.00"> </text>
</a>
</g>
</g>
<!-- Node8&#45;&gt;Node3 -->
<g id="edge8" class="edge"><title>Node8&#45;&gt;Node3</title>
<path fill="none" stroke="#404040" d="M585.656,-408.312C574.662,-369.149 550.848,-304.84 506.5,-269 464.959,-235.429 403.834,-223.546 360.71,-219.444"/>
<polygon fill="none" stroke="#404040" points="360.462,-219.424 354.155,-222.92 348.502,-218.444 354.809,-214.947 360.462,-219.424"/>
<text text-anchor="middle" x="603" y="-327" font-family="Helvetica,sans-Serif" font-size="10.00"> +methods</text>
</g>
<!-- Node9 -->
<g id="node9" class="node"><title>Node9</title>
<g id="a_node9"><a xlink:title=" ">
<polygon fill="none" stroke="#bfbfbf" points="660,-408.5 660,-476.5 763,-476.5 763,-408.5 660,-408.5"/>
<text text-anchor="start" x="668" y="-464.5" font-family="Helvetica,sans-Serif" font-size="10.00">vector&lt; Utils::Types</text>
<text text-anchor="middle" x="711.5" y="-453.5" font-family="Helvetica,sans-Serif" font-size="10.00">::u2 &gt;</text>
<polyline fill="none" stroke="#bfbfbf" points="660,-446.5 763,-446.5 "/>
<text text-anchor="middle" x="711.5" y="-434.5" font-family="Helvetica,sans-Serif" font-size="10.00"> </text>
<polyline fill="none" stroke="#bfbfbf" points="660,-427.5 763,-427.5 "/>
<text text-anchor="middle" x="711.5" y="-415.5" font-family="Helvetica,sans-Serif" font-size="10.00"> </text>
</a>
</g>
</g>
<!-- Node9&#45;&gt;Node3 -->
<g id="edge9" class="edge"><title>Node9&#45;&gt;Node3</title>
<path fill="none" stroke="#404040" d="M705.588,-408.333C696.653,-368.566 675.695,-303.033 630.5,-269 588.879,-237.658 440.337,-224.737 360.74,-219.969"/>
<polygon fill="none" stroke="#404040" points="360.565,-219.959 354.346,-223.609 348.584,-219.272 354.804,-215.622 360.565,-219.959"/>
<text text-anchor="middle" x="725.5" y="-327" font-family="Helvetica,sans-Serif" font-size="10.00"> +interfaces</text>
</g>
</g>
</svg>
        <g id="navigator" transform="translate(0 0)" fill="#404254">
                <rect fill="#f2f5e9" fill-opacity="0.5" stroke="#606060" stroke-width=".5" x="0" y="0" width="60" height="60"/>
                <use id="zoomplus" xlink:href="#zoomPlus" x="17" y="9" onmousedown="handleZoom(evt,'in')"/>
                <use id="zoomminus" xlink:href="#zoomMin" x="42" y="9" onmousedown="handleZoom(evt,'out')"/>
                <use id="reset" xlink:href="#resetDef" x="30" y="36" onmousedown="handleReset()"/>
                <g id="arrowUp" xlink:href="#dirArrow" transform="translate(30 24)" onmousedown="handlePan(0,-1)">
                  <use xlink:href="#rim" fill="#404040">
                        <set attributeName="fill" to="#808080" begin="arrowUp.mouseover" end="arrowUp.mouseout"/>
                  </use>
                  <path fill="none" stroke="white" stroke-width="1.5" d="M0,-3.0v7 M-2.5,-0.5L0,-3.0L2.5,-0.5"/>
                </g>
                <g id="arrowRight" xlink:href="#dirArrow" transform="rotate(90) translate(36 -43)" onmousedown="handlePan(1,0)">
                  <use xlink:href="#rim" fill="#404040">
                        <set attributeName="fill" to="#808080" begin="arrowRight.mouseover" end="arrowRight.mouseout"/>
                  </use>
                  <path fill="none" stroke="white" stroke-width="1.5" d="M0,-3.0v7 M-2.5,-0.5L0,-3.0L2.5,-0.5"/>
                </g>
                <g id="arrowDown" xlink:href="#dirArrow" transform="rotate(180) translate(-30 -48)" onmousedown="handlePan(0,1)">
                  <use xlink:href="#rim" fill="#404040">
                        <set attributeName="fill" to="#808080" begin="arrowDown.mouseover" end="arrowDown.mouseout"/>
                  </use>
                  <path fill="none" stroke="white" stroke-width="1.5" d="M0,-3.0v7 M-2.5,-0.5L0,-3.0L2.5,-0.5"/>
                </g>
                <g id="arrowLeft" xlink:href="#dirArrow" transform="rotate(270) translate(-36 17)" onmousedown="handlePan(-1,0)">
                  <use xlink:href="#rim" fill="#404040">
                        <set attributeName="fill" to="#808080" begin="arrowLeft.mouseover" end="arrowLeft.mouseout"/>
                  </use>
                  <path fill="none" stroke="white" stroke-width="1.5" d="M0,-3.0v7 M-2.5,-0.5L0,-3.0L2.5,-0.5"/>
                </g>
        </g>
        <svg viewBox="0 0 15 15" width="100%" height="30px" preserveAspectRatio="xMaxYMin meet">
         <g id="arrow_out" transform="scale(0.3 0.3)">
          <a xlink:href="class_memory_areas_1_1_method_area__coll__graph_org.svg" target="_base">
           <rect id="button" ry="5" rx="5" y="6" x="6" height="38" width="38"
                fill="#f2f5e9" fill-opacity="0.5" stroke="#606060" stroke-width="1.0"/>
           <path id="arrow"
             d="M 11.500037,31.436501 C 11.940474,20.09759 22.043105,11.32322 32.158766,21.979434 L 37.068811,17.246167 C 37.068811,17.246167 37.088388,32 37.088388,32 L 22.160133,31.978069 C 22.160133,31.978069 26.997745,27.140456 26.997745,27.140456 C 18.528582,18.264221 13.291696,25.230495 11.500037,31.436501 z"
             style="fill:#404040;"/>
          </a>
         </g>
        </svg>
</svg>
