<?xml version="1.0" encoding="UTF-8" standalone="no"?>
<!DOCTYPE svg PUBLIC "-//W3C//DTD SVG 1.1//EN"
 "http://www.w3.org/Graphics/SVG/1.1/DTD/svg11.dtd">
<!-- Generated by graphviz version 2.38.0 (20140413.2041)
 -->
<!-- Title: MemoryAreas::MethodArea Pages: 1 -->
<svg width="782pt" height="485pt"
 viewBox="0.00 0.00 781.50 485.00" xmlns="http://www.w3.org/2000/svg" xmlns:xlink="http://www.w3.org/1999/xlink">
<g id="graph0" class="graph" transform="scale(1 1) rotate(0) translate(4 481)">
<title>MemoryAreas::MethodArea</title>
<!-- Node1 -->
<g id="node1" class="node"><title>Node1</title>
<g id="a_node1"><a xlink:title=" ">
<polygon fill="#bfbfbf" stroke="black" points="261.5,-0.5 261.5,-134.5 397.5,-134.5 397.5,-0.5 261.5,-0.5"/>
<text text-anchor="middle" x="329.5" y="-122.5" font-family="Helvetica,sans-Serif" font-size="10.00">MemoryAreas::MethodArea</text>
<polyline fill="none" stroke="black" points="261.5,-115.5 397.5,-115.5 "/>
<text text-anchor="middle" x="329.5" y="-103.5" font-family="Helvetica,sans-Serif" font-size="10.00"> </text>
<polyline fill="none" stroke="black" points="261.5,-96.5 397.5,-96.5 "/>
<text text-anchor="start" x="269.5" y="-84.5" font-family="Helvetica,sans-Serif" font-size="10.00">+ MethodArea()</text>
<text text-anchor="start" x="269.5" y="-73.5" font-family="Helvetica,sans-Serif" font-size="10.00">+ ~MethodArea()</text>
<text text-anchor="start" x="269.5" y="-62.5" font-family="Helvetica,sans-Serif" font-size="10.00">+ update()</text>
<text text-anchor="start" x="269.5" y="-51.5" font-family="Helvetica,sans-Serif" font-size="10.00">+ isLoaded()</text>
<text text-anchor="start" x="269.5" y="-40.5" font-family="Helvetica,sans-Serif" font-size="10.00">+ getClass()</text>
<text text-anchor="start" x="269.5" y="-29.5" font-family="Helvetica,sans-Serif" font-size="10.00">+ loadClass()</text>
<text text-anchor="start" x="269.5" y="-18.5" font-family="Helvetica,sans-Serif" font-size="10.00">+ getMethod()</text>
<text text-anchor="start" x="269.5" y="-7.5" font-family="Helvetica,sans-Serif" font-size="10.00">+ getField()</text>
</a>
</g>
</g>
<!-- Node2 -->
<g id="node2" class="node"><title>Node2</title>
<g id="a_node2"><a xlink:title=" ">
<polygon fill="none" stroke="#bfbfbf" points="0,-408.5 0,-476.5 97,-476.5 97,-408.5 0,-408.5"/>
<text text-anchor="start" x="8" y="-464.5" font-family="Helvetica,sans-Serif" font-size="10.00">vector&lt; Utils::Infos</text>
<text text-anchor="middle" x="48.5" y="-453.5" font-family="Helvetica,sans-Serif" font-size="10.00">::field_info &gt;</text>
<polyline fill="none" stroke="#bfbfbf" points="0,-446.5 97,-446.5 "/>
<text text-anchor="middle" x="48.5" y="-434.5" font-family="Helvetica,sans-Serif" font-size="10.00"> </text>
<polyline fill="none" stroke="#bfbfbf" points="0,-427.5 97,-427.5 "/>
<text text-anchor="middle" x="48.5" y="-415.5" font-family="Helvetica,sans-Serif" font-size="10.00"> </text>
</a>
</g>
</g>
<!-- Node2&#45;&gt;Node1 -->
<g id="edge1" class="edge"><title>Node2&#45;&gt;Node1</title>
<path fill="none" stroke="#404040" d="M43.7608,-408.385C40.1876,-371.866 39.3947,-312.521 63.5,-269 105.132,-193.836 188.04,-138.382 250.289,-105.078"/>
<polygon fill="none" stroke="#404040" points="250.638,-104.895 254.093,-98.5653 261.265,-99.3197 257.81,-105.649 250.638,-104.895"/>
<text text-anchor="middle" x="148.5" y="-214" font-family="Helvetica,sans-Serif" font-size="10.00"> +fields</text>
</g>
<!-- Node4 -->
<g id="node4" class="node"><title>Node4</title>
<g id="a_node4"><a xlink:href="../../da/d41/class_class_file.xhtml" target="_top" xlink:title=" ">
<polygon fill="none" stroke="black" points="290.5,-182.5 290.5,-250.5 368.5,-250.5 368.5,-182.5 290.5,-182.5"/>
<text text-anchor="middle" x="329.5" y="-238.5" font-family="Helvetica,sans-Serif" font-size="10.00">ClassFile</text>
<polyline fill="none" stroke="black" points="290.5,-231.5 368.5,-231.5 "/>
<text text-anchor="middle" x="329.5" y="-219.5" font-family="Helvetica,sans-Serif" font-size="10.00"> </text>
<polyline fill="none" stroke="black" points="290.5,-212.5 368.5,-212.5 "/>
<text text-anchor="start" x="298.5" y="-200.5" font-family="Helvetica,sans-Serif" font-size="10.00">+ ClassFile()</text>
<text text-anchor="start" x="298.5" y="-189.5" font-family="Helvetica,sans-Serif" font-size="10.00">+ ~ClassFile()</text>
</a>
</g>
</g>
<!-- Node2&#45;&gt;Node4 -->
<g id="edge6" class="edge"><title>Node2&#45;&gt;Node4</title>
<path fill="none" stroke="#404040" d="M56.9078,-408.313C69.5897,-358.287 92.1803,-269.308 92.5,-269 118.58,-243.836 216.747,-229.228 278.263,-222.358"/>
<polygon fill="none" stroke="#404040" points="278.489,-222.333 284.025,-217.713 290.419,-221.047 284.883,-225.667 278.489,-222.333"/>
<text text-anchor="middle" x="108.5" y="-327" font-family="Helvetica,sans-Serif" font-size="10.00"> +fields</text>
</g>
<!-- Node3 -->
<g id="node3" class="node"><title>Node3</title>
<g id="a_node3"><a xlink:title=" ">
<polygon fill="none" stroke="#bfbfbf" points="626,-408.5 626,-476.5 761,-476.5 761,-408.5 626,-408.5"/>
<text text-anchor="start" x="634" y="-464.5" font-family="Helvetica,sans-Serif" font-size="10.00">vector&lt; Utils::ConstantPool</text>
<text text-anchor="middle" x="693.5" y="-453.5" font-family="Helvetica,sans-Serif" font-size="10.00">::cp_info &gt;</text>
<polyline fill="none" stroke="#bfbfbf" points="626,-446.5 761,-446.5 "/>
<text text-anchor="middle" x="693.5" y="-434.5" font-family="Helvetica,sans-Serif" font-size="10.00"> </text>
<polyline fill="none" stroke="#bfbfbf" points="626,-427.5 761,-427.5 "/>
<text text-anchor="middle" x="693.5" y="-415.5" font-family="Helvetica,sans-Serif" font-size="10.00"> </text>
</a>
</g>
</g>
<!-- Node3&#45;&gt;Node1 -->
<g id="edge2" class="edge"><title>Node3&#45;&gt;Node1</title>
<path fill="none" stroke="#404040" d="M699.397,-408.476C704.174,-371.498 706.318,-311.232 679.5,-269 618.074,-172.27 492.182,-117.282 409.329,-90.193"/>
<polygon fill="none" stroke="#404040" points="409.114,-90.1246 402.182,-92.1108 397.682,-86.4758 404.614,-84.4896 409.114,-90.1246"/>
<text text-anchor="middle" x="719.5" y="-214" font-family="Helvetica,sans-Serif" font-size="10.00"> +runtime_constant_pool</text>
</g>
<!-- Node3&#45;&gt;Node4 -->
<g id="edge7" class="edge"><title>Node3&#45;&gt;Node4</title>
<path fill="none" stroke="#404040" d="M626.896,-408.467C620.28,-403.041 614.263,-396.897 609.5,-390 578.396,-344.955 625.015,-307.899 586.5,-269 558.339,-240.558 447.528,-226.887 380.952,-221.116"/>
<polygon fill="none" stroke="#404040" points="380.624,-221.089 374.313,-224.58 368.665,-220.097 374.975,-216.607 380.624,-221.089"/>
<text text-anchor="middle" x="644.5" y="-327" font-family="Helvetica,sans-Serif" font-size="10.00"> +constant_pool</text>
</g>
<!-- Node4&#45;&gt;Node1 -->
<g id="edge3" class="edge"><title>Node4&#45;&gt;Node1</title>
<path fill="none" stroke="#404040" d="M329.5,-182.143C329.5,-171.597 329.5,-159.46 329.5,-147.13"/>
<polygon fill="none" stroke="#404040" points="329.5,-146.787 325.5,-140.787 329.5,-134.787 333.5,-140.787 329.5,-146.787"/>
<text text-anchor="middle" x="370.5" y="-156" font-family="Helvetica,sans-Serif" font-size="10.00"> +runtime_classfile</text>
</g>
<!-- Node5 -->
<g id="node5" class="node"><title>Node5</title>
<g id="a_node5"><a xlink:title=" ">
<polygon fill="none" stroke="#bfbfbf" points="115,-414 115,-471 166,-471 166,-414 115,-414"/>
<text text-anchor="middle" x="140.5" y="-459" font-family="Helvetica,sans-Serif" font-size="10.00">uint32_t</text>
<polyline fill="none" stroke="#bfbfbf" points="115,-452 166,-452 "/>
<text text-anchor="middle" x="140.5" y="-440" font-family="Helvetica,sans-Serif" font-size="10.00"> </text>
<polyline fill="none" stroke="#bfbfbf" points="115,-433 166,-433 "/>
<text text-anchor="middle" x="140.5" y="-421" font-family="Helvetica,sans-Serif" font-size="10.00"> </text>
</a>
</g>
</g>
<!-- Node5&#45;&gt;Node4 -->
<g id="edge4" class="edge"><title>Node5&#45;&gt;Node4</title>
<path fill="none" stroke="#404040" d="M134.031,-413.828C127.063,-376.551 121.039,-310.143 154.5,-269 184.109,-232.594 238.068,-221.078 278.272,-217.837"/>
<polygon fill="none" stroke="#404040" points="278.289,-217.836 284.024,-213.465 290.265,-217.078 284.529,-221.449 278.289,-217.836"/>
<text text-anchor="middle" x="172.5" y="-327" font-family="Helvetica,sans-Serif" font-size="10.00"> +magic</text>
</g>
<!-- Node6 -->
<g id="node6" class="node"><title>Node6</title>
<g id="a_node6"><a xlink:title=" ">
<polygon fill="none" stroke="#bfbfbf" points="184,-414 184,-471 235,-471 235,-414 184,-414"/>
<text text-anchor="middle" x="209.5" y="-459" font-family="Helvetica,sans-Serif" font-size="10.00">uint16_t</text>
<polyline fill="none" stroke="#bfbfbf" points="184,-452 235,-452 "/>
<text text-anchor="middle" x="209.5" y="-440" font-family="Helvetica,sans-Serif" font-size="10.00"> </text>
<polyline fill="none" stroke="#bfbfbf" points="184,-433 235,-433 "/>
<text text-anchor="middle" x="209.5" y="-421" font-family="Helvetica,sans-Serif" font-size="10.00"> </text>
</a>
</g>
</g>
<!-- Node6&#45;&gt;Node4 -->
<g id="edge5" class="edge"><title>Node6&#45;&gt;Node4</title>
<path fill="none" stroke="#404040" d="M202.151,-413.702C194.216,-377.173 186.297,-312.557 215.5,-269 229.881,-247.551 255.498,-234.916 278.811,-227.535"/>
<polygon fill="none" stroke="#404040" points="278.827,-227.53 283.494,-222.033 290.364,-224.227 285.697,-229.724 278.827,-227.53"/>
<text text-anchor="middle" x="264" y="-382" font-family="Helvetica,sans-Serif" font-size="10.00"> +minor_version</text>
<text text-anchor="middle" x="264" y="-371" font-family="Helvetica,sans-Serif" font-size="10.00">+methods_count</text>
<text text-anchor="middle" x="264" y="-360" font-family="Helvetica,sans-Serif" font-size="10.00">+attributes_count</text>
<text text-anchor="middle" x="264" y="-349" font-family="Helvetica,sans-Serif" font-size="10.00">+interfaces_count</text>
<text text-anchor="middle" x="264" y="-338" font-family="Helvetica,sans-Serif" font-size="10.00">+this_class</text>
<text text-anchor="middle" x="264" y="-327" font-family="Helvetica,sans-Serif" font-size="10.00">+access_flags</text>
<text text-anchor="middle" x="264" y="-316" font-family="Helvetica,sans-Serif" font-size="10.00">+major_version</text>
<text text-anchor="middle" x="264" y="-305" font-family="Helvetica,sans-Serif" font-size="10.00">+constant_pool_count</text>
<text text-anchor="middle" x="264" y="-294" font-family="Helvetica,sans-Serif" font-size="10.00">+fields_count</text>
<text text-anchor="middle" x="264" y="-283" font-family="Helvetica,sans-Serif" font-size="10.00">+super_class</text>
<text text-anchor="middle" x="264" y="-272" font-family="Helvetica,sans-Serif" font-size="10.00">...</text>
</g>
<!-- Node7 -->
<g id="node7" class="node"><title>Node7</title>
<g id="a_node7"><a xlink:title=" ">
<polygon fill="none" stroke="#bfbfbf" points="253,-408.5 253,-476.5 372,-476.5 372,-408.5 253,-408.5"/>
<text text-anchor="start" x="261" y="-464.5" font-family="Helvetica,sans-Serif" font-size="10.00">vector&lt; Utils::Attributes</text>
<text text-anchor="middle" x="312.5" y="-453.5" font-family="Helvetica,sans-Serif" font-size="10.00">::attribute_info &gt;</text>
<polyline fill="none" stroke="#bfbfbf" points="253,-446.5 372,-446.5 "/>
<text text-anchor="middle" x="312.5" y="-434.5" font-family="Helvetica,sans-Serif" font-size="10.00"> </text>
<polyline fill="none" stroke="#bfbfbf" points="253,-427.5 372,-427.5 "/>
<text text-anchor="middle" x="312.5" y="-415.5" font-family="Helvetica,sans-Serif" font-size="10.00"> </text>
</a>
</g>
</g>
<!-- Node7&#45;&gt;Node4 -->
<g id="edge8" class="edge"><title>Node7&#45;&gt;Node4</title>
<path fill="none" stroke="#404040" d="M315.008,-408.448C317.934,-369.902 322.786,-305.972 326.061,-262.816"/>
<polygon fill="none" stroke="#404040" points="326.073,-262.653 322.539,-256.368 326.981,-250.688 330.516,-256.973 326.073,-262.653"/>
<text text-anchor="middle" x="349.5" y="-327" font-family="Helvetica,sans-Serif" font-size="10.00"> +attributes</text>
</g>
<!-- Node8 -->
<g id="node8" class="node"><title>Node8</title>
<g id="a_node8"><a xlink:title=" ">
<polygon fill="none" stroke="#bfbfbf" points="390,-408.5 390,-476.5 487,-476.5 487,-408.5 390,-408.5"/>
<text text-anchor="start" x="398" y="-464.5" font-family="Helvetica,sans-Serif" font-size="10.00">vector&lt; Utils::Infos</text>
<text text-anchor="middle" x="438.5" y="-453.5" font-family="Helvetica,sans-Serif" font-size="10.00">::method_info &gt;</text>
<polyline fill="none" stroke="#bfbfbf" points="390,-446.5 487,-446.5 "/>
<text text-anchor="middle" x="438.5" y="-434.5" font-family="Helvetica,sans-Serif" font-size="10.00"> </text>
<polyline fill="none" stroke="#bfbfbf" points="390,-427.5 487,-427.5 "/>
<text text-anchor="middle" x="438.5" y="-415.5" font-family="Helvetica,sans-Serif" font-size="10.00"> </text>
</a>
</g>
</g>
<!-- Node8&#45;&gt;Node4 -->
<g id="edge9" class="edge"><title>Node8&#45;&gt;Node4</title>
<path fill="none" stroke="#404040" d="M431.392,-408.209C422.688,-372.059 405.658,-313.532 378.5,-269 376.693,-266.037 374.691,-263.103 372.56,-260.228"/>
<polygon fill="none" stroke="#404040" points="372.432,-260.069 365.554,-257.904 364.907,-250.722 371.785,-252.887 372.432,-260.069"/>
<text text-anchor="middle" x="450" y="-327" font-family="Helvetica,sans-Serif" font-size="10.00"> +methods</text>
</g>
<!-- Node9 -->
<g id="node9" class="node"><title>Node9</title>
<g id="a_node9"><a xlink:title=" ">
<polygon fill="none" stroke="#bfbfbf" points="505,-408.5 505,-476.5 608,-476.5 608,-408.5 505,-408.5"/>
<text text-anchor="start" x="513" y="-464.5" font-family="Helvetica,sans-Serif" font-size="10.00">vector&lt; Utils::Types</text>
<text text-anchor="middle" x="556.5" y="-453.5" font-family="Helvetica,sans-Serif" font-size="10.00">::u2 &gt;</text>
<polyline fill="none" stroke="#bfbfbf" points="505,-446.5 608,-446.5 "/>
<text text-anchor="middle" x="556.5" y="-434.5" font-family="Helvetica,sans-Serif" font-size="10.00"> </text>
<polyline fill="none" stroke="#bfbfbf" points="505,-427.5 608,-427.5 "/>
<text text-anchor="middle" x="556.5" y="-415.5" font-family="Helvetica,sans-Serif" font-size="10.00"> </text>
</a>
</g>
</g>
<!-- Node9&#45;&gt;Node4 -->
<g id="edge10" class="edge"><title>Node9&#45;&gt;Node4</title>
<path fill="none" stroke="#404040" d="M542.078,-408.257C520.841,-359.57 483.059,-274.056 477.5,-269 450.761,-244.678 411.912,-231.73 380.725,-224.901"/>
<polygon fill="none" stroke="#404040" points="380.521,-224.86 373.85,-227.598 368.757,-222.493 375.428,-219.755 380.521,-224.86"/>
<text text-anchor="middle" x="558.5" y="-327" font-family="Helvetica,sans-Serif" font-size="10.00"> +interfaces</text>
</g>
</g>
</svg>
