<?xml version="1.0" encoding="UTF-8" standalone="no"?>
<!DOCTYPE svg PUBLIC "-//W3C//DTD SVG 1.1//EN"
 "http://www.w3.org/Graphics/SVG/1.1/DTD/svg11.dtd">
<!-- Generated by graphviz version 2.38.0 (20140413.2041)
 -->
<!-- Title: Instructions::Double::BaseDouble Pages: 1 -->
<svg width="3034pt" height="353pt"
 viewBox="0.00 0.00 3033.50 353.00" xmlns="http://www.w3.org/2000/svg" xmlns:xlink="http://www.w3.org/1999/xlink">
<g id="graph0" class="graph" transform="scale(1 1) rotate(0) translate(4 349)">
<title>Instructions::Double::BaseDouble</title>
<!-- Node1 -->
<g id="node1" class="node"><title>Node1</title>
<g id="a_node1"><a xlink:title=" ">
<polygon fill="#bfbfbf" stroke="black" points="1457,-116.5 1457,-206.5 1561,-206.5 1561,-116.5 1457,-116.5"/>
<text text-anchor="start" x="1465" y="-194.5" font-family="Helvetica,sans-Serif" font-size="10.00">Instructions::Double</text>
<text text-anchor="middle" x="1509" y="-183.5" font-family="Helvetica,sans-Serif" font-size="10.00">::BaseDouble</text>
<polyline fill="none" stroke="black" points="1457,-176.5 1561,-176.5 "/>
<text text-anchor="middle" x="1509" y="-164.5" font-family="Helvetica,sans-Serif" font-size="10.00"> </text>
<polyline fill="none" stroke="black" points="1457,-157.5 1561,-157.5 "/>
<text text-anchor="start" x="1465" y="-145.5" font-family="Helvetica,sans-Serif" font-size="10.00">+ BaseDouble()</text>
<text text-anchor="start" x="1465" y="-134.5" font-family="Helvetica,sans-Serif" font-size="10.00">+ toBytecode()</text>
<text text-anchor="start" x="1465" y="-123.5" font-family="Helvetica,sans-Serif" font-size="10.00">+ toBytecode_json()</text>
</a>
</g>
</g>
<!-- Node3 -->
<g id="node3" class="node"><title>Node3</title>
<g id="a_node3"><a xlink:href="../../d0/d41/class_instructions_1_1_double_1_1_add.xhtml" target="_top" xlink:title=" ">
<polygon fill="none" stroke="black" points="0,-6 0,-74 126,-74 126,-6 0,-6"/>
<text text-anchor="middle" x="63" y="-62" font-family="Helvetica,sans-Serif" font-size="10.00">Instructions::Double::Add</text>
<polyline fill="none" stroke="black" points="0,-55 126,-55 "/>
<text text-anchor="middle" x="63" y="-43" font-family="Helvetica,sans-Serif" font-size="10.00"> </text>
<polyline fill="none" stroke="black" points="0,-36 126,-36 "/>
<text text-anchor="start" x="8" y="-24" font-family="Helvetica,sans-Serif" font-size="10.00">+ Add()</text>
<text text-anchor="start" x="8" y="-13" font-family="Helvetica,sans-Serif" font-size="10.00">+ execute()</text>
</a>
</g>
</g>
<!-- Node1&#45;&gt;Node3 -->
<g id="edge2" class="edge"><title>Node1&#45;&gt;Node3</title>
<path fill="none" stroke="midnightblue" d="M1446.94,-160.433C1213.23,-159.63 386.637,-151.671 135,-80 129.531,-78.4424 124.013,-76.4193 118.596,-74.1144"/>
<polygon fill="none" stroke="midnightblue" points="1446.96,-163.933 1456.97,-160.464 1446.98,-156.933 1446.96,-163.933"/>
</g>
<!-- Node4 -->
<g id="node4" class="node"><title>Node4</title>
<g id="a_node4"><a xlink:href="../../da/dbf/class_instructions_1_1_double_1_1_compare_greater.xhtml" target="_top" xlink:title=" ">
<polygon fill="none" stroke="black" points="144.5,-0.5 144.5,-79.5 247.5,-79.5 247.5,-0.5 144.5,-0.5"/>
<text text-anchor="start" x="152.5" y="-67.5" font-family="Helvetica,sans-Serif" font-size="10.00">Instructions::Double</text>
<text text-anchor="middle" x="196" y="-56.5" font-family="Helvetica,sans-Serif" font-size="10.00">::CompareGreater</text>
<polyline fill="none" stroke="black" points="144.5,-49.5 247.5,-49.5 "/>
<text text-anchor="middle" x="196" y="-37.5" font-family="Helvetica,sans-Serif" font-size="10.00"> </text>
<polyline fill="none" stroke="black" points="144.5,-30.5 247.5,-30.5 "/>
<text text-anchor="start" x="152.5" y="-18.5" font-family="Helvetica,sans-Serif" font-size="10.00">+ CompareGreater()</text>
<text text-anchor="start" x="152.5" y="-7.5" font-family="Helvetica,sans-Serif" font-size="10.00">+ execute()</text>
</a>
</g>
</g>
<!-- Node1&#45;&gt;Node4 -->
<g id="edge3" class="edge"><title>Node1&#45;&gt;Node4</title>
<path fill="none" stroke="midnightblue" d="M1446.79,-160.649C1225.92,-160.537 480.669,-154.519 256,-80 253.17,-79.0613 250.343,-77.9558 247.544,-76.7231"/>
<polygon fill="none" stroke="midnightblue" points="1446.91,-164.149 1456.91,-160.65 1446.91,-157.149 1446.91,-164.149"/>
</g>
<!-- Node5 -->
<g id="node5" class="node"><title>Node5</title>
<g id="a_node5"><a xlink:href="../../da/d92/class_instructions_1_1_double_1_1_compare_less.xhtml" target="_top" xlink:title=" ">
<polygon fill="none" stroke="black" points="265.5,-0.5 265.5,-79.5 368.5,-79.5 368.5,-0.5 265.5,-0.5"/>
<text text-anchor="start" x="273.5" y="-67.5" font-family="Helvetica,sans-Serif" font-size="10.00">Instructions::Double</text>
<text text-anchor="middle" x="317" y="-56.5" font-family="Helvetica,sans-Serif" font-size="10.00">::CompareLess</text>
<polyline fill="none" stroke="black" points="265.5,-49.5 368.5,-49.5 "/>
<text text-anchor="middle" x="317" y="-37.5" font-family="Helvetica,sans-Serif" font-size="10.00"> </text>
<polyline fill="none" stroke="black" points="265.5,-30.5 368.5,-30.5 "/>
<text text-anchor="start" x="273.5" y="-18.5" font-family="Helvetica,sans-Serif" font-size="10.00">+ CompareLess()</text>
<text text-anchor="start" x="273.5" y="-7.5" font-family="Helvetica,sans-Serif" font-size="10.00">+ execute()</text>
</a>
</g>
</g>
<!-- Node1&#45;&gt;Node5 -->
<g id="edge4" class="edge"><title>Node1&#45;&gt;Node5</title>
<path fill="none" stroke="midnightblue" d="M1446.63,-160.151C1239.73,-158.357 577.798,-147.364 377,-80 374.173,-79.0516 371.349,-77.9383 368.552,-76.6993"/>
<polygon fill="none" stroke="midnightblue" points="1446.69,-163.651 1456.72,-160.234 1446.75,-156.651 1446.69,-163.651"/>
</g>
<!-- Node6 -->
<g id="node6" class="node"><title>Node6</title>
<g id="a_node6"><a xlink:href="../../d1/d22/class_instructions_1_1_double_1_1_const__0.xhtml" target="_top" xlink:title=" ">
<polygon fill="none" stroke="black" points="386.5,-0.5 386.5,-79.5 489.5,-79.5 489.5,-0.5 386.5,-0.5"/>
<text text-anchor="start" x="394.5" y="-67.5" font-family="Helvetica,sans-Serif" font-size="10.00">Instructions::Double</text>
<text text-anchor="middle" x="438" y="-56.5" font-family="Helvetica,sans-Serif" font-size="10.00">::Const_0</text>
<polyline fill="none" stroke="black" points="386.5,-49.5 489.5,-49.5 "/>
<text text-anchor="middle" x="438" y="-37.5" font-family="Helvetica,sans-Serif" font-size="10.00"> </text>
<polyline fill="none" stroke="black" points="386.5,-30.5 489.5,-30.5 "/>
<text text-anchor="start" x="394.5" y="-18.5" font-family="Helvetica,sans-Serif" font-size="10.00">+ Const_0()</text>
<text text-anchor="start" x="394.5" y="-7.5" font-family="Helvetica,sans-Serif" font-size="10.00">+ execute()</text>
</a>
</g>
</g>
<!-- Node1&#45;&gt;Node6 -->
<g id="edge5" class="edge"><title>Node1&#45;&gt;Node6</title>
<path fill="none" stroke="midnightblue" d="M1446.6,-159.534C1254.61,-155.939 675.084,-140.244 498,-80 495.177,-79.0397 492.356,-77.9166 489.562,-76.6698"/>
<polygon fill="none" stroke="midnightblue" points="1446.73,-163.037 1456.79,-159.721 1446.86,-156.039 1446.73,-163.037"/>
</g>
<!-- Node7 -->
<g id="node7" class="node"><title>Node7</title>
<g id="a_node7"><a xlink:href="../../d3/d2a/class_instructions_1_1_double_1_1_const__1.xhtml" target="_top" xlink:title=" ">
<polygon fill="none" stroke="black" points="507.5,-0.5 507.5,-79.5 610.5,-79.5 610.5,-0.5 507.5,-0.5"/>
<text text-anchor="start" x="515.5" y="-67.5" font-family="Helvetica,sans-Serif" font-size="10.00">Instructions::Double</text>
<text text-anchor="middle" x="559" y="-56.5" font-family="Helvetica,sans-Serif" font-size="10.00">::Const_1</text>
<polyline fill="none" stroke="black" points="507.5,-49.5 610.5,-49.5 "/>
<text text-anchor="middle" x="559" y="-37.5" font-family="Helvetica,sans-Serif" font-size="10.00"> </text>
<polyline fill="none" stroke="black" points="507.5,-30.5 610.5,-30.5 "/>
<text text-anchor="start" x="515.5" y="-18.5" font-family="Helvetica,sans-Serif" font-size="10.00">+ Const_1()</text>
<text text-anchor="start" x="515.5" y="-7.5" font-family="Helvetica,sans-Serif" font-size="10.00">+ execute()</text>
</a>
</g>
</g>
<!-- Node1&#45;&gt;Node7 -->
<g id="edge6" class="edge"><title>Node1&#45;&gt;Node7</title>
<path fill="none" stroke="midnightblue" d="M1446.75,-158.693C1270.95,-152.989 773.561,-132.526 620,-80 616.908,-78.9423 613.814,-77.6972 610.752,-76.3136"/>
<polygon fill="none" stroke="midnightblue" points="1446.76,-162.195 1456.86,-159.017 1446.98,-155.199 1446.76,-162.195"/>
</g>
<!-- Node8 -->
<g id="node8" class="node"><title>Node8</title>
<g id="a_node8"><a xlink:href="../../da/df9/class_instructions_1_1_double_1_1_div.xhtml" target="_top" xlink:title=" ">
<polygon fill="none" stroke="black" points="629,-6 629,-74 751,-74 751,-6 629,-6"/>
<text text-anchor="middle" x="690" y="-62" font-family="Helvetica,sans-Serif" font-size="10.00">Instructions::Double::Div</text>
<polyline fill="none" stroke="black" points="629,-55 751,-55 "/>
<text text-anchor="middle" x="690" y="-43" font-family="Helvetica,sans-Serif" font-size="10.00"> </text>
<polyline fill="none" stroke="black" points="629,-36 751,-36 "/>
<text text-anchor="start" x="637" y="-24" font-family="Helvetica,sans-Serif" font-size="10.00">+ Div()</text>
<text text-anchor="start" x="637" y="-13" font-family="Helvetica,sans-Serif" font-size="10.00">+ execute()</text>
</a>
</g>
</g>
<!-- Node1&#45;&gt;Node8 -->
<g id="edge7" class="edge"><title>Node1&#45;&gt;Node8</title>
<path fill="none" stroke="midnightblue" d="M1446.41,-156.994C1290.39,-147.742 887.629,-120.558 760,-80 754.829,-78.3568 749.609,-76.3092 744.475,-74.0184"/>
<polygon fill="none" stroke="midnightblue" points="1446.58,-160.51 1456.76,-157.604 1446.99,-153.522 1446.58,-160.51"/>
</g>
<!-- Node9 -->
<g id="node9" class="node"><title>Node9</title>
<g id="a_node9"><a xlink:href="../../df/d06/class_instructions_1_1_double_1_1_load__0.xhtml" target="_top" xlink:title=" ">
<polygon fill="none" stroke="black" points="769.5,-0.5 769.5,-79.5 872.5,-79.5 872.5,-0.5 769.5,-0.5"/>
<text text-anchor="start" x="777.5" y="-67.5" font-family="Helvetica,sans-Serif" font-size="10.00">Instructions::Double</text>
<text text-anchor="middle" x="821" y="-56.5" font-family="Helvetica,sans-Serif" font-size="10.00">::Load_0</text>
<polyline fill="none" stroke="black" points="769.5,-49.5 872.5,-49.5 "/>
<text text-anchor="middle" x="821" y="-37.5" font-family="Helvetica,sans-Serif" font-size="10.00"> </text>
<polyline fill="none" stroke="black" points="769.5,-30.5 872.5,-30.5 "/>
<text text-anchor="start" x="777.5" y="-18.5" font-family="Helvetica,sans-Serif" font-size="10.00">+ Load_0()</text>
<text text-anchor="start" x="777.5" y="-7.5" font-family="Helvetica,sans-Serif" font-size="10.00">+ execute()</text>
</a>
</g>
</g>
<!-- Node1&#45;&gt;Node9 -->
<g id="edge8" class="edge"><title>Node1&#45;&gt;Node9</title>
<path fill="none" stroke="midnightblue" d="M1446.38,-156.037C1308.78,-145.653 984.077,-117.852 881,-80 878.201,-78.9722 875.4,-77.7943 872.621,-76.5035"/>
<polygon fill="none" stroke="midnightblue" points="1446.52,-159.556 1456.75,-156.813 1447.04,-152.576 1446.52,-159.556"/>
</g>
<!-- Node10 -->
<g id="node10" class="node"><title>Node10</title>
<g id="a_node10"><a xlink:href="../../d4/d7c/class_instructions_1_1_double_1_1_load__1.xhtml" target="_top" xlink:title=" ">
<polygon fill="none" stroke="black" points="890.5,-0.5 890.5,-79.5 993.5,-79.5 993.5,-0.5 890.5,-0.5"/>
<text text-anchor="start" x="898.5" y="-67.5" font-family="Helvetica,sans-Serif" font-size="10.00">Instructions::Double</text>
<text text-anchor="middle" x="942" y="-56.5" font-family="Helvetica,sans-Serif" font-size="10.00">::Load_1</text>
<polyline fill="none" stroke="black" points="890.5,-49.5 993.5,-49.5 "/>
<text text-anchor="middle" x="942" y="-37.5" font-family="Helvetica,sans-Serif" font-size="10.00"> </text>
<polyline fill="none" stroke="black" points="890.5,-30.5 993.5,-30.5 "/>
<text text-anchor="start" x="898.5" y="-18.5" font-family="Helvetica,sans-Serif" font-size="10.00">+ Load_1()</text>
<text text-anchor="start" x="898.5" y="-7.5" font-family="Helvetica,sans-Serif" font-size="10.00">+ execute()</text>
</a>
</g>
</g>
<!-- Node1&#45;&gt;Node10 -->
<g id="edge9" class="edge"><title>Node1&#45;&gt;Node10</title>
<path fill="none" stroke="midnightblue" d="M1446.78,-158.905C1348.97,-154.592 1154.66,-138.671 1002,-80 999.217,-78.9303 996.428,-77.7185 993.659,-76.4004"/>
<polygon fill="none" stroke="midnightblue" points="1446.66,-162.402 1456.8,-159.32 1446.95,-155.408 1446.66,-162.402"/>
</g>
<!-- Node11 -->
<g id="node11" class="node"><title>Node11</title>
<g id="a_node11"><a xlink:href="../../d1/d79/class_instructions_1_1_double_1_1_load__2.xhtml" target="_top" xlink:title=" ">
<polygon fill="none" stroke="black" points="1011.5,-0.5 1011.5,-79.5 1114.5,-79.5 1114.5,-0.5 1011.5,-0.5"/>
<text text-anchor="start" x="1019.5" y="-67.5" font-family="Helvetica,sans-Serif" font-size="10.00">Instructions::Double</text>
<text text-anchor="middle" x="1063" y="-56.5" font-family="Helvetica,sans-Serif" font-size="10.00">::Load_2</text>
<polyline fill="none" stroke="black" points="1011.5,-49.5 1114.5,-49.5 "/>
<text text-anchor="middle" x="1063" y="-37.5" font-family="Helvetica,sans-Serif" font-size="10.00"> </text>
<polyline fill="none" stroke="black" points="1011.5,-30.5 1114.5,-30.5 "/>
<text text-anchor="start" x="1019.5" y="-18.5" font-family="Helvetica,sans-Serif" font-size="10.00">+ Load_2()</text>
<text text-anchor="start" x="1019.5" y="-7.5" font-family="Helvetica,sans-Serif" font-size="10.00">+ execute()</text>
</a>
</g>
</g>
<!-- Node1&#45;&gt;Node11 -->
<g id="edge10" class="edge"><title>Node1&#45;&gt;Node11</title>
<path fill="none" stroke="midnightblue" d="M1446.79,-154.684C1368.73,-145.793 1231.87,-124.879 1123,-80 1120.24,-78.8637 1117.48,-77.5976 1114.72,-76.2362"/>
<polygon fill="none" stroke="midnightblue" points="1446.62,-158.186 1456.94,-155.81 1447.39,-151.229 1446.62,-158.186"/>
</g>
<!-- Node12 -->
<g id="node12" class="node"><title>Node12</title>
<g id="a_node12"><a xlink:href="../../de/da5/class_instructions_1_1_double_1_1_load__3.xhtml" target="_top" xlink:title=" ">
<polygon fill="none" stroke="black" points="1132.5,-0.5 1132.5,-79.5 1235.5,-79.5 1235.5,-0.5 1132.5,-0.5"/>
<text text-anchor="start" x="1140.5" y="-67.5" font-family="Helvetica,sans-Serif" font-size="10.00">Instructions::Double</text>
<text text-anchor="middle" x="1184" y="-56.5" font-family="Helvetica,sans-Serif" font-size="10.00">::Load_3</text>
<polyline fill="none" stroke="black" points="1132.5,-49.5 1235.5,-49.5 "/>
<text text-anchor="middle" x="1184" y="-37.5" font-family="Helvetica,sans-Serif" font-size="10.00"> </text>
<polyline fill="none" stroke="black" points="1132.5,-30.5 1235.5,-30.5 "/>
<text text-anchor="start" x="1140.5" y="-18.5" font-family="Helvetica,sans-Serif" font-size="10.00">+ Load_3()</text>
<text text-anchor="start" x="1140.5" y="-7.5" font-family="Helvetica,sans-Serif" font-size="10.00">+ execute()</text>
</a>
</g>
</g>
<!-- Node1&#45;&gt;Node12 -->
<g id="edge11" class="edge"><title>Node1&#45;&gt;Node12</title>
<path fill="none" stroke="midnightblue" d="M1446.94,-146.902C1392.05,-133.659 1310.58,-110.993 1244,-80 1241.18,-78.6893 1238.35,-77.2627 1235.52,-75.7552"/>
<polygon fill="none" stroke="midnightblue" points="1446.33,-150.355 1456.87,-149.265 1447.95,-143.545 1446.33,-150.355"/>
</g>
<!-- Node13 -->
<g id="node13" class="node"><title>Node13</title>
<g id="a_node13"><a xlink:href="../../db/dcc/class_instructions_1_1_double_1_1_load_from_array.xhtml" target="_top" xlink:title=" ">
<polygon fill="none" stroke="black" points="1253.5,-0.5 1253.5,-79.5 1356.5,-79.5 1356.5,-0.5 1253.5,-0.5"/>
<text text-anchor="start" x="1261.5" y="-67.5" font-family="Helvetica,sans-Serif" font-size="10.00">Instructions::Double</text>
<text text-anchor="middle" x="1305" y="-56.5" font-family="Helvetica,sans-Serif" font-size="10.00">::LoadFromArray</text>
<polyline fill="none" stroke="black" points="1253.5,-49.5 1356.5,-49.5 "/>
<text text-anchor="middle" x="1305" y="-37.5" font-family="Helvetica,sans-Serif" font-size="10.00"> </text>
<polyline fill="none" stroke="black" points="1253.5,-30.5 1356.5,-30.5 "/>
<text text-anchor="start" x="1261.5" y="-18.5" font-family="Helvetica,sans-Serif" font-size="10.00">+ LoadFromArray()</text>
<text text-anchor="start" x="1261.5" y="-7.5" font-family="Helvetica,sans-Serif" font-size="10.00">+ execute()</text>
</a>
</g>
</g>
<!-- Node1&#45;&gt;Node13 -->
<g id="edge12" class="edge"><title>Node1&#45;&gt;Node13</title>
<path fill="none" stroke="midnightblue" d="M1447.94,-127.538C1422.12,-113.302 1391.87,-96.2185 1365,-80 1362.23,-78.3308 1359.41,-76.5983 1356.57,-74.8327"/>
<polygon fill="none" stroke="midnightblue" points="1446.42,-130.699 1456.87,-132.449 1449.79,-124.565 1446.42,-130.699"/>
</g>
<!-- Node14 -->
<g id="node14" class="node"><title>Node14</title>
<g id="a_node14"><a xlink:href="../../d5/dc5/class_instructions_1_1_double_1_1_mul.xhtml" target="_top" xlink:title=" ">
<polygon fill="none" stroke="black" points="1374.5,-6 1374.5,-74 1499.5,-74 1499.5,-6 1374.5,-6"/>
<text text-anchor="middle" x="1437" y="-62" font-family="Helvetica,sans-Serif" font-size="10.00">Instructions::Double::Mul</text>
<polyline fill="none" stroke="black" points="1374.5,-55 1499.5,-55 "/>
<text text-anchor="middle" x="1437" y="-43" font-family="Helvetica,sans-Serif" font-size="10.00"> </text>
<polyline fill="none" stroke="black" points="1374.5,-36 1499.5,-36 "/>
<text text-anchor="start" x="1382.5" y="-24" font-family="Helvetica,sans-Serif" font-size="10.00">+ Mul()</text>
<text text-anchor="start" x="1382.5" y="-13" font-family="Helvetica,sans-Serif" font-size="10.00">+ execute()</text>
</a>
</g>
</g>
<!-- Node1&#45;&gt;Node14 -->
<g id="edge13" class="edge"><title>Node1&#45;&gt;Node14</title>
<path fill="none" stroke="midnightblue" d="M1477.19,-107.711C1470.32,-96.2995 1463.24,-84.5449 1456.97,-74.1423"/>
<polygon fill="none" stroke="midnightblue" points="1474.24,-109.583 1482.39,-116.342 1480.23,-105.97 1474.24,-109.583"/>
</g>
<!-- Node15 -->
<g id="node15" class="node"><title>Node15</title>
<g id="a_node15"><a xlink:href="../../da/d4a/class_instructions_1_1_double_1_1_neg.xhtml" target="_top" xlink:title=" ">
<polygon fill="none" stroke="black" points="1518,-6 1518,-74 1644,-74 1644,-6 1518,-6"/>
<text text-anchor="middle" x="1581" y="-62" font-family="Helvetica,sans-Serif" font-size="10.00">Instructions::Double::Neg</text>
<polyline fill="none" stroke="black" points="1518,-55 1644,-55 "/>
<text text-anchor="middle" x="1581" y="-43" font-family="Helvetica,sans-Serif" font-size="10.00"> </text>
<polyline fill="none" stroke="black" points="1518,-36 1644,-36 "/>
<text text-anchor="start" x="1526" y="-24" font-family="Helvetica,sans-Serif" font-size="10.00">+ Neg()</text>
<text text-anchor="start" x="1526" y="-13" font-family="Helvetica,sans-Serif" font-size="10.00">+ execute()</text>
</a>
</g>
</g>
<!-- Node1&#45;&gt;Node15 -->
<g id="edge14" class="edge"><title>Node1&#45;&gt;Node15</title>
<path fill="none" stroke="midnightblue" d="M1540.81,-107.711C1547.68,-96.2995 1554.76,-84.5449 1561.03,-74.1423"/>
<polygon fill="none" stroke="midnightblue" points="1537.77,-105.97 1535.61,-116.342 1543.76,-109.583 1537.77,-105.97"/>
</g>
<!-- Node16 -->
<g id="node16" class="node"><title>Node16</title>
<g id="a_node16"><a xlink:href="../../d5/d0f/class_instructions_1_1_double_1_1_rem.xhtml" target="_top" xlink:title=" ">
<polygon fill="none" stroke="black" points="1662.5,-6 1662.5,-74 1791.5,-74 1791.5,-6 1662.5,-6"/>
<text text-anchor="middle" x="1727" y="-62" font-family="Helvetica,sans-Serif" font-size="10.00">Instructions::Double::Rem</text>
<polyline fill="none" stroke="black" points="1662.5,-55 1791.5,-55 "/>
<text text-anchor="middle" x="1727" y="-43" font-family="Helvetica,sans-Serif" font-size="10.00"> </text>
<polyline fill="none" stroke="black" points="1662.5,-36 1791.5,-36 "/>
<text text-anchor="start" x="1670.5" y="-24" font-family="Helvetica,sans-Serif" font-size="10.00">+ Rem()</text>
<text text-anchor="start" x="1670.5" y="-13" font-family="Helvetica,sans-Serif" font-size="10.00">+ execute()</text>
</a>
</g>
</g>
<!-- Node1&#45;&gt;Node16 -->
<g id="edge15" class="edge"><title>Node1&#45;&gt;Node16</title>
<path fill="none" stroke="midnightblue" d="M1570.37,-126.862C1600.52,-110.334 1636.72,-90.4885 1666.72,-74.042"/>
<polygon fill="none" stroke="midnightblue" points="1568.3,-124.001 1561.22,-131.877 1571.67,-130.139 1568.3,-124.001"/>
</g>
<!-- Node17 -->
<g id="node17" class="node"><title>Node17</title>
<g id="a_node17"><a xlink:href="../../d3/dd5/class_instructions_1_1_double_1_1_return.xhtml" target="_top" xlink:title=" ">
<polygon fill="none" stroke="black" points="1809.5,-0.5 1809.5,-79.5 1912.5,-79.5 1912.5,-0.5 1809.5,-0.5"/>
<text text-anchor="start" x="1817.5" y="-67.5" font-family="Helvetica,sans-Serif" font-size="10.00">Instructions::Double</text>
<text text-anchor="middle" x="1861" y="-56.5" font-family="Helvetica,sans-Serif" font-size="10.00">::Return</text>
<polyline fill="none" stroke="black" points="1809.5,-49.5 1912.5,-49.5 "/>
<text text-anchor="middle" x="1861" y="-37.5" font-family="Helvetica,sans-Serif" font-size="10.00"> </text>
<polyline fill="none" stroke="black" points="1809.5,-30.5 1912.5,-30.5 "/>
<text text-anchor="start" x="1817.5" y="-18.5" font-family="Helvetica,sans-Serif" font-size="10.00">+ Return()</text>
<text text-anchor="start" x="1817.5" y="-7.5" font-family="Helvetica,sans-Serif" font-size="10.00">+ execute()</text>
</a>
</g>
</g>
<!-- Node1&#45;&gt;Node17 -->
<g id="edge16" class="edge"><title>Node1&#45;&gt;Node17</title>
<path fill="none" stroke="midnightblue" d="M1571.18,-149.15C1631.64,-136.788 1725.18,-114.105 1801,-80 1803.72,-78.7769 1806.46,-77.4403 1809.18,-76.0223"/>
<polygon fill="none" stroke="midnightblue" points="1570.14,-145.788 1561.03,-151.192 1571.52,-152.65 1570.14,-145.788"/>
</g>
<!-- Node18 -->
<g id="node18" class="node"><title>Node18</title>
<g id="a_node18"><a xlink:href="../../d8/d92/class_instructions_1_1_double_1_1_store__0.xhtml" target="_top" xlink:title=" ">
<polygon fill="none" stroke="black" points="1930.5,-0.5 1930.5,-79.5 2033.5,-79.5 2033.5,-0.5 1930.5,-0.5"/>
<text text-anchor="start" x="1938.5" y="-67.5" font-family="Helvetica,sans-Serif" font-size="10.00">Instructions::Double</text>
<text text-anchor="middle" x="1982" y="-56.5" font-family="Helvetica,sans-Serif" font-size="10.00">::Store_0</text>
<polyline fill="none" stroke="black" points="1930.5,-49.5 2033.5,-49.5 "/>
<text text-anchor="middle" x="1982" y="-37.5" font-family="Helvetica,sans-Serif" font-size="10.00"> </text>
<polyline fill="none" stroke="black" points="1930.5,-30.5 2033.5,-30.5 "/>
<text text-anchor="start" x="1938.5" y="-18.5" font-family="Helvetica,sans-Serif" font-size="10.00">+ Store_0()</text>
<text text-anchor="start" x="1938.5" y="-7.5" font-family="Helvetica,sans-Serif" font-size="10.00">+ execute()</text>
</a>
</g>
</g>
<!-- Node1&#45;&gt;Node18 -->
<g id="edge17" class="edge"><title>Node1&#45;&gt;Node18</title>
<path fill="none" stroke="midnightblue" d="M1571.01,-155.848C1653.68,-148.002 1803.36,-127.997 1922,-80 1924.76,-78.8817 1927.54,-77.6304 1930.29,-76.2807"/>
<polygon fill="none" stroke="midnightblue" points="1570.66,-152.366 1561.02,-156.768 1571.3,-159.336 1570.66,-152.366"/>
</g>
<!-- Node19 -->
<g id="node19" class="node"><title>Node19</title>
<g id="a_node19"><a xlink:href="../../df/d7e/class_instructions_1_1_double_1_1_store__1.xhtml" target="_top" xlink:title=" ">
<polygon fill="none" stroke="black" points="2051.5,-0.5 2051.5,-79.5 2154.5,-79.5 2154.5,-0.5 2051.5,-0.5"/>
<text text-anchor="start" x="2059.5" y="-67.5" font-family="Helvetica,sans-Serif" font-size="10.00">Instructions::Double</text>
<text text-anchor="middle" x="2103" y="-56.5" font-family="Helvetica,sans-Serif" font-size="10.00">::Store_1</text>
<polyline fill="none" stroke="black" points="2051.5,-49.5 2154.5,-49.5 "/>
<text text-anchor="middle" x="2103" y="-37.5" font-family="Helvetica,sans-Serif" font-size="10.00"> </text>
<polyline fill="none" stroke="black" points="2051.5,-30.5 2154.5,-30.5 "/>
<text text-anchor="start" x="2059.5" y="-18.5" font-family="Helvetica,sans-Serif" font-size="10.00">+ Store_1()</text>
<text text-anchor="start" x="2059.5" y="-7.5" font-family="Helvetica,sans-Serif" font-size="10.00">+ execute()</text>
</a>
</g>
</g>
<!-- Node1&#45;&gt;Node19 -->
<g id="edge18" class="edge"><title>Node1&#45;&gt;Node19</title>
<path fill="none" stroke="midnightblue" d="M1571.39,-159.591C1673.33,-156.262 1880.52,-141.715 2043,-80 2045.79,-78.9413 2048.58,-77.7383 2051.35,-76.4273"/>
<polygon fill="none" stroke="midnightblue" points="1571.16,-156.097 1561.27,-159.896 1571.37,-163.094 1571.16,-156.097"/>
</g>
<!-- Node20 -->
<g id="node20" class="node"><title>Node20</title>
<g id="a_node20"><a xlink:href="../../d2/d05/class_instructions_1_1_double_1_1_store__2.xhtml" target="_top" xlink:title=" ">
<polygon fill="none" stroke="black" points="2172.5,-0.5 2172.5,-79.5 2275.5,-79.5 2275.5,-0.5 2172.5,-0.5"/>
<text text-anchor="start" x="2180.5" y="-67.5" font-family="Helvetica,sans-Serif" font-size="10.00">Instructions::Double</text>
<text text-anchor="middle" x="2224" y="-56.5" font-family="Helvetica,sans-Serif" font-size="10.00">::Store_2</text>
<polyline fill="none" stroke="black" points="2172.5,-49.5 2275.5,-49.5 "/>
<text text-anchor="middle" x="2224" y="-37.5" font-family="Helvetica,sans-Serif" font-size="10.00"> </text>
<polyline fill="none" stroke="black" points="2172.5,-30.5 2275.5,-30.5 "/>
<text text-anchor="start" x="2180.5" y="-18.5" font-family="Helvetica,sans-Serif" font-size="10.00">+ Store_2()</text>
<text text-anchor="start" x="2180.5" y="-7.5" font-family="Helvetica,sans-Serif" font-size="10.00">+ execute()</text>
</a>
</g>
</g>
<!-- Node1&#45;&gt;Node20 -->
<g id="edge19" class="edge"><title>Node1&#45;&gt;Node20</title>
<path fill="none" stroke="midnightblue" d="M1571.27,-156.438C1712.99,-146.618 2055.7,-119.452 2164,-80 2166.8,-78.9794 2169.61,-77.8075 2172.39,-76.5214"/>
<polygon fill="none" stroke="midnightblue" points="1570.76,-152.966 1561.02,-157.143 1571.23,-159.949 1570.76,-152.966"/>
</g>
<!-- Node21 -->
<g id="node21" class="node"><title>Node21</title>
<g id="a_node21"><a xlink:href="../../dd/d67/class_instructions_1_1_double_1_1_store__3.xhtml" target="_top" xlink:title=" ">
<polygon fill="none" stroke="black" points="2293.5,-0.5 2293.5,-79.5 2396.5,-79.5 2396.5,-0.5 2293.5,-0.5"/>
<text text-anchor="start" x="2301.5" y="-67.5" font-family="Helvetica,sans-Serif" font-size="10.00">Instructions::Double</text>
<text text-anchor="middle" x="2345" y="-56.5" font-family="Helvetica,sans-Serif" font-size="10.00">::Store_3</text>
<polyline fill="none" stroke="black" points="2293.5,-49.5 2396.5,-49.5 "/>
<text text-anchor="middle" x="2345" y="-37.5" font-family="Helvetica,sans-Serif" font-size="10.00"> </text>
<polyline fill="none" stroke="black" points="2293.5,-30.5 2396.5,-30.5 "/>
<text text-anchor="start" x="2301.5" y="-18.5" font-family="Helvetica,sans-Serif" font-size="10.00">+ Store_3()</text>
<text text-anchor="start" x="2301.5" y="-7.5" font-family="Helvetica,sans-Serif" font-size="10.00">+ execute()</text>
</a>
</g>
</g>
<!-- Node1&#45;&gt;Node21 -->
<g id="edge20" class="edge"><title>Node1&#45;&gt;Node21</title>
<path fill="none" stroke="midnightblue" d="M1571.24,-157.807C1731.24,-150.287 2153.49,-126.502 2285,-80 2287.81,-79.006 2290.62,-77.8556 2293.41,-76.5869"/>
<polygon fill="none" stroke="midnightblue" points="1570.92,-154.318 1561.09,-158.279 1571.24,-161.311 1570.92,-154.318"/>
</g>
<!-- Node22 -->
<g id="node22" class="node"><title>Node22</title>
<g id="a_node22"><a xlink:href="../../da/db9/class_instructions_1_1_double_1_1_store_into_array.xhtml" target="_top" xlink:title=" ">
<polygon fill="none" stroke="black" points="2414.5,-0.5 2414.5,-79.5 2517.5,-79.5 2517.5,-0.5 2414.5,-0.5"/>
<text text-anchor="start" x="2422.5" y="-67.5" font-family="Helvetica,sans-Serif" font-size="10.00">Instructions::Double</text>
<text text-anchor="middle" x="2466" y="-56.5" font-family="Helvetica,sans-Serif" font-size="10.00">::StoreIntoArray</text>
<polyline fill="none" stroke="black" points="2414.5,-49.5 2517.5,-49.5 "/>
<text text-anchor="middle" x="2466" y="-37.5" font-family="Helvetica,sans-Serif" font-size="10.00"> </text>
<polyline fill="none" stroke="black" points="2414.5,-30.5 2517.5,-30.5 "/>
<text text-anchor="start" x="2422.5" y="-18.5" font-family="Helvetica,sans-Serif" font-size="10.00">+ StoreIntoArray()</text>
<text text-anchor="start" x="2422.5" y="-7.5" font-family="Helvetica,sans-Serif" font-size="10.00">+ execute()</text>
</a>
</g>
</g>
<!-- Node1&#45;&gt;Node22 -->
<g id="edge21" class="edge"><title>Node1&#45;&gt;Node22</title>
<path fill="none" stroke="midnightblue" d="M1571.21,-158.81C1748.09,-153.395 2251.07,-133.578 2406,-80 2408.82,-79.0255 2411.63,-77.891 2414.43,-76.6349"/>
<polygon fill="none" stroke="midnightblue" points="1570.92,-155.317 1561.03,-159.117 1571.14,-162.314 1570.92,-155.317"/>
</g>
<!-- Node23 -->
<g id="node23" class="node"><title>Node23</title>
<g id="a_node23"><a xlink:href="../../d8/d08/class_instructions_1_1_double_1_1_sub.xhtml" target="_top" xlink:title=" ">
<polygon fill="none" stroke="black" points="2536,-6 2536,-74 2662,-74 2662,-6 2536,-6"/>
<text text-anchor="middle" x="2599" y="-62" font-family="Helvetica,sans-Serif" font-size="10.00">Instructions::Double::Sub</text>
<polyline fill="none" stroke="black" points="2536,-55 2662,-55 "/>
<text text-anchor="middle" x="2599" y="-43" font-family="Helvetica,sans-Serif" font-size="10.00"> </text>
<polyline fill="none" stroke="black" points="2536,-36 2662,-36 "/>
<text text-anchor="start" x="2544" y="-24" font-family="Helvetica,sans-Serif" font-size="10.00">+ Sub()</text>
<text text-anchor="start" x="2544" y="-13" font-family="Helvetica,sans-Serif" font-size="10.00">+ execute()</text>
</a>
</g>
</g>
<!-- Node1&#45;&gt;Node23 -->
<g id="edge22" class="edge"><title>Node1&#45;&gt;Node23</title>
<path fill="none" stroke="midnightblue" d="M1571.3,-158.953C1763.7,-153.646 2346.3,-133.465 2527,-80 2532.32,-78.427 2537.68,-76.4282 2542.96,-74.1697"/>
<polygon fill="none" stroke="midnightblue" points="1570.99,-155.46 1561.09,-159.231 1571.18,-162.458 1570.99,-155.46"/>
</g>
<!-- Node24 -->
<g id="node24" class="node"><title>Node24</title>
<g id="a_node24"><a xlink:href="../../d3/d91/class_instructions_1_1_double_1_1_to_float.xhtml" target="_top" xlink:title=" ">
<polygon fill="none" stroke="black" points="2680.5,-0.5 2680.5,-79.5 2783.5,-79.5 2783.5,-0.5 2680.5,-0.5"/>
<text text-anchor="start" x="2688.5" y="-67.5" font-family="Helvetica,sans-Serif" font-size="10.00">Instructions::Double</text>
<text text-anchor="middle" x="2732" y="-56.5" font-family="Helvetica,sans-Serif" font-size="10.00">::ToFloat</text>
<polyline fill="none" stroke="black" points="2680.5,-49.5 2783.5,-49.5 "/>
<text text-anchor="middle" x="2732" y="-37.5" font-family="Helvetica,sans-Serif" font-size="10.00"> </text>
<polyline fill="none" stroke="black" points="2680.5,-30.5 2783.5,-30.5 "/>
<text text-anchor="start" x="2688.5" y="-18.5" font-family="Helvetica,sans-Serif" font-size="10.00">+ ToFloat()</text>
<text text-anchor="start" x="2688.5" y="-7.5" font-family="Helvetica,sans-Serif" font-size="10.00">+ execute()</text>
</a>
</g>
</g>
<!-- Node1&#45;&gt;Node24 -->
<g id="edge23" class="edge"><title>Node1&#45;&gt;Node24</title>
<path fill="none" stroke="midnightblue" d="M1571.55,-160.224C1782.2,-158.665 2464.11,-148.332 2671,-80 2674.1,-78.975 2677.21,-77.756 2680.27,-76.3928"/>
<polygon fill="none" stroke="midnightblue" points="1571.26,-156.726 1561.29,-160.296 1571.31,-163.726 1571.26,-156.726"/>
</g>
<!-- Node25 -->
<g id="node25" class="node"><title>Node25</title>
<g id="a_node25"><a xlink:href="../../d2/d43/class_instructions_1_1_double_1_1_to_integer.xhtml" target="_top" xlink:title=" ">
<polygon fill="none" stroke="black" points="2801.5,-0.5 2801.5,-79.5 2904.5,-79.5 2904.5,-0.5 2801.5,-0.5"/>
<text text-anchor="start" x="2809.5" y="-67.5" font-family="Helvetica,sans-Serif" font-size="10.00">Instructions::Double</text>
<text text-anchor="middle" x="2853" y="-56.5" font-family="Helvetica,sans-Serif" font-size="10.00">::ToInteger</text>
<polyline fill="none" stroke="black" points="2801.5,-49.5 2904.5,-49.5 "/>
<text text-anchor="middle" x="2853" y="-37.5" font-family="Helvetica,sans-Serif" font-size="10.00"> </text>
<polyline fill="none" stroke="black" points="2801.5,-30.5 2904.5,-30.5 "/>
<text text-anchor="start" x="2809.5" y="-18.5" font-family="Helvetica,sans-Serif" font-size="10.00">+ ToInteger()</text>
<text text-anchor="start" x="2809.5" y="-7.5" font-family="Helvetica,sans-Serif" font-size="10.00">+ execute()</text>
</a>
</g>
</g>
<!-- Node1&#45;&gt;Node25 -->
<g id="edge24" class="edge"><title>Node1&#45;&gt;Node25</title>
<path fill="none" stroke="midnightblue" d="M1571.59,-160.762C1796.47,-161.057 2562.34,-156.307 2793,-80 2795.83,-79.0635 2798.66,-77.9598 2801.46,-76.7285"/>
<polygon fill="none" stroke="midnightblue" points="1571.31,-157.261 1561.3,-160.744 1571.29,-164.261 1571.31,-157.261"/>
</g>
<!-- Node26 -->
<g id="node26" class="node"><title>Node26</title>
<g id="a_node26"><a xlink:href="../../d1/da8/class_instructions_1_1_double_1_1_to_long.xhtml" target="_top" xlink:title=" ">
<polygon fill="none" stroke="black" points="2922.5,-0.5 2922.5,-79.5 3025.5,-79.5 3025.5,-0.5 2922.5,-0.5"/>
<text text-anchor="start" x="2930.5" y="-67.5" font-family="Helvetica,sans-Serif" font-size="10.00">Instructions::Double</text>
<text text-anchor="middle" x="2974" y="-56.5" font-family="Helvetica,sans-Serif" font-size="10.00">::ToLong</text>
<polyline fill="none" stroke="black" points="2922.5,-49.5 3025.5,-49.5 "/>
<text text-anchor="middle" x="2974" y="-37.5" font-family="Helvetica,sans-Serif" font-size="10.00"> </text>
<polyline fill="none" stroke="black" points="2922.5,-30.5 3025.5,-30.5 "/>
<text text-anchor="start" x="2930.5" y="-18.5" font-family="Helvetica,sans-Serif" font-size="10.00">+ ToLong()</text>
<text text-anchor="start" x="2930.5" y="-7.5" font-family="Helvetica,sans-Serif" font-size="10.00">+ execute()</text>
</a>
</g>
</g>
<!-- Node1&#45;&gt;Node26 -->
<g id="edge25" class="edge"><title>Node1&#45;&gt;Node26</title>
<path fill="none" stroke="midnightblue" d="M1571.48,-158.81C1827.06,-151.639 2785.41,-122.159 2914,-80 2916.83,-79.0711 2919.66,-77.9736 2922.46,-76.7473"/>
<polygon fill="none" stroke="midnightblue" points="1571.16,-155.317 1561.26,-159.095 1571.36,-162.314 1571.16,-155.317"/>
</g>
<!-- Node2 -->
<g id="node2" class="node"><title>Node2</title>
<g id="a_node2"><a xlink:href="../../d4/da8/class_instructions_1_1_instruction.xhtml" target="_top" xlink:title=" ">
<polygon fill="none" stroke="black" points="1450,-243.5 1450,-344.5 1568,-344.5 1568,-243.5 1450,-243.5"/>
<text text-anchor="middle" x="1509" y="-332.5" font-family="Helvetica,sans-Serif" font-size="10.00">Instructions::Instruction</text>
<polyline fill="none" stroke="black" points="1450,-325.5 1568,-325.5 "/>
<text text-anchor="start" x="1458" y="-313.5" font-family="Helvetica,sans-Serif" font-size="10.00">+ opcode</text>
<polyline fill="none" stroke="black" points="1450,-306.5 1568,-306.5 "/>
<text text-anchor="start" x="1458" y="-294.5" font-family="Helvetica,sans-Serif" font-size="10.00">+ Instruction()</text>
<text text-anchor="start" x="1458" y="-283.5" font-family="Helvetica,sans-Serif" font-size="10.00">+ ~Instruction()</text>
<text text-anchor="start" x="1458" y="-272.5" font-family="Helvetica,sans-Serif" font-size="10.00">+ execute()</text>
<text text-anchor="start" x="1458" y="-261.5" font-family="Helvetica,sans-Serif" font-size="10.00">+ toBytecode()</text>
<text text-anchor="start" x="1458" y="-250.5" font-family="Helvetica,sans-Serif" font-size="10.00">+ toBytecode_json()</text>
</a>
</g>
</g>
<!-- Node2&#45;&gt;Node1 -->
<g id="edge1" class="edge"><title>Node2&#45;&gt;Node1</title>
<path fill="none" stroke="midnightblue" d="M1509,-233.232C1509,-224.236 1509,-215.101 1509,-206.516"/>
<polygon fill="none" stroke="midnightblue" points="1505.5,-233.291 1509,-243.291 1512.5,-233.291 1505.5,-233.291"/>
</g>
</g>
</svg>
