<?xml version="1.0" encoding="UTF-8" standalone="no"?>
<!DOCTYPE svg PUBLIC "-//W3C//DTD SVG 1.1//EN"
 "http://www.w3.org/Graphics/SVG/1.1/DTD/svg11.dtd">
<!-- Generated by graphviz version 2.38.0 (20140413.2041)
 -->
<!-- Title: Utils::Attributes::ConstantValue_attribute Pages: 1 -->
<svg width="150pt" height="237pt"
 viewBox="0.00 0.00 150.00 237.00" xmlns="http://www.w3.org/2000/svg" xmlns:xlink="http://www.w3.org/1999/xlink">
<g id="graph0" class="graph" transform="scale(1 1) rotate(0) translate(4 233)">
<title>Utils::Attributes::ConstantValue_attribute</title>
<!-- Node1 -->
<g id="node1" class="node"><title>Node1</title>
<g id="a_node1"><a xlink:title=" ">
<polygon fill="#bfbfbf" stroke="black" points="0,-0.5 0,-90.5 142,-90.5 142,-0.5 0,-0.5"/>
<text text-anchor="start" x="8" y="-78.5" font-family="Helvetica,sans-Serif" font-size="10.00">Utils::Attributes::</text>
<text text-anchor="middle" x="71" y="-67.5" font-family="Helvetica,sans-Serif" font-size="10.00">ConstantValue_attribute</text>
<polyline fill="none" stroke="black" points="0,-60.5 142,-60.5 "/>
<text text-anchor="start" x="8" y="-48.5" font-family="Helvetica,sans-Serif" font-size="10.00">+ constantvalue_index</text>
<polyline fill="none" stroke="black" points="0,-41.5 142,-41.5 "/>
<text text-anchor="start" x="8" y="-29.5" font-family="Helvetica,sans-Serif" font-size="10.00">+ ConstantValue_attribute()</text>
<text text-anchor="start" x="8" y="-18.5" font-family="Helvetica,sans-Serif" font-size="10.00">+ ~ConstantValue_attribute()</text>
<text text-anchor="start" x="8" y="-7.5" font-family="Helvetica,sans-Serif" font-size="10.00">+ getSpecificInfo()</text>
</a>
</g>
</g>
<!-- Node2 -->
<g id="node2" class="node"><title>Node2</title>
<g id="a_node2"><a xlink:href="../../dc/dac/class_utils_1_1_attributes_1_1_base_attribute.xhtml" target="_top" xlink:title=" ">
<polygon fill="none" stroke="black" points="11.5,-127.5 11.5,-228.5 130.5,-228.5 130.5,-127.5 11.5,-127.5"/>
<text text-anchor="start" x="19.5" y="-216.5" font-family="Helvetica,sans-Serif" font-size="10.00">Utils::Attributes::</text>
<text text-anchor="middle" x="71" y="-205.5" font-family="Helvetica,sans-Serif" font-size="10.00">BaseAttribute</text>
<polyline fill="none" stroke="black" points="11.5,-198.5 130.5,-198.5 "/>
<text text-anchor="start" x="19.5" y="-186.5" font-family="Helvetica,sans-Serif" font-size="10.00">+ attribute_name_index</text>
<text text-anchor="start" x="19.5" y="-175.5" font-family="Helvetica,sans-Serif" font-size="10.00">+ attribute_length</text>
<polyline fill="none" stroke="black" points="11.5,-168.5 130.5,-168.5 "/>
<text text-anchor="start" x="19.5" y="-156.5" font-family="Helvetica,sans-Serif" font-size="10.00">+ BaseAttribute()</text>
<text text-anchor="start" x="19.5" y="-145.5" font-family="Helvetica,sans-Serif" font-size="10.00">+ BaseAttribute()</text>
<text text-anchor="start" x="19.5" y="-134.5" font-family="Helvetica,sans-Serif" font-size="10.00">+ ~BaseAttribute()</text>
</a>
</g>
</g>
<!-- Node2&#45;&gt;Node1 -->
<g id="edge1" class="edge"><title>Node2&#45;&gt;Node1</title>
<path fill="none" stroke="midnightblue" d="M71,-117.232C71,-108.236 71,-99.1012 71,-90.5165"/>
<polygon fill="none" stroke="midnightblue" points="67.5001,-117.291 71,-127.291 74.5001,-117.291 67.5001,-117.291"/>
</g>
</g>
</svg>
