<?xml version="1.0" encoding="UTF-8" standalone="no"?>
<!DOCTYPE svg PUBLIC "-//W3C//DTD SVG 1.1//EN"
 "http://www.w3.org/Graphics/SVG/1.1/DTD/svg11.dtd">
<!-- Generated by graphviz version 2.38.0 (20140413.2041)
 -->
<!-- Title: ClassFile Pages: 1 -->
<svg width="769pt" height="303pt"
 viewBox="0.00 0.00 769.00 303.00" xmlns="http://www.w3.org/2000/svg" xmlns:xlink="http://www.w3.org/1999/xlink">
<g id="graph0" class="graph" transform="scale(1 1) rotate(0) translate(4 299)">
<title>ClassFile</title>
<!-- Node1 -->
<g id="node1" class="node"><title>Node1</title>
<g id="a_node1"><a xlink:title=" ">
<polygon fill="#bfbfbf" stroke="black" points="281.5,-0.5 281.5,-68.5 359.5,-68.5 359.5,-0.5 281.5,-0.5"/>
<text text-anchor="middle" x="320.5" y="-56.5" font-family="Helvetica,sans-Serif" font-size="10.00">ClassFile</text>
<polyline fill="none" stroke="black" points="281.5,-49.5 359.5,-49.5 "/>
<text text-anchor="middle" x="320.5" y="-37.5" font-family="Helvetica,sans-Serif" font-size="10.00"> </text>
<polyline fill="none" stroke="black" points="281.5,-30.5 359.5,-30.5 "/>
<text text-anchor="start" x="289.5" y="-18.5" font-family="Helvetica,sans-Serif" font-size="10.00">+ ClassFile()</text>
<text text-anchor="start" x="289.5" y="-7.5" font-family="Helvetica,sans-Serif" font-size="10.00">+ ~ClassFile()</text>
</a>
</g>
</g>
<!-- Node2 -->
<g id="node2" class="node"><title>Node2</title>
<g id="a_node2"><a xlink:title=" ">
<polygon fill="none" stroke="#bfbfbf" points="0,-232 0,-289 51,-289 51,-232 0,-232"/>
<text text-anchor="middle" x="25.5" y="-277" font-family="Helvetica,sans-Serif" font-size="10.00">uint32_t</text>
<polyline fill="none" stroke="#bfbfbf" points="0,-270 51,-270 "/>
<text text-anchor="middle" x="25.5" y="-258" font-family="Helvetica,sans-Serif" font-size="10.00"> </text>
<polyline fill="none" stroke="#bfbfbf" points="0,-251 51,-251 "/>
<text text-anchor="middle" x="25.5" y="-239" font-family="Helvetica,sans-Serif" font-size="10.00"> </text>
</a>
</g>
</g>
<!-- Node2&#45;&gt;Node1 -->
<g id="edge1" class="edge"><title>Node2&#45;&gt;Node1</title>
<path fill="none" stroke="#404040" d="M19.8823,-231.809C13.9447,-193.889 9.87791,-126.07 46.5,-87 76.1264,-55.3937 198.286,-42.808 269.09,-38.0964"/>
<polygon fill="none" stroke="#404040" points="269.28,-38.0845 275.017,-33.7154 281.257,-37.3305 275.52,-41.6996 269.28,-38.0845"/>
<text text-anchor="middle" x="64.5" y="-145" font-family="Helvetica,sans-Serif" font-size="10.00"> +magic</text>
</g>
<!-- Node3 -->
<g id="node3" class="node"><title>Node3</title>
<g id="a_node3"><a xlink:title=" ">
<polygon fill="none" stroke="#bfbfbf" points="69,-232 69,-289 120,-289 120,-232 69,-232"/>
<text text-anchor="middle" x="94.5" y="-277" font-family="Helvetica,sans-Serif" font-size="10.00">uint16_t</text>
<polyline fill="none" stroke="#bfbfbf" points="69,-270 120,-270 "/>
<text text-anchor="middle" x="94.5" y="-258" font-family="Helvetica,sans-Serif" font-size="10.00"> </text>
<polyline fill="none" stroke="#bfbfbf" points="69,-251 120,-251 "/>
<text text-anchor="middle" x="94.5" y="-239" font-family="Helvetica,sans-Serif" font-size="10.00"> </text>
</a>
</g>
</g>
<!-- Node3&#45;&gt;Node1 -->
<g id="edge2" class="edge"><title>Node3&#45;&gt;Node1</title>
<path fill="none" stroke="#404040" d="M89.1726,-231.797C83.6576,-194.177 80.1729,-127.043 115.5,-87 135.601,-64.2151 215.479,-49.3581 269.385,-41.7065"/>
<polygon fill="none" stroke="#404040" points="269.58,-41.6799 274.981,-36.9017 281.469,-40.0493 276.068,-44.8275 269.58,-41.6799"/>
<text text-anchor="middle" x="164" y="-200" font-family="Helvetica,sans-Serif" font-size="10.00"> +minor_version</text>
<text text-anchor="middle" x="164" y="-189" font-family="Helvetica,sans-Serif" font-size="10.00">+methods_count</text>
<text text-anchor="middle" x="164" y="-178" font-family="Helvetica,sans-Serif" font-size="10.00">+attributes_count</text>
<text text-anchor="middle" x="164" y="-167" font-family="Helvetica,sans-Serif" font-size="10.00">+interfaces_count</text>
<text text-anchor="middle" x="164" y="-156" font-family="Helvetica,sans-Serif" font-size="10.00">+this_class</text>
<text text-anchor="middle" x="164" y="-145" font-family="Helvetica,sans-Serif" font-size="10.00">+access_flags</text>
<text text-anchor="middle" x="164" y="-134" font-family="Helvetica,sans-Serif" font-size="10.00">+major_version</text>
<text text-anchor="middle" x="164" y="-123" font-family="Helvetica,sans-Serif" font-size="10.00">+constant_pool_count</text>
<text text-anchor="middle" x="164" y="-112" font-family="Helvetica,sans-Serif" font-size="10.00">+fields_count</text>
<text text-anchor="middle" x="164" y="-101" font-family="Helvetica,sans-Serif" font-size="10.00">+super_class</text>
<text text-anchor="middle" x="164" y="-90" font-family="Helvetica,sans-Serif" font-size="10.00">...</text>
</g>
<!-- Node4 -->
<g id="node4" class="node"><title>Node4</title>
<g id="a_node4"><a xlink:title=" ">
<polygon fill="none" stroke="#bfbfbf" points="138,-226.5 138,-294.5 235,-294.5 235,-226.5 138,-226.5"/>
<text text-anchor="start" x="146" y="-282.5" font-family="Helvetica,sans-Serif" font-size="10.00">vector&lt; Utils::Infos</text>
<text text-anchor="middle" x="186.5" y="-271.5" font-family="Helvetica,sans-Serif" font-size="10.00">::field_info &gt;</text>
<polyline fill="none" stroke="#bfbfbf" points="138,-264.5 235,-264.5 "/>
<text text-anchor="middle" x="186.5" y="-252.5" font-family="Helvetica,sans-Serif" font-size="10.00"> </text>
<polyline fill="none" stroke="#bfbfbf" points="138,-245.5 235,-245.5 "/>
<text text-anchor="middle" x="186.5" y="-233.5" font-family="Helvetica,sans-Serif" font-size="10.00"> </text>
</a>
</g>
</g>
<!-- Node4&#45;&gt;Node1 -->
<g id="edge3" class="edge"><title>Node4&#45;&gt;Node1</title>
<path fill="none" stroke="#404040" d="M204.208,-226.214C223.179,-191.072 254.61,-134.321 284.5,-87 286.216,-84.2835 288.013,-81.5104 289.851,-78.7297"/>
<polygon fill="none" stroke="#404040" points="289.897,-78.6622 289.936,-71.4512 296.608,-68.7142 296.568,-75.9252 289.897,-78.6622"/>
<text text-anchor="middle" x="300.5" y="-145" font-family="Helvetica,sans-Serif" font-size="10.00"> +fields</text>
</g>
<!-- Node5 -->
<g id="node5" class="node"><title>Node5</title>
<g id="a_node5"><a xlink:title=" ">
<polygon fill="none" stroke="#bfbfbf" points="253,-226.5 253,-294.5 388,-294.5 388,-226.5 253,-226.5"/>
<text text-anchor="start" x="261" y="-282.5" font-family="Helvetica,sans-Serif" font-size="10.00">vector&lt; Utils::ConstantPool</text>
<text text-anchor="middle" x="320.5" y="-271.5" font-family="Helvetica,sans-Serif" font-size="10.00">::cp_info &gt;</text>
<polyline fill="none" stroke="#bfbfbf" points="253,-264.5 388,-264.5 "/>
<text text-anchor="middle" x="320.5" y="-252.5" font-family="Helvetica,sans-Serif" font-size="10.00"> </text>
<polyline fill="none" stroke="#bfbfbf" points="253,-245.5 388,-245.5 "/>
<text text-anchor="middle" x="320.5" y="-233.5" font-family="Helvetica,sans-Serif" font-size="10.00"> </text>
</a>
</g>
</g>
<!-- Node5&#45;&gt;Node1 -->
<g id="edge4" class="edge"><title>Node5&#45;&gt;Node1</title>
<path fill="none" stroke="#404040" d="M320.5,-226.448C320.5,-187.902 320.5,-123.972 320.5,-80.8161"/>
<polygon fill="none" stroke="#404040" points="320.5,-80.6876 316.5,-74.6876 320.5,-68.6876 324.5,-74.6875 320.5,-80.6876"/>
<text text-anchor="middle" x="355.5" y="-145" font-family="Helvetica,sans-Serif" font-size="10.00"> +constant_pool</text>
</g>
<!-- Node6 -->
<g id="node6" class="node"><title>Node6</title>
<g id="a_node6"><a xlink:title=" ">
<polygon fill="none" stroke="#bfbfbf" points="406,-226.5 406,-294.5 525,-294.5 525,-226.5 406,-226.5"/>
<text text-anchor="start" x="414" y="-282.5" font-family="Helvetica,sans-Serif" font-size="10.00">vector&lt; Utils::Attributes</text>
<text text-anchor="middle" x="465.5" y="-271.5" font-family="Helvetica,sans-Serif" font-size="10.00">::attribute_info &gt;</text>
<polyline fill="none" stroke="#bfbfbf" points="406,-264.5 525,-264.5 "/>
<text text-anchor="middle" x="465.5" y="-252.5" font-family="Helvetica,sans-Serif" font-size="10.00"> </text>
<polyline fill="none" stroke="#bfbfbf" points="406,-245.5 525,-245.5 "/>
<text text-anchor="middle" x="465.5" y="-233.5" font-family="Helvetica,sans-Serif" font-size="10.00"> </text>
</a>
</g>
</g>
<!-- Node6&#45;&gt;Node1 -->
<g id="edge5" class="edge"><title>Node6&#45;&gt;Node1</title>
<path fill="none" stroke="#404040" d="M457.914,-226.406C448.142,-189.366 428.264,-129.042 394.5,-87 387.518,-78.3067 378.692,-70.4638 369.589,-63.6712"/>
<polygon fill="none" stroke="#404040" points="369.503,-63.6105 362.293,-63.4416 359.677,-56.7221 366.886,-56.8909 369.503,-63.6105"/>
<text text-anchor="middle" x="476.5" y="-145" font-family="Helvetica,sans-Serif" font-size="10.00"> +attributes</text>
</g>
<!-- Node7 -->
<g id="node7" class="node"><title>Node7</title>
<g id="a_node7"><a xlink:title=" ">
<polygon fill="none" stroke="#bfbfbf" points="543,-226.5 543,-294.5 640,-294.5 640,-226.5 543,-226.5"/>
<text text-anchor="start" x="551" y="-282.5" font-family="Helvetica,sans-Serif" font-size="10.00">vector&lt; Utils::Infos</text>
<text text-anchor="middle" x="591.5" y="-271.5" font-family="Helvetica,sans-Serif" font-size="10.00">::method_info &gt;</text>
<polyline fill="none" stroke="#bfbfbf" points="543,-264.5 640,-264.5 "/>
<text text-anchor="middle" x="591.5" y="-252.5" font-family="Helvetica,sans-Serif" font-size="10.00"> </text>
<polyline fill="none" stroke="#bfbfbf" points="543,-245.5 640,-245.5 "/>
<text text-anchor="middle" x="591.5" y="-233.5" font-family="Helvetica,sans-Serif" font-size="10.00"> </text>
</a>
</g>
</g>
<!-- Node7&#45;&gt;Node1 -->
<g id="edge6" class="edge"><title>Node7&#45;&gt;Node1</title>
<path fill="none" stroke="#404040" d="M583.76,-226.436C572.905,-187.396 549.378,-123.207 505.5,-87 467.631,-55.7512 412.111,-43.4122 371.779,-38.5678"/>
<polygon fill="none" stroke="#404040" points="371.718,-38.5615 365.329,-41.9045 359.786,-37.2924 366.175,-33.9494 371.718,-38.5615"/>
<text text-anchor="middle" x="601" y="-145" font-family="Helvetica,sans-Serif" font-size="10.00"> +methods</text>
</g>
<!-- Node8 -->
<g id="node8" class="node"><title>Node8</title>
<g id="a_node8"><a xlink:title=" ">
<polygon fill="none" stroke="#bfbfbf" points="658,-226.5 658,-294.5 761,-294.5 761,-226.5 658,-226.5"/>
<text text-anchor="start" x="666" y="-282.5" font-family="Helvetica,sans-Serif" font-size="10.00">vector&lt; Utils::Types</text>
<text text-anchor="middle" x="709.5" y="-271.5" font-family="Helvetica,sans-Serif" font-size="10.00">::u2 &gt;</text>
<polyline fill="none" stroke="#bfbfbf" points="658,-264.5 761,-264.5 "/>
<text text-anchor="middle" x="709.5" y="-252.5" font-family="Helvetica,sans-Serif" font-size="10.00"> </text>
<polyline fill="none" stroke="#bfbfbf" points="658,-245.5 761,-245.5 "/>
<text text-anchor="middle" x="709.5" y="-233.5" font-family="Helvetica,sans-Serif" font-size="10.00"> </text>
</a>
</g>
</g>
<!-- Node8&#45;&gt;Node1 -->
<g id="edge7" class="edge"><title>Node8&#45;&gt;Node1</title>
<path fill="none" stroke="#404040" d="M703.551,-226.382C694.578,-186.665 673.582,-121.182 628.5,-87 589.01,-57.0581 448.84,-43.6167 371.932,-38.3788"/>
<polygon fill="none" stroke="#404040" points="371.679,-38.3623 365.43,-41.962 359.704,-37.5789 365.953,-33.9791 371.679,-38.3623"/>
<text text-anchor="middle" x="723.5" y="-145" font-family="Helvetica,sans-Serif" font-size="10.00"> +interfaces</text>
</g>
</g>
</svg>
