<?xml version="1.0" encoding="UTF-8" standalone="no"?>
<!DOCTYPE svg PUBLIC "-//W3C//DTD SVG 1.1//EN"
 "http://www.w3.org/Graphics/SVG/1.1/DTD/svg11.dtd">
<!-- Generated by graphviz version 2.38.0 (20140413.2041)
 -->
<!-- Title: Utils::Attributes::LocalVariableTypeTable_attribute Pages: 1 -->
<svg width="509pt" height="386pt"
 viewBox="0.00 0.00 509.00 386.00" xmlns="http://www.w3.org/2000/svg" xmlns:xlink="http://www.w3.org/1999/xlink">
<g id="graph0" class="graph" transform="scale(1 1) rotate(0) translate(4 382)">
<title>Utils::Attributes::LocalVariableTypeTable_attribute</title>
<!-- Node1 -->
<g id="node1" class="node"><title>Node1</title>
<g id="a_node1"><a xlink:title=" ">
<polygon fill="#bfbfbf" stroke="black" points="175.5,-0.5 175.5,-123.5 309.5,-123.5 309.5,-0.5 175.5,-0.5"/>
<text text-anchor="start" x="183.5" y="-111.5" font-family="Helvetica,sans-Serif" font-size="10.00">Utils::Attributes::</text>
<text text-anchor="start" x="183.5" y="-100.5" font-family="Helvetica,sans-Serif" font-size="10.00">LocalVariableTypeTable</text>
<text text-anchor="middle" x="242.5" y="-89.5" font-family="Helvetica,sans-Serif" font-size="10.00">_attribute</text>
<polyline fill="none" stroke="black" points="175.5,-82.5 309.5,-82.5 "/>
<text text-anchor="middle" x="242.5" y="-70.5" font-family="Helvetica,sans-Serif" font-size="10.00"> </text>
<polyline fill="none" stroke="black" points="175.5,-63.5 309.5,-63.5 "/>
<text text-anchor="start" x="183.5" y="-51.5" font-family="Helvetica,sans-Serif" font-size="10.00">+ LocalVariableTypeTable</text>
<text text-anchor="start" x="183.5" y="-40.5" font-family="Helvetica,sans-Serif" font-size="10.00">_attribute()</text>
<text text-anchor="start" x="183.5" y="-29.5" font-family="Helvetica,sans-Serif" font-size="10.00">+ ~LocalVariableTypeTable</text>
<text text-anchor="start" x="183.5" y="-18.5" font-family="Helvetica,sans-Serif" font-size="10.00">_attribute()</text>
<text text-anchor="start" x="183.5" y="-7.5" font-family="Helvetica,sans-Serif" font-size="10.00">+ getSpecificInfo()</text>
</a>
</g>
</g>
<!-- Node2 -->
<g id="node2" class="node"><title>Node2</title>
<g id="a_node2"><a xlink:href="../../dc/dac/class_utils_1_1_attributes_1_1_base_attribute.xhtml" target="_top" xlink:title=" ">
<polygon fill="none" stroke="black" points="76,-182.5 76,-272.5 173,-272.5 173,-182.5 76,-182.5"/>
<text text-anchor="start" x="84" y="-260.5" font-family="Helvetica,sans-Serif" font-size="10.00">Utils::Attributes::</text>
<text text-anchor="middle" x="124.5" y="-249.5" font-family="Helvetica,sans-Serif" font-size="10.00">BaseAttribute</text>
<polyline fill="none" stroke="black" points="76,-242.5 173,-242.5 "/>
<text text-anchor="middle" x="124.5" y="-230.5" font-family="Helvetica,sans-Serif" font-size="10.00"> </text>
<polyline fill="none" stroke="black" points="76,-223.5 173,-223.5 "/>
<text text-anchor="start" x="84" y="-211.5" font-family="Helvetica,sans-Serif" font-size="10.00">+ BaseAttribute()</text>
<text text-anchor="start" x="84" y="-200.5" font-family="Helvetica,sans-Serif" font-size="10.00">+ BaseAttribute()</text>
<text text-anchor="start" x="84" y="-189.5" font-family="Helvetica,sans-Serif" font-size="10.00">+ ~BaseAttribute()</text>
</a>
</g>
</g>
<!-- Node2&#45;&gt;Node1 -->
<g id="edge1" class="edge"><title>Node2&#45;&gt;Node1</title>
<path fill="none" stroke="midnightblue" d="M162.375,-174.02C173.98,-157.941 186.841,-140.12 198.802,-123.548"/>
<polygon fill="none" stroke="midnightblue" points="159.447,-172.097 156.432,-182.255 165.123,-176.194 159.447,-172.097"/>
</g>
<!-- Node3 -->
<g id="node3" class="node"><title>Node3</title>
<g id="a_node3"><a xlink:title=" ">
<polygon fill="none" stroke="#bfbfbf" points="0,-320.5 0,-377.5 51,-377.5 51,-320.5 0,-320.5"/>
<text text-anchor="middle" x="25.5" y="-365.5" font-family="Helvetica,sans-Serif" font-size="10.00">uint32_t</text>
<polyline fill="none" stroke="#bfbfbf" points="0,-358.5 51,-358.5 "/>
<text text-anchor="middle" x="25.5" y="-346.5" font-family="Helvetica,sans-Serif" font-size="10.00"> </text>
<polyline fill="none" stroke="#bfbfbf" points="0,-339.5 51,-339.5 "/>
<text text-anchor="middle" x="25.5" y="-327.5" font-family="Helvetica,sans-Serif" font-size="10.00"> </text>
</a>
</g>
</g>
<!-- Node3&#45;&gt;Node2 -->
<g id="edge2" class="edge"><title>Node3&#45;&gt;Node2</title>
<path fill="none" stroke="#404040" d="M30.0533,-320.343C32.5967,-310.474 36.5118,-299.665 42.5,-291 48.9953,-281.601 57.3492,-273.003 66.231,-265.392"/>
<polygon fill="none" stroke="#404040" points="66.2781,-265.354 68.4405,-258.475 75.6223,-257.825 73.4599,-264.704 66.2781,-265.354"/>
<text text-anchor="middle" x="80.5" y="-294" font-family="Helvetica,sans-Serif" font-size="10.00"> +attribute_length</text>
</g>
<!-- Node4 -->
<g id="node4" class="node"><title>Node4</title>
<g id="a_node4"><a xlink:title=" ">
<polygon fill="none" stroke="#bfbfbf" points="158,-320.5 158,-377.5 209,-377.5 209,-320.5 158,-320.5"/>
<text text-anchor="middle" x="183.5" y="-365.5" font-family="Helvetica,sans-Serif" font-size="10.00">uint16_t</text>
<polyline fill="none" stroke="#bfbfbf" points="158,-358.5 209,-358.5 "/>
<text text-anchor="middle" x="183.5" y="-346.5" font-family="Helvetica,sans-Serif" font-size="10.00"> </text>
<polyline fill="none" stroke="#bfbfbf" points="158,-339.5 209,-339.5 "/>
<text text-anchor="middle" x="183.5" y="-327.5" font-family="Helvetica,sans-Serif" font-size="10.00"> </text>
</a>
</g>
</g>
<!-- Node4&#45;&gt;Node1 -->
<g id="edge4" class="edge"><title>Node4&#45;&gt;Node1</title>
<path fill="none" stroke="#404040" d="M209.177,-328.049C216.749,-320.729 224.161,-311.808 228.5,-302 241.215,-273.255 243.792,-195.056 243.773,-135.869"/>
<polygon fill="none" stroke="#404040" points="243.772,-135.553 239.752,-129.566 243.732,-123.553 247.752,-129.54 243.772,-135.553"/>
<text text-anchor="start" x="243.5" y="-230.5" font-family="Helvetica,sans-Serif" font-size="10.00"> +local_variable_type</text>
<text text-anchor="middle" x="289" y="-219.5" font-family="Helvetica,sans-Serif" font-size="10.00">_table_length</text>
</g>
<!-- Node4&#45;&gt;Node2 -->
<g id="edge3" class="edge"><title>Node4&#45;&gt;Node2</title>
<path fill="none" stroke="#404040" d="M157.847,-334.758C145.694,-326.995 132.361,-315.955 125.5,-302 122.892,-296.696 121.196,-290.906 120.165,-284.979"/>
<polygon fill="none" stroke="#404040" points="120.134,-284.669 115.542,-279.109 118.908,-272.732 123.5,-278.292 120.134,-284.669"/>
<text text-anchor="middle" x="177" y="-294" font-family="Helvetica,sans-Serif" font-size="10.00"> +attribute_name_index</text>
</g>
<!-- Node5 -->
<g id="node5" class="node"><title>Node5</title>
<g id="a_node5"><a xlink:title=" ">
<polygon fill="none" stroke="#bfbfbf" points="352,-193.5 352,-261.5 501,-261.5 501,-193.5 352,-193.5"/>
<text text-anchor="start" x="360" y="-249.5" font-family="Helvetica,sans-Serif" font-size="10.00">vector&lt; localVariableTypetable</text>
<text text-anchor="middle" x="426.5" y="-238.5" font-family="Helvetica,sans-Serif" font-size="10.00">_info &gt;</text>
<polyline fill="none" stroke="#bfbfbf" points="352,-231.5 501,-231.5 "/>
<text text-anchor="middle" x="426.5" y="-219.5" font-family="Helvetica,sans-Serif" font-size="10.00"> </text>
<polyline fill="none" stroke="#bfbfbf" points="352,-212.5 501,-212.5 "/>
<text text-anchor="middle" x="426.5" y="-200.5" font-family="Helvetica,sans-Serif" font-size="10.00"> </text>
</a>
</g>
</g>
<!-- Node5&#45;&gt;Node1 -->
<g id="edge5" class="edge"><title>Node5&#45;&gt;Node1</title>
<path fill="none" stroke="#404040" d="M389.265,-193.413C369.059,-175.459 343.312,-152.58 319.042,-131.014"/>
<polygon fill="none" stroke="#404040" points="318.798,-130.797 311.656,-129.802 309.827,-122.826 316.969,-123.822 318.798,-130.797"/>
<text text-anchor="start" x="351.5" y="-156" font-family="Helvetica,sans-Serif" font-size="10.00"> +local_variable_type</text>
<text text-anchor="middle" x="397" y="-145" font-family="Helvetica,sans-Serif" font-size="10.00">_table</text>
</g>
</g>
</svg>
