<?xml version="1.0" encoding="UTF-8" standalone="no"?>
<!DOCTYPE svg PUBLIC "-//W3C//DTD SVG 1.1//EN"
 "http://www.w3.org/Graphics/SVG/1.1/DTD/svg11.dtd">
<!-- Generated by graphviz version 2.38.0 (20140413.2041)
 -->
<!-- Title: include/classfile.h Pages: 1 -->
<!--zoomable 218 -->
<svg id="main" version="1.1" xmlns="http://www.w3.org/2000/svg" xmlns:xlink="http://www.w3.org/1999/xlink" xml:space="preserve" onload="init(evt)">
<style type="text/css"><![CDATA[
.edge:hover path { stroke: red; }
.edge:hover polygon { stroke: red; fill: red; }
]]></style>
<script type="text/javascript"><![CDATA[
var edges = document.getElementsByTagName('g');
if (edges && edges.length) {
  for (var i=0;i<edges.length;i++) {
    if (edges[i].id.substr(0,4)=='edge') {
      edges[i].setAttribute('class','edge');
    }
  }
}
]]></script>
        <defs>
                <circle id="rim" cx="0" cy="0" r="7"/>
                <circle id="rim2" cx="0" cy="0" r="3.5"/>
                <g id="zoomPlus">
                        <use xlink:href="#rim" fill="#404040">
                                <set attributeName="fill" to="#808080" begin="zoomplus.mouseover" end="zoomplus.mouseout"/>
                        </use>
                        <path d="M-4,0h8M0,-4v8" fill="none" stroke="white" stroke-width="1.5" pointer-events="none"/>
                </g>
                <g id="zoomMin">
                        <use xlink:href="#rim" fill="#404040">
                                <set attributeName="fill" to="#808080" begin="zoomminus.mouseover" end="zoomminus.mouseout"/>
                        </use>
                        <path d="M-4,0h8" fill="none" stroke="white" stroke-width="1.5" pointer-events="none"/>
                </g>
                <g id="dirArrow">
                        <path fill="none" stroke="white" stroke-width="1.5" d="M0,-3.0v7 M-2.5,-0.5L0,-3.0L2.5,-0.5"/>
                </g>
               <g id="resetDef">
                       <use xlink:href="#rim2" fill="#404040">
                               <set attributeName="fill" to="#808080" begin="reset.mouseover" end="reset.mouseout"/>
                       </use>
               </g>
        </defs>

<script type="text/javascript">
var viewWidth = 1053;
var viewHeight = 218;
var sectionId = 'dynsection-1';
</script>
<script xlink:href="../../svgpan.js"/>
<svg id="graph" class="graph">
<g id="viewport">
<title>include/classfile.h</title>
<!-- Node1 -->
<g id="node1" class="node"><title>Node1</title>
<g id="a_node1"><a xlink:title=" ">
<polygon fill="#bfbfbf" stroke="black" points="463.5,-190.5 463.5,-209.5 557.5,-209.5 557.5,-190.5 463.5,-190.5"/>
<text text-anchor="middle" x="510.5" y="-197.5" font-family="Helvetica,sans-Serif" font-size="10.00">include/classfile.h</text>
</a>
</g>
</g>
<!-- Node2 -->
<g id="node2" class="node"><title>Node2</title>
<g id="a_node2"><a xlink:href="../../df/d50/method__area_8h.xhtml" target="_top" xlink:title=" ">
<polygon fill="none" stroke="black" points="0,-56.5 0,-86.5 113,-86.5 113,-56.5 0,-56.5"/>
<text text-anchor="start" x="8" y="-74.5" font-family="Helvetica,sans-Serif" font-size="10.00">include/utils/memory</text>
<text text-anchor="middle" x="56.5" y="-63.5" font-family="Helvetica,sans-Serif" font-size="10.00">_areas/method_area.h</text>
</a>
</g>
</g>
<!-- Node1&#45;&gt;Node2 -->
<g id="edge1" class="edge"><title>Node1&#45;&gt;Node2</title>
<path fill="none" stroke="midnightblue" d="M452.847,-197.95C329.946,-195.114 51.0163,-185.267 22.5,-154 4.73052,-134.517 26.1869,-104.424 42.1809,-86.7728"/>
<polygon fill="midnightblue" stroke="midnightblue" points="453.109,-201.457 463.185,-198.18 453.266,-194.458 453.109,-201.457"/>
</g>
<!-- Node4 -->
<g id="node4" class="node"><title>Node4</title>
<g id="a_node4"><a xlink:href="../../d6/dda/reader_8h.xhtml" target="_top" xlink:title=" ">
<polygon fill="none" stroke="black" points="31.5,-129 31.5,-148 117.5,-148 117.5,-129 31.5,-129"/>
<text text-anchor="middle" x="74.5" y="-136" font-family="Helvetica,sans-Serif" font-size="10.00">include/reader.h</text>
</a>
</g>
</g>
<!-- Node1&#45;&gt;Node4 -->
<g id="edge3" class="edge"><title>Node1&#45;&gt;Node4</title>
<path fill="none" stroke="midnightblue" d="M453.209,-195.078C377.784,-189.279 241.295,-176.589 126.5,-154 118.5,-152.426 109.931,-150.247 102.105,-148.056"/>
<polygon fill="midnightblue" stroke="midnightblue" points="453.203,-198.587 463.438,-195.851 453.73,-191.607 453.203,-198.587"/>
</g>
<!-- Node5 -->
<g id="node5" class="node"><title>Node5</title>
<g id="a_node5"><a xlink:href="../../d8/df4/helper__functions_8h.xhtml" target="_top" xlink:title=" ">
<polygon fill="none" stroke="black" points="135.5,-123.5 135.5,-153.5 233.5,-153.5 233.5,-123.5 135.5,-123.5"/>
<text text-anchor="start" x="143.5" y="-141.5" font-family="Helvetica,sans-Serif" font-size="10.00">include/utils/helper</text>
<text text-anchor="middle" x="184.5" y="-130.5" font-family="Helvetica,sans-Serif" font-size="10.00">_functions.h</text>
</a>
</g>
</g>
<!-- Node1&#45;&gt;Node5 -->
<g id="edge4" class="edge"><title>Node1&#45;&gt;Node5</title>
<path fill="none" stroke="midnightblue" d="M453.187,-190.711C398.756,-182.525 314.742,-169.071 242.5,-154 239.655,-153.406 236.739,-152.769 233.8,-152.105"/>
<polygon fill="midnightblue" stroke="midnightblue" points="452.923,-194.211 463.331,-192.228 453.958,-187.288 452.923,-194.211"/>
</g>
<!-- Node7 -->
<g id="node7" class="node"><title>Node7</title>
<g id="a_node7"><a xlink:href="../../d8/d07/attribute_serializer_8h.xhtml" target="_top" xlink:title=" ">
<polygon fill="none" stroke="black" points="251.5,-123.5 251.5,-153.5 367.5,-153.5 367.5,-123.5 251.5,-123.5"/>
<text text-anchor="start" x="259.5" y="-141.5" font-family="Helvetica,sans-Serif" font-size="10.00">include/utils/serializers</text>
<text text-anchor="middle" x="309.5" y="-130.5" font-family="Helvetica,sans-Serif" font-size="10.00">/attributeSerializer.h</text>
</a>
</g>
</g>
<!-- Node1&#45;&gt;Node7 -->
<g id="edge8" class="edge"><title>Node1&#45;&gt;Node7</title>
<path fill="none" stroke="midnightblue" d="M472.019,-187.609C439.23,-177.903 391.981,-163.916 356.872,-153.523"/>
<polygon fill="midnightblue" stroke="midnightblue" points="471.119,-190.993 481.702,-190.475 473.106,-184.281 471.119,-190.993"/>
</g>
<!-- Node8 -->
<g id="node8" class="node"><title>Node8</title>
<g id="a_node8"><a xlink:href="../../da/d13/classfile_serializer_8h.xhtml" target="_top" xlink:title=" ">
<polygon fill="none" stroke="black" points="385.5,-123.5 385.5,-153.5 501.5,-153.5 501.5,-123.5 385.5,-123.5"/>
<text text-anchor="start" x="393.5" y="-141.5" font-family="Helvetica,sans-Serif" font-size="10.00">include/utils/serializers</text>
<text text-anchor="middle" x="443.5" y="-130.5" font-family="Helvetica,sans-Serif" font-size="10.00">/classfileSerializer.h</text>
</a>
</g>
</g>
<!-- Node1&#45;&gt;Node8 -->
<g id="edge9" class="edge"><title>Node1&#45;&gt;Node8</title>
<path fill="none" stroke="midnightblue" d="M493.211,-183.646C482.738,-174.346 469.48,-162.572 459.291,-153.523"/>
<polygon fill="midnightblue" stroke="midnightblue" points="491.099,-186.452 500.901,-190.475 495.747,-181.218 491.099,-186.452"/>
</g>
<!-- Node9 -->
<g id="node9" class="node"><title>Node9</title>
<g id="a_node9"><a xlink:href="../../d2/dbc/constpool_serializer_8h.xhtml" target="_top" xlink:title=" ">
<polygon fill="none" stroke="black" points="519.5,-123.5 519.5,-153.5 635.5,-153.5 635.5,-123.5 519.5,-123.5"/>
<text text-anchor="start" x="527.5" y="-141.5" font-family="Helvetica,sans-Serif" font-size="10.00">include/utils/serializers</text>
<text text-anchor="middle" x="577.5" y="-130.5" font-family="Helvetica,sans-Serif" font-size="10.00">/constpoolSerializer.h</text>
</a>
</g>
</g>
<!-- Node1&#45;&gt;Node9 -->
<g id="edge10" class="edge"><title>Node1&#45;&gt;Node9</title>
<path fill="none" stroke="midnightblue" d="M527.789,-183.646C538.262,-174.346 551.52,-162.572 561.709,-153.523"/>
<polygon fill="midnightblue" stroke="midnightblue" points="525.253,-181.218 520.099,-190.475 529.901,-186.452 525.253,-181.218"/>
</g>
<!-- Node10 -->
<g id="node10" class="node"><title>Node10</title>
<g id="a_node10"><a xlink:href="../../d8/d6c/instruction_serializer_8h.xhtml" target="_top" xlink:title=" ">
<polygon fill="none" stroke="black" points="562.5,-56.5 562.5,-86.5 678.5,-86.5 678.5,-56.5 562.5,-56.5"/>
<text text-anchor="start" x="570.5" y="-74.5" font-family="Helvetica,sans-Serif" font-size="10.00">include/utils/serializers</text>
<text text-anchor="middle" x="620.5" y="-63.5" font-family="Helvetica,sans-Serif" font-size="10.00">/instructionSerializer.h</text>
</a>
</g>
</g>
<!-- Node1&#45;&gt;Node10 -->
<g id="edge13" class="edge"><title>Node1&#45;&gt;Node10</title>
<path fill="none" stroke="midnightblue" d="M567.83,-194.901C595.761,-189.67 627.019,-178.311 644.5,-154 659.225,-133.522 643.57,-104.037 631.551,-86.7155"/>
<polygon fill="midnightblue" stroke="midnightblue" points="567.021,-191.487 557.722,-196.564 568.157,-198.394 567.021,-191.487"/>
</g>
<!-- Node11 -->
<g id="node11" class="node"><title>Node11</title>
<g id="a_node11"><a xlink:href="../../d0/dfa/field_serializer_8h.xhtml" target="_top" xlink:title=" ">
<polygon fill="none" stroke="black" points="691.5,-123.5 691.5,-153.5 807.5,-153.5 807.5,-123.5 691.5,-123.5"/>
<text text-anchor="start" x="699.5" y="-141.5" font-family="Helvetica,sans-Serif" font-size="10.00">include/utils/serializers</text>
<text text-anchor="middle" x="749.5" y="-130.5" font-family="Helvetica,sans-Serif" font-size="10.00">/fieldSerializer.h</text>
</a>
</g>
</g>
<!-- Node1&#45;&gt;Node11 -->
<g id="edge12" class="edge"><title>Node1&#45;&gt;Node11</title>
<path fill="none" stroke="midnightblue" d="M554.752,-187.983C593.788,-178.265 650.886,-164.05 693.172,-153.523"/>
<polygon fill="midnightblue" stroke="midnightblue" points="553.601,-184.663 544.743,-190.475 555.292,-191.456 553.601,-184.663"/>
</g>
<!-- Node12 -->
<g id="node12" class="node"><title>Node12</title>
<g id="a_node12"><a xlink:href="../../de/df9/method_serializer_8h.xhtml" target="_top" xlink:title=" ">
<polygon fill="none" stroke="black" points="825.5,-123.5 825.5,-153.5 941.5,-153.5 941.5,-123.5 825.5,-123.5"/>
<text text-anchor="start" x="833.5" y="-141.5" font-family="Helvetica,sans-Serif" font-size="10.00">include/utils/serializers</text>
<text text-anchor="middle" x="883.5" y="-130.5" font-family="Helvetica,sans-Serif" font-size="10.00">/methodSerializer.h</text>
</a>
</g>
</g>
<!-- Node1&#45;&gt;Node12 -->
<g id="edge14" class="edge"><title>Node1&#45;&gt;Node12</title>
<path fill="none" stroke="midnightblue" d="M567.871,-191.733C629.501,-183.653 730.222,-169.662 816.5,-154 819.427,-153.469 822.422,-152.903 825.443,-152.314"/>
<polygon fill="midnightblue" stroke="midnightblue" points="567.042,-188.311 557.578,-193.075 567.947,-195.253 567.042,-188.311"/>
</g>
<!-- Node13 -->
<g id="node13" class="node"><title>Node13</title>
<g id="a_node13"><a xlink:href="../../dc/dba/viewer_8h.xhtml" target="_top" xlink:title=" ">
<polygon fill="none" stroke="black" points="960,-129 960,-148 1045,-148 1045,-129 960,-129"/>
<text text-anchor="middle" x="1002.5" y="-136" font-family="Helvetica,sans-Serif" font-size="10.00">include/viewer.h</text>
</a>
</g>
</g>
<!-- Node1&#45;&gt;Node13 -->
<g id="edge15" class="edge"><title>Node1&#45;&gt;Node13</title>
<path fill="none" stroke="midnightblue" d="M567.914,-196.248C652.347,-191.498 814.696,-179.685 950.5,-154 958.604,-152.467 967.281,-150.275 975.179,-148.058"/>
<polygon fill="midnightblue" stroke="midnightblue" points="567.557,-192.762 557.764,-196.806 567.941,-199.751 567.557,-192.762"/>
</g>
<!-- Node3 -->
<g id="node3" class="node"><title>Node3</title>
<g id="a_node3"><a xlink:href="../../d3/d97/interpreter_8h.xhtml" target="_top" xlink:title=" ">
<polygon fill="none" stroke="black" points="69.5,-0.5 69.5,-19.5 171.5,-19.5 171.5,-0.5 69.5,-0.5"/>
<text text-anchor="middle" x="120.5" y="-7.5" font-family="Helvetica,sans-Serif" font-size="10.00">include/interpreter.h</text>
</a>
</g>
</g>
<!-- Node2&#45;&gt;Node3 -->
<g id="edge2" class="edge"><title>Node2&#45;&gt;Node3</title>
<path fill="none" stroke="midnightblue" d="M79.3032,-49.3002C90.2876,-39.0881 102.852,-27.4072 111.187,-19.6578"/>
<polygon fill="midnightblue" stroke="midnightblue" points="76.6079,-47.027 71.6671,-56.3993 81.3741,-52.1538 76.6079,-47.027"/>
</g>
<!-- Node5&#45;&gt;Node2 -->
<g id="edge7" class="edge"><title>Node5&#45;&gt;Node2</title>
<path fill="none" stroke="midnightblue" d="M147.78,-118.853C127.542,-108.576 102.826,-96.0252 84.2199,-86.5765"/>
<polygon fill="midnightblue" stroke="midnightblue" points="146.225,-121.989 156.726,-123.396 149.394,-115.747 146.225,-121.989"/>
</g>
<!-- Node6 -->
<g id="node6" class="node"><title>Node6</title>
<g id="a_node6"><a xlink:href="../../da/ddb/heap_8h.xhtml" target="_top" xlink:title=" ">
<polygon fill="none" stroke="black" points="131,-56.5 131,-86.5 238,-86.5 238,-56.5 131,-56.5"/>
<text text-anchor="start" x="139" y="-74.5" font-family="Helvetica,sans-Serif" font-size="10.00">include/utils/memory</text>
<text text-anchor="middle" x="184.5" y="-63.5" font-family="Helvetica,sans-Serif" font-size="10.00">_areas/heap.h</text>
</a>
</g>
</g>
<!-- Node5&#45;&gt;Node6 -->
<g id="edge5" class="edge"><title>Node5&#45;&gt;Node6</title>
<path fill="none" stroke="midnightblue" d="M184.5,-113.108C184.5,-104.154 184.5,-94.3227 184.5,-86.5765"/>
<polygon fill="midnightblue" stroke="midnightblue" points="181,-113.396 184.5,-123.396 188,-113.396 181,-113.396"/>
</g>
<!-- Node6&#45;&gt;Node3 -->
<g id="edge6" class="edge"><title>Node6&#45;&gt;Node3</title>
<path fill="none" stroke="midnightblue" d="M161.697,-49.3002C150.712,-39.0881 138.148,-27.4072 129.813,-19.6578"/>
<polygon fill="midnightblue" stroke="midnightblue" points="159.626,-52.1538 169.333,-56.3993 164.392,-47.027 159.626,-52.1538"/>
</g>
<!-- Node9&#45;&gt;Node10 -->
<g id="edge11" class="edge"><title>Node9&#45;&gt;Node10</title>
<path fill="none" stroke="midnightblue" d="M592.473,-114.867C598.696,-105.459 605.726,-94.8334 611.188,-86.5765"/>
<polygon fill="midnightblue" stroke="midnightblue" points="589.429,-113.125 586.83,-123.396 595.267,-116.987 589.429,-113.125"/>
</g>
</g>
</svg>
        <g id="navigator" transform="translate(0 0)" fill="#404254">
                <rect fill="#f2f5e9" fill-opacity="0.5" stroke="#606060" stroke-width=".5" x="0" y="0" width="60" height="60"/>
                <use id="zoomplus" xlink:href="#zoomPlus" x="17" y="9" onmousedown="handleZoom(evt,'in')"/>
                <use id="zoomminus" xlink:href="#zoomMin" x="42" y="9" onmousedown="handleZoom(evt,'out')"/>
                <use id="reset" xlink:href="#resetDef" x="30" y="36" onmousedown="handleReset()"/>
                <g id="arrowUp" xlink:href="#dirArrow" transform="translate(30 24)" onmousedown="handlePan(0,-1)">
                  <use xlink:href="#rim" fill="#404040">
                        <set attributeName="fill" to="#808080" begin="arrowUp.mouseover" end="arrowUp.mouseout"/>
                  </use>
                  <path fill="none" stroke="white" stroke-width="1.5" d="M0,-3.0v7 M-2.5,-0.5L0,-3.0L2.5,-0.5"/>
                </g>
                <g id="arrowRight" xlink:href="#dirArrow" transform="rotate(90) translate(36 -43)" onmousedown="handlePan(1,0)">
                  <use xlink:href="#rim" fill="#404040">
                        <set attributeName="fill" to="#808080" begin="arrowRight.mouseover" end="arrowRight.mouseout"/>
                  </use>
                  <path fill="none" stroke="white" stroke-width="1.5" d="M0,-3.0v7 M-2.5,-0.5L0,-3.0L2.5,-0.5"/>
                </g>
                <g id="arrowDown" xlink:href="#dirArrow" transform="rotate(180) translate(-30 -48)" onmousedown="handlePan(0,1)">
                  <use xlink:href="#rim" fill="#404040">
                        <set attributeName="fill" to="#808080" begin="arrowDown.mouseover" end="arrowDown.mouseout"/>
                  </use>
                  <path fill="none" stroke="white" stroke-width="1.5" d="M0,-3.0v7 M-2.5,-0.5L0,-3.0L2.5,-0.5"/>
                </g>
                <g id="arrowLeft" xlink:href="#dirArrow" transform="rotate(270) translate(-36 17)" onmousedown="handlePan(-1,0)">
                  <use xlink:href="#rim" fill="#404040">
                        <set attributeName="fill" to="#808080" begin="arrowLeft.mouseover" end="arrowLeft.mouseout"/>
                  </use>
                  <path fill="none" stroke="white" stroke-width="1.5" d="M0,-3.0v7 M-2.5,-0.5L0,-3.0L2.5,-0.5"/>
                </g>
        </g>
        <svg viewBox="0 0 15 15" width="100%" height="30px" preserveAspectRatio="xMaxYMin meet">
         <g id="arrow_out" transform="scale(0.3 0.3)">
          <a xlink:href="classfile_8h__dep__incl_org.svg" target="_base">
           <rect id="button" ry="5" rx="5" y="6" x="6" height="38" width="38"
                fill="#f2f5e9" fill-opacity="0.5" stroke="#606060" stroke-width="1.0"/>
           <path id="arrow"
             d="M 11.500037,31.436501 C 11.940474,20.09759 22.043105,11.32322 32.158766,21.979434 L 37.068811,17.246167 C 37.068811,17.246167 37.088388,32 37.088388,32 L 22.160133,31.978069 C 22.160133,31.978069 26.997745,27.140456 26.997745,27.140456 C 18.528582,18.264221 13.291696,25.230495 11.500037,31.436501 z"
             style="fill:#404040;"/>
          </a>
         </g>
        </svg>
</svg>
