<?xml version="1.0" encoding="UTF-8" standalone="no"?>
<!DOCTYPE svg PUBLIC "-//W3C//DTD SVG 1.1//EN"
 "http://www.w3.org/Graphics/SVG/1.1/DTD/svg11.dtd">
<!-- Generated by graphviz version 2.38.0 (20140413.2041)
 -->
<!-- Title: include/classfile.h Pages: 1 -->
<svg width="1037pt" height="218pt"
 viewBox="0.00 0.00 1037.00 218.00" xmlns="http://www.w3.org/2000/svg" xmlns:xlink="http://www.w3.org/1999/xlink">
<g id="graph0" class="graph" transform="scale(1 1) rotate(0) translate(4 214)">
<title>include/classfile.h</title>
<!-- Node1 -->
<g id="node1" class="node"><title>Node1</title>
<g id="a_node1"><a xlink:title=" ">
<polygon fill="#bfbfbf" stroke="black" points="447.498,-190.5 447.498,-209.5 541.498,-209.5 541.498,-190.5 447.498,-190.5"/>
<text text-anchor="middle" x="494.498" y="-197.5" font-family="Helvetica,sans-Serif" font-size="10.00">include/classfile.h</text>
</a>
</g>
</g>
<!-- Node2 -->
<g id="node2" class="node"><title>Node2</title>
<g id="a_node2"><a xlink:href="../../df/d50/method__area_8h.xhtml" target="_top" xlink:title=" ">
<polygon fill="none" stroke="black" points="20.998,-56.5 20.998,-86.5 133.998,-86.5 133.998,-56.5 20.998,-56.5"/>
<text text-anchor="start" x="28.998" y="-74.5" font-family="Helvetica,sans-Serif" font-size="10.00">include/utils/memory</text>
<text text-anchor="middle" x="77.498" y="-63.5" font-family="Helvetica,sans-Serif" font-size="10.00">_areas/method_area.h</text>
</a>
</g>
</g>
<!-- Node1&#45;&gt;Node2 -->
<g id="edge1" class="edge"><title>Node1&#45;&gt;Node2</title>
<path fill="none" stroke="midnightblue" d="M436.845,-197.95C313.944,-195.114 35.0143,-185.267 6.49803,-154 -14.7461,-130.707 22.4699,-102.887 50.5661,-86.513"/>
<polygon fill="midnightblue" stroke="midnightblue" points="437.108,-201.457 447.183,-198.18 437.264,-194.458 437.108,-201.457"/>
</g>
<!-- Node4 -->
<g id="node4" class="node"><title>Node4</title>
<g id="a_node4"><a xlink:href="../../d6/dda/reader_8h.xhtml" target="_top" xlink:title=" ">
<polygon fill="none" stroke="black" points="15.498,-129 15.498,-148 101.498,-148 101.498,-129 15.498,-129"/>
<text text-anchor="middle" x="58.498" y="-136" font-family="Helvetica,sans-Serif" font-size="10.00">include/reader.h</text>
</a>
</g>
</g>
<!-- Node1&#45;&gt;Node4 -->
<g id="edge3" class="edge"><title>Node1&#45;&gt;Node4</title>
<path fill="none" stroke="midnightblue" d="M437.207,-195.078C361.782,-189.279 225.293,-176.589 110.498,-154 102.498,-152.426 93.9294,-150.247 86.1031,-148.056"/>
<polygon fill="midnightblue" stroke="midnightblue" points="437.201,-198.587 447.436,-195.851 437.728,-191.607 437.201,-198.587"/>
</g>
<!-- Node5 -->
<g id="node5" class="node"><title>Node5</title>
<g id="a_node5"><a xlink:href="../../d8/df4/helper__functions_8h.xhtml" target="_top" xlink:title=" ">
<polygon fill="none" stroke="black" points="119.498,-123.5 119.498,-153.5 217.498,-153.5 217.498,-123.5 119.498,-123.5"/>
<text text-anchor="start" x="127.498" y="-141.5" font-family="Helvetica,sans-Serif" font-size="10.00">include/utils/helper</text>
<text text-anchor="middle" x="168.498" y="-130.5" font-family="Helvetica,sans-Serif" font-size="10.00">_functions.h</text>
</a>
</g>
</g>
<!-- Node1&#45;&gt;Node5 -->
<g id="edge4" class="edge"><title>Node1&#45;&gt;Node5</title>
<path fill="none" stroke="midnightblue" d="M437.185,-190.711C382.754,-182.525 298.74,-169.071 226.498,-154 223.653,-153.406 220.737,-152.769 217.798,-152.105"/>
<polygon fill="midnightblue" stroke="midnightblue" points="436.921,-194.211 447.329,-192.228 437.956,-187.288 436.921,-194.211"/>
</g>
<!-- Node6 -->
<g id="node6" class="node"><title>Node6</title>
<g id="a_node6"><a xlink:href="../../d8/d07/attribute_serializer_8h.xhtml" target="_top" xlink:title=" ">
<polygon fill="none" stroke="black" points="235.498,-123.5 235.498,-153.5 351.498,-153.5 351.498,-123.5 235.498,-123.5"/>
<text text-anchor="start" x="243.498" y="-141.5" font-family="Helvetica,sans-Serif" font-size="10.00">include/utils/serializers</text>
<text text-anchor="middle" x="293.498" y="-130.5" font-family="Helvetica,sans-Serif" font-size="10.00">/attributeSerializer.h</text>
</a>
</g>
</g>
<!-- Node1&#45;&gt;Node6 -->
<g id="edge6" class="edge"><title>Node1&#45;&gt;Node6</title>
<path fill="none" stroke="midnightblue" d="M456.017,-187.609C423.228,-177.903 375.979,-163.916 340.87,-153.523"/>
<polygon fill="midnightblue" stroke="midnightblue" points="455.117,-190.993 465.7,-190.475 457.104,-184.281 455.117,-190.993"/>
</g>
<!-- Node7 -->
<g id="node7" class="node"><title>Node7</title>
<g id="a_node7"><a xlink:href="../../da/d13/classfile_serializer_8h.xhtml" target="_top" xlink:title=" ">
<polygon fill="none" stroke="black" points="369.498,-123.5 369.498,-153.5 485.498,-153.5 485.498,-123.5 369.498,-123.5"/>
<text text-anchor="start" x="377.498" y="-141.5" font-family="Helvetica,sans-Serif" font-size="10.00">include/utils/serializers</text>
<text text-anchor="middle" x="427.498" y="-130.5" font-family="Helvetica,sans-Serif" font-size="10.00">/classfileSerializer.h</text>
</a>
</g>
</g>
<!-- Node1&#45;&gt;Node7 -->
<g id="edge7" class="edge"><title>Node1&#45;&gt;Node7</title>
<path fill="none" stroke="midnightblue" d="M477.209,-183.646C466.736,-174.346 453.478,-162.572 443.289,-153.523"/>
<polygon fill="midnightblue" stroke="midnightblue" points="475.097,-186.452 484.899,-190.475 479.745,-181.218 475.097,-186.452"/>
</g>
<!-- Node8 -->
<g id="node8" class="node"><title>Node8</title>
<g id="a_node8"><a xlink:href="../../d2/dbc/constpool_serializer_8h.xhtml" target="_top" xlink:title=" ">
<polygon fill="none" stroke="black" points="503.498,-123.5 503.498,-153.5 619.498,-153.5 619.498,-123.5 503.498,-123.5"/>
<text text-anchor="start" x="511.498" y="-141.5" font-family="Helvetica,sans-Serif" font-size="10.00">include/utils/serializers</text>
<text text-anchor="middle" x="561.498" y="-130.5" font-family="Helvetica,sans-Serif" font-size="10.00">/constpoolSerializer.h</text>
</a>
</g>
</g>
<!-- Node1&#45;&gt;Node8 -->
<g id="edge8" class="edge"><title>Node1&#45;&gt;Node8</title>
<path fill="none" stroke="midnightblue" d="M511.787,-183.646C522.26,-174.346 535.518,-162.572 545.707,-153.523"/>
<polygon fill="midnightblue" stroke="midnightblue" points="509.251,-181.218 504.098,-190.475 513.899,-186.452 509.251,-181.218"/>
</g>
<!-- Node9 -->
<g id="node9" class="node"><title>Node9</title>
<g id="a_node9"><a xlink:href="../../d8/d6c/instruction_serializer_8h.xhtml" target="_top" xlink:title=" ">
<polygon fill="none" stroke="black" points="546.498,-56.5 546.498,-86.5 662.498,-86.5 662.498,-56.5 546.498,-56.5"/>
<text text-anchor="start" x="554.498" y="-74.5" font-family="Helvetica,sans-Serif" font-size="10.00">include/utils/serializers</text>
<text text-anchor="middle" x="604.498" y="-63.5" font-family="Helvetica,sans-Serif" font-size="10.00">/instructionSerializer.h</text>
</a>
</g>
</g>
<!-- Node1&#45;&gt;Node9 -->
<g id="edge11" class="edge"><title>Node1&#45;&gt;Node9</title>
<path fill="none" stroke="midnightblue" d="M551.828,-194.901C579.759,-189.67 611.017,-178.311 628.498,-154 643.223,-133.522 627.568,-104.037 615.549,-86.7155"/>
<polygon fill="midnightblue" stroke="midnightblue" points="551.019,-191.487 541.72,-196.564 552.155,-198.394 551.019,-191.487"/>
</g>
<!-- Node10 -->
<g id="node10" class="node"><title>Node10</title>
<g id="a_node10"><a xlink:href="../../d0/dfa/field_serializer_8h.xhtml" target="_top" xlink:title=" ">
<polygon fill="none" stroke="black" points="675.498,-123.5 675.498,-153.5 791.498,-153.5 791.498,-123.5 675.498,-123.5"/>
<text text-anchor="start" x="683.498" y="-141.5" font-family="Helvetica,sans-Serif" font-size="10.00">include/utils/serializers</text>
<text text-anchor="middle" x="733.498" y="-130.5" font-family="Helvetica,sans-Serif" font-size="10.00">/fieldSerializer.h</text>
</a>
</g>
</g>
<!-- Node1&#45;&gt;Node10 -->
<g id="edge10" class="edge"><title>Node1&#45;&gt;Node10</title>
<path fill="none" stroke="midnightblue" d="M538.75,-187.983C577.786,-178.265 634.884,-164.05 677.17,-153.523"/>
<polygon fill="midnightblue" stroke="midnightblue" points="537.599,-184.663 528.741,-190.475 539.29,-191.456 537.599,-184.663"/>
</g>
<!-- Node11 -->
<g id="node11" class="node"><title>Node11</title>
<g id="a_node11"><a xlink:href="../../de/df9/method_serializer_8h.xhtml" target="_top" xlink:title=" ">
<polygon fill="none" stroke="black" points="809.498,-123.5 809.498,-153.5 925.498,-153.5 925.498,-123.5 809.498,-123.5"/>
<text text-anchor="start" x="817.498" y="-141.5" font-family="Helvetica,sans-Serif" font-size="10.00">include/utils/serializers</text>
<text text-anchor="middle" x="867.498" y="-130.5" font-family="Helvetica,sans-Serif" font-size="10.00">/methodSerializer.h</text>
</a>
</g>
</g>
<!-- Node1&#45;&gt;Node11 -->
<g id="edge12" class="edge"><title>Node1&#45;&gt;Node11</title>
<path fill="none" stroke="midnightblue" d="M551.869,-191.733C613.499,-183.653 714.22,-169.662 800.498,-154 803.426,-153.469 806.42,-152.903 809.441,-152.314"/>
<polygon fill="midnightblue" stroke="midnightblue" points="551.04,-188.311 541.576,-193.075 551.945,-195.253 551.04,-188.311"/>
</g>
<!-- Node12 -->
<g id="node12" class="node"><title>Node12</title>
<g id="a_node12"><a xlink:href="../../dc/dba/viewer_8h.xhtml" target="_top" xlink:title=" ">
<polygon fill="none" stroke="black" points="943.998,-129 943.998,-148 1029,-148 1029,-129 943.998,-129"/>
<text text-anchor="middle" x="986.498" y="-136" font-family="Helvetica,sans-Serif" font-size="10.00">include/viewer.h</text>
</a>
</g>
</g>
<!-- Node1&#45;&gt;Node12 -->
<g id="edge13" class="edge"><title>Node1&#45;&gt;Node12</title>
<path fill="none" stroke="midnightblue" d="M551.912,-196.248C636.345,-191.498 798.694,-179.685 934.498,-154 942.602,-152.467 951.279,-150.275 959.177,-148.058"/>
<polygon fill="midnightblue" stroke="midnightblue" points="551.555,-192.762 541.762,-196.806 551.939,-199.751 551.555,-192.762"/>
</g>
<!-- Node3 -->
<g id="node3" class="node"><title>Node3</title>
<g id="a_node3"><a xlink:href="../../d3/d97/interpreter_8h.xhtml" target="_top" xlink:title=" ">
<polygon fill="none" stroke="black" points="26.498,-0.5 26.498,-19.5 128.498,-19.5 128.498,-0.5 26.498,-0.5"/>
<text text-anchor="middle" x="77.498" y="-7.5" font-family="Helvetica,sans-Serif" font-size="10.00">include/interpreter.h</text>
</a>
</g>
</g>
<!-- Node2&#45;&gt;Node3 -->
<g id="edge2" class="edge"><title>Node2&#45;&gt;Node3</title>
<path fill="none" stroke="midnightblue" d="M77.498,-46.2892C77.498,-36.857 77.498,-26.6548 77.498,-19.6578"/>
<polygon fill="midnightblue" stroke="midnightblue" points="73.9981,-46.3993 77.498,-56.3993 80.9981,-46.3994 73.9981,-46.3993"/>
</g>
<!-- Node5&#45;&gt;Node2 -->
<g id="edge5" class="edge"><title>Node5&#45;&gt;Node2</title>
<path fill="none" stroke="midnightblue" d="M140.43,-117.451C126.43,-107.452 109.837,-95.5995 97.2051,-86.5765"/>
<polygon fill="midnightblue" stroke="midnightblue" points="138.581,-120.432 148.752,-123.396 142.649,-114.735 138.581,-120.432"/>
</g>
<!-- Node8&#45;&gt;Node9 -->
<g id="edge9" class="edge"><title>Node8&#45;&gt;Node9</title>
<path fill="none" stroke="midnightblue" d="M576.471,-114.867C582.694,-105.459 589.724,-94.8334 595.186,-86.5765"/>
<polygon fill="midnightblue" stroke="midnightblue" points="573.427,-113.125 570.828,-123.396 579.265,-116.987 573.427,-113.125"/>
</g>
</g>
</svg>
