<?xml version="1.0" encoding="UTF-8" standalone="no"?>
<!DOCTYPE svg PUBLIC "-//W3C//DTD SVG 1.1//EN"
 "http://www.w3.org/Graphics/SVG/1.1/DTD/svg11.dtd">
<!-- Generated by graphviz version 2.38.0 (20140413.2041)
 -->
<!-- Title: Utils::Object Pages: 1 -->
<svg width="132pt" height="336pt"
 viewBox="0.00 0.00 132.00 336.00" xmlns="http://www.w3.org/2000/svg" xmlns:xlink="http://www.w3.org/1999/xlink">
<g id="graph0" class="graph" transform="scale(1 1) rotate(0) translate(4 332)">
<title>Utils::Object</title>
<!-- Node1 -->
<g id="node1" class="node"><title>Node1</title>
<g id="a_node1"><a xlink:title=" ">
<polygon fill="#bfbfbf" stroke="black" points="38,-0.5 38,-79.5 109,-79.5 109,-0.5 38,-0.5"/>
<text text-anchor="middle" x="73.5" y="-67.5" font-family="Helvetica,sans-Serif" font-size="10.00">Utils::Object</text>
<polyline fill="none" stroke="black" points="38,-60.5 109,-60.5 "/>
<text text-anchor="middle" x="73.5" y="-48.5" font-family="Helvetica,sans-Serif" font-size="10.00"> </text>
<polyline fill="none" stroke="black" points="38,-41.5 109,-41.5 "/>
<text text-anchor="start" x="46" y="-29.5" font-family="Helvetica,sans-Serif" font-size="10.00">+ Object()</text>
<text text-anchor="start" x="46" y="-18.5" font-family="Helvetica,sans-Serif" font-size="10.00">+ ~Object()</text>
<text text-anchor="start" x="46" y="-7.5" font-family="Helvetica,sans-Serif" font-size="10.00">+ Object()</text>
</a>
</g>
</g>
<!-- Node2 -->
<g id="node2" class="node"><title>Node2</title>
<g id="a_node2"><a xlink:href="../../db/da7/struct_any.xhtml" target="_top" xlink:title=" ">
<polygon fill="none" stroke="black" points="0,-127.5 0,-327.5 77,-327.5 77,-127.5 0,-127.5"/>
<text text-anchor="middle" x="38.5" y="-315.5" font-family="Helvetica,sans-Serif" font-size="10.00">Any</text>
<polyline fill="none" stroke="black" points="0,-308.5 77,-308.5 "/>
<text text-anchor="middle" x="38.5" y="-296.5" font-family="Helvetica,sans-Serif" font-size="10.00"> </text>
<polyline fill="none" stroke="black" points="0,-289.5 77,-289.5 "/>
<text text-anchor="start" x="8" y="-277.5" font-family="Helvetica,sans-Serif" font-size="10.00">+ is_null()</text>
<text text-anchor="start" x="8" y="-266.5" font-family="Helvetica,sans-Serif" font-size="10.00">+ not_null()</text>
<text text-anchor="start" x="8" y="-255.5" font-family="Helvetica,sans-Serif" font-size="10.00">+ Any()</text>
<text text-anchor="start" x="8" y="-244.5" font-family="Helvetica,sans-Serif" font-size="10.00">+ is()</text>
<text text-anchor="start" x="8" y="-233.5" font-family="Helvetica,sans-Serif" font-size="10.00">+ as()</text>
<text text-anchor="start" x="8" y="-222.5" font-family="Helvetica,sans-Serif" font-size="10.00">+ operator U()</text>
<text text-anchor="start" x="8" y="-211.5" font-family="Helvetica,sans-Serif" font-size="10.00">+ Any()</text>
<text text-anchor="start" x="8" y="-200.5" font-family="Helvetica,sans-Serif" font-size="10.00">+ Any()</text>
<text text-anchor="start" x="8" y="-189.5" font-family="Helvetica,sans-Serif" font-size="10.00">+ Any()</text>
<text text-anchor="start" x="8" y="-178.5" font-family="Helvetica,sans-Serif" font-size="10.00">+ Any()</text>
<text text-anchor="start" x="8" y="-167.5" font-family="Helvetica,sans-Serif" font-size="10.00">+ Any()</text>
<text text-anchor="start" x="8" y="-156.5" font-family="Helvetica,sans-Serif" font-size="10.00">+ operator=()</text>
<text text-anchor="start" x="8" y="-145.5" font-family="Helvetica,sans-Serif" font-size="10.00">+ operator=()</text>
<text text-anchor="start" x="8" y="-134.5" font-family="Helvetica,sans-Serif" font-size="10.00">+ ~Any()</text>
</a>
</g>
</g>
<!-- Node2&#45;&gt;Node1 -->
<g id="edge1" class="edge"><title>Node2&#45;&gt;Node1</title>
<path fill="none" stroke="#404040" d="M53.883,-127.437C55.6716,-117.473 57.5554,-107.524 59.5,-98 59.9396,-95.8472 60.4044,-93.6527 60.8872,-91.4387"/>
<polygon fill="none" stroke="#404040" points="60.9323,-91.2403 58.3649,-84.5018 63.5976,-79.5401 66.165,-86.2786 60.9323,-91.2403"/>
<text text-anchor="middle" x="73.5" y="-101" font-family="Helvetica,sans-Serif" font-size="10.00"> +data</text>
</g>
<!-- Node3 -->
<g id="node3" class="node"><title>Node3</title>
<g id="a_node3"><a xlink:title=" ">
<polygon fill="none" stroke="#bfbfbf" points="95,-199 95,-256 124,-256 124,-199 95,-199"/>
<text text-anchor="middle" x="109.5" y="-244" font-family="Helvetica,sans-Serif" font-size="10.00">int</text>
<polyline fill="none" stroke="#bfbfbf" points="95,-237 124,-237 "/>
<text text-anchor="middle" x="109.5" y="-225" font-family="Helvetica,sans-Serif" font-size="10.00"> </text>
<polyline fill="none" stroke="#bfbfbf" points="95,-218 124,-218 "/>
<text text-anchor="middle" x="109.5" y="-206" font-family="Helvetica,sans-Serif" font-size="10.00"> </text>
</a>
</g>
</g>
<!-- Node3&#45;&gt;Node1 -->
<g id="edge2" class="edge"><title>Node3&#45;&gt;Node1</title>
<path fill="none" stroke="#404040" d="M105.345,-198.82C101.29,-172.723 94.6947,-132.568 87.5,-98 87.0523,-95.8489 86.5807,-93.6558 86.0923,-91.443"/>
<polygon fill="none" stroke="#404040" points="86.0468,-91.2442 80.806,-86.291 83.3625,-79.5483 88.6033,-84.5015 86.0468,-91.2442"/>
<text text-anchor="middle" x="103.5" y="-101" font-family="Helvetica,sans-Serif" font-size="10.00"> +type</text>
</g>
</g>
</svg>
