<?xml version="1.0" encoding="UTF-8" standalone="no"?>
<!DOCTYPE svg PUBLIC "-//W3C//DTD SVG 1.1//EN"
 "http://www.w3.org/Graphics/SVG/1.1/DTD/svg11.dtd">
<!-- Generated by graphviz version 2.38.0 (20140413.2041)
 -->
<!-- Title: include/classfile.h Pages: 1 -->
<!--zoomable 263 -->
<svg id="main" version="1.1" xmlns="http://www.w3.org/2000/svg" xmlns:xlink="http://www.w3.org/1999/xlink" xml:space="preserve" onload="init(evt)">
<style type="text/css"><![CDATA[
.edge:hover path { stroke: red; }
.edge:hover polygon { stroke: red; fill: red; }
]]></style>
<script type="text/javascript"><![CDATA[
var edges = document.getElementsByTagName('g');
if (edges && edges.length) {
  for (var i=0;i<edges.length;i++) {
    if (edges[i].id.substr(0,4)=='edge') {
      edges[i].setAttribute('class','edge');
    }
  }
}
]]></script>
        <defs>
                <circle id="rim" cx="0" cy="0" r="7"/>
                <circle id="rim2" cx="0" cy="0" r="3.5"/>
                <g id="zoomPlus">
                        <use xlink:href="#rim" fill="#404040">
                                <set attributeName="fill" to="#808080" begin="zoomplus.mouseover" end="zoomplus.mouseout"/>
                        </use>
                        <path d="M-4,0h8M0,-4v8" fill="none" stroke="white" stroke-width="1.5" pointer-events="none"/>
                </g>
                <g id="zoomMin">
                        <use xlink:href="#rim" fill="#404040">
                                <set attributeName="fill" to="#808080" begin="zoomminus.mouseover" end="zoomminus.mouseout"/>
                        </use>
                        <path d="M-4,0h8" fill="none" stroke="white" stroke-width="1.5" pointer-events="none"/>
                </g>
                <g id="dirArrow">
                        <path fill="none" stroke="white" stroke-width="1.5" d="M0,-3.0v7 M-2.5,-0.5L0,-3.0L2.5,-0.5"/>
                </g>
               <g id="resetDef">
                       <use xlink:href="#rim2" fill="#404040">
                               <set attributeName="fill" to="#808080" begin="reset.mouseover" end="reset.mouseout"/>
                       </use>
               </g>
        </defs>

<script type="text/javascript">
var viewWidth = 1995;
var viewHeight = 263;
var sectionId = 'dynsection-0';
</script>
<script xlink:href="../../svgpan.js"/>
<svg id="graph" class="graph">
<g id="viewport">
<title>include/classfile.h</title>
<!-- Node1 -->
<g id="node1" class="node"><title>Node1</title>
<g id="a_node1"><a xlink:title=" ">
<polygon fill="#bfbfbf" stroke="black" points="139.065,-235.5 139.065,-254.5 233.065,-254.5 233.065,-235.5 139.065,-235.5"/>
<text text-anchor="middle" x="186.065" y="-242.5" font-family="Helvetica,sans-Serif" font-size="10.00">include/classfile.h</text>
</a>
</g>
</g>
<!-- Node2 -->
<g id="node2" class="node"><title>Node2</title>
<g id="a_node2"><a xlink:title=" ">
<polygon fill="none" stroke="#bfbfbf" points="51.0651,-56.5 51.0651,-75.5 93.0651,-75.5 93.0651,-56.5 51.0651,-56.5"/>
<text text-anchor="middle" x="72.0651" y="-63.5" font-family="Helvetica,sans-Serif" font-size="10.00">vector</text>
</a>
</g>
</g>
<!-- Node1&#45;&gt;Node2 -->
<g id="edge1" class="edge"><title>Node1&#45;&gt;Node2</title>
<path fill="none" stroke="midnightblue" d="M138.857,-243.962C101.735,-241.27 51.5244,-231.273 22.0651,-199 -4.17476,-170.254 -5.34097,-146.812 12.0651,-112 18.7935,-98.5432 31.6714,-88.0665 43.7769,-80.6212"/>
<polygon fill="midnightblue" stroke="midnightblue" points="45.7983,-83.4985 52.7688,-75.5195 42.344,-77.4101 45.7983,-83.4985"/>
</g>
<!-- Node3 -->
<g id="node3" class="node"><title>Node3</title>
<g id="a_node3"><a xlink:href="../../d0/d36/constant_pool_8h.xhtml" target="_top" xlink:title=" ">
<polygon fill="none" stroke="black" points="31.5651,-179.5 31.5651,-198.5 134.565,-198.5 134.565,-179.5 31.5651,-179.5"/>
<text text-anchor="middle" x="83.0651" y="-186.5" font-family="Helvetica,sans-Serif" font-size="10.00">utils/constantPool.h</text>
</a>
</g>
</g>
<!-- Node1&#45;&gt;Node3 -->
<g id="edge2" class="edge"><title>Node1&#45;&gt;Node3</title>
<path fill="none" stroke="midnightblue" d="M169.516,-235.324C153.074,-226.703 127.63,-213.364 108.597,-203.386"/>
<polygon fill="midnightblue" stroke="midnightblue" points="110.055,-200.198 99.5728,-198.655 106.804,-206.398 110.055,-200.198"/>
</g>
<!-- Node6 -->
<g id="node6" class="node"><title>Node6</title>
<g id="a_node6"><a xlink:href="../../d9/d49/types_8h.xhtml" target="_top" xlink:title=" ">
<polygon fill="none" stroke="black" points="175.065,-56.5 175.065,-75.5 245.065,-75.5 245.065,-56.5 175.065,-56.5"/>
<text text-anchor="middle" x="210.065" y="-63.5" font-family="Helvetica,sans-Serif" font-size="10.00">utils/types.h</text>
</a>
</g>
</g>
<!-- Node1&#45;&gt;Node6 -->
<g id="edge44" class="edge"><title>Node1&#45;&gt;Node6</title>
<path fill="none" stroke="midnightblue" d="M196.528,-235.408C206.058,-227.048 219.86,-213.512 228.065,-199 240.806,-176.468 240.475,-168.635 244.065,-143 245.976,-129.355 248.445,-125.063 244.065,-112 240.461,-101.251 233.162,-91.0204 226.248,-83.0378"/>
<polygon fill="midnightblue" stroke="midnightblue" points="228.72,-80.5561 219.353,-75.6053 223.588,-85.3168 228.72,-80.5561"/>
</g>
<!-- Node8 -->
<g id="node8" class="node"><title>Node8</title>
<g id="a_node8"><a xlink:href="../../d3/dd1/nlohmann__json_8hpp.xhtml" target="_top" xlink:title=" ">
<polygon fill="none" stroke="black" points="973.565,-112.5 973.565,-142.5 1090.57,-142.5 1090.57,-112.5 973.565,-112.5"/>
<text text-anchor="start" x="981.565" y="-130.5" font-family="Helvetica,sans-Serif" font-size="10.00">utils/external/nlohmann</text>
<text text-anchor="middle" x="1032.07" y="-119.5" font-family="Helvetica,sans-Serif" font-size="10.00">_json.hpp</text>
</a>
</g>
</g>
<!-- Node1&#45;&gt;Node8 -->
<g id="edge11" class="edge"><title>Node1&#45;&gt;Node8</title>
<path fill="none" stroke="midnightblue" d="M233.363,-237.543C375.066,-218.197 796.615,-160.645 963.214,-137.9"/>
<polygon fill="midnightblue" stroke="midnightblue" points="963.903,-141.338 973.338,-136.518 962.956,-134.403 963.903,-141.338"/>
</g>
<!-- Node34 -->
<g id="node34" class="node"><title>Node34</title>
<g id="a_node34"><a xlink:href="../../d9/d70/infos_8h.xhtml" target="_top" xlink:title=" ">
<polygon fill="none" stroke="black" points="153.065,-179.5 153.065,-198.5 219.065,-198.5 219.065,-179.5 153.065,-179.5"/>
<text text-anchor="middle" x="186.065" y="-186.5" font-family="Helvetica,sans-Serif" font-size="10.00">utils/infos.h</text>
</a>
</g>
</g>
<!-- Node1&#45;&gt;Node34 -->
<g id="edge40" class="edge"><title>Node1&#45;&gt;Node34</title>
<path fill="none" stroke="midnightblue" d="M186.065,-235.083C186.065,-228.006 186.065,-217.861 186.065,-208.986"/>
<polygon fill="midnightblue" stroke="midnightblue" points="189.565,-208.751 186.065,-198.751 182.565,-208.751 189.565,-208.751"/>
</g>
<!-- Node3&#45;&gt;Node2 -->
<g id="edge4" class="edge"><title>Node3&#45;&gt;Node2</title>
<path fill="none" stroke="midnightblue" d="M62.2178,-179.427C47.4873,-172.129 28.8602,-160.091 20.0651,-143 13.7607,-130.749 14.3376,-124.531 20.0651,-112 25.8424,-99.3602 37.1174,-88.911 47.6958,-81.2737"/>
<polygon fill="midnightblue" stroke="midnightblue" points="49.9139,-84.0009 56.2818,-75.5333 46.0233,-78.1817 49.9139,-84.0009"/>
</g>
<!-- Node4 -->
<g id="node4" class="node"><title>Node4</title>
<g id="a_node4"><a xlink:title=" ">
<polygon fill="none" stroke="#bfbfbf" points="115.565,-56.5 115.565,-75.5 156.565,-75.5 156.565,-56.5 115.565,-56.5"/>
<text text-anchor="middle" x="136.065" y="-63.5" font-family="Helvetica,sans-Serif" font-size="10.00">string</text>
</a>
</g>
</g>
<!-- Node3&#45;&gt;Node4 -->
<g id="edge3" class="edge"><title>Node3&#45;&gt;Node4</title>
<path fill="none" stroke="midnightblue" d="M82.1491,-179.056C81.0311,-164.3 80.4396,-134.272 91.0651,-112 96.6015,-100.395 106.404,-90.0419 115.449,-82.2005"/>
<polygon fill="midnightblue" stroke="midnightblue" points="117.845,-84.7636 123.399,-75.7414 113.431,-79.3306 117.845,-84.7636"/>
</g>
<!-- Node5 -->
<g id="node5" class="node"><title>Node5</title>
<g id="a_node5"><a xlink:href="../../da/d6e/attributes_8h.xhtml" target="_top" xlink:title=" ">
<polygon fill="none" stroke="black" points="100.065,-118 100.065,-137 186.065,-137 186.065,-118 100.065,-118"/>
<text text-anchor="middle" x="143.065" y="-125" font-family="Helvetica,sans-Serif" font-size="10.00">utils/attributes.h</text>
</a>
</g>
</g>
<!-- Node3&#45;&gt;Node5 -->
<g id="edge5" class="edge"><title>Node3&#45;&gt;Node5</title>
<path fill="none" stroke="midnightblue" d="M91.6617,-179.475C100.929,-170.285 115.882,-155.456 127.278,-144.156"/>
<polygon fill="midnightblue" stroke="midnightblue" points="129.848,-146.536 134.485,-137.009 124.919,-141.565 129.848,-146.536"/>
</g>
<!-- Node3&#45;&gt;Node6 -->
<g id="edge10" class="edge"><title>Node3&#45;&gt;Node6</title>
<path fill="none" stroke="midnightblue" d="M131.863,-179.469C154.263,-173.091 179.291,-162.042 195.065,-143 208.31,-127.011 211.035,-102.669 211.112,-85.8623"/>
<polygon fill="midnightblue" stroke="midnightblue" points="214.604,-85.5289 210.839,-75.626 207.607,-85.7159 214.604,-85.5289"/>
</g>
<!-- Node5&#45;&gt;Node2 -->
<g id="edge7" class="edge"><title>Node5&#45;&gt;Node2</title>
<path fill="none" stroke="midnightblue" d="M132.893,-117.975C121.715,-108.608 103.548,-93.3839 89.9739,-82.0081"/>
<polygon fill="midnightblue" stroke="midnightblue" points="92.1314,-79.2496 82.2188,-75.5091 87.6353,-84.6148 92.1314,-79.2496"/>
</g>
<!-- Node5&#45;&gt;Node4 -->
<g id="edge6" class="edge"><title>Node5&#45;&gt;Node4</title>
<path fill="none" stroke="midnightblue" d="M142.062,-117.975C141.075,-109.58 139.533,-96.4806 138.261,-85.6631"/>
<polygon fill="midnightblue" stroke="midnightblue" points="141.711,-85.0316 137.066,-75.5091 134.759,-85.8496 141.711,-85.0316"/>
</g>
<!-- Node5&#45;&gt;Node6 -->
<g id="edge8" class="edge"><title>Node5&#45;&gt;Node6</title>
<path fill="none" stroke="midnightblue" d="M152.665,-117.975C163.113,-108.697 180.033,-93.6706 192.802,-82.331"/>
<polygon fill="midnightblue" stroke="midnightblue" points="195.33,-84.7663 200.483,-75.5091 190.682,-79.5323 195.33,-84.7663"/>
</g>
<!-- Node7 -->
<g id="node7" class="node"><title>Node7</title>
<g id="a_node7"><a xlink:title=" ">
<polygon fill="none" stroke="#bfbfbf" points="218.065,-0.5 218.065,-19.5 264.065,-19.5 264.065,-0.5 218.065,-0.5"/>
<text text-anchor="middle" x="241.065" y="-7.5" font-family="Helvetica,sans-Serif" font-size="10.00">cstdint</text>
</a>
</g>
</g>
<!-- Node6&#45;&gt;Node7 -->
<g id="edge9" class="edge"><title>Node6&#45;&gt;Node7</title>
<path fill="none" stroke="midnightblue" d="M215.184,-56.083C219.473,-48.6127 225.723,-37.7244 231.007,-28.5199"/>
<polygon fill="midnightblue" stroke="midnightblue" points="234.098,-30.1662 236.041,-19.7511 228.027,-26.6811 234.098,-30.1662"/>
</g>
<!-- Node8&#45;&gt;Node2 -->
<g id="edge38" class="edge"><title>Node8&#45;&gt;Node2</title>
<path fill="none" stroke="midnightblue" d="M973.41,-124.869C797.201,-119.723 274.341,-102.574 106.065,-76 105.142,-75.8542 104.207,-75.6936 103.266,-75.5205"/>
<polygon fill="midnightblue" stroke="midnightblue" points="103.661,-72.0239 93.1428,-73.2934 102.157,-78.8604 103.661,-72.0239"/>
</g>
<!-- Node8&#45;&gt;Node4 -->
<g id="edge35" class="edge"><title>Node8&#45;&gt;Node4</title>
<path fill="none" stroke="midnightblue" d="M973.314,-124.859C808.062,-119.966 340.533,-104.144 166.609,-75.5621"/>
<polygon fill="midnightblue" stroke="midnightblue" points="167.018,-72.0811 156.57,-73.8388 165.833,-78.9802 167.018,-72.0811"/>
</g>
<!-- Node8&#45;&gt;Node7 -->
<g id="edge19" class="edge"><title>Node8&#45;&gt;Node7</title>
<path fill="none" stroke="midnightblue" d="M973.295,-125.223C808.761,-121.266 351.638,-107.533 292.065,-76 272.514,-65.6515 258.011,-44.1823 249.569,-28.7466"/>
<polygon fill="midnightblue" stroke="midnightblue" points="252.582,-26.9525 244.904,-19.6519 246.353,-30.1471 252.582,-26.9525"/>
</g>
<!-- Node9 -->
<g id="node9" class="node"><title>Node9</title>
<g id="a_node9"><a xlink:title=" ">
<polygon fill="none" stroke="#bfbfbf" points="1613.07,-56.5 1613.07,-75.5 1669.07,-75.5 1669.07,-56.5 1613.07,-56.5"/>
<text text-anchor="middle" x="1641.07" y="-63.5" font-family="Helvetica,sans-Serif" font-size="10.00">algorithm</text>
</a>
</g>
</g>
<!-- Node8&#45;&gt;Node9 -->
<g id="edge12" class="edge"><title>Node8&#45;&gt;Node9</title>
<path fill="none" stroke="midnightblue" d="M1090.89,-124.229C1193.2,-119.642 1410.56,-107.078 1602.87,-75.9606"/>
<polygon fill="midnightblue" stroke="midnightblue" points="1603.57,-79.3919 1612.87,-74.3207 1602.44,-72.484 1603.57,-79.3919"/>
</g>
<!-- Node10 -->
<g id="node10" class="node"><title>Node10</title>
<g id="a_node10"><a xlink:title=" ">
<polygon fill="none" stroke="#bfbfbf" points="1687.07,-56.5 1687.07,-75.5 1725.07,-75.5 1725.07,-56.5 1687.07,-56.5"/>
<text text-anchor="middle" x="1706.07" y="-63.5" font-family="Helvetica,sans-Serif" font-size="10.00">array</text>
</a>
</g>
</g>
<!-- Node8&#45;&gt;Node10 -->
<g id="edge13" class="edge"><title>Node8&#45;&gt;Node10</title>
<path fill="none" stroke="midnightblue" d="M1090.59,-126.463C1202.98,-125.412 1456.66,-118.293 1676.81,-75.7815"/>
<polygon fill="midnightblue" stroke="midnightblue" points="1677.8,-79.1548 1686.94,-73.7962 1676.45,-72.2855 1677.8,-79.1548"/>
</g>
<!-- Node11 -->
<g id="node11" class="node"><title>Node11</title>
<g id="a_node11"><a xlink:title=" ">
<polygon fill="none" stroke="#bfbfbf" points="1743.57,-56.5 1743.57,-75.5 1792.57,-75.5 1792.57,-56.5 1743.57,-56.5"/>
<text text-anchor="middle" x="1768.07" y="-63.5" font-family="Helvetica,sans-Serif" font-size="10.00">cassert</text>
</a>
</g>
</g>
<!-- Node8&#45;&gt;Node11 -->
<g id="edge14" class="edge"><title>Node8&#45;&gt;Node11</title>
<path fill="none" stroke="midnightblue" d="M1090.75,-125.972C1210.18,-124.1 1490.05,-115.642 1733.21,-75.8031"/>
<polygon fill="midnightblue" stroke="midnightblue" points="1734.01,-79.2186 1743.3,-74.1283 1732.86,-72.3131 1734.01,-79.2186"/>
</g>
<!-- Node12 -->
<g id="node12" class="node"><title>Node12</title>
<g id="a_node12"><a xlink:title=" ">
<polygon fill="none" stroke="#bfbfbf" points="1811.07,-56.5 1811.07,-75.5 1857.07,-75.5 1857.07,-56.5 1811.07,-56.5"/>
<text text-anchor="middle" x="1834.07" y="-63.5" font-family="Helvetica,sans-Serif" font-size="10.00">cctype</text>
</a>
</g>
</g>
<!-- Node8&#45;&gt;Node12 -->
<g id="edge15" class="edge"><title>Node8&#45;&gt;Node12</title>
<path fill="none" stroke="midnightblue" d="M1090.99,-126.805C1218.99,-126.569 1531.87,-121.137 1800.82,-75.8539"/>
<polygon fill="midnightblue" stroke="midnightblue" points="1801.51,-79.2883 1810.78,-74.1568 1800.33,-72.388 1801.51,-79.2883"/>
</g>
<!-- Node13 -->
<g id="node13" class="node"><title>Node13</title>
<g id="a_node13"><a xlink:title=" ">
<polygon fill="none" stroke="#bfbfbf" points="1875.07,-56.5 1875.07,-75.5 1925.07,-75.5 1925.07,-56.5 1875.07,-56.5"/>
<text text-anchor="middle" x="1900.07" y="-63.5" font-family="Helvetica,sans-Serif" font-size="10.00">ciso646</text>
</a>
</g>
</g>
<!-- Node8&#45;&gt;Node13 -->
<g id="edge16" class="edge"><title>Node8&#45;&gt;Node13</title>
<path fill="none" stroke="midnightblue" d="M1090.64,-126.926C1225.83,-127.055 1570,-122.505 1864.9,-75.8528"/>
<polygon fill="midnightblue" stroke="midnightblue" points="1865.61,-79.2841 1874.93,-74.2468 1864.51,-72.3721 1865.61,-79.2841"/>
</g>
<!-- Node14 -->
<g id="node14" class="node"><title>Node14</title>
<g id="a_node14"><a xlink:title=" ">
<polygon fill="none" stroke="#bfbfbf" points="1943.07,-56.5 1943.07,-75.5 1987.07,-75.5 1987.07,-56.5 1943.07,-56.5"/>
<text text-anchor="middle" x="1965.07" y="-63.5" font-family="Helvetica,sans-Serif" font-size="10.00">cmath</text>
</a>
</g>
</g>
<!-- Node8&#45;&gt;Node14 -->
<g id="edge17" class="edge"><title>Node8&#45;&gt;Node14</title>
<path fill="none" stroke="midnightblue" d="M1090.76,-124.951C1260.75,-120.195 1752.26,-104.469 1932.94,-75.7449"/>
<polygon fill="midnightblue" stroke="midnightblue" points="1933.56,-79.1904 1942.85,-74.1018 1932.42,-72.2846 1933.56,-79.1904"/>
</g>
<!-- Node15 -->
<g id="node15" class="node"><title>Node15</title>
<g id="a_node15"><a xlink:title=" ">
<polygon fill="none" stroke="#bfbfbf" points="301.065,-56.5 301.065,-75.5 349.065,-75.5 349.065,-56.5 301.065,-56.5"/>
<text text-anchor="middle" x="325.065" y="-63.5" font-family="Helvetica,sans-Serif" font-size="10.00">cstddef</text>
</a>
</g>
</g>
<!-- Node8&#45;&gt;Node15 -->
<g id="edge18" class="edge"><title>Node8&#45;&gt;Node15</title>
<path fill="none" stroke="midnightblue" d="M973.455,-125.87C857.559,-123.812 590.964,-115.033 359.067,-75.8334"/>
<polygon fill="midnightblue" stroke="midnightblue" points="359.544,-72.3642 349.096,-74.1254 358.362,-79.2637 359.544,-72.3642"/>
</g>
<!-- Node16 -->
<g id="node16" class="node"><title>Node16</title>
<g id="a_node16"><a xlink:title=" ">
<polygon fill="none" stroke="#bfbfbf" points="367.565,-56.5 367.565,-75.5 412.565,-75.5 412.565,-56.5 367.565,-56.5"/>
<text text-anchor="middle" x="390.065" y="-63.5" font-family="Helvetica,sans-Serif" font-size="10.00">cstdlib</text>
</a>
</g>
</g>
<!-- Node8&#45;&gt;Node16 -->
<g id="edge20" class="edge"><title>Node8&#45;&gt;Node16</title>
<path fill="none" stroke="midnightblue" d="M973.548,-125.375C866.029,-122.499 629.863,-112.43 422.517,-75.7038"/>
<polygon fill="midnightblue" stroke="midnightblue" points="423.127,-72.2574 412.666,-73.9347 421.89,-79.1472 423.127,-72.2574"/>
</g>
<!-- Node17 -->
<g id="node17" class="node"><title>Node17</title>
<g id="a_node17"><a xlink:title=" ">
<polygon fill="none" stroke="#bfbfbf" points="431.065,-56.5 431.065,-75.5 477.065,-75.5 477.065,-56.5 431.065,-56.5"/>
<text text-anchor="middle" x="454.065" y="-63.5" font-family="Helvetica,sans-Serif" font-size="10.00">cstring</text>
</a>
</g>
</g>
<!-- Node8&#45;&gt;Node17 -->
<g id="edge21" class="edge"><title>Node8&#45;&gt;Node17</title>
<path fill="none" stroke="midnightblue" d="M973.406,-124.572C874.702,-120.566 669.17,-108.947 487.378,-75.9274"/>
<polygon fill="midnightblue" stroke="midnightblue" points="487.837,-72.4532 477.368,-74.083 486.568,-79.3373 487.837,-72.4532"/>
</g>
<!-- Node18 -->
<g id="node18" class="node"><title>Node18</title>
<g id="a_node18"><a xlink:title=" ">
<polygon fill="none" stroke="#bfbfbf" points="495.565,-56.5 495.565,-75.5 560.565,-75.5 560.565,-56.5 495.565,-56.5"/>
<text text-anchor="middle" x="528.065" y="-63.5" font-family="Helvetica,sans-Serif" font-size="10.00">forward_list</text>
</a>
</g>
</g>
<!-- Node8&#45;&gt;Node18 -->
<g id="edge22" class="edge"><title>Node8&#45;&gt;Node18</title>
<path fill="none" stroke="midnightblue" d="M973.463,-122.027C887.384,-115.03 721.562,-99.9317 570.92,-75.9848"/>
<polygon fill="midnightblue" stroke="midnightblue" points="571.449,-72.525 561.02,-74.3946 570.338,-79.4364 571.449,-72.525"/>
</g>
<!-- Node19 -->
<g id="node19" class="node"><title>Node19</title>
<g id="a_node19"><a xlink:title=" ">
<polygon fill="none" stroke="#bfbfbf" points="579.065,-56.5 579.065,-75.5 637.065,-75.5 637.065,-56.5 579.065,-56.5"/>
<text text-anchor="middle" x="608.065" y="-63.5" font-family="Helvetica,sans-Serif" font-size="10.00">functional</text>
</a>
</g>
</g>
<!-- Node8&#45;&gt;Node19 -->
<g id="edge23" class="edge"><title>Node8&#45;&gt;Node19</title>
<path fill="none" stroke="midnightblue" d="M973.417,-120.586C899.696,-112.756 769.114,-97.5773 647.269,-75.8646"/>
<polygon fill="midnightblue" stroke="midnightblue" points="647.852,-72.4134 637.39,-74.0862 646.612,-79.3027 647.852,-72.4134"/>
</g>
<!-- Node20 -->
<g id="node20" class="node"><title>Node20</title>
<g id="a_node20"><a xlink:title=" ">
<polygon fill="none" stroke="#bfbfbf" points="655.565,-56.5 655.565,-75.5 728.565,-75.5 728.565,-56.5 655.565,-56.5"/>
<text text-anchor="middle" x="692.065" y="-63.5" font-family="Helvetica,sans-Serif" font-size="10.00">initializer_list</text>
</a>
</g>
</g>
<!-- Node8&#45;&gt;Node20 -->
<g id="edge24" class="edge"><title>Node8&#45;&gt;Node20</title>
<path fill="none" stroke="midnightblue" d="M973.424,-116.837C916.179,-107.311 826.345,-92.1173 738.57,-76.0581"/>
<polygon fill="midnightblue" stroke="midnightblue" points="739.176,-72.611 728.709,-74.2486 737.913,-79.4961 739.176,-72.611"/>
</g>
<!-- Node21 -->
<g id="node21" class="node"><title>Node21</title>
<g id="a_node21"><a xlink:title=" ">
<polygon fill="none" stroke="#bfbfbf" points="747.065,-56.5 747.065,-75.5 797.065,-75.5 797.065,-56.5 747.065,-56.5"/>
<text text-anchor="middle" x="772.065" y="-63.5" font-family="Helvetica,sans-Serif" font-size="10.00">iomanip</text>
</a>
</g>
</g>
<!-- Node8&#45;&gt;Node21 -->
<g id="edge25" class="edge"><title>Node8&#45;&gt;Node21</title>
<path fill="none" stroke="midnightblue" d="M973.387,-114.044C930.003,-104.684 869.249,-91.2651 807.247,-76.2215"/>
<polygon fill="midnightblue" stroke="midnightblue" points="807.833,-72.7618 797.288,-73.7936 806.175,-79.5626 807.833,-72.7618"/>
</g>
<!-- Node22 -->
<g id="node22" class="node"><title>Node22</title>
<g id="a_node22"><a xlink:title=" ">
<polygon fill="none" stroke="#bfbfbf" points="815.065,-56.5 815.065,-75.5 869.065,-75.5 869.065,-56.5 815.065,-56.5"/>
<text text-anchor="middle" x="842.065" y="-63.5" font-family="Helvetica,sans-Serif" font-size="10.00">iostream</text>
</a>
</g>
</g>
<!-- Node8&#45;&gt;Node22 -->
<g id="edge26" class="edge"><title>Node8&#45;&gt;Node22</title>
<path fill="none" stroke="midnightblue" d="M987.038,-112.399C954.108,-102.087 909.98,-88.2679 879.091,-78.5948"/>
<polygon fill="midnightblue" stroke="midnightblue" points="879.747,-75.1329 869.158,-75.4844 877.655,-81.813 879.747,-75.1329"/>
</g>
<!-- Node23 -->
<g id="node23" class="node"><title>Node23</title>
<g id="a_node23"><a xlink:title=" ">
<polygon fill="none" stroke="#bfbfbf" points="887.565,-56.5 887.565,-75.5 934.565,-75.5 934.565,-56.5 887.565,-56.5"/>
<text text-anchor="middle" x="911.065" y="-63.5" font-family="Helvetica,sans-Serif" font-size="10.00">iterator</text>
</a>
</g>
</g>
<!-- Node8&#45;&gt;Node23 -->
<g id="edge27" class="edge"><title>Node8&#45;&gt;Node23</title>
<path fill="none" stroke="midnightblue" d="M1003.39,-112.399C983.541,-102.639 957.304,-89.7373 937.874,-80.1826"/>
<polygon fill="midnightblue" stroke="midnightblue" points="939.19,-76.9297 928.672,-75.6578 936.101,-83.2114 939.19,-76.9297"/>
</g>
<!-- Node24 -->
<g id="node24" class="node"><title>Node24</title>
<g id="a_node24"><a xlink:title=" ">
<polygon fill="none" stroke="#bfbfbf" points="953.065,-56.5 953.065,-75.5 993.065,-75.5 993.065,-56.5 953.065,-56.5"/>
<text text-anchor="middle" x="973.065" y="-63.5" font-family="Helvetica,sans-Serif" font-size="10.00">limits</text>
</a>
</g>
</g>
<!-- Node8&#45;&gt;Node24 -->
<g id="edge28" class="edge"><title>Node8&#45;&gt;Node24</title>
<path fill="none" stroke="midnightblue" d="M1018.08,-112.399C1009.33,-103.575 998.036,-92.1827 988.948,-83.0178"/>
<polygon fill="midnightblue" stroke="midnightblue" points="991.177,-80.2942 981.65,-75.6578 986.206,-85.2231 991.177,-80.2942"/>
</g>
<!-- Node25 -->
<g id="node25" class="node"><title>Node25</title>
<g id="a_node25"><a xlink:title=" ">
<polygon fill="none" stroke="#bfbfbf" points="1011.07,-56.5 1011.07,-75.5 1053.07,-75.5 1053.07,-56.5 1011.07,-56.5"/>
<text text-anchor="middle" x="1032.07" y="-63.5" font-family="Helvetica,sans-Serif" font-size="10.00">locale</text>
</a>
</g>
</g>
<!-- Node8&#45;&gt;Node25 -->
<g id="edge29" class="edge"><title>Node8&#45;&gt;Node25</title>
<path fill="none" stroke="midnightblue" d="M1032.07,-112.399C1032.07,-104.466 1032.07,-94.458 1032.07,-85.8583"/>
<polygon fill="midnightblue" stroke="midnightblue" points="1035.57,-85.6577 1032.07,-75.6578 1028.57,-85.6578 1035.57,-85.6577"/>
</g>
<!-- Node26 -->
<g id="node26" class="node"><title>Node26</title>
<g id="a_node26"><a xlink:title=" ">
<polygon fill="none" stroke="#bfbfbf" points="1071.57,-56.5 1071.57,-75.5 1106.57,-75.5 1106.57,-56.5 1071.57,-56.5"/>
<text text-anchor="middle" x="1089.07" y="-63.5" font-family="Helvetica,sans-Serif" font-size="10.00">map</text>
</a>
</g>
</g>
<!-- Node8&#45;&gt;Node26 -->
<g id="edge30" class="edge"><title>Node8&#45;&gt;Node26</title>
<path fill="none" stroke="midnightblue" d="M1045.57,-112.399C1054.03,-103.575 1064.94,-92.1827 1073.72,-83.0178"/>
<polygon fill="midnightblue" stroke="midnightblue" points="1076.38,-85.3002 1080.77,-75.6578 1071.33,-80.4577 1076.38,-85.3002"/>
</g>
<!-- Node27 -->
<g id="node27" class="node"><title>Node27</title>
<g id="a_node27"><a xlink:title=" ">
<polygon fill="none" stroke="#bfbfbf" points="1125.07,-56.5 1125.07,-75.5 1177.07,-75.5 1177.07,-56.5 1125.07,-56.5"/>
<text text-anchor="middle" x="1151.07" y="-63.5" font-family="Helvetica,sans-Serif" font-size="10.00">memory</text>
</a>
</g>
</g>
<!-- Node8&#45;&gt;Node27 -->
<g id="edge31" class="edge"><title>Node8&#45;&gt;Node27</title>
<path fill="none" stroke="midnightblue" d="M1060.27,-112.399C1079.79,-102.639 1105.59,-89.7373 1124.7,-80.1826"/>
<polygon fill="midnightblue" stroke="midnightblue" points="1126.37,-83.2605 1133.75,-75.6578 1123.24,-76.9995 1126.37,-83.2605"/>
</g>
<!-- Node28 -->
<g id="node28" class="node"><title>Node28</title>
<g id="a_node28"><a xlink:title=" ">
<polygon fill="none" stroke="#bfbfbf" points="1195.57,-56.5 1195.57,-75.5 1246.57,-75.5 1246.57,-56.5 1195.57,-56.5"/>
<text text-anchor="middle" x="1221.07" y="-63.5" font-family="Helvetica,sans-Serif" font-size="10.00">numeric</text>
</a>
</g>
</g>
<!-- Node8&#45;&gt;Node28 -->
<g id="edge32" class="edge"><title>Node8&#45;&gt;Node28</title>
<path fill="none" stroke="midnightblue" d="M1076.86,-112.399C1110.1,-101.933 1154.82,-87.8534 1185.61,-78.1632"/>
<polygon fill="midnightblue" stroke="midnightblue" points="1186.99,-81.3982 1195.47,-75.0568 1184.88,-74.7213 1186.99,-81.3982"/>
</g>
<!-- Node29 -->
<g id="node29" class="node"><title>Node29</title>
<g id="a_node29"><a xlink:title=" ">
<polygon fill="none" stroke="#bfbfbf" points="1265.07,-56.5 1265.07,-75.5 1317.07,-75.5 1317.07,-56.5 1265.07,-56.5"/>
<text text-anchor="middle" x="1291.07" y="-63.5" font-family="Helvetica,sans-Serif" font-size="10.00">sstream</text>
</a>
</g>
</g>
<!-- Node8&#45;&gt;Node29 -->
<g id="edge33" class="edge"><title>Node8&#45;&gt;Node29</title>
<path fill="none" stroke="midnightblue" d="M1090.66,-113.793C1133.62,-104.362 1193.6,-90.9548 1254.87,-76.239"/>
<polygon fill="midnightblue" stroke="midnightblue" points="1255.81,-79.6125 1264.71,-73.8664 1254.17,-72.8074 1255.81,-79.6125"/>
</g>
<!-- Node30 -->
<g id="node30" class="node"><title>Node30</title>
<g id="a_node30"><a xlink:title=" ">
<polygon fill="none" stroke="#bfbfbf" points="1335.57,-56.5 1335.57,-75.5 1394.57,-75.5 1394.57,-56.5 1335.57,-56.5"/>
<text text-anchor="middle" x="1365.07" y="-63.5" font-family="Helvetica,sans-Serif" font-size="10.00">stdexcept</text>
</a>
</g>
</g>
<!-- Node8&#45;&gt;Node30 -->
<g id="edge34" class="edge"><title>Node8&#45;&gt;Node30</title>
<path fill="none" stroke="midnightblue" d="M1090.82,-117.414C1148.15,-108.32 1238.04,-93.459 1325.47,-76.025"/>
<polygon fill="midnightblue" stroke="midnightblue" points="1326.18,-79.4534 1335.29,-74.0536 1324.8,-72.5903 1326.18,-79.4534"/>
</g>
<!-- Node31 -->
<g id="node31" class="node"><title>Node31</title>
<g id="a_node31"><a xlink:title=" ">
<polygon fill="none" stroke="#bfbfbf" points="1413.07,-56.5 1413.07,-75.5 1475.07,-75.5 1475.07,-56.5 1413.07,-56.5"/>
<text text-anchor="middle" x="1444.07" y="-63.5" font-family="Helvetica,sans-Serif" font-size="10.00">type_traits</text>
</a>
</g>
</g>
<!-- Node8&#45;&gt;Node31 -->
<g id="edge36" class="edge"><title>Node8&#45;&gt;Node31</title>
<path fill="none" stroke="midnightblue" d="M1090.62,-120.136C1162.03,-112.021 1286.59,-96.7309 1402.56,-76.1454"/>
<polygon fill="midnightblue" stroke="midnightblue" points="1403.45,-79.5416 1412.67,-74.3321 1402.21,-72.6514 1403.45,-79.5416"/>
</g>
<!-- Node32 -->
<g id="node32" class="node"><title>Node32</title>
<g id="a_node32"><a xlink:title=" ">
<polygon fill="none" stroke="#bfbfbf" points="1493.07,-56.5 1493.07,-75.5 1533.07,-75.5 1533.07,-56.5 1493.07,-56.5"/>
<text text-anchor="middle" x="1513.07" y="-63.5" font-family="Helvetica,sans-Serif" font-size="10.00">utility</text>
</a>
</g>
</g>
<!-- Node8&#45;&gt;Node32 -->
<g id="edge37" class="edge"><title>Node8&#45;&gt;Node32</title>
<path fill="none" stroke="midnightblue" d="M1090.78,-123.502C1175.59,-118.389 1337.28,-105.712 1482.9,-75.8743"/>
<polygon fill="midnightblue" stroke="midnightblue" points="1483.84,-79.2549 1492.91,-73.7903 1482.41,-72.4018 1483.84,-79.2549"/>
</g>
<!-- Node33 -->
<g id="node33" class="node"><title>Node33</title>
<g id="a_node33"><a xlink:title=" ">
<polygon fill="none" stroke="#bfbfbf" points="1551.57,-56.5 1551.57,-75.5 1594.57,-75.5 1594.57,-56.5 1551.57,-56.5"/>
<text text-anchor="middle" x="1573.07" y="-63.5" font-family="Helvetica,sans-Serif" font-size="10.00">cstdio</text>
</a>
</g>
</g>
<!-- Node8&#45;&gt;Node33 -->
<g id="edge39" class="edge"><title>Node8&#45;&gt;Node33</title>
<path fill="none" stroke="midnightblue" d="M1090.7,-124.198C1184.21,-119.761 1372.89,-107.673 1541.46,-75.7397"/>
<polygon fill="midnightblue" stroke="midnightblue" points="1542.35,-79.1328 1551.51,-73.8076 1541.03,-72.2587 1542.35,-79.1328"/>
</g>
<!-- Node34&#45;&gt;Node2 -->
<g id="edge41" class="edge"><title>Node34&#45;&gt;Node2</title>
<path fill="none" stroke="midnightblue" d="M152.926,-180.113C132.249,-173.525 106.685,-162.053 91.0651,-143 77.754,-126.763 73.5877,-102.472 72.3774,-85.7449"/>
<polygon fill="midnightblue" stroke="midnightblue" points="75.866,-85.4039 71.9358,-75.565 68.8726,-85.7073 75.866,-85.4039"/>
</g>
<!-- Node34&#45;&gt;Node5 -->
<g id="edge42" class="edge"><title>Node34&#45;&gt;Node5</title>
<path fill="none" stroke="midnightblue" d="M179.904,-179.475C173.454,-170.55 163.161,-156.307 155.093,-145.143"/>
<polygon fill="midnightblue" stroke="midnightblue" points="157.909,-143.064 149.215,-137.009 152.235,-147.164 157.909,-143.064"/>
</g>
<!-- Node34&#45;&gt;Node6 -->
<g id="edge43" class="edge"><title>Node34&#45;&gt;Node6</title>
<path fill="none" stroke="midnightblue" d="M198.279,-179.236C208.419,-171.143 222.109,-158.112 228.065,-143 235.652,-123.752 227.801,-100.451 220.219,-84.7654"/>
<polygon fill="midnightblue" stroke="midnightblue" points="223.193,-82.8992 215.441,-75.6766 216.997,-86.1566 223.193,-82.8992"/>
</g>
</g>
</svg>
        <g id="navigator" transform="translate(0 0)" fill="#404254">
                <rect fill="#f2f5e9" fill-opacity="0.5" stroke="#606060" stroke-width=".5" x="0" y="0" width="60" height="60"/>
                <use id="zoomplus" xlink:href="#zoomPlus" x="17" y="9" onmousedown="handleZoom(evt,'in')"/>
                <use id="zoomminus" xlink:href="#zoomMin" x="42" y="9" onmousedown="handleZoom(evt,'out')"/>
                <use id="reset" xlink:href="#resetDef" x="30" y="36" onmousedown="handleReset()"/>
                <g id="arrowUp" xlink:href="#dirArrow" transform="translate(30 24)" onmousedown="handlePan(0,-1)">
                  <use xlink:href="#rim" fill="#404040">
                        <set attributeName="fill" to="#808080" begin="arrowUp.mouseover" end="arrowUp.mouseout"/>
                  </use>
                  <path fill="none" stroke="white" stroke-width="1.5" d="M0,-3.0v7 M-2.5,-0.5L0,-3.0L2.5,-0.5"/>
                </g>
                <g id="arrowRight" xlink:href="#dirArrow" transform="rotate(90) translate(36 -43)" onmousedown="handlePan(1,0)">
                  <use xlink:href="#rim" fill="#404040">
                        <set attributeName="fill" to="#808080" begin="arrowRight.mouseover" end="arrowRight.mouseout"/>
                  </use>
                  <path fill="none" stroke="white" stroke-width="1.5" d="M0,-3.0v7 M-2.5,-0.5L0,-3.0L2.5,-0.5"/>
                </g>
                <g id="arrowDown" xlink:href="#dirArrow" transform="rotate(180) translate(-30 -48)" onmousedown="handlePan(0,1)">
                  <use xlink:href="#rim" fill="#404040">
                        <set attributeName="fill" to="#808080" begin="arrowDown.mouseover" end="arrowDown.mouseout"/>
                  </use>
                  <path fill="none" stroke="white" stroke-width="1.5" d="M0,-3.0v7 M-2.5,-0.5L0,-3.0L2.5,-0.5"/>
                </g>
                <g id="arrowLeft" xlink:href="#dirArrow" transform="rotate(270) translate(-36 17)" onmousedown="handlePan(-1,0)">
                  <use xlink:href="#rim" fill="#404040">
                        <set attributeName="fill" to="#808080" begin="arrowLeft.mouseover" end="arrowLeft.mouseout"/>
                  </use>
                  <path fill="none" stroke="white" stroke-width="1.5" d="M0,-3.0v7 M-2.5,-0.5L0,-3.0L2.5,-0.5"/>
                </g>
        </g>
        <svg viewBox="0 0 15 15" width="100%" height="30px" preserveAspectRatio="xMaxYMin meet">
         <g id="arrow_out" transform="scale(0.3 0.3)">
          <a xlink:href="classfile_8h__incl_org.svg" target="_base">
           <rect id="button" ry="5" rx="5" y="6" x="6" height="38" width="38"
                fill="#f2f5e9" fill-opacity="0.5" stroke="#606060" stroke-width="1.0"/>
           <path id="arrow"
             d="M 11.500037,31.436501 C 11.940474,20.09759 22.043105,11.32322 32.158766,21.979434 L 37.068811,17.246167 C 37.068811,17.246167 37.088388,32 37.088388,32 L 22.160133,31.978069 C 22.160133,31.978069 26.997745,27.140456 26.997745,27.140456 C 18.528582,18.264221 13.291696,25.230495 11.500037,31.436501 z"
             style="fill:#404040;"/>
          </a>
         </g>
        </svg>
</svg>
