<?xml version="1.0" encoding="UTF-8" standalone="no"?>
<!DOCTYPE svg PUBLIC "-//W3C//DTD SVG 1.1//EN"
 "http://www.w3.org/Graphics/SVG/1.1/DTD/svg11.dtd">
<!-- Generated by graphviz version 2.38.0 (20140413.2041)
 -->
<!-- Title: Instructions::Branch::BaseBranch Pages: 1 -->
<!--zoomable 353 -->
<svg id="main" version="1.1" xmlns="http://www.w3.org/2000/svg" xmlns:xlink="http://www.w3.org/1999/xlink" xml:space="preserve" onload="init(evt)">
<style type="text/css"><![CDATA[
.edge:hover path { stroke: red; }
.edge:hover polygon { stroke: red; fill: red; }
]]></style>
<script type="text/javascript"><![CDATA[
var edges = document.getElementsByTagName('g');
if (edges && edges.length) {
  for (var i=0;i<edges.length;i++) {
    if (edges[i].id.substr(0,4)=='edge') {
      edges[i].setAttribute('class','edge');
    }
  }
}
]]></script>
        <defs>
                <circle id="rim" cx="0" cy="0" r="7"/>
                <circle id="rim2" cx="0" cy="0" r="3.5"/>
                <g id="zoomPlus">
                        <use xlink:href="#rim" fill="#404040">
                                <set attributeName="fill" to="#808080" begin="zoomplus.mouseover" end="zoomplus.mouseout"/>
                        </use>
                        <path d="M-4,0h8M0,-4v8" fill="none" stroke="white" stroke-width="1.5" pointer-events="none"/>
                </g>
                <g id="zoomMin">
                        <use xlink:href="#rim" fill="#404040">
                                <set attributeName="fill" to="#808080" begin="zoomminus.mouseover" end="zoomminus.mouseout"/>
                        </use>
                        <path d="M-4,0h8" fill="none" stroke="white" stroke-width="1.5" pointer-events="none"/>
                </g>
                <g id="dirArrow">
                        <path fill="none" stroke="white" stroke-width="1.5" d="M0,-3.0v7 M-2.5,-0.5L0,-3.0L2.5,-0.5"/>
                </g>
               <g id="resetDef">
                       <use xlink:href="#rim2" fill="#404040">
                               <set attributeName="fill" to="#808080" begin="reset.mouseover" end="reset.mouseout"/>
                       </use>
               </g>
        </defs>

<script type="text/javascript">
var viewWidth = 2214;
var viewHeight = 353;
var sectionId = 'dynsection-0';
</script>
<script xlink:href="../../svgpan.js"/>
<svg id="graph" class="graph">
<g id="viewport">
<title>Instructions::Branch::BaseBranch</title>
<!-- Node1 -->
<g id="node1" class="node"><title>Node1</title>
<g id="a_node1"><a xlink:title=" ">
<polygon fill="#bfbfbf" stroke="black" points="1122,-116.5 1122,-206.5 1226,-206.5 1226,-116.5 1122,-116.5"/>
<text text-anchor="start" x="1130" y="-194.5" font-family="Helvetica,sans-Serif" font-size="10.00">Instructions::Branch</text>
<text text-anchor="middle" x="1174" y="-183.5" font-family="Helvetica,sans-Serif" font-size="10.00">::BaseBranch</text>
<polyline fill="none" stroke="black" points="1122,-176.5 1226,-176.5 "/>
<text text-anchor="middle" x="1174" y="-164.5" font-family="Helvetica,sans-Serif" font-size="10.00"> </text>
<polyline fill="none" stroke="black" points="1122,-157.5 1226,-157.5 "/>
<text text-anchor="start" x="1130" y="-145.5" font-family="Helvetica,sans-Serif" font-size="10.00">+ BaseBranch()</text>
<text text-anchor="start" x="1130" y="-134.5" font-family="Helvetica,sans-Serif" font-size="10.00">+ toBytecode()</text>
<text text-anchor="start" x="1130" y="-123.5" font-family="Helvetica,sans-Serif" font-size="10.00">+ toBytecode_json()</text>
</a>
</g>
</g>
<!-- Node3 -->
<g id="node3" class="node"><title>Node3</title>
<g id="a_node3"><a xlink:href="../../d3/de5/class_instructions_1_1_branch_1_1_equal_zero.xhtml" target="_top" xlink:title=" ">
<polygon fill="none" stroke="black" points="0,-0.5 0,-79.5 104,-79.5 104,-0.5 0,-0.5"/>
<text text-anchor="start" x="8" y="-67.5" font-family="Helvetica,sans-Serif" font-size="10.00">Instructions::Branch</text>
<text text-anchor="middle" x="52" y="-56.5" font-family="Helvetica,sans-Serif" font-size="10.00">::EqualZero</text>
<polyline fill="none" stroke="black" points="0,-49.5 104,-49.5 "/>
<text text-anchor="middle" x="52" y="-37.5" font-family="Helvetica,sans-Serif" font-size="10.00"> </text>
<polyline fill="none" stroke="black" points="0,-30.5 104,-30.5 "/>
<text text-anchor="start" x="8" y="-18.5" font-family="Helvetica,sans-Serif" font-size="10.00">+ EqualZero()</text>
<text text-anchor="start" x="8" y="-7.5" font-family="Helvetica,sans-Serif" font-size="10.00">+ execute()</text>
</a>
</g>
</g>
<!-- Node1&#45;&gt;Node3 -->
<g id="edge2" class="edge"><title>Node1&#45;&gt;Node3</title>
<path fill="none" stroke="midnightblue" d="M1111.6,-159.747C913.373,-156.736 300.094,-142.476 113,-80 110.019,-79.0047 107.039,-77.8318 104.088,-76.5256"/>
<polygon fill="none" stroke="midnightblue" points="1111.78,-163.25 1121.84,-159.898 1111.89,-156.251 1111.78,-163.25"/>
</g>
<!-- Node4 -->
<g id="node4" class="node"><title>Node4</title>
<g id="a_node4"><a xlink:href="../../df/d9b/class_instructions_1_1_branch_1_1_greater_equal_zero.xhtml" target="_top" xlink:title=" ">
<polygon fill="none" stroke="black" points="122.5,-0.5 122.5,-79.5 229.5,-79.5 229.5,-0.5 122.5,-0.5"/>
<text text-anchor="start" x="130.5" y="-67.5" font-family="Helvetica,sans-Serif" font-size="10.00">Instructions::Branch</text>
<text text-anchor="middle" x="176" y="-56.5" font-family="Helvetica,sans-Serif" font-size="10.00">::GreaterEqualZero</text>
<polyline fill="none" stroke="black" points="122.5,-49.5 229.5,-49.5 "/>
<text text-anchor="middle" x="176" y="-37.5" font-family="Helvetica,sans-Serif" font-size="10.00"> </text>
<polyline fill="none" stroke="black" points="122.5,-30.5 229.5,-30.5 "/>
<text text-anchor="start" x="130.5" y="-18.5" font-family="Helvetica,sans-Serif" font-size="10.00">+ GreaterEqualZero()</text>
<text text-anchor="start" x="130.5" y="-7.5" font-family="Helvetica,sans-Serif" font-size="10.00">+ execute()</text>
</a>
</g>
</g>
<!-- Node1&#45;&gt;Node4 -->
<g id="edge3" class="edge"><title>Node1&#45;&gt;Node4</title>
<path fill="none" stroke="midnightblue" d="M1111.73,-158.901C929.837,-153.638 401.894,-133.999 239,-80 235.947,-78.9881 232.89,-77.8019 229.859,-76.4851"/>
<polygon fill="none" stroke="midnightblue" points="1111.83,-162.405 1121.93,-159.191 1112.03,-155.408 1111.83,-162.405"/>
</g>
<!-- Node5 -->
<g id="node5" class="node"><title>Node5</title>
<g id="a_node5"><a xlink:href="../../da/da1/class_instructions_1_1_branch_1_1_greater_than_zero.xhtml" target="_top" xlink:title=" ">
<polygon fill="none" stroke="black" points="248,-0.5 248,-79.5 352,-79.5 352,-0.5 248,-0.5"/>
<text text-anchor="start" x="256" y="-67.5" font-family="Helvetica,sans-Serif" font-size="10.00">Instructions::Branch</text>
<text text-anchor="middle" x="300" y="-56.5" font-family="Helvetica,sans-Serif" font-size="10.00">::GreaterThanZero</text>
<polyline fill="none" stroke="black" points="248,-49.5 352,-49.5 "/>
<text text-anchor="middle" x="300" y="-37.5" font-family="Helvetica,sans-Serif" font-size="10.00"> </text>
<polyline fill="none" stroke="black" points="248,-30.5 352,-30.5 "/>
<text text-anchor="start" x="256" y="-18.5" font-family="Helvetica,sans-Serif" font-size="10.00">+ GreaterThanZero()</text>
<text text-anchor="start" x="256" y="-7.5" font-family="Helvetica,sans-Serif" font-size="10.00">+ execute()</text>
</a>
</g>
</g>
<!-- Node1&#45;&gt;Node5 -->
<g id="edge4" class="edge"><title>Node1&#45;&gt;Node5</title>
<path fill="none" stroke="midnightblue" d="M1111.97,-158.096C946.883,-151.107 499.89,-128.159 361,-80 358.031,-78.9705 355.06,-77.7702 352.116,-76.4421"/>
<polygon fill="none" stroke="midnightblue" points="1111.83,-161.593 1121.97,-158.514 1112.12,-154.599 1111.83,-161.593"/>
</g>
<!-- Node6 -->
<g id="node6" class="node"><title>Node6</title>
<g id="a_node6"><a xlink:href="../../d4/d2d/class_instructions_1_1_branch_1_1_integer_compare_equal.xhtml" target="_top" xlink:title=" ">
<polygon fill="none" stroke="black" points="370.5,-0.5 370.5,-79.5 495.5,-79.5 495.5,-0.5 370.5,-0.5"/>
<text text-anchor="start" x="378.5" y="-67.5" font-family="Helvetica,sans-Serif" font-size="10.00">Instructions::Branch</text>
<text text-anchor="middle" x="433" y="-56.5" font-family="Helvetica,sans-Serif" font-size="10.00">::IntegerCompareEqual</text>
<polyline fill="none" stroke="black" points="370.5,-49.5 495.5,-49.5 "/>
<text text-anchor="middle" x="433" y="-37.5" font-family="Helvetica,sans-Serif" font-size="10.00"> </text>
<polyline fill="none" stroke="black" points="370.5,-30.5 495.5,-30.5 "/>
<text text-anchor="start" x="378.5" y="-18.5" font-family="Helvetica,sans-Serif" font-size="10.00">+ IntegerCompareEqual()</text>
<text text-anchor="start" x="378.5" y="-7.5" font-family="Helvetica,sans-Serif" font-size="10.00">+ execute()</text>
</a>
</g>
</g>
<!-- Node1&#45;&gt;Node6 -->
<g id="edge5" class="edge"><title>Node1&#45;&gt;Node6</title>
<path fill="none" stroke="midnightblue" d="M1111.58,-160.845C991.105,-159.817 719.404,-149.223 504,-80 501.188,-79.0964 498.36,-78.0786 495.537,-76.9715"/>
<polygon fill="none" stroke="midnightblue" points="1111.7,-164.345 1121.72,-160.911 1111.75,-157.346 1111.7,-164.345"/>
</g>
<!-- Node7 -->
<g id="node7" class="node"><title>Node7</title>
<g id="a_node7"><a xlink:href="../../d5/dc8/class_instructions_1_1_branch_1_1_integer_compare_greater_equal.xhtml" target="_top" xlink:title=" ">
<polygon fill="none" stroke="black" points="513.5,-0.5 513.5,-79.5 670.5,-79.5 670.5,-0.5 513.5,-0.5"/>
<text text-anchor="start" x="521.5" y="-67.5" font-family="Helvetica,sans-Serif" font-size="10.00">Instructions::Branch</text>
<text text-anchor="middle" x="592" y="-56.5" font-family="Helvetica,sans-Serif" font-size="10.00">::IntegerCompareGreaterEqual</text>
<polyline fill="none" stroke="black" points="513.5,-49.5 670.5,-49.5 "/>
<text text-anchor="middle" x="592" y="-37.5" font-family="Helvetica,sans-Serif" font-size="10.00"> </text>
<polyline fill="none" stroke="black" points="513.5,-30.5 670.5,-30.5 "/>
<text text-anchor="start" x="521.5" y="-18.5" font-family="Helvetica,sans-Serif" font-size="10.00">+ IntegerCompareGreaterEqual()</text>
<text text-anchor="start" x="521.5" y="-7.5" font-family="Helvetica,sans-Serif" font-size="10.00">+ execute()</text>
</a>
</g>
</g>
<!-- Node1&#45;&gt;Node7 -->
<g id="edge6" class="edge"><title>Node1&#45;&gt;Node7</title>
<path fill="none" stroke="midnightblue" d="M1111.68,-155.6C1016.68,-146.969 830.679,-125.48 679,-80 676.305,-79.1918 673.584,-78.319 670.852,-77.3936"/>
<polygon fill="none" stroke="midnightblue" points="1111.42,-159.091 1121.69,-156.493 1112.04,-152.119 1111.42,-159.091"/>
</g>
<!-- Node8 -->
<g id="node8" class="node"><title>Node8</title>
<g id="a_node8"><a xlink:href="../../d7/d1f/class_instructions_1_1_branch_1_1_integer_compare_greater_than.xhtml" target="_top" xlink:title=" ">
<polygon fill="none" stroke="black" points="688.5,-0.5 688.5,-79.5 841.5,-79.5 841.5,-0.5 688.5,-0.5"/>
<text text-anchor="start" x="696.5" y="-67.5" font-family="Helvetica,sans-Serif" font-size="10.00">Instructions::Branch</text>
<text text-anchor="middle" x="765" y="-56.5" font-family="Helvetica,sans-Serif" font-size="10.00">::IntegerCompareGreaterThan</text>
<polyline fill="none" stroke="black" points="688.5,-49.5 841.5,-49.5 "/>
<text text-anchor="middle" x="765" y="-37.5" font-family="Helvetica,sans-Serif" font-size="10.00"> </text>
<polyline fill="none" stroke="black" points="688.5,-30.5 841.5,-30.5 "/>
<text text-anchor="start" x="696.5" y="-18.5" font-family="Helvetica,sans-Serif" font-size="10.00">+ IntegerCompareGreaterThan()</text>
<text text-anchor="start" x="696.5" y="-7.5" font-family="Helvetica,sans-Serif" font-size="10.00">+ execute()</text>
</a>
</g>
</g>
<!-- Node1&#45;&gt;Node8 -->
<g id="edge7" class="edge"><title>Node1&#45;&gt;Node8</title>
<path fill="none" stroke="midnightblue" d="M1111.77,-148.498C1046,-135.005 939.72,-110.885 851,-80 847.903,-78.922 844.766,-77.7744 841.612,-76.5747"/>
<polygon fill="none" stroke="midnightblue" points="1111.47,-152.009 1121.97,-150.572 1112.87,-145.149 1111.47,-152.009"/>
</g>
<!-- Node9 -->
<g id="node9" class="node"><title>Node9</title>
<g id="a_node9"><a xlink:href="../../d2/de7/class_instructions_1_1_branch_1_1_integer_compare_less_equal.xhtml" target="_top" xlink:title=" ">
<polygon fill="none" stroke="black" points="860,-0.5 860,-79.5 1006,-79.5 1006,-0.5 860,-0.5"/>
<text text-anchor="start" x="868" y="-67.5" font-family="Helvetica,sans-Serif" font-size="10.00">Instructions::Branch</text>
<text text-anchor="middle" x="933" y="-56.5" font-family="Helvetica,sans-Serif" font-size="10.00">::IntegerCompareLessEqual</text>
<polyline fill="none" stroke="black" points="860,-49.5 1006,-49.5 "/>
<text text-anchor="middle" x="933" y="-37.5" font-family="Helvetica,sans-Serif" font-size="10.00"> </text>
<polyline fill="none" stroke="black" points="860,-30.5 1006,-30.5 "/>
<text text-anchor="start" x="868" y="-18.5" font-family="Helvetica,sans-Serif" font-size="10.00">+ IntegerCompareLessEqual()</text>
<text text-anchor="start" x="868" y="-7.5" font-family="Helvetica,sans-Serif" font-size="10.00">+ execute()</text>
</a>
</g>
</g>
<!-- Node1&#45;&gt;Node9 -->
<g id="edge8" class="edge"><title>Node1&#45;&gt;Node9</title>
<path fill="none" stroke="midnightblue" d="M1112.36,-129.934C1080,-113.89 1040.14,-94.1247 1006.22,-77.3051"/>
<polygon fill="none" stroke="midnightblue" points="1111.19,-133.264 1121.71,-134.57 1114.3,-126.992 1111.19,-133.264"/>
</g>
<!-- Node10 -->
<g id="node10" class="node"><title>Node10</title>
<g id="a_node10"><a xlink:href="../../d8/d39/class_instructions_1_1_branch_1_1_integer_compare_less_than.xhtml" target="_top" xlink:title=" ">
<polygon fill="none" stroke="black" points="1024,-0.5 1024,-79.5 1166,-79.5 1166,-0.5 1024,-0.5"/>
<text text-anchor="start" x="1032" y="-67.5" font-family="Helvetica,sans-Serif" font-size="10.00">Instructions::Branch</text>
<text text-anchor="middle" x="1095" y="-56.5" font-family="Helvetica,sans-Serif" font-size="10.00">::IntegerCompareLessThan</text>
<polyline fill="none" stroke="black" points="1024,-49.5 1166,-49.5 "/>
<text text-anchor="middle" x="1095" y="-37.5" font-family="Helvetica,sans-Serif" font-size="10.00"> </text>
<polyline fill="none" stroke="black" points="1024,-30.5 1166,-30.5 "/>
<text text-anchor="start" x="1032" y="-18.5" font-family="Helvetica,sans-Serif" font-size="10.00">+ IntegerCompareLessThan()</text>
<text text-anchor="start" x="1032" y="-7.5" font-family="Helvetica,sans-Serif" font-size="10.00">+ execute()</text>
</a>
</g>
</g>
<!-- Node1&#45;&gt;Node10 -->
<g id="edge9" class="edge"><title>Node1&#45;&gt;Node10</title>
<path fill="none" stroke="midnightblue" d="M1139.17,-107.807C1132.95,-98.4108 1126.59,-88.7787 1120.69,-79.8576"/>
<polygon fill="none" stroke="midnightblue" points="1136.37,-109.93 1144.81,-116.342 1142.21,-106.07 1136.37,-109.93"/>
</g>
<!-- Node11 -->
<g id="node11" class="node"><title>Node11</title>
<g id="a_node11"><a xlink:href="../../d1/ddf/class_instructions_1_1_branch_1_1_integer_compare_not_equal.xhtml" target="_top" xlink:title=" ">
<polygon fill="none" stroke="black" points="1184,-0.5 1184,-79.5 1324,-79.5 1324,-0.5 1184,-0.5"/>
<text text-anchor="start" x="1192" y="-67.5" font-family="Helvetica,sans-Serif" font-size="10.00">Instructions::Branch</text>
<text text-anchor="middle" x="1254" y="-56.5" font-family="Helvetica,sans-Serif" font-size="10.00">::IntegerCompareNotEqual</text>
<polyline fill="none" stroke="black" points="1184,-49.5 1324,-49.5 "/>
<text text-anchor="middle" x="1254" y="-37.5" font-family="Helvetica,sans-Serif" font-size="10.00"> </text>
<polyline fill="none" stroke="black" points="1184,-30.5 1324,-30.5 "/>
<text text-anchor="start" x="1192" y="-18.5" font-family="Helvetica,sans-Serif" font-size="10.00">+ IntegerCompareNotEqual()</text>
<text text-anchor="start" x="1192" y="-7.5" font-family="Helvetica,sans-Serif" font-size="10.00">+ execute()</text>
</a>
</g>
</g>
<!-- Node1&#45;&gt;Node11 -->
<g id="edge10" class="edge"><title>Node1&#45;&gt;Node11</title>
<path fill="none" stroke="midnightblue" d="M1209.28,-107.807C1215.57,-98.4108 1222.01,-88.7787 1227.99,-79.8576"/>
<polygon fill="none" stroke="midnightblue" points="1206.22,-106.085 1203.56,-116.342 1212.03,-109.979 1206.22,-106.085"/>
</g>
<!-- Node12 -->
<g id="node12" class="node"><title>Node12</title>
<g id="a_node12"><a xlink:href="../../dc/da3/class_instructions_1_1_branch_1_1_less_equal_zero.xhtml" target="_top" xlink:title=" ">
<polygon fill="none" stroke="black" points="1342,-0.5 1342,-79.5 1446,-79.5 1446,-0.5 1342,-0.5"/>
<text text-anchor="start" x="1350" y="-67.5" font-family="Helvetica,sans-Serif" font-size="10.00">Instructions::Branch</text>
<text text-anchor="middle" x="1394" y="-56.5" font-family="Helvetica,sans-Serif" font-size="10.00">::LessEqualZero</text>
<polyline fill="none" stroke="black" points="1342,-49.5 1446,-49.5 "/>
<text text-anchor="middle" x="1394" y="-37.5" font-family="Helvetica,sans-Serif" font-size="10.00"> </text>
<polyline fill="none" stroke="black" points="1342,-30.5 1446,-30.5 "/>
<text text-anchor="start" x="1350" y="-18.5" font-family="Helvetica,sans-Serif" font-size="10.00">+ LessEqualZero()</text>
<text text-anchor="start" x="1350" y="-7.5" font-family="Helvetica,sans-Serif" font-size="10.00">+ execute()</text>
</a>
</g>
</g>
<!-- Node1&#45;&gt;Node12 -->
<g id="edge11" class="edge"><title>Node1&#45;&gt;Node12</title>
<path fill="none" stroke="midnightblue" d="M1235.3,-131.253C1265.15,-116.56 1301.34,-98.0728 1333,-80 1335.95,-78.3173 1338.95,-76.5558 1341.97,-74.7507"/>
<polygon fill="none" stroke="midnightblue" points="1233.69,-128.143 1226.25,-135.686 1236.77,-134.429 1233.69,-128.143"/>
</g>
<!-- Node13 -->
<g id="node13" class="node"><title>Node13</title>
<g id="a_node13"><a xlink:href="../../d6/dd8/class_instructions_1_1_branch_1_1_less_than_zero.xhtml" target="_top" xlink:title=" ">
<polygon fill="none" stroke="black" points="1464,-0.5 1464,-79.5 1568,-79.5 1568,-0.5 1464,-0.5"/>
<text text-anchor="start" x="1472" y="-67.5" font-family="Helvetica,sans-Serif" font-size="10.00">Instructions::Branch</text>
<text text-anchor="middle" x="1516" y="-56.5" font-family="Helvetica,sans-Serif" font-size="10.00">::LessThanZero</text>
<polyline fill="none" stroke="black" points="1464,-49.5 1568,-49.5 "/>
<text text-anchor="middle" x="1516" y="-37.5" font-family="Helvetica,sans-Serif" font-size="10.00"> </text>
<polyline fill="none" stroke="black" points="1464,-30.5 1568,-30.5 "/>
<text text-anchor="start" x="1472" y="-18.5" font-family="Helvetica,sans-Serif" font-size="10.00">+ LessThanZero()</text>
<text text-anchor="start" x="1472" y="-7.5" font-family="Helvetica,sans-Serif" font-size="10.00">+ execute()</text>
</a>
</g>
</g>
<!-- Node1&#45;&gt;Node13 -->
<g id="edge12" class="edge"><title>Node1&#45;&gt;Node13</title>
<path fill="none" stroke="midnightblue" d="M1235.86,-148.205C1294.04,-135.396 1382.74,-112.609 1455,-80 1457.98,-78.6557 1460.98,-77.1821 1463.97,-75.6195"/>
<polygon fill="none" stroke="midnightblue" points="1235.11,-144.787 1226.08,-150.328 1236.6,-151.628 1235.11,-144.787"/>
</g>
<!-- Node14 -->
<g id="node14" class="node"><title>Node14</title>
<g id="a_node14"><a xlink:href="../../dc/d4f/class_instructions_1_1_branch_1_1_non_null.xhtml" target="_top" xlink:title=" ">
<polygon fill="none" stroke="black" points="1586,-0.5 1586,-79.5 1690,-79.5 1690,-0.5 1586,-0.5"/>
<text text-anchor="start" x="1594" y="-67.5" font-family="Helvetica,sans-Serif" font-size="10.00">Instructions::Branch</text>
<text text-anchor="middle" x="1638" y="-56.5" font-family="Helvetica,sans-Serif" font-size="10.00">::NonNull</text>
<polyline fill="none" stroke="black" points="1586,-49.5 1690,-49.5 "/>
<text text-anchor="middle" x="1638" y="-37.5" font-family="Helvetica,sans-Serif" font-size="10.00"> </text>
<polyline fill="none" stroke="black" points="1586,-30.5 1690,-30.5 "/>
<text text-anchor="start" x="1594" y="-18.5" font-family="Helvetica,sans-Serif" font-size="10.00">+ NonNull()</text>
<text text-anchor="start" x="1594" y="-7.5" font-family="Helvetica,sans-Serif" font-size="10.00">+ execute()</text>
</a>
</g>
</g>
<!-- Node1&#45;&gt;Node14 -->
<g id="edge13" class="edge"><title>Node1&#45;&gt;Node14</title>
<path fill="none" stroke="midnightblue" d="M1236.03,-155.301C1316.96,-146.923 1461.81,-126.409 1577,-80 1579.91,-78.8257 1582.84,-77.5087 1585.75,-76.0883"/>
<polygon fill="none" stroke="midnightblue" points="1235.61,-151.826 1226.01,-156.311 1236.31,-158.791 1235.61,-151.826"/>
</g>
<!-- Node15 -->
<g id="node15" class="node"><title>Node15</title>
<g id="a_node15"><a xlink:href="../../de/dc0/class_instructions_1_1_branch_1_1_not_equal_zero.xhtml" target="_top" xlink:title=" ">
<polygon fill="none" stroke="black" points="1708,-0.5 1708,-79.5 1812,-79.5 1812,-0.5 1708,-0.5"/>
<text text-anchor="start" x="1716" y="-67.5" font-family="Helvetica,sans-Serif" font-size="10.00">Instructions::Branch</text>
<text text-anchor="middle" x="1760" y="-56.5" font-family="Helvetica,sans-Serif" font-size="10.00">::NotEqualZero</text>
<polyline fill="none" stroke="black" points="1708,-49.5 1812,-49.5 "/>
<text text-anchor="middle" x="1760" y="-37.5" font-family="Helvetica,sans-Serif" font-size="10.00"> </text>
<polyline fill="none" stroke="black" points="1708,-30.5 1812,-30.5 "/>
<text text-anchor="start" x="1716" y="-18.5" font-family="Helvetica,sans-Serif" font-size="10.00">+ NotEqualZero()</text>
<text text-anchor="start" x="1716" y="-7.5" font-family="Helvetica,sans-Serif" font-size="10.00">+ execute()</text>
</a>
</g>
</g>
<!-- Node1&#45;&gt;Node15 -->
<g id="edge14" class="edge"><title>Node1&#45;&gt;Node15</title>
<path fill="none" stroke="midnightblue" d="M1236.38,-159.226C1336.92,-155.37 1539.62,-140.081 1699,-80 1701.94,-78.8915 1704.89,-77.6276 1707.81,-76.2492"/>
<polygon fill="none" stroke="midnightblue" points="1235.97,-155.739 1226.1,-159.594 1236.22,-162.734 1235.97,-155.739"/>
</g>
<!-- Node16 -->
<g id="node16" class="node"><title>Node16</title>
<g id="a_node16"><a xlink:href="../../da/d77/class_instructions_1_1_branch_1_1_ref_compare_equal.xhtml" target="_top" xlink:title=" ">
<polygon fill="none" stroke="black" points="1830,-0.5 1830,-79.5 1940,-79.5 1940,-0.5 1830,-0.5"/>
<text text-anchor="start" x="1838" y="-67.5" font-family="Helvetica,sans-Serif" font-size="10.00">Instructions::Branch</text>
<text text-anchor="middle" x="1885" y="-56.5" font-family="Helvetica,sans-Serif" font-size="10.00">::RefCompareEqual</text>
<polyline fill="none" stroke="black" points="1830,-49.5 1940,-49.5 "/>
<text text-anchor="middle" x="1885" y="-37.5" font-family="Helvetica,sans-Serif" font-size="10.00"> </text>
<polyline fill="none" stroke="black" points="1830,-30.5 1940,-30.5 "/>
<text text-anchor="start" x="1838" y="-18.5" font-family="Helvetica,sans-Serif" font-size="10.00">+ RefCompareEqual()</text>
<text text-anchor="start" x="1838" y="-7.5" font-family="Helvetica,sans-Serif" font-size="10.00">+ execute()</text>
</a>
</g>
</g>
<!-- Node1&#45;&gt;Node16 -->
<g id="edge15" class="edge"><title>Node1&#45;&gt;Node16</title>
<path fill="none" stroke="midnightblue" d="M1236.7,-161.339C1354.58,-161.057 1615.84,-151.545 1821,-80 1823.95,-78.9718 1826.91,-77.7935 1829.85,-76.5025"/>
<polygon fill="none" stroke="midnightblue" points="1236.42,-157.839 1226.42,-161.341 1236.42,-164.839 1236.42,-157.839"/>
</g>
<!-- Node17 -->
<g id="node17" class="node"><title>Node17</title>
<g id="a_node17"><a xlink:href="../../d5/dd2/class_instructions_1_1_branch_1_1_ref_compare_not_equal.xhtml" target="_top" xlink:title=" ">
<polygon fill="none" stroke="black" points="1958.5,-0.5 1958.5,-79.5 2083.5,-79.5 2083.5,-0.5 1958.5,-0.5"/>
<text text-anchor="start" x="1966.5" y="-67.5" font-family="Helvetica,sans-Serif" font-size="10.00">Instructions::Branch</text>
<text text-anchor="middle" x="2021" y="-56.5" font-family="Helvetica,sans-Serif" font-size="10.00">::RefCompareNotEqual</text>
<polyline fill="none" stroke="black" points="1958.5,-49.5 2083.5,-49.5 "/>
<text text-anchor="middle" x="2021" y="-37.5" font-family="Helvetica,sans-Serif" font-size="10.00"> </text>
<polyline fill="none" stroke="black" points="1958.5,-30.5 2083.5,-30.5 "/>
<text text-anchor="start" x="1966.5" y="-18.5" font-family="Helvetica,sans-Serif" font-size="10.00">+ RefCompareNotEqual()</text>
<text text-anchor="start" x="1966.5" y="-7.5" font-family="Helvetica,sans-Serif" font-size="10.00">+ execute()</text>
</a>
</g>
</g>
<!-- Node1&#45;&gt;Node17 -->
<g id="edge16" class="edge"><title>Node1&#45;&gt;Node17</title>
<path fill="none" stroke="midnightblue" d="M1236.25,-157.18C1395.77,-148.169 1815.98,-121.141 1949,-80 1952.12,-79.0339 1955.27,-77.9265 1958.4,-76.7112"/>
<polygon fill="none" stroke="midnightblue" points="1235.91,-153.693 1226.12,-157.747 1236.3,-160.682 1235.91,-153.693"/>
</g>
<!-- Node18 -->
<g id="node18" class="node"><title>Node18</title>
<g id="a_node18"><a xlink:href="../../de/da3/class_instructions_1_1_branch_1_1_ref_null.xhtml" target="_top" xlink:title=" ">
<polygon fill="none" stroke="black" points="2102,-0.5 2102,-79.5 2206,-79.5 2206,-0.5 2102,-0.5"/>
<text text-anchor="start" x="2110" y="-67.5" font-family="Helvetica,sans-Serif" font-size="10.00">Instructions::Branch</text>
<text text-anchor="middle" x="2154" y="-56.5" font-family="Helvetica,sans-Serif" font-size="10.00">::RefNull</text>
<polyline fill="none" stroke="black" points="2102,-49.5 2206,-49.5 "/>
<text text-anchor="middle" x="2154" y="-37.5" font-family="Helvetica,sans-Serif" font-size="10.00"> </text>
<polyline fill="none" stroke="black" points="2102,-30.5 2206,-30.5 "/>
<text text-anchor="start" x="2110" y="-18.5" font-family="Helvetica,sans-Serif" font-size="10.00">+ RefNull()</text>
<text text-anchor="start" x="2110" y="-7.5" font-family="Helvetica,sans-Serif" font-size="10.00">+ execute()</text>
</a>
</g>
</g>
<!-- Node1&#45;&gt;Node18 -->
<g id="edge17" class="edge"><title>Node1&#45;&gt;Node18</title>
<path fill="none" stroke="midnightblue" d="M1236.18,-158.908C1415.94,-153.699 1933.58,-134.268 2093,-80 2095.97,-78.9873 2098.95,-77.8005 2101.9,-76.4832"/>
<polygon fill="none" stroke="midnightblue" points="1236,-155.411 1226.1,-159.195 1236.19,-162.409 1236,-155.411"/>
</g>
<!-- Node2 -->
<g id="node2" class="node"><title>Node2</title>
<g id="a_node2"><a xlink:href="../../d4/da8/class_instructions_1_1_instruction.xhtml" target="_top" xlink:title=" ">
<polygon fill="none" stroke="black" points="1115,-243.5 1115,-344.5 1233,-344.5 1233,-243.5 1115,-243.5"/>
<text text-anchor="middle" x="1174" y="-332.5" font-family="Helvetica,sans-Serif" font-size="10.00">Instructions::Instruction</text>
<polyline fill="none" stroke="black" points="1115,-325.5 1233,-325.5 "/>
<text text-anchor="start" x="1123" y="-313.5" font-family="Helvetica,sans-Serif" font-size="10.00">+ opcode</text>
<polyline fill="none" stroke="black" points="1115,-306.5 1233,-306.5 "/>
<text text-anchor="start" x="1123" y="-294.5" font-family="Helvetica,sans-Serif" font-size="10.00">+ Instruction()</text>
<text text-anchor="start" x="1123" y="-283.5" font-family="Helvetica,sans-Serif" font-size="10.00">+ ~Instruction()</text>
<text text-anchor="start" x="1123" y="-272.5" font-family="Helvetica,sans-Serif" font-size="10.00">+ execute()</text>
<text text-anchor="start" x="1123" y="-261.5" font-family="Helvetica,sans-Serif" font-size="10.00">+ toBytecode()</text>
<text text-anchor="start" x="1123" y="-250.5" font-family="Helvetica,sans-Serif" font-size="10.00">+ toBytecode_json()</text>
</a>
</g>
</g>
<!-- Node2&#45;&gt;Node1 -->
<g id="edge1" class="edge"><title>Node2&#45;&gt;Node1</title>
<path fill="none" stroke="midnightblue" d="M1174,-233.232C1174,-224.236 1174,-215.101 1174,-206.516"/>
<polygon fill="none" stroke="midnightblue" points="1170.5,-233.291 1174,-243.291 1177.5,-233.291 1170.5,-233.291"/>
</g>
</g>
</svg>
        <g id="navigator" transform="translate(0 0)" fill="#404254">
                <rect fill="#f2f5e9" fill-opacity="0.5" stroke="#606060" stroke-width=".5" x="0" y="0" width="60" height="60"/>
                <use id="zoomplus" xlink:href="#zoomPlus" x="17" y="9" onmousedown="handleZoom(evt,'in')"/>
                <use id="zoomminus" xlink:href="#zoomMin" x="42" y="9" onmousedown="handleZoom(evt,'out')"/>
                <use id="reset" xlink:href="#resetDef" x="30" y="36" onmousedown="handleReset()"/>
                <g id="arrowUp" xlink:href="#dirArrow" transform="translate(30 24)" onmousedown="handlePan(0,-1)">
                  <use xlink:href="#rim" fill="#404040">
                        <set attributeName="fill" to="#808080" begin="arrowUp.mouseover" end="arrowUp.mouseout"/>
                  </use>
                  <path fill="none" stroke="white" stroke-width="1.5" d="M0,-3.0v7 M-2.5,-0.5L0,-3.0L2.5,-0.5"/>
                </g>
                <g id="arrowRight" xlink:href="#dirArrow" transform="rotate(90) translate(36 -43)" onmousedown="handlePan(1,0)">
                  <use xlink:href="#rim" fill="#404040">
                        <set attributeName="fill" to="#808080" begin="arrowRight.mouseover" end="arrowRight.mouseout"/>
                  </use>
                  <path fill="none" stroke="white" stroke-width="1.5" d="M0,-3.0v7 M-2.5,-0.5L0,-3.0L2.5,-0.5"/>
                </g>
                <g id="arrowDown" xlink:href="#dirArrow" transform="rotate(180) translate(-30 -48)" onmousedown="handlePan(0,1)">
                  <use xlink:href="#rim" fill="#404040">
                        <set attributeName="fill" to="#808080" begin="arrowDown.mouseover" end="arrowDown.mouseout"/>
                  </use>
                  <path fill="none" stroke="white" stroke-width="1.5" d="M0,-3.0v7 M-2.5,-0.5L0,-3.0L2.5,-0.5"/>
                </g>
                <g id="arrowLeft" xlink:href="#dirArrow" transform="rotate(270) translate(-36 17)" onmousedown="handlePan(-1,0)">
                  <use xlink:href="#rim" fill="#404040">
                        <set attributeName="fill" to="#808080" begin="arrowLeft.mouseover" end="arrowLeft.mouseout"/>
                  </use>
                  <path fill="none" stroke="white" stroke-width="1.5" d="M0,-3.0v7 M-2.5,-0.5L0,-3.0L2.5,-0.5"/>
                </g>
        </g>
        <svg viewBox="0 0 15 15" width="100%" height="30px" preserveAspectRatio="xMaxYMin meet">
         <g id="arrow_out" transform="scale(0.3 0.3)">
          <a xlink:href="class_instructions_1_1_branch_1_1_base_branch__inherit__graph_org.svg" target="_base">
           <rect id="button" ry="5" rx="5" y="6" x="6" height="38" width="38"
                fill="#f2f5e9" fill-opacity="0.5" stroke="#606060" stroke-width="1.0"/>
           <path id="arrow"
             d="M 11.500037,31.436501 C 11.940474,20.09759 22.043105,11.32322 32.158766,21.979434 L 37.068811,17.246167 C 37.068811,17.246167 37.088388,32 37.088388,32 L 22.160133,31.978069 C 22.160133,31.978069 26.997745,27.140456 26.997745,27.140456 C 18.528582,18.264221 13.291696,25.230495 11.500037,31.436501 z"
             style="fill:#404040;"/>
          </a>
         </g>
        </svg>
</svg>
